<svg xmlns="http://www.w3.org/2000/svg" width="30" height="82" viewBox="0 0 30 82">
  <g id="Group_3108" data-name="Group 3108" transform="translate(-84 -303)">
    <g id="Group_2756" data-name="Group 2756" transform="translate(58.48 164)">
      <rect id="Rectangle_2815" data-name="Rectangle 2815" width="25.412" height="1.19" transform="translate(27.814 188.825)" fill="rgba(0,0,0,0.87)"/>
      <g id="Group_2746" data-name="Group 2746" transform="translate(25.52 184)">
        <path id="Path_469681" data-name="Path 469681" d="M37.63,201.713c.2-.035.393-.075.567-.113.35-.079.637-.161.834-.221s.313-.1.313-.1l-.32.066c-.2.044-.5.1-.845.159-.176.027-.366.057-.567.082l-.139.016h-.218l-.452,0-.505,0-.538-.011q-.274-.008-.554-.027c-.185-.011-.37-.024-.553-.044s-.36-.04-.532-.066c-.124-.016-.243-.037-.36-.057.154.015.313.029.474.038s.346.016.522.024.35.005.522,0,.342-.007.507-.015.322-.018.472-.031.291-.026.421-.042c.26-.029.476-.064.628-.09l.236-.044-.24.018-.629.044-.423.02-.468.013c-.163,0-.331,0-.5,0s-.344,0-.518-.007-.348-.011-.52-.02-.339-.018-.5-.031-.318-.026-.467-.044-.287-.037-.415-.059c-.258-.042-.467-.1-.617-.132a.724.724,0,0,0-.24-.016.844.844,0,0,1,.234.042c.073.022.163.053.267.086l.013,0c.157.051.379.121.65.2.135.038.284.077.441.112s.324.073.5.1c.152.027.309.049.468.068-.123-.011-.242-.026-.36-.042-.218-.031-.43-.062-.629-.1s-.386-.081-.558-.123c-.344-.086-.628-.172-.825-.238l-.309-.106s.106.053.3.137a7.71,7.71,0,0,0,.811.3c.172.053.359.108.558.154s.414.091.635.128.452.064.686.088.474.031.714.038.479,0,.715-.013.465-.033.688-.059S37.429,201.748,37.63,201.713Z" transform="translate(-20.564 -170.355)" fill="#1a0088"/>
        <path id="Path_469682" data-name="Path 469682" d="M33.94,200.962c.09.013.188.026.295.037s.194.016.3.02l-.033.005c-.1.011-.2.018-.293.024a1.921,1.921,0,0,1-.434-.016.483.483,0,0,1-.119-.029l-.042-.015.038.02a.443.443,0,0,0,.117.046,1.633,1.633,0,0,0,.441.059c.091,0,.192,0,.3,0s.218-.016.331-.029.232-.029.351-.049l.232-.044-.018-.112-.126.013c-.119.013-.24.02-.359.026s-.236.007-.35.007-.221,0-.326-.005l-.293-.016c-.181-.015-.333-.031-.437-.046l-.167-.026s.059.02.161.048S33.758,200.935,33.94,200.962Z" transform="translate(-19.356 -170.521)" fill="#1a0088"/>
        <path id="Path_469683" data-name="Path 469683" d="M55.319,185.375v-.033l-.2-.1c-.066-.034-.1-.034-.133-.067-.066,0-.1-.034-.167-.034v-.033h-.066c-.034,0-.034,0-.034-.034h-.1a.032.032,0,0,0-.032-.034.125.125,0,0,1-.1-.033h-.066c-.034,0-.034,0-.066-.034-.134-.033-.267-.067-.433-.1H53.89a.293.293,0,0,1-.167-.034h-.066a1.454,1.454,0,0,0-.167-.034h-.066a.256.256,0,0,0-.167-.033c-.034,0-.034,0-.066-.034h-.167a.2.2,0,0,0-.133-.033.351.351,0,0,1-.167-.034h-.134a1.4,1.4,0,0,0-.165-.033h-.134a.351.351,0,0,0-.167-.034.407.407,0,0,1-.2-.034h-.167a.5.5,0,0,0-.233-.033.245.245,0,0,1-.133-.034,1.658,1.658,0,0,1-.4-.033c-2.794-.269-6.519-.437-10.476-.47-1.963,0-3.891.033-5.654.067-1.8.067-3.426.168-4.823.3a1.565,1.565,0,0,0-.4.034h-.133c-.068,0-.167.033-.233.033h-.167a.358.358,0,0,1-.167.034.254.254,0,0,0-.167.033h-.167c-.066,0-.1.034-.167.034h-.133a.306.306,0,0,1-.167.033h-.1a.348.348,0,0,1-.165.034c-.034,0-.068.034-.1.034h-.167a.105.105,0,0,1-.066.033c-.066,0-.134,0-.167.034h-.066a1.524,1.524,0,0,1-.167.033h-.034c-.133.034-.3.067-.432.1h-.066a.118.118,0,0,1-.066.034c-.034,0-.066,0-.066.033h-.068a.117.117,0,0,0-.1.034h-.034a.105.105,0,0,0-.066.033c-.066,0-.1.034-.133.034a.032.032,0,0,0-.034.033c-.034,0-.066.034-.133.034l-.2.1v.033a.385.385,0,0,0-.2.37v.033a.252.252,0,0,0,.066.2c.133,1.039.267,2.113.4,3.152.2,1.409.365,2.818.566,4.194.165,1.374.331,2.751.532,4.125.167,1.342.365,2.684.532,4.026.365,2.65.7,5.2,1.032,7.615s.632,4.7.931,6.809c.133,1.073.3,2.079.432,3.052,0,.1.034.235.034.336a.526.526,0,0,0,.1.235.7.7,0,0,0,.134.166.557.557,0,0,0,.167.135l.066.067.066.033.167.1c.066.034.1.034.167.067a2.493,2.493,0,0,0,.63.269c.233.067.433.134.666.2a19,19,0,0,0,2.2.37h.133a1.39,1.39,0,0,0,.365.033c.233.034.532.034.9.067.265.034.564.034.831.067h.432c1.032.069,2.23.069,3.492.069h1.83c.466,0,1.032,0,1.63-.034a24.32,24.32,0,0,0,2.495-.2h.167a13.646,13.646,0,0,0,1.8-.3,4.277,4.277,0,0,0,.63-.166,2.862,2.862,0,0,0,.666-.269.257.257,0,0,0,.133-.067l.167-.1.1-.033.066-.069c.032-.033.1-.067.133-.134a.57.57,0,0,0,.167-.134c.034-.067.066-.168.1-.235,0-.134.032-.235.032-.368.167-.974.3-1.98.466-3.02.3-2.113.666-4.394,1-6.809.367-2.415.732-4.965,1.132-7.615.2-1.308.365-2.65.566-4.026.2-1.34.4-2.717.6-4.091.2-1.409.4-2.785.6-4.194.134-1.039.267-2.113.433-3.152a.252.252,0,0,0,.066-.2v-.034A.381.381,0,0,0,55.319,185.375Zm-29.334.2c0-.034.032-.034.032-.069.034,0,.068,0,.068-.033.032,0,.066-.034.1-.034s.068-.033.1-.033a1.117,1.117,0,0,1,.034.334A3.137,3.137,0,0,1,25.986,185.577Zm1.1-.37c.066-.033.167-.033.233-.067a.666.666,0,0,0,.233-.033h.1c.032,0,.066-.034.1-.034a.55.55,0,0,0,.233-.034.578.578,0,0,0,.233-.033.715.715,0,0,0,.267-.034c.466-.067,1.032-.1,1.63-.168h.167c.133-.033.3-.033.432-.067h.267a.309.309,0,0,0,.167-.033h.4a1.455,1.455,0,0,1,.167-.034,3.293,3.293,0,0,0,.566-.033h.4c.032,0,.032,0,.066-.034h.6c.066,0,.134-.034.2-.034H34.1a2.261,2.261,0,0,1,.467-.033h.5a1,1,0,0,1,.333-.034h.664a.934.934,0,0,0,.3-.033h2.727a.7.7,0,0,1,.267,0,.407.407,0,0,1,.2-.034h.167l.2.034h2.926a.578.578,0,0,0,.233.033h1.164a.407.407,0,0,0,.2.034h.732c.066,0,.133.033.2.033h.666c.032,0,.066.034.1.034h.331a1.98,1.98,0,0,1,.466.034H47.4a.125.125,0,0,0,.1.033h.432c.068,0,.134.034.2.034h.233a.427.427,0,0,1,.2.033h.2c.133,0,.3.034.432.034a1.391,1.391,0,0,1,.365.033h.2a1.439,1.439,0,0,0,.365.034c.2.034.4.034.566.067a1.1,1.1,0,0,1,.333.034c.133,0,.265.033.365.033a.7.7,0,0,1,.265.034c.267.033.5.067.766.1a3.593,3.593,0,0,1,.632.067c.165.033.331.067.464.1a.411.411,0,0,1,.2.034c.066,0,.167.034.233.034a1.745,1.745,0,0,1,.566.267c.032.034.066.067.066.1,0,.067-.034.1-.1.134a1.134,1.134,0,0,1-.532.235.293.293,0,0,1-.167.034h-.034a.365.365,0,0,1-.165.033,6.571,6.571,0,0,1-.865.135,1.159,1.159,0,0,1-.333.033.893.893,0,0,1-.3.034,2.976,2.976,0,0,1-.532.067c-.3.033-.6.067-.931.1s-.666.032-1.032.067c-.133,0-.233.033-.365.033h-.2a1.7,1.7,0,0,1-.432.034c-.532.033-1.1.067-1.73.067a.478.478,0,0,1-.233.034h-.664c-.034.033-.034,0-.066.033H44.843c-.1,0-.2.034-.331.034H41.618c-.1.033-.2,0-.3.033l-.233-.033H38.158c-.032-.034-.066-.034-.133-.034H36.994c-.133,0-.233-.033-.365-.033H36c-.133,0-.267-.034-.365-.034H35a1.21,1.21,0,0,0-.365-.034h-.3a.365.365,0,0,1-.165-.033h-.034c-.865-.034-1.664-.067-2.394-.134a.549.549,0,0,1-.233-.034c-.965-.067-1.8-.168-2.529-.235-.1-.033-.233-.033-.331-.067a1,1,0,0,1-.333-.034.307.307,0,0,1-.167-.033c-.133,0-.233-.034-.333-.034-.066,0-.1-.033-.133-.033-.066,0-.167-.034-.233-.034s-.1-.033-.167-.033H27.25a.3.3,0,0,0-.167-.034,2.23,2.23,0,0,1-.267-.1l-.1-.5A1.167,1.167,0,0,1,27.083,185.207Zm19.59,24.051-.4.1a24.8,24.8,0,0,1-8.016.638,14.461,14.461,0,0,1-3.925-.7,6.03,6.03,0,0,1-2.926-1.98c-.1-.5-.233-1.006-.333-1.542-.2-.838-.365-1.745-.532-2.617-.331-1.812-.664-3.723-1-5.7-.167-1.006-.333-1.98-.5-3.018-.165-1.008-.331-2.046-.5-3.087-.066-.47-.167-.939-.233-1.409-.066-.4-.133-.771-.167-1.174-.032-.168-.066-.368-.1-.536-.1-.571-.2-1.142-.265-1.71a2.416,2.416,0,0,0,.3.067h.2a.207.207,0,0,0,.134.033.117.117,0,0,1,.1.034.752.752,0,0,1,.267.033.892.892,0,0,1,.3.034c.267.034.6.067.965.1,2.794.267,6.519.435,10.476.47s7.683-.1,10.476-.37c.333-.033.664-.067.965-.1a1.2,1.2,0,0,0,.331-.034h.2a.121.121,0,0,1,.1-.033h.167a2.268,2.268,0,0,1,.233-.069.664.664,0,0,0,.267-.033c-.1.571-.2,1.14-.3,1.71-.034.134-.034.269-.066.4-.066.4-.134.771-.2,1.174-.066.5-.167,1.04-.265,1.543-.167,1.04-.367,2.081-.534,3.087s-.365,2.012-.532,3.018c-.365,1.947-.731,3.858-1.064,5.67-.2.9-.365,1.777-.566,2.617-.1.536-.233,1.039-.365,1.542A5.436,5.436,0,0,1,46.673,209.258Zm2.36-.67a.107.107,0,0,0-.032.067l-.066.134c-.034.069-.1.135-.134.2-.066.067-.133.168-.2.235a.916.916,0,0,1-.167.2l-.2.2a.416.416,0,0,1-.167.168l-.2.2a10.822,10.822,0,0,1-1.662,1.174,12.451,12.451,0,0,1-3.061,1.208c-.233.033-.466.1-.664.134s-.4.067-.566.1c-.365.033-.666.067-.9.1h-1.3c-.233-.033-.532-.067-.9-.134-.167-.034-.367-.067-.566-.1s-.432-.1-.664-.134a13.227,13.227,0,0,1-3.061-1.241A10.178,10.178,0,0,1,32.9,209.9a1.4,1.4,0,0,1-.365-.368l-.2-.2a.965.965,0,0,1-.167-.2.607.607,0,0,1-.167-.235.856.856,0,0,1-.165-.2l-.034-.135c-.034,0-.034-.032-.034-.067a6.6,6.6,0,0,0,3.161,1.241c.265.069.664.135,1.13.2a27.974,27.974,0,0,0,8.947,0c.233-.034.432-.067.632-.1.8-.168,1.3-.3,1.3-.3A5.162,5.162,0,0,0,49.034,208.588Zm5.222-19.556c-.167,1.407-.365,2.783-.566,4.192-.167,1.376-.365,2.751-.564,4.093-.167,1.375-.367,2.717-.534,4.024-.331,2.651-.7,5.2-1,7.615-.032.3-.1.605-.133.907-.1.368-.233.737-.333,1.107-.365,1.073-.9,2.046-1.164,3.119-.2.9-.3,1.743-.432,2.65a8.39,8.39,0,0,1-.532,1.98,4.73,4.73,0,0,1-.6.47,42.178,42.178,0,0,1-8.746.435,42.562,42.562,0,0,0,8.215-.1,11.95,11.95,0,0,1-4.389,1.342c-.4,0-.765.034-1.1.034-.5.033-.9.033-1.23.033H39.488c-.333-.033-.731-.033-1.23-.067-.333,0-.7-.033-1.1-.033a11.7,11.7,0,0,1-4.357-1.409c1.862.168,4.058.134,4.756.134a35.348,35.348,0,0,1-5.521-.638c-.133-.1-.267-.2-.365-.267a8.914,8.914,0,0,1-.532-2.014,24.661,24.661,0,0,0-.4-2.65,24.791,24.791,0,0,0-1.1-3.119c-.133-.368-.233-.771-.333-1.142-.032-.3-.1-.569-.133-.871-.267-2.449-.6-5-.9-7.649q-.247-1.962-.5-4.026c-.167-1.34-.367-2.716-.532-4.125-.167-1.375-.333-2.783-.534-4.192-.1-.872-.2-1.745-.331-2.65a.637.637,0,0,0,.265.067c.066.033.134.033.233.067.1.67.233,1.342.333,2.012.167,1.04.333,2.079.532,3.119.167,1.04.333,2.081.532,3.087.167,1.04.367,2.012.532,3.018.367,1.98.732,3.892,1.132,5.67.167.9.365,1.777.566,2.65a24.958,24.958,0,0,0,.7,2.415,1.112,1.112,0,0,0,.1.3.258.258,0,0,0,.068.134l.066.168c.066.1.133.168.2.267.034.067.1.135.167.235l.4.4c.133.134.3.269.432.4a9.338,9.338,0,0,0,1.764,1.141,11.818,11.818,0,0,0,3.159,1.14,5.569,5.569,0,0,0,.664.1,3.823,3.823,0,0,0,.566.067.752.752,0,0,0,.267.033h-.865c-.765,0-1.63.067-2.561.135-.466.033-.965.067-1.431.134-.265.034-.5.067-.731.1-.267.067-.5.1-.766.168a.862.862,0,0,0-.365.1c-.032.034-.066.034-.1.067l-.032.034h-.034l-.032.033-.034.034a.114.114,0,0,1-.032.067c-.034.034-.034.1-.068.134a.362.362,0,0,0,.034.269.52.52,0,0,0,.133.2c.134.1.233.168.333.237.432.235.9.435,1.331.636a13.558,13.558,0,0,0,2.428.806,6.59,6.59,0,0,0,1,.2c.3.067.566.1.765.134.233,0,.4.033.5.033h.165a6.087,6.087,0,0,1-.664-.1c-.4-.1-1.032-.235-1.73-.437-.365-.1-.731-.235-1.13-.368a7.62,7.62,0,0,1-.716-.329,15.08,15.08,0,0,0,1.961.674,13.549,13.549,0,0,0,1.549.307c.376.052.593.072.593.072s-.215-.023-.591-.085c-.09-.014-.247-.054-.353-.074.061.011.149.031.2.04.133.02.236.031.306.038l.109.011-.165-.031c.175.022.272.031.272.031s-.168-.02-.458-.067l-.059-.011a9.678,9.678,0,0,1-1.058-.285,9.5,9.5,0,0,1-1.422-.6c-.254-.128-.5-.276-.756-.435a1.021,1.021,0,0,1-.168-.125.2.2,0,0,1-.075-.141.157.157,0,0,1,.023-.067.289.289,0,0,1,.034-.04l.009-.011v0l0,0,.016-.013a.618.618,0,0,1,.184-.078c.07-.02.143-.038.217-.054l.222-.052c.145-.034.29-.061.437-.087.292-.051.582-.083.865-.114.564-.058,1.091-.108,1.544-.137.414-.025.765-.049,1.024-.063.5-.018.8-.023.8-.023h-.346l.039,0-.417-.007c-.265,0-.645,0-1.1.013s-.987.038-1.553.09c-.186.018-.378.04-.569.063s-.4.04-.6.065c-.344.042-.686.116-1.032.181a1.487,1.487,0,0,0-.256.078.351.351,0,0,0-.122.078.3.3,0,0,0-.082.121.178.178,0,0,0,.009.154.347.347,0,0,0,.09.112,1.233,1.233,0,0,0,.226.146c.294.154.587.3.878.424-.192-.074-.356-.107-.555-.2-.374-.163-.749-.354-1.126-.556a1.386,1.386,0,0,1-.263-.173c-.075-.065-.14-.159-.1-.246.079-.19.31-.244.516-.289l.639-.128c.211-.04.424-.074.636-.1.424-.058.843-.1,1.25-.134.813-.07,1.572-.116,2.224-.145s1.2-.051,1.576-.061l.4-.009.4.014c.381.014.924.042,1.576.078s1.411.09,2.222.17c.407.04.826.085,1.248.148.211.033.424.069.636.112l.638.135c.206.047.435.1.512.294.038.087-.029.179-.1.246a1.548,1.548,0,0,1-.265.17c-.381.2-.758.385-1.134.544-.2.085-.364.116-.557.188.292-.121.587-.264.883-.415a1.211,1.211,0,0,0,.226-.143.344.344,0,0,0,.091-.11.189.189,0,0,0,.013-.155.341.341,0,0,0-.082-.121.4.4,0,0,0-.12-.079,1.564,1.564,0,0,0-.258-.079c-.344-.069-.684-.148-1.028-.191-.2-.029-.4-.052-.6-.072s-.381-.051-.568-.07c-.566-.06-1.1-.087-1.553-.108s-.835-.02-1.1-.023l-.417,0,.039,0-.346-.005s.3.009.8.034c.26.014.611.042,1.023.074.453.033.981.089,1.544.154.283.033.573.07.863.123.147.027.292.058.437.092l.222.056c.073.016.145.034.215.056a.62.62,0,0,1,.184.079l.014.013,0,0v0l.011.011a.293.293,0,0,1,.032.042.142.142,0,0,1,.023.065.2.2,0,0,1-.077.141,1.032,1.032,0,0,1-.17.123c-.256.155-.505.3-.759.426a9.444,9.444,0,0,1-1.431.585,9.552,9.552,0,0,1-1.06.273l-.059.013c-.292.043-.46.061-.46.061l.274-.027-.165.027L41.98,216c.072-.007.176-.016.306-.036.054-.007.143-.027.2-.036-.106.018-.265.058-.355.07-.376.056-.593.078-.593.078s.217-.016.595-.065a13.454,13.454,0,0,0,1.553-.291,14.732,14.732,0,0,0,2.12-.7c.378-.155.759-.343,1.143-.538a1.472,1.472,0,0,0,.278-.177.43.43,0,0,0,.113-.134.313.313,0,0,0,.029-.09.23.23,0,0,0-.014-.094.369.369,0,0,0-.1-.148.453.453,0,0,0-.145-.1,1.86,1.86,0,0,0-.319-.1l-.639-.132c-.215-.042-.428-.076-.641-.107-.424-.06-.845-.1-1.252-.139-.813-.074-1.574-.123-2.226-.154s-1.2-.042-1.578-.051l-.287,0,.093,0-.2,0-.2,0,.095,0-.288,0c-.38,0-.924.005-1.578.031s-1.413.065-2.228.13c-.407.033-.827.07-1.254.125-.213.029-.426.061-.641.1l-.641.123a1.7,1.7,0,0,0-.319.1.448.448,0,0,0-.147.1.379.379,0,0,0-.1.146.244.244,0,0,0-.014.1.264.264,0,0,0,.027.09.432.432,0,0,0,.111.135,1.427,1.427,0,0,0,.278.179q.505.268,1.01.491c-.079-.036-.158-.065-.236-.1a2.2,2.2,0,0,1-.632-.3,1.6,1.6,0,0,1-.333-.168,1.386,1.386,0,0,1-.3-.168c-.1-.067-.2-.1-.3-.168a.463.463,0,0,1-.066-.1.061.061,0,0,1,0-.1v-.034l.032-.034.034-.033H32.4v-.034a.1.1,0,0,0,.066-.033c.1-.034.2-.067.333-.1.233-.034.466-.1.7-.134s.5-.1.732-.134c.466-.069.963-.1,1.429-.168.9-.067,1.764-.135,2.529-.2.731-.033,1.363-.067,1.8-.1h.167c.432.034,1.064.069,1.794.135s1.6.134,2.529.235c.466.033.931.1,1.431.168.233.033.466.1.7.134.233.067.5.1.731.168.1.033.233.067.333.1l.032.034h.034l.066.067v.034a.032.032,0,0,1,.034.033v.067l-.1.1a1.949,1.949,0,0,1-.267.2.974.974,0,0,0-.331.168.488.488,0,0,1-.2.067.251.251,0,0,1-.133.067,3.834,3.834,0,0,1-.632.336c-.133.033-.265.1-.365.134-.3.134-.6.235-.865.336a11.4,11.4,0,0,1-1.132.368,16.715,16.715,0,0,1-1.762.4c-.432.1-.664.134-.664.134h.167c.133-.034.3-.034.5-.067a3.72,3.72,0,0,0,.8-.1,6.567,6.567,0,0,0,1-.2,14.321,14.321,0,0,0,2.428-.771c.432-.2.9-.4,1.331-.638a2.829,2.829,0,0,1,.331-.2c.034-.067.1-.1.134-.2a.264.264,0,0,0,.032-.269.17.17,0,0,0-.066-.134c0-.034,0-.067-.032-.067l-.068-.067-.032-.034c-.034-.034-.066-.067-.1-.067a1.79,1.79,0,0,0-.4-.134,5.926,5.926,0,0,1-.731-.168c-.233-.034-.5-.067-.732-.1-.5-.067-.963-.134-1.429-.168-.933-.067-1.8-.134-2.563-.134a1.09,1.09,0,0,1-.331-.034h.3c.2-.033.4-.033.6-.067s.433-.067.666-.1a11.675,11.675,0,0,0,3.193-1.105,12.145,12.145,0,0,0,1.762-1.142,4.34,4.34,0,0,0,.4-.368c.066-.067.167-.134.233-.2a1.422,1.422,0,0,0,.2-.235.607.607,0,0,0,.167-.235,1.42,1.42,0,0,0,.2-.235l.1-.166c0-.034.034-.1.034-.135a1.2,1.2,0,0,0,.133-.3c.267-.771.466-1.577.7-2.415q.3-1.257.6-2.617c.4-1.812.8-3.69,1.2-5.668.2-1.008.365-1.98.566-3.02.2-1.006.4-2.046.564-3.085.2-1.04.4-2.081.566-3.121.133-.67.233-1.342.365-1.978a.6.6,0,0,1,.233-.069,1.736,1.736,0,0,0,.233-.067C54.523,187.253,54.388,188.16,54.256,189.032ZM34.311,214.563a1.078,1.078,0,0,0,.193.141c.254.155.514.307.77.433s.491.228.727.318c-.342-.112-.7-.246-1.067-.406-.3-.128-.6-.282-.906-.444a1.121,1.121,0,0,1-.211-.137c-.059-.052-.107-.123-.077-.188.061-.146.242-.188.408-.226.116-.022.233-.045.347-.069a.643.643,0,0,0-.163.079l-.027.023-.007.007-.009.009-.011.011c-.013.018-.023.025-.038.049a.289.289,0,0,0-.052.146A.33.33,0,0,0,34.311,214.563Zm2.282,1.118-.172-.045c-.34-.09-.749-.262-1.13-.4A12.6,12.6,0,0,0,36.593,215.681ZM44.1,215.5c.238-.089.484-.191.729-.311s.519-.273.775-.424a1.254,1.254,0,0,0,.2-.139.328.328,0,0,0,.124-.251.272.272,0,0,0-.05-.148c-.014-.023-.025-.031-.038-.049l-.009-.011-.009-.009-.005-.007-.029-.023a.662.662,0,0,0-.163-.083c.116.025.231.049.347.072.167.04.347.083.407.231.03.065-.02.135-.081.188a1.209,1.209,0,0,1-.211.135c-.306.157-.609.307-.912.434C44.8,215.264,44.442,215.392,44.1,215.5Zm.709-.21c-.381.13-.792.3-1.13.383l-.172.043A12.559,12.559,0,0,0,44.809,215.292ZM55.02,185.743c0,.034-.032.034-.066.069-.032,0-.1.032-.133.032-.034.034-.066.034-.133.067a.119.119,0,0,0-.1.034.242.242,0,0,0-.133.034v-.034c.133-.067.2-.134.2-.235,0-.067-.034-.1-.1-.168l-.066-.067c.034,0,.034,0,.066.033h.066c.034.034.034.034.068.034s.032,0,.066.034a.121.121,0,0,1,.1.033h.034c.034.034.034.034.066.034l.034.033h.032a.033.033,0,0,0,.034.034C55.054,185.743,55.054,185.743,55.02,185.743Z" transform="translate(-25.52 -184)" fill="#1a0088"/>
      </g>
      <path id="Path_469684" data-name="Path 469684" d="M29.556,189.45a24.678,24.678,0,0,1,1.526,4.154,24.247,24.247,0,0,0,4.97,8.513" transform="translate(3.149 4.328)" fill="none" stroke="#182883" stroke-miterlimit="10" stroke-width="0.1"/>
    </g>
    <g id="Group_2757" data-name="Group 2757" transform="translate(58.48 119)">
      <rect id="Rectangle_2815-2" data-name="Rectangle 2815" width="21.412" height="1.19" transform="translate(29.814 197.825)" fill="rgba(0,0,0,0.87)"/>
      <g id="Group_2746-2" data-name="Group 2746" transform="translate(25.52 184)">
        <path id="Path_469681-2" data-name="Path 469681" d="M37.63,201.713c.2-.035.393-.075.567-.113.35-.079.637-.161.834-.221s.313-.1.313-.1l-.32.066c-.2.044-.5.1-.845.159-.176.027-.366.057-.567.082l-.139.016h-.218l-.452,0-.505,0-.538-.011q-.274-.008-.554-.027c-.185-.011-.37-.024-.553-.044s-.36-.04-.532-.066c-.124-.016-.243-.037-.36-.057.154.015.313.029.474.038s.346.016.522.024.35.005.522,0,.342-.007.507-.015.322-.018.472-.031.291-.026.421-.042c.26-.029.476-.064.628-.09l.236-.044-.24.018-.629.044-.423.02-.468.013c-.163,0-.331,0-.5,0s-.344,0-.518-.007-.348-.011-.52-.02-.339-.018-.5-.031-.318-.026-.467-.044-.287-.037-.415-.059c-.258-.042-.467-.1-.617-.132a.724.724,0,0,0-.24-.016.844.844,0,0,1,.234.042c.073.022.163.053.267.086l.013,0c.157.051.379.121.65.2.135.038.284.077.441.112s.324.073.5.1c.152.027.309.049.468.068-.123-.011-.242-.026-.36-.042-.218-.031-.43-.062-.629-.1s-.386-.081-.558-.123c-.344-.086-.628-.172-.825-.238l-.309-.106s.106.053.3.137a7.71,7.71,0,0,0,.811.3c.172.053.359.108.558.154s.414.091.635.128.452.064.686.088.474.031.714.038.479,0,.715-.013.465-.033.688-.059S37.429,201.748,37.63,201.713Z" transform="translate(-20.564 -170.355)" fill="#1a0088"/>
        <path id="Path_469682-2" data-name="Path 469682" d="M33.94,200.962c.09.013.188.026.295.037s.194.016.3.02l-.033.005c-.1.011-.2.018-.293.024a1.921,1.921,0,0,1-.434-.016.483.483,0,0,1-.119-.029l-.042-.015.038.02a.443.443,0,0,0,.117.046,1.633,1.633,0,0,0,.441.059c.091,0,.192,0,.3,0s.218-.016.331-.029.232-.029.351-.049l.232-.044-.018-.112-.126.013c-.119.013-.24.02-.359.026s-.236.007-.35.007-.221,0-.326-.005l-.293-.016c-.181-.015-.333-.031-.437-.046l-.167-.026s.059.02.161.048S33.758,200.935,33.94,200.962Z" transform="translate(-19.356 -170.521)" fill="#1a0088"/>
        <path id="Path_469683-2" data-name="Path 469683" d="M55.319,185.375v-.033l-.2-.1c-.066-.034-.1-.034-.133-.067-.066,0-.1-.034-.167-.034v-.033h-.066c-.034,0-.034,0-.034-.034h-.1a.032.032,0,0,0-.032-.034.125.125,0,0,1-.1-.033h-.066c-.034,0-.034,0-.066-.034-.134-.033-.267-.067-.433-.1H53.89a.293.293,0,0,1-.167-.034h-.066a1.454,1.454,0,0,0-.167-.034h-.066a.256.256,0,0,0-.167-.033c-.034,0-.034,0-.066-.034h-.167a.2.2,0,0,0-.133-.033.351.351,0,0,1-.167-.034h-.134a1.4,1.4,0,0,0-.165-.033h-.134a.351.351,0,0,0-.167-.034.407.407,0,0,1-.2-.034h-.167a.5.5,0,0,0-.233-.033.245.245,0,0,1-.133-.034,1.658,1.658,0,0,1-.4-.033c-2.794-.269-6.519-.437-10.476-.47-1.963,0-3.891.033-5.654.067-1.8.067-3.426.168-4.823.3a1.565,1.565,0,0,0-.4.034h-.133c-.068,0-.167.033-.233.033h-.167a.358.358,0,0,1-.167.034.254.254,0,0,0-.167.033h-.167c-.066,0-.1.034-.167.034h-.133a.306.306,0,0,1-.167.033h-.1a.348.348,0,0,1-.165.034c-.034,0-.068.034-.1.034h-.167a.105.105,0,0,1-.066.033c-.066,0-.134,0-.167.034h-.066a1.524,1.524,0,0,1-.167.033h-.034c-.133.034-.3.067-.432.1h-.066a.118.118,0,0,1-.066.034c-.034,0-.066,0-.066.033h-.068a.117.117,0,0,0-.1.034h-.034a.105.105,0,0,0-.066.033c-.066,0-.1.034-.133.034a.032.032,0,0,0-.034.033c-.034,0-.066.034-.133.034l-.2.1v.033a.385.385,0,0,0-.2.37v.033a.252.252,0,0,0,.066.2c.133,1.039.267,2.113.4,3.152.2,1.409.365,2.818.566,4.194.165,1.374.331,2.751.532,4.125.167,1.342.365,2.684.532,4.026.365,2.65.7,5.2,1.032,7.615s.632,4.7.931,6.809c.133,1.073.3,2.079.432,3.052,0,.1.034.235.034.336a.526.526,0,0,0,.1.235.7.7,0,0,0,.134.166.557.557,0,0,0,.167.135l.066.067.066.033.167.1c.066.034.1.034.167.067a2.493,2.493,0,0,0,.63.269c.233.067.433.134.666.2a19,19,0,0,0,2.2.37h.133a1.39,1.39,0,0,0,.365.033c.233.034.532.034.9.067.265.034.564.034.831.067h.432c1.032.069,2.23.069,3.492.069h1.83c.466,0,1.032,0,1.63-.034a24.32,24.32,0,0,0,2.495-.2h.167a13.646,13.646,0,0,0,1.8-.3,4.277,4.277,0,0,0,.63-.166,2.862,2.862,0,0,0,.666-.269.257.257,0,0,0,.133-.067l.167-.1.1-.033.066-.069c.032-.033.1-.067.133-.134a.57.57,0,0,0,.167-.134c.034-.067.066-.168.1-.235,0-.134.032-.235.032-.368.167-.974.3-1.98.466-3.02.3-2.113.666-4.394,1-6.809.367-2.415.732-4.965,1.132-7.615.2-1.308.365-2.65.566-4.026.2-1.34.4-2.717.6-4.091.2-1.409.4-2.785.6-4.194.134-1.039.267-2.113.433-3.152a.252.252,0,0,0,.066-.2v-.034A.381.381,0,0,0,55.319,185.375Zm-29.334.2c0-.034.032-.034.032-.069.034,0,.068,0,.068-.033.032,0,.066-.034.1-.034s.068-.033.1-.033a1.117,1.117,0,0,1,.034.334A3.137,3.137,0,0,1,25.986,185.577Zm1.1-.37c.066-.033.167-.033.233-.067a.666.666,0,0,0,.233-.033h.1c.032,0,.066-.034.1-.034a.55.55,0,0,0,.233-.034.578.578,0,0,0,.233-.033.715.715,0,0,0,.267-.034c.466-.067,1.032-.1,1.63-.168h.167c.133-.033.3-.033.432-.067h.267a.309.309,0,0,0,.167-.033h.4a1.455,1.455,0,0,1,.167-.034,3.293,3.293,0,0,0,.566-.033h.4c.032,0,.032,0,.066-.034h.6c.066,0,.134-.034.2-.034H34.1a2.261,2.261,0,0,1,.467-.033h.5a1,1,0,0,1,.333-.034h.664a.934.934,0,0,0,.3-.033h2.727a.7.7,0,0,1,.267,0,.407.407,0,0,1,.2-.034h.167l.2.034h2.926a.578.578,0,0,0,.233.033h1.164a.407.407,0,0,0,.2.034h.732c.066,0,.133.033.2.033h.666c.032,0,.066.034.1.034h.331a1.98,1.98,0,0,1,.466.034H47.4a.125.125,0,0,0,.1.033h.432c.068,0,.134.034.2.034h.233a.427.427,0,0,1,.2.033h.2c.133,0,.3.034.432.034a1.391,1.391,0,0,1,.365.033h.2a1.439,1.439,0,0,0,.365.034c.2.034.4.034.566.067a1.1,1.1,0,0,1,.333.034c.133,0,.265.033.365.033a.7.7,0,0,1,.265.034c.267.033.5.067.766.1a3.593,3.593,0,0,1,.632.067c.165.033.331.067.464.1a.411.411,0,0,1,.2.034c.066,0,.167.034.233.034a1.745,1.745,0,0,1,.566.267c.032.034.066.067.066.1,0,.067-.034.1-.1.134a1.134,1.134,0,0,1-.532.235.293.293,0,0,1-.167.034h-.034a.365.365,0,0,1-.165.033,6.571,6.571,0,0,1-.865.135,1.159,1.159,0,0,1-.333.033.893.893,0,0,1-.3.034,2.976,2.976,0,0,1-.532.067c-.3.033-.6.067-.931.1s-.666.032-1.032.067c-.133,0-.233.033-.365.033h-.2a1.7,1.7,0,0,1-.432.034c-.532.033-1.1.067-1.73.067a.478.478,0,0,1-.233.034h-.664c-.034.033-.034,0-.066.033H44.843c-.1,0-.2.034-.331.034H41.618c-.1.033-.2,0-.3.033l-.233-.033H38.158c-.032-.034-.066-.034-.133-.034H36.994c-.133,0-.233-.033-.365-.033H36c-.133,0-.267-.034-.365-.034H35a1.21,1.21,0,0,0-.365-.034h-.3a.365.365,0,0,1-.165-.033h-.034c-.865-.034-1.664-.067-2.394-.134a.549.549,0,0,1-.233-.034c-.965-.067-1.8-.168-2.529-.235-.1-.033-.233-.033-.331-.067a1,1,0,0,1-.333-.034.307.307,0,0,1-.167-.033c-.133,0-.233-.034-.333-.034-.066,0-.1-.033-.133-.033-.066,0-.167-.034-.233-.034s-.1-.033-.167-.033H27.25a.3.3,0,0,0-.167-.034,2.23,2.23,0,0,1-.267-.1l-.1-.5A1.167,1.167,0,0,1,27.083,185.207Zm19.59,24.051-.4.1a24.8,24.8,0,0,1-8.016.638,14.461,14.461,0,0,1-3.925-.7,6.03,6.03,0,0,1-2.926-1.98c-.1-.5-.233-1.006-.333-1.542-.2-.838-.365-1.745-.532-2.617-.331-1.812-.664-3.723-1-5.7-.167-1.006-.333-1.98-.5-3.018-.165-1.008-.331-2.046-.5-3.087-.066-.47-.167-.939-.233-1.409-.066-.4-.133-.771-.167-1.174-.032-.168-.066-.368-.1-.536-.1-.571-.2-1.142-.265-1.71a2.416,2.416,0,0,0,.3.067h.2a.207.207,0,0,0,.134.033.117.117,0,0,1,.1.034.752.752,0,0,1,.267.033.892.892,0,0,1,.3.034c.267.034.6.067.965.1,2.794.267,6.519.435,10.476.47s7.683-.1,10.476-.37c.333-.033.664-.067.965-.1a1.2,1.2,0,0,0,.331-.034h.2a.121.121,0,0,1,.1-.033h.167a2.268,2.268,0,0,1,.233-.069.664.664,0,0,0,.267-.033c-.1.571-.2,1.14-.3,1.71-.034.134-.034.269-.066.4-.066.4-.134.771-.2,1.174-.066.5-.167,1.04-.265,1.543-.167,1.04-.367,2.081-.534,3.087s-.365,2.012-.532,3.018c-.365,1.947-.731,3.858-1.064,5.67-.2.9-.365,1.777-.566,2.617-.1.536-.233,1.039-.365,1.542A5.436,5.436,0,0,1,46.673,209.258Zm2.36-.67a.107.107,0,0,0-.032.067l-.066.134c-.034.069-.1.135-.134.2-.066.067-.133.168-.2.235a.916.916,0,0,1-.167.2l-.2.2a.416.416,0,0,1-.167.168l-.2.2a10.822,10.822,0,0,1-1.662,1.174,12.451,12.451,0,0,1-3.061,1.208c-.233.033-.466.1-.664.134s-.4.067-.566.1c-.365.033-.666.067-.9.1h-1.3c-.233-.033-.532-.067-.9-.134-.167-.034-.367-.067-.566-.1s-.432-.1-.664-.134a13.227,13.227,0,0,1-3.061-1.241A10.178,10.178,0,0,1,32.9,209.9a1.4,1.4,0,0,1-.365-.368l-.2-.2a.965.965,0,0,1-.167-.2.607.607,0,0,1-.167-.235.856.856,0,0,1-.165-.2l-.034-.135c-.034,0-.034-.032-.034-.067a6.6,6.6,0,0,0,3.161,1.241c.265.069.664.135,1.13.2a27.974,27.974,0,0,0,8.947,0c.233-.034.432-.067.632-.1.8-.168,1.3-.3,1.3-.3A5.162,5.162,0,0,0,49.034,208.588Zm5.222-19.556c-.167,1.407-.365,2.783-.566,4.192-.167,1.376-.365,2.751-.564,4.093-.167,1.375-.367,2.717-.534,4.024-.331,2.651-.7,5.2-1,7.615-.032.3-.1.605-.133.907-.1.368-.233.737-.333,1.107-.365,1.073-.9,2.046-1.164,3.119-.2.9-.3,1.743-.432,2.65a8.39,8.39,0,0,1-.532,1.98,4.73,4.73,0,0,1-.6.47,42.178,42.178,0,0,1-8.746.435,42.562,42.562,0,0,0,8.215-.1,11.95,11.95,0,0,1-4.389,1.342c-.4,0-.765.034-1.1.034-.5.033-.9.033-1.23.033H39.488c-.333-.033-.731-.033-1.23-.067-.333,0-.7-.033-1.1-.033a11.7,11.7,0,0,1-4.357-1.409c1.862.168,4.058.134,4.756.134a35.348,35.348,0,0,1-5.521-.638c-.133-.1-.267-.2-.365-.267a8.914,8.914,0,0,1-.532-2.014,24.661,24.661,0,0,0-.4-2.65,24.791,24.791,0,0,0-1.1-3.119c-.133-.368-.233-.771-.333-1.142-.032-.3-.1-.569-.133-.871-.267-2.449-.6-5-.9-7.649q-.247-1.962-.5-4.026c-.167-1.34-.367-2.716-.532-4.125-.167-1.375-.333-2.783-.534-4.192-.1-.872-.2-1.745-.331-2.65a.637.637,0,0,0,.265.067c.066.033.134.033.233.067.1.67.233,1.342.333,2.012.167,1.04.333,2.079.532,3.119.167,1.04.333,2.081.532,3.087.167,1.04.367,2.012.532,3.018.367,1.98.732,3.892,1.132,5.67.167.9.365,1.777.566,2.65a24.958,24.958,0,0,0,.7,2.415,1.112,1.112,0,0,0,.1.3.258.258,0,0,0,.068.134l.066.168c.066.1.133.168.2.267.034.067.1.135.167.235l.4.4c.133.134.3.269.432.4a9.338,9.338,0,0,0,1.764,1.141,11.818,11.818,0,0,0,3.159,1.14,5.569,5.569,0,0,0,.664.1,3.823,3.823,0,0,0,.566.067.752.752,0,0,0,.267.033h-.865c-.765,0-1.63.067-2.561.135-.466.033-.965.067-1.431.134-.265.034-.5.067-.731.1-.267.067-.5.1-.766.168a.862.862,0,0,0-.365.1c-.032.034-.066.034-.1.067l-.032.034h-.034l-.032.033-.034.034a.114.114,0,0,1-.032.067c-.034.034-.034.1-.068.134a.362.362,0,0,0,.034.269.52.52,0,0,0,.133.2c.134.1.233.168.333.237.432.235.9.435,1.331.636a13.558,13.558,0,0,0,2.428.806,6.59,6.59,0,0,0,1,.2c.3.067.566.1.765.134.233,0,.4.033.5.033h.165a6.087,6.087,0,0,1-.664-.1c-.4-.1-1.032-.235-1.73-.437-.365-.1-.731-.235-1.13-.368a7.62,7.62,0,0,1-.716-.329,15.08,15.08,0,0,0,1.961.674,13.549,13.549,0,0,0,1.549.307c.376.052.593.072.593.072s-.215-.023-.591-.085c-.09-.014-.247-.054-.353-.074.061.011.149.031.2.04.133.02.236.031.306.038l.109.011-.165-.031c.175.022.272.031.272.031s-.168-.02-.458-.067l-.059-.011a9.678,9.678,0,0,1-1.058-.285,9.5,9.5,0,0,1-1.422-.6c-.254-.128-.5-.276-.756-.435a1.021,1.021,0,0,1-.168-.125.2.2,0,0,1-.075-.141.157.157,0,0,1,.023-.067.289.289,0,0,1,.034-.04l.009-.011v0l0,0,.016-.013a.618.618,0,0,1,.184-.078c.07-.02.143-.038.217-.054l.222-.052c.145-.034.29-.061.437-.087.292-.051.582-.083.865-.114.564-.058,1.091-.108,1.544-.137.414-.025.765-.049,1.024-.063.5-.018.8-.023.8-.023h-.346l.039,0-.417-.007c-.265,0-.645,0-1.1.013s-.987.038-1.553.09c-.186.018-.378.04-.569.063s-.4.04-.6.065c-.344.042-.686.116-1.032.181a1.487,1.487,0,0,0-.256.078.351.351,0,0,0-.122.078.3.3,0,0,0-.082.121.178.178,0,0,0,.009.154.347.347,0,0,0,.09.112,1.233,1.233,0,0,0,.226.146c.294.154.587.3.878.424-.192-.074-.356-.107-.555-.2-.374-.163-.749-.354-1.126-.556a1.386,1.386,0,0,1-.263-.173c-.075-.065-.14-.159-.1-.246.079-.19.31-.244.516-.289l.639-.128c.211-.04.424-.074.636-.1.424-.058.843-.1,1.25-.134.813-.07,1.572-.116,2.224-.145s1.2-.051,1.576-.061l.4-.009.4.014c.381.014.924.042,1.576.078s1.411.09,2.222.17c.407.04.826.085,1.248.148.211.033.424.069.636.112l.638.135c.206.047.435.1.512.294.038.087-.029.179-.1.246a1.548,1.548,0,0,1-.265.17c-.381.2-.758.385-1.134.544-.2.085-.364.116-.557.188.292-.121.587-.264.883-.415a1.211,1.211,0,0,0,.226-.143.344.344,0,0,0,.091-.11.189.189,0,0,0,.013-.155.341.341,0,0,0-.082-.121.4.4,0,0,0-.12-.079,1.564,1.564,0,0,0-.258-.079c-.344-.069-.684-.148-1.028-.191-.2-.029-.4-.052-.6-.072s-.381-.051-.568-.07c-.566-.06-1.1-.087-1.553-.108s-.835-.02-1.1-.023l-.417,0,.039,0-.346-.005s.3.009.8.034c.26.014.611.042,1.023.074.453.033.981.089,1.544.154.283.033.573.07.863.123.147.027.292.058.437.092l.222.056c.073.016.145.034.215.056a.62.62,0,0,1,.184.079l.014.013,0,0v0l.011.011a.293.293,0,0,1,.032.042.142.142,0,0,1,.023.065.2.2,0,0,1-.077.141,1.032,1.032,0,0,1-.17.123c-.256.155-.505.3-.759.426a9.444,9.444,0,0,1-1.431.585,9.552,9.552,0,0,1-1.06.273l-.059.013c-.292.043-.46.061-.46.061l.274-.027-.165.027L41.98,216c.072-.007.176-.016.306-.036.054-.007.143-.027.2-.036-.106.018-.265.058-.355.07-.376.056-.593.078-.593.078s.217-.016.595-.065a13.454,13.454,0,0,0,1.553-.291,14.732,14.732,0,0,0,2.12-.7c.378-.155.759-.343,1.143-.538a1.472,1.472,0,0,0,.278-.177.43.43,0,0,0,.113-.134.313.313,0,0,0,.029-.09.23.23,0,0,0-.014-.094.369.369,0,0,0-.1-.148.453.453,0,0,0-.145-.1,1.86,1.86,0,0,0-.319-.1l-.639-.132c-.215-.042-.428-.076-.641-.107-.424-.06-.845-.1-1.252-.139-.813-.074-1.574-.123-2.226-.154s-1.2-.042-1.578-.051l-.287,0,.093,0-.2,0-.2,0,.095,0-.288,0c-.38,0-.924.005-1.578.031s-1.413.065-2.228.13c-.407.033-.827.07-1.254.125-.213.029-.426.061-.641.1l-.641.123a1.7,1.7,0,0,0-.319.1.448.448,0,0,0-.147.1.379.379,0,0,0-.1.146.244.244,0,0,0-.014.1.264.264,0,0,0,.027.09.432.432,0,0,0,.111.135,1.427,1.427,0,0,0,.278.179q.505.268,1.01.491c-.079-.036-.158-.065-.236-.1a2.2,2.2,0,0,1-.632-.3,1.6,1.6,0,0,1-.333-.168,1.386,1.386,0,0,1-.3-.168c-.1-.067-.2-.1-.3-.168a.463.463,0,0,1-.066-.1.061.061,0,0,1,0-.1v-.034l.032-.034.034-.033H32.4v-.034a.1.1,0,0,0,.066-.033c.1-.034.2-.067.333-.1.233-.034.466-.1.7-.134s.5-.1.732-.134c.466-.069.963-.1,1.429-.168.9-.067,1.764-.135,2.529-.2.731-.033,1.363-.067,1.8-.1h.167c.432.034,1.064.069,1.794.135s1.6.134,2.529.235c.466.033.931.1,1.431.168.233.033.466.1.7.134.233.067.5.1.731.168.1.033.233.067.333.1l.032.034h.034l.066.067v.034a.032.032,0,0,1,.034.033v.067l-.1.1a1.949,1.949,0,0,1-.267.2.974.974,0,0,0-.331.168.488.488,0,0,1-.2.067.251.251,0,0,1-.133.067,3.834,3.834,0,0,1-.632.336c-.133.033-.265.1-.365.134-.3.134-.6.235-.865.336a11.4,11.4,0,0,1-1.132.368,16.715,16.715,0,0,1-1.762.4c-.432.1-.664.134-.664.134h.167c.133-.034.3-.034.5-.067a3.72,3.72,0,0,0,.8-.1,6.567,6.567,0,0,0,1-.2,14.321,14.321,0,0,0,2.428-.771c.432-.2.9-.4,1.331-.638a2.829,2.829,0,0,1,.331-.2c.034-.067.1-.1.134-.2a.264.264,0,0,0,.032-.269.17.17,0,0,0-.066-.134c0-.034,0-.067-.032-.067l-.068-.067-.032-.034c-.034-.034-.066-.067-.1-.067a1.79,1.79,0,0,0-.4-.134,5.926,5.926,0,0,1-.731-.168c-.233-.034-.5-.067-.732-.1-.5-.067-.963-.134-1.429-.168-.933-.067-1.8-.134-2.563-.134a1.09,1.09,0,0,1-.331-.034h.3c.2-.033.4-.033.6-.067s.433-.067.666-.1a11.675,11.675,0,0,0,3.193-1.105,12.145,12.145,0,0,0,1.762-1.142,4.34,4.34,0,0,0,.4-.368c.066-.067.167-.134.233-.2a1.422,1.422,0,0,0,.2-.235.607.607,0,0,0,.167-.235,1.42,1.42,0,0,0,.2-.235l.1-.166c0-.034.034-.1.034-.135a1.2,1.2,0,0,0,.133-.3c.267-.771.466-1.577.7-2.415q.3-1.257.6-2.617c.4-1.812.8-3.69,1.2-5.668.2-1.008.365-1.98.566-3.02.2-1.006.4-2.046.564-3.085.2-1.04.4-2.081.566-3.121.133-.67.233-1.342.365-1.978a.6.6,0,0,1,.233-.069,1.736,1.736,0,0,0,.233-.067C54.523,187.253,54.388,188.16,54.256,189.032ZM34.311,214.563a1.078,1.078,0,0,0,.193.141c.254.155.514.307.77.433s.491.228.727.318c-.342-.112-.7-.246-1.067-.406-.3-.128-.6-.282-.906-.444a1.121,1.121,0,0,1-.211-.137c-.059-.052-.107-.123-.077-.188.061-.146.242-.188.408-.226.116-.022.233-.045.347-.069a.643.643,0,0,0-.163.079l-.027.023-.007.007-.009.009-.011.011c-.013.018-.023.025-.038.049a.289.289,0,0,0-.052.146A.33.33,0,0,0,34.311,214.563Zm2.282,1.118-.172-.045c-.34-.09-.749-.262-1.13-.4A12.6,12.6,0,0,0,36.593,215.681ZM44.1,215.5c.238-.089.484-.191.729-.311s.519-.273.775-.424a1.254,1.254,0,0,0,.2-.139.328.328,0,0,0,.124-.251.272.272,0,0,0-.05-.148c-.014-.023-.025-.031-.038-.049l-.009-.011-.009-.009-.005-.007-.029-.023a.662.662,0,0,0-.163-.083c.116.025.231.049.347.072.167.04.347.083.407.231.03.065-.02.135-.081.188a1.209,1.209,0,0,1-.211.135c-.306.157-.609.307-.912.434C44.8,215.264,44.442,215.392,44.1,215.5Zm.709-.21c-.381.13-.792.3-1.13.383l-.172.043A12.559,12.559,0,0,0,44.809,215.292ZM55.02,185.743c0,.034-.032.034-.066.069-.032,0-.1.032-.133.032-.034.034-.066.034-.133.067a.119.119,0,0,0-.1.034.242.242,0,0,0-.133.034v-.034c.133-.067.2-.134.2-.235,0-.067-.034-.1-.1-.168l-.066-.067c.034,0,.034,0,.066.033h.066c.034.034.034.034.068.034s.032,0,.066.034a.121.121,0,0,1,.1.033h.034c.034.034.034.034.066.034l.034.033h.032a.033.033,0,0,0,.034.034C55.054,185.743,55.054,185.743,55.02,185.743Z" transform="translate(-25.52 -184)" fill="#1a0088"/>
      </g>
      <path id="Path_469684-2" data-name="Path 469684" d="M29.556,189.45a24.678,24.678,0,0,1,1.526,4.154,24.247,24.247,0,0,0,4.97,8.513" transform="translate(3.149 4.328)" fill="none" stroke="#182883" stroke-miterlimit="10" stroke-width="0.1"/>
    </g>
  </g>
</svg>
