<?xml version="1.0" encoding="UTF-8"?><svg id="Layer_2" xmlns="http://www.w3.org/2000/svg" viewBox="0 0 12.78 33.19"><defs><style>.cls-1{fill:#00a79d;}.cls-2{fill:#fff;}.cls-3{fill:#822c41;}.cls-4{fill:#922c48;}.cls-5{fill:#d50037;}.cls-6{fill:#702e3e;}.cls-7{fill:#592e2c;}</style></defs><g id="Chocolate_Martini"><g><g><path class="cls-6" d="M8.35,4.75s-.06,.09-.2,.12l-.04-.03s-.06-.04-.09-.05c-.06-.02-.11-.04-.17-.05-.05-.01-.11-.03-.16-.04-.05,0-.11-.02-.16-.02-.11-.02-.21-.03-.31-.04-.09,0-.18-.01-.27-.02-.08,0-.16,0-.23,0h-.67c-.07,0-.15,0-.23,0-.09,0-.18,.01-.28,.02-.1,0-.2,.02-.3,.04-.05,0-.11,.02-.16,.02-.05,0-.11,.02-.16,.04-.06,.02-.11,.03-.17,.05-.03,.01-.06,.04-.09,.06l-.04,.03c-.13-.02-.2-.12-.2-.12,0,0-.02-1.6,.05-1.68,.07-.08,.42-.16,.42-.16l.08-.07c.13-.02,.72-.09,1.42-.1,.7,.02,1.29,.09,1.42,.1l.07,.07s.35,.09,.42,.16c.07,.08,.05,1.68,.05,1.68Z"/><path class="cls-6" d="M7.94,1.52s0,.06,0,.08-.01,.05-.02,.07-.02,.03-.03,.05c0,.02-.01,.02-.02,.03s0,0,0,0l-.03-.5s.02,.03,.03,.05l.02,.05s.02,.03,.02,.05c0,.01,.01,.03,.02,.04,0,.03,.01,.05,.02,.09Z"/><path class="cls-6" d="M7.77,1.56c-1.63-.23-2.55-.05-2.75,0,0-.07,0-.14,0-.21,0-.03,0-.06,0-.1h-.08s-.08,0-.12,0h0s-.08,0-.12-.01c-.04,0-.08-.02-.11-.03-.03-.01-.06-.04-.06-.05,0-.01,.03-.05,.06-.07,.06-.05,.12-.08,.18-.1,.02,0,.04-.01,.06-.02,.04,0,.08-.02,.11-.02,.04,0,.07,0,.09,0,.01,0,.03,0,.04,0,.04,0,.07,0,.08,.01,0,0,.02,0,.02,0,0,0-.01,0-.02,0-.02,0-.05-.02-.08-.03h-.04v-.2s0-.06,0-.06h0c.07-.13,.23-.2,.38-.25,.15-.05,.32-.08,.49-.09,.16-.02,.33-.02,.49-.02,.16,0,.33,0,.49,.02,.17,.02,.33,.05,.49,.09,.15,.05,.31,.12,.38,.24h0s0,.05,0,.07v.16c0,.1,0,.21,0,.31,0,.13,0,.26,0,.38Z"/><path class="cls-6" d="M7.78,2.73c-.45-.07-.94-.09-1.39-.08-.45,0-.94,0-1.39,.08v-.3s0-.08,0-.08c0-.24,0-.48,0-.73,.17-.04,1.09-.23,2.75,0,0,.25,0,.49,0,.72,0,.03,0,.05,0,.08v.3Z"/><path class="cls-6" d="M8.1,4.91v.03c-2.12-.38-3.4,0-3.41,0v-.04s0,0,0,0h0s.05-.04,.08-.05c.05-.02,.1-.04,.16-.05,.05-.01,.11-.03,.16-.04,.05,0,.11-.02,.16-.03,.11-.02,.21-.03,.3-.04,.09,0,.18-.02,.27-.03,.08,0,.16-.02,.23-.02,.07,0,.13-.01,.18-.02,.05,0,.09,0,.11-.01,.03,0,.04,0,.04,0,0,0,.01,0,.04,0,.03,0,.07,0,.12,.01,.05,0,.11,0,.18,.02,.07,0,.15,.02,.23,.02,.09,0,.18,.02,.27,.03,.09,.01,.2,.03,.3,.04,.05,.01,.11,.02,.16,.03,.05,0,.11,.02,.16,.04,.05,.02,.11,.03,.16,.05,.03,.01,.05,.03,.08,.05h0s0,0,0,0Z"/><path class="cls-6" d="M8.47,5.49c-2.22-.4-3.88-.06-4.17,0,0-.01,0-.02,0-.03,0-.03,.02-.05,.03-.09,0-.03,.02-.06,.04-.09,.01-.03,.03-.06,.04-.09,0-.01,.02-.03,.02-.04l.02-.03h0s0,0,0,0h.04s.05-.02,.08-.03c.03,0,.06-.02,.09-.03,0,0,.02,0,.02,0,0-.03,0-.05,0-.07v.04s1.29-.39,3.39,0c0,0,0,.01,0,.02v.02s0,0,0,0c0,0,0,0,.02,0,.03,0,.06,.02,.09,.03,.02,0,.05,.02,.08,.02h.05v.02l.02,.03s.01,.03,.02,.04c.01,.03,.03,.06,.04,.09,.01,.03,.03,.06,.04,.09,.01,.03,.02,.06,.03,.09v.03Z"/><path class="cls-6" d="M12.38,19.54c-.01-.51-.05-1.03-.08-1.54-.08-1.01-.21-2.01-.39-2.96-.18-.95-.41-1.84-.69-2.66-.28-.82-.6-1.57-.94-2.22-.17-.33-.34-.63-.52-.91-.09-.14-.17-.28-.26-.41-.08-.14-.17-.27-.24-.4-.27-.5-.44-.98-.56-1.4,0-.01,0-.02-.01-.04,0-.02,0-.04-.01-.06-.03-.11-.05-.22-.07-.32-.13-.57-.17-1.01-.17-1.01,0,0,.01,0,.03,0h0s0,0,0,0,.01,0,.02-.01c0,0,0,0,0,0-.13-.02-.26-.04-.39-.06-.12-.02-.24-.04-.35-.05s-.22-.02-.32-.04c-.06,0-.13-.01-.19-.01-1.03-.08-1.87-.01-2.39,.06-.05,0-.1,.01-.14,.02-.24,.03-.39,.07-.42,.07,0,0,0,0,0,0,0,0,.02,.01,.03,.01t0,0s.03,0,.03,0c0,0-.04,.45-.17,1.01-.02,.1-.05,.21-.08,.32,0,.02,0,.04-.01,.06,0,.02,0,.03-.01,.04-.11,.42-.29,.9-.56,1.4-.07,.14-.15,.27-.24,.4-.08,.14-.17,.27-.26,.41-.18,.28-.35,.58-.52,.91-.34,.65-.66,1.39-.94,2.22-.28,.82-.51,1.71-.69,2.66-.18,.95-.31,1.94-.39,2.96-.03,.51-.07,1.03-.08,1.54,0,.52-.01,1.04,0,1.56,0,1.04,.06,2.08,.15,3.1,.08,1.02,.19,2.02,.33,2.98,.14,.97,.29,1.89,.48,2.75,.1,.43,.2,.85,.31,1.24,.11,.39,.24,.77,.4,1.07l.06,.11,.06,.08s1.87,.54,4.2,.59c1.63-.04,3.04-.31,3.73-.48,.14-.03,.26-.06,.33-.08h0c.08-.02,.12-.04,.12-.04l.05-.06v-.02s.06-.09,.06-.09v-.02c.05-.07,.09-.15,.13-.24,.11-.25,.2-.54,.29-.83,.12-.39,.22-.8,.31-1.24,.19-.86,.34-1.79,.48-2.75,.14-.96,.25-1.96,.33-2.98,.08-1.02,.14-2.06,.15-3.1,0-.28,0-.56,0-.84v-.02c0-.23,0-.46,0-.69Zm-5.99-7.27c2.7,0,4.91,3.74,4.91,8.34s-2.2,8.34-4.91,8.34S1.48,25.21,1.48,20.61,3.68,12.28,6.39,12.28Z"/><path class="cls-2" d="M7.52,.42V2.49c.09,.01,.17,.02,.26,.04h0s.02-1.93,.02-1.93c-.09-.08-.21-.14-.28-.17Z"/><path class="cls-2" d="M7.83,6.17c.05,.33,.12,.66,.2,.98,.04,.16,.08,.32,.13,.47,.05,.15,.09,.31,.15,.46,.11,.3,.22,.59,.35,.86,.13,.28,.27,.53,.42,.78,.08,.12,.15,.23,.23,.35,.08,.11,.15,.22,.23,.32,.3,.43,.57,.84,.81,1.23,.24,.39,.45,.76,.62,1.1,.17,.34,.3,.65,.4,.91,.1,.26,.17,.47,.22,.61,.05,.14,.07,.22,.07,.22,0,0-.02-.08-.06-.23-.04-.15-.09-.37-.18-.64-.08-.27-.2-.6-.35-.96-.15-.36-.34-.75-.57-1.17-.23-.41-.49-.84-.77-1.29-.07-.11-.15-.22-.22-.34-.07-.11-.14-.23-.21-.34-.13-.24-.26-.49-.38-.75-.12-.26-.22-.54-.32-.83-.05-.14-.09-.29-.13-.44-.04-.15-.08-.3-.12-.45-.07-.31-.13-.62-.18-.94-.05-.31-.08-.63-.1-.94l-.35,.02c.02,.35,.06,.67,.11,1Z"/><path class="cls-2" d="M4.69,5.76c0,.09,0,.18,0,.27,0,.09-.02,.18-.03,.27-.01,.09-.03,.18-.05,.26-.02,.09-.04,.17-.06,.25-.02,.08-.05,.16-.07,.24-.05,.15-.1,.3-.15,.42-.03,.06-.05,.13-.07,.19-.03,.06-.05,.11-.07,.16-.05,.1-.09,.19-.12,.27-.04,.07-.06,.13-.08,.17-.02,.04-.03,.06-.03,.06,0,0,.01-.02,.04-.05,.02-.03,.06-.09,.1-.15,.05-.06,.1-.15,.15-.24,.03-.05,.06-.1,.09-.15,.03-.06,.06-.12,.09-.18,.07-.12,.13-.27,.19-.42,.03-.08,.06-.16,.09-.24,.03-.08,.05-.17,.08-.26,.02-.09,.05-.18,.06-.28,.02-.09,.03-.19,.04-.29,0-.1,.01-.2,.01-.3,0-.1,0-.2-.03-.32l-.18,.07c.01,.07,.02,.17,.02,.25Z"/><path class="cls-2" d="M3.24,10.35s-.07,.08-.19,.23c-.11,.15-.27,.37-.45,.65-.09,.14-.18,.29-.27,.46-.09,.17-.19,.34-.28,.53-.1,.18-.18,.39-.27,.59-.09,.2-.17,.42-.25,.63-.08,.21-.15,.43-.22,.64-.06,.22-.13,.43-.19,.64-.05,.21-.1,.42-.15,.61-.05,.19-.08,.38-.11,.55-.08,.34-.11,.64-.15,.84-.03,.2-.05,.32-.05,.32,0,0,0-.12,.02-.33,.02-.21,.03-.51,.08-.86,.03-.18,.04-.37,.09-.57,.04-.2,.08-.41,.13-.63,.06-.21,.12-.43,.18-.66,.07-.22,.14-.44,.22-.66,.09-.21,.17-.43,.26-.64,.09-.2,.19-.41,.29-.59,.1-.19,.2-.36,.3-.52,.1-.16,.2-.31,.3-.44,.19-.27,.37-.46,.5-.6,.13-.13,.21-.2,.21-.2Z"/><path class="cls-2" d="M.47,21.9s.03,.17,.07,.47c.04,.3,.11,.72,.18,1.23,.04,.25,.08,.53,.13,.82,.05,.29,.1,.6,.15,.91,.05,.32,.11,.64,.17,.97,.06,.33,.12,.67,.19,1,.06,.33,.14,.67,.21,.99,.07,.33,.15,.65,.23,.95,.08,.31,.16,.6,.24,.88,.08,.28,.16,.54,.24,.77,.16,.47,.32,.85,.45,1.11,.06,.13,.12,.23,.15,.29,.04,.07,.06,.1,.06,.1,0,0-.02-.03-.07-.09-.04-.06-.11-.15-.18-.27-.15-.24-.34-.6-.54-1.07-.1-.23-.2-.49-.29-.76-.1-.27-.19-.57-.28-.88-.09-.31-.17-.63-.25-.96-.08-.33-.15-.66-.22-1-.07-.34-.13-.68-.18-1.01-.06-.33-.11-.67-.15-.99-.04-.32-.08-.63-.12-.93-.03-.3-.06-.57-.08-.83-.05-.52-.07-.95-.09-1.25-.02-.3-.02-.48-.02-.48Z"/><path class="cls-2" d="M5.45,.26V2.43c-.14,.02-.25,.04-.33,.06V.26h.33Z"/><path class="cls-2" d="M7.24,.59v1.86c-.11-.02-.23-.03-.33-.03V.59c0-.08,.05-.14,.11-.14h.11c.06,0,.11,.06,.11,.14Z"/><path class="cls-2" d="M5.89,.52h.06s.04-.01,.06-.02c.02,0,.04,0,.06,0,.03,0,.07,0,.11-.01,.03,0,.06,0,.09-.01,.03,0,.05,0,.08,0,.02,0,.04,0,.06,0,.02,0,.03,0,.04,0,0,0,.01,0,.01,0,0,0,0,0-.01,0,0,0-.02,0-.04,0-.02,0-.04,0-.06,0-.03,0-.05,0-.08,0-.03,0-.06,0-.1,0-.03,0-.07,0-.11,0-.02,0-.04,0-.06,0-.02,0-.04,0-.06,0h-.06s-.06,.02-.06,.02v.09s.07-.01,.07-.01Z"/><path class="cls-2" d="M10.86,27.87s-.8,3.52-1.44,4.34h-2.02l.97-.28h-.64s2.37-1.39,3.12-4.07Z"/><path class="cls-2" d="M10.65,32.36l-.58,.34c2.03-5.29,2.33-12.63,2.33-12.63,0,0,.31,8.56-1.74,12.29Z"/><path class="cls-2" d="M7.24,5.51c0,.05,0,.11,.01,.16,0,.05,.01,.11,.02,.16,0,.05,.01,.1,.02,.15,.02,.1,.04,.2,.06,.29,.02,.09,.04,.17,.07,.25,.02,.08,.05,.14,.08,.2,.02,.06,.05,.11,.07,.15,.02,.04,.04,.07,.05,.09,.01,.02,.02,.03,.02,.03,0,0,0-.01,0-.04,0-.02-.02-.06-.03-.1,0-.05-.02-.1-.04-.16-.01-.06-.03-.13-.04-.21-.01-.08-.02-.16-.03-.25-.01-.09-.02-.18-.03-.28,0-.05,0-.1-.01-.15,0-.05,0-.1-.01-.15,0-.05,0-.1,0-.16,0-.05,0-.1,0-.15h-.19c0,.06,0,.11,0,.17Z"/><path class="cls-1" d="M4.43,4.54v.18s0,.02,0,.03c0,0,0,0,.01,.01v-.39c0,.06,0,.11,0,.16Z"/><path class="cls-2" d="M4.96,1.08s.03-.01,.04-.01c.01,0,.03,0,.04,0h.03s.02-.01,.03-.01c0,0,.01,0,.02,0s0,0,0,0c0,0,0,0,0,0,0,0,0,0-.02,0,0,0-.02,0-.03,0-.01,0-.02,0-.04,0-.01,0-.03,0-.04,0-.02,0-.03,0-.05,0,0,0-.02,0-.03,.01,0,0-.02,.01-.03,.02,0,0-.02,.02-.02,.03,0,.01,0,.03,0,.05h.04s0-.02,0-.02c0,0,0,0,0-.01,0,0,.01,0,.02-.01,0,0,.01,0,.02-.01Z"/><path class="cls-2" d="M4.44,9.76c.06-.04,.12-.08,.19-.12,.11-.07,.22-.13,.33-.18h0c.78-.37,1.46-.39,1.5-.39-.14-2.89-.66-3.08-.66-3.08,.03,1.76-1.18,3.41-1.66,4,.09-.08,.18-.14,.28-.2,.01,0,.02-.01,.03-.02Z"/><path class="cls-7" d="M12.76,19.52c-.01-.53-.05-1.05-.09-1.57-.08-1.04-.23-2.05-.43-3.02-.2-.96-.45-1.88-.76-2.7-.3-.84-.65-1.58-1.02-2.23-.18-.33-.37-.63-.56-.9-.19-.28-.37-.52-.52-.78-.3-.5-.5-1-.63-1.42-.11-.35-.17-.64-.22-.87-.04-.23-.04-.42-.04-.42,.01,0,.03,0,.05,0,.01-.02,0-.06,0-.1,0-.04,0-.06,0-.1,0-.02-.01-.06-.02-.1,0-.03-.02-.07-.03-.1-.01-.04-.03-.07-.04-.11,0-.02-.02-.03-.03-.05s-.01-.02-.03-.05c0-.01-.02-.02-.03-.02h-.03s-.04,0-.04,0c-.03,0-.06,0-.08,0h-.05s0,0,0,0v-.04s0,0,.01,0c.06-.02,.23-.08,.24-.22,0-.16,.05-1.7,.05-1.7,0,0,.02-.09-.22-.2,0,0-.19-.09-.28-.11v-.15c0-.07,0-.14,0-.22,0-.2,0-.4,0-.61v-.11s0,0,0-.01c0-.03,.02-.06,.02-.1,0-.04,0-.07,0-.11,0-.01,0-.02,0-.03v-.2c0-.1,0-.2,0-.3v-.26s0-.04-.02-.07c-.01-.03-.01-.04-.02-.06-.07-.11-.16-.19-.24-.24-.09-.05-.18-.09-.26-.12-.18-.06-.35-.09-.53-.11-.16-.01-.33-.02-.5-.02h-.06c-.16,0-.3,.01-.46,.02-.18,.02-.35,.05-.53,.11-.08,.03-.17,.07-.26,.12-.08,.05-.17,.12-.24,.24,0,.02,0,.02-.02,.06,0,.02-.02,.04-.02,.07v.26s0,.02,0,.03c-.02,0-.04,0-.06,.01-.06,.01-.14,.04-.2,.09-.01,.01-.03,.02-.05,.04-.01,.02-.03,.04-.03,.09,0,.09,.05,.12,.09,.14,.04,.01,.08,.02,.13,.04,.04,0,.08,.01,.12,.02h0c0,.35,0,.69,.01,1.01,0,.07,0,.14,0,.22h0v.15c-.08,.02-.28,.11-.28,.11-.24,.11-.22,.2-.22,.2,0,0,.04,1.53,.05,1.7,0,.14,.18,.2,.24,.22,.01,0,.02,0,.02,0v.04h-.03s-.03,0-.03,0c-.02,0-.05,0-.08,0h-.07s-.02,.02-.03,.03c-.02,.03-.02,.03-.03,.05,0,.02-.02,.03-.03,.05-.01,.03-.03,.07-.04,.11-.01,.03-.03,.07-.03,.1,0,.04-.01,.07-.02,.1,0,.04,0,.06,0,.1,0,.04,0,.08,0,.1,.02,0,.03,0,.05,0,0,0,0,.05,0,.12,0,.07-.02,.18-.04,.3-.04,.23-.11,.52-.22,.87-.13,.42-.33,.92-.63,1.42-.14,.26-.33,.5-.52,.78s-.38,.58-.56,.9c-.37,.64-.72,1.39-1.02,2.23-.3,.82-.56,1.74-.76,2.7-.2,.97-.34,1.98-.43,3.02-.03,.51-.07,1.04-.09,1.57-.02,.53-.02,1.06-.02,1.58,.02,1.06,.07,2.11,.17,3.14,.09,1.03,.21,2.04,.36,3.01,.15,.97,.33,1.91,.54,2.77,.11,.44,.22,.86,.35,1.26,.13,.4,.27,.78,.47,1.12l.08,.12s.06,.07,.1,.12c1.54,.41,3.02,.54,4.32,.53,1.29,0,2.78-.12,4.32-.53,.04-.05,.07-.08,.1-.12l.08-.12c.2-.34,.33-.72,.47-1.12,.13-.4,.24-.82,.35-1.26,.21-.87,.39-1.8,.54-2.77,.15-.97,.28-1.98,.36-3.01s.14-2.09,.16-3.14c0-.53,0-1.06-.01-1.58ZM7.85,1.3l.02,.04s.01,.03,.02,.05c0,.01,0,.02,.01,.04,0,.03,.01,.06,.02,.09,0,.03,0,.06-.01,.08,0,.02,0,.05-.02,.07,0,.02-.01,.03-.02,.04,0,.02-.01,.02-.02,.03s0,0,0,0l-.02-.49s.01,.03,.02,.05Zm-.07,1.43c-.46-.06-.94-.08-1.39-.07-.45,0-.93,.01-1.39,.07v-.3s0-.08,0-.08c0-.24,0-.48,0-.72,.02,0,.06-.01,.11-.02,.08-.01,.19-.03,.33-.05,.32-.04,.81-.06,1.46-.02,.1,0,.22,.02,.33,.03,.09,0,.18,.02,.28,.03,.08,0,.16,.02,.25,.03,0,.25,0,.49,0,.72v.38Zm-2.96-1.49s-.08,0-.12-.01-.08-.01-.11-.03c-.03-.01-.06-.04-.06-.06s.03-.04,.06-.07c.05-.05,.12-.08,.17-.1,.02-.01,.04-.01,.06-.02,.04,0,.08-.01,.11-.02h.1s.02,0,.03,0c.02,0,.04,0,.06,0,0,0,.01,0,.02,0h.02s-.01,0-.02,0c0,0-.01,0-.02,0-.02,0-.04-.01-.06-.02h-.03v-.2s0-.06,0-.06h0s.05-.08,.09-.11c.08-.07,.19-.12,.29-.15,.01,0,.03,0,.04-.01,.14-.04,.3-.06,.44-.08,.16-.02,.33-.02,.49-.02,.16,0,.33,0,.49,.02,.17,.02,.33,.05,.49,.09,.05,.02,.1,.04,.15,.06,.1,.04,.18,.11,.23,.18h0s0,.06,0,.07v.15c0,.1,0,.2,0,.3,0,.13,0,.26,0,.38-.08-.01-.17-.02-.25-.03-.1-.01-.19-.02-.28-.03-.11-.01-.23-.02-.33-.03-.65-.04-1.14-.02-1.46,.01-.15,.02-.26,.04-.33,.05-.04,.01-.08,.02-.1,.02v-.22s0-.06,0-.09h-.08s-.08,0-.12,0Zm-.18,3.62h-.01s-.01,0-.01,0c0,0-.01,0-.02-.01,0,0-.01,0-.02,0h0s-.02,0-.02,0h0s0,0,0,0c0,0,0,0-.01,0h0s0,0-.01-.01c0,0-.02-.01-.02-.02s0,0-.01-.01c0,0-.02-.02-.02-.02h0s0-.01,0-.01h0s0,0,0,0v-.02h0c0-.15,0-.8,0-1.25,0-.07,0-.15,0-.21h0c0-.09,.01-.16,.02-.19t0-.02s.12-.07,.21-.1c0,0,.01,0,.02,0,.01-.01,.03-.02,.05-.02,.07-.03,.14-.04,.14-.04l.08-.07c.13-.02,.71-.09,1.42-.11,.7,.02,1.29,.09,1.42,.11l.07,.07s.06,.02,.14,.04c.02,0,.05,.01,.07,.02,.05,.01,.1,.03,.14,.06,0,0,.01,.01,.02,.01,0,0,0,0,.01,.01,0,0,.02,0,.02,.02h0s0,.01,0,.02c0,.02,.01,.05,.01,.09,0,.04,0,.08,0,.13,0,.07,0,.16,0,.26,.01,.49,0,1.18,0,1.18,0,0,0,0,0,0h0s-.01,.02-.02,.03h0s0,0,0,.01c0,0-.01,.01-.02,.01h0s0,.01-.01,.01c0,0,0,0-.02,.01h0s-.01,0-.02,0c0,0-.01,.01-.02,0,0,0,0,0-.02,0,0,0,0,0-.01,0h0s-.02-.02-.02-.02h0s-.01-.01-.02-.02c0,0-.01-.01-.02-.01,0,0-.01-.01-.02-.02,0,0-.01,0-.02-.01s-.01,0-.02,0c0,0-.02-.01-.03-.02,0,0-.01,0-.02,0,0,0-.02,0-.03,0,0,0-.01,0-.02-.01,0,0-.02,0-.03,0h0s-.01,0-.02,0c-.01,0-.02,0-.04,0,0,0-.01,0-.02,0-.01,0-.02,0-.04,0,0,0-.02,0-.02,0h0s-.02,0-.04,0c0,0-.01,0-.02,0-.01,0-.03,0-.04,0h-.02s-.02,0-.03,0h-.02s-.01,0-.02,0c-.01,0-.03,0-.05,0,0,0-.01,0-.02,0-.02,0-.03,0-.05,0h-.02s-.05,0-.05,0c0,0-.02,0-.02,0h-.06s-.01,0-.02,0h-.08s-.04,0-.06,0h-.02s-.03,0-.05,0h-.04s-.05,0-.07,0h-.02s-.05,0-.07,0h-.36s.01,0,.04,0h.02s.05,0,.09,.01c.05,0,.11,0,.18,.01,.07,0,.15,.02,.23,.02,.09,.01,.18,.02,.27,.03,.1,.01,.2,.02,.3,.04,.05,.01,.1,.02,.16,.03,.05,0,.11,.02,.16,.04,.05,.02,.11,.03,.16,.06,.03,.01,.05,.03,.08,.04h0s0,.01,0,.01v.03c-2.12-.38-3.4,0-3.41,0v-.04s0,0,0,0h0s.05-.04,.08-.05c.05-.02,.11-.04,.16-.06,.05-.01,.11-.03,.16-.04,.05-.01,.11-.02,.16-.03,.11-.02,.21-.03,.3-.04,.09,0,.19-.02,.28-.03,.08,0,.16-.02,.23-.02,.07,0,.13-.01,.18-.01,.03,0,.06,0,.09-.01h.02s.04,0,.04,0h-.36s-.05,0-.07,0h-.02s-.04,0-.06,0h-.04s-.03,0-.05,0h-.08s-.01,0-.02,0h-.06s-.01,0-.02,0h-.05s-.01,0-.02,0h-.06s-.02,0-.02,0c-.01,0-.03,0-.05,0,0,0-.01,0-.02,0-.01,0-.03,0-.05,0,0,0-.01,0-.02,0h-.02s-.01,0-.02,0h-.02s-.03,0-.05,0h0s-.02,0-.02,0c-.01,0-.03,0-.04,0,0,0-.02,0-.02,0,0,0-.02,0-.04,0h-.02s-.02,0-.04,.01c0,0-.01,0-.02,0h0s-.01,0-.02,0c0,0-.01,0-.02,0,0,0-.02,.01-.03,.01,0,0-.01,0-.02,0,0,0-.02,0-.03,.01s-.01,0-.02,.01h0s-.01,0-.02,.01c0,0-.01,0-.02,.01,0,0-.01,.01-.02,.02h0s-.01,.01-.02,.02h0s-.02,.02-.02,.02Zm-.31,.6s.01-.06,.03-.09c0-.02,.02-.06,.03-.09,.01-.03,.03-.06,.04-.09,0-.01,.01-.02,.02-.04l.02-.03h0s.04-.01,.04-.01c.03,0,.05-.02,.08-.02,.03-.01,.06-.02,.09-.03h.02s0-.05,0-.07v.04s1.29-.38,3.39,0v.04s0,0,0,0h.01s.06,.02,.09,.03c.02,0,.05,.02,.08,.02h.05s.02,.04,.02,.04c0,.02,.01,.03,.02,.04,.01,.03,.03,.06,.04,.09,.01,.03,.02,.06,.03,.09,.01,.03,.02,.06,.03,.09v.03c-.11-.02-.24-.04-.36-.06-.12-.02-.24-.03-.35-.05-.11-.01-.22-.02-.32-.03h-.02c-1.67-.15-2.87,.09-3.1,.14,0-.01,0-.02,0-.03Zm6.39,26.79v.02s-.06,.09-.06,.09v.02s-.06,.06-.06,.06c0,0-.04,.01-.12,.04h0c-.08,.02-.19,.05-.33,.08-.69,.17-2.1,.44-3.73,.48-2.33-.05-4.2-.59-4.2-.59l-.06-.08-.06-.11c-.17-.3-.29-.68-.4-1.07-.12-.39-.22-.8-.31-1.24-.19-.86-.34-1.79-.48-2.75-.14-.96-.25-1.96-.33-2.98-.08-1.02-.14-2.06-.15-3.1,0-.52,0-1.04,0-1.56,.01-.51,.05-1.03,.08-1.54,.08-1.01,.21-2.01,.39-2.96,.18-.95,.41-1.84,.69-2.66,.28-.82,.6-1.57,.94-2.22,.17-.33,.34-.63,.52-.91,.08-.14,.17-.28,.26-.41,.08-.14,.17-.27,.24-.4,.27-.5,.44-.98,.56-1.4,0-.01,0-.02,.01-.04,0-.02,0-.04,.01-.06,.03-.11,.05-.22,.08-.32,.13-.57,.17-1.01,.17-1.01,0,0-.01,0-.03,0t0,0s-.02,0-.03-.01c0,0,0,0,0,0,.03,0,.18-.04,.42-.07,.04-.01,.09-.02,.14-.02,.52-.07,1.36-.14,2.39-.06,.06,0,.12,0,.19,.01,.1,.01,.21,.02,.32,.04s.23,.03,.35,.05c.13,.02,.26,.04,.39,.06,0,0,0,0,0,0,0,0-.02,.01-.02,.01h0s-.03,.01-.03,.01c0,0,.04,.45,.17,1.01,.02,.1,.04,.21,.07,.32,0,.02,0,.04,.01,.06,0,.02,0,.03,.01,.04,.11,.42,.29,.9,.56,1.4,.07,.14,.15,.27,.24,.4,.09,.14,.17,.27,.26,.41,.17,.28,.35,.58,.52,.91,.34,.65,.66,1.39,.94,2.22,.28,.82,.51,1.71,.69,2.66,.18,.95,.31,1.94,.39,2.96,.03,.51,.07,1.03,.08,1.54,0,.23,0,.46,0,.69v.02c0,.28,0,.56,0,.84-.01,1.04-.07,2.08-.15,3.1-.08,1.02-.19,2.02-.33,2.98-.14,.97-.29,1.89-.48,2.75-.1,.43-.2,.85-.31,1.24-.08,.29-.18,.58-.29,.83-.04,.09-.08,.17-.12,.24Z"/><g><path class="cls-2" d="M4.43,4.75s0-.01,0-.02c0,.01,0,.02,0,.02,0,0,0,0,0,0h0s0,0,0,0Z"/><path class="cls-2" d="M4.43,4.49v-1.01c-.02,.44,0,1.09,0,1.24v-.18s0-.03,0-.05Z"/><path class="cls-2" d="M4.47,4.8v-1.71s-.02,.09-.02,.18v1.5s.01,.01,.02,.02Z"/><path class="cls-2" d="M4.5,4.82v-1.77s-.02,.01-.02,.02v1.74s.02,.01,.02,.02Z"/><path class="cls-2" d="M4.54,4.84v-1.82s-.02,0-.02,.01v1.79s.02,0,.02,.01Z"/><path class="cls-2" d="M4.59,4.86v-1.85s-.02,0-.02,.01v1.83s.02,0,.02,0Z"/><path class="cls-2" d="M4.61,3v1.86s0,0,.01,0h.01v-1.88s-.02,0-.02,0Z"/><path class="cls-2" d="M4.68,4.83v-1.86s-.02,0-.02,0v1.86h0s.01-.01,.02-.02Z"/><path class="cls-2" d="M4.73,4.8v-1.84s-.02,0-.02,0v1.85s.02-.01,.02-.01Z"/><path class="cls-2" d="M4.78,4.77v-1.83s-.02,0-.02,0v1.83s.02,0,.02,0Z"/><path class="cls-2" d="M4.84,4.76v-1.83s-.02,0-.02,0v1.83s.02,0,.02,0Z"/><path class="cls-2" d="M4.89,4.74v-1.83s-.01,0-.02,0v1.83s.02,0,.02,0Z"/><path class="cls-2" d="M4.95,4.72v-1.82s-.02,0-.02,0v1.82s.02,0,.02,0Z"/><path class="cls-2" d="M5.02,4.71v-1.82s-.02,0-.02,0v1.82s.02,0,.02,0Z"/><path class="cls-2" d="M5.08,2.88s-.02,0-.02,0v1.81s.02,0,.02,0v-1.81Z"/><path class="cls-2" d="M5.15,4.68v-1.81s-.02,0-.02,0v1.81s.02,0,.02,0Z"/><path class="cls-2" d="M5.22,4.67v-1.81s-.02,0-.02,0v1.81s.02,0,.02,0Z"/><path class="cls-2" d="M5.29,4.66v-1.81s-.02,0-.02,0v1.81s.02,0,.02,0Z"/><path class="cls-2" d="M5.36,4.65v-1.81s-.02,0-.02,0v1.81s.02,0,.02,0Z"/><path class="cls-2" d="M5.44,4.64v-1.81s-.02,0-.02,0v1.81s.02,0,.02,0Z"/><path class="cls-2" d="M5.52,4.63v-1.81s-.02,0-.02,0v1.81s.02,0,.02,0Z"/><path class="cls-2" d="M5.6,4.63v-1.81s-.02,0-.02,0v1.81h.02Z"/><path class="cls-2" d="M5.69,4.62v-1.81s-.02,0-.02,0v1.81h.02Z"/><path class="cls-2" d="M5.78,4.62v-1.81s-.02,0-.02,0v1.81h.02Z"/><path class="cls-2" d="M5.87,4.61v-1.81s-.02,0-.02,0v1.81s.02,0,.02,0Z"/><path class="cls-2" d="M5.96,4.61v-1.81s-.02,0-.02,0v1.81s.02,0,.02,0Z"/><path class="cls-2" d="M6.05,4.6v-1.82s-.02,0-.02,0v1.82s.02,0,.02,0Z"/><path class="cls-2" d="M6.15,4.6v-1.82s-.02,0-.02,0v1.82h.02Z"/><path class="cls-2" d="M6.25,4.6v-1.82s-.02,0-.02,0v1.82h.02Z"/><path class="cls-2" d="M6.35,4.6v-1.83s-.02,0-.02,0v1.83h.02Z"/><path class="cls-2" d="M8.35,4.75s0-.69,0-1.18v1.19s0,0,0,0Z"/><path class="cls-2" d="M8.34,4.77v-1.46c0-.1-.01-.18-.02-.22v1.7s.02-.02,.02-.02Z"/><path class="cls-2" d="M8.3,4.81v-1.74s-.02-.01-.02-.02v1.77s.02-.01,.02-.02Z"/><path class="cls-2" d="M8.26,4.83v-1.79s-.02,0-.02-.01v1.82s.02,0,.02-.01Z"/><path class="cls-2" d="M8.22,4.85v-1.83s-.02,0-.02-.01v1.85s.02,0,.02,0Z"/><path class="cls-2" d="M8.17,4.86v-1.86s-.02,0-.02,0v1.87h0s.01,0,.02,0Z"/><path class="cls-2" d="M8.1,2.97v1.85s.01,0,.02,0h0s0-1.86,0-1.86c0,0-.02,0-.02,0Z"/><path class="cls-2" d="M8.08,4.81v-1.85s-.02,0-.02,0v1.84s.02,0,.02,.01Z"/><path class="cls-2" d="M8.02,4.78v-1.83s-.02,0-.02,0v1.83s.02,0,.02,0Z"/><path class="cls-2" d="M7.97,4.76v-1.83s-.02,0-.02,0v1.83s.02,0,.02,0Z"/><path class="cls-2" d="M7.91,4.75v-1.83s-.02,0-.02,0v1.82s.02,0,.02,0Z"/><path class="cls-2" d="M7.85,4.73v-1.82s-.02,0-.02,0v1.82s.02,0,.02,0Z"/><path class="cls-2" d="M7.77,4.71s.02,0,.02,0v-1.82s-.02,0-.02,0v1.82Z"/><path class="cls-2" d="M7.73,4.7v-1.82s-.02,0-.02,0v1.82s.02,0,.02,0Z"/><path class="cls-2" d="M7.66,4.69v-1.82s-.02,0-.02,0v1.82s.02,0,.02,0Z"/><path class="cls-2" d="M7.59,4.68v-1.82s-.02,0-.02,0v1.82s.02,0,.02,0Z"/><path class="cls-2" d="M7.52,4.66v-1.82s-.02,0-.02,0v1.82s.02,0,.02,0Z"/><path class="cls-2" d="M7.44,4.66v-1.82s-.02,0-.02,0v1.82s.02,0,.02,0Z"/><path class="cls-2" d="M7.36,4.65v-1.82s-.02,0-.02,0v1.82s.02,0,.02,0Z"/><path class="cls-2" d="M7.28,4.64v-1.82s-.02,0-.02,0v1.82s.02,0,.02,0Z"/><path class="cls-2" d="M7.2,4.63v-1.82s-.02,0-.02,0v1.82s.02,0,.02,0Z"/><path class="cls-2" d="M7.12,4.62v-1.83s-.02,0-.02,0v1.83s.02,0,.02,0Z"/><path class="cls-2" d="M7.03,4.62v-1.83s-.02,0-.02,0v1.83s.02,0,.02,0Z"/><path class="cls-2" d="M6.94,4.61v-1.83s-.02,0-.02,0v1.83s.02,0,.02,0Z"/><path class="cls-2" d="M6.85,4.61v-1.83s-.02,0-.02,0v1.83s.02,0,.02,0Z"/><path class="cls-2" d="M6.75,4.6v-1.83s-.02,0-.02,0v1.83s.02,0,.02,0Z"/><path class="cls-2" d="M6.66,4.6v-1.83s-.02,0-.02,0v1.83h.02Z"/><path class="cls-2" d="M6.56,4.6v-1.83s-.02,0-.02,0v1.83h.02Z"/><path class="cls-2" d="M6.45,4.6v-1.83s-.02,0-.02,0v1.83h.02Z"/><path class="cls-2" d="M4.43,4.76v-.27s0,.04,0,.05v.18s0,0,0,.01c0,0,0,.01,0,.02,0,0,0,0,0,0Z"/></g></g><g><path class="cls-4" d="M12.24,18.59c-.02-.24-.03-.49-.06-.72-.03-.24-.06-.48-.09-.72-.04-.24-.08-.47-.12-.7-.01-.12-.04-.23-.07-.35-.02-.11-.05-.22-.07-.33-.21-.9-.48-1.74-.82-2.48-.08-.19-.18-.37-.27-.54-.04-.09-.09-.18-.14-.26-.05-.08-.1-.16-.15-.24-.05-.08-.1-.16-.15-.24-.04-.08-.09-.16-.15-.23-.11-.14-.21-.28-.31-.41-.42-.53-.87-.92-1.29-1.22s-.81-.49-1.14-.61c-.33-.12-.59-.17-.78-.19-.09-.01-.16-.01-.21-.02h-.03s.02,0,.03,0c.05,.01,.12,.02,.21,.04,.18,.04,.44,.11,.76,.25,.32,.14,.69,.35,1.09,.67s.82,.72,1.21,1.26c.09,.14,.19,.27,.29,.41,.05,.07,.09,.15,.14,.22,.04,.08,.09,.15,.14,.24,.04,.08,.09,.16,.14,.24,.04,.08,.08,.17,.12,.25,.08,.17,.17,.34,.25,.53,.31,.73,.56,1.56,.74,2.43,.02,.11,.05,.22,.07,.33,.02,.11,.05,.22,.06,.33,.03,.22,.07,.45,.1,.68,.03,.23,.05,.46,.08,.69,.02,.24,.03,.47,.05,.71,.06,.95,.05,1.92-.01,2.88-.06,.97-.19,1.92-.39,2.84-.19,.92-.44,1.81-.74,2.63-.3,.82-.66,1.57-1.09,2.2-.21,.32-.44,.59-.68,.84-.24,.24-.49,.45-.74,.61-.51,.32-1.02,.5-1.49,.57-.12,.02-.24,.04-.36,.04-.12,0-.24-.02-.36-.04-.47-.07-.98-.25-1.49-.57-.25-.17-.5-.38-.74-.61-.24-.25-.47-.53-.68-.84-.43-.63-.79-1.37-1.09-2.2-.3-.82-.55-1.71-.74-2.63-.2-.92-.32-1.88-.39-2.84-.07-.97-.07-1.94-.01-2.88,.02-.24,.03-.48,.05-.71,.02-.23,.05-.46,.08-.69,.03-.23,.07-.46,.1-.68,.02-.12,.04-.23,.06-.33,.02-.11,.04-.22,.07-.33,.19-.87,.43-1.7,.74-2.43,.07-.19,.17-.35,.25-.53,.04-.09,.08-.17,.12-.25,.05-.08,.09-.16,.14-.24,.05-.08,.09-.15,.14-.24,.04-.07,.09-.15,.14-.22,.1-.14,.2-.28,.29-.41,.39-.53,.81-.94,1.21-1.26s.77-.53,1.09-.67c.32-.14,.59-.21,.76-.25,.09-.02,.16-.02,.21-.04,.01,0,.02,0,.03,0h-.03s-.12,0-.21,.02c-.18,.02-.45,.07-.78,.19-.33,.12-.72,.31-1.14,.61-.42,.3-.87,.69-1.29,1.22-.1,.14-.21,.28-.31,.41-.05,.07-.1,.15-.15,.23-.05,.07-.1,.15-.15,.24-.05,.08-.1,.16-.15,.24-.05,.08-.09,.17-.14,.26-.08,.17-.18,.35-.27,.54-.34,.74-.61,1.58-.82,2.48-.02,.11-.05,.22-.07,.33-.02,.12-.05,.23-.07,.35-.04,.23-.08,.46-.12,.7-.03,.24-.06,.48-.09,.72-.02,.24-.04,.48-.06,.72-.06,.97-.06,1.97,0,2.96,.07,.99,.21,1.97,.41,2.91,.2,.95,.46,1.85,.79,2.69s.72,1.61,1.18,2.25c.23,.32,.47,.61,.73,.85,.26,.25,.53,.45,.8,.61,.2,.11,.39,.2,.59,.28-.11-.02-.21-.04-.29-.07-.13-.04-.22-.06-.26-.07,.03,.01,.12,.04,.25,.09,.09,.03,.2,.07,.32,.11,.13,.03,.28,.07,.45,.11,.24,.04,.52,.08,.83,.08h.07c.31,0,.59-.04,.83-.08,.17-.03,.32-.07,.45-.11,.13-.04,.24-.08,.32-.11,.13-.05,.22-.08,.25-.09-.03,0-.12,.03-.26,.07-.08,.02-.17,.04-.29,.07,.2-.07,.39-.17,.59-.28,.27-.17,.54-.37,.8-.61,.26-.25,.5-.53,.73-.85,.46-.64,.86-1.4,1.18-2.25,.32-.84,.59-1.75,.79-2.69,.14-.63,.25-1.28,.32-1.94,.03-.34,.06-.66,.09-.94,0-.01,0-.02,0-.03,0-.03,0-.06,0-.09,.06-.96,.06-1.93,0-2.87Z"/><g><path class="cls-3" d="M11.52,20.36c0,4.81-2.31,8.73-5.14,8.73S1.25,25.17,1.25,20.36,3.56,11.64,6.39,11.64s5.14,3.92,5.14,8.72Z"/><path class="cls-5" d="M6.39,29.24c-2.9,0-5.27-3.98-5.27-8.88S3.48,11.49,6.39,11.49s5.27,3.98,5.27,8.88-2.36,8.88-5.27,8.88Zm0-17.45c-2.76,0-5,3.85-5,8.57s2.24,8.58,5,8.58,5-3.85,5-8.58-2.24-8.57-5-8.57Z"/></g></g></g></g></svg>