<?xml version="1.0" encoding="UTF-8"?><svg id="Layer_2" xmlns="http://www.w3.org/2000/svg" viewBox="0 0 26.37 77.51"><defs><style>.cls-1{fill:#f4d1d1;}.cls-2{fill:#f8e3e2;}.cls-3{fill:#0075c9;}.cls-4{fill:#ebb5b5;}.cls-5{fill:#f5d8d8;}.cls-6{fill:#eab0b1;}.cls-7{fill:#f2caca;}.cls-8{fill:#efc0c0;}.cls-9{fill:#fbeeee;}.cls-10{fill:#faecec;}.cls-11{fill:#faebea;}.cls-12{fill:#edbcbc;}.cls-13{fill:#ab0033;}.cls-14{opacity:.9;}.cls-15{letter-spacing:-.02em;}.cls-16{fill:#fff;font-family:SFPro-Bold, 'SF Pro';font-size:8.9px;font-variation-settings:'opsz' 28, 'wght' 700;font-weight:700;}.cls-17{letter-spacing:-.03em;}.cls-18{letter-spacing:0em;}</style></defs><g id="Americano"><g id="Soda"><path class="cls-3" d="M5.34,12.55c-.26,.03-.5,.05-.55,.05,.04,0,.13,.03,.2,.12l-.25,.16-.29-.1,.05,.29c.07,.09,.12,.12,.29,.12,.12,0,.31-.02,.61-.05,1.69-.17,6.81-.68,16.49,.03l.04-.6c-9.73-.72-14.9-.2-16.6-.03Z"/><path class="cls-13" d="M16.76,73.39c-.08,.13-.17,.28-.28,.46-.11,.17-.23,.37-.38,.58-.14,.21-.3,.43-.48,.65-.18,.22-.39,.44-.62,.62l-.19,.12-.17,.07c-.16,0-.32,0-.48,0-.17,0-.33,0-.5,0h-.33s-.04,0-.04,0h-.13s0,0,0,0h-.33c-.17,0-.34,0-.5,0-.16,0-.32,0-.48,0l-.17-.07-.19-.12c-.24-.18-.44-.4-.62-.62-.18-.22-.34-.44-.48-.65-.14-.21-.27-.4-.38-.58-.1-.17-.2-.33-.28-.46-.07-.13-.13-.23-.17-.3-.04-.07-.06-.11-.06-.11,0,0,.02,.04,.04,.11,.03,.07,.08,.18,.13,.32,.06,.14,.13,.3,.23,.49,.09,.18,.2,.39,.33,.61,.13,.22,.28,.46,.45,.7,.18,.24,.38,.48,.64,.69,.07,.05,.14,.1,.22,.14,.04,.02,.08,.04,.13,.06,.05,.01,.07,.04,.16,.05,.17,0,.34,0,.51,0,.17,0,.33,0,.5,0h.33s.04,0,.04,0h.13s0,0,0,0h.33c.17,0,.34,0,.5,0,.17,0,.34,0,.51,0,.09,0,.11-.04,.16-.05,.04-.02,.09-.04,.13-.06,.07-.05,.15-.1,.22-.14,.26-.21,.46-.46,.64-.69,.17-.24,.32-.47,.45-.7,.13-.22,.24-.43,.33-.61,.09-.19,.17-.35,.23-.49,.06-.14,.1-.24,.13-.32,.03-.07,.04-.11,.04-.11,0,0-.02,.04-.06,.11-.04,.07-.1,.17-.17,.3Z"/><path class="cls-3" d="M25.77,23.69v-.11l.23-1.08,.07-.32s-.07-.02-.14-.04-.16-.02-.28-.04c-.09-.02-.2-.04-.32-.07-2.19-.3-9.28-.98-24.58,.11h-.09c-.11,0-.23,0-.34,.02l.11,1.6h.18c.02,3.16,.05,14.61,.09,24.91h-.09l-.11,1.56s.11,0,.16,.02h.04c6.17,.41,11,.57,14.73,.57,6.25,0,9.31-.43,10.18-.57h.05c.12-.02,.2-.04,.21-.04l-.21-1.05v-.27c.05-10.43,.09-22.11,.11-25.21Z"/><path class="cls-13" d="M12.48,3.48c0-.1,0-.19,0-.29,0-.09,0-.19,0-.28,0-.09,0-.18,0-.27,0-.18-.02-.35-.03-.52,0-.17-.02-.32-.03-.47-.01-.14-.02-.28-.04-.39-.01-.12-.02-.22-.04-.3-.01-.08-.02-.15-.03-.2,0-.04-.01-.07-.01-.07,0,0,0,.02-.01,.07,0,.05-.02,.11-.03,.2-.01,.08-.02,.19-.04,.3-.01,.12-.02,.25-.04,.39-.01,.14-.02,.3-.03,.47s-.02,.34-.03,.52c0,.09,0,.18,0,.27,0,.09,0,.19,0,.28,0,.09,0,.19,0,.29v.03c.12,0,.25,0,.38,0,0,0,0-.02,0-.03Z"/><path class="cls-13" d="M11.14,3.48c0-.09,0-.19,0-.28,0-.09,0-.18,0-.27,0-.09,0-.18,0-.27,0-.17-.02-.34-.03-.5,0-.16-.02-.31-.03-.45-.01-.14-.02-.27-.04-.38-.01-.11-.02-.21-.03-.29-.01-.08-.02-.15-.03-.19,0-.04-.01-.07-.01-.07,0,0,0,.02-.01,.07,0,.04-.01,.11-.03,.19-.01,.08-.02,.18-.03,.29-.01,.11-.02,.24-.04,.38-.01,.14-.02,.29-.03,.45,0,.16-.02,.33-.03,.5,0,.09,0,.18,0,.27,0,.09,0,.18,0,.27,0,.09,0,.18,0,.28,0,.03,0,.07,0,.1,.12,0,.24-.02,.37-.03,0-.02,0-.05,0-.07Z"/><path class="cls-13" d="M9.98,3.57c0-.09,0-.18,0-.27,0-.09,0-.18,0-.27,0-.09,0-.18,0-.26,0-.17-.02-.34-.02-.49,0-.16-.02-.31-.03-.44-.01-.14-.02-.26-.04-.37-.01-.11-.02-.21-.03-.29-.01-.08-.02-.14-.03-.19,0-.04-.01-.07-.01-.07,0,0,0,.02-.01,.07,0,.04-.01,.11-.03,.19-.01,.08-.02,.18-.03,.29-.01,.11-.02,.24-.04,.37-.01,.14-.02,.29-.03,.44,0,.16-.02,.32-.02,.49,0,.09,0,.17,0,.26,0,.09,0,.18,0,.27,0,.09,0,.18,0,.27,0,.05,0,.1,0,.15,.11-.02,.23-.03,.36-.05,0-.03,0-.07,0-.1Z"/><path class="cls-13" d="M9.21,3.69c0-.08,0-.17,0-.25s0-.17,0-.25c0-.08,0-.16,0-.24,0-.16-.01-.31-.02-.46,0-.15-.02-.28-.03-.41-.01-.13-.02-.24-.03-.35s-.02-.19-.03-.27-.02-.13-.02-.17c0-.04,0-.06,0-.06,0,0,0,.02,0,.06,0,.04-.01,.1-.02,.17,0,.07-.02,.16-.03,.27s-.02,.22-.03,.35c-.01,.13-.02,.26-.03,.41,0,.14-.02,.3-.02,.46,0,.08,0,.16,0,.24,0,.08,0,.16,0,.25,0,.08,0,.17,0,.25,0,.05,0,.1,0,.16,.08-.02,.2-.04,.33-.06,0-.03,0-.06,0-.1Z"/><path class="cls-13" d="M14.27,3.27c0-.09,0-.19,0-.28,0-.09,0-.18,0-.27,0-.18-.02-.35-.03-.52s-.02-.32-.03-.47c-.01-.14-.02-.28-.04-.39-.01-.12-.02-.22-.04-.3-.01-.08-.02-.15-.03-.2,0-.05-.01-.07-.01-.07,0,0,0,.02-.01,.07,0,.05-.02,.11-.03,.2-.01,.08-.02,.19-.04,.3-.01,.12-.03,.25-.04,.39-.01,.14-.02,.3-.03,.47,0,.17-.02,.34-.03,.52,0,.09,0,.18,0,.27,0,.09,0,.19,0,.28,0,.08,0,.17,0,.25,.12,0,.25,.01,.38,.02,0-.09,0-.18,0-.27Z"/><path class="cls-13" d="M15.6,3.56c0-.09,0-.19,0-.28,0-.09,0-.18,0-.27,0-.09,0-.18,0-.27,0-.17-.02-.34-.03-.5,0-.16-.02-.31-.03-.45-.01-.14-.02-.27-.04-.38-.01-.11-.02-.21-.03-.29-.01-.08-.02-.15-.03-.19,0-.04-.01-.07-.01-.07,0,0,0,.02-.01,.07,0,.04-.02,.11-.03,.19-.01,.08-.02,.18-.03,.29-.01,.11-.02,.24-.04,.38-.01,.14-.02,.29-.03,.45,0,.16-.02,.33-.02,.5,0,.09,0,.18,0,.27,0,.09,0,.18,0,.27,0,.09,0,.18,0,.28,0,.02,0,.03,0,.05,.12,.01,.24,.02,.37,.04,0-.03,0-.06,0-.09Z"/><path class="cls-13" d="M16.76,3.64c0-.09,0-.18,0-.27,0-.09,0-.18,0-.27,0-.09,0-.18,0-.26,0-.17-.01-.34-.02-.49s-.02-.31-.03-.44-.02-.26-.04-.37c-.01-.11-.02-.21-.03-.29-.01-.08-.02-.14-.03-.19,0-.04-.01-.07-.01-.07,0,0,0,.02-.01,.07,0,.04-.01,.11-.03,.19-.01,.08-.02,.18-.03,.29-.01,.11-.02,.24-.04,.37-.01,.14-.02,.29-.03,.44s-.02,.32-.02,.49c0,.09,0,.17,0,.26,0,.09,0,.18,0,.27,0,.09,0,.18,0,.27,0,.03,0,.07,0,.1,.12,.02,.24,.03,.36,.05,0-.05,0-.1,0-.16Z"/><path class="cls-13" d="M17.5,3.76c0-.08,0-.17,0-.25,0-.08,0-.17,0-.25,0-.08,0-.16,0-.24,0-.16-.01-.31-.02-.46,0-.14-.02-.28-.03-.41-.01-.13-.02-.24-.03-.35-.01-.1-.02-.19-.03-.27s-.02-.13-.02-.17c0-.04,0-.06,0-.06,0,0,0,.02,0,.06,0,.04-.01,.1-.02,.17,0,.07-.02,.16-.03,.27-.01,.1-.02,.22-.03,.35s-.02,.26-.03,.41c0,.15-.02,.3-.02,.46,0,.08,0,.16,0,.24,0,.08,0,.16,0,.25,0,.08,0,.17,0,.25,0,.03,0,.07,0,.1,.11,.02,.22,.04,.33,.06,0-.05,0-.11,0-.16Z"/><path class="cls-13" d="M14.01,6.04c.15,0,.29,0,.44,0,.14,0,.28,0,.41,0,.13,0,.25,0,.37,0,.22,0,.41,0,.55,0,.13,0,.21,0,.21,0,0,0-.08-.01-.21-.03-.13-.01-.32-.03-.55-.05-.12,0-.24-.01-.37-.02-.13,0-.27-.01-.41-.02-.14,0-.29,0-.44-.01-.15,0-.3,0-.45,0-.15,0-.3,0-.45,0-.15,0-.29,0-.44,0-.14,0-.28,0-.41,0-.13,0-.25,0-.37,0-.22,0-.41,.02-.55,.02-.13,0-.21,.01-.21,.01,0,0,.08,0,.21,.01,.14,0,.33,.02,.55,.03,.12,0,.24,0,.37,.01,.13,0,.27,0,.41,.01,.14,0,.29,0,.44,.01,.15,0,.3,0,.45,0,.15,0,.3,0,.45,0Z"/><text class="cls-16" transform="translate(1.07 34.88)"><tspan x="0" y="0">C</tspan><tspan class="cls-15" x="6.34" y="0">L</tspan><tspan x="10.98" y="0">UB</tspan><tspan x="0" y="8">SO</tspan><tspan class="cls-17" x="12.32" y="8">D</tspan><tspan class="cls-18" x="18.29" y="8">A</tspan></text><g class="cls-14"><g class="cls-14"><path class="cls-9" d="M3.12,69.35v.04s.05-.01,.07-.01c.04,.03,0-.1-.06-.24-.04,0-.05,.07,0,.22Z"/><polygon class="cls-11" points="3.03 70.06 3.07 70.1 3.07 70.09 3.03 70.06"/><path class="cls-9" d="M3.21,69.79c-.03-.09-.08-.14-.11-.2,0,.04,0,.08-.01,.11-.01,.03-.01,.08-.01,.13,.02,.02,.05,.06,.06,.1t-.02-.05s.06,.07,.06,.07c.02-.02-.03-.14-.07-.2,.03,.04,.07,.09,.11,.13v-.05s-.02-.05-.02-.06l.02,.02Z"/><path class="cls-9" d="M3.23,68.73v.02s.04,.05,.06,.08v-.08s-.03-.04-.03-.04h0s.01,0,.02,0h0s0-.05,0-.05v.02s-.03-.09-.05-.09c-.02,.02,0,.09,0,.15Z"/><path class="cls-10" d="M3.04,68.01s-.04,.02-.07,.01c.03,.05,.02,.13,.05,.18-.14-.02-.05,.39-.09,.5-.03,.13,.03,.35,.03,.5,.02,.02,.04,0,.07,.06,0-.04-.01-.07-.04-.11,0,0,0-.01-.01-.02,0,0,.01,.02,.01,.02,.03,.06,.04,.07,.05,.09,0-.01,0-.02,0-.02,0,0,.01,.01,.02,.02,0-.14,0-.27,.08-.31v-.04c-.04-.15-.03-.21,0-.21-.03-.09-.05-.18-.06-.25,0-.11,0-.21,0-.32-.02-.02-.04-.05-.06-.08v-.02Z"/><path class="cls-6" d="M2.13,63.28c-.13,.01-.33,.33-.36,.69-.05,.37-.08,.74-.09,1.14,.05-.06,.12-.01,.16,.15,.02,.09-.02,.24,0,.28,.06,.2,.11,.25,.16,.48,.01-.04,.05-.05,.05-.1,.02-.13,.03-.3-.03-.5-.01-.06,.05-.17,.07-.04,.01-.17-.02-.28-.02-.4,0-.36,.11-.12,.18-.23,.02-.02,.03-.04,.04-.08-.05-.24-.11-.47-.14-.72,0-.06,.04-.13,.03-.19,0-.21-.02-.5-.07-.48Z"/><path class="cls-12" d="M1.84,66.65c-.03-.06-.05-.13-.07-.21,0,.12-.01,.23-.02,.35l.05,.08c0-.09,0-.17,.04-.22Z"/><path class="cls-12" d="M2.33,64.98c-.06-.03-.07,.07-.11,.14,.04,.17,.03,.28-.02,.38,.02,0,0,.08,.02,.1-.02,0-.04,.06-.06,0,.02,.06,0,.12,.02,.15-.01,.09-.05-.07-.07,0,.11,.31,.02,.58-.08,.48-.04-.04-.07-.12-.13-.17-.06-.05-.04-.21-.04-.33-.03,.04-.04,.21-.08,.12-.03-.09-.06-.19-.1-.25,.02,.25,.09,.56,.09,.69v.16c0,.07,.03,.15,.06,.21-.03,.06-.04,.14-.04,.22,.02,.03,.04,.06,.06,.07,.07,.07,.01-.23,.06-.32,.08,.32,.2,.35,.26,.23,.04-.08,.06-.17,.08-.3,0-.07,0-.17-.04-.25,.01,.03,.04,.11,.05,.09,0-.16,.07-.23,.03-.44,.02,0,.02-.01,.04,.04-.04-.11,.05-.05,.02-.16,.04-.06,.13-.05,.11-.19,0-.04,0-.07,0-.1-.04-.1-.06-.22-.07-.36,0-.05-.02-.15-.03-.28,0,.05,0,.09-.02,.09Z"/><path class="cls-4" d="M2.27,64.75c-.07,.11-.19-.12-.18,.23,0,.13,.03,.24,.02,.4-.02-.13-.09-.01-.07,.04,.06,.2,.05,.36,.03,.5,0,.05-.04,.06-.05,.1-.06-.24-.1-.29-.16-.48-.03-.04,.02-.19,0-.28-.04-.17-.11-.21-.16-.15,0,.14,0,.29,0,.43,0,.01,0,.02,0,.04,.04,.06,.07,.16,.1,.25,.04,.09,.05-.08,.08-.12,0,.12-.02,.29,.04,.33,.06,.05,.09,.13,.13,.17,.09,.1,.19-.17,.08-.48,.02-.06,.06,.1,.07,0-.02-.03,0-.1-.02-.15,.02,.06,.04,0,.06,0,0-.03,0-.1-.02-.1,.05-.1,.07-.21,.02-.38,.05-.07,.05-.17,.11-.14,.01,0,.01-.05,.02-.09-.01-.06-.02-.13-.04-.21,0,.03-.02,.06-.04,.08Z"/><path class="cls-8" d="M2.46,65.63c.02,.15-.07,.14-.11,.19,.04,.11-.05,.05-.02,.16-.02-.05-.03-.03-.04-.04,.04,.2-.02,.28-.03,.44,0,.02-.04-.06-.05-.09,.03,.08,.04,.18,.04,.25-.02,.13-.04,.22-.08,.3-.06,.12-.18,.09-.26-.23-.04,.08,.02,.39-.06,.32-.02-.01-.04-.04-.06-.07,.01,.21,.11,.49,.18,.71,.02,0,.04,0,.04-.05,.01-.28,.15-.15,.19-.37,0-.04,0-.16,0-.19,.04-.1,.13-.01,.17-.12,.02,0-.04-.15-.01-.16,.03-.06,.1-.04,.1-.16,0-.32,.09-.43,.16-.56-.06-.15-.11-.29-.16-.44,0,.03,0,.06,0,.1Z"/><path class="cls-1" d="M2.26,69.26c.05,.11,.08,.16,.09,.18-.07-.3-.05-.45,0-.59,.02-.04-.17-.47-.11-.55,.03,0,.08,.08,.12,.18-.03-.42,.13-.46,.14-.78,0-.32,.11-.59,.24-.64,.06-.02,.05-.22,.07-.38-.03-.06-.05-.12-.08-.18-.02,.09-.05,.18-.08,.2-.12,.08-.2,.22-.19,.56,0,.11-.13,.06-.15,.13-.07,.26-.13,.41-.21,.61-.02,.04-.04,.12-.05,.21,.03,.12,.02,.06,.13,.44,.16,.41-.05,.35,.08,.61Z"/><path class="cls-7" d="M2.46,66.54c0,.12-.06,.1-.1,.16-.02,.02,.03,.17,.01,.16-.04,.1-.13,.01-.17,.12,0,.02,0,.14,0,.19-.04,.22-.18,.09-.19,.37,0,.04-.02,.05-.04,.05h0c-.05-.02-.02,.12,0,.15,.05,.18,.05,.25,.06,.4,0,.04,.02,.06,.02,.08,0-.09,.03-.17,.05-.21,.08-.2,.14-.34,.21-.61,.01-.07,.14-.01,.15-.13,0-.34,.07-.48,.19-.56,.04-.03,.06-.11,.08-.2-.02-.06-.04-.11-.06-.15-.02-.05,0-.13,0-.13-.02-.09-.05-.17-.07-.25-.07,.14-.16,.24-.16,.56Z"/><path class="cls-5" d="M2.44,69.65s.06,.09,.07,.11c.06,.1,.02,.1,.04,.14v-.02s0,.02,.01,.03c0-.06,.03-.11,.07-.12-.03-.06-.04-.11-.04-.15,.04-.21,.14-.34,.03-.8-.04-.19,.17-.03,.14-.3-.01-.09-.07-.25-.03-.29,.06-.04,.16,.07,.15-.11-.05-.45,0-.81,.15-.9-.02-.17-.11-.36-.2-.55-.01,.16-.01,.36-.07,.38-.13,.05-.23,.33-.24,.64-.01,.32-.17,.35-.14,.78-.04-.1-.09-.18-.12-.18-.06,.09,.12,.51,.11,.55-.05,.14-.07,.29,0,.59,.02,.05,.03,.08,.09,.2Z"/><path class="cls-2" d="M2.87,68.13c.01,.18-.09,.08-.15,.11-.04,.04,.02,.2,.03,.29,.04,.27-.18,.12-.14,.3,.11,.46,.02,.6-.03,.8,0,.03,.01,.08,.04,.15,.01,0,.03,0,.05,0,.03,0,0-.19-.01-.28,.03-.07,.12,.01,.2,.09l.04,.03h0s.03,.04,.03,.04v-.11s-.02-.04-.02-.04v.02s.02-.09,.03-.13c.01-.03,.02-.07,.02-.11-.01-.03,0-.02-.02-.05,0,.02,.02,.03,.02,.03,0-.15-.06-.37-.03-.5,.04-.11-.05-.52,.08-.5-.03-.05-.02-.13-.05-.18,.03,0,.05,0,.07-.02,0-.06,0-.13,.02-.15,.03,0,.03,.05,.04,.09v-.02s.01-.02,.01-.02c0-.03-.02-.05-.04-.07-.03-.02-.05-.04-.07-.06,.02,0,.05,.03,.07,.06l.04,.03c0-.07,0-.14,0-.19l-.02-.04,.02,.03v-.03s-.08-.14-.13-.24c.04-.08,.05-.17,.04-.26-.14,.08-.2,.45-.15,.9Z"/></g></g><g class="cls-14"><g class="cls-14"><path class="cls-9" d="M23.4,69.42l-.02,.03s.03,.02,.05,.04c0,.05,.07-.07,.15-.21-.03-.02-.08,.01-.17,.14Z"/><polygon class="cls-11" points="22.79 69.76 22.78 69.81 22.79 69.81 22.79 69.76"/><path class="cls-9" d="M23.11,69.76c.05-.08,.07-.14,.09-.21-.03,.03-.07,.05-.1,.05-.03,.01-.07,.03-.11,.06,0,.03-.02,.07-.04,.1t.02-.04s-.02,.08-.02,.08c.03,0,.09-.1,.12-.17-.01,.05-.03,.11-.04,.16l.04-.03s.03-.04,.03-.05v.03Z"/><path class="cls-9" d="M23.94,69.04l-.02,.02s0,.07-.01,.11l.06-.06v-.06s.02,0,.02,0c0,0,0,.01,0,.03h0s.03-.04,.03-.04h-.02s.05-.08,.04-.1c-.02,0-.07,.07-.11,.11Z"/><path class="cls-10" d="M24.27,68.3s-.05,0-.07-.03c0,.06-.07,.13-.07,.19-.09-.1-.29,.29-.39,.35-.11,.08-.23,.27-.34,.38,0,.03,.02,.03,0,.09,.03-.03,.05-.06,.06-.1,0,0,0-.02,0-.03,0,.01,0,.02,0,.03,0,.03-.02,.06-.04,.1,0-.01,.02-.02,.02-.01,0,0,0,.02,0,.03,.11-.1,.2-.19,.28-.16l.02-.03c.08-.14,.13-.17,.17-.15,.04-.09,.08-.18,.12-.25,.06-.08,.14-.17,.21-.27,0-.03,0-.07,0-.11l.02-.02Z"/><path class="cls-6" d="M24.1,63.31c-.12,.06-.21,.39-.18,.73,.02,.35,0,.7,0,1.06,.06-.05,.12-.01,.16,.15,.02,.08-.03,.23-.02,.27,.03,.2,.09,.25,.09,.49,.02-.04,.06-.04,.07-.09,.05-.13,.08-.29,.04-.49-.01-.06,.06-.17,.07-.04,.02-.17,0-.28,0-.41-.02-.36,.11-.12,.17-.24,.02-.02,.03-.05,.04-.08-.06-.25-.15-.48-.23-.71-.02-.06,0-.14,0-.2-.05-.21-.15-.48-.2-.44Z"/><path class="cls-12" d="M23.8,66.53c0-.06-.01-.13,0-.2-.04,.1-.08,.2-.12,.3l.02,.09c.03-.08,.06-.14,.1-.18Z"/><path class="cls-12" d="M24.56,64.98c-.06-.03-.07,.07-.12,.14,.03,.17,.02,.29-.05,.39,.01,0,0,.08,0,.11-.01,0-.05,.05-.05,0,0,.06-.02,.12,0,.16-.03,.09-.04-.08-.07-.02,.06,.33-.1,.57-.17,.45-.03-.05-.04-.13-.09-.19-.05-.06,0-.21,.02-.32-.04,.03-.06,.19-.09,.1-.01-.09-.04-.19-.06-.25,0,.24,0,.53-.03,.65l-.05,.14c0,.07,0,.14,0,.2-.05,.04-.07,.11-.1,.18,0,.03,.02,.06,.03,.08,.04,.09,.1-.2,.16-.26-.02,.31,.07,.38,.18,.29,.07-.06,.11-.14,.17-.26,.02-.07,.04-.16,.03-.25,0,.03,0,.12,.02,.1,.06-.15,.12-.22,.13-.43,.01,0,.03-.01,.03,.05-.01-.12,.06-.04,.05-.16,.05-.05,.13-.03,.13-.19,0-.05,0-.08,0-.11-.02-.12-.04-.24-.04-.39,0-.1-.01-.2-.03-.3,0,.05,0,.09-.01,.1Z"/><path class="cls-4" d="M24.49,64.75c-.07,.12-.19-.12-.17,.24,0,.13,.02,.24,0,.41-.01-.13-.09-.02-.07,.04,.03,.2,0,.37-.04,.49,0,.05-.05,.05-.07,.09,0-.24-.06-.29-.09-.49-.02-.04,.03-.18,.02-.27-.03-.16-.1-.2-.16-.15,0,.15-.02,.28-.03,.4,0,0,0,.02,0,.04,.03,.06,.05,.16,.06,.25,.03,.09,.06-.07,.09-.1-.02,.11-.07,.27-.02,.32,.05,.06,.06,.14,.09,.19,.07,.12,.23-.12,.17-.45,.03-.06,.04,.1,.07,.02-.02-.04,.01-.1,0-.16,0,.06,.04,0,.05,0,0-.03,.01-.1,0-.11,.07-.09,.08-.21,.05-.39,.05-.07,.06-.17,.12-.14,.01,0,.01-.05,.01-.1-.01-.06-.03-.14-.04-.22,0,.03-.02,.06-.04,.08Z"/><path class="cls-8" d="M24.64,65.68c0,.16-.09,.13-.13,.19,.02,.12-.06,.04-.05,.16,0-.06-.02-.04-.03-.05,0,.21-.07,.28-.13,.43-.01,.02-.02-.07-.02-.1,0,.09-.01,.18-.03,.25-.06,.12-.1,.2-.17,.26-.11,.09-.19,.02-.18-.29-.06,.06-.11,.35-.16,.26-.01-.02-.02-.05-.03-.08-.06,.19-.08,.45-.11,.66,.02,.01,.04,0,.05-.02,.13-.23,.2-.06,.33-.24,.03-.04,.06-.15,.07-.17,.08-.08,.12,.04,.2-.05,.01,.01,.02-.15,.05-.16,.05-.05,.11,0,.14-.12,.1-.32,.2-.41,.3-.54-.02-.17-.06-.33-.09-.5,0,.03,0,.06,0,.11Z"/><path class="cls-1" d="M22.87,68.75c-.02,.06-.04,.12-.06,.17,.15-.22,.27-.31,.39-.37,.04-.02,.16-.43,.25-.46,.02,.02,.02,.11,0,.21,.21-.34,.37-.28,.54-.55,.17-.27,.37-.49,.52-.49,.06,0,.14-.2,.21-.37,0-.07,0-.15-.01-.21-.05,.09-.1,.17-.15,.18-.15,.03-.26,.15-.4,.47-.05,.1-.15,0-.19,.05-.17,.2-.31,.29-.47,.4-.04,.02-.09,.07-.15,.14-.05,.13-.08,.26-.15,.39-.12,.38-.25,.2-.33,.45Z"/><path class="cls-7" d="M24.43,66.62c-.03,.12-.09,.08-.14,.12-.03,0-.03,.17-.05,.16-.08,.08-.12-.04-.2,.05-.01,.02-.05,.13-.07,.17-.13,.18-.2,.01-.33,.24-.02,.03-.03,.03-.05,.02h0s-.06,.09-.08,.12c-.04,.16-.08,.22-.14,.34-.01,.03-.02,.05-.03,.07,.06-.06,.12-.12,.15-.14,.16-.12,.3-.2,.47-.4,.04-.05,.13,.05,.19-.05,.15-.32,.25-.43,.4-.47,.05-.01,.1-.09,.15-.18,0-.07,0-.13,0-.18,0-.06,.04-.14,.04-.14,0-.1,0-.2-.02-.29-.1,.13-.2,.22-.3,.54Z"/><path class="cls-5" d="M22.73,69.09s-.02,.07-.03,.1c-.03,.09-.05,.07-.08,.11h.02s-.02,.01-.02,.01c.05-.02,.1-.03,.13-.01,.03-.05,.05-.1,.08-.11,.18-.09,.35-.09,.58-.49,.09-.16,.15,.1,.3-.14,.05-.08,.11-.24,.16-.25,.07,0,.09,.16,.19,0,.23-.41,.44-.75,.61-.77,.06-.18,.06-.42,.05-.65-.08,.17-.15,.37-.21,.37-.15,0-.34,.22-.52,.49-.17,.27-.33,.21-.54,.55,.02-.1,.03-.19,0-.21-.09,.03-.2,.44-.25,.46-.12,.06-.25,.15-.39,.37-.03,.06-.06,.12-.09,.17Z"/><path class="cls-2" d="M24.06,68.31c-.09,.16-.12,0-.19,0-.05,.01-.11,.18-.16,.25-.15,.23-.21-.03-.3,.14-.24,.4-.4,.4-.58,.49-.03,.01-.05,.06-.08,.11,.01,0,.03,.02,.04,.04,.02,.03,.13-.11,.2-.17,.07-.02,.07,.09,.07,.2v.05s0,0,0,0v.04s.08-.07,.08-.07c0-.01,.01-.02,.02-.03v.02s.07-.05,.1-.07c.03,0,.06-.03,.09-.06,.01-.03,0-.02,.02-.05,0,.02,0,.03,0,.04,.12-.1,.22-.3,.34-.38,.1-.05,.3-.44,.4-.35,0-.06,.07-.13,.07-.19,.02,.02,.04,.03,.07,.03,.04-.05,.08-.12,.1-.12,.02,.02-.01,.06-.03,.11h.02s.01-.02,.01-.02c0-.03,.01-.06,.01-.09,0-.04-.01-.07-.02-.1,.02,.02,.02,.06,.02,.1v.05c.05-.06,.09-.12,.13-.18,0-.01,0-.03,0-.05,0,.01,0,.03,0,.04v-.03c.02-.06,.02-.18,.03-.31,.08-.06,.13-.14,.16-.24-.17,.02-.38,.35-.61,.77Z"/></g></g><g class="cls-14"><g class="cls-14"><path class="cls-9" d="M8.83,58.7v-.1s-.03,0-.04-.03c-.03-.12,.01,.26,.06,.67,.02,.02,.02-.12-.02-.54Z"/><path class="cls-11" d="M8.85,57.12l-.03-.14s0,0,0,.02l.03,.13Z"/><path class="cls-9" d="M8.75,57.53c.02,.26,.05,.42,.07,.61,0-.11,0-.19,0-.25,0-.07,0-.17,0-.29-.02-.14-.03-.24-.04-.3q0,.06,.01,.13c-.01-.08-.03-.23-.03-.23,0,.04,.02,.35,.05,.56-.02-.12-.05-.3-.07-.44v.12c0,.07,.01,.13,.02,.16v-.08Z"/><path class="cls-9" d="M8.83,60.19v-.06c-.02-.1-.04-.18-.05-.26v.22s.04,.15,.04,.15v.02s-.01-.02-.02-.06h0s0,.13,0,.13v-.04c.02,.13,.03,.26,.04,.29,0-.03,0-.22-.02-.38Z"/><path class="cls-10" d="M9.07,62.27s.02-.02,.04,.02c-.04-.29-.03-.24-.06-.52,.08,.16-.04-.98-.03-1.22,0-.31-.06-.9-.08-1.29-.01-.08-.02-.06-.04-.22,0,.09,.01,.2,.03,.32,0,.02,0,.04,.01,.07,0-.03,0-.05-.01-.07-.02-.16-.03-.21-.04-.28,0,.04,0,.06,0,.05,0-.04-.01-.06-.01-.07,.01,.36,.03,.68-.01,.7v.1c.05,.42,.05,.55,.03,.54,.02,.17,.04,.37,.08,.71,.01,.24,.03,.54,.05,.84,.02,.08,.03,.16,.05,.26v.06Z"/><path class="cls-6" d="M12.11,75.11c0-.06-.07-.29-.2-.61-.11-.33-.25-.76-.38-1.2-.26-.93-.48-1.87-.68-2.88,0,.15-.05,.05-.16-.39-.06-.22-.11-.63-.14-.72-.12-.52-.17-.65-.3-1.28,0,.11,0,.13,.01,.26,.05,.35,.12,.79,.24,1.31,.03,.15,.07,.46-.02,.11,.13,.62,.18,.84,.23,1.07,.21,.94,.02,.33,.05,.64,0,.05,.01,.12,.03,.21,.17,.65,.37,1.24,.58,1.85,.05,.14,.11,.36,.17,.5,.17,.55,.59,1.19,.57,1.12Z"/><path class="cls-12" d="M10.12,66.49c.05,.25,.09,.43,.11,.55-.04-.29-.07-.59-.11-.88l-.05-.23c.03,.22,.05,.42,.05,.55Z"/><path class="cls-12" d="M10.6,70.82c.05,.08,0-.18-.02-.39-.11-.44-.17-.76-.19-1.02-.01-.02-.04-.2-.06-.28,.01,.02,0-.15,.03,0-.03-.15-.05-.31-.08-.41-.03-.24,.06,.19,.04,.02-.2-.84-.24-1.54-.15-1.24,.04,.11,.09,.34,.13,.47,.05,.13,.11,.56,.16,.87,0-.09-.07-.53-.01-.29,.04,.17,.1,.39,.16,.66-.13-.65-.29-1.43-.33-1.78l-.05-.4c-.03-.13-.06-.3-.11-.55,0-.14-.02-.33-.05-.55-.02-.09-.04-.16-.06-.2-.06-.21,.06,.59,.07,.79-.15-.84-.22-.97-.22-.68,0,.2,.02,.42,.06,.78,.03,.19,.07,.45,.11,.67-.02-.07-.06-.3-.06-.24,.06,.43,.05,.61,.16,1.17-.01-.02,0,.04-.04-.11,.06,.3,0,.13,.06,.43,0,.15-.05,.11,.03,.52,.03,.18,.03,.18,.05,.28,.1,.45,.18,.8,.22,.98,.04,.17,.1,.43,.18,.77-.03-.12-.05-.23-.05-.25Z"/><path class="cls-4" d="M10.77,71.43c-.03-.31,.16,.3-.05-.64-.05-.23-.09-.45-.23-1.07,.08,.35,.05,.04,.02-.11-.12-.52-.19-.96-.24-1.31-.02-.13,0-.15-.01-.26,.13,.63,.18,.76,.3,1.28,.03,.09,.08,.5,.14,.72,.11,.43,.16,.54,.16,.39-.07-.38-.14-.74-.21-1.1,0-.03-.01-.07-.02-.1-.06-.26-.12-.48-.16-.66-.06-.24,.01,.2,.01,.29-.05-.31-.11-.74-.16-.87-.05-.13-.1-.36-.13-.47-.09-.3-.05,.4,.15,1.24,.02,.17-.07-.26-.04-.02,.03,.09,.05,.26,.08,.41-.03-.15-.02,.02-.03,0,.02,.07,.05,.26,.06,.28,.01,.26,.07,.57,.19,1.02,.02,.2,.07,.46,.02,.39,0,.02,.02,.13,.05,.25,.04,.16,.1,.35,.15,.57-.02-.09-.03-.16-.03-.21Z"/><path class="cls-8" d="M10.19,69.05c-.08-.41-.03-.37-.03-.52-.07-.3,0-.13-.06-.43,.03,.15,.03,.09,.04,.11-.1-.56-.1-.74-.16-1.17,0-.06,.04,.17,.06,.24-.05-.22-.09-.48-.11-.67-.04-.35-.05-.57-.06-.78,0-.29,.07-.16,.22,.68,0-.2-.13-1-.07-.79,.01,.04,.03,.11,.06,.2-.14-.88-.2-1.25-.29-1.86-.01-.02-.02,0-.01,.1,.06,.7-.05,.31-.01,.86,.02,.21,.04,.38,.05,.48,0,.26-.07-.02-.06,.23-.01-.02,.07,.41,.06,.45,0,.15-.04,.07,0,.39,.12,.86,.12,1.13,.14,1.5,.09,.38,.2,.87,.29,1.25-.02-.1-.02-.1-.05-.28Z"/><path class="cls-1" d="M9.33,59.77c-.04-.26-.05-.4-.07-.51,.07,.75,.07,1.11,.06,1.4,0,.09,.16,1.27,.15,1.43-.02-.04-.06-.26-.1-.54,.09,1.08,.01,1.07,.07,1.88,.07,.82,.1,1.5,.04,1.58-.03,.03,.04,.58,.09,1.03,.04,.18,.07,.36,.11,.53-.02-.25-.04-.47-.02-.53,.05-.16,.03-.51-.06-1.42-.03-.3,.06-.09,.05-.25-.03-.65-.03-.97-.02-1.41,0-.09,0-.27-.01-.49-.04-.34-.05-.44-.15-1.16-.15-1.12-.02-.79-.12-1.52Z"/><path class="cls-7" d="M9.82,66.58c-.04-.32,0-.24,0-.39,0-.04-.07-.47-.06-.45,0-.26,.07,.02,.06-.23-.01-.1-.03-.27-.05-.48-.04-.55,.07-.16,.01-.86,0-.09,0-.11,.01-.1h0c.04,.08-.02-.29-.03-.38-.07-.47-.08-.65-.12-1.03-.01-.08-.02-.15-.03-.22,.01,.22,.02,.41,.01,.49,0,.44-.01,.77,.02,1.41,.01,.17-.08-.04-.05,.25,.1,.91,.11,1.26,.06,1.42-.01,.06,0,.27,.02,.53,.03,.16,.06,.31,.09,.44,.03,.15,.05,.37,.05,.37,.03,.17,.08,.42,.14,.71-.02-.37-.02-.64-.14-1.5Z"/><path class="cls-5" d="M9.2,58.7c-.02-.13-.04-.26-.04-.31-.04-.28-.02-.24-.03-.37v.06s0-.06,0-.09c0,.13-.01,.21-.03,.21,.02,.17,.03,.31,.03,.38-.01,.44-.06,.65,.06,1.9,.05,.5-.1-.09-.04,.64,.02,.24,.08,.71,.07,.78-.03,.05-.11-.31-.07,.18,.12,1.21,.19,2.18,.13,2.34,.06,.48,.17,1.06,.29,1.63-.05-.45-.12-1-.09-1.03,.06-.09,.03-.77-.04-1.58-.06-.82,.02-.81-.07-1.88,.04,.28,.08,.51,.1,.54,.02-.16-.15-1.34-.15-1.43,.01-.29,0-.65-.06-1.4-.02-.17-.04-.31-.06-.56Z"/><path class="cls-2" d="M9.14,62.07c-.04-.48,.04-.12,.07-.18,.02-.07-.05-.54-.07-.78-.06-.72,.09-.14,.04-.64-.12-1.25-.07-1.46-.06-1.9,0-.06-.01-.21-.03-.38,0,0-.02-.02-.03-.06-.02-.04,.02,.44,.02,.67-.01,.13-.07-.15-.12-.43l-.03-.13s0-.02,0-.02l-.02-.11c0,.09,0,.18,0,.27,0,.01,0,.04,.01,.1,0-.02,0-.03,0-.05,0,.12,0,.22,0,.29,0,.06,0,.14,0,.25,0,.06,0,.08,.02,.14,0-.02,0-.05-.02-.1,.01,.38,.08,.98,.07,1.29-.01,.24,.11,1.37,.03,1.22,.03,.29,.03,.24,.06,.52-.02-.03-.03-.03-.04-.02,.01,.16,.03,.35,.02,.38-.02-.03-.03-.16-.04-.28v.04s0,.04,0,.04c0,.04,.02,.11,.04,.22,.02,.08,.04,.16,.06,.23-.01-.03-.04-.12-.06-.23l-.03-.11c.02,.2,.03,.38,.05,.53,0,.04,.01,.07,.02,.11,0-.03-.01-.06-.02-.1v.08c.04,.15,.09,.45,.14,.75,0,.2,.02,.43,.05,.69,.06-.16-.02-1.12-.13-2.34Z"/></g></g><g class="cls-14"><g class="cls-14"><path class="cls-9" d="M17.47,58.69l.02-.1s-.02,0-.03-.04c0-.12-.05,.25-.1,.67,.02,.02,.05-.11,.11-.53Z"/><path class="cls-11" d="M17.85,57.16v-.15s0,0,0,.02v.13Z"/><path class="cls-9" d="M17.66,57.54c-.04,.35-.05,.45-.06,.61,.02-.1,.04-.19,.06-.24,.02-.07,.04-.17,.07-.28,.01-.14,.02-.25,.03-.3q-.01,.05-.02,.13c0-.08,.02-.23,.02-.23-.02,.03-.06,.35-.08,.56,0-.12,.02-.3,.03-.44l-.03,.12c0,.07-.02,.13-.02,.16v-.08Z"/><path class="cls-9" d="M17.12,60.14v-.06c.02-.1,.02-.18,.03-.26l-.04,.21v.15s-.02,.02-.02,.02c0,0,0-.02,0-.07h0s-.02,.13-.02,.13v-.03c0,.13-.03,.25-.02,.29,.01-.03,.05-.22,.08-.37Z"/><path class="cls-10" d="M16.82,62.2s.02,0,.03,.02c.04-.28,.03-.24,.07-.52,.04,.17,.21-.96,.28-1.18,.08-.3,.16-.89,.24-1.27,0-.08,0-.06,0-.22-.02,.09-.03,.2-.04,.32,0,.02,0,.04,0,.07,0-.03,0-.05,0-.07,.02-.16,.02-.21,.03-.28,0,.04-.01,.06-.01,.05,0-.04,0-.06,0-.07-.07,.35-.14,.66-.18,.68l-.02,.1c-.06,.41-.1,.54-.11,.52-.03,.17-.05,.37-.1,.7-.05,.24-.11,.53-.16,.82,0,.08-.01,.16-.02,.26v.06Z"/><path class="cls-6" d="M14.33,75.16s.19-.23,.38-.54c.16-.32,.34-.75,.47-1.21,.28-.94,.52-1.88,.73-2.9-.06,.14-.07,.02,0-.42,.04-.23,.14-.62,.14-.72,.06-.47,.13-1,.18-1.31-.03,.11-.05,.12-.07,.25-.08,.34-.17,.78-.25,1.31-.02,.15-.12,.45-.05,.09-.13,.62-.17,.84-.22,1.07-.19,.94-.12,.31-.22,.6-.02,.05-.04,.12-.07,.2-.12,.66-.25,1.26-.4,1.89-.03,.15-.13,.35-.18,.49-.14,.55-.51,1.22-.45,1.18Z"/><path class="cls-12" d="M16.62,66.55c-.03,.26-.06,.43-.07,.56,.06-.29,.12-.58,.18-.87l.02-.24c-.04,.22-.08,.41-.12,.54Z"/><path class="cls-12" d="M15.53,70.77c.01,.09,.07-.17,.13-.36,.07-.45,.15-.76,.22-1.01,0-.02,.04-.2,.05-.28,0,.02,.05-.14,.03,.01,.02-.15,.06-.31,.07-.41,.05-.24-.01,.19,.03,.03,.12-.85,.29-1.53,.28-1.22,0,.12-.03,.35-.03,.49,0,.14-.09,.56-.15,.87,.03-.09,.12-.53,.09-.28-.02,.18-.05,.41-.08,.67,.08-.49,.18-1.05,.31-1.79l.08-.4c.02-.13,.04-.3,.07-.56,.04-.13,.08-.32,.12-.54,0-.09,.01-.17,0-.21,0-.22-.12,.58-.18,.78,.12-.84,.08-1,0-.72-.06,.19-.11,.41-.18,.76-.04,.18-.08,.44-.11,.67,0-.08,.04-.3,.02-.25-.09,.42-.15,.59-.23,1.15,0-.02-.02,.03,0-.12-.04,.3-.05,.12-.09,.42-.05,.14-.08,.08-.15,.49-.03,.18-.03,.18-.05,.28-.04,.29-.09,.61-.17,.98-.03,.17-.08,.43-.14,.77,.03-.12,.05-.23,.06-.25Z"/><path class="cls-4" d="M15.42,71.39c.1-.3,.03,.34,.22-.6,.05-.24,.09-.45,.22-1.07-.07,.35,.03,.06,.05-.09,.07-.53,.16-.97,.25-1.31,.03-.13,.05-.14,.07-.25-.04,.31-.11,.83-.18,1.31,0,.1-.1,.5-.14,.72-.07,.44-.06,.56,0,.42,.08-.38,.15-.74,.23-1.1,0-.03,.01-.07,.02-.11,.03-.27,.06-.5,.08-.67,.03-.25-.06,.19-.09,.28,.06-.31,.16-.73,.15-.87,0-.14,.03-.37,.03-.49,0-.31-.16,.37-.28,1.22-.04,.16,.02-.27-.03-.03,0,.1-.05,.26-.07,.41,.02-.15-.02,0-.03-.01-.01,.08-.05,.26-.05,.28-.07,.25-.15,.56-.22,1.01-.07,.19-.12,.45-.13,.36,0,.02-.03,.12-.06,.25-.03,.17-.07,.36-.11,.57,.02-.08,.05-.15,.07-.2Z"/><path class="cls-8" d="M15.83,68.98c.07-.41,.1-.35,.15-.49,.04-.3,.05-.12,.09-.42-.02,.15,0,.1,0,.12,.08-.56,.15-.73,.23-1.15,.01-.05-.01,.17-.02,.25,.03-.23,.07-.49,.11-.67,.07-.35,.12-.56,.18-.76,.09-.28,.12-.13,0,.72,.06-.19,.18-1,.18-.78,0,.04,0,.12,0,.21,.1-.54,.19-1.27,.27-1.87,0-.02-.02,0-.04,.09-.14,.69-.13,.28-.26,.82-.04,.21-.07,.37-.09,.48-.07,.25-.06-.04-.13,.2,0-.02-.06,.41-.08,.44-.04,.14-.06,.05-.12,.37-.16,.85-.26,1.11-.36,1.46-.05,.38-.12,.88-.17,1.26,.02-.1,.02-.1,.05-.28Z"/><path class="cls-1" d="M17.71,59.85c.03-.26,.04-.4,.06-.51-.12,.75-.2,1.1-.28,1.37-.03,.09-.16,1.27-.23,1.42,0-.04,.01-.27,.04-.55-.19,1.06-.27,1.03-.43,1.83-.16,.8-.33,1.46-.42,1.53-.03,.02-.14,.56-.23,1-.02,.18-.04,.37-.06,.53,.06-.25,.11-.46,.14-.51,.09-.14,.19-.47,.36-1.37,.06-.29,.08-.06,.12-.23,.15-.63,.25-.94,.37-1.37,.03-.08,.07-.26,.12-.48,.05-.34,.06-.44,.16-1.16,.14-1.13,.18-.77,.26-1.51Z"/><path class="cls-7" d="M16.3,66.54c.06-.31,.07-.23,.12-.37,.02-.03,.07-.46,.08-.44,.07-.25,.06,.04,.13-.2,.02-.1,.05-.27,.09-.48,.12-.54,.12-.13,.26-.82,.02-.09,.03-.11,.04-.09h0c0,.09,.06-.28,.08-.38,.03-.19,.09-.55,.16-1.02,.01-.08,.02-.15,.03-.22-.05,.22-.09,.4-.12,.48-.12,.42-.22,.74-.37,1.37-.04,.16-.06-.06-.12,.23-.17,.9-.27,1.23-.36,1.37-.03,.05-.08,.26-.14,.51-.02,.17-.04,.32-.06,.44-.02,.15-.07,.37-.07,.37-.02,.17-.06,.42-.1,.72,.1-.35,.2-.61,.36-1.46Z"/><path class="cls-5" d="M17.84,58.78c.01-.13,.02-.26,.03-.31,.03-.28,.04-.24,.05-.37v.05s0-.06,0-.09c-.03,.13-.06,.21-.08,.19-.02,.17-.04,.31-.06,.37-.11,.43-.21,.62-.4,1.86-.08,.5-.07-.11-.2,.61-.04,.24-.1,.71-.14,.77-.04,.04-.03-.32-.11,.15-.21,1.2-.41,2.15-.51,2.28-.08,.48-.14,1.06-.2,1.64,.09-.44,.19-.99,.23-1,.08-.06,.25-.72,.42-1.53,.16-.8,.24-.77,.43-1.83-.03,.28-.05,.51-.04,.55,.06-.15,.2-1.34,.23-1.42,.08-.28,.17-.63,.28-1.37,.02-.17,.04-.31,.07-.56Z"/><path class="cls-2" d="M16.95,62.03c.08-.48,.07-.11,.11-.15,.03-.07,.09-.53,.14-.77,.12-.72,.12-.11,.2-.61,.19-1.24,.28-1.44,.4-1.86,.02-.06,.04-.2,.06-.37,0,0-.01-.02-.02-.06-.01-.04-.09,.44-.13,.65-.04,.12-.03-.16-.02-.44v-.13s0-.02,0-.02v-.11c-.01,.09-.03,.18-.05,.27,0,.01,0,.04-.01,.1,0-.02,0-.03,0-.05-.02,.12-.05,.22-.07,.28-.02,.05-.04,.14-.06,.24,0,.06,0,.08-.02,.14,0-.02,0-.05,0-.1-.07,.38-.16,.97-.24,1.27-.06,.23-.24,1.36-.28,1.18-.04,.29-.03,.24-.07,.52,0-.03-.02-.04-.03-.02-.03,.16-.07,.34-.08,.37,0-.03,.02-.16,.04-.28v.03s-.02,.04-.02,.04c0,.04-.01,.11-.02,.22,0,.08,0,.16,0,.24,0-.03,0-.12,0-.24v-.11c-.04,.19-.07,.37-.1,.53,0,.04,0,.07-.01,.11,0-.03,0-.06,0-.1v.08c-.03,.15-.06,.45-.09,.76-.06,.19-.11,.42-.15,.68,.1-.13,.31-1.08,.51-2.28Z"/></g></g><path class="cls-13" d="M26.32,22.5c-.02-.12-.04-.23-.07-.36-1.53-8.49-7.77-13.33-8.71-14.04l-.11-1.6h.18c.07,0,.16,.02,.25,0,.09,0,.21-.02,.34-.12,.05-.05,.07-.12,.07-.21-.02-.07-.02-.14-.04-.18v-.02c0-.11-.04-.23-.04-.36,0-.25,0-.52-.02-.78,0-.3-.02-.6-.04-.91-.02-.32-.04-.64-.07-.98,0-.32-.04-.66-.05-1l-.09-.96c0-.12-.04-.21-.07-.25-.05-.09-.11-.12-.16-.16-.09-.07-.18-.11-.27-.14-.18-.07-.34-.09-.51-.12-.16-.04-.36-.05-.52-.07-1.56-.18-2.86-.25-3.89-.25-2.03,0-3.06,.23-3.06,.23-.18,.04-.34,.07-.5,.14-.11,.02-.2,.07-.28,.12-.05,.04-.09,.09-.16,.16-.04,.05-.07,.14-.05,.25l-.09,.98c-.04,.34-.05,.66-.07,.99-.02,.32-.05,.66-.07,.96-.02,.32-.02,.62-.02,.91-.02,.28-.02,.55-.04,.8,0,.12-.02,.23-.04,.34v.02c-.02,.05-.02,.11-.02,.2,0,.07,0,.16,.07,.2,.11,.11,.23,.12,.32,.14,.09,.02,.18,0,.25,0s.12,0,.2-.02l-.11,1.69c-1,.71-7.53,5.83-8.85,14.77v.04c.02,7.36,.16,44.03,.16,44.03,.02,1.79,.12,4.12,.94,6.33,.39,1.03,.85,1.83,1.44,2.45,.94,.94,2.26,1.31,3.61,1.31s2.59-.34,3.57-.82c.14,.25,.3,.46,.53,.66,.28,.25,.64,.39,.98,.5,.34,.09,.69,.12,1.05,.14h1.81c.37-.02,.71-.05,1.05-.14,.36-.11,.69-.25,.98-.5,.23-.2,.41-.41,.53-.66,.98,.48,2.29,.82,3.59,.82s2.67-.37,3.59-1.31c.59-.62,1.07-1.42,1.44-2.45,.82-2.2,.92-4.53,.94-6.31,0-.02,.14-36.69,.16-44.05v-.04c0-.12-.02-.25-.05-.37ZM18.02,6.25s-.11,.09-.2,.11c-.07,.02-.14,.04-.21,.04-.05,.02-.12,.04-.18,.04l-.02-.41c.11,.04,.21,.05,.3,.09,.09,.02,.16,.05,.21,.09,.04,.02,.05,.04,.09,.05Zm-9.54-.66c.04-.27,.07-.53,.12-.82,.02-.28,.07-.59,.11-.91,.02-.32,.05-.62,.11-.94,.02-.34,.04-.68,.07-1.01l.09-.98v-.04s.09-.05,.14-.07c.12-.07,.28-.09,.43-.14,.3-.07,.59-.11,.85-.16,.28-.04,.57-.05,.8-.09,.05,0,.09-.02,.12-.02,.53-.05,1.69-.11,3.23,.04,.18,.02,.39,.04,.62,.05,.25,.04,.51,.07,.8,.11,.28,.04,.55,.09,.85,.14,.14,.05,.3,.09,.43,.14,.05,.02,.12,.05,.16,.09v.02l.07,.99c.04,.32,.07,.66,.09,1,.04,.32,.07,.64,.11,.94,.04,.32,.07,.64,.11,.91,.04,.28,.07,.55,.12,.82,0,.05,.02,.09,.02,.14-.02,0-.05-.02-.09-.04-.16-.05-.34-.11-.52-.14-.16-.02-.32-.04-.5-.07-.16-.02-.32-.04-.48-.05-.09,0-.18,0-.27-.02-4.8-.48-7.13,.11-7.13,.11-.14,.02-.28,.05-.43,.11-.04,.02-.05,.04-.09,.04,.02-.05,.04-.11,.04-.14Zm.28,.73c-.05,0-.14-.02-.21-.05-.07-.02-.16-.05-.2-.11,.04-.02,.05-.04,.09-.04,.05-.04,.14-.07,.21-.11,.09-.04,.2-.05,.32-.07l-.02,.41c-.07,0-.11-.02-.2-.04Zm16.85,60.61c0,1.74-.12,4-.89,6.11-.37,.96-.78,1.69-1.31,2.24-1.48,1.51-4.44,1.37-6.49,.39,.02-.04,.02-.05,.04-.09l.37-.23c.21-.12,.37-.27,.57-.41,.18-.12,.34-.28,.52-.43,.16-.12,.3-.27,.43-.41,.12-.07,.25-.14,.37-.21,.16-.11,.34-.23,.52-.36,.04-.02,.07-.05,.12-.09v-.02c.12-.09,.23-.2,.34-.28,.14-.14,.3-.28,.44-.32,.07-.02,.12,.05,.16,.14s.05,.18,.07,.27c.02,.09,.02,.18,.07,.28,.05,.09,.11,.16,.2,.23,.14,.11,.34,.14,.52,.12,.16-.02,.32-.07,.46-.12,.3-.12,.57-.23,.82-.3,.23-.05,.44-.11,.62-.14,.18-.02,.32-.02,.41-.02-.09-.02-.23-.02-.41,0-.18,.02-.39,.07-.64,.12-.25,.07-.52,.16-.82,.27-.14,.07-.3,.11-.44,.11-.18,.02-.36,0-.48-.12-.05-.04-.12-.11-.16-.18-.02-.09-.04-.18-.05-.27-.02-.09-.04-.2-.07-.28-.02-.05-.04-.09-.09-.14-.02-.02-.04-.04-.05-.04-.04-.02-.09-.02-.11-.02-.12,.02-.18,.07-.27,.11,.07-.09,.12-.14,.16-.21,.11-.14,.2-.28,.27-.41,.09-.14,.16-.27,.21-.39,.07-.12,.12-.23,.18-.36,.05-.09,.09-.18,.11-.25,.02-.04,.04-.07,.04-.11-.02,.04-.04,.07-.05,.11-.04,.07-.07,.14-.12,.25-.05,.11-.12,.21-.18,.32-.07,.12-.14,.25-.21,.37-.11,.14-.2,.27-.28,.41-.07,.05-.11,.14-.16,.2-.07,.09-.11,.14-.18,.21l-.18,.2-.12,.12c-.05,.05-.11,.11-.18,.14-.18,.12-.32,.23-.51,.34,.2-.23,.37-.46,.53-.69,.23-.32,.44-.64,.59-.94,.16-.3,.3-.59,.39-.85,.11-.27,.2-.48,.23-.69,.07-.18,.11-.34,.12-.44-.04,.11-.09,.25-.16,.43-.07,.2-.16,.43-.27,.68-.12,.25-.27,.53-.44,.82-.16,.3-.37,.6-.6,.91-.23,.3-.5,.62-.8,.92-.16,.14-.28,.3-.46,.43-.18,.14-.34,.3-.52,.43-.2,.12-.35,.27-.55,.39l-.09,.05s.02-.02,.02-.04c.12-.28,.25-.55,.37-.8,.23-.53,.48-1.01,.69-1.47,.21-.44,.41-.87,.6-1.24,.16-.36,.32-.69,.44-.94,.14-.27,.23-.48,.3-.62,.05-.07,.05-.12,.07-.16-.02,.02-.05,.07-.09,.14-.09,.12-.21,.34-.37,.59-.14,.25-.32,.57-.55,.91-.2,.36-.43,.75-.68,1.19-.25,.44-.52,.91-.78,1.42-.14,.27-.28,.52-.41,.8-.09,.14-.14,.28-.21,.44-.05,.12-.12,.27-.2,.39-.14,.25-.32,.5-.53,.66-.21,.18-.48,.3-.78,.37-.28,.09-.62,.12-.92,.14h-1.79c-.32-.02-.64-.05-.94-.14-.3-.07-.55-.2-.78-.37-.21-.16-.39-.41-.53-.66-.07-.12-.14-.27-.2-.39-.07-.16-.12-.3-.2-.44-.14-.27-.28-.53-.41-.8-.27-.52-.53-.98-.78-1.42-.25-.44-.5-.84-.69-1.19-.21-.34-.39-.66-.55-.91-.14-.25-.28-.46-.36-.59-.05-.07-.07-.12-.11-.14,.02,.04,.05,.09,.07,.16,.07,.14,.18,.36,.3,.62,.12,.25,.28,.59,.44,.94,.2,.37,.39,.8,.62,1.24,.21,.46,.44,.94,.68,1.47,.12,.25,.25,.52,.37,.8,0,.02,.02,.02,.02,.04l-.09-.05c-.2-.12-.36-.27-.55-.39-.18-.12-.34-.28-.5-.43-.16-.12-.32-.28-.48-.43-.3-.3-.57-.62-.8-.92-.23-.3-.43-.6-.6-.91-.18-.28-.32-.57-.44-.82-.11-.25-.2-.48-.27-.68-.07-.18-.12-.32-.14-.43,.02,.11,.04,.27,.11,.44,.04,.21,.12,.43,.23,.69,.09,.27,.23,.55,.39,.85,.18,.3,.36,.62,.59,.94,.18,.25,.37,.5,.6,.75-.02-.02-.05-.04-.07-.05-.16-.11-.34-.21-.52-.34-.05-.04-.12-.09-.16-.14l-.14-.12-.18-.2c-.05-.07-.11-.12-.18-.21-.04-.05-.09-.14-.14-.2-.11-.14-.2-.27-.27-.41-.11-.12-.18-.25-.25-.37-.05-.11-.12-.21-.16-.32-.07-.11-.09-.18-.14-.25l-.05-.11s.02,.07,.04,.11c.04,.07,.07,.16,.11,.25,.05,.12,.11,.23,.18,.36,.05,.12,.12,.25,.21,.39,.07,.12,.18,.27,.27,.41,.05,.07,.11,.12,.16,.21-.09-.04-.14-.09-.25-.11-.04,0-.07,0-.11,.02-.02,0-.05,.02-.07,.04-.05,.05-.05,.09-.07,.14-.05,.09-.07,.2-.09,.28-.02,.09-.02,.18-.05,.27-.04,.07-.09,.14-.16,.18-.12,.12-.3,.14-.44,.12-.18,0-.34-.04-.48-.11-.28-.11-.55-.2-.8-.27-.25-.05-.46-.11-.64-.12-.2-.02-.34-.02-.43,0,.09,0,.23,0,.43,.02,.16,.04,.39,.09,.64,.14,.23,.07,.5,.18,.78,.3,.14,.05,.3,.11,.48,.12,.16,.02,.37-.02,.52-.12,.07-.07,.14-.14,.18-.23,.05-.11,.07-.2,.09-.28,0-.09,.02-.18,.05-.27s.09-.16,.16-.14c.16,.04,.3,.18,.44,.32,.11,.09,.23,.2,.36,.28v.02s.07,.07,.12,.09c.16,.12,.34,.25,.52,.36,.12,.07,.25,.14,.37,.21,.12,.14,.27,.28,.41,.41,.18,.14,.34,.3,.52,.43,.2,.14,.37,.28,.57,.41l.37,.23s.04,.05,.04,.09c-2.04,.98-5.01,1.12-6.49-.39-.52-.55-.94-1.28-1.3-2.24-.78-2.11-.87-4.37-.89-6.11,0-.05-.04-7.73-.09-16.69v-1.58c-.04-10.31-.07-21.75-.09-24.91v-.84c.05-.27,.07-.53,.14-.78,1.65-8.83,8.49-13.59,8.56-13.63l.12-.09,.07-1.4h.46c.11,.02,.2,.02,.28,.02h1.28c.12,0,.27-.02,.39-.02h.28c.11,0,.16-.02,.21-.02h.05s-.02,0-.05-.02h-.21c-.07-.02-.18-.02-.28-.02-.12-.02-.27-.02-.39-.04-.16,0-.32-.02-.48-.02-.16-.02-.34-.02-.52-.02-.09,0-.18-.02-.28-.02-.09,0-.18,0-.27-.02-.11,0-.2,0-.28-.02h-.18l.02-.32,.37,.02h1.76c.2-.02,.39-.02,.59-.02,.18-.02,.34-.02,.5-.02,.16-.02,.28-.02,.39-.04s.18-.02,.25-.04c-.07,0-.14,0-.25-.02h-.39c-.16,0-.32,0-.5-.02-.2,0-.39,0-.59-.02h-1.03c-.12-.02-.25-.02-.37-.02-.11,0-.23,0-.36-.02h-.36l.04-.52c.18-.04,.37-.07,.57-.09,.27-.02,.55-.05,.8-.07,.11,0,.2-.02,.32-.02,.53-.04,1.08-.04,1.64-.02h.11c.07,0,.2,0,.34,.02,.16,0,.34,.02,.53,.02,.16,.02,.32,.02,.48,.04,1,.05,1.88,.16,2.42,.23l.02,.43h-.18c-.11,0-.18,.02-.27,.02h-.75c-.14,0-.3,.02-.44,.02-.12,.02-.25,.02-.36,.02-.11,.02-.21,.02-.3,.04-.07,0-.14,0-.18,.02,.04,.02,.11,.02,.18,.02,.09,.02,.2,.02,.28,.02,.12,0,.25,.02,.37,.02,.14,0,.3,.02,.44,.02,.16,.02,.32,.02,.5,.02,.07,0,.16,0,.25,.02h.46l.02,.27h-.05c-.14,0-.27,.02-.39,.02s-.27,.02-.39,.02-.25,.02-.37,.02c-.25,0-.48,0-.71,.02h-.62c-.2,.02-.37,.02-.53,.02h-.43c-.11,0-.2-.02-.27-.02h-.09s.04,.02,.09,.02c.07,.02,.16,.02,.27,.04,.11,.02,.25,.04,.41,.05,.18,0,.34,.02,.55,.02,.2,.02,.41,.02,.62,.04h1.08c.14-.02,.27-.02,.39-.02s.25-.02,.39-.02h.07l.07,1.39,.12,.09c.09,.04,6.86,4.74,8.56,13.52,0,.02,0,.05,.02,.07,.04,.27,.09,.53,.12,.82v.76c-.02,3.11-.05,14.78-.11,25.21v1.35c-.04,8.96-.05,16.63-.05,16.69Z"/></g></g></svg>