<?xml version="1.0" encoding="UTF-8"?><svg id="Layer_2" xmlns="http://www.w3.org/2000/svg" viewBox="0 0 57.47 125.32"><defs><style>.cls-1{fill:#ee2a7b;}.cls-2{fill:#fff;}.cls-3{fill:#8a1e41;}.cls-4{fill:#231f20;font-size:10px;}.cls-5{letter-spacing:0em;}</style></defs><g id="Red_Headed_Slut"><path d="M34.08,39.61s-.01,0-.01,0h.03s0,0,0,0h-.01Z"/><polygon points="34.1 39.61 34.12 39.61 34.12 39.61 34.12 39.61 34.1 39.61 34.1 39.61"/><g><path class="cls-1" d="M54.96,67.41l-.02,.9-.19,34.49c-.44,7.71-1.06,13.94-1.91,15.38-.14,.27-.78,1.06-.99,1.24-.32-.09-.66-.18-.97-.27-.78-.21-1.54-.46-2.29-.76-.74-.27-1.44-.6-2.13-.96-.67-.37-1.35-.76-1.91-1.22-.32-.21-.58-.46-.85-.71l-.16-.14c-.07-.05-.12-.14-.21-.14l-.43-.02-.57-.02c-.74-.02-1.47-.04-2.18-.04-1.42-.04-2.76-.05-4-.07-1.22,0-2.36-.02-3.37-.02h-3.17c-.46-.12-.69-.04-.74,0h-.37c-.37,.02-.58,.02-.58,.02,0,0,.21,.02,.58,.05,.11,0,.21,.02,.34,.04,.28,1.47,.3,2.44,.18,3.1-.2,1.06-.71,1.19-.76,1.19s-1.22-.28-.71-3.65c.04-.21,.07-.43,.11-.66,.02-.02,.02-.04,.02-.07,.12,0,.23-.02,.32-.02,.39-.04,.6-.05,.6-.05,0,0-.21,0-.6-.02h-4.27c-1.01,0-2.14,.02-3.38,.02-1.24,.02-2.57,.04-3.99,.05-.71,.02-1.43,.04-2.18,.05l-.57,.02h-.43c-.09,.02-.14,.11-.21,.16l-.16,.14c-.27,.25-.55,.5-.85,.71-.58,.46-1.24,.83-1.91,1.22-.69,.34-1.4,.69-2.14,.96-.73,.28-1.49,.55-2.27,.76-.09,.04-.2,.05-.3,.07-.09-.07-.53-.71-.69-.97-.85-1.43-1.47-7.65-1.91-15.36l-.18-34.49-.04-.92c1.01,.09,3.38,.27,4.87,.09,.09,0,.18-.02,.27-.02,.23-.28,2.36-.81,14.9-.87,0,0-14.83-.12-19.59-.48,.37-.05,.76-.09,1.15-.11,.89-.04,1.77-.04,2.64,0,.46,.02,.85,.05,1.36,.05,.43,0,.87-.02,1.31-.04,.87-.02,1.72-.05,2.57-.07,1.7-.05,3.33-.11,4.89-.16,1.54-.05,3.01-.11,4.38-.16,1.35-.05,2.59-.11,3.68-.14,1.1-.05,2.06-.11,2.85-.14,.3-.02,.57-.02,.83-.04,.3,.02,.67,.04,1.06,.05,.8,.04,1.75,.09,2.85,.12,1.12,.05,2.36,.11,3.7,.16,1.35,.05,2.82,.11,4.38,.16,1.54,.05,3.19,.11,4.87,.16,.85,.02,1.7,.05,2.59,.07,.43,.02,.87,.02,1.31,.04,.5,0,.89-.04,1.35-.05,.89-.04,1.77-.05,2.66,0,.39,0,.76,.05,1.15,.09-4.78,.37-19.59,.5-19.59,.5,12.52,.05,14.65,.57,14.88,.85,.09,.02,.18,.02,.28,.04,1.49,.18,3.84,0,4.85-.11Z"/><rect class="cls-2" x="2.17" y="67.65" width="53.39" height="28.46"/><path class="cls-2" d="M22.22,33.87l-.11,.05-1.22,.39-1.05,.39-.66,.27c-.16,.07-.32,.14-.46,.21-.64,.28-1.24,.58-1.82,.9-.57,.34-1.12,.66-1.61,1.01-.5,.34-.94,.69-1.33,1.05-.78,.71-1.29,1.42-1.63,1.95-.14,.27-.23,.5-.32,.64-.04,.09-.05,.14-.09,.18,0-.04,.04-.09,.05-.18,.05-.16,.12-.41,.25-.69,.27-.57,.71-1.38,1.47-2.16,.37-.39,.8-.8,1.29-1.19,.5-.39,1.05-.76,1.61-1.12,.58-.34,1.2-.67,1.84-.97,.16-.07,.34-.16,.5-.23l.25-.11,.09-.04v-.02l-.48,.02c-.67,.02-1.31,.14-1.93,.34-.3,.09-.58,.23-.89,.34-.27,.16-.53,.3-.8,.44-.5,.32-.96,.67-1.35,1.01-.78,.71-1.33,1.42-1.7,1.91-.35,.5-.53,.81-.53,.81,0,0,.12-.34,.43-.89s.8-1.31,1.54-2.11c.39-.39,.83-.78,1.35-1.15,.27-.18,.53-.34,.81-.51,.32-.14,.62-.3,.94-.41,.66-.23,1.36-.39,2.09-.44h.58c.16-.02,.34,0,.48,.02l.48,.05,1.91,.23Z"/><path class="cls-2" d="M19.05,18.67s-.21,.27-.57,.76c-.34,.5-.81,1.2-1.36,2.09-.28,.43-.57,.92-.87,1.42-.3,.51-.58,1.06-.9,1.63-.27,.58-.6,1.15-.89,1.77-.28,.6-.58,1.22-.83,1.86l-.39,.96c-.12,.32-.23,.64-.35,.96-.25,.62-.44,1.26-.62,1.86-.21,.62-.37,1.22-.51,1.79-.07,.28-.14,.57-.21,.83-.05,.27-.11,.53-.16,.78-.11,.51-.19,.97-.27,1.38-.07,.43-.11,.78-.16,1.08-.09,.6-.14,.94-.14,.94,0,0,.02-.35,.02-.94,.02-.32,.02-.67,.04-1.1,.04-.43,.09-.9,.16-1.42,.02-.27,.05-.53,.09-.81,.05-.27,.12-.55,.18-.85,.11-.58,.23-1.2,.43-1.82,.16-.64,.34-1.29,.58-1.93,.11-.32,.23-.66,.34-.97l.41-.97c.27-.64,.57-1.28,.87-1.88,.28-.62,.64-1.2,.94-1.79,.35-.55,.67-1.1,.99-1.59,.34-.5,.66-.96,.97-1.38,.6-.83,1.17-1.51,1.58-1.95,.39-.46,.66-.69,.66-.69Z"/><path class="cls-2" d="M13.38,21.58c-.09,.12-.44,.67-.97,1.59-.6,1.06-1.42,2.59-2.23,4.5-.39,.94-.8,1.98-1.19,3.1-.37,1.12-.73,2.32-1.04,3.56-.32,1.26-.58,2.55-.78,3.88s-.32,2.69-.34,4.06c-.05,1.36,0,2.75,.04,4.11s.05,2.73-.02,4.06-.25,2.62-.55,3.81c-.28,1.19-.66,2.27-.97,3.26-.64,1.97-1.01,3.65-1.05,4.85-.02,.3-.02,.57,0,.81,0,.23,.02,.43,.04,.58,.05,.32,.07,.5,.07,.5,0,0-.05-.16-.14-.48-.05-.16-.09-.35-.12-.6-.04-.23-.07-.5-.09-.81-.12-1.22,.09-3.01,.58-5.05,.23-1.03,.51-2.11,.74-3.26,.21-1.15,.3-2.37,.34-3.65,.02-1.28-.04-2.62-.09-3.99-.05-1.36-.11-2.76-.07-4.18s.18-2.83,.39-4.22c.23-1.36,.55-2.71,.9-3.99,.37-1.26,.82-2.46,1.26-3.6,.44-1.12,.94-2.14,1.43-3.08,.96-1.88,1.95-3.33,2.68-4.32,.64-.85,1.08-1.35,1.19-1.45Z"/><path class="cls-2" d="M8.55,27.14s-.11,.25-.3,.66c-.18,.41-.43,1.01-.71,1.72-.14,.35-.3,.76-.46,1.17-.16,.41-.32,.85-.48,1.29-.16,.46-.32,.92-.5,1.4-.14,.5-.32,.97-.46,1.47-.14,.5-.3,.97-.41,1.47-.12,.5-.27,.97-.35,1.43-.11,.48-.21,.92-.28,1.36-.07,.43-.18,.83-.21,1.22-.05,.37-.11,.73-.16,1.05-.02,.3-.05,.58-.07,.81-.05,.44-.07,.71-.07,.71,0,0-.02-.27-.02-.73-.02-.21-.02-.5-.02-.81,.02-.32,.04-.67,.05-1.06,.02-.39,.09-.8,.14-1.24,.04-.44,.12-.92,.21-1.4,.09-.48,.21-.96,.32-1.47,.12-.5,.28-.99,.41-1.49,.16-.5,.32-.99,.48-1.47,.18-.48,.35-.96,.53-1.4,.19-.46,.37-.89,.55-1.29s.37-.8,.55-1.13c.34-.71,.66-1.28,.89-1.67,.21-.39,.37-.6,.37-.6Z"/><path class="cls-2" d="M45.45,40.73c.05,.16,.07,.25,.07,.25,0,0-.04-.07-.11-.23-.07-.14-.16-.37-.32-.64-.32-.53-.83-1.26-1.61-1.95-.41-.35-.85-.71-1.35-1.06-.5-.34-1.03-.67-1.61-.99-.57-.32-1.19-.62-1.81-.9-.16-.07-.32-.16-.48-.21l-.64-.27-1.06-.39-1.2-.41-.12-.04,1.91-.23,.5-.05c.14-.04,.3-.04,.48-.02h.57c.73,.04,1.44,.19,2.09,.43,.34,.12,.64,.28,.94,.43,.28,.16,.57,.34,.83,.51,.51,.35,.96,.74,1.33,1.15,.74,.78,1.24,1.56,1.54,2.11,.3,.55,.43,.89,.43,.89,0,0-.18-.32-.53-.81-.37-.51-.92-1.2-1.7-1.91-.39-.35-.85-.69-1.35-1.01-.25-.16-.53-.3-.8-.44-.28-.11-.58-.25-.89-.34-.6-.19-1.26-.32-1.93-.35h-.48v.02l.11,.04,.23,.11c.18,.07,.34,.16,.5,.23,.64,.3,1.26,.64,1.84,.97,.58,.35,1.12,.73,1.61,1.12,.5,.37,.92,.78,1.31,1.17,.74,.8,1.2,1.59,1.47,2.16,.12,.3,.18,.53,.23,.69Z"/><path class="cls-2" d="M46.62,38.8s-.05-.35-.14-.94c-.04-.3-.09-.67-.14-1.08-.09-.41-.18-.87-.28-1.38-.05-.25-.11-.51-.16-.78-.07-.28-.14-.55-.21-.83-.14-.58-.3-1.17-.5-1.79-.19-.6-.39-1.24-.64-1.88-.11-.32-.23-.64-.34-.96l-.41-.94c-.25-.64-.55-1.26-.83-1.86-.28-.62-.6-1.2-.89-1.77-.32-.57-.6-1.12-.9-1.63-.3-.51-.58-.99-.87-1.42-.53-.89-1.03-1.59-1.36-2.09-.27-.37-.44-.62-.51-.73,.09,.07,.3,.3,.62,.64,.39,.46,.96,1.12,1.58,1.97,.3,.41,.62,.89,.96,1.38,.34,.5,.66,1.05,.99,1.59,.3,.58,.66,1.15,.94,1.77,.3,.62,.62,1.24,.87,1.9l.41,.96c.11,.34,.23,.66,.34,.99,.25,.64,.43,1.29,.6,1.91,.18,.64,.3,1.26,.43,1.84,.05,.28,.11,.57,.16,.85,.05,.28,.07,.55,.11,.81,.05,.51,.12,.99,.14,1.4,.02,.43,.04,.8,.04,1.1,.02,.6,.02,.96,.02,.96Z"/><path class="cls-2" d="M53.42,62.38c-.04,.3-.05,.58-.11,.81-.04,.23-.07,.44-.12,.6-.09,.3-.12,.48-.12,.48,0,0,.02-.18,.05-.5,.02-.16,.04-.37,.04-.6,.02-.23,.02-.5,0-.8-.02-1.2-.41-2.89-1.05-4.85-.3-.99-.67-2.07-.97-3.26-.3-1.19-.46-2.48-.53-3.81-.07-1.33-.07-2.69-.04-4.06,.04-1.38,.09-2.76,.05-4.11-.04-1.36-.16-2.73-.35-4.06-.19-1.33-.46-2.64-.76-3.88-.32-1.24-.67-2.44-1.06-3.56-.39-1.12-.78-2.16-1.19-3.12-.81-1.9-1.63-3.42-2.23-4.48-.53-.92-.89-1.47-.96-1.59,.11,.11,.53,.6,1.17,1.45,.73,.99,1.72,2.44,2.69,4.32,.48,.92,.97,1.97,1.42,3.08,.46,1.12,.89,2.32,1.26,3.6,.37,1.28,.67,2.6,.9,3.99,.21,1.38,.35,2.8,.41,4.22,.04,1.42-.04,2.82-.09,4.18-.05,1.36-.11,2.69-.09,3.99,.04,1.28,.12,2.5,.35,3.63,.21,1.15,.5,2.25,.74,3.28,.48,2.04,.71,3.81,.58,5.05Z"/><path class="cls-2" d="M53.38,41.38c.02,.32,0,.58,0,.81-.02,.44-.04,.71-.04,.71,0,0-.02-.27-.07-.71-.02-.23-.04-.5-.07-.8-.05-.32-.09-.67-.14-1.05-.05-.39-.14-.8-.21-1.22-.07-.44-.19-.9-.28-1.36-.11-.48-.23-.96-.37-1.43-.11-.5-.27-.99-.41-1.47-.14-.5-.3-.99-.46-1.47-.16-.48-.32-.94-.48-1.4-.18-.46-.32-.9-.5-1.31-.16-.41-.3-.8-.44-1.15-.3-.73-.55-1.31-.73-1.74-.12-.3-.23-.51-.27-.6,.05,.09,.18,.27,.35,.57,.23,.39,.53,.96,.89,1.65,.16,.35,.35,.73,.53,1.15,.18,.39,.37,.83,.55,1.28,.18,.46,.35,.92,.53,1.4,.16,.5,.34,.99,.48,1.49,.14,.5,.3,.99,.41,1.49,.12,.5,.25,.99,.32,1.47,.09,.48,.18,.94,.23,1.38s.11,.87,.12,1.26c.02,.39,.04,.74,.05,1.06Z"/><path class="cls-1" d="M39,8.79c-.21,.11-.57,.19-.87,.25-.39,.07-.78,.09-1.15,.14-.78,.05-1.52,.09-2.23,.11-.69,0-1.36,.02-1.98,.02h-8.13c-.62,0-1.29-.02-1.98-.02-.71-.02-1.45-.05-2.23-.11-.37-.05-.76-.07-1.13-.14-.23-.04-.48-.09-.67-.16-.07-.04-.12-.05-.18-.09l.48-.07c.16-.04,.32-.05,.48-.07h.74c.18,0,.35-.02,.55-.02,.73,0,1.43-.04,2.11-.07,.67-.02,1.31-.07,1.9-.12,1.19-.07,2.16-.19,2.83-.28,.69-.11,1.08-.18,1.08-.18h-.07s.04-.02,.04-.02c0,0-.41-.02-1.08-.07-.69-.04-1.67-.11-2.83-.16-.58-.04-1.22-.07-1.9-.11-.67-.02-1.38-.05-2.11-.09l-.23-.02h-.12v-.09c-.02-.05-.04-.12-.05-.18-.02-.05-.04-.11-.05-.16,.35,.05,.69,.07,1.03,.11,.35,.02,.69,.02,1.03,.04,.67,.04,1.33,.04,1.95,.02,.62,0,1.2-.02,1.74-.04,.53-.04,1.03-.05,1.47-.07,.35-.04,.67-.05,.96-.07,.12,0,.28,.02,.46,.04,.32,.02,.69,.05,1.13,.07,.44,.04,.94,.05,1.45,.07,.55,.04,1.13,.04,1.74,.05,.62,0,1.28,0,1.95-.02,.34-.02,.69-.02,1.03-.05,.35-.02,.71-.04,1.06-.09h.05s-.02,.05-.04,.09c-.02,.07-.04,.12-.04,.18l-.02,.05,.02,.04s-.02,0-.04,.02h-.14l-.23,.02c-.73,.04-1.43,.07-2.11,.09-.67,.04-1.29,.07-1.9,.11-1.15,.05-2.14,.12-2.83,.16-.67,.05-1.08,.07-1.08,.07,0,0,.02,.02,.05,.02,0,0,.37,.07,1.06,.18,.67,.09,1.67,.21,2.83,.28,.58,.05,1.22,.11,1.9,.12,.67,.04,1.38,.07,2.13,.07,.18,0,.35,.02,.53,.02h.74c.16,.02,.32,.04,.48,.07l.44,.07Z"/><path class="cls-1" d="M55.46,60.27c-2.82-6.01-2.27-12.03-2.25-12.28l.02-.18,.12-.12c.07-.07,.67-.8,.16-1.63-.6-.96-.07-1.75,.32-2.34,.19-.32,.41-.62,.43-.9,.05-.92-.12-1.95-.28-2.92l-.05-.28c-.35-2.09-.96-4.27-1.82-6.64-1.2-3.26-2.76-6.94-5.14-9.76-.18-.19-.34-.37-.5-.53-2.44-2.3-4.85-5.16-4.87-5.19l-.07-.11c-1.08-2.21-2.75-3.72-3.67-4.45-.05,.02-.09,.04-.12,.05-.28,.11-.57,.16-.83,.21-.28,.05-.55,.09-.81,.11-.27,.04-.53,.05-.8,.07-.51,.04-1.03,.04-1.51,.04s-.92,0-1.35-.02c-.41-.02-.78-.04-1.13-.05-.32-.02-.62-.04-.87-.05-.25-.02-.43-.04-.57-.04-.12-.02-.19-.02-.19-.02,0,0,.07-.02,.21-.02,.12,0,.32,0,.55-.02,.25,0,.55-.02,.87-.02,.35-.02,.73-.02,1.13-.04,.43-.02,.87-.04,1.35-.05,.46-.04,.96-.07,1.47-.11,.23-.04,.46-.04,.67-.07,.96-.25,1.05-.53,1.05-.58l-.04-.04v-2.5h-.85c-.44,0-.87,0-1.29-.02-.71-.02-1.38-.05-2.02-.09-.6-.04-1.19-.09-1.7-.12-.5-.05-.92-.09-1.29-.12-.37-.04-.66-.07-.85-.09-.07-.02-.14-.02-.18-.04-.05,.02-.11,.02-.19,.04-.19,.02-.48,.05-.83,.09-.37,.04-.81,.07-1.31,.12-.51,.04-1.08,.09-1.7,.12-.62,.04-1.29,.07-2.02,.09-.41,.02-.85,.02-1.29,.02h-.89v2.52l-.04,.02c.04,.09,.18,.35,1.05,.57,.23,.04,.46,.05,.67,.07,.51,.05,1.01,.07,1.49,.11,.46,.02,.92,.05,1.33,.05,.41,.02,.78,.04,1.13,.04,.32,.02,.62,.02,.87,.02,.25,.02,.43,.02,.57,.02,.12,.02,.19,.02,.19,.02,0,0-.07,0-.19,.02-.12,0-.32,.02-.57,.04s-.55,.04-.87,.07c-.35,.02-.73,.02-1.13,.04-.41,.04-.87,.02-1.35,.04-.48-.02-.97-.02-1.51-.05-.25-.02-.51-.02-.8-.05-.27-.04-.53-.07-.81-.12-.27-.04-.55-.11-.83-.21-.02-.02-.05-.04-.09-.04-.92,.71-2.6,2.23-3.7,4.46l-.07,.11s-2.43,2.89-4.87,5.19c-.16,.16-.32,.32-.5,.53-2.37,2.8-3.93,6.5-5.14,9.76-.87,2.37-1.47,4.54-1.82,6.64l-.04,.28c-.18,.97-.35,1.98-.28,2.92,.02,.27,.21,.58,.43,.9,.37,.58,.9,1.38,.3,2.34-.51,.83,.11,1.56,.18,1.63l.11,.12,.02,.18c.02,.25,.57,6.27-2.25,12.28-.07,.43-.46,3.06,.43,5.17l.02,.02c.09-.02,.18-.04,.27-.04,.46-.07,.9-.11,1.36-.12,.92-.04,1.82-.02,2.71,.02,.44,.02,.92,.05,1.31,.07,.44-.02,.87-.02,1.31-.04,.87,0,1.74-.02,2.57-.04,1.7-.02,3.33-.04,4.89-.05s3.01-.04,4.38-.04c1.35-.02,2.59-.02,3.7-.02h2.85c.78,0,1.4,.02,1.82,.02h6.63c1.36,.02,2.83,.04,4.38,.04,1.56,.04,3.19,.05,4.89,.07,.85,.02,1.7,.02,2.57,.04,.44,0,.89,.02,1.33,.02,.37,0,.87-.04,1.29-.05,.9-.05,1.81-.07,2.71-.04,.46,.02,.92,.07,1.38,.12,.07,.02,.16,.04,.25,.05l.02-.05c.89-2.11,.5-4.75,.43-5.17Zm-6.18-32.51c.23,.39,.53,.96,.89,1.65,.16,.35,.35,.73,.53,1.15,.18,.39,.37,.83,.55,1.28,.18,.46,.35,.92,.53,1.4,.16,.5,.34,.99,.48,1.49s.3,.99,.41,1.49c.12,.5,.25,.99,.32,1.47,.09,.48,.18,.94,.23,1.38,.05,.44,.11,.87,.12,1.26,.02,.39,.04,.74,.05,1.06,.02,.32,0,.58,0,.81-.02,.44-.04,.71-.04,.71,0,0-.02-.27-.07-.71-.02-.23-.04-.5-.07-.8-.05-.32-.09-.67-.14-1.05-.05-.39-.14-.8-.21-1.22-.07-.44-.19-.9-.28-1.36-.11-.48-.23-.96-.37-1.43-.11-.5-.27-.99-.41-1.47-.14-.5-.3-.99-.46-1.47-.16-.48-.32-.94-.48-1.4-.18-.46-.32-.9-.5-1.31-.16-.41-.3-.8-.44-1.15-.3-.73-.55-1.31-.73-1.74-.12-.3-.23-.51-.27-.6,.05,.09,.18,.27,.35,.57Zm-10.65,1.28c.37,.16,.62,.28,.71,.34-.11-.04-.37-.12-.74-.23-.51-.12-1.22-.32-2.11-.48-.44-.07-.92-.16-1.42-.23-.51-.05-1.05-.12-1.59-.18-.11,0-.19,0-.28-.02,.28,.07,.57,.14,.83,.21,.89,.21,1.59,.48,2.09,.64,.35,.14,.62,.23,.73,.27-.11-.02-.37-.09-.76-.16-.51-.11-1.24-.28-2.13-.43-.44-.07-.9-.19-1.42-.25-.51-.07-1.05-.14-1.59-.21-.55-.04-1.13-.09-1.72-.14-.11,0-.23,0-.35-.02-.21,.02-.44,.04-.66,.04-.58,.05-1.15,.09-1.72,.14-.55,.07-1.08,.14-1.59,.21-.5,.05-.97,.16-1.42,.23-.89,.14-1.61,.34-2.13,.44-.37,.09-.64,.14-.74,.16,.11-.04,.35-.14,.71-.27,.51-.18,1.2-.44,2.09-.64,.32-.09,.66-.18,1.03-.25-.16,0-.32,.02-.46,.04-.57,.04-1.1,.11-1.59,.18-.51,.07-.99,.14-1.43,.23-.87,.16-1.59,.34-2.11,.46-.37,.11-.62,.19-.73,.23,.09-.05,.34-.18,.69-.32,.5-.19,1.2-.46,2.07-.69,.44-.12,.92-.23,1.43-.34,.51-.09,1.05-.19,1.61-.25,.55-.09,1.13-.12,1.74-.16,.58-.05,1.2-.04,1.81-.05,.46,.02,.92,.04,1.38,.07,.37-.02,.74-.05,1.13-.05,.6,.02,1.2,0,1.79,.05,.6,.04,1.19,.07,1.75,.16,.55,.05,1.1,.16,1.61,.25,.5,.11,.97,.21,1.42,.34,.87,.23,1.58,.48,2.07,.67Zm-.37,5.24l.23,.11c.18,.07,.34,.16,.5,.23,.64,.3,1.26,.64,1.84,.97,.58,.35,1.12,.73,1.61,1.12,.5,.37,.92,.78,1.31,1.17,.74,.8,1.2,1.59,1.47,2.16,.12,.3,.18,.53,.23,.69,.02,.09,.05,.14,.05,.18-.04-.04-.05-.09-.09-.16-.07-.14-.16-.37-.32-.64-.32-.53-.83-1.26-1.61-1.95-.41-.35-.85-.71-1.35-1.06-.5-.34-1.03-.67-1.61-.99-.57-.32-1.19-.62-1.81-.9-.16-.07-.32-.16-.48-.21l-.64-.27-1.06-.39-1.2-.41-.12-.04,1.91-.23,.5-.05c.14-.04,.3-.04,.48-.02h.57c.73,.04,1.43,.19,2.09,.43,.34,.12,.64,.28,.94,.43,.28,.16,.57,.34,.83,.51,.51,.35,.96,.74,1.33,1.15,.74,.78,1.24,1.56,1.54,2.11,.3,.55,.43,.89,.43,.89,0,0-.18-.32-.53-.81-.37-.51-.92-1.2-1.7-1.91-.39-.35-.85-.69-1.35-1.01-.25-.16-.53-.3-.8-.44-.28-.11-.58-.25-.89-.34-.6-.19-1.26-.32-1.93-.35h-.48v.02l.11,.04Zm-19.45-.05c-.67,.02-1.31,.14-1.93,.34-.3,.09-.58,.23-.89,.34-.27,.16-.53,.3-.8,.44-.5,.32-.96,.67-1.35,1.01-.78,.71-1.33,1.42-1.7,1.91-.35,.5-.53,.81-.53,.81,0,0,.12-.34,.43-.89s.8-1.31,1.54-2.11c.39-.39,.83-.78,1.35-1.15,.27-.18,.53-.34,.81-.51,.32-.14,.62-.3,.94-.41,.66-.23,1.36-.39,2.09-.44h.58c.16-.02,.34,0,.48,.02l.48,.05,1.91,.23-.11,.05-1.22,.39-1.05,.39-.66,.27c-.16,.07-.32,.14-.46,.21-.64,.28-1.24,.58-1.82,.9-.57,.34-1.12,.66-1.61,1.01-.5,.34-.94,.69-1.33,1.05-.78,.71-1.29,1.42-1.63,1.95-.14,.27-.23,.5-.32,.64-.04,.09-.05,.14-.09,.18,0-.04,.04-.09,.05-.18,.05-.16,.12-.41,.25-.69,.27-.57,.71-1.38,1.47-2.16,.37-.39,.8-.8,1.29-1.19,.5-.39,1.05-.76,1.61-1.12,.58-.34,1.2-.67,1.84-.97,.16-.07,.34-.16,.5-.23l.25-.11,.09-.04v-.02l-.48,.02Zm.99-12.65c.09-.16,.21-.41,.37-.71,.16-.32,.34-.69,.57-1.1,.21-.44,.48-.92,.74-1.43,.28-.53,.57-1.1,.89-1.68,.16-.3,.32-.6,.5-.92l.07-.12c.04-.09,.12-.11,.14-.12,.09-.05,.16-.09,.25-.14,.16-.07,.32-.12,.5-.19,.32-.11,.67-.19,1.03-.27,.34-.07,.71-.14,1.06-.18,.35-.04,.73-.07,1.08-.09,.3-.02,.58-.02,.89-.02,.51-.02,.99-.02,1.47,.02,.14,0,.3,0,.46,.02,.35,.02,.73,.04,1.08,.09,.35,.04,.73,.09,1.06,.16,.35,.07,.69,.16,1.03,.28,.18,.05,.34,.12,.5,.19,.09,.04,.16,.09,.25,.12,.02,.04,.11,.05,.14,.12l.07,.14c.18,.32,.34,.62,.5,.92,.32,.58,.6,1.15,.89,1.68,.27,.51,.53,.99,.74,1.42s.41,.8,.57,1.12c.16,.3,.28,.55,.37,.71,.02,.05,.04,.09,.05,.11-.04-.02-.05-.05-.07-.09-.11-.16-.23-.39-.41-.69-.18-.3-.39-.66-.64-1.06-.25-.41-.51-.89-.81-1.38-.28-.51-.6-1.06-.94-1.65-.18-.28-.34-.58-.51-.9l-.05-.09c-1.79-.57-3.44-.78-4.89-.81-3.33-.07-5.54,.8-5.54,.8l-.05,.11c-.18,.3-.34,.6-.51,.9-.34,.57-.66,1.12-.94,1.63-.3,.51-.57,.97-.81,1.4-.25,.39-.46,.76-.64,1.06-.18,.28-.3,.51-.41,.67-.04,.05-.05,.09-.07,.11,.02-.04,.04-.09,.05-.12Zm-.12,2.69c.11-.21,.28-.53,.51-.96,.16-.3,.37-.67,.6-1.08l.21-.35v-.02l.02-.02v-.02s.07-.09,.09-.14l.05-.07,.05-.09,.25-.43h.14l4.52,.02h.09c.51-.02,1.05-.02,1.58-.04,.14,0,.27,0,.39-.02,.28,.02,.55,.02,.83,.04,.37,0,.73,0,1.1,.02,.53,0,1.05,.02,1.54,.02h1.88c.16,0,.34,.02,.48,.02,.48-.02,.92-.02,1.29-.04,.16,.21,.21,.3,.28,.43,.07,.12,.14,.23,.21,.34,.05,.09,.09,.18,.14,.27,.27,.44,.5,.85,.67,1.19,.23,.41,.41,.73,.51,.96,.04,.09,.07,.14,.11,.19-.05-.04-.09-.11-.12-.18-.14-.21-.34-.51-.58-.9-.19-.34-.46-.74-.76-1.19-4.84-.28-13.25-.04-14.74,.02-.3,.43-.55,.83-.76,1.15-.23,.39-.43,.69-.57,.9-.02,.04-.04,.07-.07,.11,.02-.04,.04-.07,.05-.12ZM4.23,41.38c-.02,.3-.05,.58-.07,.81-.05,.44-.07,.71-.07,.71,0,0-.02-.27-.02-.73-.02-.21-.02-.5-.02-.81,.02-.32,.04-.67,.05-1.06,.02-.39,.09-.8,.14-1.24,.04-.44,.12-.92,.21-1.4,.09-.48,.21-.96,.32-1.47,.12-.5,.28-.99,.41-1.49,.16-.5,.32-.99,.48-1.47,.18-.48,.35-.96,.53-1.4,.19-.46,.37-.89,.55-1.29,.18-.41,.37-.8,.55-1.13,.34-.71,.66-1.28,.89-1.67,.21-.39,.37-.6,.37-.6,0,0-.11,.25-.3,.66-.18,.41-.43,1.01-.71,1.72-.14,.35-.3,.76-.46,1.17-.16,.41-.32,.85-.48,1.29-.16,.46-.32,.92-.5,1.4-.14,.5-.32,.97-.46,1.47-.14,.5-.3,.97-.41,1.47-.12,.5-.27,.97-.35,1.43-.11,.48-.21,.92-.28,1.36-.07,.43-.18,.83-.21,1.22-.05,.37-.11,.73-.16,1.05Zm4.77-10.61c-.37,1.12-.73,2.32-1.05,3.56-.32,1.26-.58,2.55-.78,3.88s-.32,2.69-.34,4.06c-.05,1.36,0,2.75,.04,4.11,.04,1.36,.05,2.73-.02,4.06s-.25,2.62-.55,3.81c-.28,1.19-.66,2.27-.97,3.26-.64,1.97-1.01,3.65-1.05,4.85-.02,.3-.02,.57,0,.81,0,.23,.02,.43,.04,.58,.05,.32,.07,.5,.07,.5,0,0-.05-.16-.14-.48-.05-.16-.09-.35-.12-.6-.04-.23-.07-.5-.09-.81-.12-1.22,.09-3.01,.58-5.05,.23-1.03,.51-2.11,.74-3.26,.21-1.15,.3-2.37,.34-3.65,.02-1.28-.04-2.62-.09-3.99-.05-1.36-.11-2.76-.07-4.18,.04-1.42,.18-2.83,.39-4.22,.23-1.36,.55-2.71,.9-3.99,.37-1.26,.81-2.46,1.26-3.6,.44-1.12,.94-2.14,1.43-3.08,.96-1.88,1.95-3.33,2.68-4.32,.16-.21,.32-.41,.44-.57,.09-.12,.18-.23,.27-.32,.18-.23,.32-.39,.43-.5-.12,.19-.46,.71-.92,1.52-.6,1.06-1.42,2.59-2.23,4.5-.39,.94-.8,1.98-1.19,3.1Zm1.97,7.07c-.09,.6-.14,.94-.14,.94,0,0,.02-.35,.02-.94,.02-.32,.02-.67,.04-1.1,.04-.43,.09-.9,.16-1.42,.02-.27,.05-.53,.09-.81,.05-.27,.12-.55,.18-.85,.11-.58,.23-1.2,.43-1.82,.16-.64,.34-1.29,.58-1.93,.11-.32,.23-.66,.34-.97l.41-.97c.27-.64,.57-1.28,.87-1.88,.28-.62,.64-1.2,.94-1.79,.35-.55,.67-1.1,.99-1.59,.34-.5,.66-.96,.97-1.38,.6-.83,1.17-1.51,1.58-1.95,.39-.46,.66-.69,.66-.69,0,0-.21,.27-.57,.76-.34,.5-.81,1.2-1.36,2.09-.28,.43-.57,.92-.87,1.42-.3,.51-.58,1.06-.9,1.63-.27,.58-.6,1.15-.89,1.77-.28,.6-.58,1.22-.83,1.86l-.39,.96c-.12,.32-.23,.64-.35,.96-.25,.62-.44,1.26-.62,1.86-.21,.62-.37,1.22-.51,1.79-.07,.28-.14,.57-.21,.83-.05,.27-.11,.53-.16,.78-.11,.51-.19,.97-.27,1.38-.07,.43-.11,.78-.16,1.08Zm34.97,16.14c-.18,.25-.41,.66-.76,1.12-.71,.94-1.82,2.21-3.45,3.45-.81,.62-1.74,1.24-2.78,1.77-.51,.27-1.06,.53-1.63,.76-.28,.11-.58,.25-.87,.35-.3,.09-.6,.19-.92,.3-.6,.21-1.24,.32-1.88,.5-.66,.12-1.31,.25-1.98,.32-.67,.05-1.36,.14-2.04,.14l-1.03,.02-1.03-.05c-.69-.02-1.36-.14-2.06-.23-.67-.11-1.33-.25-2-.41-1.33-.32-2.59-.83-3.72-1.45-1.15-.6-2.18-1.31-3.08-2.07-.9-.78-1.68-1.58-2.32-2.39-1.28-1.59-1.98-3.15-2.39-4.25-.09-.28-.18-.53-.25-.74-.05-.21-.09-.41-.14-.57-.05-.23-.09-.37-.09-.43,.02,.05,.09,.19,.19,.39,.07,.14,.14,.32,.25,.51s.23,.43,.37,.67c.57,.99,1.49,2.36,2.85,3.72,.67,.67,1.49,1.35,2.36,2,.89,.64,1.9,1.19,2.98,1.7,1.06,.5,2.21,.9,3.42,1.17,.6,.14,1.22,.25,1.86,.35,.62,.05,1.26,.18,1.88,.18l.96,.07,.96-.02c.62,.02,1.26-.05,1.88-.09,.62-.07,1.24-.16,1.84-.25,.6-.12,1.2-.21,1.77-.37,.3-.09,.58-.16,.87-.23,.28-.09,.55-.18,.83-.27,.55-.18,1.06-.39,1.58-.6,1.01-.43,1.95-.9,2.78-1.4,1.65-.99,2.92-2.04,3.76-2.82,.43-.37,.73-.73,.96-.94,.18-.16,.28-.27,.32-.32-.04,.05-.11,.19-.23,.39Zm-.94-9.96c-.21-.14-.44-.3-.69-.48-.27-.18-.55-.35-.85-.53-.04-.04-.09-.05-.12-.09-.27-.16-.55-.34-.83-.51-.21-.14-.46-.27-.69-.41-.14-.07-.27-.14-.41-.21-.74-.46-1.59-.87-2.5-1.31-.9-.41-1.86-.85-2.89-1.19-.27-.09-.51-.19-.78-.28-.27-.07-.53-.16-.8-.23-.27-.07-.53-.16-.8-.23-.28-.07-.55-.12-.83-.19-.97-.23-1.98-.37-2.99-.46-.51,0-1.03,.02-1.54,.05-1.15,.07-2.29,.21-3.4,.48-.27,.07-.55,.12-.81,.19-.28,.07-.55,.16-.81,.23-.27,.09-.53,.16-.8,.23-.27,.09-.51,.19-.76,.28-1.03,.35-2,.78-2.91,1.19-.89,.44-1.75,.85-2.5,1.31-.37,.21-.74,.41-1.1,.62-.04,.02-.07,.05-.11,.07-.3,.18-.58,.37-.85,.53-.07,.05-.14,.09-.23,.14-.21,.14-.43,.27-.62,.39-.25,.18-.48,.34-.69,.48-.74,.51-1.2,.81-1.31,.89,.11-.09,.53-.44,1.2-1.01,.21-.18,.43-.35,.67-.55,.25-.18,.51-.39,.8-.6,.3-.21,.6-.43,.92-.67,.16-.11,.32-.21,.48-.32,.48-.41,1.01-.83,1.63-1.28,.73-.51,1.56-1.01,2.46-1.47,.92-.46,1.91-.89,2.98-1.22,1.08-.32,2.21-.58,3.38-.71,1.17-.16,2.37-.16,3.56-.11,.16,.02,.32,.04,.48,.05,.62,0,1.24,.05,1.84,.12,1.19,.12,2.3,.39,3.38,.71,1.08,.34,2.07,.76,2.98,1.22,.92,.46,1.74,.97,2.46,1.49,.28,.19,.55,.39,.8,.57,.07,.07,.16,.12,.25,.18,.37,.23,.73,.46,1.06,.69,.32,.23,.64,.46,.92,.67,.28,.21,.57,.41,.81,.6,.23,.19,.46,.37,.66,.55,.67,.57,1.12,.92,1.22,1.01-.11-.07-.58-.39-1.33-.89Zm1.49-6.16c-.04-.3-.09-.67-.14-1.08-.09-.41-.18-.87-.28-1.38-.05-.25-.11-.51-.16-.78-.07-.28-.14-.55-.21-.83-.14-.58-.3-1.17-.5-1.79-.19-.6-.39-1.24-.64-1.88-.11-.32-.23-.64-.34-.96l-.41-.94c-.25-.64-.55-1.26-.83-1.86-.28-.62-.6-1.2-.89-1.77-.32-.57-.6-1.12-.9-1.63-.3-.51-.58-.99-.87-1.42-.53-.89-1.03-1.59-1.36-2.09-.27-.37-.44-.62-.51-.73,.09,.07,.3,.3,.62,.64,.39,.46,.96,1.12,1.58,1.97,.3,.41,.62,.89,.96,1.38,.34,.5,.66,1.05,.99,1.59,.3,.58,.66,1.15,.94,1.77,.3,.62,.62,1.24,.87,1.9l.41,.96c.11,.34,.23,.66,.34,.99,.25,.64,.43,1.29,.6,1.91,.18,.64,.3,1.26,.43,1.84,.05,.28,.11,.57,.16,.85,.05,.28,.07,.55,.11,.81,.05,.51,.12,.99,.14,1.4,.02,.43,.04,.8,.04,1.1,.02,.6,.02,.96,.02,.96,0,0-.05-.35-.14-.94Zm6.94,24.52c-.04,.3-.05,.58-.11,.81-.04,.23-.07,.44-.12,.6-.09,.3-.12,.48-.12,.48,0,0,.02-.18,.05-.5,.02-.16,.04-.37,.04-.6,.02-.23,.02-.5,0-.8-.02-1.2-.41-2.89-1.05-4.85-.3-.99-.67-2.07-.97-3.26-.3-1.19-.46-2.48-.53-3.81-.07-1.33-.07-2.69-.04-4.06,.04-1.38,.09-2.76,.05-4.11-.04-1.36-.16-2.73-.35-4.06-.19-1.33-.46-2.64-.76-3.88-.32-1.24-.67-2.44-1.06-3.56-.39-1.12-.78-2.16-1.19-3.12-.81-1.9-1.63-3.42-2.23-4.48-.53-.92-.89-1.47-.96-1.59,.11,.11,.53,.6,1.17,1.45,.73,.99,1.72,2.44,2.69,4.32,.48,.92,.97,1.97,1.42,3.08,.46,1.12,.89,2.32,1.26,3.6,.37,1.28,.67,2.6,.9,3.99,.21,1.38,.35,2.8,.41,4.22,.04,1.42-.04,2.82-.09,4.18-.05,1.36-.11,2.69-.09,3.99,.04,1.28,.12,2.5,.35,3.63,.21,1.15,.5,2.25,.74,3.28,.48,2.04,.71,3.81,.58,5.05Z"/><text class="cls-4" transform="translate(4.49 79.74)"><tspan class="cls-5"><tspan x="0" y="0">CRANBERRY</tspan></tspan><tspan x="12.35" y="10.63">JUICE</tspan></text><path class="cls-3" d="M33.47,28.26c-.11,0-.19,0-.28-.02,.28,.07,.57,.14,.83,.21,.89,.21,1.59,.48,2.09,.64,.35,.14,.62,.23,.73,.27-.11-.02-.37-.09-.76-.16-.51-.11-1.24-.28-2.13-.43-.44-.07-.9-.19-1.42-.25-.51-.07-1.05-.14-1.59-.21-.55-.04-1.13-.09-1.72-.14-.11,0-.23,0-.35-.02-.21,.02-.44,.04-.66,.04-.58,.05-1.15,.09-1.72,.14-.55,.07-1.08,.14-1.59,.21-.5,.05-.97,.16-1.42,.23-.89,.14-1.61,.34-2.13,.44-.37,.09-.64,.14-.74,.16,.11-.04,.35-.14,.71-.27,.51-.18,1.2-.44,2.09-.64,.32-.09,.66-.18,1.03-.25-.16,0-.32,.02-.46,.04-.57,.04-1.1,.11-1.59,.18-.51,.07-.99,.14-1.44,.23-.87,.16-1.59,.34-2.11,.46-.37,.11-.62,.19-.73,.23,.09-.05,.34-.18,.69-.32,.5-.19,1.2-.46,2.07-.69,.44-.12,.92-.23,1.43-.34,.51-.09,1.05-.19,1.61-.25,.55-.09,1.13-.12,1.74-.16,.58-.05,1.2-.04,1.81-.05,.46,.02,.92,.04,1.38,.07,.37-.02,.74-.05,1.13-.05,.6,.02,1.2,0,1.79,.05,.6,.04,1.19,.07,1.75,.16,.55,.05,1.1,.16,1.61,.25,.5,.11,.97,.21,1.42,.34,.87,.23,1.58,.48,2.07,.67,.37,.16,.62,.28,.71,.34-.11-.04-.37-.12-.74-.23-.51-.12-1.22-.32-2.11-.48-.44-.07-.92-.16-1.42-.23-.51-.05-1.05-.12-1.59-.18Z"/><path class="cls-3" d="M46.15,53.59c-.04,.05-.11,.19-.23,.39-.18,.25-.41,.66-.76,1.12-.71,.94-1.82,2.21-3.45,3.45-.82,.62-1.74,1.24-2.78,1.77-.51,.27-1.06,.53-1.63,.76-.28,.11-.58,.25-.87,.35-.3,.09-.6,.19-.92,.3-.6,.21-1.24,.32-1.88,.5-.66,.12-1.31,.25-1.98,.32-.67,.05-1.36,.14-2.04,.14l-1.03,.02-1.03-.05c-.69-.02-1.36-.14-2.06-.23-.67-.11-1.33-.25-2-.41-1.33-.32-2.59-.83-3.72-1.45-1.15-.6-2.18-1.31-3.08-2.07-.9-.78-1.68-1.58-2.32-2.39-1.28-1.59-1.98-3.15-2.39-4.25-.09-.28-.18-.53-.25-.74-.05-.21-.09-.41-.14-.57-.07-.3-.11-.46-.11-.46,0,0,.07,.16,.21,.43,.07,.14,.14,.32,.25,.51,.11,.19,.23,.43,.37,.67,.57,.99,1.49,2.36,2.85,3.72,.67,.67,1.49,1.35,2.36,2,.89,.64,1.9,1.19,2.98,1.7,1.06,.5,2.21,.9,3.42,1.17,.6,.14,1.22,.25,1.86,.35,.62,.05,1.26,.18,1.88,.18l.96,.07,.96-.02c.62,.02,1.26-.05,1.88-.09,.62-.07,1.24-.16,1.84-.25,.6-.12,1.2-.21,1.77-.37,.3-.09,.58-.16,.87-.23,.28-.09,.55-.18,.83-.27,.55-.18,1.06-.39,1.58-.6,1.01-.43,1.95-.9,2.78-1.4,1.65-.99,2.92-2.04,3.76-2.82,.43-.37,.73-.73,.96-.94,.18-.16,.28-.27,.32-.32Z"/><path class="cls-3" d="M46.31,44.91c-.11-.07-.58-.39-1.33-.89-.21-.14-.44-.3-.69-.48-.27-.18-.55-.35-.85-.53-.04-.04-.09-.05-.12-.09-.27-.16-.55-.34-.83-.51-.21-.14-.46-.27-.69-.41-.14-.07-.27-.14-.41-.21-.74-.46-1.59-.87-2.5-1.31-.9-.41-1.86-.85-2.89-1.19-.27-.09-.51-.19-.78-.28-.27-.07-.53-.16-.8-.23-.27-.07-.53-.16-.8-.23-.28-.07-.55-.12-.83-.19-.97-.23-1.98-.37-2.99-.46-.51,0-1.03,.02-1.54,.05-1.15,.07-2.29,.21-3.4,.48-.27,.07-.55,.12-.82,.19-.28,.07-.55,.16-.81,.23-.27,.09-.53,.16-.8,.23-.27,.09-.51,.19-.76,.28-1.03,.35-2,.78-2.91,1.19-.89,.44-1.75,.85-2.5,1.31-.37,.21-.74,.41-1.1,.62-.04,.02-.07,.05-.11,.07-.3,.18-.58,.37-.85,.53-.07,.05-.14,.09-.23,.14-.21,.14-.43,.27-.62,.39-.25,.18-.48,.34-.69,.48-.74,.51-1.2,.81-1.31,.89,.11-.09,.53-.44,1.2-1.01,.21-.18,.43-.35,.67-.55,.25-.18,.51-.39,.8-.6,.3-.21,.6-.43,.92-.67,.16-.11,.32-.21,.48-.32,.48-.41,1.01-.83,1.63-1.28,.73-.51,1.56-1.01,2.46-1.47,.92-.46,1.91-.89,2.98-1.22,1.08-.32,2.21-.58,3.38-.71,1.17-.16,2.37-.16,3.56-.11,.16,.02,.32,.04,.48,.05,.62,0,1.24,.05,1.84,.12,1.19,.12,2.3,.39,3.38,.71,1.08,.34,2.07,.76,2.98,1.22,.92,.46,1.74,.97,2.46,1.49,.28,.19,.55,.39,.8,.57,.07,.07,.16,.12,.25,.18,.37,.23,.73,.46,1.06,.69,.32,.23,.64,.46,.92,.67,.28,.21,.57,.41,.81,.6,.23,.19,.46,.37,.66,.55,.67,.57,1.12,.92,1.22,1.01Z"/><path class="cls-3" d="M57.28,60.04l-.04-.12c-2.48-5.26-2.25-10.7-2.2-11.66,.41-.55,.85-1.61,.16-2.71-.23-.37-.11-.64,.3-1.26,.27-.39,.57-.85,.58-1.4,.07-1.05-.12-2.16-.28-3.14l-.05-.3c-.35-2.16-.97-4.39-1.88-6.82-1.22-3.33-2.82-7.14-5.31-10.06-.16-.19-.35-.41-.57-.62-2.23-2.09-4.43-4.68-4.75-5.05-1.44-2.89-3.72-4.62-4.46-5.14v-2.07c.09-.02,.19-.02,.28-.04,.21-.02,.43-.07,.62-.12,.23-.07,.44-.12,.69-.32,.07-.07,.12-.18,.18-.27,.02-.11,.04-.27-.02-.35-.04-.12-.09-.18-.16-.25-.07-.05-.14-.16-.25-.16l-.02-.02h-.02l-.66-.11c-.12-.02-.23-.04-.34-.07v-.02l.02-.16v-.07l.02-.04c.02-.05,.02-.11,.04-.14,.05-.18,.12-.37,.21-.57,.14-.34,.32-.69,.46-1.13,.16-.48,.16-.94,.16-1.35-.02-.43-.02-.74-.02-1.15V1.86c0-.18,.02-.39-.02-.55l-.04-.02h.04s-.21-1.19-5.4-1.29h-11.67c-5.19,.11-5.4,1.29-5.4,1.29-.04,.18,0,.37-.02,.55v1.51c.02,.41,0,.73-.02,1.15,0,.41,0,.89,.16,1.36,.14,.43,.32,.78,.46,1.12,.09,.19,.16,.39,.21,.57,.02,.04,.04,.09,.04,.14l.02,.04,.02,.09,.02,.16v.02c-.12,.02-.25,.04-.39,.07l-.66,.11c-.11,0-.18,.11-.25,.16-.07,.07-.12,.14-.16,.25-.05,.09-.04,.25-.02,.35,.05,.11,.12,.21,.18,.27,.19,.16,.37,.23,.55,.28,.05,.02,.12,.04,.18,.05,.21,.05,.43,.11,.62,.12,.09,.02,.18,.02,.25,.02v2.07c-.74,.51-3.03,2.25-4.45,5.14-.32,.37-2.53,2.96-4.77,5.07-.21,.19-.39,.41-.57,.6-2.48,2.92-4.07,6.73-5.31,10.06-.9,2.43-1.51,4.68-1.88,6.84l-.05,.28c-.16,.99-.35,2.11-.28,3.15,.04,.53,.32,.99,.58,1.38,.41,.62,.53,.89,.3,1.26-.67,1.1-.25,2.18,.16,2.71,.07,.96,.3,6.4-2.2,11.66l-.04,.12c-.04,.12-.6,3.17,.44,5.72l.07,2.59,.21,41.19c.02,.34,.37,8.2,1.31,10.31,1.03,2.37,2.83,3.97,5.24,4.69,.35,.11,.71,.19,1.1,.27,.92,.16,1.88,.28,2.85,.34,.71,.04,1.43,.05,2.2,.04l15.04,.16h.19l15.06-.16c.74,.02,1.49,0,2.18-.04,.99-.05,1.93-.18,2.87-.34,2.94-.53,5.12-2.25,6.31-4.94,.92-2.13,1.28-9.97,1.29-10.31l.23-41.21,.07-2.57c1.03-2.55,.46-5.6,.43-5.72ZM39.78,8.77l.04,.02h-.04v-.02Zm-22.09,.04s-.02-.02-.04-.02h.04v.02Zm1.81-6.87h.02c.35-.11,4.48-1.13,9.65-1.15,3.92,.09,7.1,.74,8.29,1.01,.16,.05,.32,.11,.48,.12h.04v.27c-.02,.39-.02,.76-.04,1.15,0,.37,0,.83,.02,1.2,0,.11,0,.19-.02,.3H19.53v-.3c0-.35,.02-.81,0-1.19,0-.39-.02-.78-.02-1.15l-.02-.25v-.02Zm9.76,5.03c-.16,0-.41-.02-.73-.02-.32-.02-.69-.02-1.12-.04-.46,0-.94-.02-1.47-.04-.55-.02-1.13-.04-1.74-.05-.6-.02-1.26-.05-1.91-.09-.34-.04-.67-.04-1.01-.07-.35-.04-.69-.07-1.03-.12-.09,0-.18-.02-.25-.04-.16-.35-.3-.69-.41-.99-.05-.18-.07-.37-.07-.58,2.11,.19,8.17,.58,18.41-.02,0,.21-.02,.41-.07,.58-.11,.32-.27,.66-.41,1.03,0,0,0,.02-.02,.02l-.32,.05c-.34,.05-.69,.09-1.03,.11-.34,.05-.67,.05-1.01,.09-.67,.04-1.31,.07-1.93,.09-.6,.02-1.19,.04-1.72,.05-.53,.02-1.03,.02-1.47,.04-.18,0-.34,0-.5,.02,.04,0,.05-.02,.05-.02h-.27Zm-10.63,1.91c-.07-.04-.12-.05-.18-.09l.48-.07c.16-.04,.32-.05,.48-.07h.74c.18,0,.35-.02,.55-.02,.73,0,1.44-.04,2.11-.07,.67-.02,1.31-.07,1.9-.12,1.19-.07,2.16-.19,2.83-.28,.69-.11,1.08-.18,1.08-.18h-.07s.04-.02,.04-.02c0,0-.41-.02-1.08-.07-.69-.04-1.67-.11-2.83-.16-.58-.04-1.22-.07-1.9-.11-.67-.02-1.38-.05-2.11-.09l-.23-.02h-.12v-.09c-.02-.05-.04-.12-.05-.18-.02-.05-.04-.11-.05-.16,.35,.05,.69,.07,1.03,.11,.35,.02,.69,.02,1.03,.04,.67,.04,1.33,.04,1.95,.02,.62,0,1.2-.02,1.74-.04,.53-.04,1.03-.05,1.47-.07,.35-.04,.67-.05,.96-.07,.12,0,.28,.02,.46,.04,.32,.02,.69,.05,1.13,.07,.44,.04,.94,.05,1.45,.07,.55,.04,1.13,.04,1.74,.05,.62,0,1.28,0,1.95-.02,.34-.02,.69-.02,1.03-.05,.35-.02,.71-.04,1.06-.09h.05s-.02,.05-.04,.09c-.02,.07-.04,.12-.04,.18l-.02,.05,.02,.04s-.02,0-.04,.02h-.14l-.23,.02c-.73,.04-1.43,.07-2.11,.09-.67,.04-1.29,.07-1.9,.11-1.15,.05-2.14,.12-2.83,.16-.67,.05-1.08,.07-1.08,.07,0,0,.02,.02,.05,.02,0,0,.37,.07,1.06,.18,.67,.09,1.67,.21,2.83,.28,.58,.05,1.22,.11,1.9,.12,.67,.04,1.38,.07,2.13,.07,.18,0,.35,.02,.53,.02h.74c.16,.02,.32,.04,.48,.07l.44,.07c-.21,.11-.57,.19-.87,.25-.39,.07-.78,.09-1.15,.14-.78,.05-1.52,.09-2.23,.11-.69,0-1.36,.02-1.98,.02h-8.13c-.62,0-1.29-.02-1.98-.02-.71-.02-1.45-.05-2.23-.11-.37-.05-.76-.07-1.13-.14-.23-.04-.48-.09-.67-.16Zm17.91,115.04l.04,.02,.6,.05c-1.58,.04-3.14,.09-4.69,.16-1.24,.05-2.5,.11-3.76,.14-1.26-.04-2.53-.09-3.77-.14-1.52-.07-3.08-.12-4.62-.16l.5-.05,.07-.02c-4.34-.19-7.67-.85-10.24-1.75-1.79-.62-3.19-1.38-4.3-2.18,.66-.19,1.31-.43,1.95-.67,.76-.3,1.51-.67,2.23-1.06,.71-.41,1.4-.83,2.02-1.35,.27-.21,.51-.44,.76-.67,.02,0,.02,.02,.04,.02,.16,.14,.32,.25,.5,.32,.18,.09,.34,.12,.51,.18,.16,.04,.34,.09,.5,.12,.34,.05,.64,.09,.94,.11,.3,.02,.58,.02,.85,.04,.25-.02,.48-.02,.71-.04,.21,0,.39-.02,.55-.04,.14-.02,.27-.04,.35-.04,.07-.02,.12-.02,.12-.02,0,0-.05,0-.12-.02-.09-.02-.21-.04-.35-.05-.16-.02-.34-.04-.53-.05-.23-.04-.46-.07-.71-.11-.27-.04-.53-.07-.82-.12-.28-.05-.58-.11-.89-.18-.14-.04-.28-.09-.44-.14-.14-.05-.3-.09-.43-.16-.02-.02-.04-.02-.04-.04h.14c.74-.05,1.47-.09,2.18-.12,1.4-.09,2.75-.18,3.99-.25,1.22-.09,2.36-.18,3.37-.25,.99-.07,1.86-.14,2.59-.19,.05,0,.11-.02,.16-.02-.76,.19-4.43,1.1-5.35,1.9,0,0,3.03,.74,5.12,.37l-.46,.41c-.18,.12-.34,.27-.51,.41-.16,.14-.32,.27-.48,.41-.18,.12-.34,.25-.5,.39-.3,.25-.62,.48-.92,.73-.28,.21-.57,.43-.83,.64-.27,.18-.51,.35-.73,.53-.21,.14-.41,.28-.57,.39s-.28,.19-.37,.25c-.04,.04-.07,.05-.09,.07,.02,0,.05-.02,.11-.04,.11-.04,.23-.09,.43-.18,.16-.07,.39-.18,.62-.28,.25-.12,.51-.27,.8-.44,.28-.16,.6-.34,.92-.55s.64-.43,.99-.67c.16-.12,.34-.25,.5-.37,.18-.12,.35-.25,.51-.39,.18-.12,.35-.27,.51-.41l.04-.02c.02,1.29,.27,3.65,1.97,4.38h-.25c-.58,.02-1.17-.02-1.74-.04-.58-.04-1.15-.05-1.7-.09-.53-.04-1.06-.05-1.58-.11-.5-.05-.96-.09-1.4-.12-.67-.07-1.24-.14-1.7-.19-.35-.05-.58-.09-.58-.09,0,0,.02,0,.02,.02-.32-.04-.51-.07-.6-.07,.11,.04,.35,.11,.73,.19,.46,.12,1.13,.27,1.91,.41,.27,.05,.53,.11,.82,.18,.43,.09,.9,.16,1.42,.23,.5,.07,1.03,.14,1.58,.18,.55,.05,1.13,.09,1.7,.11,.58,.02,1.19,.02,1.77,.02s1.19-.04,1.75-.05c.58-.04,1.15-.09,1.72-.12,.55-.07,1.08-.12,1.58-.19,.5-.07,.97-.14,1.42-.23,.87-.14,1.58-.32,2.09-.44,.37-.09,.62-.16,.73-.19-.11,.02-.37,.05-.76,.09-.23,.04-.51,.07-.81,.11,.07-.02,.14-.04,.19-.05,.37-.11,.62-.18,.73-.21-.11,.02-.35,.05-.74,.11-.25,.04-.57,.09-.9,.14-.37,.04-.76,.09-1.2,.14-.43,.07-.9,.09-1.4,.14-.5,.04-1.03,.07-1.58,.09-.55,.04-1.12,.05-1.68,.07-.46,.02-.92,.02-1.38,0,1.19-.5,1.67-1.81,1.86-3.01,.09-.46,.11-.92,.12-1.29l.02,.02c.18,.14,.35,.28,.51,.41,.18,.14,.35,.27,.51,.41,.18,.12,.35,.25,.51,.35,.34,.25,.67,.48,.99,.67,.32,.21,.64,.39,.92,.55,.28,.18,.55,.32,.8,.44,.23,.12,.44,.21,.62,.3,.18,.07,.32,.12,.43,.16,.05,.02,.09,.04,.11,.05l-.09-.09c-.09-.05-.21-.14-.37-.25-.16-.11-.35-.25-.57-.39-.23-.16-.46-.34-.73-.53-.27-.21-.55-.43-.83-.64-.3-.23-.62-.48-.92-.73-.16-.12-.34-.27-.5-.39-.16-.14-.32-.27-.5-.41-.16-.14-.32-.27-.5-.41l-.44-.39v-.09c2.07,.37,5.12-.37,5.12-.37-.82-.69-3.67-1.47-4.91-1.79,.66,.05,1.42,.12,2.29,.19,1.01,.07,2.14,.14,3.37,.23,1.24,.07,2.57,.16,3.99,.25,.71,.04,1.43,.09,2.18,.12h.14l-.04,.04c-.12,.07-.28,.11-.43,.18-.16,.04-.3,.09-.46,.12-.3,.07-.6,.12-.89,.18-.27,.05-.55,.09-.81,.14-.23,.02-.46,.05-.69,.09-.19,.02-.37,.04-.53,.05-.16,.04-.27,.05-.35,.05-.07,.02-.12,.02-.12,.02,0,0,.05,.02,.12,.02,.09,.02,.19,.02,.35,.04,.16,.02,.34,.04,.55,.05,.21,0,.46,0,.71,.02,.27,0,.53-.02,.83-.04s.62-.05,.96-.11c.16-.04,.32-.07,.5-.12,.16-.05,.34-.09,.51-.18,.16-.07,.34-.16,.5-.32t.02-.02c.25,.23,.5,.48,.78,.67,.62,.51,1.31,.94,2.02,1.35,.73,.39,1.47,.76,2.23,1.06,.78,.32,1.56,.58,2.37,.81,.05,.02,.11,.04,.18,.05-2.76,1.82-7.16,3.35-14.21,3.67Zm18.41-55.61l-.19,34.49c-.44,7.71-1.06,13.94-1.91,15.38-.14,.27-.78,1.06-.99,1.24-.32-.09-.66-.18-.97-.27-.78-.21-1.54-.46-2.29-.76-.74-.27-1.44-.6-2.13-.96-.67-.37-1.35-.76-1.91-1.22-.32-.21-.58-.46-.85-.71l-.16-.14c-.07-.05-.12-.14-.21-.14l-.43-.02-.57-.02c-.74-.02-1.47-.04-2.18-.04-1.42-.04-2.76-.05-4-.07-1.22,0-2.36-.02-3.37-.02h-3.17c-.46-.12-.69-.04-.74,0h-.37c-.37,.02-.58,.02-.58,.02,0,0,.21,.02,.58,.05,.11,0,.21,.02,.34,.04,.28,1.47,.3,2.44,.18,3.1-.2,1.06-.71,1.19-.76,1.19s-1.22-.28-.71-3.65c.04-.21,.07-.43,.11-.66,.02-.02,.02-.04,.02-.07,.12,0,.23-.02,.32-.02,.39-.04,.6-.05,.6-.05,0,0-.21,0-.6-.02h-4.27c-1.01,0-2.14,.02-3.38,.02-1.24,.02-2.57,.04-3.99,.05-.71,.02-1.43,.04-2.18,.05l-.57,.02h-.43c-.09,.02-.14,.11-.21,.16l-.16,.14c-.27,.25-.55,.5-.85,.71-.58,.46-1.24,.83-1.91,1.22-.69,.34-1.4,.69-2.14,.96-.73,.28-1.49,.55-2.27,.76-.09,.04-.2,.05-.3,.07-.09-.07-.53-.71-.69-.97-.85-1.43-1.47-7.65-1.91-15.36l-.18-34.49-.04-.92c1.01,.09,3.38,.27,4.87,.09,.09,0,.18-.02,.27-.02,.23-.28,2.36-.81,14.9-.87,0,0-14.83-.12-19.59-.48,.37-.05,.76-.09,1.15-.11,.89-.04,1.77-.04,2.64,0,.46,.02,.85,.05,1.36,.05,.43,0,.87-.02,1.31-.04,.87-.02,1.72-.05,2.57-.07,1.7-.05,3.33-.11,4.89-.16,1.54-.05,3.01-.11,4.38-.16,1.35-.05,2.59-.11,3.68-.14,1.1-.05,2.06-.11,2.85-.14,.3-.02,.57-.02,.83-.04,.3,.02,.67,.04,1.06,.05,.8,.04,1.75,.09,2.85,.12,1.12,.05,2.36,.11,3.7,.16,1.35,.05,2.82,.11,4.38,.16,1.54,.05,3.19,.11,4.87,.16,.85,.02,1.7,.05,2.59,.07,.43,.02,.87,.02,1.31,.04,.5,0,.89-.04,1.35-.05,.89-.04,1.77-.05,2.66,0,.39,0,.76,.05,1.15,.09-4.78,.37-19.59,.5-19.59,.5,12.52,.05,14.65,.57,14.88,.85,.09,.02,.18,.02,.28,.04,1.49,.18,3.84,0,4.85-.11l-.02,.9Zm.11-2.87l-.02,.05c-.09-.02-.18-.04-.25-.05-.46-.05-.92-.11-1.38-.12-.9-.04-1.81-.02-2.71,.04-.43,.02-.92,.05-1.29,.05-.44,0-.89-.02-1.33-.02-.87-.02-1.72-.02-2.57-.04-1.7-.02-3.33-.04-4.89-.07-1.54,0-3.01-.02-4.38-.04h-6.63c-.43,0-1.05-.02-1.82-.02h-2.85c-1.12,0-2.36,0-3.7,.02-1.36,0-2.82,.02-4.38,.04-1.56,.02-3.19,.04-4.89,.05-.83,.02-1.7,.04-2.57,.04-.44,.02-.87,.02-1.31,.04-.39-.02-.87-.05-1.31-.07-.89-.04-1.79-.05-2.71-.02-.46,.02-.9,.05-1.36,.12-.09,0-.18,.02-.27,.04l-.02-.02c-.89-2.11-.5-4.75-.43-5.17,2.82-6.01,2.27-12.03,2.25-12.28l-.02-.18-.11-.12c-.07-.07-.69-.8-.18-1.63,.6-.96,.07-1.75-.3-2.34-.21-.32-.41-.64-.43-.9-.07-.94,.11-1.95,.28-2.92l.04-.28c.35-2.11,.96-4.27,1.82-6.64,1.2-3.26,2.76-6.96,5.14-9.76,.18-.21,.34-.37,.5-.53,2.44-2.3,4.85-5.16,4.87-5.19l.07-.11c1.1-2.23,2.78-3.76,3.7-4.46,.04,0,.07,.02,.09,.04,.28,.11,.57,.18,.83,.21,.28,.05,.55,.09,.81,.12,.28,.04,.55,.04,.8,.05,.53,.04,1.03,.04,1.51,.05,.48-.02,.94,0,1.35-.04,.41-.02,.78-.02,1.13-.04,.32-.04,.62-.05,.87-.07,.25-.02,.44-.04,.57-.04,.12-.02,.19-.02,.19-.02,0,0-.07,0-.19-.02-.14,0-.32,0-.57-.02-.25,0-.55,0-.87-.02-.35,0-.73-.02-1.13-.04-.41,0-.87-.04-1.33-.05-.48-.04-.97-.05-1.49-.11-.21-.02-.44-.04-.67-.07-.87-.21-1.01-.48-1.05-.57l.04-.02v-2.52h.89c.44,0,.89,0,1.29-.02,.73-.02,1.4-.05,2.02-.09,.62-.04,1.19-.09,1.7-.12,.5-.05,.94-.09,1.31-.12,.35-.04,.64-.07,.83-.09,.09-.02,.14-.02,.19-.04,.04,.02,.11,.02,.18,.04,.19,.02,.48,.05,.85,.09s.8,.07,1.29,.12c.51,.04,1.1,.09,1.7,.12,.64,.04,1.31,.07,2.02,.09,.43,.02,.85,.02,1.29,.02h.85v2.5l.04,.04c0,.05-.09,.34-1.05,.58-.21,.04-.44,.04-.67,.07-.51,.04-1.01,.07-1.47,.11-.48,.02-.92,.04-1.35,.05-.41,.02-.78,.02-1.13,.04-.32,0-.62,.02-.87,.02-.23,.02-.43,.02-.55,.02-.14,0-.21,.02-.21,.02,0,0,.07,0,.2,.02,.14,0,.32,.02,.57,.04s.55,.04,.87,.05c.35,.02,.73,.04,1.13,.05,.43,.02,.87,.02,1.35,.02s.99,0,1.51-.04c.27-.02,.53-.04,.8-.07,.27-.02,.53-.05,.81-.11,.27-.05,.55-.11,.83-.21,.04-.02,.07-.04,.12-.05,.92,.73,2.59,2.23,3.67,4.45l.07,.11s2.43,2.89,4.87,5.19c.16,.16,.32,.34,.5,.53,2.37,2.82,3.93,6.5,5.14,9.76,.87,2.37,1.47,4.55,1.82,6.64l.05,.28c.16,.97,.34,2,.28,2.92-.02,.28-.23,.58-.43,.9-.39,.58-.92,1.38-.32,2.34,.51,.83-.09,1.56-.16,1.63l-.12,.12-.02,.18c-.02,.25-.57,6.27,2.25,12.28,.07,.43,.46,3.06-.43,5.17Z"/><path class="cls-1" d="M36.57,123.94l.6,.05c-1.58,.04-3.14,.09-4.69,.16-1.24,.05-2.5,.11-3.76,.14-1.26-.04-2.53-.09-3.77-.14-1.52-.07-3.08-.12-4.62-.16l.5-.05,.07-.02c-4.34-.19-7.67-.85-10.24-1.75-1.79-.62-3.19-1.38-4.3-2.18,.66-.19,1.31-.43,1.95-.67,.76-.3,1.51-.67,2.23-1.06,.71-.41,1.4-.83,2.02-1.35,.27-.21,.51-.44,.76-.67,.02,0,.02,.02,.04,.02,.16,.14,.32,.25,.5,.32,.18,.09,.34,.12,.51,.18,.16,.04,.34,.09,.5,.12,.34,.05,.64,.09,.94,.11,.3,.02,.58,.02,.85,.04,.25-.02,.48-.02,.71-.04,.21,0,.39-.02,.55-.04,.14-.02,.27-.04,.35-.04,.07-.02,.12-.02,.12-.02,0,0-.05,0-.12-.02-.09-.02-.21-.04-.35-.05-.16-.02-.34-.04-.53-.05-.23-.04-.46-.07-.71-.11-.27-.04-.53-.07-.82-.12-.28-.05-.58-.11-.89-.18-.14-.04-.28-.09-.44-.14-.14-.05-.3-.09-.43-.16-.02-.02-.04-.02-.04-.04h.14c.74-.05,1.47-.09,2.18-.12,1.4-.09,2.75-.18,3.99-.25,1.22-.09,2.36-.18,3.37-.25,.99-.07,1.86-.14,2.59-.19,.05,0,.11-.02,.16-.02-.76,.19-4.43,1.1-5.35,1.9,0,0,3.03,.74,5.12,.37l-.46,.41c-.18,.12-.34,.27-.51,.41-.16,.14-.32,.27-.48,.41-.18,.12-.34,.25-.5,.39-.3,.25-.62,.48-.92,.73-.28,.21-.57,.43-.83,.64-.27,.18-.51,.35-.73,.53-.21,.14-.41,.28-.57,.39s-.28,.19-.37,.25c-.04,.04-.07,.05-.09,.07,.02,0,.05-.02,.11-.04,.11-.04,.23-.09,.43-.18,.16-.07,.39-.18,.62-.28,.25-.12,.51-.27,.8-.44,.28-.16,.6-.34,.92-.55s.64-.43,.99-.67c.16-.12,.34-.25,.5-.37,.18-.12,.35-.25,.51-.39,.18-.12,.35-.27,.51-.41l.04-.02c.02,1.29,.27,3.65,1.97,4.38h-.25c-.58,.02-1.17-.02-1.74-.04-.58-.04-1.15-.05-1.7-.09-.53-.04-1.06-.05-1.58-.11-.5-.05-.96-.09-1.4-.12-.67-.07-1.24-.14-1.7-.19-.35-.05-.58-.09-.58-.09,0,0,.02,0,.02,.02-.32-.04-.51-.07-.6-.07,.11,.04,.35,.11,.73,.19,.46,.12,1.13,.27,1.91,.41,.27,.05,.53,.11,.82,.18,.43,.09,.9,.16,1.42,.23,.5,.07,1.03,.14,1.58,.18,.55,.05,1.13,.09,1.7,.11,.58,.02,1.19,.02,1.77,.02s1.19-.04,1.75-.05c.58-.04,1.15-.09,1.72-.12,.55-.07,1.08-.12,1.58-.19,.5-.07,.97-.14,1.42-.23,.87-.14,1.58-.32,2.09-.44,.37-.09,.62-.16,.73-.19-.11,.02-.37,.05-.76,.09-.23,.04-.51,.07-.81,.11,.07-.02,.14-.04,.19-.05,.37-.11,.62-.18,.73-.21-.11,.02-.35,.05-.74,.11-.25,.04-.57,.09-.9,.14-.37,.04-.76,.09-1.2,.14-.43,.07-.9,.09-1.4,.14-.5,.04-1.03,.07-1.58,.09-.55,.04-1.12,.05-1.68,.07-.46,.02-.92,.02-1.38,0,1.19-.5,1.67-1.81,1.86-3.01,.09-.46,.11-.92,.12-1.29l.02,.02c.18,.14,.35,.28,.51,.41,.18,.14,.35,.27,.51,.41,.18,.12,.35,.25,.51,.35,.34,.25,.67,.48,.99,.67,.32,.21,.64,.39,.92,.55,.28,.18,.55,.32,.8,.44,.23,.12,.44,.21,.62,.3,.18,.07,.32,.12,.43,.16,.05,.02,.09,.04,.11,.05l-.09-.09c-.09-.05-.21-.14-.37-.25-.16-.11-.35-.25-.57-.39-.23-.16-.46-.34-.73-.53-.27-.21-.55-.43-.83-.64-.3-.23-.62-.48-.92-.73-.16-.12-.34-.27-.5-.39-.16-.14-.32-.27-.5-.41-.16-.14-.32-.27-.5-.41l-.44-.39v-.09c2.07,.37,5.12-.37,5.12-.37-.82-.69-3.67-1.47-4.91-1.79,.66,.05,1.42,.12,2.29,.19,1.01,.07,2.14,.14,3.37,.23,1.24,.07,2.57,.16,3.99,.25,.71,.04,1.43,.09,2.18,.12h.14l-.04,.04c-.12,.07-.28,.11-.43,.18-.16,.04-.3,.09-.46,.12-.3,.07-.6,.12-.89,.18-.27,.05-.55,.09-.81,.14-.23,.02-.46,.05-.69,.09-.19,.02-.37,.04-.53,.05-.16,.04-.27,.05-.35,.05-.07,.02-.12,.02-.12,.02,0,0,.05,.02,.12,.02,.09,.02,.19,.02,.35,.04,.16,.02,.34,.04,.55,.05,.21,0,.46,0,.71,.02,.27,0,.53-.02,.83-.04s.62-.05,.96-.11c.16-.04,.32-.07,.5-.12,.16-.05,.34-.09,.51-.18,.16-.07,.34-.16,.5-.32t.02-.02c.25,.23,.5,.48,.78,.67,.62,.51,1.31,.94,2.02,1.35,.73,.39,1.47,.76,2.23,1.06,.78,.32,1.56,.58,2.37,.81,.05,.02,.11,.04,.18,.05-2.76,1.82-7.16,3.35-14.21,3.67l.04,.02Z"/><path class="cls-3" d="M37.08,21.77s-.07-.09-.11-.16c-.11-.16-.23-.39-.41-.69-.18-.3-.39-.66-.64-1.06-.25-.41-.51-.89-.82-1.38-.28-.51-.6-1.06-.94-1.65-.18-.28-.34-.58-.51-.9l-.05-.09c-1.79-.57-3.44-.78-4.89-.81-3.33-.07-5.55,.8-5.55,.8l-.05,.11c-.18,.3-.34,.6-.51,.9-.34,.57-.66,1.12-.94,1.63-.3,.51-.57,.97-.82,1.4-.25,.39-.46,.76-.64,1.06-.18,.28-.3,.51-.41,.67-.05,.09-.09,.14-.11,.18,.02-.04,.05-.11,.09-.19,.09-.16,.21-.41,.37-.71,.16-.32,.34-.69,.57-1.1,.21-.44,.48-.92,.74-1.43,.28-.53,.57-1.1,.89-1.68,.16-.3,.32-.6,.5-.92l.07-.12c.04-.09,.12-.11,.14-.12,.09-.05,.16-.09,.25-.14,.16-.07,.32-.12,.5-.19,.32-.11,.67-.19,1.03-.27,.34-.07,.71-.14,1.06-.18s.73-.07,1.08-.09c.3-.02,.58-.02,.89-.02,.51-.02,.99-.02,1.47,.02,.14,0,.3,0,.46,.02,.35,.02,.73,.04,1.08,.09,.35,.04,.73,.09,1.06,.16,.35,.07,.69,.16,1.03,.28,.18,.05,.34,.12,.5,.19,.09,.04,.16,.09,.25,.12,.02,.04,.11,.05,.14,.12l.07,.14c.18,.32,.34,.62,.5,.92,.32,.58,.6,1.15,.89,1.68,.27,.51,.53,.99,.74,1.42,.21,.43,.41,.8,.57,1.12,.16,.3,.28,.55,.37,.71,.04,.09,.07,.14,.09,.18Z"/><path class="cls-3" d="M37.12,24.29c-.11-.23-.28-.55-.51-.96-.18-.34-.41-.74-.67-1.19-.05-.09-.09-.18-.14-.27-.07-.11-.14-.21-.21-.34-.07-.12-.12-.21-.28-.43-.37,.02-.81,.02-1.29,.04-.14,0-.32-.02-.48-.02h-1.88c-.5,0-1.01-.02-1.54-.02-.37-.02-.73-.02-1.1-.02-.28-.02-.55-.02-.83-.04-.12,.02-.25,.02-.39,.02-.53,.02-1.06,.02-1.58,.04h-.09l-4.52-.02h-.14l-.25,.43-.05,.09-.05,.07c-.02,.05-.05,.11-.09,.14v.02l-.02,.02v.02l-.21,.35c-.23,.41-.44,.78-.6,1.08-.23,.43-.41,.74-.51,.96-.09,.18-.14,.28-.16,.32,.02-.04,.09-.14,.18-.3,.14-.21,.34-.51,.57-.9,.21-.32,.46-.73,.76-1.15,1.49-.05,9.9-.3,14.74-.02,.3,.44,.57,.85,.76,1.19,.25,.39,.44,.69,.58,.9,.04,.07,.07,.14,.12,.18-.04-.05-.07-.11-.11-.19Z"/><path class="cls-3" d="M21.19,117.29l-.85,1.03c-.3,.34-.58,.67-.89,1.01-.3,.32-.58,.66-.9,.96-.3,.3-.62,.6-.94,.89-.32,.28-.66,.53-1.03,.73-.18,.09-.39,.19-.64,.12-.07-.02-.12-.05-.18-.11-.02-.02-.04-.07-.04-.11v-.09c.02-.11,.02-.21,.05-.32,.12-.37,.34-.71,.55-1.01,.21-.3,.43-.57,.64-.83,.44-.51,.87-.96,1.26-1.35,.39-.39,.74-.71,1.03-.97,.12-.18,.35-.18,.48-.19,.16-.02,.28-.02,.39-.02s.2,.02,.23,.04c-.04,0-.12,0-.23-.02-.11,0-.23,0-.37,.02-.14,.04-.34,.04-.46,.21-.28,.27-.62,.6-.99,1.01-.37,.39-.8,.85-1.22,1.36-.19,.27-.43,.53-.62,.83-.19,.3-.39,.62-.5,.97-.04,.09-.04,.18-.05,.27,0,.05,0,.07,.02,.09,.02,.02,.04,.04,.07,.04,.14,.04,.34-.04,.5-.12,.35-.18,.67-.44,.97-.71,.32-.28,.62-.57,.92-.89,.3-.3,.6-.64,.9-.96,.28-.34,.57-.67,.87-1.01l.85-1.01,.18,.14Z"/><path class="cls-3" d="M25.2,120.23c-.04,.09-.09,.16-.12,.23l-.14,.19-.16,.18-.16,.18c-.09,.11-.19,.21-.3,.32-.11,.09-.2,.18-.3,.25-.09,.07-.18,.14-.25,.19-.09,.07-.16,.11-.21,.14-.07,.05-.11,.07-.14,.09s-.05,.04-.05,.04c0,0,.02-.02,.04-.05,.02-.02,.05-.07,.11-.12,.05-.05,.11-.12,.16-.18,.07-.09,.14-.18,.21-.25,.09-.11,.18-.21,.25-.3,.09-.11,.18-.23,.27-.32l.12-.18,.14-.19,.12-.18c.04-.07,.09-.14,.11-.19l.32,.16Z"/><path class="cls-3" d="M17.08,117.12s-.05,.14-.14,.28c-.09,.19-.23,.46-.44,.78-.09,.16-.21,.32-.34,.5-.12,.18-.27,.34-.43,.53-.14,.16-.3,.35-.48,.53-.18,.18-.35,.34-.55,.5-.18,.16-.37,.34-.57,.48-.2,.14-.41,.28-.6,.41s-.39,.25-.57,.34c-.19,.11-.37,.19-.55,.28-.32,.16-.62,.27-.81,.34-.21,.07-.34,.11-.34,.11,0,0,.12-.05,.32-.14,.19-.09,.48-.21,.8-.39,.16-.09,.34-.19,.51-.3s.37-.23,.55-.35c.2-.14,.39-.28,.58-.43,.19-.14,.37-.3,.57-.46,.18-.18,.35-.34,.53-.5,.18-.18,.34-.35,.5-.51,.14-.18,.3-.34,.43-.51,.12-.16,.25-.32,.35-.46,.23-.3,.39-.57,.51-.74,.07-.14,.14-.23,.16-.27Z"/><path class="cls-3" d="M40.72,121.79v.09s-.04,.09-.05,.11c-.04,.05-.11,.09-.16,.12-.25,.05-.46-.05-.64-.14-.37-.19-.71-.44-1.03-.73-.34-.28-.64-.57-.94-.89-.32-.3-.6-.64-.9-.96-.3-.34-.6-.67-.89-1.01l-.85-1.03,.18-.14,.85,1.01c.28,.34,.58,.67,.87,1.01,.3,.34,.58,.66,.9,.96,.28,.32,.6,.62,.9,.89,.32,.28,.64,.53,.99,.71,.16,.11,.35,.16,.5,.12,.04,0,.05-.02,.07-.04s.02-.02,0-.09c0-.09,0-.18-.04-.27-.11-.34-.3-.67-.5-.96-.21-.3-.43-.58-.64-.85-.41-.51-.83-.97-1.2-1.36-.37-.41-.71-.74-.99-1.01-.12-.16-.32-.16-.46-.21-.14-.02-.28-.02-.39-.02-.2,.02-.32,.04-.32,.04,0,0,.12-.04,.32-.05,.11,0,.25,0,.39,.02,.14,.04,.35,.04,.5,.19,.28,.27,.64,.58,1.03,.97,.37,.39,.82,.83,1.24,1.35,.23,.27,.44,.53,.66,.85,.21,.3,.41,.62,.53,1.01,.05,.09,.05,.19,.07,.3Z"/><path class="cls-3" d="M33.1,122.11s-.02,0-.05-.02c-.04-.04-.09-.05-.14-.09-.05-.04-.12-.09-.21-.14-.07-.07-.16-.14-.27-.21-.09-.07-.18-.16-.28-.25-.11-.11-.21-.19-.32-.32l-.14-.18-.16-.18-.14-.19c-.05-.07-.09-.14-.12-.23l.32-.16c.02,.05,.07,.12,.11,.19l.12,.18,.12,.19,.14,.18c.09,.09,.18,.21,.27,.32,.07,.11,.16,.19,.25,.3,.07,.09,.14,.16,.21,.25,.05,.07,.11,.12,.16,.19,.04,.05,.07,.09,.11,.12l.04,.04Z"/><path class="cls-3" d="M45.18,122.25s-.14-.04-.34-.11c-.19-.07-.5-.18-.83-.34-.16-.07-.34-.18-.53-.27-.19-.11-.37-.23-.58-.35-.2-.12-.39-.27-.58-.41-.19-.14-.39-.3-.58-.46-.18-.18-.35-.34-.53-.51-.18-.18-.34-.35-.5-.53-.14-.18-.28-.35-.41-.53-.12-.18-.25-.34-.34-.5-.21-.32-.35-.58-.46-.78-.07-.12-.11-.23-.12-.28,.02,.04,.09,.12,.16,.27,.12,.18,.28,.44,.51,.74,.09,.14,.23,.3,.35,.46,.12,.18,.28,.34,.43,.51,.16,.16,.32,.34,.5,.51,.16,.18,.35,.34,.53,.5,.2,.16,.37,.32,.57,.46,.19,.16,.39,.28,.57,.43,.19,.12,.39,.25,.57,.35,.18,.11,.35,.21,.51,.3,.32,.18,.6,.3,.8,.39,.2,.09,.32,.14,.32,.14Z"/></g></g></svg>