<?xml version="1.0" encoding="UTF-8"?><svg id="Layer_2" xmlns="http://www.w3.org/2000/svg" viewBox="0 0 21.5 64.19"><defs><style>.cls-1{fill:none;}.cls-2{fill:#ffdcc7;}.cls-3{fill:#ffe1d0;}.cls-4{fill:#fff;}.cls-5{fill:#ffefe6;}.cls-6{fill:#fff5f0;}.cls-7{fill:#fff4ee;}.cls-8{fill:#fff3ed;}.cls-9{fill:#ffd9c4;}.cls-10{fill:#ffe9dd;}.cls-11{fill:#ffe5d7;}.cls-12{fill:#ffd3ba;}.cls-13{fill:#ffd5be;}.cls-14{fill:#ff7f40;}.cls-15{opacity:.9;}</style></defs><g id="Bellini"><g id="Glass"><g class="cls-15"><g class="cls-15"><path class="cls-6" d="M10,63.47h-.04s0,0-.02,.02c-.05,0,.11,.03,.29,.06,.01-.02-.05-.04-.22-.08Z"/><polygon class="cls-8" points="9.38 63.15 9.32 63.14 9.33 63.15 9.38 63.15"/><path class="cls-6" d="M9.51,63.32c.11,.03,.18,.03,.26,.05-.04-.02-.08-.03-.1-.05-.03-.02-.07-.04-.11-.06-.03,0-.08-.01-.13-.02t.05,.01s-.1-.01-.1-.01c.01,.01,.14,.05,.23,.07-.05,0-.13-.01-.19-.02l.05,.02s.06,.02,.07,.02h-.03Z"/><path class="cls-6" d="M10.61,63.71h-.03s-.08,0-.12,0l.09,.02h.07s0,0,0,0c0,0,0,0-.03,0h0s.05,.01,.05,.01h-.02c.06,0,.11,0,.13,0-.01-.01-.1-.03-.16-.04Z"/><path class="cls-7" d="M11.53,63.77s0-.02,0-.04c-.07,0-.16-.01-.23,0,.07-.06-.42-.1-.52-.14-.13-.05-.38-.08-.54-.13-.03,0-.03,.01-.1,0,.04,.01,.08,.02,.14,.02,0,0,.02,0,.03,0-.01,0-.02,0-.03,0-.08,0-.1,0-.12-.01,.02,0,.03,0,.02,0-.02,0-.03,0-.03,0,.15,.05,.28,.09,.29,.13h.04c.18,.03,.24,.05,.23,.07,.07,0,.15,.01,.31,.03,.1,.02,.23,.04,.36,.06,.04,0,.07,0,.12-.01h.03Z"/><path class="cls-12" d="M17.15,62.9c-.04-.06-.43-.11-.84-.07-.42,.04-.83,.08-1.27,.14,.07,.02,.02,.06-.16,.1-.1,.02-.27,.02-.31,.04-.22,.05-.28,.09-.55,.14,.05,0,.06,.02,.11,.01,.15,0,.34-.02,.57-.08,.06-.02,.2,0,.05,.03,.19-.02,.32-.05,.46-.07,.41-.06,.15,.03,.28,.05,.02,0,.05,0,.09,0,.24-.06,.56-.13,.81-.19,.06-.01,.16,0,.22-.02,.24-.03,.56-.09,.53-.11Z"/><path class="cls-9" d="M13.35,63.21c.11-.02,.18-.04,.24-.05-.13,0-.25,0-.38,0l-.1,.03c.1,0,.18,0,.24,0Z"/><path class="cls-9" d="M15.23,63.27s-.08-.02-.17-.04c-.19,.05-.33,.06-.44,.04,0,0-.09,.01-.12,.02,0,0-.06-.01,0-.03-.06,.02-.14,.01-.18,.03-.1,0,.08-.03,0-.04-.36,.09-.66,.07-.54,.01,.05-.03,.14-.05,.2-.08,.05-.03,.24-.04,.37-.06-.04-.01-.23,0-.13-.02,.1-.02,.21-.05,.28-.08-.28,.04-.62,.11-.77,.12h-.17c-.05,.02-.12,.03-.24,.05-.06-.01-.14-.01-.24,0-.04,.01-.07,.02-.09,.03-.09,.04,.25,0,.34,.02-.36,.06-.41,.12-.29,.15,.09,.02,.18,.02,.34,.02,.08,0,.19-.02,.29-.04-.03,0-.13,.03-.1,.03,.18,0,.27,.02,.5-.03,0,0,.02,.01-.05,.03,.13-.03,.06,.02,.18,0,.06,.01,.05,.06,.23,.03,.09-.01,.07-.01,.12-.02,.12-.03,.26-.06,.42-.09,.06-.01,.18-.03,.33-.06-.05,0-.1,.01-.11,0Z"/><path class="cls-13" d="M15.5,63.2c-.14-.02,.13-.11-.28-.05-.14,.02-.27,.05-.46,.07,.15-.03,.01-.05-.05-.03-.22,.05-.41,.07-.57,.08-.06,0-.06-.01-.11-.01,.27-.05,.33-.09,.55-.14,.04-.02,.22-.02,.31-.04,.19-.05,.23-.08,.16-.1-.18,.02-.34,.04-.48,.06-.01,0-.03,0-.05,0-.07,.03-.18,.06-.28,.08-.1,.03,.09,.01,.13,.02-.14,.01-.32,.02-.37,.06-.05,.03-.15,.06-.2,.08-.13,.06,.18,.08,.54-.01,.07,0-.11,.04,0,.04,.04-.02,.11-.01,.18-.03-.06,.02,0,.02,0,.03,.03,0,.11-.01,.12-.02,.11,.01,.25,0,.44-.04,.09,.01,.2,0,.17,.04,0,0,.06,0,.11,0,.07-.02,.15-.03,.24-.05-.04,0-.07,0-.09,0Z"/><path class="cls-2" d="M14.47,63.43c-.18,.03-.16-.02-.23-.03-.13,.03-.06-.02-.18,0,.06-.02,.04-.02,.05-.03-.24,.04-.32,.02-.5,.03-.02,0,.07-.02,.1-.03-.1,.02-.21,.03-.29,.04-.15,0-.25,0-.34-.02-.13-.03-.07-.09,.29-.15-.09-.01-.43,.02-.34-.02,.02-.01,.05-.02,.09-.03-.23,.01-.54,.06-.79,.08,0,.01,0,.02,.04,.02,.3,.02,.13,.08,.37,.1,.09,0,.16,0,.21,0,.11,.02,0,.06,.1,.08,0,0,.18-.02,.19-.01,.06,.01,.03,.05,.17,.04,.37-.02,.49,0,.66,.03,.16-.04,.37-.1,.53-.14-.05,0-.03,0-.12,.02Z"/><path class="cls-11" d="M10.51,63.15c-.13,0-.18-.01-.21-.02,.31,.06,.45,.11,.57,.16,.04,.02,.54,.02,.6,.06-.02,.02-.11,.02-.23,.03,.46,.05,.45,.13,.8,.16,.35,.03,.65,.08,.69,.14,.01,.03,.25,.03,.45,.03,.08-.02,.16-.03,.23-.05-.11,0-.2-.01-.23-.03-.07-.06-.23-.09-.62-.09-.13,0-.04-.07-.11-.08-.28-.04-.42-.09-.61-.15-.04-.01-.11-.03-.21-.05-.16,0-.33,0-.49-.01-.47-.01-.32-.1-.63-.11Z"/><path class="cls-3" d="M13.4,63.52c-.14,0-.1-.03-.17-.04-.02-.01-.2,.02-.19,.01-.11-.02,0-.06-.1-.08-.05,0-.12,0-.21,0-.24-.03-.07-.09-.37-.1-.04,0-.05,0-.04-.02h0s-.12-.01-.16-.01c-.2,.01-.28,0-.44,0-.04,0-.07,0-.09,0,.09,.02,.17,.03,.21,.05,.19,.06,.33,.1,.61,.15,.07,0-.02,.07,.11,.08,.39,0,.55,.03,.62,.09,.03,.02,.12,.03,.23,.03,.07-.02,.14-.03,.19-.04,.06-.01,.16,0,.16,0,.07-.01,.18-.04,.31-.06-.16-.02-.28-.05-.66-.03Z"/><path class="cls-10" d="M10.07,63.1c-.05,0-.11-.01-.13-.01-.12-.01-.1-.03-.15-.04h.02s-.02,0-.04,0c.05,.03,.08,.05,.07,.07,.07,.01,.13,.02,.15,.04,.17,.09,.24,.18,.77,.25,.21,.02-.05,.08,.26,.13,.1,.01,.31,.02,.34,.04,.02,.03-.14,.07,.07,.09,.53,.04,.95,.08,1.02,.15,.21,0,.46-.05,.71-.11-.2,0-.44,0-.45-.03-.04-.07-.34-.11-.69-.14-.35-.03-.35-.11-.8-.16,.12,0,.22-.01,.23-.03-.07-.04-.57-.03-.6-.06-.12-.05-.26-.1-.57-.16-.05,0-.09-.01-.23-.03Z"/><path class="cls-5" d="M11.44,63.67c-.21-.02-.05-.06-.07-.09-.03-.02-.23-.03-.34-.04-.31-.04-.05-.11-.26-.13-.53-.07-.6-.17-.77-.25-.02-.01-.08-.03-.15-.04,0,0-.01,.01-.03,.02-.02,.01,.17,.07,.26,.1,.05,.04-.07,.04-.19,.04h-.06s0,0,0,0h-.05s.11,.04,.11,.04c0,0,.01,0,.04,0h-.02s.09,.04,.12,.05c.02,.02,.06,.03,.1,.04,.03,0,.03,0,.06,0,0,0-.02,0-.04,0,.16,.05,.41,.09,.54,.14,.1,.05,.59,.09,.52,.15,.07,0,.16,.01,.23,0-.01,.01-.02,.02,0,.04,.07,.01,.15,.02,.17,.03-.01,.01-.07,0-.13,0h.02s.02,.01,.02,.01c.01,0,.05,0,.1,0,.04,0,.07-.02,.1-.03-.01,.01-.05,.02-.1,.03h-.05c.09,.02,.17,.03,.24,.04,.02,0,.03,0,.05,0-.01,0-.03,0-.04,0h.04c.07,0,.2-.03,.33-.05,.09,.03,.19,.03,.3,.03-.07-.08-.49-.11-1.02-.15Z"/></g></g><path class="cls-14" d="M21.39,61.52c-.05-.11-.12-.2-.23-.29-2.88-.52-7.87-2.81-8.07-2.9,0,0,.05-.05,.06-.06,.07-.1,.06-.23-.02-.31-.06-.06-.17-.11-.26-.14,.02,0,.06-.12,.06-.14,.02-.06,.02-.11,0-.17-.05-.21-.26-.33-.45-.38v-12.83c2.42-1.6,3.69-4.8,4.55-7.42,1.25-3.83,1.91-7.86,2.39-11.85,.49-4.1,.76-8.23,.91-12.36,.1-2.98,.14-5.96,.1-8.95,0-.16-.12-1.12-.11-1.7,.18-.13,.29-.28,.29-.44,0-1.27-6.45-1.6-9.85-1.6S.89,.33,.89,1.6c0,.13,.08,.25,.21,.36-.03,1.19-.05,2.38-.05,3.57,0,3.2,.06,6.4,.22,9.59,.19,3.98,.51,7.96,1.07,11.91,.52,3.68,1.21,7.4,2.49,10.9,.85,2.31,2.05,4.94,4.18,6.35v12.84c-.2,.05-.41,.17-.45,.38-.02,.06-.02,.11,0,.17,0,.02,.05,.14,.06,.14-.09,.03-.2,.08-.26,.14-.08,.08-.09,.21-.02,.31,0,0,.05,.07,.06,.06-.2,.09-5.19,2.39-8.07,2.9-.11,.09-.18,.18-.23,.29-.06,.11-.11,.21-.11,.32,0,1.53,5.51,2.34,10.75,2.35,5.24-.01,10.75-.82,10.75-2.35,0-.11-.05-.21-.11-.32ZM10.75,.38c6.22,0,9.48,.8,9.48,1.23s-3.25,1.23-9.48,1.23S1.27,2.03,1.27,1.6,4.53,.38,10.75,.38ZM1.78,2.32c1.88,.68,6.33,.88,8.97,.88s7.09-.2,8.97-.88c1.69,39.16-8.97,37.57-8.97,37.57,0,0-10.66,1.59-8.97-37.57Zm15.63,60.99c-1.75,.29-4.03,.49-6.66,.49-1.95,0-3.71-.11-5.2-.29,1.65-.02,3.34-.2,3.34-.2-2.4,.16-4.48-.3-5.7-.67,2.07,.38,4.85,.57,7.56,.57,2.5,0,5.05-.17,7.06-.49-.3,.19-.82,.39-1.66,.43,0,0,.43,.15,1.26,.16Zm-6.66-.47c-5.47,0-9.13-.71-10.16-1.37,.96-.26,4.92-1.29,7.99-3.05,.13,.04,.28,.05,.42,.06,.24,0,.41-.02,.41-.02-.3,.01-.6-.03-.86-.18-.16-.1-.11-.2-.05-.25,.1-.07,.21-.1,.31-.1,.24,0,.5,.06,.72-.02-.18,0-.36-.03-.54-.08-.13-.03-.37-.14-.26-.32,.03-.05,.08-.09,.12-.12,.03-.02,.06-.03,.11-.05,.13-.04,.26-.06,.39-.05v-12.78c.7,.4,1.41,.66,2.2,.32,.21-.09,.4-.22,.6-.34v12.8c.14,0,.27,0,.4,.05,.05,.02,.08,.03,.11,.05,.05,.03,.09,.08,.12,.12,.12,.17-.12,.29-.26,.32-.18,.05-.36,.08-.54,.08,.23,.08,.48,.02,.72,.02,.1,0,.2,.03,.31,.1,.06,.05,.11,.15-.05,.25-.26,.15-.56,.19-.86,.18,0,0,.17,.02,.41,.02,.14,0,.29-.02,.42-.06,3.08,1.76,7.03,2.8,7.99,3.05-1.03,.66-4.69,1.37-10.16,1.37Z"/><path class="cls-14" d="M10.72,57.62c-.93,0-1.56-.3-1.59-.32l.07-.14s1.4,.67,3.12,0l.06,.14c-.61,.24-1.17,.31-1.65,.31Z"/><path class="cls-14" d="M12.75,57.71s-.53,.25-2,.24c-1.48,.01-2-.24-2-.24l-.13,.1c.35,.21,2.13,.27,2.13,.27,0,0,1.78-.06,2.13-.27l-.13-.1Z"/><path class="cls-1" d="M.28,61.66c-.03,.06-.05,.12-.05,.17,0,.94,4.3,1.98,10.47,1.98s10.47-1.04,10.47-1.98c0-.02-.01-.04-.02-.06-1.46,.95-6.02,1.45-10.36,1.45s-9.24-.55-10.51-1.56Z"/><path class="cls-1" d="M9.34,57.8v-.5c-.13,0-.26,0-.39,.05-.05,.02-.08,.03-.11,.05-.05,.03-.09,.08-.12,.12-.12,.17,.12,.29,.26,.32,.18,.05,.36,.08,.54,.08-.23,.08-.48,.02-.72,.02-.1,0-.2,.03-.31,.1-.06,.05-.11,.15,.05,.25,.26,.15,.56,.19,.86,.18,0,0-.17,.02-.41,.02-.14,0-.29-.02-.42-.06-3.08,1.76-7.03,2.8-7.99,3.05,1.03,.66,4.69,1.37,10.16,1.37,5.47,0,9.13-.71,10.16-1.37-.96-.26-4.92-1.29-7.99-3.05-.13,.04-.28,.05-.42,.06-.24,0-.41-.02-.41-.02,.3,.01,.6-.03,.86-.18,.16-.1,.11-.2,.05-.25-.1-.07-.21-.1-.31-.1-.24,0-.5,.06-.72-.02,.18,0,.36-.03,.54-.08,.13-.03,.37-.14,.26-.32-.03-.05-.08-.09-.12-.12-.03-.02-.06-.03-.11-.05-.13-.04-.26-.06-.4-.05v.5h-2.81Z"/><path class="cls-1" d="M10.75,63.22c-4.34,0-8.89-.5-10.34-1.45-.02,.02-.03,.05-.03,.06,0,.93,4.25,1.96,10.37,1.98,6.12-.01,10.37-1.05,10.37-1.98,0-.02-.02-.05-.03-.06-1.45,.95-6,1.45-10.34,1.45Z"/><path class="cls-4" d="M7.44,38.52s-.06-.03-.13-.08c-.1-.06-.23-.15-.34-.22-.08-.05-.16-.11-.22-.15-.08-.06-.18-.13-.24-.18-.1-.08-.18-.14-.26-.2l-.26-.2c-.08-.06-.17-.11-.24-.11-.07,0-.14,.02-.2,.09-.06,.06-.1,.15-.12,.25-.02,.09-.03,.19-.02,.28,.01,.18,.05,.34,.08,.45,.03,.1,.04,.17,.04,.17,0,0-.04-.07-.09-.15-.05-.1-.13-.24-.17-.45-.02-.1-.03-.23-.01-.36,.02-.13,.06-.26,.14-.38,.08-.12,.22-.19,.35-.19,.13,0,.24,.07,.34,.14l.27,.22c.07,.06,.15,.14,.25,.22,.06,.06,.15,.14,.23,.21,.05,.05,.13,.13,.2,.2,.1,.1,.21,.22,.29,.31,.06,.07,.11,.12,.11,.12Z"/><path class="cls-4" d="M8.51,43.2s-.04-.03-.09-.08c-.06-.05-.14-.12-.23-.22-.05-.06-.11-.12-.14-.16-.05-.06-.11-.14-.15-.18-.06-.08-.11-.15-.15-.2l-.15-.22-.14-.22c-.03-.06-.07-.13-.12-.22-.03-.05-.07-.14-.1-.21-.02-.05-.05-.12-.08-.19-.05-.12-.08-.23-.11-.3-.02-.07-.03-.12-.03-.12,0,0,.03,.04,.07,.1,.05,.08,.11,.18,.17,.27,.04,.06,.08,.13,.11,.18,.04,.07,.09,.15,.12,.2,.05,.08,.1,.16,.13,.21l.14,.22,.14,.21c.04,.05,.08,.12,.14,.21,.03,.05,.08,.13,.13,.19,.03,.05,.07,.11,.12,.17,.06,.08,.12,.19,.17,.26,.04,.06,.06,.1,.06,.1Z"/><path class="cls-4" d="M5.36,35.95s-.05-.04-.11-.1c-.07-.06-.17-.15-.28-.27-.06-.07-.13-.14-.17-.2-.06-.08-.13-.17-.18-.23-.07-.1-.13-.19-.17-.26l-.16-.28-.14-.29c-.03-.08-.07-.18-.12-.29-.02-.07-.06-.18-.09-.28-.02-.07-.04-.16-.07-.25-.04-.16-.06-.29-.07-.38,0-.08-.02-.15-.02-.15,0,0,.02,.06,.06,.14,.04,.11,.1,.24,.14,.36,.04,.08,.07,.17,.1,.24,.04,.09,.09,.19,.12,.26,.05,.1,.1,.2,.13,.27l.14,.28,.15,.27c.04,.07,.09,.16,.15,.26,.04,.06,.1,.16,.15,.24,.04,.06,.09,.14,.14,.21,.07,.1,.15,.22,.22,.32,.05,.07,.08,.12,.08,.12Z"/><path class="cls-4" d="M15.84,37.1c-.13,0-.24,.07-.34,.14l-.27,.22c-.07,.06-.15,.14-.25,.22-.06,.06-.15,.14-.23,.21-.05,.05-.13,.13-.2,.2-.1,.1-.21,.22-.29,.31-.06,.07-.11,.12-.11,.12,0,0,.06-.03,.13-.08,.1-.06,.23-.15,.34-.22,.08-.05,.16-.11,.22-.15,.08-.06,.18-.13,.24-.18,.1-.08,.18-.14,.26-.2l.26-.2c.08-.06,.17-.11,.24-.11,.07,0,.14,.02,.2,.09,.06,.06,.1,.15,.12,.25,.02,.09,.03,.19,.02,.28-.01,.18-.05,.34-.08,.45-.03,.1-.04,.18-.04,.18,0,0,.04-.07,.09-.15,.05-.1,.13-.24,.17-.45,.02-.1,.03-.23,.01-.36-.02-.13-.06-.26-.14-.38-.08-.12-.22-.19-.35-.19Z"/><path class="cls-4" d="M14.34,41.25c-.04,.06-.08,.13-.11,.18-.04,.07-.09,.15-.12,.2-.05,.08-.1,.16-.13,.21l-.14,.22-.14,.21c-.04,.05-.08,.12-.14,.21-.03,.05-.08,.13-.13,.19-.03,.05-.07,.11-.12,.17-.06,.08-.12,.19-.17,.26-.04,.06-.06,.1-.06,.1,0,0,.04-.03,.09-.08,.06-.05,.14-.12,.23-.22,.05-.06,.11-.12,.14-.16,.05-.06,.11-.14,.15-.18,.06-.08,.11-.15,.15-.2l.15-.22,.14-.22c.03-.06,.07-.13,.12-.22,.03-.05,.07-.14,.1-.21,.02-.05,.05-.12,.08-.19,.05-.12,.08-.23,.11-.3,.02-.07,.03-.12,.03-.12,0,0-.03,.04-.07,.1-.05,.08-.11,.18-.17,.27Z"/><path class="cls-4" d="M17.78,33.12c-.04,.11-.1,.24-.14,.36-.04,.08-.07,.17-.1,.24-.04,.09-.09,.19-.12,.26-.05,.1-.1,.2-.13,.27l-.14,.28-.15,.27c-.04,.07-.09,.16-.15,.26-.04,.06-.1,.16-.15,.24-.04,.06-.09,.14-.14,.21-.07,.1-.15,.22-.22,.32-.05,.07-.08,.12-.08,.12,0,0,.05-.04,.11-.1,.07-.06,.17-.15,.28-.27,.06-.07,.13-.14,.17-.2,.06-.08,.13-.17,.18-.23,.07-.1,.13-.19,.17-.26l.16-.28,.14-.29c.03-.08,.07-.18,.12-.29,.02-.07,.06-.18,.09-.28,.02-.07,.04-.16,.07-.25,.04-.16,.06-.29,.07-.38,0-.08,.02-.15,.02-.15,0,0-.02,.06-.06,.14Z"/><path class="cls-4" d="M10.8,43.65c-.28,0-.57,0-.84-.06-.13-.03-.25-.07-.37-.13s-.2-.16-.29-.25c.02,.19-.05,.41,.04,.59,.06,.13,.2,.21,.34,.27,.35,.13,.73,.15,1.11,.15,.38,0,.76-.01,1.11-.14,.14-.05,.28-.13,.35-.27,.09-.18,0-.4,.04-.6-.09,.13-.22,.23-.37,.3s-.31,.1-.47,.12c-.21,.03-.43,.03-.66,.03Z"/><path class="cls-4" d="M14.77,38.89c-.66,.37-1.28,.82-1.94,1.18s-1.42,.64-2.18,.61c-.72-.03-1.41-.33-2.03-.69s-1.21-.8-1.86-1.13c-.19-.1-.42-.19-.63-.09-.19,.09-.18,.37-.11,.53,.07,.17,.2,.3,.34,.43,.83,.77,1.81,1.36,2.69,2.08,.23,.19,.46,.4,.57,.67,.05,.12,.08,.26,.18,.35,.1,.1,.26,.12,.4,.13,.41,.04,.82,.04,1.22,0,.14-.01,.29-.03,.39-.13,.09-.09,.12-.22,.17-.34,.11-.27,.33-.48,.56-.66,.91-.76,1.96-1.35,2.79-2.19,.11-.11,.21-.22,.27-.37s.05-.32-.06-.43c-.18-.2-.52-.09-.77,.05Z"/><path class="cls-14" d="M12.17,41.51c-.13-.13-.77-.18-1.24-.19-.03,0-.06,0-.09,0h-.1c-.5,0-1.46,.05-1.46,.24,0,.17,.75,.22,1.27,.24,.03,0,.06,0,.08,0h0s0,0,0,0c.03,0,.07,0,.1,0h.06s.08,0,.13,0c.02,0,.05,0,.07,0h0c.46-.01,1.05-.06,1.17-.18h0s.02-.03,.02-.05,0-.03-.02-.05Zm-2.84,.05s.02-.03,.07-.05c.16-.06,.61-.13,1.33-.13h.05c.89,0,1.35,.12,1.35,.18s-.46,.18-1.35,.18h-.05c-.72,0-1.17-.07-1.33-.13h0s-.07-.04-.07-.05Z"/><path class="cls-14" d="M11.69,41.96c-.1-.1-.43-.15-.74-.16,0,0-.02,0-.03,0-.05,0-.09,0-.14,0-.02,0-.04,0-.05,0-.05,0-.1,0-.16,0h0s-.02,0-.03,0c-.37,.02-.8,.08-.8,.23,0,.17,.59,.23,.98,.23,.02,0,.03,0,.05,0,.34,0,.78-.05,.9-.17,.02-.02,.03-.04,.03-.06s-.01-.04-.03-.06Zm-.95,.24c-.41,0-.71-.05-.85-.11-.05-.02-.08-.04-.08-.06s.03-.04,.08-.06c.13-.06,.44-.11,.85-.11,.02,0,.04,0,.05,0,.54,0,.88,.1,.88,.17s-.34,.17-.88,.17c-.02,0-.03,0-.05,0Z"/><g><path class="cls-14" d="M11.52,42.67s0,0-.01,0c0,0-.01,0-.02,0,0,0,0,0-.01,0-.02,0-.04-.01-.06-.01,0,0,0,0,0,0-.02,0-.04,0-.06-.01,0,0,0,0,0,0-.02,0-.03,0-.05,0,0,0,0,0,0,0h0s-.07,0-.1-.01c0,0,0,0,0,0h0c-.09,0-.18-.01-.27-.01-.04,0-.08,0-.12,0-.03,0-.06,0-.1,0-.09,0-.18,0-.26,.01h-.01s-.07,0-.1,.01c0,0,0,0,0,0h0s-.03,0-.05,0c0,0,0,0,0,0h0s-.04,0-.05,.01c0,0,0,0,0,0-.02,0-.04,.01-.06,.02,0,0,0,0,0,0,0,0-.01,0-.02,0,0,0,0,0,0,0h0s-.02,.02-.02,.03c0,0,0,.02,.01,.02,0,0,0,0,0,0,0,0,0,0,.01,0,0,0,0,0,0,0,.1,.04,.36,.06,.59,.07,.03,0,.07,0,.1,0,.04,0,.08,0,.12,0,.22,0,.48-.02,.6-.06,0,0,0,0,.01,0,0,0,0,0,.01,0,0,0,0,0,.01,0,.01,0,.02-.02,.02-.03,0-.01-.01-.03-.03-.04Zm-.74,.12s-.09,0-.14,0c-.03,0-.06,0-.09,0-.2-.01-.35-.03-.42-.05,0,0,0,0-.01,0-.01,0-.02,0-.02,0,0,0,0,0,0,0,0,0-.01-.01-.01-.01,0,0,0-.01,.03-.02,0,0,0,0,0,0,0,0,.02,0,.03,0,0,0,0,0,0,0,.02,0,.05-.01,.09-.02,0,0,0,0,0,0,.02,0,.05,0,.08-.01h0s0,0,0,0c.02,0,.05,0,.08,0h0s0,0,0,0c.03,0,.06,0,.09,0,.03,0,.06,0,.09,0h.02s.02,0,.03,0c.04,0,.09,0,.14,0,.06,0,.11,0,.16,0,0,0,.02,0,.03,0h.02s.06,0,.09,0c.04,0,.07,0,.1,0,0,0,0,0,.01,0,.03,0,.05,0,.08,0h0s0,0,0,0c.03,0,.06,0,.08,.01,0,0,0,0,.01,0,.03,0,.06,.01,.08,.02,0,0,0,0,.01,0,.01,0,.02,0,.03,0,0,0,0,0,.01,0,.02,0,.04,.02,.04,.02,0,0,0,.01-.02,.02,0,0,0,0-.01,0,0,0-.01,0-.02,0,0,0,0,0-.01,0-.08,.02-.23,.04-.43,.05-.03,0-.06,0-.09,0-.05,0-.1,0-.16,0Z"/><path class="cls-14" d="M11.25,42.45s-.05,0-.07,0c-.09,0-.19-.01-.28-.01-.04,0-.08,0-.12,0-.03,0-.06,0-.1,0-.09,0-.19,0-.28,.01-.03,0-.05,0-.07,0-.16,.02-.28,.05-.28,.09,0,0,0,0,0,.01,0,0,0,0,0,.01,0,0,0,0,0,0,0,0,0,0,.01,0,0,0,.02,.01,.03,.01h0s0,0,0,0c.01,0,.02,0,.03,0,0,0,0,0,.01,0h0s.08,.02,.13,.02h0s0,0,0,0c.03,0,.07,0,.1,.01h.01c.09,0,.18,.01,.26,.01,.03,0,.07,0,.1,0,.04,0,.08,0,.12,0,.09,0,.18,0,.27-.01h0s0,0,0,0c.04,0,.07,0,.1-.01h0s0,0,0,0c.05,0,.09-.01,.13-.02,0,0,0,0,0,0h0s.02,0,.03,0c0,0,0,0,.01,0,0,0,.02,0,.02,0h0s.01,0,.02,0c0,0,0,0,0,0,0,0,.01,0,.01-.01,0,0,0-.01,0-.02,0-.04-.13-.07-.3-.09Zm-.47,.18s-.09,0-.14,0c0,0-.02,0-.03,0h-.02s-.06,0-.09,0c-.03,0-.06,0-.09,0,0,0,0,0,0,0h0c-.07,0-.14-.01-.19-.02,0,0,0,0,0,0-.02,0-.03,0-.05-.01h0s0,0-.01,0c-.02,0-.04-.01-.05-.02,0,0,0,0,0,0,0,0-.01,0-.01,0,0,0,0,0,0,0h0s.08-.04,.23-.06c.02,0,.04,0,.07,0,.01,0,.03,0,.04,0,.07,0,.15-.01,.24-.01,.04,0,.09,0,.14,0,.06,0,.11,0,.16,0,.07,0,.13,0,.19,0,.02,0,.03,0,.05,0,.01,0,.03,0,.04,0,.2,.02,.31,.05,.31,.07,0,0,0,0,0,0s0,0,0,0c0,0,0,0-.01,0,0,0,0,0-.01,0-.01,0-.03,.01-.05,.01h0s0,0,0,0c-.01,0-.03,0-.05,0,0,0,0,0-.01,0-.05,0-.12,.02-.19,.02,0,0,0,0-.01,0-.03,0-.06,0-.1,0-.03,0-.06,0-.09,0h-.02s-.02,0-.03,0c-.05,0-.1,0-.16,0Z"/><path class="cls-14" d="M11.53,42.74s0,0-.01,0c0,0,0,0-.01,0,0,0,0,0-.01,0-.02,0-.04-.01-.07-.02,0,0,0,0-.01,0-.02,0-.03,0-.05-.01,0,0,0,0,0,0h0s-.1-.01-.16-.02c0,0,0,0-.01,0-.05,0-.11,0-.16-.01,0,0-.01,0-.02,0-.03,0-.07,0-.1,0-.04,0-.08,0-.12,0-.03,0-.06,0-.1,0-.03,0-.07,0-.1,0,0,0,0,0,0,0-.06,0-.11,0-.16,.01,0,0,0,0-.01,0-.06,0-.11,.01-.16,.02,0,0,0,0,0,0-.02,0-.03,0-.05,.01,0,0,0,0-.01,0-.03,0-.05,.01-.07,.02,0,0,0,0,0,0,0,0,0,0-.01,0,0,0,0,0,0,0-.01,0-.01,.01-.01,.02,0,.05,.19,.09,.41,.1,.07,0,.15,0,.22,.01,.03,0,.07,0,.1,0,.04,0,.08,0,.12,0,.07,0,.15,0,.22-.01,.22-.01,.43-.05,.43-.1,0-.01,0-.02-.02-.03Zm-.41,.11s-.08,0-.12,0c-.02,0-.04,0-.07,0-.05,0-.1,0-.16,0-.05,0-.09,0-.14,0-.02,0-.04,0-.07,0-.04,0-.08,0-.12,0,0,0,0,0,0,0-.04,0-.09,0-.12-.01-.16-.02-.26-.05-.26-.07,0,0,0,0,.01-.01,0,0,0,0,0,0,0,0,.01,0,.02,0,0,0,0,0,0,0,.03,0,.06-.02,.1-.02,0,0,0,0,0,0,.02,0,.05,0,.08-.01,0,0,0,0,0,0,.03,0,.07,0,.1-.01,.04,0,.08,0,.13,0h.02s.04,0,.06,0c.04,0,.09,0,.14,0,.06,0,.11,0,.16,0,.03,0,.05,0,.07,0,0,0,0,0,.01,0,.05,0,.09,0,.13,0,.04,0,.08,0,.11,.01,0,0,0,0,.01,0,.03,0,.05,0,.07,.01,0,0,0,0,.01,0,.04,0,.08,.01,.1,.02,0,0,0,0,.01,0,0,0,.02,0,.02,0,0,0,0,0,.01,0,.01,0,.02,.01,.02,.02,0,.02-.1,.05-.28,.07-.04,0-.08,0-.12,.01,0,0,0,0,0,0Z"/><path class="cls-14" d="M11.54,42.56s0,0-.01-.01h0s-.01,0-.02-.01h0c-.09-.04-.29-.06-.5-.07-.04,0-.08,0-.11,0-.04,0-.08,0-.12,0-.03,0-.06,0-.1,0-.04,0-.08,0-.11,0-.21,.01-.42,.03-.49,.07,0,0,0,0-.01,0,0,0,0,0,0,0,0,0,0,0,0,0,0,0,0,0,0,.01,0,0,0,.02,.01,.02,0,0,0,0,0,0,0,0,0,0,.01,0,0,0,0,0,.01,0,.02,0,.04,.01,.07,.02,0,0,0,0,.01,0,.02,0,.03,0,.05,.01h0s0,0,0,0c.05,0,.1,.01,.16,.02,0,0,0,0,.01,0,.05,0,.11,0,.16,.01,0,0,0,0,0,0,.03,0,.07,0,.1,0s.07,0,.1,0c.04,0,.08,0,.12,0,.03,0,.07,0,.1,0,0,0,.01,0,.02,0,.05,0,.11,0,.16-.01,0,0,0,0,.01,0,.06,0,.11-.01,.16-.02,0,0,0,0,.01,0,.02,0,.04,0,.05,0,0,0,0,0,.01,0,.03,0,.05-.01,.07-.02,0,0,0,0,.01,0,0,0,0,0,.01,0,0,0,0,0,.01,0,.01,0,.02-.02,.02-.03,0,0,0-.01,0-.02Zm-1.05,.1s-.06,0-.09,0c-.03,0-.05,0-.07,0,0,0,0,0-.01,0-.03,0-.05,0-.08-.01,0,0,0,0-.01,0-.04,0-.08-.01-.1-.02,0,0,0,0,0,0-.01,0-.02,0-.02,0,0,0,0,0,0,0,0,0-.01,0-.01-.01h0s0,0,0,0c0,0,0,0,.01,0,0,0,0,0,0,0,.05-.02,.19-.05,.4-.06h.05s.07,0,.1,0c.04,0,.09,0,.14,0,.06,0,.11,0,.16,0,.04,0,.07,0,.1,0,.02,0,.03,0,.05,0,.2,.01,.34,.03,.41,.06,0,0,0,0,.01,0,0,0,0,0,.01,0,0,0,0,0,0,0,0,0,0,0,0,0,0,0,0,.01-.02,.02,0,0,0,0-.01,0,0,0-.01,0-.02,0,0,0,0,0-.01,0-.03,0-.06,.01-.1,.02,0,0,0,0-.01,0h0s-.05,0-.08,.01c0,0,0,0-.01,0h0c-.05,0-.11,.01-.17,.01-.02,0-.04,0-.07,0,0,0,0,0-.01,0-.02,0-.05,0-.07,0-.05,0-.1,0-.16,0-.05,0-.09,0-.14,0-.02,0-.04,0-.06,0h-.02s-.04,0-.07,0Z"/><path class="cls-14" d="M11.53,42.61s0,0-.01,0c0,0,0,0-.01,0,0,0,0,0-.01,0,0,0,0,0-.01,0,0,0,0,0-.01,0-.01,0-.02,0-.03,0h0s0,0,0,0c-.09-.02-.21-.03-.33-.04-.04,0-.08,0-.13,0-.02,0-.05,0-.07,0-.04,0-.08,0-.12,0-.03,0-.06,0-.1,0-.02,0-.05,0-.07,0-.04,0-.08,0-.13,0-.12,0-.24,.02-.32,.04h0s0,0-.01,0c-.01,0-.02,0-.03,0,0,0,0,0,0,0h0s0,0-.01,0c0,0,0,0,0,0,0,0,0,0-.01,0,0,0,0,0,0,0,0,0-.01,.02-.01,.02,0,.01,0,.02,.02,.03,0,0,0,0,0,0,0,0,.01,0,.02,0,0,0,0,0,0,0,.02,0,.04,.01,.06,.02,0,0,0,0,.01,0,.02,0,.03,0,.05,.01h0s0,0,0,0c.12,.02,.29,.03,.44,.03,.03,0,.07,0,.1,0,.04,0,.08,0,.12,0,.15,0,.32-.01,.45-.03,0,0,0,0,.01,0,.02,0,.04,0,.05-.01,0,0,0,0,.01,0,.02,0,.04-.01,.06-.02,0,0,0,0,.01,0,0,0,.01,0,.01,0h0s0,0,.01,0c.02-.01,.03-.02,.03-.04,0-.01,0-.02-.02-.03Zm-.75,.12s-.09,0-.14,0c-.06,0-.12,0-.18,0-.05,0-.1,0-.14-.01,0,0,0,0,0,0-.03,0-.05,0-.08-.01,0,0,0,0,0,0t0,0s-.06-.01-.08-.02c0,0,0,0,0,0-.01,0-.02,0-.03,0,0,0,0,0,0,0-.02,0-.03-.01-.03-.02,0,0,0,0,.01-.01,0,0,0,0,0,0,0,0,.01,0,.02,0,0,0,0,0,.01,0,0,0,.01,0,.02,0,0,0,0,0,.01,0h0s.03,0,.05-.01c0,0,0,0,0,0,.09-.01,.21-.03,.36-.03,.02,0,.04,0,.07,0,.04,0,.09,0,.14,0,.06,0,.11,0,.16,0,.02,0,.05,0,.07,0,.15,0,.28,.02,.37,.03,0,0,0,0,.01,0,.02,0,.03,0,.05,0,0,0,0,0,0,0h0s.02,0,.02,0c0,0,0,0,.01,0,0,0,.02,0,.02,0,0,0,0,0,.01,0,.01,0,.02,.01,.02,.02,0,0-.01,.02-.04,.02,0,0,0,0-.01,0,0,0-.02,0-.03,0,0,0,0,0-.01,0-.02,0-.05,.01-.08,.01,0,0,0,0-.01,0-.02,0-.05,0-.08,.01,0,0,0,0-.01,0-.04,0-.09,0-.15,.01-.05,0-.11,0-.18,0-.05,0-.1,0-.16,0Z"/></g><path class="cls-14" d="M10.93,41.32s-.06,0-.09,0h-.04c-.47,0-1.26,.04-1.4,.19-.01,.01-.02,.03-.02,.05s0,.03,.02,.05h0c.13,.12,.71,.17,1.17,.19h0s.04,0,.05,0h.02c.05,0,.1,0,.15,0h.04s.07,0,.11,0c.03,0,.05,0,.08,0,.52-.01,1.27-.07,1.27-.24,0-.18-.85-.23-1.37-.24Zm1.24,.28h0c-.16,.06-.61,.13-1.33,.13h-.05c-.89,0-1.35-.12-1.35-.18s.46-.17,1.35-.18h.05c.72,0,1.17,.07,1.33,.13,.05,.02,.07,.03,.07,.05s-.02,.03-.07,.05Z"/><path class="cls-14" d="M11.03,41.79s-.02,0-.03,0h0c-.05,0-.11,0-.16,0-.02,0-.03,0-.05,0-.04,0-.09,0-.13,0,0,0-.01,0-.02,0h0s0,0,0,0c-.31,.01-.64,.06-.75,.16-.02,.02-.03,.04-.03,.06s.01,.04,.03,.06c.12,.12,.56,.16,.9,.17,.02,0,.04,0,.05,0,.39,0,.98-.06,.98-.23,0-.14-.42-.21-.79-.23Zm.66,.29c-.13,.06-.44,.11-.85,.11-.02,0-.04,0-.05,0-.54,0-.88-.1-.88-.17s.34-.17,.88-.17c.02,0,.03,0,.05,0,.41,0,.71,.05,.85,.11,.05,.02,.08,.04,.08,.06s-.03,.04-.08,.06Z"/><g><path class="cls-14" d="M11.51,42.68h0s0,0,0,0c0,0-.01,0-.02,0,0,0,0,0-.01,0-.02,0-.04-.01-.06-.02,0,0,0,0,0,0-.02,0-.04,0-.05-.01h0s0,0,0,0c-.02,0-.03,0-.05,0h0s0,0-.01,0c-.03,0-.07,0-.1-.01,0,0,0,0,0,0-.09,0-.18-.01-.26-.01-.04,0-.08,0-.12,0-.03,0-.06,0-.1,0-.09,0-.18,0-.27,.01h0s0,0,0,0c-.04,0-.07,0-.1,.01h0s0,0,0,0c-.02,0-.04,0-.05,0,0,0,0,0,0,0-.02,0-.04,0-.06,.01,0,0,0,0,0,0-.02,0-.04,0-.06,.01,0,0,0,0-.01,0,0,0-.01,0-.02,0,0,0,0,0-.01,0-.02,.01-.03,.02-.03,.04,0,.01,0,.02,.02,.03,0,0,0,0,.01,0,0,0,0,0,.01,0,0,0,0,0,.01,0,.11,.04,.37,.06,.6,.07,.03,0,.07,0,.1,0,.04,0,.08,0,.12,0,.23,0,.48-.03,.59-.07,0,0,0,0,0,0,0,0,.01,0,.01,0,0,0,0,0,0,0,0,0,.01-.02,.01-.02,0-.01,0-.02-.02-.03Zm-.57,.12c-.05,0-.1,0-.16,0-.05,0-.09,0-.14,0-.03,0-.06,0-.09,0-.2,0-.35-.03-.43-.05,0,0,0,0-.01,0,0,0-.02,0-.02,0,0,0,0,0-.01,0-.01,0-.02-.01-.02-.02,0,0,.01-.02,.04-.02,0,0,0,0,.01,0,0,0,.02,0,.03,0,0,0,0,0,.01,0,.02,0,.05-.01,.08-.02,0,0,0,0,0,0h0s.05,0,.08-.01c0,0,0,0,0,0,.02,0,.05,0,.08,0h0s.07,0,.1,0c.03,0,.06,0,.09,0h.02s.02,0,.03,0c.04,0,.09,0,.14,0,.06,0,.11,0,.16,0,0,0,.02,0,.03,0h.02s.06,0,.09,0c.03,0,.06,0,.09,0,0,0,0,0,0,0h0s.05,0,.08,0c0,0,0,0,0,0h0s.06,0,.08,.01c0,0,0,0,0,0,.03,0,.06,.01,.09,.02,0,0,0,0,.01,0,.01,0,.02,0,.03,0,0,0,0,0,.01,0,.02,0,.03,.01,.03,.02,0,0,0,0-.01,.01,0,0,0,0,0,0,0,0-.01,0-.02,0,0,0,0,0-.01,0-.08,.02-.22,.04-.42,.05-.03,0-.06,0-.09,0Z"/><path class="cls-14" d="M11.25,42.45s-.05,0-.07,0c-.09,0-.19-.01-.28-.01-.04,0-.08,0-.12,0-.03,0-.06,0-.1,0-.09,0-.19,0-.28,.01-.03,0-.05,0-.07,0-.17,.02-.3,.05-.3,.09,0,0,0,.01,.01,.02,0,0,0,0,.01,0,0,0,0,0,0,0,0,0,0,0,.01,0h0s.02,0,.03,.01c0,0,0,0,0,0h0s.02,0,.03,0h0s0,0,0,0c.04,0,.08,.02,.13,.02,0,0,0,0,0,0h0s.07,0,.1,.01c0,0,0,0,0,0h0c.09,0,.18,.01,.27,.01,.03,0,.07,0,.1,0,.04,0,.08,0,.12,0,.09,0,.18,0,.26-.01,0,0,0,0,0,0,.04,0,.07,0,.1-.01,0,0,0,0,.01,0h0s.09-.01,.13-.02h0s0,0,.01,0c.01,0,.02,0,.03,0,0,0,0,0,.01,0,.01,0,.02,0,.03-.01,0,0,0,0,.01,0,0,0,0,0,0,0,0,0,0,0,0-.01,0,0,0,0,0,0,0-.04-.12-.07-.28-.09Zm-.29,.18s-.02,0-.03,0c-.05,0-.1,0-.16,0-.05,0-.09,0-.14,0,0,0-.02,0-.03,0h-.02s-.06,0-.09,0c-.04,0-.07,0-.1,0h0c-.07,0-.14-.01-.19-.02,0,0,0,0-.01,0-.02,0-.03,0-.05,0,0,0,0,0,0,0h0s-.04,0-.05-.01c0,0,0,0-.01,0,0,0,0,0-.01,0,0,0,0,0,0,0,0,0,0,0,0,0,0-.02,.09-.05,.25-.06,.02,0,.04,0,.07,0,.01,0,.03,0,.04,0,.07,0,.15-.01,.24-.01,.04,0,.09,0,.14,0,.06,0,.11,0,.16,0,.07,0,.13,0,.19,0,.02,0,.03,0,.05,0,.01,0,.03,0,.04,0,.18,.02,.29,.05,.29,.07h0s0,0,0,0c0,0,0,0-.01,0,0,0,0,0-.01,0-.01,0-.03,.01-.05,.02,0,0,0,0-.01,0h0s-.03,0-.05,0c0,0,0,0-.01,0-.05,0-.11,.02-.19,.02h0s0,0,0,0c-.03,0-.06,0-.09,0-.03,0-.06,0-.09,0h-.02Z"/><path class="cls-14" d="M11.52,42.75s0,0,0,0c0,0,0,0-.01,0,0,0,0,0,0,0-.02,0-.04-.02-.07-.02,0,0,0,0-.01,0-.02,0-.03,0-.05-.01,0,0,0,0-.01,0-.05,0-.1-.01-.16-.02,0,0,0,0-.01,0-.05,0-.11,0-.16-.01,0,0,0,0,0,0-.03,0-.07,0-.1,0-.04,0-.08,0-.12,0-.03,0-.06,0-.1,0-.03,0-.07,0-.1,0h-.02c-.05,0-.11,0-.16,.01,0,0,0,0,0,0-.06,0-.11,.01-.16,.02t0,0s0,0,0,0c-.02,0-.03,0-.05,.01,0,0,0,0-.01,0-.03,0-.05,.01-.07,.02,0,0,0,0-.01,0,0,0,0,0-.01,0,0,0,0,0-.01,0-.01,0-.02,.02-.02,.03,0,.06,.2,.09,.43,.1,.07,0,.15,0,.22,.01,.03,0,.07,0,.1,0,.04,0,.08,0,.12,0,.07,0,.15,0,.22-.01,.22-.02,.41-.05,.41-.1,0,0,0-.02-.01-.02Zm-.39,.1s0,0,0,0c-.04,0-.08,0-.12,0-.02,0-.04,0-.07,0-.05,0-.1,0-.16,0-.05,0-.09,0-.14,0-.02,0-.04,0-.07,0-.04,0-.08,0-.12,0,0,0,0,0,0,0-.04,0-.09,0-.12-.01-.18-.02-.28-.04-.28-.07,0,0,0-.01,.02-.02,0,0,0,0,.01,0,0,0,.01,0,.02,0,0,0,0,0,0,0,.03,0,.06-.01,.1-.02,0,0,0,0,0,0h0s.05,0,.07-.01c0,0,0,0,.01,0,.03,0,.07,0,.11-.01,.04,0,.08,0,.13,0,0,0,0,0,.01,0,.02,0,.05,0,.07,0,.04,0,.09,0,.14,0,.06,0,.11,0,.16,0,.02,0,.04,0,.06,0,0,0,.01,0,.02,0,.05,0,.09,0,.13,0,.04,0,.07,0,.1,.01,0,0,0,0,.01,0,.03,0,.05,0,.07,.01,0,0,0,0,0,0,.04,0,.08,.01,.1,.02,0,0,0,0,.01,0,0,0,.02,0,.02,0,0,0,0,0,0,0,0,0,.01,0,.01,.01,0,.02-.09,.05-.26,.07-.04,0-.08,0-.12,.01Z"/><path class="cls-14" d="M11.53,42.57s0,0,0,0c0,0,0,0,0,0,0,0,0,0-.01,0-.07-.04-.28-.06-.49-.07-.04,0-.08,0-.11,0-.04,0-.08,0-.12,0-.03,0-.06,0-.1,0-.04,0-.08,0-.11,0-.2,0-.41,.03-.5,.07h0s-.01,0-.02,0c0,0,0,0,0,0,0,0,0,0-.01,.01,0,0-.01,.01-.01,.02,0,.01,0,.02,.02,.03,0,0,0,0,.01,0,0,0,0,0,.01,0,0,0,0,0,.01,0,.02,0,.04,.01,.07,.02,0,0,0,0,.01,0,.02,0,.03,0,.05,0,0,0,0,0,.01,0,.05,0,.1,.01,.16,.02,0,0,0,0,0,0,.05,0,.11,0,.16,.01h.02s.07,0,.1,0,.07,0,.1,0c.04,0,.08,0,.12,0,.03,0,.07,0,.1,0,0,0,0,0,0,0,.05,0,.11,0,.16-.01,0,0,0,0,.01,0,.06,0,.11-.01,.16-.02,0,0,0,0,.01,0,.02,0,.04,0,.05-.01,0,0,0,0,.01,0,.03,0,.05-.01,.07-.02,0,0,0,0,.01,0,0,0,0,0,.01,0,0,0,0,0,0,0,0,0,.01-.02,.01-.02,0,0,0,0,0-.01Zm-.53,.09s-.04,0-.06,0c-.05,0-.1,0-.16,0-.05,0-.09,0-.14,0-.03,0-.05,0-.07,0,0,0,0,0-.01,0-.02,0-.04,0-.07,0-.03,0-.06,0-.09,0-.03,0-.06,0-.08,0h0s0,0,0,0c-.03,0-.05,0-.08-.01h0s0,0,0,0c-.04,0-.08-.01-.1-.02,0,0,0,0,0,0,0,0-.02,0-.02,0,0,0,0,0-.01,0-.01,0-.02-.01-.02-.02,0,0,0,0,0,0,0,0,0,0,0,0,0,0,0,0,.01,0,0,0,0,0,.01,0,.06-.02,.2-.05,.41-.06h.05s.07,0,.1,0c.04,0,.09,0,.14,0,.06,0,.11,0,.16,0,.04,0,.07,0,.1,0,.02,0,.03,0,.05,0,.2,.01,.34,.04,.39,.06,0,0,0,0,0,0,0,0,0,0,.01,0,0,0,0,0,0,0h0s0,0,0,0c0,0,0,0-.01,.01,0,0,0,0,0,0,0,0-.01,0-.02,0,0,0,0,0-.01,0-.03,0-.06,.02-.1,.02,0,0,0,0-.01,0-.02,0-.05,0-.08,.01h0s0,0-.01,0c-.05,0-.1,.01-.16,.01-.02,0-.04,0-.07,0,0,0-.01,0-.02,0Z"/><path class="cls-14" d="M11.52,42.61s0,0,0,0c0,0,0,0-.01,0,0,0,0,0,0,0,0,0,0,0-.01,0,0,0,0,0-.01,0-.01,0-.02,0-.03,0,0,0,0,0-.01,0h0c-.08-.02-.2-.03-.32-.04-.04,0-.08,0-.13,0-.02,0-.05,0-.07,0-.04,0-.08,0-.12,0-.03,0-.06,0-.1,0-.02,0-.05,0-.07,0-.04,0-.08,0-.13,0-.13,0-.25,.02-.33,.04,0,0,0,0,0,0h0s-.02,0-.03,0h0s0,0,0,0c0,0,0,0-.01,0,0,0,0,0-.01,0,0,0,0,0-.01,0,0,0,0,0-.01,0-.01,0-.02,.02-.02,.03,0,.01,.01,.03,.03,.04,0,0,0,0,.01,0h0s0,0,.01,0c0,0,0,0,.01,0,.02,0,.04,.01,.06,.02,0,0,0,0,.01,0,.02,0,.03,0,.05,.01,0,0,0,0,.01,0,.13,.02,.3,.03,.45,.03,.03,0,.07,0,.1,0,.04,0,.08,0,.12,0,.15,0,.32-.01,.44-.03,0,0,0,0,.01,0,.02,0,.04,0,.05-.01,0,0,0,0,.01,0,.02,0,.04-.01,.06-.02,0,0,0,0,.01,0,0,0,.01,0,.02,0,0,0,0,0,.01,0,.01,0,.02-.02,.02-.03,0,0,0-.02-.01-.02Zm-.58,.11c-.05,0-.1,0-.16,0-.05,0-.09,0-.14,0-.06,0-.12,0-.18,0-.05,0-.1,0-.15-.01,0,0,0,0-.01,0-.03,0-.05,0-.08-.01,0,0,0,0-.01,0-.03,0-.06-.01-.08-.01,0,0,0,0-.01,0-.01,0-.02,0-.03,0,0,0,0,0-.01,0-.02,0-.04-.02-.04-.02,0,0,0-.01,.02-.02,0,0,0,0,0,0,0,0,.01,0,.02,0,0,0,0,0,.01,0,0,0,.01,0,.02,0h0s0,0,0,0c.01,0,.03,0,.05,0,0,0,0,0,.01,0,.09-.01,.21-.03,.37-.03,.02,0,.04,0,.07,0,.04,0,.09,0,.14,0,.06,0,.11,0,.16,0,.02,0,.05,0,.07,0,.15,0,.27,.02,.36,.03,0,0,0,0,.01,0,.02,0,.03,0,.05,0h0s0,0,.01,0c0,0,.02,0,.02,0,0,0,0,0,.01,0,0,0,.02,0,.02,0,0,0,0,0,0,0,0,0,.01,0,.01,.01,0,0,0,.01-.03,.02,0,0,0,0-.01,0,0,0-.02,0-.03,0,0,0,0,0,0,0-.02,0-.05,.01-.08,.02h0s0,0-.01,0c-.02,0-.05,0-.08,.01,0,0,0,0,0,0-.04,0-.09,0-.14,.01-.05,0-.11,0-.18,0Z"/></g><path class="cls-14" d="M8.64,59.44s-.06,.06-.14,.13c-.11,.09-.26,.22-.38,.32-.09,.07-.19,.15-.26,.21-.1,.08-.22,.16-.3,.22-.12,.09-.23,.16-.33,.23l-.34,.23-.38,.18c-.13,.05-.25,.1-.38,.14-.13,.04-.25,.07-.37,.1-.12,.03-.23,.04-.34,.06-.21,.03-.38,.03-.51,.02-.11-.01-.19-.02-.19-.02,0,0,.08-.02,.19-.04,.12-.03,.28-.07,.48-.13,.11-.04,.22-.08,.31-.1,.12-.05,.24-.1,.34-.13,.13-.06,.25-.11,.35-.16l.36-.18,.34-.22c.1-.06,.21-.13,.33-.21,.09-.05,.21-.12,.32-.19,.08-.04,.19-.1,.29-.16,.15-.07,.31-.16,.44-.23,.1-.05,.17-.08,.17-.08Z"/><path class="cls-14" d="M9.78,59.46s-.03,.03-.06,.08c-.05,.06-.12,.13-.17,.19-.04,.05-.09,.1-.11,.13-.04,.05-.1,.11-.13,.14-.06,.06-.11,.11-.14,.15l-.15,.15-.16,.14s-.1,.08-.17,.13c-.04,.03-.11,.07-.17,.1-.05,.03-.11,.06-.16,.08-.1,.05-.19,.07-.25,.09-.05,.01-.1,.02-.1,.02,0,0,.04-.02,.09-.05,.05-.03,.13-.08,.22-.14,.05-.04,.1-.07,.14-.1,.05-.04,.11-.09,.15-.12,.06-.05,.12-.1,.15-.13l.16-.14,.15-.14s.09-.08,.15-.14c.04-.03,.1-.08,.15-.13,.03-.03,.09-.07,.13-.11,.07-.05,.15-.11,.21-.15,.05-.03,.08-.05,.08-.05Z"/><path class="cls-14" d="M11.81,59.35s.04,.04,.09,.09c.07,.07,.16,.15,.24,.22,.06,.05,.12,.1,.16,.14,.06,.05,.14,.11,.19,.15,.08,.06,.15,.11,.21,.15l.22,.14,.23,.13c.06,.03,.14,.07,.22,.12,.05,.03,.14,.07,.22,.1,.05,.02,.13,.05,.2,.09,.1,.04,.21,.08,.3,.12,.07,.03,.12,.04,.12,.04,0,0-.05,0-.13,0-.08,0-.19-.02-.33-.05-.07-.01-.14-.03-.22-.06-.08-.03-.18-.06-.24-.08-.09-.04-.18-.08-.24-.11l-.24-.13-.23-.16c-.05-.04-.12-.1-.21-.17-.04-.04-.12-.12-.18-.18-.05-.06-.1-.11-.15-.17-.09-.11-.15-.2-.19-.27-.03-.06-.06-.11-.06-.11Z"/><path class="cls-14" d="M11.53,59.61s.02,.02,.04,.05c.03,.04,.07,.09,.11,.13,.03,.03,.05,.07,.07,.09,.03,.03,.06,.08,.08,.1,.04,.05,.06,.08,.08,.11l.09,.11,.09,.1s.05,.06,.09,.1c.02,.02,.06,.06,.09,.09,.02,.02,.05,.05,.08,.07,.04,.03,.09,.07,.13,.1,.03,.02,.05,.04,.05,.04,0,0-.03,0-.06-.02-.04-.01-.1-.04-.16-.07-.04-.02-.07-.05-.1-.06-.04-.03-.08-.06-.1-.08-.04-.04-.08-.08-.1-.1l-.1-.11-.09-.11s-.04-.06-.08-.11c-.02-.03-.04-.07-.07-.11-.01-.03-.04-.06-.06-.1-.02-.05-.05-.11-.08-.15-.01-.03-.03-.06-.03-.06Z"/><g class="cls-15"><g class="cls-15"><path class="cls-6" d="M4.95,62.11h-.08s0,0-.03,.01c-.1,0,.2,.05,.53,.07,.02-.02-.09-.03-.42-.08Z"/><polygon class="cls-8" points="3.88 61.57 3.78 61.53 3.79 61.54 3.88 61.57"/><path class="cls-6" d="M4.08,61.83c.18,.08,.31,.11,.45,.14-.08-.03-.14-.05-.17-.08-.07-.04-.14-.07-.2-.1-.06-.02-.14-.05-.21-.09,.04,.02,.03,.02,.09,.04-.05-.02-.16-.07-.16-.07,.02,.02,.23,.14,.38,.18-.09-.03-.22-.07-.32-.11l.08,.05c.05,.02,.09,.04,.11,.05l-.06-.02Z"/><path class="cls-6" d="M6.11,62.32h-.05c-.08,0-.14,0-.21,.01l.17,.02h.12s.02,0,.02,0c0,0-.02,0-.05,0h0s.1,0,.1,0h-.03c.1,0,.2,0,.22-.01-.02-.01-.17-.02-.3-.03Z"/><path class="cls-7" d="M7.73,62.35s0-.02,.02-.04c-.23,0-.18,0-.41,0,.13-.06-.76-.09-.94-.12-.24-.04-.71-.04-1-.09-.06,0-.05,.01-.17,0,.07,.01,.16,.02,.25,.02,.02,0,.03,0,.06,0-.02,0-.04,0-.06,0-.13,0-.17,0-.22,0,.03,0,.05,0,.04,0-.03,0-.05,0-.05,0,.28,.05,.53,.07,.54,.12h.08c.33,.02,.43,.03,.42,.05,.13,0,.28,0,.55,.01,.19,.02,.42,.04,.65,.06,.06,0,.13,0,.21-.01h.05Z"/><path class="cls-12" d="M17.88,60.63c-.09-.04-.77,.08-1.48,.27-.73,.19-1.46,.37-2.24,.52,.12,0,.04,.06-.3,.14-.17,.04-.49,.08-.56,.1-.4,.09-.51,.13-1,.2,.09,0,.1,.02,.2,0,.28-.01,.62-.06,1.03-.15,.12-.03,.36-.04,.09,.02,.35-.06,.58-.12,.83-.17,.73-.17,.26,0,.5-.02,.04,0,.1,0,.17-.02,.5-.15,.96-.31,1.44-.47,.22-.06,.17-.05,.4-.1,.42-.13,.98-.32,.93-.33Z"/><path class="cls-9" d="M11.09,61.85c.2-.02,.34-.04,.43-.05-.23,0-.46,0-.68,0l-.18,.03c.17,0,.32,0,.43,.01Z"/><path class="cls-9" d="M14.48,61.7c.06-.04-.14,0-.3,0-.35,.09-.59,.13-.79,.13-.01,.01-.16,.03-.22,.04,.01-.01-.12,0,0-.03-.12,.03-.25,.03-.32,.05-.19,.02,.15-.04,.02-.04-.66,.14-1.21,.11-.97,.05,.09-.03,.26-.06,.37-.09,.1-.04,.43-.06,.68-.09-.07,0-.42,.03-.23,0,.18-.04,.39-.08,.51-.12-.5,.09-1.11,.18-1.39,.19h-.31c-.1,.02-.23,.04-.43,.06-.11-.01-.26-.02-.43-.01-.07,.01-.13,.02-.16,.03-.16,.04,.46,0,.62,.02-.66,.05-.77,.11-.54,.14,.16,.02,.33,.03,.61,.03,.15,0,.35-.02,.53-.04-.06,0-.24,.03-.19,.03,.33-.01,.48,0,.92-.05-.02,0,.03,0-.09,.03,.24-.04,.1,.02,.34-.03,.12,0,.08,.05,.41,0,.15-.02,.14-.02,.22-.04,.36-.08,.64-.14,.77-.17,.12-.03,.33-.08,.6-.14-.1,.02-.18,.04-.2,.04Z"/><path class="cls-13" d="M14.96,61.55c-.24,.02,.23-.15-.5,.02-.26,.06-.49,.12-.83,.17,.27-.06,.03-.05-.09-.02-.4,.09-.75,.14-1.03,.15-.1,.01-.11,0-.2,0,.49-.08,.6-.12,1-.2,.07-.02,.39-.05,.56-.1,.34-.08,.41-.14,.3-.14-.3,.05-.58,.11-.85,.16-.02,0-.05,0-.08,.01-.12,.04-.33,.08-.51,.12-.19,.04,.16,0,.23,0-.24,.03-.58,.05-.68,.09-.1,.04-.28,.07-.37,.09-.24,.06,.31,.09,.97-.05,.13,0-.2,.06-.02,.04,.07-.02,.2-.03,.32-.05-.12,.03,.01,.02,0,.03,.06-.01,.2-.03,.22-.04,.2,0,.45-.04,.79-.13,.16,0,.36-.05,.3,0,.02,0,.1-.01,.2-.04,.13-.04,.27-.08,.44-.12-.07,.01-.12,.02-.17,.02Z"/><path class="cls-2" d="M13.09,62.01c-.32,.05-.29,0-.41,0-.24,.04-.1-.02-.34,.03,.12-.02,.07-.02,.09-.03-.44,.06-.58,.04-.92,.05-.04,0,.13-.03,.19-.03-.18,.03-.38,.04-.53,.04-.28,0-.45-.01-.61-.03-.23-.03-.12-.09,.54-.14-.16-.01-.78,.01-.62-.02,.03,0,.09-.02,.16-.03-.73,.03-.98,.04-1.46,.05-.01,.01,0,.02,.07,.02,.55,.03,.23,.09,.66,.12,.16,0,.3,0,.38,0,.2,.02-.02,.06,.18,.09-.02,0,.32-.02,.35,0,.11,.01,.05,.05,.3,.04,.68-.02,.89,0,1.18,.01,.34-.06,.64-.12,.98-.2-.09,.01-.07,.01-.22,.04Z"/><path class="cls-11" d="M5.83,61.78c-.21,0-.32,0-.39,0,.56,.04,.85,.07,1.07,.12,.07,.01,1,0,1.12,.04-.03,.02-.21,.02-.43,.03,.84,.05,.82,.13,1.46,.18,.64,.05,1.17,.1,1.23,.18,.02,.03,.45,.04,.81,.04,.14-.02,.29-.03,.42-.05-.2,0-.37-.02-.42-.03-.12-.06-.4-.09-1.11-.12-.23,0-.06-.07-.19-.08-.5-.05-.75-.11-1.09-.17-.07-.02-.21-.03-.38-.05-.26,0-.28,0-.91,0-.89,0-.62-.08-1.19-.07Z"/><path class="cls-3" d="M11.14,62.16c-.25,0-.19-.03-.3-.04-.03,0-.37,.02-.35,0-.2-.02,.02-.06-.18-.09-.08,0-.21,0-.38,0-.43-.04-.12-.09-.66-.12-.07,0-.09-.01-.07-.02h0c.07-.02-.22-.02-.29-.02-.37,0-.51,0-.8-.02-.07,0-.12,0-.17,0,.17,.02,.32,.04,.38,.05,.34,.06,.59,.12,1.09,.17,.13,.01-.04,.07,.19,.08,.71,.02,.99,.05,1.11,.12,.05,.02,.21,.03,.42,.03,.13-.02,.25-.03,.35-.04,.12-.01,.29-.01,.29-.01,.21-.02,.39-.05,.57-.08-.29-.01-.5-.03-1.18-.01Z"/><path class="cls-10" d="M5.03,61.74c-.09,0-.19-.02-.22-.02-.2-.03-.17-.04-.26-.07h.04s-.04,0-.06,0c.08,.04,.14,.07,.13,.09,.12,.02,.22,.04,.27,.06,.31,.1,.46,.2,1.44,.22,.39,.01-.07,.09,.49,.11,.19,0,.55,0,.61,.03,.04,.03-.25,.07,.13,.09,.95,.05,1.7,.11,1.82,.18,.38,0,.84-.03,1.29-.08-.36,0-.79-.01-.81-.04-.06-.07-.59-.13-1.23-.18-.64-.04-.62-.13-1.46-.18,.22,0,.4-.01,.43-.03-.12-.04-1.05-.02-1.12-.04-.22-.05-.51-.07-1.07-.12-.15,0-.28-.02-.41-.03Z"/><path class="cls-5" d="M7.58,62.25c-.38-.02-.09-.06-.13-.09-.05-.02-.42-.02-.61-.03-.57-.03-.1-.1-.49-.11-.98-.02-1.13-.12-1.44-.22-.04-.02-.15-.03-.27-.06,0,0-.02,.01-.05,.01-.04,.01,.31,.1,.47,.13,.09,.04-.12,.04-.34,.03h-.1s-.01,0-.01,0h-.08c.06,.01,.13,.03,.2,.05,0,0,.03,0,.08,.01-.01,0-.03,0-.04,0,.07,.02,.14,.04,.22,.06,.04,.02,.1,.03,.19,.05,.05,0,.06,0,.11,0-.01,0-.04,0-.08,0,.29,.05,.76,.06,1,.1,.18,.04,1.07,.06,.94,.12,.23,0,.18,0,.41,0-.03,.01-.03,.02-.02,.04,.12,.01,.27,.02,.3,.03-.02,.01-.12,0-.22,0h.03s.03,.01,.03,.01c.03,0,.09,0,.17,0,.06,0,.13-.02,.18-.03-.02,.01-.09,.02-.18,.03h-.09c.15,.02,.3,.03,.42,.04,.03,0,.06,0,.09,0-.02,0-.05,0-.08,0h.06c.12,0,.36-.02,.59-.03,.15,.03,.34,.04,.54,.04-.12-.08-.87-.14-1.82-.18Z"/></g></g><g class="cls-15"><g class="cls-15"><path class="cls-6" d="M11.29,47.34s0-.04,0-.06c0,0-.02,0-.03-.02-.01-.07-.02,.14-.02,.38,.02,.01,.04-.07,.05-.3Z"/><path class="cls-8" d="M11.49,46.46s0-.06-.01-.08c0,0,0,0,0,0,0,.02,0,.05,.01,.07Z"/><path class="cls-6" d="M11.35,46.68c0,.15,0,.24,0,.34,0-.06,.02-.11,.03-.14,.01-.04,.02-.1,.04-.16,0-.05,0-.11,0-.17t0,.07s0-.13,0-.13c-.01,.02-.02,.2-.02,.32,0-.07-.01-.17-.02-.25,0,.02,0,.05-.01,.07,0,.03,0,.06,0,.09v-.04Z"/><path class="cls-6" d="M11.12,48.18s0-.02,0-.04c0-.05-.01-.1-.01-.15,0,.04-.01,.08-.02,.12,0,.03,0,.06,0,.09,0,0,0,0,0,.01,0,0,0-.01,0-.04,0,0,0,0,0,0,0,.02,0,.05,0,.07,0,0,0-.01,0-.02,0,.07,0,.14,0,.16,.01-.02,.02-.12,.03-.21Z"/><path class="cls-7" d="M11.09,49.36s.02,0,.04,.01c0-.09,.01-.21,0-.3,.06,.09,.09-.55,.13-.68,.04-.17,.05-.51,.08-.73,0-.04-.02-.04-.02-.13,0,.05,0,.11,0,.18,0,.01,0,.03,0,.04,0-.01,0-.03,0-.04,0-.05,0-.1,0-.16,0,.02,0,.03,0,.03,0-.01,0-.02,0-.04-.03,.2-.06,.38-.1,.39,0,.02,0,.04,0,.06-.01,.24-.03,.31-.05,.3,0,.14,0,.3-.01,.4-.02,.17-.04,.32-.06,.47,0,.05,0,.1,.01,.15,0,.01,0,.02,0,.04Z"/><path class="cls-12" d="M11.37,56.83c.06-.05,.14-.55,.14-1.09,0-.55,.02-1.1,.02-1.68-.03,.08-.06,.02-.08-.23,0-.13,.01-.36,0-.41-.02-.3-.05-.38-.06-.74,0,.06-.03,.07-.03,.14-.02,.2-.03,.45,0,.75,0,.09-.03,.26-.04,.06,0,.25,0,.43,0,.62,0,.54-.05,.18-.09,.36,0,.03-.02,.07-.02,.12,.03,.38,.06,.73,.09,1.09,0,.09-.01,.21,0,.3,.01,.32,.04,.75,.07,.71Z"/><path class="cls-9" d="M11.52,51.8c0,.1,.01,.21,.02,.32,.01-.17,.02-.33,.04-.5,0-.04-.01-.09-.02-.13,0,.13-.02,.24-.04,.31Z"/><path class="cls-9" d="M11.2,54.25s.03-.1,.06-.21c-.02-.26-.01-.44,.02-.58,0-.01,0-.12,0-.16,0,.01,.02-.08,.03,0,0-.09,0-.18,0-.23,.01-.14,.02,.11,.04,.02-.04-.48,.02-.88,.06-.7,.02,.07,.03,.2,.05,.27,.03,.08,.01,.32,0,.5,.02-.05,.02-.3,.04-.16,.01,.14,.02,.29,.04,.38,0-.37-.02-.82-.01-1.02,0-.08,.01-.15,.02-.23,0-.11-.01-.22-.02-.32,.02-.08,.03-.19,.04-.31,0-.05-.02-.09-.02-.12-.03-.12-.03,.34-.05,.45-.02-.48-.07-.56-.11-.4-.03,.11-.04,.24-.06,.44,0,.11,0,.25,0,.38,0-.04-.01-.17-.02-.14-.02,.24-.05,.34-.04,.66,0-.01-.01,.02-.02-.07,.01,.17-.03,.07-.02,.24-.02,.08-.06,.05-.06,.29,0,.07,0,.12,0,.16,.01,.17,.02,.35,.03,.56,0,.15,0,.3,.02,.45,0-.07,0-.13,0-.14Z"/><path class="cls-13" d="M11.23,54.61c.03-.18,.1,.18,.09-.36,0-.19-.01-.36,0-.62,0,.2,.04,.03,.04-.06-.02-.3-.01-.55,0-.75,0-.07,.02-.08,.03-.14,.01,.36,.04,.44,.06,.74,.01,.05-.01,.28,0,.41,.02,.25,.05,.32,.08,.23,0-.21,0-.42,0-.63,0-.02,0-.04,0-.06-.02-.09-.03-.24-.04-.38-.02-.14-.03,.11-.04,.16,0-.18,.02-.42,0-.5-.03-.08-.04-.21-.05-.27-.04-.18-.11,.22-.06,.7-.01,.09-.03-.15-.04-.02,.01,.05,0,.15,0,.23,0-.09-.02,0-.03,0,0,.04,0,.15,0,.16-.03,.14-.04,.32-.02,.58-.03,.11-.03,.26-.06,.21,0,.01,0,.07,0,.14,0,.11,.01,.22,.02,.33,0-.05,.01-.09,.02-.12Z"/><path class="cls-2" d="M11.15,53.23c0-.23,.04-.21,.06-.29-.01-.17,.03-.07,.02-.24,0,.09,.01,.05,.02,.07-.01-.32,.02-.42,.04-.66,0-.03,.01,.1,.02,.14,0-.13,0-.28,0-.38,.02-.2,.04-.32,.06-.44,.04-.16,.1-.08,.11,.4,.03-.11,.03-.57,.05-.45,0,.02,.02,.07,.02,.12,.01-.31,0-.73-.01-1.06-.01-.01-.02,0-.02,.05-.04,.4-.09,.17-.13,.48,0,.06-.02,.24-.02,.27-.03,.14-.06-.02-.09,.12,0-.01,0,.23,0,.25-.02,.08-.05,.04-.06,.21-.02,.49-.07,.64-.11,.85,.02,.25,.04,.47,.06,.72,0-.05,0-.1,0-.16Z"/><path class="cls-11" d="M11.67,47.98c0-.1,0-.2,0-.29-.03,.43-.06,.63-.11,.79-.02,.05,0,.72-.04,.81-.02-.02-.03-.15-.03-.31-.05,.61-.13,.6-.18,1.06-.05,.46-.12,.84-.19,.89-.03,.01-.05,.32-.07,.58,0,.1,.02,.2,.02,.3,.02-.14,.04-.26,.06-.3,.07-.09,.11-.28,.15-.8,.01-.17,.07-.04,.09-.14,.06-.36,.12-.55,.18-.79,.02-.05,.04-.15,.05-.28,0-.22,0-.44,0-.66,0-.64,.08-.45,.07-.86Z"/><path class="cls-3" d="M11.2,51.82c0-.18,.04-.13,.06-.21,.01-.02,0-.27,0-.25,.03-.14,.06,.02,.09-.12,0-.03,.01-.21,.02-.27,.04-.31,.1-.08,.13-.48,0-.05,.01-.06,.02-.05,0,0,0,0,0,0,.02,.05,.02-.16,.02-.21,0-.27,.01-.37,.02-.58,0-.04,0-.08,0-.12-.02,.13-.04,.23-.05,.28-.06,.25-.12,.43-.18,.79-.01,.09-.07-.03-.09,.14-.04,.52-.08,.71-.15,.8-.02,.03-.04,.15-.06,.3,0,.08,.01,.17,.02,.25,0,.09-.01,.21-.01,.21,0,.15,.01,.28,.02,.41,.04-.21,.09-.36,.11-.85Z"/><path class="cls-10" d="M11.66,47.37c0-.06,0-.12,0-.18,0-.16,.01-.14,.01-.21v.03s0-.03,0-.05c-.02,.07-.04,.12-.06,.11,0,.1,0,.18-.01,.21-.06,.25-.14,.36-.17,1.07-.01,.28-.09-.05-.12,.36-.01,.14-.01,.4-.03,.44-.03,.03-.07-.18-.09,.09-.04,.69-.11,1.23-.19,1.32,0,.27,.02,.6,.04,.93,.02-.26,.04-.57,.07-.58,.07-.04,.14-.43,.19-.89,.05-.46,.13-.45,.18-1.06,0,.16,.01,.29,.03,.31,.04-.09,.02-.76,.04-.81,.05-.16,.09-.36,.11-.79,0-.11,0-.22,0-.32Z"/><path class="cls-5" d="M11.18,49.25c.02-.27,.06-.07,.09-.09,.02-.04,.02-.3,.03-.44,.03-.41,.1-.07,.12-.36,.04-.71,.11-.82,.17-1.07,0-.04,.01-.12,.01-.21,0,0-.02-.01-.02-.03-.02-.02-.04,.25-.05,.37-.03,.07-.05-.09-.07-.25,0-.02,0-.05-.01-.07,0,0,0,0,0,0,0-.02,0-.04,0-.06,0,.05-.01,.11-.02,.15,0,.02,0,.04,0,.06,0,0,0-.02,0-.03-.01,.07-.02,.12-.04,.16-.01,.03-.02,.08-.03,.14,0,.03,0,.05,0,.08,0-.03,0-.04,0-.06-.03,.22-.04,.55-.08,.73-.04,.13-.06,.78-.13,.68,0,.09-.01,.21,0,.3-.01-.02-.02-.02-.04-.01-.01,.09-.02,.2-.03,.21-.01-.02,0-.09,0-.16,0,0,0,.01,0,.02,0,0,0,.02,0,.02,0,.04,0,.09,0,.13,0,.04,.02,.09,.03,.13-.01-.02-.02-.07-.03-.13,0-.02,0-.04-.01-.06-.01,.09-.02,.19-.03,.3,0,.02,0,.04,0,.06,0-.02,0-.04,0-.06,0,.01,0,.03,0,.05,0,.09,.02,.26,.03,.43-.03,.11-.04,.24-.05,.39,.08-.08,.15-.63,.19-1.32Z"/></g></g><g class="cls-15"><g class="cls-15"><path class="cls-6" d="M14.09,33.87l-.06,.11s.03,.02,.04,.06c-.03,.14,.16-.27,.37-.72-.03-.03-.12,.1-.35,.55Z"/><polygon class="cls-8" points="12.93 35.39 12.87 35.56 12.88 35.54 12.93 35.39"/><path class="cls-6" d="M13.39,35.09c.15-.27,.22-.45,.31-.66-.07,.11-.13,.19-.18,.24-.06,.06-.13,.16-.22,.28-.04,.09-.09,.22-.15,.33q.04-.06,.07-.14c-.03,.08-.1,.25-.1,.25,.04-.03,.22-.36,.32-.59-.06,.14-.14,.34-.2,.5l.09-.12c.04-.08,.07-.14,.09-.17l-.03,.08Z"/><path class="cls-6" d="M15.11,32.37l-.04,.07c-.04,.12-.07,.21-.09,.31l.13-.23c.02-.06,.04-.12,.06-.18l.02-.02s0,.03-.01,.08h0s.07-.14,.07-.14l-.03,.03c.06-.14,.13-.28,.12-.33-.03,.03-.14,.24-.23,.4Z"/><path class="cls-7" d="M16.05,30.02s-.05,0-.06-.05c-.05,.18-.17,.42-.21,.6-.04-.23-.57,1.05-.74,1.28-.21,.31-.51,.97-.74,1.37-.03,.09,0,.08-.08,.26,.06-.1,.12-.21,.17-.35,0-.02,.02-.05,.03-.08-.01,.03-.02,.06-.03,.08-.04,.1-.08,.2-.13,.32,.02-.04,.04-.06,.04-.05,0,.02-.02,.05-.03,.08,.23-.36,.42-.71,.51-.69l.05-.11c.22-.46,.31-.6,.34-.56,.08-.2,.18-.43,.33-.79,.13-.26,.29-.59,.45-.91,.02-.1,.05-.2,.08-.31l.03-.07Z"/><path class="cls-12" d="M17.88,14.25c-.14,.12-.23,1.18-.27,2.3-.04,1.15-.14,2.31-.28,3.52,.08-.17,.13-.03,.1,.5,0,.27-.11,.75-.11,.87-.05,.63,0,.81-.12,1.57,.04-.13,.08-.14,.11-.29,.11-.41,.2-.94,.24-1.58,0-.18,.12-.55,.09-.11,.08-.53,.09-.9,.13-1.3,.08-1.15,.14-.38,.24-.75,.02-.06,.04-.15,.06-.25,0-.81-.03-1.56-.07-2.33,0-.18,.03-.45,.02-.63-.02-.68-.1-1.59-.15-1.51Z"/><path class="cls-9" d="M16.6,24.78c.02-.21,.06-.43,.1-.66-.1,.34-.19,.68-.28,1.01l-.03,.28c.08-.26,.14-.48,.21-.63Z"/><path class="cls-9" d="M18.02,19.73c-.05-.11-.09,.21-.17,.44-.03,.55-.07,.93-.18,1.23,.01,.03-.03,.25-.04,.34-.01-.03-.07,.17-.05-.02-.01,.18-.07,.38-.06,.49-.06,.28,0-.24-.06-.04-.07,1.03-.36,1.83-.37,1.45-.01-.15,.02-.42,0-.59-.02-.17,.1-.67,.16-1.04-.05,.1-.14,.63-.13,.33,.02-.29,.04-.61,.04-.81-.09,.78-.22,1.72-.32,2.14l-.12,.47c-.04,.23-.07,.46-.1,.66-.07,.15-.13,.37-.21,.63,0,.11-.02,.2-.01,.25,0,.26,.22-.67,.31-.9-.18,1-.14,1.19,.03,.87,.11-.22,.2-.47,.32-.88,.06-.22,.13-.53,.16-.8-.01,.09-.05,.36-.03,.3,.14-.5,.23-.7,.33-1.38,.01,.03,.03-.04,.01,.15,.04-.37,.08-.14,.12-.5,.07-.17,.14-.1,.21-.59,.03-.2,.03-.22,.05-.34,.04-.55,.08-.97,.09-1.21,.03-.33,.06-.64,.06-.95-.01,.15-.02,.29-.04,.31Z"/><path class="cls-13" d="M18.02,18.97c-.1,.37-.16-.4-.24,.75-.04,.4-.06,.77-.13,1.3,.03-.43-.08-.07-.09,.11-.05,.64-.13,1.17-.24,1.58-.03,.15-.07,.16-.11,.29,.11-.76,.06-.94,.12-1.57,0-.12,.1-.59,.11-.87,.02-.53-.03-.67-.1-.5-.06,.43-.1,.87-.17,1.32,0,.04-.01,.08-.02,.13,0,.2-.02,.52-.04,.81,0,.3,.08-.23,.13-.33-.06,.37-.18,.87-.16,1.04,.02,.17,0,.44,0,.59,0,.38,.3-.42,.37-1.45,.05-.19,0,.33,.06,.04,0-.12,.05-.31,.06-.49-.01,.18,.04-.01,.05,.02,0-.09,.05-.31,.04-.34,.11-.3,.15-.68,.18-1.23,.08-.23,.12-.55,.17-.44,.01-.02,.03-.15,.04-.31,0-.2,.01-.44,.02-.71-.02,.11-.04,.19-.06,.25Z"/><path class="cls-2" d="M17.86,21.92c-.06,.5-.14,.43-.21,.59-.03,.37-.08,.14-.12,.5,.02-.18,0-.12-.01-.15-.1,.68-.19,.88-.33,1.38-.02,.06,.01-.21,.03-.3-.04,.27-.11,.58-.16,.8-.12,.41-.21,.66-.32,.88-.17,.32-.21,.13-.03-.87-.09,.23-.32,1.16-.31,.9,0-.05,0-.14,.01-.25-.17,.63-.35,1.49-.53,2.18,.02,.03,.04,.01,.08-.09,.29-.79,.27-.29,.53-.91,.07-.24,.14-.44,.18-.55,.13-.28,.11,.07,.24-.22,0,.03,.11-.49,.14-.52,.08-.16,.12-.05,.21-.42,.26-1.02,.4-1.32,.57-1.74,.06-.53,.07-1.01,.11-1.54-.02,.12-.02,.14-.05,.34Z"/><path class="cls-11" d="M13.93,32.35c-.11,.28-.17,.44-.22,.57,.38-.81,.63-1.16,.83-1.45,.07-.09,.53-1.42,.66-1.58,.01,.06-.06,.32-.16,.64,.51-1.18,.67-1.11,1.04-2.02,.38-.91,.72-1.67,.89-1.72,.07,0,.26-.65,.43-1.18,.03-.22,.06-.44,.09-.65-.1,.29-.19,.54-.25,.6-.18,.15-.35,.54-.71,1.58-.12,.34-.16,.05-.24,.24-.31,.71-.55,1.05-.82,1.51-.06,.09-.16,.28-.28,.52-.16,.43-.29,.88-.47,1.3-.46,1.27-.48,.82-.79,1.63Z"/><path class="cls-3" d="M17.23,24.87c-.09,.37-.13,.26-.21,.42-.03,.04-.13,.55-.14,.52-.13,.29-.11-.07-.24,.22-.04,.12-.1,.32-.18,.55-.26,.62-.23,.12-.53,.91-.04,.1-.06,.12-.08,.09h0c-.01-.11-.13,.32-.17,.42-.16,.53-.25,.74-.4,1.16-.03,.09-.06,.17-.09,.24,.12-.24,.22-.43,.28-.52,.27-.46,.5-.79,.82-1.51,.08-.19,.12,.1,.24-.24,.36-1.04,.52-1.43,.71-1.58,.06-.06,.15-.3,.25-.6,.03-.2,.06-.38,.08-.53,.02-.18,.11-.44,.11-.44,.05-.32,.08-.61,.11-.88-.17,.42-.3,.72-.57,1.74Z"/><path class="cls-10" d="M13.43,33.52c-.06,.14-.11,.28-.14,.34-.13,.31-.13,.25-.2,.39l.04-.06s-.03,.06-.05,.09c.1-.12,.17-.2,.2-.17,.08-.18,.16-.34,.21-.4,.33-.42,.57-.58,1.2-1.94,.24-.56,.12,.17,.48-.62,.12-.26,.32-.79,.39-.86,.08-.03,0,.41,.23-.13,.57-1.36,1-2.45,1.2-2.59,.18-.57,.3-1.26,.41-1.97-.17,.52-.36,1.17-.43,1.18-.17,.05-.5,.81-.89,1.72-.37,.91-.53,.83-1.04,2.02,.1-.32,.17-.59,.16-.64-.13,.16-.59,1.49-.66,1.58-.2,.28-.45,.64-.83,1.45-.09,.19-.16,.35-.28,.6Z"/><path class="cls-5" d="M15.79,30.17c-.23,.54-.15,.1-.23,.13-.07,.06-.26,.6-.39,.86-.36,.79-.25,.07-.48,.62-.63,1.36-.87,1.52-1.2,1.94-.05,.06-.12,.21-.21,.4,.01,.01,.02,.04,.02,.08,0,.06,.28-.45,.42-.67,.12-.12,.02,.21-.08,.54l-.04,.15h-.01s-.04,.14-.04,.14c.06-.09,.11-.18,.17-.28,0-.02,.02-.04,.06-.11,0,.02-.01,.04-.02,.06,.08-.12,.15-.22,.21-.29,.05-.05,.11-.13,.18-.24,.03-.06,.04-.09,.07-.16,0,.02-.02,.06-.04,.12,.25-.39,.54-1.05,.75-1.36,.18-.23,.71-1.51,.75-1.28,.05-.18,.17-.42,.22-.6,.01,.04,.03,.06,.06,.05,.08-.17,.18-.39,.21-.42,0,.04-.05,.19-.11,.33l.03-.04,.02-.05s.04-.13,.07-.26c.02-.1,.03-.2,.04-.29,0,.04-.01,.15-.04,.29l-.02,.14c.08-.18,.17-.38,.26-.6,.01-.04,.02-.09,.03-.14,0,.03-.02,.08-.03,.12l.03-.09c.04-.18,.13-.54,.21-.9,.13-.21,.23-.48,.33-.78-.2,.13-.64,1.23-1.2,2.59Z"/></g></g><g class="cls-15"><g class="cls-15"><path class="cls-6" d="M8.79,36.54l.03,.04s.03-.02,.06-.02c.06,.03-.05-.12-.17-.29-.04,.02-.02,.09,.08,.27Z"/><polygon class="cls-8" points="8.95 37.4 9.01 37.44 9.01 37.43 8.95 37.4"/><path class="cls-6" d="M9.05,37.06c-.07-.11-.13-.16-.19-.23,.02,.05,.03,.1,.03,.13,0,.04,.01,.1,.03,.16,.03,.03,.07,.07,.1,.11t-.04-.05s.09,.08,.09,.08c0-.03-.08-.16-.15-.24,.05,.04,.11,.1,.17,.15l-.02-.06s-.04-.06-.05-.07l.03,.03Z"/><path class="cls-6" d="M8.62,35.76v.03s.08,.06,.11,.09l-.04-.1-.06-.05v-.02s.02,0,.04,.02h0s-.02-.06-.02-.06v.02c-.04-.05-.06-.11-.09-.11,0,.02,.03,.11,.06,.18Z"/><path class="cls-7" d="M8.09,34.9s-.03,.03-.06,.03c.05,.05,.09,.16,.14,.21-.15,0,.13,.49,.14,.63,.03,.17,.18,.42,.24,.6,.03,.02,.04,0,.09,.07-.02-.05-.05-.09-.09-.13,0,0-.01-.01-.02-.02,.01,.01,.02,.02,.02,.02,.06,.07,.07,.08,.09,.11,0-.02-.01-.03,0-.03,0,0,.02,.01,.03,.02-.06-.17-.11-.33-.05-.39l-.03-.04c-.1-.18-.11-.25-.08-.27-.07-.1-.14-.22-.18-.3-.06-.14-.1-.26-.14-.4-.03-.03-.06-.05-.1-.09v-.03Z"/><path class="cls-12" d="M4.42,29.57c-.1,.09-.05,.55,.15,.98,.19,.44,.39,.88,.62,1.34,.01-.09,.1-.07,.24,.1,.07,.09,.13,.29,.17,.32,.17,.21,.24,.24,.43,.5-.01-.06,.02-.08-.01-.14-.05-.17-.15-.37-.31-.58-.05-.06-.06-.23,.04-.08-.09-.2-.18-.32-.26-.47-.23-.41,.02-.19,.01-.36,0-.03,0-.07-.01-.11-.2-.26-.4-.5-.58-.77-.04-.06-.06-.17-.1-.24-.14-.24-.35-.56-.38-.51Z"/><path class="cls-9" d="M6.21,33.6c-.06-.06-.12-.14-.18-.22,.06,.14,.11,.28,.17,.41l.09,.08c-.05-.1-.08-.19-.08-.27Z"/><path class="cls-9" d="M5.7,31.43c-.07,0-.02,.11-.02,.22,.14,.18,.2,.32,.21,.46,.02,0,.05,.09,.08,.12-.02,0,0,.08-.05,.02,.05,.06,.06,.14,.11,.17,.04,.11-.08-.06-.07,.02,.28,.32,.35,.68,.2,.59-.06-.03-.13-.12-.21-.15-.08-.03-.16-.23-.22-.38,0,.06,.09,.26,0,.17-.08-.09-.17-.2-.23-.25,.16,.28,.4,.61,.47,.77l.08,.19c.06,.08,.12,.15,.18,.22,0,.08,.03,.17,.08,.27,.04,.03,.07,.05,.1,.06,.11,.06-.11-.28-.11-.39,.25,.34,.38,.34,.37,.18,0-.11-.04-.22-.09-.39-.04-.08-.1-.2-.17-.28,.02,.03,.1,.11,.09,.09-.08-.2-.07-.31-.23-.53,.02,0,.01-.03,.06,.03-.1-.12,.02-.08-.08-.2,0-.08,.09-.1-.02-.28-.03-.05-.05-.08-.07-.12-.09-.11-.19-.24-.28-.4-.04-.06-.11-.17-.21-.32,.03,.06,.05,.1,.04,.12Z"/><path class="cls-13" d="M5.5,31.18c0,.17-.24-.05-.01,.36,.08,.15,.17,.26,.26,.47-.1-.15-.09,.02-.04,.08,.17,.21,.26,.41,.31,.58,.03,.06,0,.08,.01,.14-.18-.26-.26-.29-.43-.5-.04-.03-.1-.23-.17-.32-.14-.18-.22-.19-.24-.1,.09,.18,.18,.35,.26,.5,0,.01,.02,.03,.03,.05,.07,.06,.16,.16,.23,.25,.09,.09,0-.11,0-.17,.06,.14,.14,.34,.22,.38,.08,.03,.15,.12,.21,.15,.15,.09,.09-.27-.2-.59-.02-.08,.11,.09,.07-.02-.04-.03-.06-.11-.11-.17,.05,.06,.03-.03,.05-.02-.02-.03-.06-.11-.08-.12,0-.14-.07-.28-.21-.46,0-.11-.06-.23,.02-.22,0-.01-.02-.06-.04-.12-.05-.07-.1-.15-.17-.23,.01,.04,.02,.08,.01,.11Z"/><path class="cls-2" d="M6.21,32.15c.11,.17,.02,.19,.02,.28,.1,.12-.02,.08,.08,.2-.05-.06-.04-.03-.06-.03,.16,.23,.14,.34,.23,.53,0,.03-.07-.06-.09-.09,.07,.09,.14,.2,.17,.28,.06,.17,.08,.28,.09,.39,0,.16-.13,.16-.37-.18,0,.11,.22,.45,.11,.39-.03,0-.06-.03-.1-.06,.12,.25,.35,.54,.53,.78,.02,0,.03-.02,.01-.07-.13-.33,.07-.22,0-.5-.01-.06-.09-.2-.09-.22-.02-.14,.12-.05,.1-.19,.02,0-.11-.17-.1-.19,0-.08,.07-.08,0-.22-.18-.39-.16-.55-.18-.74-.13-.14-.29-.33-.42-.47,.02,.04,.04,.07,.07,.12Z"/><path class="cls-11" d="M7.85,36.56c.1,.12,.14,.17,.16,.2-.18-.33-.23-.52-.24-.69,0-.06-.37-.52-.35-.63,.04,0,.12,.08,.21,.19-.23-.49-.08-.58-.23-.96-.15-.38-.2-.74-.1-.85,.05-.04-.07-.29-.15-.5-.06-.07-.12-.13-.18-.2,.03,.12,.06,.23,.04,.28-.08,.13-.07,.33,.11,.74,.05,.14-.1,.11-.08,.19,.07,.33,.07,.52,.09,.78,0,.05,.02,.15,.05,.26,.11,.16,.22,.32,.32,.49,.34,.45,.1,.42,.33,.7Z"/><path class="cls-3" d="M6.74,33.25c.07,.14,0,.14,0,.22-.01,.03,.12,.2,.1,.19,.02,.14-.12,.05-.1,.19,0,.03,.08,.17,.09,.22,.07,.28-.12,.16,0,.5,.02,.04,0,.06-.01,.07h0c-.06-.01,.04,.14,.07,.18,.13,.19,.16,.28,.25,.45,.03,.04,.04,.07,.06,.09-.03-.11-.05-.21-.05-.26-.02-.25-.02-.44-.09-.78-.02-.08,.13-.05,.08-.19-.18-.41-.19-.61-.11-.74,.02-.05,0-.15-.04-.28-.05-.06-.1-.12-.14-.17-.05-.06-.07-.17-.07-.17-.07-.11-.15-.2-.22-.28,.01,.2,0,.36,.18,.74Z"/><path class="cls-10" d="M8.18,36.98s.09,.1,.11,.11c.1,.11,.06,.11,.1,.16v-.03s0,.02,.02,.04c-.01-.07,0-.13,.03-.15-.05-.07-.09-.13-.09-.16-.03-.25,.02-.42-.29-.96-.13-.22,.17-.06,0-.39-.05-.11-.19-.3-.17-.35,.04-.06,.2,.05,.1-.17-.27-.54-.41-1-.32-1.15-.11-.21-.3-.41-.5-.63,.08,.21,.19,.45,.15,.5-.1,.11-.05,.47,.1,.85,.15,.38,0,.47,.23,.96-.09-.11-.17-.19-.21-.19-.02,.11,.35,.57,.35,.63,0,.17,.05,.36,.24,.69,.04,.06,.07,.1,.17,.23Z"/><path class="cls-5" d="M7.98,35.09c.1,.22-.06,.11-.1,.17-.02,.06,.11,.24,.17,.35,.16,.32-.13,.17,0,.39,.31,.54,.26,.71,.29,.96,0,.04,.04,.1,.09,.16,.01,0,.03-.01,.06,0,.04,0-.08-.22-.12-.33,0-.09,.13,0,.25,.08l.06,.03h0s.05,.04,.05,.04l-.05-.13s0-.01-.03-.04l.02,.02c-.02-.06-.03-.11-.03-.16,0-.04,0-.08-.02-.13-.02-.03-.02-.03-.04-.06,.02,.02,.03,.03,.04,.04-.07-.18-.22-.44-.25-.6,0-.14-.29-.62-.14-.62-.05-.05-.09-.16-.14-.21,.03,0,.05-.01,.06-.03-.03-.08-.06-.16-.05-.19,.03,0,.05,.06,.08,.11v-.02s0-.02,0-.02c-.02-.03-.05-.06-.07-.08-.04-.02-.07-.04-.11-.06,.02,0,.06,.03,.11,.06l.05,.03c-.04-.09-.07-.17-.1-.24l-.04-.04,.03,.04-.02-.04c-.05-.05-.16-.16-.26-.27,0-.11-.04-.22-.1-.33-.09,.14,.05,.61,.32,1.15Z"/></g></g></g></g></svg>