<?xml version="1.0" encoding="UTF-8"?><svg id="Layer_2" xmlns="http://www.w3.org/2000/svg" viewBox="0 0 31.41 101.43"><defs><style>.cls-1{fill:#fff;}.cls-2{fill:#fcecbb;}.cls-3{fill:#7bcb79;}.cls-4{fill:#bb6125;}.cls-5{fill:#d7c724;}.cls-6{fill:#231f20;}</style></defs><g id="Moscow_Mule"><g id="Lime_juice"><path class="cls-2" d="M25.6,99.51c-2.4,.48-17.44,.46-19.84-.04,.28-.18,.59-.37,.85-.6,.37-.34,.71-.68,1.03-1.01,.32-.34,.64-.66,.96-.99,.21-.18,.46-.39,.68-.55,.25,.05,.46,.11,.71,.16,.27,.07,.55,.12,.83,.18,.27,.05,.55,.11,.83,.14,.27,.05,.55,.07,.83,.11,.53,.07,1.05,.11,1.56,.12,.48,.04,.96,0,1.39,0s.82-.02,1.17-.05c.37-.05,.66-.07,.91-.11,.25-.02,.46-.07,.59-.11-.12,0-.34,.04-.59,.04s-.57,.02-.91,.02h-1.17c-.43-.02-.91-.02-1.39-.07-.5-.04-1.01-.09-1.55-.16-.27-.04-.53-.09-.8-.14-.28-.02-.55-.11-.82-.16-.27-.05-.57-.11-.83-.2-.12-.02-.27-.05-.41-.07,.36-.25,.68-.48,1.03-.68,.69-.41,1.42-.69,2.1-.94,.71-.21,1.35-.32,1.92-.41,.36-.05,.68-.05,.96-.05,.3,0,.62,0,.96,.05,.59,.09,1.23,.2,1.94,.41,.68,.25,1.39,.53,2.1,.94,.69,.41,1.42,.94,2.08,1.53,.11,.14,.21,.25,.34,.36-.11,.05-.18,.09-.28,.11-.28,.09-.55,.16-.82,.25-.27,.07-.53,.12-.78,.18-.27,.09-.53,.14-.8,.2-.52,.09-.99,.2-1.49,.25-.48,.05-.94,.11-1.37,.12-.41,.04-.8,.04-1.15,.05h-.89c-.25,0-.43-.02-.57-.02h-.21s.07,0,.21,.02c.14,0,.32,.05,.57,.05,.23,.04,.53,.05,.89,.09,.36,.02,.75,.02,1.19,.02,.39-.02,.89-.02,1.37-.07,.48-.04,.99-.11,1.53-.2,.25-.05,.52-.11,.78-.16,.27-.05,.57-.12,.83-.2s.55-.12,.82-.23c.16-.04,.32-.09,.48-.14,.11,.11,.21,.21,.3,.32,.34,.34,.68,.68,1.05,1.01,.27,.23,.57,.44,.89,.64Z"/><path class="cls-2" d="M30.22,95.69v.18c-.02,.68-.07,2.27-.69,2.54-.68,.27-1.74,.62-3.14,.94-.09-.04-.14-.05-.21-.11-.41-.2-.78-.46-1.14-.76-.36-.28-.68-.62-1.03-.96-.32-.32-.64-.66-.99-.98-.68-.62-1.42-1.12-2.19-1.53-.75-.41-1.49-.71-2.2-.89-.73-.2-1.4-.3-1.99-.32-.36-.04-.68-.04-.98-.04-.28,0-.6,0-.96,.04-.59,.02-1.26,.12-1.99,.32-.71,.18-1.46,.48-2.22,.89-.75,.41-1.49,.91-2.17,1.53-.36,.32-.68,.66-1.03,.98-.32,.34-.64,.67-.99,.96-.36,.3-.73,.57-1.15,.76-.05,.02-.11,.05-.16,.07-1.39-.28-2.43-.64-3.11-.91-.6-.27-.66-1.87-.69-2.54v-.18c-.04-.62,0-1.3,.04-2.08,.02-.27,.05-.53,.05-.8,.05-.46,.07-.96,.07-1.46v-2.24c1.53,.16,6.93,.64,14.26,.64,4.28,0,9.24-.16,14.46-.67v2.27c0,.5,.04,.99,.09,1.46,0,.27,.02,.53,.05,.8,.02,.78,.05,1.46,.02,2.08Z"/><path class="cls-3" d="M30.07,50.16v37.67c-14.38,1.4-26.68,.24-28.73,.03V50.16c.43,.05,6.14,.67,14.38,.67,4.25,0,9.15-.16,14.35-.67Z"/><ellipse class="cls-1" cx="15.67" cy="68.62" rx="11.38" ry="12.49"/><path class="cls-5" d="M21.43,2.34V7.64c-.89-.53-2.66-.85-5.33-.94-3.27-.11-5.36,.25-6.09,.98t-.02-.05V2.34c0-.16,.12-.32,.37-.52,.18-.09,.41-.16,.59-.25,.36-.12,.68-.23,.99-.34,1.3-.36,4.1-.89,7.57,.02,.3,.11,.62,.21,.94,.32,.2,.09,.41,.16,.6,.25,.23,.2,.37,.36,.37,.52Z"/><g><path class="cls-6" d="M9.74,67.97c.16,0,.32-.04,.47-.11,.15-.08,.28-.17,.4-.29,.12-.11,.21-.23,.28-.36s.12-.24,.13-.34h.12l-.15,1.41h-3.55v-.13c.1,0,.18-.05,.26-.15,.08-.1,.12-.23,.12-.39v-4.25c0-.16-.04-.3-.12-.39-.08-.1-.16-.15-.26-.15v-.13h1.8v.13c-.09,0-.17,.05-.25,.15-.08,.1-.12,.23-.12,.39v4.61h.86Z"/><path class="cls-6" d="M12.74,67.61c0,.16,.04,.3,.12,.39,.08,.1,.16,.15,.25,.15v.13h-1.8v-.13c.1,0,.18-.05,.26-.15,.08-.1,.12-.23,.12-.39v-2.23c0-.16-.04-.3-.12-.39-.08-.1-.16-.15-.26-.15v-.12c.22,0,.45-.03,.68-.1,.23-.06,.44-.17,.62-.32h.13v3.31Zm-.53-4.97c.16,0,.31,.06,.43,.18,.12,.12,.18,.26,.18,.43s-.06,.31-.18,.43-.26,.18-.43,.18-.31-.06-.43-.18c-.12-.12-.18-.26-.18-.43s.06-.31,.18-.43c.12-.12,.26-.18,.43-.18Z"/><path class="cls-6" d="M14.83,67.61c0,.16,.04,.3,.12,.39,.08,.1,.16,.15,.25,.15v.13h-1.8v-.13c.1,0,.18-.05,.26-.15,.08-.1,.12-.23,.12-.39v-2.23c0-.16-.04-.3-.12-.39-.08-.1-.16-.15-.26-.15v-.12c.22,0,.45-.03,.68-.1,.23-.06,.44-.17,.62-.32h.13v.61c.11-.19,.26-.34,.44-.46,.19-.12,.4-.18,.64-.18,.27,0,.49,.07,.65,.2,.16,.14,.28,.3,.35,.51,.11-.18,.26-.34,.44-.49,.19-.15,.43-.22,.73-.22,.19,0,.35,.03,.49,.1,.14,.07,.25,.16,.33,.28,.09,.12,.15,.25,.19,.4,.04,.15,.06,.3,.06,.46v2.1c0,.16,.04,.3,.12,.39,.08,.1,.17,.15,.26,.15v.13h-1.8v-.13c.09,0,.17-.05,.25-.15,.08-.1,.12-.23,.12-.39v-2.1c0-.07,0-.15-.02-.23,0-.08-.03-.15-.06-.21-.03-.06-.08-.11-.14-.16-.06-.04-.14-.06-.24-.06-.15,0-.28,.06-.4,.18s-.21,.25-.26,.37c0,.03,.01,.06,.01,.1v2.1c0,.16,.04,.3,.12,.39,.08,.1,.16,.15,.25,.15v.13h-1.79v-.13c.09,0,.17-.05,.25-.15,.08-.1,.12-.23,.12-.39v-2.1c0-.07,0-.15-.02-.23,0-.08-.03-.15-.06-.21-.03-.06-.08-.11-.14-.16-.06-.04-.14-.06-.23-.06-.12,0-.24,.05-.35,.14s-.22,.22-.3,.38v2.24Z"/><path class="cls-6" d="M20.68,66.8c.03,.16,.07,.31,.13,.42,.06,.12,.13,.21,.21,.29,.08,.07,.17,.13,.27,.16s.19,.05,.29,.05c.12,0,.24-.02,.36-.07,.12-.05,.23-.12,.34-.2,.11-.09,.2-.18,.29-.29s.16-.22,.21-.33l.2,.21c-.07,.17-.17,.33-.28,.49-.11,.15-.24,.29-.38,.41-.14,.12-.3,.21-.46,.28-.16,.07-.34,.11-.52,.11-.27,0-.52-.06-.73-.18-.22-.12-.4-.27-.55-.46-.15-.19-.27-.41-.35-.65-.08-.24-.12-.49-.12-.74,0-.28,.04-.54,.12-.79s.2-.46,.36-.65c.16-.19,.34-.33,.57-.44,.22-.11,.47-.16,.75-.16,.49,0,.87,.15,1.14,.46s.41,.73,.42,1.27l-2.27,.82Zm.7-2.21c-.24,0-.43,.15-.55,.46-.13,.31-.19,.72-.19,1.24v.16l1.25-.46c0-.49-.04-.85-.11-1.07-.08-.22-.21-.33-.4-.33Z"/><path class="cls-6" d="M9.33,69.05c0-.16-.04-.3-.12-.39-.08-.1-.16-.15-.25-.15v-.13h1.8v.13c-.1,0-.18,.05-.26,.15-.08,.1-.12,.23-.12,.39v3.35c0,.28-.05,.53-.16,.73-.1,.2-.23,.37-.39,.5-.16,.13-.33,.23-.52,.28-.19,.06-.37,.09-.55,.09-.15,0-.31-.03-.46-.08s-.3-.13-.43-.22-.23-.2-.31-.33c-.08-.13-.12-.27-.12-.42,0-.21,.06-.36,.18-.46,.12-.1,.24-.15,.39-.15s.27,.05,.38,.15c.12,.1,.18,.25,.18,.46,0,.1-.02,.18-.07,.27-.04,.08-.1,.15-.17,.21,.05,.08,.11,.14,.19,.18,.08,.04,.16,.06,.25,.06,.15,0,.28-.06,.4-.16,.11-.11,.17-.29,.17-.53v-3.92Z"/><path class="cls-6" d="M14.33,73.3c0,.16,.04,.3,.12,.39,.08,.1,.16,.15,.25,.15v.13h-1.32l-.1-.56c-.11,.15-.24,.29-.39,.41-.16,.12-.36,.18-.62,.18-.19,0-.36-.03-.5-.1s-.26-.16-.36-.28c-.1-.12-.17-.25-.21-.4-.05-.15-.07-.31-.07-.46v-1.68c0-.16-.04-.3-.12-.39-.08-.1-.16-.15-.26-.15v-.12c.22,0,.45-.03,.68-.1,.23-.06,.44-.17,.62-.32h.13v2.76c0,.08,0,.16,.02,.24,.02,.08,.04,.15,.09,.21,.04,.06,.1,.11,.16,.15s.15,.06,.24,.06c.16,0,.28-.06,.37-.18,.09-.12,.16-.24,.22-.37v-2.2c0-.17-.04-.31-.12-.4-.08-.1-.16-.15-.25-.15v-.12h1.79v.12c-.09,0-.17,.05-.25,.15-.08,.1-.12,.23-.12,.4v2.64Z"/><path class="cls-6" d="M16.43,73.3c0,.16,.04,.3,.12,.39,.08,.1,.16,.15,.25,.15v.13h-1.8v-.13c.1,0,.18-.05,.26-.15,.08-.1,.12-.23,.12-.39v-2.23c0-.16-.04-.3-.12-.39-.08-.1-.16-.15-.26-.15v-.12c.22,0,.45-.03,.68-.1,.23-.06,.44-.17,.62-.32h.13v3.31Zm-.53-4.97c.16,0,.31,.06,.43,.18,.12,.12,.18,.26,.18,.43s-.06,.31-.18,.43-.26,.18-.43,.18-.31-.06-.43-.18c-.12-.12-.18-.26-.18-.43s.06-.31,.18-.43c.12-.12,.26-.18,.43-.18Z"/><path class="cls-6" d="M19.97,71c0,.2-.06,.35-.17,.46-.11,.1-.24,.15-.39,.15s-.27-.05-.38-.15c-.11-.1-.17-.25-.17-.46s.08-.35,.23-.47c-.1-.16-.23-.24-.4-.24-.24,0-.43,.15-.55,.46-.13,.31-.19,.72-.19,1.24,0,.15,.01,.31,.03,.49s.06,.33,.12,.47c.06,.14,.15,.26,.27,.35,.12,.09,.28,.14,.48,.14,.18,0,.36-.06,.54-.17s.32-.28,.42-.48l.19,.21c-.14,.32-.33,.58-.57,.76-.24,.18-.52,.28-.81,.28-.27,0-.51-.06-.73-.18-.21-.12-.39-.28-.54-.47-.15-.19-.26-.41-.34-.65-.08-.24-.11-.49-.11-.74,0-.28,.04-.54,.12-.79s.2-.46,.36-.65c.16-.19,.34-.33,.57-.44,.22-.11,.47-.16,.75-.16,.15,0,.31,.03,.46,.08,.15,.05,.29,.13,.41,.22s.22,.2,.29,.33c.07,.13,.11,.27,.11,.42Z"/><path class="cls-6" d="M21.3,72.5c.03,.16,.07,.31,.13,.42,.06,.12,.13,.21,.21,.29,.08,.07,.17,.13,.27,.16s.19,.05,.29,.05c.12,0,.24-.02,.36-.07,.12-.05,.23-.12,.34-.2,.11-.09,.2-.18,.29-.29s.16-.22,.21-.33l.2,.21c-.07,.17-.17,.33-.28,.49-.11,.15-.24,.29-.38,.41-.14,.12-.3,.21-.46,.28-.16,.07-.34,.11-.52,.11-.27,0-.52-.06-.73-.18-.22-.12-.4-.27-.55-.46-.15-.19-.27-.41-.35-.65-.08-.24-.12-.49-.12-.74,0-.28,.04-.54,.12-.79s.2-.46,.36-.65c.16-.19,.34-.33,.57-.44,.22-.11,.47-.16,.75-.16,.49,0,.87,.15,1.14,.46s.41,.73,.42,1.27l-2.27,.82Zm.7-2.21c-.24,0-.43,.15-.55,.46-.13,.31-.19,.72-.19,1.24v.16l1.25-.46c0-.49-.04-.85-.11-1.07-.08-.22-.21-.33-.4-.33Z"/></g><path class="cls-2" d="M29.46,47.32l-1.55-5.92c-1.83-7.03-4.49-17.21-6.13-23.4H9.62c-1.63,6.19-4.3,16.38-6.13,23.4l-1.56,5.92c-.16,.68-.28,1.19-.39,1.6,.99,.11,13.57,1.42,28.35-.04-.11-.37-.25-.89-.43-1.56Z"/><path class="cls-2" d="M20.67,13.78H10.74c-.25,.95-.64,2.42-1.12,4.22h12.17c-.48-1.8-.87-3.27-1.12-4.22Z"/><path class="cls-5" d="M13.47,36.77s.05,.09,.09,.25c.05,.17,.07,.42,.12,.7,.03,.14,.06,.3,.16,.42,.09,.13,.23,.24,.39,.29,.16,.05,.34,.02,.42-.13,.08-.14,.1-.35,.13-.54l.09-.58c.02-.17,.04-.36,.07-.56,.01-.15,.03-.35,.05-.53,0-.13,.02-.31,.03-.47,0-.23,.02-.5,.02-.71,0-.15,0-.27,0-.27,0,0,.01,.12,.02,.27,.01,.17,.03,.42,.03,.71,0,.17,0,.34,0,.48,0,.18-.02,.38-.03,.53-.02,.2-.04,.4-.06,.57l-.09,.58c-.04,.19-.05,.39-.16,.59-.12,.21-.4,.25-.58,.18-.19-.07-.34-.2-.44-.35-.1-.15-.13-.32-.15-.47-.04-.3-.03-.54-.07-.71-.03-.17-.07-.26-.07-.26Z"/><path class="cls-5" d="M19.57,26.12s.04,.08,.1,.19c.06,.12,.15,.29,.2,.52,.03,.11,.04,.24,.03,.38,0,.14-.06,.28-.12,.41-.06,.13-.09,.26-.06,.4,.03,.13,.12,.26,.21,.38l.28,.36c.09,.13,.16,.28,.16,.44-.02,.03,0,.02,.13-.09,.1-.08,.18-.17,.24-.27,.12-.19,.1-.4,.05-.51-.05-.12-.13-.16-.13-.16,0,0,.08,.03,.15,.15,.07,.12,.1,.34-.02,.55-.06,.11-.14,.21-.24,.3l-.19,.16s-.13,.13-.13,.07c0-.07,.02-.14,.02-.2,0-.13-.07-.26-.15-.38l-.28-.36c-.09-.12-.19-.26-.23-.42-.04-.16,0-.34,.07-.46,.06-.13,.12-.25,.13-.38,.02-.13,0-.25,0-.36-.04-.22-.11-.4-.16-.53-.04-.11-.08-.2-.08-.2Z"/><path class="cls-5" d="M14.16,16s-.03,.1-.06,.24c-.05,.19-.11,.43-.17,.64-.04,.15-.08,.31-.12,.42-.04,.16-.1,.34-.13,.47-.05,.19-.1,.35-.15,.5l-.15,.52c-.05,.17-.11,.34-.15,.52-.04,.17-.07,.34-.06,.5,0,.16,.05,.31,.14,.43,.09,.12,.2,.2,.32,.24,.15,.03,.22,.03,.23-.11,.03-.1,.07-.19,.09-.27,.05-.13,.08-.23,.08-.23,0,0-.03,.1-.06,.24-.02,.08-.05,.18-.07,.28-.03,.04,0,.14-.09,.17-.07,.02-.14,.02-.21,0-.14-.03-.28-.12-.38-.25-.11-.13-.16-.31-.17-.48-.01-.18,.01-.36,.05-.54,.04-.18,.1-.35,.14-.52l.16-.52c.05-.15,.1-.32,.16-.5,.04-.13,.1-.31,.15-.47,.04-.12,.09-.27,.14-.42,.07-.2,.15-.44,.21-.62,.05-.13,.08-.23,.08-.23Z"/><path class="cls-5" d="M9.09,33.92s0,.03,.01,.08c.01,.05,.07,.1,.15,.11,.04,0,.09,0,.13,0,.05,0,.09-.02,.14-.04,.05-.02,.09-.05,.13-.09,.04-.04,.07-.08,.09-.13l.06-.16s.03-.09,.05-.16c.01-.03,.04-.09,.05-.15,.02-.05,.04-.09,.06-.12,.05-.07,.1-.13,.14-.15,.04-.02,.07-.04,.07-.04,0,0-.03,.02-.06,.04-.04,.03-.09,.08-.13,.16-.02,.05-.04,.09-.06,.12-.02,.05-.04,.11-.05,.15-.02,.07-.04,.12-.05,.16l-.06,.16c-.02,.05-.06,.11-.1,.15-.04,.04-.09,.07-.14,.09-.05,.02-.1,.04-.15,.04-.05,0-.1,0-.14,0-.09-.02-.15-.08-.15-.13-.01-.05,0-.08,0-.08Z"/><path class="cls-5" d="M9.29,41.17s0,.04-.01,.09c0,.07,0,.17-.01,.24,0,.06,0,.12,0,.16,0,.06,.01,.14,.02,.18,.02,.08,.03,.14,.04,.19l.05,.19,.03,.07,.04-.03s.08-.08,.14-.13c.03-.03,.08-.08,.13-.13,.03-.03,.07-.08,.1-.12,.04-.06,.1-.14,.14-.2,.03-.04,.05-.08,.05-.08,0,0-.02,.04-.04,.08-.03,.05-.07,.13-.13,.21-.04,.05-.07,.1-.1,.13-.04,.05-.09,.1-.12,.14-.06,.05-.11,.1-.14,.13l-.09,.08-.05-.14-.05-.2s-.02-.11-.03-.19c0-.04,0-.12-.01-.18,0-.04,0-.11,0-.16,0-.1,.02-.19,.03-.24,.01-.05,.02-.09,.02-.09Z"/><path class="cls-5" d="M20.55,41.58s.06,.02,.15,.04c.11,.03,.26,.07,.38,.11,.09,.03,.19,.05,.25,.07,.1,.03,.21,.06,.28,.08,.12,.04,.22,.07,.3,.09l.31,.09c.1,.03,.21,.05,.31,.06,.1,0,.21,0,.3-.02,.1-.02,.18-.07,.24-.13,.06-.06,.11-.14,.14-.21,.06-.15,.04-.29,0-.37-.05-.08-.1-.11-.1-.11,0,0,.05,.02,.11,.1,.06,.08,.09,.23,.04,.39-.03,.08-.07,.16-.14,.24-.07,.07-.16,.13-.27,.15-.1,.03-.21,.04-.32,.03-.11,0-.22-.03-.33-.06l-.31-.1c-.08-.03-.18-.06-.3-.1-.07-.02-.18-.06-.28-.09-.07-.02-.16-.06-.25-.09-.12-.04-.26-.09-.37-.13-.08-.03-.14-.05-.14-.05Z"/><path class="cls-5" d="M26.01,93.86s.03,.04,.07,.1c.05,.08,.12,.18,.18,.27,.04,.07,.09,.14,.12,.18,.04,.07,.1,.15,.13,.2,.06,.09,.1,.16,.14,.22,.05,.08,.09,.15,.15,.22,.05,.07,.12,.13,.19,.16,.07,.03,.16,.03,.23,0,.07-.03,.13-.08,.17-.14,.04-.06,.08-.12,.1-.18,.05-.12,.07-.23,.09-.31,.01-.07,.02-.12,.02-.12,0,0,0,.05,0,.12,0,.08-.02,.19-.07,.32-.02,.06-.05,.13-.1,.2-.04,.06-.11,.13-.19,.16-.08,.03-.19,.03-.27,0-.09-.04-.16-.1-.22-.17-.06-.07-.11-.15-.15-.23-.03-.06-.08-.13-.13-.22-.03-.05-.08-.14-.12-.21-.03-.05-.07-.12-.11-.19-.05-.09-.11-.2-.16-.28-.03-.06-.06-.11-.06-.11Z"/><path class="cls-5" d="M4.73,93.27s.01,.06,.03,.13c.02,.08,.05,.2,.1,.34,.03,.08,.06,.16,.08,.22,.04,.08,.08,.18,.11,.24,.05,.1,.1,.18,.13,.25l.16,.24,.18,.23c.05,.05,.11,.13,.19,.21h.01s.05-.08,.08-.13c.02-.06,.06-.14,.09-.21,.05-.14,.08-.25,.1-.34,.01-.07,.03-.13,.03-.13,0,0,0,.06-.01,.13-.01,.09-.03,.21-.08,.35-.02,.07-.05,.15-.09,.22-.03,.07-.04,.09-.11,.22l-.07-.07c-.07-.06-.13-.13-.2-.21l-.18-.23-.16-.25c-.03-.07-.08-.15-.13-.25-.02-.06-.07-.16-.1-.25-.02-.06-.05-.15-.07-.23-.04-.14-.06-.26-.07-.35,0-.08-.02-.13-.02-.13Z"/><path class="cls-5" d="M22.05,91.27s-.04,.06-.09,.14c-.06,.09-.12,.22-.16,.39-.02,.08-.04,.18-.05,.28,0,.1,0,.21,0,.31,0,.11,.04,.22,.07,.33,.04,.11,.09,.21,.15,.31,.08,.13,.02,.05,.11-.06,.04-.08,.09-.19,.14-.31,.03-.08,.07-.19,.11-.3,.02-.07,.05-.18,.08-.27,.04-.17,.07-.32,.08-.42,.01-.09,.02-.16,.02-.16,0,0,0,.07,0,.16,0,.1-.02,.25-.05,.43-.02,.1-.05,.21-.06,.28-.04,.11-.07,.23-.1,.31-.04,.1-.09,.21-.14,.32l-.1,.19c-.03,.09-.06,.01-.1-.03l-.06-.08c-.06-.1-.12-.22-.15-.33-.03-.11-.06-.23-.07-.34-.01-.11,0-.22,0-.33,.01-.1,.04-.2,.07-.28,.06-.17,.13-.3,.2-.39,.06-.07,.1-.13,.1-.13Z"/><path class="cls-5" d="M4.85,43.69s0,.07-.01,.17c0,.11-.01,.26,0,.44,.01,.1,.03,.22,.03,.29,.02,.1,.04,.21,.07,.32,.03,.11,.07,.22,.11,.33,.04,.11,.1,.22,.19,.28,.08,.07,.2,.05,.28-.03,.08-.08,.12-.19,.15-.29,.02-.08,.04-.21,.07-.32,.02-.08,.04-.19,.06-.29,.03-.14,.07-.31,.09-.44,.02-.09,.04-.16,.04-.16,0,0,0,.07-.02,.17-.02,.13-.04,.3-.06,.44-.02,.11-.03,.22-.04,.29-.02,.12-.04,.24-.06,.33-.03,.11-.07,.24-.16,.34-.09,.11-.28,.13-.39,.04-.11-.09-.17-.21-.22-.32-.04-.11-.08-.23-.11-.34-.03-.11-.05-.22-.06-.33-.01-.11-.02-.21-.02-.3,0-.19,.02-.34,.03-.45,.02-.09,.03-.17,.03-.17Z"/><path class="cls-5" d="M13.14,46.52s-.06,.08-.08,.25c0,.08-.01,.2,.06,.27,.08,.06,.19-.05,.26-.17,.08-.12,.15-.26,.21-.41,.06-.15,.1-.32,.13-.5,.03-.18,.04-.36,.03-.55,0-.19-.01-.38-.03-.58l-.07-.58c-.02-.17-.04-.36-.07-.56-.01-.15-.03-.35-.04-.53,0-.17,0-.33,0-.48,.02-.3,.09-.54,.15-.7,.06-.16,.12-.24,.12-.24,0,0-.04,.09-.09,.25-.05,.16-.09,.4-.09,.69,0,.15,0,.3,.02,.47,.02,.18,.05,.37,.06,.52,.03,.2,.06,.39,.08,.56l.07,.58c.02,.2,.03,.39,.03,.59,0,.2-.02,.39-.05,.57-.03,.18-.08,.36-.15,.52-.06,.16-.15,.3-.24,.42-.07,.1-.22,.28-.36,.17-.09-.12-.06-.23-.05-.32,.03-.17,.11-.25,.11-.25Z"/><polygon class="cls-5" points="10.02 25.18 10.02 25.19 10.02 25.21 10.02 25.22 10.02 25.23 10.02 25.24 10.02 25.26 10.02 25.27 10.02 25.29 10.02 25.3 10.02 25.31 10.02 25.33 10.02 25.33 10.02 25.33 10.02 25.31 10.02 25.3 10.02 25.29 10.01 25.27 10.01 25.26 10.01 25.24 10.02 25.23 10.02 25.22 10.02 25.21 10.02 25.19 10.02 25.18"/><path class="cls-5" d="M10,25.47s0,.02-.02,.04c-.01,.03-.03,.07-.04,.1,0,.02-.01,.05-.02,.07,0,.03-.01,.06-.02,.08,0,.04,0,.07,0,.08v.09s0,.09,0,.09c0,.02,0,.05,.02,.08,0,.02,.01,.05,.02,.07,0,.02,.02,.04,.03,.07,.02,.03,.03,.07,.05,.09,.01,.02,.02,.03,.02,.03,0,0-.01-.01-.02-.03-.02-.02-.04-.05-.06-.09-.01-.02-.02-.05-.03-.07,0-.03-.02-.06-.03-.08,0-.04-.01-.07-.02-.08v-.09s0-.09,0-.09c0-.02,0-.05,.01-.09,0-.02,.01-.05,.02-.08,0-.02,.02-.04,.02-.07,.02-.04,.03-.07,.05-.1,.01-.02,.02-.03,.02-.03Z"/><path class="cls-5" d="M10.2,26.36s0,.03,.02,.07c.02,.05,.04,.13,.05,.18,.01,.04,.03,.09,.03,.12,.01,.05,.03,.11,.04,.14,.02,.06,.03,.11,.04,.15l.04,.15,.04,.15s.02,.09,.04,.15c0,.03,.02,.09,.03,.14,0,.03,.02,.08,.03,.12,.01,.06,.03,.13,.04,.19,0,.04,.01,.07,.01,.07,0,0,0-.03-.02-.07-.02-.05-.04-.13-.05-.18-.01-.05-.03-.09-.03-.12-.01-.05-.03-.1-.04-.14-.02-.06-.03-.12-.04-.15l-.04-.15-.04-.15s-.02-.08-.04-.15c0-.03-.02-.09-.03-.14,0-.03-.02-.08-.03-.12-.01-.06-.03-.13-.04-.19,0-.04-.01-.07-.01-.07Z"/><path class="cls-5" d="M14.95,24.15s.03,.04,.07,.08c.05,.07,.12,.15,.17,.22,.04,.05,.08,.11,.11,.15,.04,.06,.09,.13,.12,.17,.05,.08,.09,.15,.11,.19l.11,.21,.09,.22c.03,.07,.05,.15,.07,.22,0,.05,.02,.13,.04,.21,0,.07,.01,.13,.01,.19,0,.12-.01,.21-.03,.28-.01,.06-.02,.1-.02,.1,0,0,0-.05,.01-.11,0-.07,.01-.16,0-.28,0-.07-.02-.14-.02-.18-.02-.07-.03-.15-.04-.2-.02-.07-.04-.14-.07-.21l-.09-.21-.1-.2s-.06-.11-.11-.19c-.03-.04-.07-.12-.11-.18-.03-.04-.07-.1-.1-.16-.05-.07-.11-.16-.16-.23-.03-.05-.06-.09-.06-.09Z"/><path class="cls-5" d="M19.78,35.3s.03,0,.06,.02c.04,.01,.09,.04,.14,.08,.03,.02,.05,.05,.08,.08,.02,.03,.04,.07,.06,.11,.01,.04,.03,.08,.04,.13,.01,.04,.01,.09,.02,.14,0,.05,0,.09-.01,.14,0,.05-.02,.09-.04,.13-.02,.04-.04,.08-.06,.11-.02,.03-.05,.06-.07,.08-.05,.05-.1,.07-.14,.08-.03,0-.06,.02-.06,.02,0,0,.03-.01,.06-.02,.04-.01,.09-.04,.13-.09,.03-.02,.05-.05,.07-.08,.02-.03,.04-.07,.05-.11,.01-.04,.03-.08,.03-.12,.01-.04,0-.09,.01-.13,0-.04,0-.09-.01-.13,0-.04-.02-.08-.03-.12-.02-.04-.03-.08-.05-.11-.02-.03-.04-.06-.07-.08-.05-.05-.1-.08-.13-.09-.03-.01-.06-.02-.06-.02Z"/><path class="cls-5" d="M25.56,44.13s0,.02,.01,.06c0,.04,.02,.1,.03,.15,0,.04,.01,.08,.02,.1,0,.04,.01,.09,.02,.11,0,.05,.01,.09,.02,.12l.02,.12,.02,.12s0,.07,.01,.12c0,.03,0,.07,.01,.11,0,.03,0,.06,.01,.1,0,.05,0,.11,.01,.15,0,.03,0,.06,0,.06,0,0,0-.02-.01-.06,0-.04-.02-.1-.03-.15,0-.04-.01-.07-.02-.1,0-.04-.01-.09-.02-.11,0-.05-.01-.1-.02-.12l-.02-.12-.02-.12s0-.07-.01-.12c0-.03,0-.07-.01-.11,0-.03,0-.06-.01-.1,0-.05,0-.11-.01-.15,0-.03,0-.06,0-.06Z"/><path class="cls-5" d="M20.47,45.04s.02,.03,.04,.06c.02,.04,.04,.11,.04,.19,0,.05,0,.1,0,.13,0,.05-.01,.11-.02,.14,0,.06-.01,.12-.02,.15,0,.05,0,.1,0,.15,0,.05,.01,.1,.03,.15,.02,.04,.05,.09,.08,.12,.03,.03,.08,.04,.12,.04,.04,0,.08-.01,.12-.03,.07-.03,.11-.09,.11-.13,0-.04-.01-.07-.01-.07,0,0,.02,.02,.02,.07,0,.05-.04,.11-.11,.15-.04,.02-.08,.03-.13,.04-.05,0-.1,0-.14-.04-.04-.03-.07-.08-.09-.13-.02-.05-.03-.1-.04-.16,0-.05,0-.11,0-.16,0-.03,.01-.09,.02-.15,0-.03,.01-.09,.02-.14,0-.03,0-.08,0-.12,0-.08-.01-.14-.03-.18-.02-.04-.03-.06-.03-.06Z"/><path class="cls-5" d="M19.24,16.66s0,.03-.01,.08c0,.06-.02,.14-.02,.21,0,.05,0,.1,0,.14,0,.05,0,.12,0,.15,.01,.07,.02,.13,.02,.16l.04,.16,.06,.16c.02,.05,.05,.1,.07,.14,.03,.04,.06,.08,.1,.12,.03,.03,.07,.06,.11,.08,.07,.04,.14,.06,.19,.05,.05,0,.08-.02,.08-.02,0,0-.02,.02-.07,.03-.05,.01-.13,0-.21-.04-.04-.02-.08-.05-.12-.08-.04-.03-.07-.07-.1-.12-.03-.05-.06-.1-.08-.15l-.06-.16-.04-.17s-.01-.1-.02-.17c0-.04,0-.1,0-.16,0-.04,0-.09,.01-.14,.01-.09,.03-.16,.04-.21,.01-.04,.02-.08,.02-.08Z"/><path class="cls-5" d="M17.07,10.54s-.01,.03-.03,.06c-.02,.04-.04,.09-.05,.16,0,.03-.01,.07-.01,.11,0,.04,0,.08,0,.12,0,.04,.01,.09,.02,.13,0,.04,.03,.09,.04,.13,.02,.04,.04,.08,.06,.12,.02,.04,.05,.07,.07,.11,.03,.03,.05,.07,.08,.09,.03,.03,.06,.05,.09,.07,.06,.04,.11,.07,.15,.08,.03,.01,.06,.02,.06,.02,0,0-.03,0-.06-.02-.04-.01-.1-.03-.15-.07-.03-.02-.06-.04-.09-.07-.03-.03-.06-.06-.09-.09-.03-.04-.06-.07-.08-.11-.03-.04-.04-.08-.06-.13-.01-.05-.03-.09-.04-.14-.01-.05-.02-.09-.02-.14,0-.04,0-.09,0-.13,0-.04,0-.08,.02-.11,.02-.07,.04-.12,.06-.16,.02-.03,.03-.06,.03-.06Z"/><path class="cls-5" d="M12.68,13.27s0,.04,0,.08c0,.06,0,.15,.01,.21,0,.05,0,.11,0,.14,0,.05,0,.1,.03,.15,.02,.05,.06,.08,.11,.06,.05-.02,.09-.06,.14-.09l.13-.11s.07-.07,.12-.12c.04-.04,.07-.08,.09-.13,.03-.04,.05-.08,.06-.12,.03-.08,.04-.15,.03-.21,0-.04-.01-.08-.01-.08,0,0,0,.03,.02,.08,.01,.05,0,.13-.02,.21-.01,.04-.03,.09-.06,.13-.03,.04-.06,.09-.09,.13-.05,.05-.09,.1-.12,.13l-.13,.12s-.09,.08-.15,.1c-.07,.03-.14-.03-.16-.09-.02-.05-.03-.11-.03-.16,0-.04,0-.09,0-.14,0-.07,0-.15,0-.21,0-.05,0-.08,0-.08Z"/><path class="cls-5" d="M16.44,16.3s0,.03,0,.06c0,.05,0,.1,0,.15,0,.04,0,.08,0,.1,0,.04,0,.09,0,.11,0,.04,0,.07,0,.09h.01s.12,.06,.12,.06l.11,.05s.06,.03,.11,.05c.02,.01,.07,.03,.1,.05,.02,.01,.06,.03,.09,.04,.04,.02,.1,.05,.14,.07,.03,.01,.05,.03,.05,.03,0,0-.02,0-.05-.02-.04-.02-.1-.04-.14-.06-.03-.01-.07-.03-.09-.04-.04-.02-.08-.03-.1-.04-.05-.02-.09-.04-.11-.05l-.12-.05-.11-.05h-.03s0-.08,0-.12c0-.03,0-.07,0-.11,0-.03,0-.07,0-.1,0-.05,0-.11,.01-.15,0-.03,0-.06,0-.06Z"/><path class="cls-5" d="M17.87,20.89s0,.01,.02,.02l.06,.06s.03,.03,.04,.04c.02,.01,.04,.03,.05,.04,.03,.02,.05,.03,.06,.03l.06,.03,.06,.03s.04,.01,.06,.02c.01,0,.04,.01,.06,.02,.01,0,.04,0,.06,.01h.08s.03,.01,.03,.01c0,0-.01,0-.03,0-.03,0-.06,0-.09,0-.02,0-.04,0-.06,0-.02,0-.05-.01-.06-.01-.03,0-.05-.02-.07-.02l-.07-.03-.06-.03s-.03-.02-.06-.04c-.01,0-.03-.03-.05-.04-.01,0-.03-.02-.04-.04l-.06-.06s-.02-.03-.02-.03Z"/><path class="cls-5" d="M9.85,22.76s.02,.01,.03,.03c.02,.02,.05,.05,.08,.1,.02,.03,.03,.05,.05,.07,.01,.03,.03,.06,.04,.08,.01,.04,.03,.08,.03,.1l.02,.1v.1s0,.06,0,.1c0,.02,0,.06-.01,.09,0,.02-.01,.05-.02,.08-.02,.05-.03,.09-.05,.12-.01,.02-.02,.04-.02,.04,0,0,0-.02,.02-.04,.01-.03,.03-.07,.04-.12,0-.03,.01-.06,.02-.08,0-.03,0-.07,0-.09,0-.04,0-.08,0-.1v-.1s-.03-.1-.03-.1c0-.02-.02-.05-.03-.09,0-.02-.02-.05-.04-.08-.01-.02-.03-.05-.04-.07-.03-.04-.05-.08-.07-.1-.02-.02-.03-.04-.03-.04Z"/><path class="cls-5" d="M12.38,25.77s0,.03,.01,.06c0,.05,.02,.11,.03,.15,0,.04,.02,.08,.02,.1,.01,.04,.03,.09,.03,.11,.02,.05,.04,.09,.04,.12l.06,.11,.08,.1s.06,.06,.09,.08c.03,.02,.06,.05,.1,.06,.03,.02,.07,.03,.1,.04,.06,.02,.12,.02,.15,.02,.03,0,.06,0,.06,0,0,0-.03,0-.06,.01-.04,0-.09,0-.16,0-.03,0-.07-.02-.1-.03-.03-.02-.07-.04-.1-.06-.03-.02-.07-.05-.1-.08l-.08-.1-.06-.12s-.02-.07-.04-.12c0-.03-.02-.07-.03-.11,0-.03-.01-.07-.02-.1,0-.05-.01-.11-.02-.16,0-.03,0-.06,0-.06Z"/><path class="cls-5" d="M15.9,30.45s.02,.03,.03,.06c.03,.05,.06,.11,.09,.16,.02,.04,.04,.08,.06,.11,.02,.04,.05,.09,.06,.12,.03,.06,.05,.1,.07,.13,.02,.04,.06,.08,.09,.12,.03,.04,.07,.07,.11,.1,.04,.03,.08,.05,.12,.07,.04,.02,.09,.03,.13,.03,.04,0,.08,0,.12-.02,.07-.02,.12-.06,.15-.1,.03-.04,.03-.06,.03-.06,0,0,0,.03-.03,.06-.02,.04-.07,.09-.14,.11-.04,.01-.08,.02-.12,.02-.04,0-.09,0-.14-.02-.05-.02-.09-.04-.13-.07-.04-.03-.08-.07-.11-.1-.03-.04-.07-.08-.09-.12-.01-.03-.04-.08-.07-.13-.01-.03-.04-.08-.06-.12-.01-.03-.03-.07-.05-.11-.02-.05-.05-.12-.08-.17-.02-.04-.03-.06-.03-.06Z"/><path class="cls-5" d="M22.61,33.55s.02,.06,.06,.14c.04,.09,.11,.21,.23,.33,.06,.04,.13,.17,.17,.09,.08-.06,.18-.14,.24-.18,.08-.07,.16-.14,.23-.22,.07-.08,.13-.17,.18-.27,.04-.1,.07-.21,.06-.31,0-.11-.02-.21-.05-.31-.03-.07-.07-.18-.1-.28-.03-.07-.06-.17-.09-.26-.05-.16-.07-.31-.05-.41,0-.1,.03-.15,.03-.15,0,0-.02,.06-.02,.15,0,.1,.02,.24,.08,.39,.04,.09,.08,.18,.11,.25,.04,.09,.08,.18,.12,.29,.03,.1,.06,.21,.06,.33,0,.12-.02,.24-.07,.35-.05,.11-.12,.21-.19,.29-.08,.09-.16,.16-.24,.23-.06,.05-.17,.12-.25,.18l-.08,.05-.07-.06-.09-.1c-.11-.13-.18-.26-.21-.36-.03-.09-.04-.15-.04-.15Z"/><path class="cls-5" d="M23.88,37.64s-.01,.02-.03,.04c-.02,.03-.04,.07-.06,.12l-.02,.09s0,.07,0,.1c0,.04,.01,.07,.02,.11,.01,.03,.03,.07,.05,.1,.02,.03,.05,.06,.08,.08,.03,.02,.06,.04,.09,.06,.03,.01,.06,.03,.1,.03,.03,0,.06,.01,.09,.01,.06,0,.1,0,.14-.02,.03,0,.05-.02,.05-.02,0,0-.02,0-.05,.02-.03,.01-.08,.02-.14,.03-.03,0-.06,0-.09,0-.03,0-.07-.02-.1-.03-.03-.02-.07-.04-.1-.06-.03-.02-.06-.05-.08-.09-.02-.03-.04-.07-.05-.11-.01-.04-.02-.08-.02-.11,0-.04,0-.07,0-.11,0-.03,.01-.06,.02-.09,.02-.05,.05-.1,.07-.12,.02-.02,.04-.04,.04-.04Z"/><path class="cls-5" d="M25.66,40.13s0,.03,.01,.06c0,.05,.01,.11,.02,.16,0,.04,0,.08,0,.11,0,.04,0,.09,0,.12,0,.06,0,.1,0,.13v.13s-.03,.13-.03,.13c0,.03-.01,.07-.03,.13,0,.03-.02,.08-.03,.12,0,.03-.02,.07-.03,.1-.02,.05-.04,.11-.06,.15-.01,.03-.02,.06-.02,.06,0,0,0-.03,.02-.06,.01-.05,.03-.11,.05-.16,0-.04,.02-.08,.03-.11,0-.04,.02-.09,.03-.12,0-.05,.02-.1,.02-.13l.02-.13v-.13s.02-.07,.02-.13c0-.03,0-.08,0-.12,0-.03,0-.07,0-.11,0-.05,0-.11,0-.16,0-.03,0-.06,0-.06Z"/><path class="cls-5" d="M26.89,45.1s-.02,.04-.04,.09c-.02,.06-.05,.15-.06,.25,0,.05,0,.11,0,.17,0,.06,.02,.13,.03,.19,.02,.07,.04,.13,.07,.2,.03,.06,.06,.13,.1,.19,.04,.06,.08,.12,.13,.17,.03,.03,.09,.09,.15,.15,.04,.03,.1,.08,.15,.12,.04,.03,.09,.06,.15,.1,.07,.04,.16,.09,.23,.13l.09,.05s-.04-.02-.09-.04c-.06-.02-.14-.06-.24-.11-.06-.03-.11-.07-.15-.09-.06-.04-.12-.09-.16-.12-.05-.04-.11-.09-.16-.15-.05-.05-.1-.11-.14-.17-.04-.06-.08-.13-.11-.2-.03-.07-.05-.14-.06-.21-.01-.07-.02-.14-.02-.2,0-.06,0-.12,.01-.18,.02-.11,.05-.2,.08-.26,.03-.05,.05-.09,.05-.09Z"/><path class="cls-5" d="M6.96,37.47s.01,.06,.02,.15c.01,.09,.03,.23,.04,.39,0,.09,0,.19,0,.26,0,.1-.01,.22-.02,.29-.02,.12-.03,.23-.05,.31l-.07,.31c-.03,.1-.05,.21-.06,.31-.02,.1-.02,.2-.01,.3,0,.1,.03,.19,.08,.26,.04,.08,.1,.14,.16,.19,.12,.09,.26,.12,.35,.1,.09-.02,.14-.05,.14-.05,0,0-.04,.04-.13,.07-.09,.03-.24,.01-.38-.08-.07-.05-.14-.11-.19-.19-.05-.08-.08-.18-.1-.29-.01-.1,0-.21,0-.32,.01-.11,.04-.21,.06-.32l.07-.31c.01-.08,.03-.18,.05-.3,0-.07,.02-.19,.03-.29,0-.07,0-.17,.01-.26,0-.12,0-.27,0-.39,0-.08,0-.15,0-.15Z"/><path class="cls-4" d="M31.36,93.52c0-.27-.02-.53-.05-.83-.05-.44-.07-.89-.07-1.33l.11-41.39s-1.12-4.33-2.29-8.86c-2.91-11.08-7.3-27.85-7.6-28.83-.12-.43-.21-.94-.21-1.53,0-.21-.02-.44-.02-.62,.02-.16,.02-.32,.02-.37,.04-.05,.14-.2,.21-.25l.09-.11c.16-.16,.3-.36,.43-.53,.09-.09,.14-.18,.2-.25,.05-.11,.12-.2,.21-.27,.11-.16,.25-.32,.25-.62V2.31c-.04-.34-.14-.75-.57-1.15-.2-.07-.36-.2-.55-.25-.02-.02-.07-.02-.11-.05-.21-.05-.43-.12-.62-.18-.11-.04-.18-.05-.28-.09-.09-.02-.21-.07-.37-.11h-.12c-1.37-.28-5.33-.96-8.99,.09-.12,.02-.23,.05-.37,.11-.2,.05-.41,.12-.62,.18-.02,.04-.07,.04-.11,.05-.2,.05-.36,.18-.53,.25-.43,.41-.55,.82-.57,1.15V7.72c0,.3,.14,.46,.25,.62,.07,.07,.12,.16,.21,.27,.05,.07,.11,.16,.18,.25,.14,.18,.27,.37,.44,.53l.07,.11c.05,.05,.2,.2,.21,.25v.37c.04,.18,0,.41,0,.62,0,.59-.07,1.1-.21,1.53-.3,.98-4.69,17.75-7.59,28.83C1.18,45.63,.18,49.4,.18,49.4v41.96c0,.44-.04,.89-.09,1.33-.02,.3-.05,.57-.05,.83-.05,.82-.05,1.55-.02,2.22v.16c.02,1.07,.07,3.04,1.4,3.57,1.88,.78,6.45,1.95,12.51,1.95h3.54c6.06,0,10.64-1.17,12.52-1.95,1.3-.53,1.37-2.5,1.4-3.57v-.16c.02-.68,.02-1.4-.04-2.22ZM10.01,7.67s-.02-.04-.02-.05V2.34c0-.16,.12-.32,.37-.52,.18-.09,.41-.16,.59-.25,.36-.12,.68-.23,.99-.34,1.3-.36,4.1-.89,7.57,.02,.3,.11,.62,.21,.94,.32,.2,.09,.41,.16,.6,.25,.23,.2,.37,.36,.37,.52V7.64c-.89-.53-2.66-.85-5.33-.94-3.27-.11-5.36,.25-6.09,.98ZM1.93,47.32l1.56-5.92c2.72-10.43,7.28-27.84,7.57-28.78,.16-.55,.27-1.15,.3-1.87v-.73c0-.18,0-.48-.11-.73-.04-.05-.05-.12-.09-.18,.11-.04,.25-.09,.36-.11,.21-.05,.43-.09,.64-.14,.2-.05,.41-.07,.62-.11,.21-.05,.41-.09,.62-.11,.41-.04,.82-.05,1.19-.09h1.05c.32,.04,.62,.05,.89,.05,.27,.04,.48,.05,.68,.11,.11,0,.2,.02,.27,.02-.07-.02-.14-.04-.25-.07-.18-.02-.43-.07-.69-.11-.27-.02-.57-.07-.89-.11-.32,0-.69-.02-1.08-.02s-.75,.02-1.17,.07c-.2,.04-.41,.04-.62,.09-.21,.02-.44,.05-.66,.11-.21,.02-.39,.09-.6,.14-.18,.02-.3,.07-.44,.11-.07-.11-.16-.2-.23-.28l-.09-.07s-.05-.09-.07-.11c.07-.05,.12-.11,.21-.16,.12-.09,.27-.16,.43-.21,.12-.05,.27-.09,.43-.14,.3-.07,.59-.16,.87-.21,.27-.05,.53-.11,.78-.14,.23-.05,.44-.07,.64-.07,.2-.04,.37-.05,.52-.05,.16-.04,.27-.04,.36-.04,.07,0,.11-.02,.11-.02h-.11c-.09,.02-.2,.02-.36,.02-.14,0-.32,0-.52,.04-.2,0-.43,.02-.68,.05-.25,.02-.52,.07-.78,.12-.27,.05-.57,.11-.85,.2-.16,.04-.3,.09-.46,.14-.16,.05-.3,.12-.43,.21-.09,.05-.16,.11-.25,.18-.09-.11-.14-.18-.21-.27v-.02c.16-.21,1.1-.99,5.74-.83,3.13,.07,4.44,.5,4.97,.8t-.02,.05c-.05,.09-.14,.14-.2,.21-.2-.07-.41-.12-.59-.18-.25-.09-.46-.14-.68-.2-.25-.05-.46-.07-.68-.14-.46-.07-.89-.12-1.3-.16-.43-.02-.8-.02-1.19-.02-.34,.02-.66,.02-.96,.07-.3,.04-.53,.05-.76,.09-.09,.02-.18,.04-.25,.07,.07,0,.16-.02,.25-.02,.23-.04,.46-.05,.76-.09,.3,0,.62-.02,.96-.02,.39,.02,.76,.02,1.17,.07,.39,.04,.83,.09,1.26,.18,.23,.05,.46,.11,.68,.16,.21,.02,.44,.11,.68,.16,.16,.05,.34,.12,.5,.18,0,.04-.02,.05-.05,.09l-.07,.07c-.11,.12-.21,.25-.32,.39-.11-.04-.2-.05-.28-.11-.18-.05-.34-.11-.53-.16-.16-.04-.32-.09-.46-.09-.16-.04-.28-.05-.43-.05h-.05s.02,.02,.05,.02c.14,.04,.27,.05,.41,.09,.16,.04,.3,.05,.48,.11,.16,.05,.32,.11,.48,.2,.12,.02,.2,.05,.28,.07-.04,.05-.05,.11-.05,.16-.11,.25-.11,.55-.11,.73v.73c.02,.71,.11,1.31,.28,1.87,.3,.94,4.85,18.35,7.57,28.78l1.55,5.92c.18,.68,.32,1.19,.43,1.56-14.78,1.46-27.36,.14-28.35,.04,.11-.41,.23-.92,.39-1.6Zm-.59,2.84c.43,.05,6.15,.68,14.37,.68,4.26,0,9.17-.18,14.35-.68v37.66c-14.37,1.4-26.68,.25-28.72,.04V50.16Zm4.42,49.31c.28-.18,.59-.37,.85-.6,.37-.34,.71-.68,1.03-1.01,.32-.34,.64-.66,.96-.99,.21-.18,.46-.39,.68-.55,.25,.05,.46,.11,.71,.16,.27,.07,.55,.12,.83,.18,.27,.05,.55,.11,.83,.14,.27,.05,.55,.07,.83,.11,.53,.07,1.05,.11,1.56,.12,.48,.04,.96,0,1.39,0s.82-.02,1.17-.05c.37-.05,.66-.07,.91-.11,.25-.02,.46-.07,.59-.11-.12,0-.34,.04-.59,.04s-.57,.02-.91,.02h-1.17c-.43-.02-.91-.02-1.39-.07-.5-.04-1.01-.09-1.55-.16-.27-.04-.53-.09-.8-.14-.28-.02-.55-.11-.82-.16-.27-.05-.57-.11-.83-.2-.12-.02-.27-.05-.41-.07,.36-.25,.68-.48,1.03-.68,.69-.41,1.42-.69,2.1-.94,.71-.21,1.35-.32,1.92-.41,.36-.05,.68-.05,.96-.05,.3,0,.62,0,.96,.05,.59,.09,1.23,.2,1.94,.41,.68,.25,1.39,.53,2.1,.94,.69,.41,1.42,.94,2.08,1.53,.11,.14,.21,.25,.34,.36-.11,.05-.18,.09-.28,.11-.28,.09-.55,.16-.82,.25-.27,.07-.53,.12-.78,.18-.27,.09-.53,.14-.8,.2-.52,.09-.99,.2-1.49,.25-.48,.05-.94,.11-1.37,.12-.41,.04-.8,.04-1.15,.05h-.89c-.25,0-.43-.02-.57-.02h-.21s.07,0,.21,.02c.14,0,.32,.05,.57,.05,.23,.04,.53,.05,.89,.09,.36,.02,.75,.02,1.19,.02,.39-.02,.89-.02,1.37-.07,.48-.04,.99-.11,1.53-.2,.25-.05,.52-.11,.78-.16,.27-.05,.57-.12,.83-.2s.55-.12,.82-.23c.16-.04,.32-.09,.48-.14,.11,.11,.21,.21,.3,.32,.34,.34,.68,.68,1.05,1.01,.27,.23,.57,.44,.89,.64-2.4,.48-17.44,.46-19.84-.04Zm24.46-3.78v.18c-.02,.68-.07,2.27-.69,2.54-.68,.27-1.74,.62-3.14,.94-.09-.04-.14-.05-.21-.11-.41-.2-.78-.46-1.14-.76-.36-.28-.68-.62-1.03-.96-.32-.32-.64-.66-.99-.98-.68-.62-1.42-1.12-2.19-1.53-.75-.41-1.49-.71-2.2-.89-.73-.2-1.4-.3-1.99-.32-.36-.04-.68-.04-.98-.04-.28,0-.6,0-.96,.04-.59,.02-1.26,.12-1.99,.32-.71,.18-1.46,.48-2.22,.89-.75,.41-1.49,.91-2.17,1.53-.36,.32-.68,.66-1.03,.98-.32,.34-.64,.67-.99,.96-.36,.3-.73,.57-1.15,.76-.05,.02-.11,.05-.16,.07-1.39-.28-2.43-.64-3.11-.91-.6-.27-.66-1.87-.69-2.54v-.18c-.04-.62,0-1.3,.04-2.08,.02-.27,.05-.53,.05-.8,.05-.46,.07-.96,.07-1.46v-2.24c1.53,.16,6.93,.64,14.26,.64,4.28,0,9.24-.16,14.46-.67v2.27c0,.5,.04,.99,.09,1.46,0,.27,.02,.53,.05,.8,.02,.78,.05,1.46,.02,2.08Z"/><path class="cls-1" d="M5.71,52.41s-.41,.07-1.04,.18c-.34,.05-.74,.12-1.19,.19-.42,.07-1.12,.11-1.06,.61,.09,.58,.19,1.2,.28,1.82,.1,.65,.19,1.35,.27,2.06,.08,.72,.15,1.46,.2,2.22,.05,.76,.09,1.53,.12,2.3,.01,.77,.02,1.54,.03,2.3,0,.76-.02,1.5-.05,2.23-.04,.7-.09,1.41-.13,2.08-.04,.66-.12,1.28-.17,1.86-.13,1.15-.27,2.1-.39,2.76-.11,.63-.19,1.04-.19,1.04,0,0,.03-.41,.08-1.05,.05-.71,.11-1.69,.18-2.77,.02-.59,.05-1.22,.08-1.85,.02-.66,.03-1.37,.05-2.07,0-.72,0-1.46,0-2.21-.02-.75-.03-1.52-.05-2.28-.02-.76-.06-1.53-.1-2.28-.05-.74-.1-1.48-.15-2.2-.06-.7-.13-1.4-.19-2.06-.06-.66-.15-1.25-.19-1.87-.04-.37,.32-.68,.59-.72,.28-.08,.52-.07,.76-.1,.46-.03,.87-.06,1.21-.09,.64-.04,1.05-.07,1.05-.07Z"/><path class="cls-1" d="M22.34,85.43s.1,.02,.23,.05c.17,.03,.4,.08,.59,.12,.14,.02,.28,.04,.39,.06,.15,.01,.32,.03,.44,.04,.18,.01,.33,.02,.47,.03l.49,.02h.49c.14,.02,.3,.02,.48,.02,.12,0,.3,.01,.45,.02,.14,0,.25,0,.37-.01,.23-.03,.41-.11,.48-.22,.08-.11,.05-.21,.05-.21-.01,0,.08,.07,.04,.24-.04,.17-.23,.35-.49,.45-.12,.05-.28,.09-.43,.1-.16,.02-.33,.04-.45,.05-.18,.01-.35,.02-.49,.03h-.51s-.51-.03-.51-.03c-.17-.02-.33-.04-.49-.07-.16-.03-.31-.07-.45-.11-.14-.04-.27-.09-.39-.14-.24-.1-.43-.21-.55-.29-.11-.08-.19-.14-.19-.14Z"/></g></g></svg>