<?xml version="1.0" encoding="UTF-8"?><svg id="Layer_2" xmlns="http://www.w3.org/2000/svg" viewBox="0 0 30.98 45.75"><defs><style>.cls-1{fill:#fff;}.cls-2{fill:#9da7ab;}.cls-3{fill:#b8bfc2;}.cls-4{fill:#909ca1;}.cls-5{fill:#c1c7ca;}.cls-6{fill:#b0b8bb;}.cls-7{fill:#d0d4d6;}.cls-8{fill:#dddfe1;}.cls-9{fill:#dbdddf;}.cls-10{fill:#e0e2e3;}.cls-11{fill:#06262d;}.cls-12{fill:#a2acb0;}.cls-13{fill:#a2d45e;}.cls-14{fill:#95a1a5;}.cls-15{opacity:.9;}</style></defs><g id="Apple_Martini"><g><g class="cls-15"><g class="cls-15"><path class="cls-10" d="M9.1,43.18l-.06-.06s-.03,.03-.06,.03c-.1-.04,.14,.17,.46,.36,.03-.03-.06-.1-.33-.32Z"/><path class="cls-9" d="M8.81,42.1s0-.05-.01-.07h0s0,.05,.02,.07Z"/><path class="cls-10" d="M8.57,42.38c.06,.2,.16,.29,.27,.4-.04-.07-.07-.14-.07-.19-.02-.08-.03-.15-.04-.22-.03-.05-.06-.12-.07-.19,0,.04,0,.04,.01,.08-.02-.05-.04-.15-.04-.15-.03,.02-.01,.25,.08,.38-.06-.07-.12-.19-.15-.3,0,.03,0,.06,0,.1,0,.04,.02,.09,.04,.12l-.03-.05Z"/><path class="cls-10" d="M10.09,44.06l-.05-.03c-.07-.01-.15-.03-.23-.06,.05,.04,.11,.07,.17,.1l.13,.03v.02s0,0-.05,0h0s.1,.06,.1,.06l-.02-.03c.11,.04,.21,.08,.25,.07-.02-.03-.18-.09-.3-.16Z"/><path class="cls-8" d="M11.83,44.5s0-.05,.03-.07c-.13,0-.31-.06-.44-.07,.16-.09-.78-.32-.95-.46-.22-.14-.69-.34-.93-.55-.06-.02-.06,0-.17-.06,.06,.06,.13,.1,.23,.14,.02,0,.03,.01,.05,.02-.02,0-.04-.02-.05-.02-.07-.03-.14-.06-.21-.11,.02,.02,.04,.03,.03,.03-.02,0-.03-.01-.05-.02,.22,.2,.45,.36,.44,.44l.08,.04c.33,.15,.43,.22,.4,.25,.14,.04,.3,.09,.59,.19,.2,.07,.44,.15,.69,.24,.07,0,.14,0,.23,0l.05,.02Z"/><path class="cls-4" d="M22.31,42.9c-.08,0-.21,.15-.41,.26-.2,.12-.5,.23-.84,.31-.7,.16-1.52,.12-2.36,.19,.12,.05,.04,.12-.32,.19-.18,.03-.52,.02-.6,.03-.43,.05-.54,.1-1.07,.13,.09,.02,.1,.06,.21,.06,.29,.03,.66,.06,1.09,0,.12-.02,.38,.03,.09,.07,.37-.01,.62-.06,.89-.08,.78-.07,.27,.09,.53,.14,.04,.02,.1,.03,.17,.03,.54-.09,1.06-.2,1.57-.4,.12-.05,.3-.08,.42-.14,.21-.11,.43-.3,.53-.48,.11-.18,.12-.32,.1-.3Z"/><path class="cls-2" d="M15.44,43.77c.14-.02,.3-.03,.46-.04-.24-.02-.48-.04-.71-.07l-.19,.04c.18,0,.34,.03,.45,.07Z"/><path class="cls-2" d="M19.02,44.3c.06-.07-.15-.05-.32-.09-.37,.07-.63,.08-.85,.03-.02,.02-.17,0-.23,.01,.02-.02-.12-.04,0-.06-.12,.01-.26-.01-.34,.01-.2-.02,.16-.04,.02-.07-.7,.09-1.28-.03-1.02-.12,.1-.04,.28-.06,.39-.11,.11-.05,.46-.02,.72-.01-.07-.03-.44-.05-.24-.08,.2-.02,.41-.05,.55-.08-.54,.01-1.19,.06-1.47,.04l-.33-.03c-.16,0-.31,.02-.46,.04-.11-.04-.27-.06-.45-.07-.07,.02-.14,.03-.17,.05-.18,.06,.48,.05,.64,.1-.69,.04-.82,.15-.58,.23,.16,.05,.34,.08,.63,.12,.15,.01,.37,.01,.56,0-.06,0-.25,.03-.2,.04,.35,.03,.5,.09,.97,.07-.02,.02,.03,.02-.1,.04,.25-.03,.1,.06,.35,.03,.12,.04,.08,.13,.43,.12,.1,0,.17,0,.24,0,.38-.05,.68-.09,.82-.11,.13-.02,.35-.05,.65-.08-.1,0-.2,.01-.21,0Z"/><path class="cls-14" d="M19.52,44.2c-.26-.05,.25-.21-.53-.14-.28,.02-.52,.07-.89,.08,.29-.04,.03-.09-.09-.07-.43,.06-.8,.04-1.09,0-.11,0-.12-.04-.21-.06,.53-.03,.64-.09,1.07-.13,.08-.01,.41,0,.6-.03,.36-.07,.45-.14,.32-.19-.3,.02-.6,.05-.91,.05-.03,0-.05,0-.09,0-.13,.03-.35,.06-.55,.08-.2,.04,.16,.05,.24,.08-.26-.01-.61-.04-.72,.01-.11,.05-.3,.07-.39,.11-.25,.08,.32,.21,1.02,.12,.14,.03-.22,.05-.02,.07,.08-.02,.22,0,.34-.01-.12,.01,.01,.04,0,.06,.06,0,.22,0,.23-.01,.21,.05,.48,.04,.85-.03,.17,.04,.38,.03,.32,.09,.02,.01,.11,0,.21,0,.13-.02,.29-.04,.47-.07-.07,0-.13-.01-.17-.03Z"/><path class="cls-12" d="M17.52,44.49c-.34,.01-.31-.08-.43-.12-.25,.03-.1-.06-.35-.03,.13-.01,.08-.02,.1-.04-.47,.02-.62-.04-.97-.07-.05,0,.14-.03,.2-.04-.19,.02-.4,.02-.56,0-.29-.04-.47-.07-.63-.12-.24-.08-.11-.19,.58-.23-.16-.05-.82-.04-.64-.1,.03-.02,.1-.03,.17-.05-.44-.03-1.04,.03-1.53,.01-.02,.02,0,.04,.07,.05,.57,.1,.24,.2,.68,.28,.09,.02,.35,.03,.39,.04,.21,.06-.03,.13,.18,.18-.02,.02,.34-.01,.37,.01,.12,.04,.05,.1,.31,.11,.72,.04,.94,.13,1.24,.22,.32-.04,.73-.1,1.05-.14-.07,0-.14,0-.24,0Z"/><path class="cls-3" d="M10.21,42.94c-.12-.04-.23-.09-.33-.14,.44,.28,.69,.42,.86,.57,.05,.06,.97,.21,1.09,.29-.04,.03-.22,.02-.44,0,.84,.22,.81,.37,1.47,.52,.67,.13,1.21,.3,1.27,.44,.02,.06,.47,.09,.85,.13,.15-.02,.31-.03,.45-.05-.21-.03-.39-.07-.43-.11-.12-.14-.41-.22-1.15-.3-.24-.04-.06-.15-.19-.18-.52-.15-.78-.27-1.12-.42-.07-.04-.21-.09-.38-.14-.31-.04-.61-.07-.9-.15-.85-.18-.54-.3-1.04-.45Z"/><path class="cls-6" d="M15.47,44.4c-.26-.01-.19-.07-.31-.11-.03-.02-.39,0-.37-.01-.21-.06,.03-.13-.18-.18-.05,0-.3-.02-.39-.04-.45-.09-.11-.19-.68-.28-.08-.01-.09-.03-.07-.05h0c.08-.04-.23-.05-.3-.06-.38-.02-.53-.05-.82-.1-.07,0-.12-.01-.17-.02,.17,.06,.31,.11,.38,.14,.34,.15,.6,.28,1.12,.42,.13,.03-.05,.14,.19,.18,.75,.08,1.03,.16,1.15,.3,.05,.04,.22,.08,.43,.11,.14-.01,.27-.03,.37-.04,.13-.01,.31,.02,.31,.02,.22-.01,.42-.03,.6-.05-.3-.09-.53-.18-1.24-.22Z"/><path class="cls-5" d="M9.57,42.59c-.07-.05-.14-.09-.17-.11-.13-.1-.08-.1-.12-.15v.03s-.01-.03-.01-.03c.01,.07,.02,.13-.01,.15,.06,.07,.15,.13,.17,.17,.17,.26,.19,.54,1.12,.91,.38,.13-.13,.15,.44,.35,.19,.06,.57,.13,.62,.18,.03,.07-.28,.1,.11,.19,1,.22,1.8,.36,1.91,.53,.39,.05,.89-.03,1.37-.08-.38-.04-.83-.07-.85-.13-.06-.14-.61-.3-1.27-.44-.66-.15-.64-.3-1.47-.52,.22,.03,.41,.03,.44,0-.12-.08-1.04-.23-1.09-.29-.18-.15-.43-.29-.86-.57-.12-.06-.22-.13-.32-.2Z"/><path class="cls-7" d="M11.7,44.29c-.4-.1-.08-.13-.11-.19-.05-.05-.43-.12-.62-.18-.57-.2-.05-.22-.44-.35-.92-.38-.95-.65-1.12-.91-.02-.04-.1-.11-.17-.17-.01,0-.03,.01-.06,.01-.06,0,.15,.24,.27,.36,.04,.1-.15,.03-.34-.08l-.09-.04h0s-.07-.05-.07-.05c.04,.06,.08,.12,.12,.17,0,0,.02,.02,.06,.05l-.04-.02c.06,.07,.11,.14,.14,.2,.02,.04,.07,.1,.13,.16,.04,.03,.05,.03,.1,.06-.03-.02-.06-.03-.07-.04,.23,.22,.68,.44,.9,.59,.16,.15,1.1,.4,.94,.49,.13,0,.31,.07,.44,.08-.03,.02-.04,.04-.03,.07,.13,.04,.29,.08,.31,.1-.03,.02-.14,0-.24-.02l.03,.02h.04c.07,.02,.13,.02,.19,.02,.07-.01,.14-.02,.2-.03-.03,.02-.11,.03-.2,.03l-.1,.02c.14,.04,.29,.07,.45,.1,.03,0,.06,0,.1,0-.02,0-.05,0-.09,0h.07c.13,0,.39,0,.64,0,.16,.07,.35,.11,.57,.13-.11-.17-.91-.31-1.91-.53Z"/></g></g><g class="cls-15"><g class="cls-15"><path class="cls-10" d="M6.46,5.25l-.06-.08s-.05,.03-.09,.04c-.11-.05,.13,.21,.4,.51,.05-.03,0-.15-.25-.47Z"/><polygon class="cls-9" points="5.77 3.75 5.64 3.67 5.65 3.69 5.77 3.75"/><path class="cls-10" d="M5.77,4.33c.17,.18,.3,.27,.44,.4-.06-.09-.1-.17-.11-.23-.02-.07-.07-.17-.14-.27-.07-.05-.16-.12-.23-.19t.09,.09c-.06-.04-.18-.13-.18-.13,0,.05,.22,.28,.37,.41-.1-.07-.24-.17-.36-.26l.06,.11c.05,.05,.09,.09,.11,.11l-.06-.04Z"/><path class="cls-10" d="M7.03,6.64l-.03-.05c-.08-.06-.14-.11-.2-.16l.1,.18,.11,.09v.03s-.03,0-.06-.03h0s.06,.11,.06,.11v-.04c.07,.09,.14,.2,.18,.2,0-.04-.09-.2-.17-.33Z"/><path class="cls-8" d="M8.25,8.24s.05-.05,.09-.05c-.11-.1-.2-.3-.31-.4,.25,0-.4-.89-.46-1.14-.1-.3-.46-.76-.64-1.1-.06-.04-.08-.01-.19-.12,.04,.08,.12,.16,.2,.24,.01,.01,.03,.03,.05,.05-.02-.02-.04-.03-.05-.05-.11-.11-.15-.14-.2-.19,.02,.03,.03,.05,.02,.05-.02,0-.04-.02-.05-.04,.18,.3,.31,.6,.23,.69l.06,.08c.24,.33,.29,.45,.23,.48,.15,.19,.31,.4,.41,.55,.15,.25,.27,.49,.39,.73,.06,.05,.12,.11,.2,.17l.03,.06Z"/><path class="cls-4" d="M19.4,13.75c-.06-.09-.3-.18-.63-.25-.33-.05-.75-.09-1.18-.15-.89-.06-1.73-.36-2.58-.72,.09,.14-.04,.18-.44,.04-.2-.08-.51-.3-.6-.33-.44-.23-.62-.21-1.12-.56,.07,.09,.04,.14,.14,.23,.25,.23,.59,.52,1.07,.72,.14,.05,.36,.28,.04,.14,.38,.22,.65,.35,.97,.45,.88,.31,.24,.26,.5,.47,.04,.04,.1,.09,.18,.13,.68,.08,1.3,.11,1.94,.05,.15-.01,.36,.07,.51,.05,.56-.06,1.29-.19,1.21-.26Z"/><path class="cls-2" d="M11.99,10.52c.14,.09,.28,.2,.42,.32-.18-.22-.35-.43-.52-.64l-.19-.12c.13,.17,.25,.31,.3,.44Z"/><path class="cls-2" d="M14.92,13.65c.12-.06-.14-.15-.28-.31-.43-.16-.7-.32-.88-.52-.03,0-.17-.11-.24-.14,.03,0-.08-.13,.05-.07-.13-.07-.25-.19-.34-.22-.18-.16,.19,.05,.08-.07-.77-.37-1.14-.99-.84-.88,.12,.03,.31,.14,.46,.16,.14,.03,.44,.3,.68,.48-.04-.09-.38-.34-.15-.25,.2,.1,.43,.2,.58,.25-.25-.17-.55-.33-.79-.5-.24-.18-.46-.35-.57-.46-.09-.09-.17-.18-.25-.28-.14-.12-.28-.23-.42-.32-.05-.13-.17-.27-.3-.44-.08-.05-.14-.08-.19-.09-.2-.08,.32,.47,.42,.65-.62-.52-.81-.54-.72-.24,.08,.2,.19,.39,.4,.66,.12,.14,.3,.32,.49,.45-.06-.04-.24-.17-.21-.13,.27,.32,.36,.5,.81,.83-.03,0,0,.05-.12-.03,.26,.16,.04,.16,.31,.3,.08,.13-.03,.21,.33,.44,.1,.06,.18,.11,.24,.16,.27,.13,.59,.24,.94,.42,.25,.14,.51,.19,.76,.27-.12-.05-.23-.09-.24-.11Z"/><path class="cls-14" d="M15.55,13.78c-.26-.21,.39-.16-.5-.47-.32-.1-.58-.23-.97-.45,.32,.14,.1-.09-.04-.14-.48-.2-.82-.48-1.07-.72-.1-.08-.07-.14-.14-.23,.5,.36,.68,.33,1.12,.56,.09,.03,.4,.25,.6,.33,.39,.14,.52,.1,.44-.04-.3-.17-.6-.33-.89-.49-.03-.02-.05-.03-.08-.05-.15-.04-.38-.15-.58-.25-.22-.09,.11,.17,.15,.25-.24-.18-.54-.45-.68-.48-.15-.02-.34-.14-.46-.16-.3-.11,.07,.51,.84,.88,.11,.12-.26-.09-.08,.07,.1,.03,.21,.15,.34,.22-.13-.07-.02,.06-.05,.07,.07,.03,.21,.15,.24,.14,.17,.2,.45,.36,.88,.52,.15,.16,.4,.25,.28,.31,0,.02,.12,.07,.24,.11,.17,.04,.36,.09,.58,.15-.08-.04-.14-.09-.18-.13Z"/><path class="cls-12" d="M13.21,12.92c-.36-.23-.24-.3-.33-.44-.28-.14-.05-.14-.31-.3,.13,.08,.09,.03,.12,.03-.45-.34-.54-.51-.81-.83-.03-.05,.15,.09,.21,.13-.18-.13-.36-.31-.49-.45-.21-.28-.33-.46-.4-.66-.1-.3,.1-.28,.72,.24-.09-.18-.62-.73-.42-.65,.04,0,.11,.05,.19,.09-.33-.4-.84-.87-1.23-1.3-.04,0-.05,.04,0,.11,.36,.58-.02,.39,.24,.88,.05,.1,.25,.33,.28,.38,.1,.24-.16,.1-.05,.35-.03,0,.29,.29,.29,.34,.06,.14-.07,.15,.15,.38,.57,.65,.71,.91,.91,1.26,.37,.25,.78,.38,1.18,.6-.07-.05-.14-.1-.24-.16Z"/><path class="cls-3" d="M8.03,5.3c-.18-.19-.28-.3-.35-.38,.44,.62,.59,.96,.66,1.26,.02,.1,.81,.96,.81,1.16-.06,0-.22-.15-.41-.36,.55,.9,.35,1.05,.75,1.75,.4,.7,.68,1.34,.57,1.54-.06,.08,.29,.52,.55,.9,.14,.12,.29,.22,.44,.33-.15-.22-.27-.41-.26-.49,.05-.26-.1-.59-.61-1.33-.16-.25,.11-.2,.04-.35-.27-.59-.34-.94-.47-1.38-.02-.09-.08-.26-.18-.47-.24-.3-.48-.58-.71-.9-.73-.84-.31-.76-.82-1.29Z"/><path class="cls-6" d="M11.36,11.23c-.21-.23-.09-.24-.15-.38,0-.05-.32-.34-.29-.34-.11-.24,.16-.11,.05-.35-.03-.05-.22-.29-.28-.38-.25-.49,.12-.3-.24-.88-.05-.07-.04-.11,0-.11h0c.11,.02-.13-.25-.18-.32-.29-.35-.38-.51-.59-.81-.05-.07-.09-.12-.13-.17,.09,.21,.16,.38,.18,.47,.13,.44,.19,.79,.47,1.38,.08,.15-.19,.1-.04,.35,.51,.74,.66,1.07,.61,1.33,0,.09,.11,.28,.26,.49,.14,.1,.26,.2,.36,.27,.12,.09,.26,.28,.26,.28,.22,.16,.43,.3,.62,.42-.2-.35-.34-.6-.91-1.26Z"/><path class="cls-5" d="M7.29,4.5c-.1-.09-.2-.18-.24-.21-.21-.2-.14-.2-.24-.3l.03,.05s-.04-.04-.06-.07c.06,.13,.08,.23,.03,.26,.12,.12,.21,.24,.24,.3,.17,.45,.16,.74,.88,1.73,.29,.4-.26,.1,.13,.69,.13,.2,.42,.55,.41,.65-.04,.1-.35-.11-.1,.29,.65,1,1.11,1.85,1.03,2.12,.29,.39,.75,.77,1.21,1.14-.26-.38-.61-.82-.55-.9,.11-.2-.17-.84-.57-1.54-.4-.7-.19-.84-.75-1.75,.19,.2,.35,.36,.41,.36,0-.2-.79-1.06-.81-1.16-.07-.31-.22-.65-.66-1.26-.12-.13-.21-.23-.39-.42Z"/><path class="cls-7" d="M8.36,7.92c-.25-.4,.06-.2,.1-.29,.01-.1-.28-.45-.41-.65-.38-.6,.16-.29-.13-.69-.72-.99-.71-1.29-.88-1.73-.02-.07-.12-.18-.24-.3-.02,.01-.05,.02-.09,.01-.06,0,.23,.4,.34,.59,.02,.15-.22,0-.46-.16l-.12-.06s0-.02,0-.02l-.09-.06c.05,.08,.09,.16,.14,.24,0,.01,.02,.03,.07,.08-.01,0-.03-.02-.04-.03,.06,.11,.1,.2,.12,.28,0,.06,.05,.15,.1,.24,.04,.04,.06,.06,.1,.1-.03-.03-.06-.05-.08-.07,.19,.33,.54,.8,.65,1.09,.06,.24,.71,1.14,.47,1.14,.11,.1,.2,.3,.31,.4-.05,0-.08,.02-.09,.05,.07,.14,.17,.3,.16,.34-.05,0-.11-.11-.18-.21v.04s.02,.04,.02,.04c.05,.06,.1,.11,.15,.15,.07,.04,.14,.09,.2,.13-.04,0-.12-.05-.2-.13l-.1-.06c.08,.14,.16,.29,.27,.45,.03,.02,.05,.05,.08,.08-.02-.02-.05-.04-.07-.07l.04,.07c.11,.1,.33,.31,.55,.51,.05,.2,.17,.41,.33,.62,.08-.26-.38-1.12-1.03-2.12Z"/></g></g><path class="cls-11" d="M26.34,.13c-2.9-.09-6.75-.13-10.84-.13S7.53,.04,4.64,.13C0,.27,0,.4,0,.61c0,.07,0,.13,.22,.19l12.38,15.32s.65,.71,.9,.71c0,0,.04,.3,.22,.46,.16,.15,.71,1.21,.81,3.37,.1,2.16,.09,13.28,.09,13.28,0,0-.01,.37,0,.78-.03,.35-.07,.72-.12,1.08-.06,.56-.15,1.12-.27,1.67s-.27,1.08-.46,1.58c-.19,.52-.41,1-.71,1.43-.13,.19-.28,.35-.43,.52-3.4,.3-6.26,1.11-6.26,2.32,0,1.52,4.55,2.44,8.95,2.44s8.95-.92,8.95-2.44c0-1.17-2.67-1.96-5.91-2.28-.16-.18-.32-.35-.46-.55t-.01-.01s-.03-.06-.04-.07c-.01-.03-.04-.06-.06-.09-.01-.04-.04-.07-.06-.1-.22-.37-.4-.75-.55-1.17-.19-.5-.34-1.03-.44-1.58-.12-.55-.22-1.11-.28-1.67-.04-.37-.09-.74-.1-1.11,0-.4-.01-.75-.01-.75,0,0-.01-11.12,.09-13.28,.1-2.16,.65-3.22,.83-3.37,.16-.16,.21-.46,.21-.46,.25,0,.92-.71,.92-.71L30.76,.8c.22-.06,.22-.12,.22-.19,0-.21,0-.34-4.64-.47Zm-10.84,.18c7.18,0,12.44,.13,14.4,.3-1.96,.15-7.22,.28-14.4,.28S3.06,.75,1.08,.61c1.98-.16,7.22-.3,14.42-.3Zm-2.01,40.07s.04-.03,.06-.04t.03,.03s-.06,.01-.09,.03h0Zm2.08,.34c.72,0,1.36-.1,1.73-.24,.1,.01,.21,.04,.28,.07-.33,.18-1.09,.31-1.95,.31s-1.63-.13-1.96-.31c.07-.03,.15-.04,.22-.06,.37,.13,.99,.22,1.68,.22Zm-1.61-.24c.44-.1,1.03-.16,1.67-.16,.59,0,1.15,.06,1.6,.15-.37,.12-.99,.21-1.65,.21s-1.23-.07-1.61-.19Zm1.67-.21c-.68,0-1.29,.07-1.74,.18-.09-.03-.16-.06-.22-.09,.46-.13,1.11-.21,1.83-.21,.77,0,1.46,.09,1.92,.24-.03,.01-.07,.03-.1,.04-.46-.1-1.03-.16-1.68-.16Zm-1.82,.19c-.07,.01-.13,.03-.19,.06-.06-.04-.1-.07-.12-.12,.04-.01,.07-.03,.12-.03,.06,.03,.12,.06,.19,.09Zm-.44,.03s.03-.03,.04-.06c.01,0,.03-.01,.06-.01,.01,.04,.04,.07,.1,.12-.07,.01-.13,.04-.19,.07-.01-.03-.01-.06-.01-.07v-.04Zm-.07,.12s.01-.03,.03-.04c0,.01,.01,.03,.03,.06-.04,.01-.07,.03-.1,.04,.01-.01,.03-.03,.04-.06Zm10.36,2.39c0,.83-3.41,1.76-8.32,1.76s-8.33-.93-8.33-1.76c0-.62,1.99-1.31,5.11-1.6l-.15,.07s-.1,.04-.16,.07l-.16,.06c-.13,.04-.25,.09-.37,.12-.24,.09-.47,.18-.71,.27-.31,.12-.62,.25-.9,.41-.07,.04-.15,.07-.21,.12l-.1,.07-.09,.07c-.07,.06-.12,.12-.18,.19-.01,.04-.04,.07-.06,.13,0,.04,0,.09,.03,.15h0s.03,.04,.03,.06c.01,.01,.03,.01,.03,.03,.01,.01,.04,.03,.06,.04,.03,.03,.07,.04,.1,.07,.07,.04,.15,.07,.21,.1,.15,.04,.28,.1,.41,.13,.83,.25,1.61,.35,2.3,.44,.04,0,.07,0,.12,.01,0,0,.31,.06,.86,.12,.53,.06,1.29,.13,2.16,.13,.04,0,.1,.01,.13,.01-.01-.01-.03-.01-.03-.01h.1s-.01,0-.03,.01c.03,0,.07-.01,.13-.01,.8,0,1.68-.06,2.57-.21,.18-.01,.37-.03,.56-.06,.69-.09,1.48-.19,2.3-.44,.13-.03,.27-.09,.41-.13,.06-.03,.13-.06,.21-.1,.03-.03,.07-.04,.1-.07,.01-.01,.04-.03,.06-.04t.03-.03s.01-.01,.03-.04c.03-.06,.03-.12,.03-.16-.01-.06-.03-.09-.06-.13-.04-.07-.1-.13-.16-.19l-.1-.07-.1-.07c-.06-.04-.13-.07-.21-.12-.28-.16-.59-.3-.9-.41-.24-.09-.47-.18-.71-.27-.12-.03-.24-.07-.37-.12l-.16-.06c-.06-.03-.12-.04-.16-.07l-.07-.04c2.9,.31,4.71,.98,4.71,1.57Zm-5.42-1.77c.06,.06,.12,.1,.18,.16,.04,.03,.09,.07,.13,.1l.35,.21c.06,.03,.12,.06,.19,.07l.19,.07c.12,.04,.24,.07,.35,.12,.24,.07,.47,.15,.69,.24,.31,.12,.62,.25,.89,.38,.15,.07,.27,.15,.38,.24,.04,.04,.1,.1,.13,.15,.01,.01,.03,.04,.03,.06v.06s-.03,0-.03,.01c-.01,0-.03,.01-.04,.03-.03,.01-.04,.04-.09,.06-.06,.03-.12,.06-.18,.09-.13,.06-.27,.1-.38,.15-.81,.25-1.6,.38-2.28,.49-.16,.03-.31,.04-.46,.07-.07,0-3.28,.27-5.36,.03-.22-.03-.46-.06-.72-.1-.68-.1-1.46-.24-2.28-.49-.12-.04-.25-.09-.38-.15-.06-.03-.12-.06-.18-.09-.03-.01-.06-.04-.09-.06l-.03-.03-.04-.04s.01-.01,.01-.01h0s.01-.06,.01-.07c.04-.04,.09-.1,.15-.15,.1-.09,.24-.16,.37-.24,.27-.13,.58-.27,.89-.38,.22-.09,.46-.16,.69-.24,.12-.04,.24-.07,.37-.12l.19-.07c.06-.01,.12-.04,.18-.07l.18-.1,.18-.1c.06-.04,.12-.09,.18-.13,.04-.04,.09-.09,.13-.13,.1-.09,.19-.18,.27-.27,.03,.37,1.17,.66,2.62,.66,1.2,0,2.19-.21,2.5-.49,.03,.03,.07,.06,.1,.09Zm-.3-.31s.03,.04,.04,.06c.04,.04,.09,.09,.13,.13-.31,.27-1.31,.47-2.48,.47-1.39,0-2.57-.3-2.57-.64v-.03c.28,.3,1.24,.49,2.44,.49s2.17-.21,2.44-.49Zm-.03-.03c-.25,.28-1.26,.49-2.41,.49s-2.17-.21-2.42-.49c.04-.04,.07-.09,.12-.13,.04-.04,.1-.07,.18-.1,.21,.28,1.12,.47,2.26,.47,1,0,1.83-.15,2.16-.38,.03,.06,.07,.1,.12,.15Zm-.25-.33s.03,.03,.03,.04c.03,.04,.06,.07,.07,.1-.31,.22-1.17,.38-2.13,.38-1.09,0-2.02-.21-2.23-.46,.07-.03,.15-.06,.22-.07,.32,.19,1.09,.34,2.01,.34s1.68-.15,2.01-.34h.01Zm-.03-.06c-.07-.01-.16-.04-.25-.06,.03-.01,.06-.03,.09-.04,.04,.01,.07,.03,.1,.03,.03,.03,.04,.06,.06,.07Zm-.09-.12s-.01-.01-.03-.01t.01-.01s.01,.01,.01,.03Zm-.03-.06s-.03,.01-.04,.03c-.46-.15-1.17-.25-1.96-.25-.75,0-1.42,.09-1.88,.22l-.03-.03c.37-.19,1.15-.32,2.04-.32,.72,0,1.37,.09,1.8,.22,.01,.04,.04,.09,.07,.13Zm-.1-.18c-.43-.13-1.06-.22-1.77-.22-.93,0-1.7,.13-2.07,.34-.01-.01-.03-.03-.03-.03h0s0-.01,.01-.01c.22-.24,1.08-.41,2.08-.41,.68,0,1.3,.07,1.7,.21,.03,.04,.04,.09,.07,.13Zm-.1-.18c-.4-.13-.99-.21-1.67-.21-.95,0-1.73,.15-2.04,.35,.03-.04,.06-.1,.09-.16,.33-.18,1.06-.31,1.89-.31,.68,0,1.3,.09,1.68,.22,.01,.03,.03,.06,.04,.1Zm-.37-.84c.09,.24,.19,.47,.3,.69-.37-.13-.98-.21-1.65-.21-.81,0-1.51,.1-1.86,.28,.13-.25,.24-.5,.34-.77,.07-.19,.15-.4,.21-.61,.16,.38,.5,.96,.98,.98,.06,0,.12,.01,.16,.01,.58,0,.86-.22,1.27-1.2,.09,.28,.18,.55,.27,.81Zm-.28-.87c-.44,1.08-.74,1.24-1.4,1.21-.47-.03-.81-.62-.98-1,.04-.15,.09-.31,.13-.47,.16,.37,.46,.87,.86,.9h.13c.5,0,.77-.21,1.12-1.14,.04,.18,.09,.34,.13,.5Zm-.28-1.18c.03,.15,.06,.28,.09,.43,.01,.06,.03,.13,.04,.19-.4,1.03-.65,1.2-1.24,1.15-.4-.01-.68-.55-.84-.93,.04-.13,.07-.27,.1-.41,.03-.1,.04-.21,.07-.31,.12,.37,.37,1.02,.74,1.05h.12c.41,0,.62-.21,.92-1.17Zm-.01-.09c-.32,1.08-.53,1.26-1.02,1.21-.37-.03-.62-.74-.72-1.09,.07-.41,.15-.84,.19-1.26,.1-.12,.18-.65,.18-.65,0,0,.1-11.7,.09-14.14-.01-2.44-.38-2.93,.24-3h.19s.18,0,.18,0c.62,.07,.25,.56,.24,3-.01,2.44,.09,14.14,.09,14.14,0,0,.07,.53,.18,.65,.04,.38,.1,.77,.18,1.14Zm6.68-27.79c-3.63,4.05-6.21,4.89-7.08,5.08-.52,.06-.87,0-.92,0-.87-.18-3.44-1.03-7.09-5.08C3.97,4.79,1.31,1.61,.69,.87c.62,.07,1.77,.13,3.94,.19,2.9,.09,6.75,.13,10.86,.13s7.95-.04,10.84-.13c2.17-.06,3.32-.12,3.94-.19-.61,.74-3.28,3.92-7.25,8.35Z"/><path class="cls-13" d="M15.51,43.39c-1.52,0-3.09-.25-3.09-.68s1.57-.68,3.09-.68,3.09,.25,3.09,.68-1.57,.68-3.09,.68Zm0-1.28c-1.8,0-3.02,.31-3.02,.6s1.21,.6,3.02,.6,3.02-.31,3.02-.6-1.21-.6-3.02-.6Z"/><path class="cls-13" d="M15.51,43.77c-2.08,0-4.24-.34-4.24-.92s2.15-.92,4.24-.92,4.24,.34,4.24,.92-2.15,.92-4.24,.92Zm0-1.76c-2.49,0-4.16,.44-4.16,.84s1.67,.84,4.16,.84,4.16-.44,4.16-.84-1.67-.84-4.16-.84Z"/><path class="cls-13" d="M15.51,43.65c-1.8,0-3.66-.3-3.66-.8s1.86-.8,3.66-.8,3.66,.3,3.66,.8-1.86,.8-3.66,.8Zm0-1.52c-2.14,0-3.58,.37-3.58,.72s1.44,.72,3.58,.72,3.58-.37,3.58-.72-1.44-.72-3.58-.72Z"/><path class="cls-11" d="M15.48,43.39c-1.52,0-3.09-.25-3.09-.68s1.57-.68,3.09-.68,3.09,.25,3.09,.68-1.57,.68-3.09,.68Zm0-1.28c-1.8,0-3.02,.31-3.02,.6s1.21,.6,3.02,.6,3.02-.31,3.02-.6-1.21-.6-3.02-.6Z"/><path class="cls-11" d="M15.48,43.77c-2.08,0-4.24-.34-4.24-.92s2.15-.92,4.24-.92,4.24,.34,4.24,.92-2.15,.92-4.24,.92Zm0-1.76c-2.49,0-4.16,.44-4.16,.84s1.67,.84,4.16,.84,4.16-.44,4.16-.84-1.67-.84-4.16-.84Z"/><path class="cls-11" d="M15.48,43.65c-1.8,0-3.66-.3-3.66-.8s1.86-.8,3.66-.8,3.66,.3,3.66,.8-1.86,.8-3.66,.8Zm0-1.52c-2.14,0-3.58,.37-3.58,.72s1.44,.72,3.58,.72,3.58-.37,3.58-.72-1.44-.72-3.58-.72Z"/><path class="cls-13" d="M21.78,43.09h0s0,0,0,0h0s0,0,0,0c0,0,0,0,0,0,0,0,.03,.02,.01,0Z"/><path class="cls-13" d="M9.21,43.09h0s0,0,0,0h0s0,0,.01,0c0,0,0,0,0,0h0Z"/><polygon class="cls-13" points="9.22 43.07 9.22 43.08 9.22 43.08 9.22 43.07"/><polygon class="cls-13" points="21.77 43.07 21.76 43.08 21.76 43.08 21.77 43.07"/><polygon class="cls-13" points="9.22 43.08 9.22 43.08 9.22 43.08 9.22 43.08"/><path class="cls-13" d="M9.06,43.17s0,0,0,0c0,0,.01,.02,.02,.03l-.02-.04Z"/><path class="cls-13" d="M15.57,44.34s-.02,0-.06,0c0,0-.01,0-.02,0,.05,0,.08,0,.08,0Z"/><path class="cls-13" d="M13.53,40.25s0,0,0,0c0,0,0-.01,.01-.02,0,0,0,0-.01,.01Z"/><polygon class="cls-13" points="21.76 43.08 21.76 43.08 21.76 43.08 21.76 43.08"/><path class="cls-13" d="M21.92,43.18s0,.02-.02,.03l.02-.03Z"/><path class="cls-13" d="M15.41,44.34s.03,0,.08,0c0,0-.01,0-.02,0-.04,0-.06,0-.06,0Z"/><path class="cls-13" d="M15.51,44.33s-.02,0-.02,0c0,0-.01,0-.02,0,0,0,.01,0,.02,0,0,0,.02,0,.02,0Z"/><path class="cls-13" d="M17.65,40.57s0,0-.01,0c0,0,.02,0,.02,0,0,0,0,0-.01-.01Z"/><g><path class="cls-1" d="M17.3,16.46c-.19-.16-1.08-.23-1.75-.24h-.12c-.76,0-1.9,.08-1.9,.3s1.14,.3,1.9,.3h.12c.67,0,1.56-.08,1.75-.24,.02-.02,.04-.04,.04-.07s-.01-.04-.04-.07Zm-1.87,.31c-.89,0-1.52-.09-1.75-.18-.06-.02-.09-.04-.09-.07s.03-.04,.09-.07c.23-.09,.86-.18,1.75-.18h.06c1.09,0,1.78,.14,1.78,.24s-.69,.24-1.78,.24h-.06Z"/><path class="cls-1" d="M17.04,17.18c-.14-.14-.87-.2-1.39-.21-.04,0-.07,0-.1,0h-.12c-.57,0-1.64,.05-1.64,.26,0,.19,.84,.25,1.43,.26,.03,0,.06,0,.09,0h0s0,0,0,0c.04,0,.08,0,.11,0h.07s.09,0,.14,0c.03,0,.05,0,.08,0h0c.52-.02,1.17-.07,1.31-.21h0s.03-.04,.03-.05,0-.04-.02-.05Zm-3.18,.05s.03-.03,.08-.05c.18-.07,.69-.15,1.49-.15h.06c.99,0,1.51,.13,1.51,.2s-.52,.2-1.51,.2h-.06c-.8,0-1.31-.08-1.49-.15h0c-.05-.02-.08-.04-.08-.05Z"/><path class="cls-1" d="M16.5,17.68c-.11-.11-.48-.16-.83-.18-.01,0-.02,0-.03,0-.05,0-.1,0-.15,0-.02,0-.04,0-.06,0-.05,0-.11,0-.17,0h0s-.02,0-.03,0c-.42,.02-.89,.09-.89,.26,0,.19,.66,.26,1.1,.26,.02,0,.04,0,.06,0,.38,0,.88-.06,1.01-.19,.02-.02,.03-.05,.03-.07s-.01-.05-.03-.07Zm-1.07,.27c-.46,0-.8-.06-.95-.13-.06-.03-.09-.05-.09-.07s.03-.05,.09-.07c.15-.06,.49-.13,.95-.13,.02,0,.04,0,.06,0,.6,0,.98,.12,.98,.2s-.38,.19-.98,.2c-.02,0-.04,0-.06,0Z"/><g><path class="cls-1" d="M16.31,18.48s0,0-.01,0c0,0-.01,0-.02,0,0,0,0,0-.01,0-.02,0-.04-.01-.07-.02,0,0,0,0-.01,0-.02,0-.04,0-.06-.01,0,0,0,0-.01,0-.02,0-.04,0-.06,0,0,0,0,0-.01,0h0s-.08,0-.12-.01c0,0,0,0-.01,0h0c-.1,0-.21-.01-.3-.01-.05,0-.09,0-.13,0-.03,0-.07,0-.11,0-.1,0-.2,0-.3,.02h-.01s-.08,0-.12,.01c0,0,0,0-.01,0h0s-.04,0-.06,0c0,0,0,0-.01,0h0s-.04,0-.06,.01c0,0,0,0-.01,0-.03,0-.05,.01-.07,.02,0,0,0,0-.01,0,0,0-.01,0-.02,0,0,0,0,0,0,0h0s-.03,.02-.03,.03c0,0,0,.02,.02,.03,0,0,0,0,.01,0,0,0,0,0,.02,0,0,0,0,0,.01,0,.12,.05,.41,.07,.66,.08,.04,0,.08,0,.11,0,.04,0,.09,0,.13,0,.25,0,.54-.03,.67-.07,0,0,0,0,.01,0,0,0,0,0,.01,0,0,0,0,0,.01,0,.02-.01,.03-.02,.03-.03,0-.01-.01-.03-.04-.04Zm-.83,.14c-.05,0-.11,0-.15,0-.03,0-.07,0-.1,0-.23-.01-.39-.04-.48-.06,0,0,0,0-.01,0-.01,0-.02,0-.03,0,0,0,0,0-.01,0,0,0-.01-.01-.01-.02,0,0,.01-.02,.03-.02,0,0,0,0,.01,0,0,0,.02,0,.03,0,0,0,0,0,.01,0,.03,0,.06-.01,.1-.02,0,0,0,0,.01,0,.03,0,.06,0,.09-.01h0s0,0,.01,0c.03,0,.06,0,.09,0h0s0,0,0,0c.03,0,.07,0,.1,0,.03,0,.07,0,.1,0h.02s.02,0,.03,0c.05,0,.1,0,.15,0,.06,0,.12,0,.18,0,.01,0,.02,0,.03,0h.02s.07,0,.1,0c.04,0,.08,0,.11,0,0,0,0,0,.01,0,.03,0,.06,0,.09,0h0s0,0,.01,0c.03,0,.06,0,.09,.01,0,0,0,0,.01,0,.04,0,.07,.01,.09,.02,0,0,0,0,.01,0,.01,0,.02,0,.03,0,0,0,0,0,.01,0,.03,0,.04,.02,.04,.03,0,0,0,.01-.02,.02,0,0,0,0-.01,0,0,0-.02,0-.03,0,0,0,0,0-.01,0-.09,.02-.26,.05-.49,.06-.03,0-.07,0-.1,0-.06,0-.12,0-.18,0Z"/><path class="cls-1" d="M16.01,18.23s-.05,0-.08,0c-.1,0-.21-.01-.31-.02-.05,0-.09,0-.13,0-.03,0-.07,0-.11,0-.1,0-.21,0-.31,.02-.03,0-.06,0-.08,0-.18,.02-.31,.05-.31,.1,0,0,0,0,0,.01,0,0,0,0,0,.01,0,0,0,0,0,0,0,0,0,0,.01,0,0,0,.02,.01,.03,.02h0s0,0,.01,0c.01,0,.02,0,.04,.01,0,0,0,0,.01,0h0s.09,.02,.14,.03h0s0,0,.01,0c.04,0,.08,0,.12,.01h.01c.1,0,.2,.01,.3,.02,.04,0,.08,0,.11,0,.04,0,.09,0,.13,0,.1,0,.2,0,.3-.01h0s0,0,.01,0c.04,0,.08,0,.12-.01h0s0,0,.01,0c.05,0,.1-.02,.15-.02,0,0,0,0,.01,0h0s.03,0,.04,0c0,0,0,0,.01,0,.01,0,.02,0,.03-.01h0s.01,0,.02-.01c0,0,0,0,0,0,0,0,.01,0,.02-.01,0,0,.01-.02,.01-.02,0-.05-.15-.08-.33-.1Zm-.53,.2c-.05,0-.11,0-.15,0-.01,0-.02,0-.03,0h-.02s-.07,0-.1,0c-.04,0-.07,0-.1,0,0,0,0,0,0,0h0c-.08,0-.15-.02-.21-.03,0,0,0,0-.01,0-.02,0-.04,0-.05-.01h0s0,0-.01,0c-.03,0-.04-.01-.06-.02,0,0,0,0-.01,0,0,0-.01,0-.01-.01,0,0,0,0,0,0h0s.09-.05,.25-.07c.02,0,.05,0,.07,0,.02,0,.03,0,.05,0,.08,0,.17-.01,.26-.01,.05,0,.1,0,.15,0,.06,0,.12,0,.18,0,.08,0,.15,0,.21,.01,.02,0,.03,0,.05,0,.02,0,.03,0,.05,0,.22,.02,.35,.05,.35,.08,0,0,0,0,0,0s0,0-.01,0c0,0,0,0-.01,0,0,0,0,0-.01,0-.02,0-.03,.01-.06,.02h0s0,0-.01,0c-.02,0-.03,0-.05,.01,0,0,0,0-.01,0-.06,0-.13,.02-.21,.02,0,0,0,0-.01,0-.03,0-.07,0-.11,0-.03,0-.07,0-.1,0h-.02s-.02,0-.03,0c-.06,0-.12,0-.18,0Z"/><path class="cls-1" d="M16.32,18.56s0,0-.01,0c0,0,0,0-.01,0,0,0,0,0-.01,0-.02,0-.05-.02-.08-.02,0,0,0,0-.01,0-.02,0-.04,0-.06-.01,0,0,0,0-.01,0h0c-.05,0-.12-.01-.18-.02,0,0,0,0-.01,0-.06,0-.12,0-.18-.01,0,0-.01,0-.02,0-.04,0-.08,0-.12,0-.05,0-.09,0-.13,0-.03,0-.07,0-.11,0-.04,0-.08,0-.12,0,0,0,0,0,0,0-.06,0-.13,0-.18,.01,0,0,0,0-.01,0-.07,0-.13,.01-.18,.02,0,0,0,0-.01,0-.02,0-.04,0-.06,.01,0,0,0,0-.01,0-.03,0-.06,.02-.08,.03,0,0,0,0-.01,0,0,0-.01,0-.01,0,0,0,0,0,0,0-.01,0-.02,.02-.02,.03,0,.06,.21,.1,.46,.11,.08,0,.17,.01,.25,.01,.04,0,.08,0,.11,0,.04,0,.09,0,.13,0,.08,0,.17,0,.25-.01,.25-.02,.48-.05,.48-.11,0-.01,0-.02-.03-.03Zm-.46,.12s-.09,0-.13,0c-.02,0-.05,0-.07,0-.06,0-.12,0-.18,0-.05,0-.11,0-.15,0-.03,0-.05,0-.07,0-.05,0-.09,0-.13,0,0,0,0,0,0,0-.05,0-.1,0-.14-.01-.18-.02-.29-.05-.29-.08,0,0,0-.01,.02-.02,0,0,0,0,.01,0,0,0,.02,0,.03-.01,0,0,0,0,.01,0,.03,0,.07-.02,.12-.03,0,0,0,0,.01,0,.03,0,.05,0,.08-.01,0,0,0,0,.01,0,.04,0,.08,0,.12-.01,.04,0,.09,0,.15,0h.02s.05,0,.07,0c.05,0,.1,0,.15,0,.06,0,.12,0,.18,0,.03,0,.05,0,.08,0,0,0,0,0,.01,0,.05,0,.1,0,.15,0,.05,0,.09,0,.13,.01,0,0,0,0,.01,0,.03,0,.06,0,.08,.01,0,0,0,0,.01,0,.05,0,.08,.02,.11,.02,0,0,0,0,.01,0,0,0,.02,0,.02,0,0,0,0,0,.01,0,.02,0,.03,.01,.03,.02,0,.03-.11,.05-.31,.08-.04,0-.09,0-.14,.01,0,0,0,0,0,0Z"/><path class="cls-1" d="M16.33,18.35s0,0-.02-.01h0s-.01,0-.02-.01h0c-.1-.04-.33-.07-.55-.07-.04,0-.09,0-.13,0-.05,0-.09,0-.13,0-.03,0-.07,0-.11,0-.04,0-.08,0-.13,0-.24,.01-.47,.04-.55,.08,0,0,0,0-.01,0,0,0,0,0,0,0,0,0,0,0,0,.01,0,0,0,0,0,.01,0,.01,0,.02,.02,.03,0,0,0,0,0,0,0,0,0,0,.01,0,0,0,0,0,.01,0,.02,0,.05,.02,.08,.02,0,0,0,0,.01,0,.02,0,.04,0,.06,.01,0,0,0,0,0,0,0,0,0,0,0,0,.05,0,.11,.01,.18,.02,0,0,0,0,.01,0,.06,0,.12,0,.18,.01,0,0,0,0,0,0,.04,0,.08,0,.12,0s.08,0,.11,0c.04,0,.09,0,.13,0,.04,0,.08,0,.12,0,0,0,.01,0,.02,0,.06,0,.12,0,.18-.01,0,0,0,0,.01,0,.06,0,.12-.01,.17-.02,0,0,0,0,.01,0,.02,0,.04,0,.06-.01,0,0,0,0,.01,0,.03,0,.06-.01,.08-.02,0,0,0,0,.01,0,0,0,0,0,.01,0,0,0,0,0,.01,0,.02-.01,.03-.02,.03-.03,0,0,0-.02-.01-.02Zm-1.18,.11s-.07,0-.1,0c-.03,0-.05,0-.08,0,0,0,0,0-.01,0-.03,0-.06,0-.09-.01,0,0,0,0-.01,0-.05,0-.09-.02-.12-.03,0,0,0,0-.01,0-.01,0-.02,0-.03-.01,0,0,0,0-.01,0,0,0-.01-.01-.01-.02h0s0,0,0-.01c0,0,0,0,.01,0,0,0,0,0,.01,0,.06-.03,.22-.05,.44-.07h.05s.07,0,.11,0c.05,0,.1,0,.15,0,.06,0,.12,0,.18,0,.04,0,.08,0,.11,0,.02,0,.04,0,.05,0,.23,.01,.38,.04,.45,.06,0,0,0,0,.01,0,0,0,0,0,.01,0,0,0,0,0,.01,0,0,0,0,0,0,0,0,0,0,.01-.03,.02,0,0,0,0-.01,0,0,0-.02,0-.02,0,0,0,0,0-.01,0-.03,0-.07,.02-.12,.02,0,0,0,0-.01,0h0s-.05,0-.09,.01c0,0,0,0-.01,0h0c-.06,0-.12,.01-.19,.02-.02,0-.05,0-.07,0,0,0,0,0-.01,0-.03,0-.05,0-.08,0-.06,0-.12,0-.18,0-.05,0-.11,0-.15,0-.02,0-.05,0-.07,0h-.02s-.05,0-.07,0Z"/><path class="cls-1" d="M16.32,18.41s0,0-.01,0c0,0,0,0-.01,0,0,0,0,0-.01,0,0,0,0,0-.01,0,0,0,0,0-.01,0-.01,0-.02,0-.04,0h0s0,0-.01,0c-.1-.02-.23-.04-.37-.04-.05,0-.09,0-.14,0-.03,0-.05,0-.08,0-.05,0-.09,0-.13,0-.03,0-.07,0-.11,0-.03,0-.05,0-.08,0-.05,0-.09,0-.14,0-.14,0-.27,.02-.36,.05h0s0,0-.01,0c-.01,0-.03,0-.04,.01,0,0,0,0-.01,0h0s0,0-.01,0c0,0,0,0-.01,0,0,0-.01,0-.02,0,0,0,0,0-.01,0-.01,0-.02,.02-.02,.03,0,.01,0,.02,.03,.03,0,0,0,0,.01,0,0,0,.01,0,.02,0,0,0,0,0,.01,0,.02,0,.04,.01,.07,.02,0,0,0,0,.01,0,.02,0,.04,0,.06,.01h0s0,0,.01,0c.14,.02,.33,.03,.5,.04,.04,0,.08,0,.11,0,.04,0,.09,0,.13,0,.17,0,.36-.02,.51-.04,0,0,0,0,.01,0,.02,0,.04,0,.06-.01,0,0,0,0,.01,0,.02,0,.05-.01,.07-.02,0,0,0,0,.01,0,0,0,.01,0,.02,0h0s0,0,.01,0c.02-.01,.04-.03,.04-.04,0-.01,0-.02-.03-.03Zm-.84,.13c-.05,0-.11,0-.15,0-.07,0-.14,0-.2,0-.06,0-.11-.01-.16-.02,0,0,0,0-.01,0-.03,0-.06,0-.09-.01,0,0,0,0-.01,0t0,0s-.07-.01-.09-.02c0,0,0,0,0,0-.01,0-.02,0-.03-.01,0,0,0,0-.01,0-.02,0-.03-.02-.03-.02,0,0,0-.01,.02-.02,0,0,0,0,.01,0,0,0,.02,0,.03-.01,0,0,0,0,.01,0,0,0,.02,0,.03,0,0,0,0,0,.01,0h0s.03,0,.05-.01c0,0,0,0,.01,0,.1-.02,.23-.03,.4-.04,.02,0,.05,0,.08,0,.05,0,.1,0,.15,0,.06,0,.12,0,.18,0,.03,0,.05,0,.08,0,.17,0,.31,.02,.41,.04,0,0,0,0,.01,0,.02,0,.04,0,.05,.01,0,0,0,0,.01,0h0s.02,0,.03,0c0,0,0,0,.01,0,.01,0,.02,0,.03,0,0,0,0,0,.01,0,.02,0,.03,.01,.03,.02,0,0-.01,.02-.04,.03,0,0,0,0-.01,0,0,0-.02,0-.03,0,0,0,0,0-.01,0-.03,0-.06,.01-.09,.02,0,0,0,0-.01,0-.03,0-.05,0-.09,.01,0,0,0,0-.01,0-.05,0-.11,.01-.17,.01-.06,0-.13,0-.2,0-.06,0-.12,0-.18,0Z"/></g><path class="cls-1" d="M15.55,16.22h-.12c-.67,0-1.56,.07-1.75,.24-.02,.02-.04,.04-.04,.07s.01,.05,.04,.07c.19,.16,1.08,.23,1.75,.24h.12c.76,0,1.9-.08,1.9-.3s-1.14-.3-1.9-.3Zm1.75,.37c-.22,.08-.86,.18-1.75,.18h-.06c-1.09,0-1.78-.14-1.78-.24s.69-.24,1.78-.24h.06c.89,0,1.53,.09,1.75,.18,.06,.02,.09,.04,.09,.07s-.03,.04-.09,.07Z"/><path class="cls-1" d="M15.65,16.97s-.07,0-.1,0h-.05c-.52,0-1.41,.05-1.57,.21-.02,.02-.02,.03-.02,.05s0,.04,.03,.05h0c.14,.14,.8,.19,1.31,.21h0s.04,0,.06,0h.02c.06,0,.11,0,.16,0h.05s.08,0,.13,0c.03,0,.06,0,.09,0,.58-.01,1.42-.08,1.42-.26,0-.2-.95-.26-1.53-.26Zm1.39,.32h0c-.18,.07-.69,.15-1.49,.15h-.06c-.99,0-1.51-.13-1.51-.2s.52-.2,1.51-.2h.06c.81,0,1.31,.08,1.49,.15,.05,.02,.08,.04,.08,.05s-.03,.03-.08,.05Z"/><path class="cls-1" d="M15.76,17.49s-.02,0-.04,0h0c-.06,0-.12,0-.17,0-.02,0-.04,0-.06,0-.05,0-.1,0-.15,0,0,0-.01,0-.02,0h0s0,0,0,0c-.34,.02-.72,.07-.83,.18-.02,.02-.03,.05-.03,.07s.01,.05,.03,.07c.13,.13,.63,.18,1.01,.19,.02,0,.04,0,.06,0,.44,0,1.1-.07,1.1-.26,0-.16-.47-.24-.89-.26Zm.74,.33c-.15,.06-.49,.13-.95,.13-.02,0-.04,0-.06,0-.6,0-.98-.12-.98-.2s.38-.19,.98-.2c.02,0,.04,0,.06,0,.46,0,.8,.06,.95,.13,.06,.03,.09,.05,.09,.07s-.03,.05-.09,.07Z"/><g><path class="cls-1" d="M16.3,18.49h0s0,0-.01,0c0,0-.01,0-.02,0,0,0,0,0-.01,0-.02,0-.04-.01-.07-.02,0,0,0,0-.01,0-.02,0-.04,0-.06-.01h0s0,0-.01,0c-.02,0-.04,0-.05,0h0s0,0-.01,0c-.04,0-.08,0-.12-.01,0,0,0,0-.01,0-.1,0-.2-.01-.3-.02-.05,0-.09,0-.13,0-.03,0-.07,0-.11,0-.1,0-.2,0-.3,.01h0s0,0-.01,0c-.04,0-.08,0-.12,.01h0s0,0-.01,0c-.02,0-.04,0-.06,0,0,0,0,0-.01,0-.02,0-.04,0-.06,.01,0,0,0,0-.01,0-.02,0-.05,.01-.07,.02,0,0,0,0-.01,0,0,0-.01,0-.02,0,0,0,0,0-.01,0-.02,.01-.04,.03-.04,.04,0,.01,0,.02,.03,.03,0,0,0,0,.01,0,0,0,0,0,.01,0,0,0,0,0,.01,0,.13,.05,.42,.07,.67,.07,.04,0,.08,0,.11,0,.04,0,.09,0,.13,0,.25,0,.54-.03,.66-.08,0,0,0,0,.01,0,0,0,.01,0,.02,0,0,0,0,0,.01,0,.01,0,.02-.02,.02-.03,0-.01,0-.02-.02-.03Zm-.64,.13c-.06,0-.12,0-.18,0-.05,0-.11,0-.15,0-.03,0-.07,0-.1,0-.23,0-.4-.03-.49-.06,0,0,0,0-.01,0-.01,0-.02,0-.03,0,0,0,0,0-.01,0-.02,0-.02-.02-.02-.02,0,0,.01-.02,.04-.03,0,0,0,0,.01,0,0,0,.02,0,.03,0,0,0,0,0,.01,0,.03,0,.06-.01,.09-.02,0,0,0,0,.01,0,0,0,0,0,0,0,.03,0,.06,0,.09-.01,0,0,0,0,.01,0,.03,0,.06,0,.09,0h.01s.07,0,.11,0c.03,0,.07,0,.1,0h.02s.02,0,.03,0c.05,0,.1,0,.15,0,.06,0,.12,0,.18,0,.01,0,.02,0,.03,0h.02s.07,0,.1,0c.04,0,.07,0,.1,0,0,0,0,0,0,0h0s.06,0,.09,0c0,0,0,0,.01,0h0s.06,0,.09,.01c0,0,0,0,.01,0,.04,0,.07,.01,.1,.02,0,0,0,0,.01,0,.01,0,.02,0,.03,0,0,0,0,0,.01,0,.02,0,.03,.02,.03,.02,0,0,0,.01-.01,.02,0,0,0,0-.01,0,0,0-.02,0-.03,0,0,0,0,0-.01,0-.08,.02-.25,.05-.47,.06-.03,0-.07,0-.1,0Z"/><path class="cls-1" d="M16.01,18.23s-.05,0-.08,0c-.1,0-.21-.01-.31-.02-.05,0-.09,0-.13,0-.03,0-.07,0-.11,0-.1,0-.21,0-.31,.02-.03,0-.06,0-.08,0-.19,.02-.33,.05-.33,.1,0,0,0,.02,.01,.02,0,0,0,0,.01,.01,0,0,0,0,0,0,0,0,.01,0,.02,0h0s.02,0,.03,.01c0,0,0,0,.01,0h0s.02,0,.04,0h0s0,0,0,0c.04,0,.09,.02,.15,.02,0,0,0,0,.01,0h0s.08,0,.12,.01c0,0,0,0,.01,0h0c.1,0,.21,.01,.3,.01,.04,0,.08,0,.11,0,.04,0,.09,0,.13,0,.1,0,.2,0,.3-.02,0,0,0,0,.01,0,.04,0,.08,0,.12-.01,0,0,0,0,.01,0h0c.05,0,.1-.02,.14-.03h0s0,0,.01,0c.01,0,.03,0,.04-.01,0,0,0,0,.01,0,.01,0,.03-.01,.03-.02,0,0,0,0,.01,0,0,0,0,0,0,0,0,0,0,0,0-.01,0,0,0,0,0-.01,0-.05-.13-.08-.31-.1Zm-.32,.2s-.02,0-.03,0c-.06,0-.12,0-.18,0-.05,0-.11,0-.15,0-.01,0-.02,0-.03,0h-.02s-.07,0-.1,0c-.04,0-.08,0-.11,0h-.01c-.08,0-.15-.02-.21-.03,0,0,0,0-.01,0-.02,0-.04,0-.05-.01,0,0,0,0-.01,0h0s-.04-.01-.06-.02c0,0,0,0-.01,0,0,0-.01,0-.01,0,0,0,0,0-.01,0,0,0,0,0,0,0,0-.02,.1-.05,.28-.07,.02,0,.05,0,.07,0,.02,0,.03,0,.05,0,.08,0,.17-.01,.26-.01,.05,0,.1,0,.15,0,.06,0,.12,0,.18,0,.08,0,.15,0,.21,.01,.02,0,.03,0,.05,0,.02,0,.03,0,.05,0,.2,.02,.32,.05,.33,.08h0s0,0,0,0c0,0,0,0-.01,.01,0,0,0,0-.01,0-.02,0-.03,.01-.06,.02,0,0,0,0-.01,0h0s-.03,0-.05,.01c0,0,0,0-.01,0-.06,.01-.13,.02-.21,.03h0s0,0,0,0c-.03,0-.07,0-.1,0-.03,0-.07,0-.1,0h-.02Z"/><path class="cls-1" d="M16.31,18.56s0,0-.01,0c0,0,0,0-.01,0,0,0,0,0-.01,0-.02,0-.05-.02-.08-.03,0,0,0,0-.01,0-.02,0-.04,0-.06-.01,0,0,0,0-.01,0-.05,0-.11-.01-.18-.02,0,0,0,0-.01,0-.06,0-.12,0-.18-.01,0,0,0,0,0,0-.04,0-.08,0-.12,0-.05,0-.09,0-.13,0-.03,0-.07,0-.11,0-.04,0-.08,0-.12,0h-.02c-.06,0-.12,0-.18,.01,0,0,0,0-.01,0-.06,0-.13,.01-.18,.02t0,0s0,0,0,0c-.02,0-.04,0-.06,.01,0,0,0,0-.01,0-.03,0-.06,.01-.08,.02,0,0,0,0-.01,0,0,0,0,0-.01,0,0,0,0,0-.01,0-.02,.01-.03,.02-.03,.03,0,.06,.23,.1,.48,.11,.08,0,.17,.01,.25,.01,.04,0,.08,0,.11,0,.04,0,.09,0,.13,0,.08,0,.17,0,.25-.01,.24-.02,.46-.05,.46-.11,0,0,0-.02-.02-.03Zm-.44,.12s0,0,0,0c-.04,0-.09,0-.13,0-.02,0-.05,0-.07,0-.06,0-.12,0-.18,0-.05,0-.11,0-.15,0-.03,0-.05,0-.07,0-.05,0-.09,0-.13,0,0,0,0,0,0,0-.05,0-.1,0-.14-.01-.2-.02-.31-.05-.31-.08,0,0,0-.01,.03-.02,0,0,0,0,.01,0,0,0,.02,0,.03,0,0,0,0,0,.01,0,.03,0,.07-.02,.12-.02,0,0,0,0,.01,0h0s.05,0,.08-.01c0,0,0,0,.01,0,.04,0,.08,0,.13-.01,.04,0,.09,0,.15,0,0,0,0,0,.01,0,.03,0,.05,0,.08,0,.05,0,.1,0,.15,0,.06,0,.12,0,.18,0,.02,0,.05,0,.07,0,0,0,.01,0,.02,0,.05,0,.1,0,.15,0,.04,0,.08,0,.12,.01,0,0,0,0,.01,0,.03,0,.06,0,.08,.01,0,0,0,0,.01,0,.05,0,.09,.02,.12,.03,0,0,0,0,.01,0,.01,0,.02,0,.03,.01,0,0,0,0,.01,0,.01,0,.02,.01,.02,.02,0,.02-.1,.05-.29,.08-.04,0-.09,0-.14,.01Z"/><path class="cls-1" d="M16.32,18.36s0,0,0-.01c0,0,0,0,0,0,0,0,0,0-.01,0-.08-.05-.32-.07-.55-.08-.04,0-.09,0-.13,0-.05,0-.09,0-.13,0-.03,0-.07,0-.11,0-.04,0-.08,0-.13,0-.23,0-.46,.03-.56,.07h0s-.01,0-.02,0c0,0,0,0,0,0,0,0,0,0-.01,.01,0,0-.01,.01-.01,.02,0,.01,0,.02,.03,.03,0,0,0,0,.01,0,0,0,0,0,.01,0,0,0,0,0,.01,0,.02,0,.05,.02,.08,.02,0,0,0,0,.01,0,.02,0,.04,0,.06,.01,0,0,0,0,.01,0,.05,0,.11,.01,.18,.02,0,0,0,0,.01,0,.06,0,.12,0,.18,.01h.02s.08,0,.12,0,.08,0,.11,0c.04,0,.09,0,.13,0,.04,0,.08,0,.12,0,0,0,0,0,0,0,.06,0,.12,0,.18-.01,0,0,0,0,.01,0,.06,0,.12-.01,.18-.02,0,0,0,0,.01,0,.02,0,.04,0,.06-.01,0,0,0,0,.01,0,.03,0,.06-.02,.08-.02,0,0,0,0,.01,0,0,0,.01,0,.01,0,0,0,0,0,.01,0,.01,0,.02-.02,.02-.03,0,0,0,0,0-.01Zm-.59,.11s-.05,0-.07,0c-.06,0-.12,0-.18,0-.05,0-.11,0-.15,0-.03,0-.05,0-.08,0,0,0,0,0-.01,0-.03,0-.05,0-.07,0-.04,0-.07,0-.1,0-.03,0-.06,0-.09,0h0s0,0-.01,0c-.03,0-.06,0-.09-.01h0s0,0-.01,0c-.05,0-.09-.02-.12-.02,0,0,0,0-.01,0-.01,0-.02,0-.03,0,0,0,0,0-.01,0-.02,0-.03-.01-.03-.02,0,0,0,0,0,0,0,0,0,0,.01,0,0,0,0,0,.01,0,0,0,0,0,.01,0,.07-.02,.23-.05,.45-.06h.05s.07,0,.11,0c.05,0,.1,0,.15,0,.06,0,.12,0,.18,0,.04,0,.08,0,.11,0,.02,0,.04,0,.05,0,.23,.01,.38,.04,.44,.07,0,0,0,0,.01,0,0,0,.01,0,.01,0,0,0,0,0,0,0h0s0,0,0,0c0,0,0,.01-.01,.01,0,0,0,0-.01,0,0,0-.02,0-.03,.01,0,0,0,0-.01,0-.03,0-.07,.02-.12,.03,0,0,0,0-.01,0-.03,0-.05,0-.09,.01h0s0,0-.01,0c-.05,0-.12,.01-.18,.02-.02,0-.05,0-.07,0,0,0-.01,0-.02,0Z"/><path class="cls-1" d="M16.31,18.42s0,0-.01,0c0,0,0,0-.02,0,0,0,0,0-.01,0,0,0,0,0-.01,0,0,0,0,0-.01,0-.01,0-.02,0-.04-.01,0,0,0,0-.01,0h0c-.09-.02-.22-.04-.36-.05-.05,0-.09,0-.14,0-.03,0-.05,0-.08,0-.05,0-.09,0-.13,0-.03,0-.07,0-.11,0-.03,0-.05,0-.08,0-.05,0-.09,0-.14,0-.14,0-.28,.02-.37,.04,0,0,0,0,0,0h0s-.03,0-.04,0h0s0,0-.01,0c0,0-.01,0-.01,0,0,0,0,0-.01,0,0,0,0,0-.01,0,0,0,0,0-.01,0-.02,.01-.03,.02-.03,.03,0,.01,.01,.03,.04,.04,0,0,0,0,.01,0h0s.01,0,.02,0c0,0,0,0,.01,0,.02,0,.04,.01,.07,.02,0,0,0,0,.01,0,.02,0,.04,0,.06,.01,0,0,0,0,.01,0,.14,.02,.34,.03,.51,.04,.04,0,.08,0,.11,0,.04,0,.09,0,.13,0,.17,0,.36-.02,.49-.04,0,0,0,0,.01,0,.02,0,.04,0,.06-.01,0,0,0,0,.01,0,.02,0,.05-.01,.07-.02,0,0,0,0,.01,0,0,0,.01,0,.02,0,0,0,0,0,.01,0,.02-.01,.02-.02,.02-.03,0,0,0-.02-.02-.03Zm-.65,.13c-.06,0-.12,0-.18,0-.05,0-.11,0-.15,0-.07,0-.14,0-.2,0-.06,0-.12,0-.17-.01,0,0,0,0-.01,0-.03,0-.06,0-.09-.01,0,0,0,0-.01,0-.04,0-.07-.01-.09-.02,0,0,0,0-.01,0-.01,0-.02,0-.03,0,0,0,0,0-.01,0-.03,0-.04-.02-.04-.03,0,0,0-.01,.03-.02,0,0,0,0,.01,0,0,0,.02,0,.03,0,0,0,0,0,.01,0,0,0,.02,0,.03,0h0s0,0,.01,0c.02,0,.03,0,.05-.01,0,0,0,0,.01,0,.1-.02,.24-.03,.41-.04,.02,0,.05,0,.08,0,.05,0,.1,0,.15,0,.06,0,.12,0,.18,0,.03,0,.05,0,.08,0,.17,0,.3,.02,.4,.04,0,0,0,0,.01,0,.02,0,.04,0,.05,.01h0s0,0,.01,0c0,0,.02,0,.03,0,0,0,0,0,.01,0,.01,0,.02,0,.03,.01,0,0,0,0,.01,0,.01,0,.02,.01,.02,.02,0,0-.01,.02-.03,.02,0,0,0,0-.01,0,0,0-.02,0-.03,.01,0,0,0,0-.01,0-.02,0-.05,.01-.09,.02h0s0,0-.01,0c-.03,0-.06,0-.09,.01,0,0,0,0-.01,0-.05,0-.1,.01-.16,.02-.06,0-.13,0-.2,0Z"/></g></g></g></g></svg>