<?xml version="1.0" encoding="UTF-8"?><svg id="Layer_2" xmlns="http://www.w3.org/2000/svg" viewBox="0 0 29.17 99.99"><defs><style>.cls-1{fill:#f5333f;}.cls-2{fill:#fff;}.cls-3{fill:#ff4713;}.cls-4{fill:#c7a0ce;}.cls-5{fill:#6f2277;}.cls-6{fill:#8a2432;}.cls-7{letter-spacing:0em;}.cls-8{font-size:5px;}.cls-9{letter-spacing:0em;}.cls-10{letter-spacing:0em;}.cls-11{fill:#231f20;font-family:FranklinGothic-DemiCond, 'Franklin Gothic Demi Cond';font-weight:300;}.cls-12{font-size:8px;letter-spacing:.01em;}.cls-13{letter-spacing:0em;}</style></defs><g id="Sazarac"><path class="cls-5" d="M21.31,21.6c-6.14-.53-11.89-.13-13.45,0l.03-.43,.81-12.22v-.12s-.09-.07-.09-.07l-.17-.13s-.05-.04-.08-.07l-.07-.07s-.04-.05-.06-.07c-.02-.02-.04-.05-.05-.07l-.04-.07s0-.04-.01-.06c0-.02,0-.04,0-.06,0-.02,.01-.04,.02-.06,.01-.02,.02-.04,.04-.06,.02-.02,.03-.04,.05-.06,.04-.04,.09-.08,.14-.11,.82-.07,5.42-.38,12.42,0,.05,.03,.1,.07,.14,.11,.02,.02,.03,.04,.05,.06,.02,.02,.02,.04,.04,.06,0,.02,.01,.04,.02,.06,0,.02,0,.04,0,.06,0,.02-.01,.04-.02,.06l-.04,.07s-.03,.05-.05,.07c-.02,.02-.03,.05-.06,.07l-.07,.07s-.05,.05-.08,.07l-.17,.13-.1,.07v.12s.81,12.22,.81,12.22l.03,.43Z"/><path class="cls-5" d="M20.49,7.35l.06-6.54s-.13-.11-.24-.14c-.11-.05-.24-.08-.36-.11-.25-.06-.51-.1-.77-.14-.52-.07-1.04-.12-1.57-.15-2.02-.14-4.06-.14-6.08,0-.52,.04-1.05,.08-1.57,.15-.26,.04-.52,.08-.77,.14-.12,.03-.25,.07-.36,.11-.1,.04-.2,.1-.23,.14l.06,6.53s.06-.01,.1-.02l.04,.2c-.05,.01-.1,.02-.14,.03v.1c1.34-.09,5.61-.32,11.81,.01v-.1s-.08-.02-.12-.02l.03-.2s.06,.01,.09,.02Zm-11.08,.06l-.03-.2c.18-.03,.38-.06,.61-.1l.03,.2c-.22,.03-.43,.06-.6,.09Zm1.21-.17l-.02-.2c.19-.02,.4-.04,.61-.07l.02,.2c-.21,.02-.42,.04-.61,.07Zm1.22-.12l-.02-.2c.2-.02,.4-.03,.61-.04v.2c-.2,.01-.4,.03-.6,.04Zm1.22-.07v-.2c.19,0,.4-.02,.61-.02v.2c-.2,0-.41,.01-.61,.02Zm1.84-.02c-.16,0-.32,0-.48,0h-.13v-.2h.13c.16,0,.32,0,.48,0v.2Zm1.22,.04c-.21-.01-.41-.02-.61-.02v-.2c.21,0,.41,.01,.62,.02v.2Zm1.21,.08c-.21-.02-.41-.03-.61-.05v-.2c.22,.01,.42,.03,.63,.05l-.02,.2Zm1.22,.12c-.2-.02-.41-.05-.61-.07l.02-.2c.2,.02,.41,.04,.61,.07l-.02,.2Zm1.21,.17c-.2-.03-.41-.06-.6-.09l.03-.2c.2,.03,.41,.06,.61,.09l-.03,.2Z"/><path class="cls-6" d="M27.41,92.61c-11.8,2.98-22.74,.88-25.65,.21v-.62c1.82,.42,6.56,1.34,12.62,1.34,3.92,0,8.41-.39,13.03-1.54v.62Z"/><path class="cls-1" d="M27.42,95.56s0,.05,0,.07c0,.04-.02,.09-.05,.16-.02,.08-.05,.15-.09,.23-4.57,1.13-9.01,1.51-12.9,1.51-5.8,0-10.38-.84-12.36-1.28-.1-.15-.17-.31-.22-.46-.02-.06-.03-.11-.04-.14,0-.03-.01-.06-.01-.09v-.4s0-.6,0-.6c1.81,.42,6.55,1.34,12.63,1.34,3.93,0,8.42-.39,13.03-1.55v.81s0,.4,0,.4Z"/><path class="cls-1" d="M25.88,41.21c-.13-.08-1.14,.31-1.3,.35-2.32,.5-4.72,.65-7.08,.7-3.87,.09-7.71,.14-11.56-.46-.68-.1-1.36-.23-2.03-.41-.07-.02-.56-.22-.62-.19l.44-.68s0,0,0,0c0,0,0-.01,.02-.02h0c.22-.32,.65-.48,.99-.6,1.34-.52,2.79-.66,4.22-.8,1.49-.14,2.96-.27,4.46-.27,.39,0,.78,0,1.16,0,.39,0,.78,0,1.16,0,1.49,0,2.97,.13,4.45,.27,1.42,.13,2.87,.28,4.22,.8,.34,.13,.78,.29,.99,.6h0s.01,.02,.02,.03c0,0,0,0,0,0l.44,.68Z"/><path class="cls-1" d="M22.23,34.78s-4.26,.91-7.65,.81c-3.39,.1-7.65-.81-7.65-.81,.11-.59,.12-1.14,.15-1.67,.03-.52,.07-1.07,.1-1.6l.22-3.22,.44-6.44,.02-.24c1.56-.13,7.31-.53,13.45,0l.02,.24,.44,6.44,.22,3.22c.03,.54,.08,1.08,.1,1.6,.03,.54,.04,1.08,.15,1.67Z"/><path class="cls-4" d="M20.94,7.68v.2c-.06,0-.1,0-.14,0-7-.39-11.59-.07-12.42,0-.08,0-.13,.01-.13,.01l-.02-.2s.16-.01,.45-.03c1.34-.09,5.61-.32,11.81,.01l.45,.02Z"/><path class="cls-6" d="M25.41,40.5c-.22-.31-.65-.47-.99-.6-1.34-.52-2.79-.66-4.22-.8-1.48-.14-2.96-.27-4.45-.27-.39,0-.78,0-1.16,0-.39,0-.78,0-1.16,0-1.49,0-2.97,.13-4.46,.27-1.42,.13-2.87,.28-4.22,.8-.34,.13-.77,.29-.99,.6,0,0,0-.01,.01-.02,.32-.51,2.79-4.42,3.13-5.55,0,0,0,0,0-.01,.02-.06,.03-.1,.03-.14,0,0,4.26,.91,7.65,.81,3.39,.1,7.65-.81,7.65-.81,0,.04,.02,.09,.03,.14,0,0,0,0,0,.01,.33,1.13,2.81,5.04,3.13,5.55,0,0,.01,.02,.01,.02Z"/><path class="cls-6" d="M25.88,41.21c-.13-.08-1.14,.31-1.3,.35-2.32,.5-4.72,.65-7.08,.7-3.87,.09-7.71,.14-11.56-.46-.68-.1-1.36-.23-2.03-.41-.07-.02-.56-.22-.62-.19-3.43,2.16-2.21,6.14-2.21,6.14v-.06s27,0,27,0v.06s1.22-3.98-2.21-6.14Z"/><path class="cls-2" d="M27.41,92.61c-11.8,2.98-22.74,.88-25.65,.21v1.52s0,0,0,0v.2c1.81,.42,6.55,1.34,12.63,1.34,3.93,0,8.42-.39,13.03-1.55v-1.53s0-.21,0-.21Z"/><g><path class="cls-1" d="M13.05,98.04c-3.46,.09-6.81-.14-10.17-1.02-.13-.03-.18,.16-.05,.2,3.3,.87,6.82,1.28,10.23,.9,.05,0,.05-.08,0-.08Z"/><path class="cls-1" d="M14.66,98.74c-3.26,0-6.43,.13-9.68-.42-.09-.01-.12,.12-.04,.13,3.16,.53,6.54,.92,9.73,.41,.07-.01,.05-.12-.02-.12Z"/><path class="cls-1" d="M24.93,98c-3,.78-6.01,1.1-9.09,1.31-.04,0-.04,.06,0,.07,3.07,.09,6.18-.44,9.13-1.23,.09-.03,.05-.17-.04-.15Z"/><path class="cls-1" d="M26.72,96.45c-1.54,.57-2.98,1.14-4.61,1.41-1.7,.28-3.46,.4-5.18,.42-.07,0-.07,.1,0,.1,3.22,.03,6.98-.12,9.86-1.78,.08-.05,.03-.19-.06-.15Z"/><path class="cls-1" d="M26.1,97.42s-.02,0-.03,0c.15-.06,.31-.11,.46-.18-.03,.01-.08-.01-.12,0-.44,.14-.89,.27-1.33,.4-1,.24-1.99,.49-2.99,.72-3.31,.66-6.65,.84-10.13,.35-.06,0-.13,0-.19,0,2.48,.35,5.09,.45,7.65,.2-1.57,.28-3.17,.45-4.8,.41-.07,0-.16,0-.21,0,2.23,.06,4.48-.18,6.68-.61,1.67-.26,3.3-.67,4.85-1.25,.05-.02,.1-.03,.15-.05Z"/><path class="cls-1" d="M22.76,97.77c-3.7,.4-7.38,.85-11.1,.28-.08-.01-.16,.01-.24,0,3.8,.6,7.68,.22,11.47-.28-.05,0-.09,0-.14,0Z"/><path class="cls-1" d="M14.32,98.47c-3.61,.18-7.24,.32-10.76-.65-.06-.02-.14,.02-.19,0,3.58,1.02,7.36,.86,11.04,.65-.02,0-.06,0-.09,0Z"/></g><path class="cls-4" d="M8.82,7.52c-.05,.01-.1,.02-.14,.03v-.2s.06-.01,.1-.02l.04,.2Z"/><path class="cls-4" d="M14.42,6.81h-.13v.2h.13c.16,0,.32,0,.48,0v-.2c-.16,0-.32,0-.48,0Zm-.75,0c-.21,0-.42,.01-.62,.02v.2c.21,0,.41-.02,.62-.02v-.2Zm1.84,.01v.2c.19,0,.4,.01,.6,.02v-.2c-.2-.01-.4-.02-.6-.02Zm-3.07,.04c-.21,.01-.42,.03-.61,.04l.02,.2c.19-.02,.4-.03,.61-.04v-.2Zm4.29,.02v.2c.19,.01,.39,.03,.6,.05l.02-.2c-.21-.02-.41-.03-.61-.05Zm-5.53,.08c-.21,.02-.42,.04-.61,.07l.02,.2c.19-.02,.39-.05,.61-.07l-.02-.2Zm6.76,.03l-.02,.2c.2,.02,.4,.04,.61,.07l.02-.2c-.21-.03-.41-.05-.61-.07Zm-7.98,.12c-.23,.03-.43,.07-.61,.1l.03,.2c.18-.03,.38-.06,.6-.09l-.03-.2Zm9.2,.03l-.03,.2c.2,.03,.4,.06,.6,.09l.03-.2c-.2-.03-.41-.06-.61-.09Z"/><path class="cls-4" d="M20.49,7.35v.2s-.08-.02-.12-.02l.03-.2s.06,.01,.09,.02Z"/><g><path class="cls-6" d="M26.73,95.57c-.14-.03-.3,.03-.44,0,.14,.03,.14,.06,.07,.09h-.04c-.07,0-.14-.02-.2,0-.19,.06-.38,.1-.57,.16-.03,0-.06,0-.08,0-.32,.04-.65,.09-.97,.14,.11-.04,.21-.07,.32-.11h-.22c-.08-.01-.16-.02-.22,0-.27,.1-.55,.19-.82,.26-.86,.14-1.72,.31-2.58,.49-.53,.06-1.05,.11-1.58,.16,.14-.01,.29,.01,.44,0,.23-.02,.46-.04,.69-.06-.01,0-.02,0-.03,0h.33s.08,0,.11,0c.54-.04,1.07-.11,1.59-.21,0,0,0,0,.01,0,1.13-.13,2.24-.35,3.34-.64,.06,0,.12,.01,.17,0,.16-.04,1.13-.19,.69-.28Zm-3.01,.64c.13-.04,.25-.08,.38-.12,.23-.04,.45-.08,.68-.11-.35,.08-.71,.16-1.06,.23Z"/><path class="cls-6" d="M28.14,94.92c-.14,.03-.29-.03-.43,0-.76,.17-1.53,.32-2.3,.47,0,0-.01,0-.02,0,0,0-.01,0-.02,0-.73,.14-1.47,.27-2.2,.39,.54-.15,1.08-.33,1.6-.55-.03,.01-.07,.02-.11,.02,.04,0,.07-.01,.11-.02h-.32s-.09,0-.13,0c-.93,.15-1.86,.31-2.79,.46,.14-.02,.3,.02,.45,0,.67-.11,1.34-.22,2-.33-.62,.24-1.25,.43-1.89,.58-1,.15-2,.27-3.01,.38,.04,0,.08,0,.12,0-.03,0-.06,0-.09,0,.09,0,.18,0,.26,0,.04,0,.08,0,.12,0,0,0,.02,0,.03,0,0,0,0,0,0,0h0c.97-.02,1.92-.14,2.86-.34,.67-.09,1.34-.2,2.01-.31-3.15,.84-6.29,1.27-9.59,1.03-.14,0-.27,.01-.41,0,3.73,.28,7.63,0,11.19-1.24,.86-.16,1.71-.34,2.56-.54Zm-8.29,1.37c.41-.04,.83-.09,1.24-.14-.41,.06-.82,.11-1.24,.14Z"/><path class="cls-6" d="M11.15,96.2s.01,0,.02,0c-.01,0-.02,0-.03,0-.39-.02-.79-.02-1.18-.02,.4,0,.79,.02,1.19,.03Z"/><path class="cls-6" d="M3.5,95.42s.08,0,.12,.01c-.02,0-.04-.02-.06-.02-.06,0-.12,0-.18,0,.04,0,.08,.01,.12,.02Z"/><path class="cls-6" d="M2.78,95.26c.14,0,.27,.01,.38,.02-.04-.01-.09-.02-.13-.03-.09,0-.18,0-.25,0Z"/><path class="cls-6" d="M14.33,96.75c.05,0,.11,0,.16,0-.07,0-.14,0-.21,0-.05,0-.09,0-.14,0-.86,.01-1.72,0-2.58-.04-.03,0-.07-.01-.1-.02,.07,0,.15,0,.22,0,.17,0,.33,.02,.5,.02,.05,0,.11,0,.16,0,.1,0,.2,0,.3,0,0,0,0,0,.01,0-.09,0-.17-.02-.26-.02,.55,0,1.09-.02,1.64-.04,.03,0-.06,0-.06,0-.27,0-.53,0-.8-.01,0,0,.01,0,.02,0-.01,0-.03,0-.04,0h-.17c-.24,0-.59,.01-.87,.03-.14-.01-.27-.03-.41-.04,.25,0,.49,0,.74,0,.06,0,.12,0,.19,0-.15,0-.31,0-.46,0-.11,0-.56-.03-.58-.02,.02-.02,.08-.03,.15-.04,.06,0,.12,0,.18,0h-.12s.03,0,.04,0c.03,0,.06,0,.09,0-.02,0-.04,0-.06,0,.21,0,.46,0,.5,0,.56-.03,1.13-.08,1.69-.14-.1,0-.19,0-.26-.02-.65,.07-1.3,.12-1.96,.16-.14-.03-.29-.05-.43-.07,.09,0,.18,0,.27,0,.41,.02,.7,0,.71-.09,0,0,0,0,0,0,.13,0,.25,0,.38,0,.07,0,.12,0,.17-.01,.27,0,.54,0,.81,0-.02-.01-.04-.02-.05-.04-.21-.03-.2-.05,.04-.06,.18-.03,.37-.05,.55-.08,.37-.04,.74-.07,1.11-.09,.03,0,.06,0,.09,0,.23,0,.46,.01,.69,.02,.03,0,.07,0,.1,0,.08,0,.16,0,.24,0,.03,0,.06,0,.08,0,0,0,.01,0,.02,0,0,0,0,0-.01,0,.11,0,.21,0,.28,0-.13,0-.26,0-.39-.01-.1-.01-.2-.03-.3-.04,.27-.02-.08-.02-.41-.06-.06,0-.12-.02-.19-.03-.07,0-.13,0-.2,0h-.27c.23,.04,.47,.07,.7,.09,.01,0,.03,0,.04,0,0,0,0,0,.01,0,.06,0,.11,.01,.17,.01-.03,0-.06,0-.09,0h.06c-.11,0-.21,0-.32,0-.05,0-.1,0-.15,0,.03,0,.05,0,.08,0-2.66-.06-5.31-.17-7.96-.32-.14,0-.34,0-.45,0,.36,.01,.72,.06,1.08,.14-.13,.03-.25,.04-.38,.05-.25-.03-.5-.07-.75-.1-.13-.03-.27-.06-.4-.09-.07-.01-.14,0-.21,0-.09-.01-.18-.03-.28-.04-.09-.01-.17-.02-.26-.04-.03,0-.06,0-.09,0-.18-.02-.36-.03-.54-.04-.16-.04-.33-.07-.5-.1-.44-.16-.89-.25-1.36-.28-.61-.16-1.38-.31-1.48-.09,0,0,0,.02,0,.03h-.2c.11,.02,.22,.05,.33,.07,0,0,.01,0,.02,0-.04,.01-.07,.03-.1,.05-.19,0-.2,.03-.05,.12,.09,.1,.21,.16,.35,.19,.17,.06,.38,.07,.55,.08,.26,.02,.53,.02,.8,.02,.03,0,.06,0,.09,0l.22,.06c.07,.02,.14,.01,.22,0,.17,.03,.35,.05,.52,.08-.3,0-.6,0-.9,.02-.02,0-.04,0-.06,0-.05,0-.1,0-.16,0-.1,0-.2,0-.3,0,0,0,0,0-.01,0,.26,.03,.51,.05,.77,.08-.14,0-.28-.02-.42-.03-.02,0-.03,0-.05,0-.03,0-.06,0-.09,0-.17-.01-.35-.02-.52-.04-.09-.01-.19-.02-.28-.03-.03,0-.06,0-.1,0-.12,0-.23-.02-.35-.03-.16-.01-.32,.01-.48,0,.15,.01,.31,.02,.46,.04,.3,.07,.59,.14,.89,.2,1.12,.29,2.25,.46,3.4,.52,.05,0,.09,0,.14,0h.31s0,0,.01,0c-.24-.03-.46-.07-.68-.14,.86,.05,1.73,.1,2.59,.16,.57,.07,1.13,.13,1.7,.2,.05,0,.1,0,.15,0h.32c-.1-.02-.2-.05-.29-.07,1.24,.11,2.49,.09,3.73-.03-.08,0-.15,0-.23,0Zm-2.7-.34c-.07-.02-.14-.04-.2-.05,.17,.01,.35,.02,.47,.02,0,0,.02,0,.03,.01-.1,0-.2,.01-.3,.02Zm-.19-.11s.06-.02,.1-.03c.1,.02,.2,.05,.28,.08-.13,0-.25-.03-.38-.05Zm.84-.02c-.08-.03-.2-.06-.35-.09,.26-.02,.51,.01,.76,.1-.14,0-.27-.01-.41-.02Zm-3.89-.44s0,0,0,0c.9,.05,1.81,.09,2.71,.13,1.43,.06,2.87,.1,4.31,.13-.76,.02-1.51,.08-2.27,.19-.4-.12-.8-.16-1.22-.15-.04,0-.14,0-.26,0-.4-.05-.92-.07-1.41-.08,.27,.03,.54,.07,.63,.09,.08,.01,.17,.03,.26,.04,.02,0,.03,0,.05,0,0,0-.01,0-.02,0,.02,0,.03,0,.05,0-.02,0-.04,0-.07,0-.03,0-.06,.01-.09,.02-.23-.01-.46-.03-.7-.03-.15-.01-.31-.02-.46-.03,.02,0,.04,0,.06,0-.02,0-.05,0-.07,0-.08,0-.16,0-.25,0-.02,0-.04-.02-.05-.03-.06-.04-.07-.06-.05-.08-.36,0-.65,0-.79,.02,0,0,0,0,0,0,.07,.01,.13,.02,.2,.03-.2-.03-.4-.06-.6-.08,.26,0,.51,0,.77-.02h0c-.25-.06-.49-.13-.75-.17Zm2.59,.55s-.04,0-.07,0l-.89-.12c-.09-.02-.17-.04-.26-.06,.1,0,.2,0,.3,.01,0,.02,.59,.06,.61,.07,.21,.05,.3,.09,.3,.11Zm-1.93,.06c-.08,0-.15,0-.23,0-.2-.03-.39-.07-.59-.11,.08,0,.16-.01,.22-.01,0,0,.02,0,.02,0,.03,0,.05,0,.08,0,.17,.04,.33,.08,.5,.12Zm-1.19-.23s.02,0,.03,0c.16,.03,.32,.06,.48,.09-.08,0-.15,0-.23,.01-.12-.02-.25-.05-.37-.08,.05,0,.08-.02,.09-.02Zm.34,.2c-.09,0-.18,0-.28-.01-.09,0-.17-.02-.26-.02,.07,0,.15-.02,.23-.02,.1,.02,.21,.04,.31,.06Zm-.87-.1c.09,0,.18,0,.26,0,0,0,0,0,.01,0l-.31-.03s.1,0,.15-.01c.11,.02,.21,.04,.32,.06-.1,0-.2,.02-.3,.03-.17-.02-.35-.04-.52-.06,0,0,.01,0,.02,0,.07,0,.14,.01,.2,.01,.05,0,.11,0,.17,0Zm-.06,.07s-.02,0-.02,0h-.31c-.2-.03-.4-.05-.61-.06,.11,0,.22,0,.33,0,.2,.02,.41,.05,.61,.07Zm-.4-.24s.07,.02,.1,.02c0,0-.02,0-.02,0-.2,0-.41,0-.61,0-.62-.03,.04-.05,.53-.04Zm-1.87-.17s.06,0,.1-.01c.13,.02,.27,.03,.4,.04,.09,.02,.17,.03,.26,.04,.07,.01,.14,0,.21,0h.05s.08,0,.12,.01c-.04,.01-.08,.02-.11,.03,.16,0,.33,0,.49,0,.07,0,.14,.01,.21,.02,.01,0,.02,0,.04,0-.14,0-.28-.01-.42-.02-.12,0-.24,0-.36,0,.02,0,.03,0,.05-.01-.18,0-.36,0-.54,0-.02,0-.04,0-.06-.01-.16-.03-.32-.06-.48-.09,.02,0,.05,0,.07,0Zm-2.32-.78c.12,.01,.24,.03,.36,.05,.1,0,.2,.02,.3,.03-.03,0-.06,0-.09,0-.02,0-.05,0-.08,0,.13,.03,.27,.08,.4,.13,.13,0,.27,.03,.42,.05-.07,0-.14-.01-.21-.01-.05,0-.1-.01-.15-.02,0,0,0,0,.01,0-.04,0-.09-.01-.13-.02-.06,0-.13,0-.19-.01,.02,0,.05,0,.07,0-.24-.03-.47-.07-.71-.12,.03-.01,.07-.02,.11-.03-.07,0-.15,0-.22,0-.02-.02,.01-.04,.11-.06Zm.32,.5c-.13-.02-.26-.06-.38-.13-.1-.05-.17-.09-.19-.13,.14,.02,.27,.03,.41,.05,.17,.05,.34,.1,.51,.15h-.23c.22,.05,.44,.09,.66,.12,.01,0,.02,0,.04,.01-.3,0-.65-.02-.82-.07Zm1.66-.02c-.15-.02-.3-.03-.45-.04,.01,0,.03,0,.04,0-.09,0-.17-.02-.26-.03l.12,.03s.04,0,.05,0c-.01,0-.02,0-.04,0,0,0-.01,0-.02,0,0,0,0,0-.01,0-.16-.02-.33-.05-.49-.07,.13,.02,.26,.03,.38,.04-.18-.04-.37-.08-.55-.12,.13,.02,.26,.03,.39,.04,.02,0,.05,0,.08,0h.18c.1,.01,.21,.03,.31,.04,0,.02-.05,.04-.14,.06,.21,.02,.4,.04,.56,.05-.05,0-.1,0-.15,0Zm-1.43,.34c.51,.06,1.03,.13,1.54,.2-.05,0-.11,0-.16,0,0,0,0,0,0,0,.23,.03,.47,.05,.71,.07,.04,.02,.08,.03,.12,.05-.58-.07-1.17-.15-1.75-.22-.15-.03-.3-.07-.44-.1Zm1.55,.35c.31,.03,.62,.06,.94,.08,.16,.05,.32,.1,.49,.13-.48-.05-.95-.12-1.42-.21Zm1.57,.13s-.1-.03-.14-.05h.09s0,0,.01,0c-.06,0-.11-.01-.17-.02-.02,0-.04-.01-.06-.02,.09,.01,.19,.03,.28,.04,.07,.01,.14,0,.21,0h.1c-.11,.01-.21,.03-.32,.04Zm.62-.08h-.09s.03,0,.05,0c-.05,0-.1,.01-.16,.02-.1-.02-.21-.03-.32-.05-.05,0-.1-.01-.15-.02,.12,0,.23,0,.35,.01,.12,0,.24,.02,.36,.02-.02,0-.03,0-.05,0Zm.78,.14c-.48-.03-.59-.06-.5-.1,.04,0,.08,0,.12,.01,.29,.05,.58,.08,.87,.1l.19,.02c-.22-.01-.45-.03-.67-.04Zm1.04-.03s-.05,0-.07,0c-.02,0-.04,0-.06,0-.03,0-.06,0-.09,0-.04,0-.08,0-.13,0-.24-.02-.48-.05-.72-.07,.12,0,.24,0,.36,0,.08,0,.16,0,.24,0,.06,0,.12,0,.18,.01,.1,.02,.2,.03,.31,.05h-.03Zm.6,.13c-.17-.02-.35-.04-.52-.06,.24,.02,.48,.03,.72,.04,.12,.02,.23,.03,.35,.05-.18-.01-.37-.02-.55-.03Zm.51-.29c.29,.03,.58,.06,.86,.1-.17,.02-.44,.03-.68,.03,.05,0,.1-.01,.14-.02-.11-.04-.22-.07-.33-.11Zm1.09,.14c.1,.02,.2,.03,.3,.05-.4-.02-.79-.03-1.19-.05,.3,0,.59,0,.89,0Zm-.6,.04s.02,0,.03,0c.34,.01,.68,.03,1.02,.04,.02,0,.04,0,.06,0,.03,0,.06,0,.08,0-.11,0-.23,.01-.34,.02-.29-.02-.57-.04-.86-.06Zm.37,.2s-.03,0-.05,0c.03,0,.07,0,.1,0,.11,0,.22,0,.33,0-.04,0-.08,0-.12-.01,.05,0,.09,0,.13,.01-.04,0-.08-.02-.11-.02,.03,0,.05,0,.08,0,.09,.02,.19,.04,.28,.07-.21-.01-.43-.03-.64-.04Zm.94,.08c.11,0,.23,0,.34,0-.06,0-.12,0-.17-.01,.06,0,.13,0,.18,.01-.14-.03-.27-.06-.4-.09,.78,.02,1.57,.03,2.35,.03-.76,.07-1.53,.1-2.29,.06Z"/><path class="cls-6" d="M9.54,96.06c.22,0,.46,0,.71,0-.32-.04-.65-.06-.71,0Z"/><path class="cls-6" d="M14.12,96.36c-.13,0-.25,0-.38,0,.02,.01,.04,.02,.06,.03,.11-.01,.21-.02,.32-.03Z"/><path class="cls-6" d="M15.96,96.09s-.06,0-.09-.01c-.07,0-.14,0-.23,.01,.02,0,.05,0,.07,0,.08,0,.17,0,.25,0Z"/><path class="cls-6" d="M14.24,96.4c.39-.04,.78-.08,1.17-.13h-.25c-.08,0-.15,0-.22,0-.28,.03-.55,.06-.83,.09,.15,0,.3-.01,.45-.02-.11,.02-.22,.05-.33,.06Z"/><path class="cls-6" d="M13.15,96.63s.02,0,.03,0c-.17-.03-.37-.02-.55,0,.12,0,.23,0,.35,0,.07,0,.13,0,.17,0Z"/></g><path class="cls-3" d="M29.15,45.92c-.03-.56-.07-1.12-.24-1.73-.03-.09-.06-.18-.1-.27l-.09-.18c-.04-.07-.02-.03-.03-.06v-.02s-.04-.05-.04-.05l-.06-.09-.11-.17-.45-.68-1.81-2.68-1.82-2.67-.23-.33-.02-.03s0-.01,0-.01v-.02s-.06-.08-.06-.08l-.1-.17c-.13-.22-.26-.45-.38-.68-.23-.46-.42-.92-.52-1.41-.09-.47-.12-1-.15-1.54-.03-.55-.09-1.08-.13-1.62l-.27-3.22-.54-6.44-1.08-12.75,.09-.07s.06-.06,.09-.08l.09-.09s.06-.07,.08-.11c.03-.04,.06-.07,.08-.12,.02-.04,.05-.09,.06-.14,.01-.05,.03-.11,.03-.16,0-.06,0-.11,0-.17-.02-.05-.03-.11-.05-.16-.03-.04-.05-.09-.08-.13-.03-.04-.06-.08-.1-.11-.07-.06-.14-.12-.22-.16-.04-.02-.07-.04-.11-.06l-.06-6.7v-.05s-.07-.09-.1-.12c-.03-.02-.07-.06-.1-.07-.07-.04-.13-.07-.2-.09-.13-.05-.27-.08-.4-.12-.27-.06-.53-.1-.79-.13-.53-.06-1.06-.1-1.59-.13C16.62,0,15.6,0,14.59,0c-1.02-.01-2.03,0-3.05,.05-.53,.03-1.06,.06-1.59,.13-.27,.03-.53,.07-.79,.13-.13,.03-.27,.06-.4,.12-.07,.02-.13,.06-.2,.09-.03,.02-.07,.05-.1,.07-.03,.03-.06,.08-.09,.12v.02s-.01,.04-.01,.04l-.06,6.7s-.08,.04-.11,.06c-.07,.04-.15,.1-.22,.16-.04,.03-.07,.07-.1,.11-.03,.04-.06,.09-.08,.13-.02,.05-.04,.11-.05,.16,0,.06-.01,.11,0,.17,.01,.05,.02,.11,.03,.16,.02,.05,.04,.09,.06,.14,.02,.05,.05,.08,.08,.12,.03,.03,.05,.08,.09,.11l.09,.09s.06,.06,.09,.08l.09,.07-1.08,12.75-.54,6.44-.27,3.22c-.04,.54-.09,1.07-.13,1.62-.03,.54-.06,1.07-.15,1.54-.1,.48-.29,.95-.52,1.41-.11,.23-.24,.46-.37,.68l-.1,.17-.05,.08v.02s-.02,0-.02,.01l-.02,.03-.23,.33-1.82,2.67-1.81,2.68-.45,.68-.11,.17-.06,.09-.03,.05-.02,.02s0-.02-.03,.06l-.09,.18c-.03,.09-.07,.17-.1,.27-.17,.61-.21,1.16-.24,1.73-.01,.28-.02,.56-.01,.83v.42s.02,.19,.02,.19v.2s.01,1.61,.01,1.61l.02,3.23,.04,6.46,.03,6.46,.06,6.46,.04,3.23,.06,3.23c.04,2.15,.1,4.3,.15,6.46l.08,3.23,.1,3.23,.1,3.23,.03,.81v.4c.01,.2,.08,.41,.14,.55,.24,.62,.65,1.08,1.1,1.46,.9,.77,1.96,1.2,3.02,1.51,.27,.07,.53,.16,.8,.22l.81,.16,.4,.08,.41,.05,.81,.1c.13,.01,.27,.02,.41,.03h0s5.9,.56,11.91,0h0c.13-.01,.27-.02,.41-.04l.81-.1,.41-.05,.4-.08,.81-.16c.27-.05,.53-.15,.8-.22,1.06-.32,2.12-.74,3.02-1.51,.45-.38,.86-.84,1.1-1.46,.05-.14,.12-.35,.12-.55v-.4s.04-.81,.04-.81l.1-3.23,.1-3.23,.08-3.23c.06-2.15,.11-4.3,.15-6.46l.06-3.23,.04-3.23,.06-6.46,.03-6.46,.04-6.46,.02-3.23v-1.61s.01-.2,.01-.2v-.19s.01-.42,.01-.42c0-.28,0-.55-.01-.83Zm-1.18,6.47l-.06,2.78-.08,3.68-.16,6.46-.13,6.45-.05,3.23-.04,3.23c-.02,2.15-.03,4.3-.04,6.46v3.23s0,3.23,0,3.23v.66s0,.21,0,.21v.62s0,.21,0,.21v1.32s0,.32,0,.32v.69s0,.4,0,.4c0,.02,0,.05,0,.07,0,.04-.02,.09-.05,.16-.02,.08-.05,.15-.09,.23-.15,.32-.4,.62-.69,.89-.71,.67-1.67,1.12-2.65,1.47-.25,.08-.49,.18-.75,.25l-.77,.19-.38,.1-.39,.07-.78,.14c-3.05,.57-6.26,.53-9.34,.34-1.07-.06-2.16-.14-3.22-.34l-.78-.14-.39-.07-.39-.1-.77-.19c-.26-.07-.5-.16-.75-.25-.98-.35-1.93-.8-2.65-1.47-.22-.2-.41-.42-.56-.65-.1-.15-.17-.31-.22-.46-.02-.06-.03-.11-.04-.14,0-.03-.01-.06-.01-.09v-.4s0-.6,0-.6v-.2s0,0,0,0v-1.32s0-.21,0-.21v-.62s0-.21,0-.21v-.87s0-3.23,0-3.23v-3.23c-.02-2.15-.03-4.3-.05-6.46l-.03-3.23-.05-3.23-.13-6.45-.16-6.46-.08-3.68-.06-2.78-.04-1.79v-.31s-.03-1.13-.03-1.13l-.02-.79-.02-.83v-.2s0-.06,0-.06v-.15s-.02-.39-.02-.39c0-.26,0-.52,0-.78,.02-.51,.06-1.04,.17-1.47,.01-.04,.02-.08,.03-.12,0,0,.08-.17,.08-.17v-.02s.04-.04,.04-.04l.05-.08,.1-.17,.43-.67,1.32-2.02,.44-.68s0,0,0,0c0,0,0-.01,.02-.02h0s0-.02,.01-.03l1.75-2.64,.22-.34,.03-.04,.04-.06,.05-.09,.1-.18c.14-.24,.27-.49,.39-.74,.22-.46,.42-.95,.54-1.46,0,0,0,0,0-.01,.01-.05,.02-.1,.03-.14,.11-.59,.12-1.14,.15-1.67,.03-.52,.07-1.07,.1-1.6l.22-3.22,.44-6.44,.02-.24,.03-.43,.81-12.22v-.12s-.09-.07-.09-.07l-.17-.13s-.05-.04-.08-.07l-.07-.07s-.04-.05-.06-.07c-.02-.02-.04-.05-.05-.07l-.04-.07s0-.04-.01-.06c0-.02,0-.04,0-.06,0-.02,.01-.04,.02-.06,.01-.02,.02-.04,.04-.06,.02-.02,.03-.04,.05-.06,.04-.04,.09-.08,.14-.11,0,0,0,0,0,0,.03-.02,.06-.03,.08-.05,.03-.02,.06-.03,.08-.04l.13-.05v-.09s0-.1,0-.1v-.2s-.06-6.53-.06-6.53c.03-.04,.13-.11,.23-.14,.11-.05,.24-.08,.36-.11,.25-.06,.51-.1,.77-.14,.52-.07,1.04-.12,1.57-.15,2.02-.14,4.06-.14,6.08,0,.53,.04,1.05,.08,1.57,.15,.26,.04,.52,.08,.77,.14,.12,.03,.25,.07,.36,.11,.1,.04,.2,.1,.24,.14l-.06,6.54v.2s0,.1,0,.1v.08s.13,.05,.13,.05c.02,0,.06,.02,.08,.04,.03,.02,.06,.03,.09,.05,0,0,0,0,0,0,.05,.03,.1,.07,.14,.11,.02,.02,.03,.04,.05,.06,.02,.02,.02,.04,.04,.06,0,.02,.01,.04,.02,.06,0,.02,0,.04,0,.06,0,.02-.01,.04-.02,.06l-.04,.07s-.03,.05-.05,.07c-.02,.02-.03,.05-.06,.07l-.07,.07s-.05,.05-.08,.07l-.17,.13-.1,.07v.12s.81,12.22,.81,12.22l.03,.43,.02,.24,.44,6.44,.22,3.22c.03,.54,.08,1.08,.1,1.6,.03,.54,.04,1.08,.15,1.67,.01,.05,.02,.1,.03,.14,0,0,0,0,0,.01,.12,.52,.32,1.01,.54,1.46,.12,.25,.26,.5,.39,.74l.11,.18,.05,.09,.04,.06,.03,.04,.22,.34,1.75,2.64s.01,.02,.01,.02h0s.01,.02,.02,.03c0,0,0,0,0,0l.44,.68,1.32,2.02,.43,.67,.1,.17,.05,.08,.03,.04s.01,.02,.01,.02l.08,.17s.02,.08,.03,.12c.12,.43,.16,.95,.17,1.47,0,.26,0,.52,0,.78v.39s-.02,.15-.02,.15v.06s0,.2,0,.2l-.02,.83-.02,.79-.02,1.13v.31s-.05,1.79-.05,1.79Z"/><path class="cls-2" d="M19.58,24.27c-.07,3.56,.38,7.12,1.34,10.52,.48,1.7,1.13,3.35,1.79,4.99,.65,1.64,1.44,3.23,2.23,4.83l-.05,.03c-1.09-1.42-1.97-3-2.73-4.62-.75-1.63-1.28-3.36-1.7-5.1-.87-3.48-1.17-7.09-.93-10.65h.06Z"/><path class="cls-2" d="M9.63,24.6c.24,3.56-.06,7.16-.93,10.65-.42,1.74-.95,3.47-1.7,5.1-.76,1.62-1.64,3.2-2.73,4.62l-.05-.03c.79-1.6,1.58-3.19,2.23-4.83,.66-1.64,1.31-3.28,1.79-4.99,.96-3.4,1.4-6.96,1.34-10.52h.06Z"/><path class="cls-2" d="M19.8,1.58c-1.64-.12-3.27-.19-4.9-.2-1.63,0-3.26,.07-4.85,.37l.14-.17c-.04,1.39-.07,2.77-.17,4.15-.1-1.39-.14-2.77-.17-4.15v-.14s.14-.03,.14-.03c1.62-.36,3.28-.44,4.93-.39,1.64,.05,3.28,.23,4.89,.56Z"/><text class="cls-11" transform="translate(2.15 66.12)"><tspan class="cls-8"><tspan class="cls-9" x="0" y="0">PE</tspan><tspan class="cls-10" x="5.03" y="0">Y</tspan><tspan class="cls-7" x="7.22" y="0">CH</tspan><tspan class="cls-13" x="12.93" y="0">A</tspan><tspan class="cls-9" x="15.47" y="0">UD’S</tspan></tspan><tspan class="cls-12"><tspan x="-.41" y="10.52">BITTERS</tspan></tspan></text><path class="cls-6" d="M14.38,92.66c3.92,0,8.41-.39,13.03-1.54v.29s0,0,0,0v-.62c-4.62,1.16-9.1,1.54-13.03,1.54-6.07,0-10.8-.92-12.62-1.34v.62s0,0,0,0v-.3c1.82,.42,6.55,1.34,12.62,1.34Z"/><polygon class="cls-6" points="28.06 48.37 28.05 49.16 1.12 49.16 1.11 48.37 28.06 48.37"/><polygon class="cls-6" points="28.02 50.29 28.01 50.6 1.16 50.6 1.15 50.29 28.02 50.29"/></g></svg>