<?xml version="1.0" encoding="UTF-8"?><svg id="Layer_2" xmlns="http://www.w3.org/2000/svg" viewBox="0 0 21.4 21.12"><defs><style>.cls-1{fill:#f3e500;}.cls-2{fill:#f7be00;}.cls-3{fill:#e87200;}.cls-4{fill:#fff;}.cls-5{fill:#ffe800;}.cls-6{fill:#ffd100;}.cls-7{fill:#ffb600;}</style></defs><g id="Mai_Tai"><g id="Pineapple_Slice"><path class="cls-5" d="M20.18,.34c-.08,1.56-.23,3.15-.63,4.68-.1,.42-.23,.8-.36,1.2-.04,.11-.08,.25-.11,.36-.06,.17-.13,.34-.19,.51-.06,.15-.13,.32-.19,.48-.08,.19-.17,.38-.25,.59-.19,.4-.38,.8-.59,1.18-.32,.59-.67,1.18-1.05,1.75-.02,.02-.02,.04-.04,.06-.72,1.05-1.54,2.05-2.45,2.98-.06,.06-.13,.11-.19,.19-3.61,3.54-8.3,5.59-13.32,5.85h-.21l-.21-9.43V6.12L.42,.42c1.94,.02,3.86,.02,5.8-.02,.02,.02,.04,.02,.06,0,4.64,0,9.27-.04,13.91-.06Z"/><path class="cls-6" d="M4.81,2.96c.21,.15,.38,.29,.38,.29-.13-.02-.27-.13-.38-.29Z"/><path class="cls-6" d="M6.04,.51c-.44,.02-.99,.1-1.41,.3,0,0,.87-.02,1.29,.19,0,0-.8-.06-1.33,.1,0,0,.13,.1,.36,.19l.02,.02s0-.02,.02,0c.38,.23,.97,.51,1.46,.59-.29-.04-1.5-.19-2.07-.4,.11,.11,.55,.59,.99,.59-.15,0-.8,.04-1.01-.13,.08,.06,.23,.17,.42,.32,.04,.02,.06,.04,.08,.06,.06,.02,.1,.06,.17,.1,0,0,.02,0,.02,.02,.06,.04,.09,.08,.15,.11,.13,.08,.23,.15,.32,.21-.3-.11-.93-.36-1.14-.46,0,0,.17,.34,.38,.61-.13-.08-.25-.17-.38-.23-.02-.02-.04-.02-.04-.02-.02-.02-.04-.02-.04-.02-.15-.08-.29-.11-.36-.08,0,0,.06,.23,.59,.87-.21-.17-.65-.53-.82-.49,0,0-.06,.49,.65,1.12-.27-.21-.86-.63-1.12-.65,0,0,.04,.36,.27,.59-.1-.04-.46-.23-.46-.38-.1,.17-.23,.68,.21,1.63-.09-.11-.53-.65-.46-1.14,0,0-.4,.48-.25,1.1,0,0-.27-.11-.15-.63,0,0-.44,.23-.46,.97,0,0-.38-.36-.36-.97,0,0-.25,.59,.08,1.31,0,0-.46-.46-.34-.99,0,0-.08,.15-.15,.4v.02s0,.02-.02,.06v.02c-.06,.21-.1,.48-.04,.76,0,0-.36-.48-.02-1.31,0,0-.51,.17-.68,1.14,0,.02-.02,.06-.02,.1s-.02,.08-.02,.13L.34,.32,3.5,.19h1.69c.13,.06,.44,.11,1.03,.21,.02,.02,.04,.02,.06,0,.15,.04,.3,.06,.49,.08,0,0-.25-.02-.63,.04h-.1Z"/><path class="cls-6" d="M20.18,.34c-4.64,.02-9.27,.06-13.91,.06-.02,.02-.04,.02-.06,0-1.94,.04-3.86,.04-5.8,.02V5.49s.02-.04,.02-.06c.02-.08,.04-.11,.04-.11,0,0-.02,.04-.02,.11,0,.02-.02,.04-.02,.06v.08s0,.06-.02,.08v.38c.02,.06,.02,.1,.02,.15,0,.08,.02,.17,.02,.25,.02,.09,.02,.17,.04,.27,0,.08,.02,.17,.02,.25,.02,.08,.02,.17,.02,.25s.02,.15,.02,.23,0,.15-.02,.21v.1s0,.06-.02,.1v.06s-.02,.06-.02,.08v-.53c0-.08,0-.15-.02-.23,0-.08-.02-.15-.02-.25-.02-.08-.02-.17-.04-.25,0-.04,0-.08-.02-.11v3.95L.15,.15l3.34,.04h1.69l14.99,.15Z"/><path class="cls-6" d="M20.28,.34c-.04,1.48-.27,2.95-.63,4.37-.02,.1-.06,.21-.09,.3,.4-1.52,.55-3.12,.63-4.68h.1Z"/><path class="cls-6" d="M16.86,3.33s0,0,0,.01c0,0-.02-.04-.02-.04,0,0,0,0,.01,.02Z"/><path class="cls-7" d="M8.03,2.06s0,0,.02,.02c.01,.01,.03,.04,.05,.06,.05,.05,.12,.12,.24,.18,.11,.06,.26,.11,.44,.17,.09,.03,.18,.06,.28,.11,.1,.04,.19,.1,.29,.16,.1,.06,.19,.13,.3,.19,.1,.06,.21,.12,.32,.17,.23,.11,.48,.2,.75,.26,.27,.07,.55,.11,.84,.13,.29,.03,.59,.04,.88,.03,.15,0,.3,0,.45,0,.15,0,.3-.01,.45-.01,.15,0,.3,0,.45,.02,.15,.02,.29,.05,.43,.08,.28,.06,.54,.14,.79,.18,.25,.04,.49,.04,.71,.02,.22-.01,.43-.03,.61-.05,.09,0,.17-.02,.25-.04,.07-.02,.14-.05,.19-.08,.05-.04,.08-.08,.1-.13,.02-.04,.03-.09,.02-.12,0-.03,0-.05-.01-.07,0,.01,.02,.02,.03,.06,.01,.07,0,.19-.11,.29-.05,.05-.12,.08-.2,.11-.08,.03-.16,.04-.25,.06-.18,.03-.38,.07-.61,.09-.23,.03-.48,.04-.74,.01-.26-.03-.53-.09-.81-.15-.14-.03-.27-.05-.41-.06-.14-.01-.28-.02-.43-.01-.15,0-.29,0-.44,.01-.15,0-.3,.01-.45,.01-.3,0-.61,0-.91-.04-.3-.03-.59-.08-.87-.16-.28-.08-.54-.18-.77-.3-.12-.06-.23-.13-.33-.2-.1-.07-.2-.14-.29-.21-.09-.06-.18-.12-.27-.17-.09-.05-.18-.09-.26-.12-.17-.07-.32-.14-.43-.21-.11-.07-.19-.15-.23-.21-.02-.03-.03-.05-.04-.07,0-.02-.01-.02-.01-.02Z"/><path class="cls-4" d="M7.94,7.13c-.13-.05-.31-.14-.52-.27-.05-.03-.11-.06-.16-.1-.06-.03-.11-.07-.17-.11-.11-.08-.23-.17-.35-.26-.12-.09-.24-.19-.36-.3-.12-.1-.24-.21-.36-.32-.12-.11-.24-.22-.35-.32-.12-.11-.23-.21-.34-.32-.11-.1-.22-.2-.32-.3-.1-.1-.19-.19-.28-.27-.17-.17-.32-.31-.42-.41-.1-.1-.16-.16-.16-.16,0,0,.06,.05,.17,.14,.11,.09,.26,.22,.45,.38,.09,.08,.19,.16,.3,.26,.1,.09,.21,.19,.33,.29,.11,.1,.23,.2,.35,.31,.12,.11,.24,.21,.36,.32,.12,.11,.24,.22,.36,.32,.12,.1,.24,.2,.35,.3,.12,.1,.23,.19,.34,.27,.06,.04,.11,.08,.16,.12,.05,.04,.1,.07,.15,.11,.2,.13,.37,.24,.5,.3,.06,.03,.11,.06,.15,.08,.03,.02,.05,.03,.05,.03,0,0-.02,0-.05-.02-.03-.01-.09-.03-.15-.06Z"/><path class="cls-4" d="M6.02,6.38c-.34-.42-.61-.78-.79-1.03-.18-.25-.28-.4-.28-.4,0,0,.12,.13,.32,.37,.21,.24,.5,.57,.86,.96,.18,.2,.38,.41,.59,.63,.21,.22,.44,.45,.67,.69,.23,.24,.48,.47,.75,.69,.27,.22,.56,.42,.85,.63,.14,.11,.29,.21,.43,.33,.14,.11,.28,.23,.41,.35,.13,.12,.25,.24,.38,.35,.13,.11,.26,.21,.39,.3,.14,.09,.27,.18,.41,.27,.13,.09,.27,.17,.39,.26,.26,.17,.5,.33,.72,.48,.22,.15,.43,.29,.61,.41,.09,.06,.17,.12,.25,.17,.08,.05,.16,.08,.23,.11,.14,.05,.27,.05,.34,.02,.02,0,.04-.02,.05-.02,.01,0,.02-.01,.03-.02,.02-.01,.03-.02,.03-.02,0,0,0,0-.02,.02,0,0-.02,.02-.03,.03-.01,0-.03,.02-.05,.03-.08,.04-.21,.06-.37,.02-.08-.02-.16-.05-.25-.09-.09-.04-.18-.09-.27-.15-.19-.11-.4-.23-.63-.37-.23-.14-.48-.28-.74-.44-.13-.08-.27-.16-.41-.24-.14-.08-.28-.17-.42-.26-.14-.09-.29-.19-.42-.31-.14-.11-.27-.23-.39-.35-.13-.12-.26-.23-.4-.34-.14-.11-.28-.21-.42-.32-.29-.21-.58-.42-.85-.65-.28-.23-.52-.48-.75-.73-.23-.24-.45-.49-.65-.72-.2-.23-.39-.46-.56-.66Z"/><path class="cls-7" d="M3.27,15.21s-.03-.07-.05-.11c-.01-.04-.03-.07-.04-.11-.03-.07-.06-.15-.09-.23-.03-.08-.05-.16-.08-.25-.05-.17-.09-.34-.13-.52-.04-.18-.07-.36-.1-.54-.03-.18-.06-.36-.09-.54-.03-.18-.06-.36-.08-.53-.03-.17-.05-.34-.08-.49-.03-.16-.06-.3-.09-.44-.06-.27-.14-.49-.2-.64-.03-.07-.05-.13-.07-.17-.02-.04-.03-.06-.03-.06,0,0,.01,.02,.03,.06,.02,.04,.05,.09,.09,.17,.07,.15,.17,.36,.25,.63,.04,.13,.08,.28,.11,.44,.04,.16,.07,.32,.1,.49,.03,.17,.06,.35,.1,.53,.03,.18,.06,.36,.1,.54,.03,.18,.06,.36,.1,.54,.04,.18,.07,.35,.11,.52,.02,.08,.04,.16,.07,.24,.02,.08,.05,.16,.07,.23,.01,.04,.03,.07,.04,.11,.01,.04,.03,.07,.04,.1,.03,.07,.06,.13,.09,.2,.12,.25,.25,.44,.35,.56,.05,.06,.09,.11,.12,.14,.03,.03,.05,.05,.05,.05,0,0-.02-.02-.05-.04-.03-.03-.08-.07-.14-.13-.12-.11-.27-.3-.4-.54-.03-.06-.07-.13-.1-.19Z"/><path class="cls-4" d="M16.49,5.98c-.12,0-.23,0-.35,0-.11,0-.23-.02-.33-.04-.11-.02-.21-.04-.3-.07-.1-.02-.19-.05-.27-.08-.16-.05-.3-.11-.39-.15s-.14-.07-.14-.07c0,0,.05,.02,.15,.05,.09,.03,.23,.08,.39,.12,.08,.02,.17,.04,.27,.06,.1,.02,.2,.04,.3,.05,.11,.02,.21,.03,.33,.03,.11,0,.22,0,.34,0,.11,0,.22-.02,.33-.04s.21-.05,.31-.08c.1-.04,.19-.08,.28-.12,.08-.05,.16-.1,.23-.15,.13-.1,.23-.21,.29-.29,.03-.04,.05-.07,.07-.09,.02-.02,.02-.03,.02-.03,0,0,0,.01-.02,.04-.01,.02-.03,.06-.06,.1-.05,.08-.14,.2-.28,.31-.07,.06-.14,.11-.23,.16-.09,.05-.18,.1-.28,.14-.1,.04-.21,.07-.32,.09s-.23,.04-.34,.04Z"/><path class="cls-6" d="M4.72,2.18s0,0,.02,.02c.01,.01,.03,.04,.06,.06,.05,.05,.13,.12,.24,.17,.05,.03,.12,.05,.18,.08,.07,.02,.14,.04,.21,.06,.08,.02,.15,.03,.23,.05,.08,.01,.16,.03,.25,.04,.08,.01,.16,.03,.25,.04,.08,.01,.16,.03,.24,.04,.08,.01,.15,.03,.22,.04,.07,.01,.14,.02,.2,.03,.12,.02,.23,.04,.3,.06,.07,.01,.11,.02,.11,.02,0,0-.04,0-.11-.01-.07,0-.18-.02-.3-.03-.06,0-.13-.02-.2-.02-.07,0-.15-.02-.22-.03-.08-.01-.16-.02-.24-.03-.08-.01-.16-.02-.25-.04-.08-.01-.17-.03-.25-.04-.08-.01-.16-.03-.24-.05-.08-.02-.15-.05-.22-.07-.07-.03-.13-.06-.18-.09-.11-.06-.19-.14-.23-.19-.02-.03-.04-.05-.05-.07-.01-.02-.02-.02-.02-.02Z"/><path class="cls-7" d="M4.45,6.93c-.04-.06-.08-.12-.13-.19-.04-.07-.09-.14-.14-.22-.05-.08-.09-.15-.14-.23-.05-.08-.09-.16-.14-.24-.05-.08-.09-.17-.14-.25-.04-.08-.09-.16-.13-.24-.04-.08-.08-.16-.11-.23-.04-.07-.07-.14-.1-.21-.06-.13-.11-.24-.14-.31-.03-.08-.05-.12-.05-.12,0,0,.02,.04,.06,.11,.04,.07,.1,.18,.16,.3,.03,.06,.07,.13,.11,.2,.04,.07,.08,.15,.12,.22,.04,.08,.09,.16,.13,.24,.05,.08,.09,.16,.14,.25,.05,.08,.09,.16,.14,.24,.05,.08,.09,.16,.14,.24,.04,.08,.09,.15,.13,.22,.04,.07,.08,.14,.12,.2,.07,.12,.13,.22,.17,.3,.04,.07,.07,.11,.07,.11,0,0-.03-.04-.08-.11-.05-.07-.12-.16-.2-.28Z"/><path class="cls-4" d="M2.43,7.68c-.02-.05-.05-.11-.07-.17-.03-.06-.05-.12-.08-.19-.03-.07-.05-.14-.08-.21-.02-.07-.05-.14-.07-.22-.02-.07-.04-.15-.06-.22-.02-.07-.04-.14-.05-.21-.02-.07-.03-.14-.04-.2-.01-.06-.02-.13-.03-.18-.02-.11-.02-.21-.03-.27,0-.07,0-.1,0-.1,0,0,0,.04,.02,.1,.01,.07,.03,.16,.05,.27,.01,.06,.02,.12,.04,.18,.01,.06,.03,.13,.05,.2,.02,.07,.04,.14,.05,.21,.02,.07,.04,.14,.06,.22,.02,.07,.04,.14,.07,.22,.02,.07,.05,.14,.07,.21,.02,.07,.05,.13,.07,.19,.02,.06,.05,.12,.07,.17,.04,.11,.07,.2,.08,.27,.01,.07,.01,.1,.01,.1,0,0,0-.04-.02-.1-.02-.06-.05-.15-.1-.26Z"/><path class="cls-7" d="M1.47,7.65c0-.07-.01-.14-.02-.21,0-.07-.02-.15-.02-.24,0-.08-.02-.17-.03-.25-.01-.09-.03-.17-.04-.26-.01-.09-.03-.17-.05-.26-.02-.08-.04-.17-.05-.25-.02-.08-.03-.16-.05-.23s-.03-.15-.03-.21c-.02-.13-.01-.24,0-.32,0-.04,0-.07,.01-.09,0-.02,0-.03,0-.03,0,0,0,.01,0,.03,0,.02,0,.05,0,.09,0,.08,0,.19,.03,.31,.01,.06,.03,.13,.04,.21,.02,.07,.04,.15,.06,.23,.02,.08,.04,.16,.06,.25,.02,.08,.03,.17,.05,.26,.01,.09,.03,.17,.04,.26,.01,.09,.02,.17,.03,.25,0,.08,.01,.16,.02,.24,0,.08,0,.15,0,.21,0,.13,0,.24,0,.32,0,.08,0,.12,0,.12,0,0,0-.04,0-.12,0-.08,0-.19-.02-.32Z"/><path class="cls-6" d="M2.32,6.21s-.01-.05-.02-.08c0-.03-.01-.06-.02-.09,0-.03-.01-.06-.02-.1,0-.03-.01-.07-.02-.1,0-.03-.01-.07-.02-.1,0-.03-.01-.07-.02-.1,0-.03-.01-.06-.02-.09,0-.03,0-.06-.01-.08,0-.05-.01-.09-.02-.12,0-.03,0-.05,0-.05,0,0,0,.02,.01,.05,0,.03,.02,.07,.03,.12,0,.03,.01,.05,.02,.08,0,.03,.01,.06,.02,.09,0,.03,.01,.06,.02,.1s.01,.07,.02,.1,.01,.07,.02,.1c0,.03,.01,.07,.02,.1,0,.03,.01,.06,.02,.09,0,.03,.01,.06,.02,.08,.01,.05,.02,.09,.03,.12,0,.03,0,.05,0,.05,0,0,0-.02-.01-.05,0-.03-.02-.07-.03-.12Z"/><path class="cls-6" d="M1.67,5.69s.02,.08,.04,.11c.01,.04,.02,.08,.04,.12,.01,.04,.02,.09,.03,.13,.01,.04,.02,.09,.03,.13,0,.04,.02,.08,.03,.13,0,.04,.02,.08,.02,.12,0,.04,.01,.07,.02,.11,.01,.07,.02,.12,.03,.16,0,.04,0,.06,0,.06,0,0,0-.02-.01-.06,0-.04-.02-.09-.04-.16,0-.03-.02-.07-.03-.1,0-.04-.02-.08-.03-.12s-.02-.08-.03-.12c-.01-.04-.02-.09-.03-.13-.01-.04-.02-.09-.03-.13-.01-.04-.02-.08-.03-.12-.01-.04-.02-.08-.03-.12,0-.04-.02-.07-.03-.1-.02-.06-.03-.12-.04-.16,0-.04-.02-.06-.02-.06,0,0,0,.02,.02,.06,.01,.04,.03,.09,.05,.15,.01,.03,.02,.07,.03,.1Z"/><path class="cls-4" d="M.83,7.16s-.01-.1-.02-.15c0-.05-.01-.11-.02-.17,0-.06-.01-.12-.01-.19,0-.06,0-.13,0-.19,0-.06,0-.13,0-.19,0-.06,0-.13,0-.19,0-.06,0-.12,0-.17,0-.06,0-.11,.01-.16,0-.1,.02-.18,.03-.23,0-.06,.01-.09,.01-.09,0,0,0,.03,0,.09,0,.06,0,.14,0,.23,0,.05,0,.1,0,.15,0,.06,0,.11,0,.17,0,.06,0,.12,0,.18,0,.06,0,.13,0,.19,0,.06,0,.13,0,.19,0,.06,0,.12,0,.18,0,.06,0,.12,.01,.17,0,.05,0,.11,.01,.15,0,.1,.02,.18,.02,.23,0,.06,0,.09,0,.09,0,0,0-.03-.02-.09-.01-.06-.03-.13-.04-.23Z"/><path class="cls-4" d="M5.15,.75c.1,.02,.25,.05,.43,.08,.09,.02,.19,.04,.29,.06,.1,.02,.21,.04,.32,.07,.11,.02,.23,.05,.34,.07,.12,.03,.23,.05,.35,.08,.12,.03,.24,.06,.35,.08,.12,.03,.23,.05,.34,.08,.11,.03,.22,.05,.32,.07,.1,.02,.2,.04,.29,.05,.18,.03,.33,.04,.44,.05,.05,0,.09,0,.12,0,.03,0,.04,0,.04,0,0,0-.02,0-.04,0-.03,0-.07,0-.12,0-.11,0-.26,0-.44-.01-.09,0-.19-.02-.29-.04-.1-.02-.21-.04-.32-.06-.11-.02-.23-.05-.34-.07-.12-.03-.24-.05-.35-.08-.12-.03-.24-.06-.35-.08-.12-.03-.23-.06-.34-.08-.11-.03-.22-.05-.32-.08-.1-.03-.2-.05-.28-.07-.18-.05-.32-.09-.43-.11-.1-.03-.16-.05-.16-.05,0,0,.06,.01,.16,.03Z"/><path class="cls-3" d="M20.94,2.32c.36-.99-.06-2.09-.08-2.15V.1L0,0V.08L.23,20.35s.06,.27,.11,.4l.02,.02c.02,.08,.06,.15,.13,.21,.19,.15,.48,.17,.87,.08,.25-.08,.48-.11,.67-.15,.46-.08,.78-.08,.86-.08,.09,.02,.76,.13,1.22-.06,.34-.11,.87-.17,1.08-.19,.27,.4,.51,.28,.89,.13,.19-.08,.4-.17,.72-.27,.91-.28,1.33-.63,1.46-.74,.93-.15,1.52-.51,2.07-.87,.38-.25,.72-.48,1.2-.61,.61-.19,1.06-.53,1.37-.84,.3-.29,.46-.55,.46-.61,0-.02,.09-.53,1.5-1.5,1.06-.76,1.25-1.44,1.27-1.81,.15,.04,.32,.04,.51-.04,.23-.1,.4-.3,.49-.61,.11-.36,.17-.4,.25-.46,.17-.09,.3-.21,.48-.74,.19-.51,.38-.65,.48-.68,.08-.04,.13-.02,.13-.02l.19,.1,.02-.21c.19-1.27,.32-1.67,.38-1.77,.11-.08,.23-.17,.34-.28,1.39-1.35,1.96-5.32,1.98-5.51l.02-.04-.46-.89Zm-.32-1.58s.06-.08,.06-.08c0,0-.02-.06-.02-.08-.02-.08-.02-.13,0-.15,0,.04,0,.08,.02,.13,.02,.04,.02,.06,.06,.1-.04,.04-.08,.06-.08,.08-.02,.04-.02,.08-.02,.11s.02,.08,.04,.09l.09,.1s.04,.06,.08,.1c.02,.02,.06,.06,.06,.1,.02,.04,.04,.06,.04,.09,0,.06,0,.11-.02,.15v-.15s-.02-.06-.04-.09c-.02-.02-.04-.04-.08-.08s-.06-.08-.08-.1l-.09-.08s-.04-.08-.04-.13c-.02-.04,0-.08,.02-.11ZM3.23,20.56c-.06-.06-.15-.11-.27-.15-.06-.02-.13-.04-.19-.06-.08,0-.15-.04-.21-.02-.08,.02-.13,.06-.21,.11-.08,.04-.15,.08-.25,.1-.1,.02-.17,.02-.27,.02-.08,.02-.15,.02-.23,.04-.08,0-.13,.04-.19,.1-.06,.02-.11,.08-.17,.11-.09,.08-.23,.11-.3,.09-.08,0-.09-.04-.09-.04,0,0,.02,.02,.09,.02s.17-.04,.27-.11c.06-.06,.13-.11,.17-.13,.04-.06,.11-.11,.21-.13,.08-.02,.17-.02,.25-.02,.08-.02,.17-.02,.25-.02,.08-.02,.15-.06,.21-.09,.08-.06,.15-.1,.25-.11,.08-.02,.17,.02,.25,.02,.08,.02,.13,.06,.19,.08,.11,.06,.21,.13,.27,.19,0,.02,.02,.04,.02,.04t-.04-.02Zm.36-.32v-.04h.02s-.02,.04-.02,.04Zm.93-.06s-.08,.02-.11,.02-.06,.02-.09,.02h-.17l-.11-.02-.09-.02s-.04-.02-.08-.04c-.02,0-.06,0-.09-.02h-.08v-.02s.06-.02,.08,0c.04,0,.08,.02,.09,.02,.04,0,.08,.02,.09,.02l.19,.04h.27s.08,0,.11-.02h.04s-.02,0-.04,.02Zm1.5-.63s-.11,.08-.21,.1c-.04,.02-.09,.04-.13,.04-.06,.02-.13,.04-.15,.06l-.06,.02c.06,.04,.09,.09,.11,.17,0,.06,0,.13-.02,.19-.02,.06-.06,.1-.02,.15,.02,.06,.04,.1,.04,.17,0,.04-.06,.1-.06,.1,.04,.06,.09,.11,.13,.15v.02c-.06-.06-.13-.11-.19-.17,0-.02-.02-.02-.02-.04,.11,0,.06-.04,.08-.06,.02-.06-.02-.11-.04-.17-.04-.06-.02-.11,0-.17,.04-.06,.04-.11,.02-.17-.02-.04-.04-.09-.08-.13-.04-.02-.1-.04-.11-.06,.06-.02,.11-.04,.19-.06,.04-.02,.09-.02,.15-.04,.04-.02,.09-.02,.15-.04,.1-.02,.15-.04,.19-.08t.04-.04s0,.04-.02,.06Zm1.16,.49c-.08,.02-.15,.06-.23,.08-.06,.02-.11,.04-.15,.06-.06,.02-.13,.04-.17,.06-.06,.02-.11,.04-.19,.04-.08,.04-.17-.08-.13-.15,0-.08,.06-.13,.09-.19,.04-.02,.08-.08,.13-.13,.04-.02,.09-.08,.13-.11,.04-.02,.09-.06,.13-.08,.09-.04,.15-.1,.17-.15,0,.06-.06,.13-.13,.17-.06,.04-.11,.08-.15,.1-.04,.04-.08,.09-.11,.13-.04,.06-.09,.09-.11,.13-.06,.04-.08,.1-.09,.15,0,.04,.02,.08,.08,.08s.11-.04,.17-.04c.04-.02,.11-.04,.17-.06,.04,0,.09-.02,.15-.04,.08-.02,.17-.04,.23-.06,.06,0,.09-.02,.09-.02,0,0-.04,.02-.08,.04Zm.49-.42s-.04,.02-.08,.02h-.06s-.06-.02-.06-.02c-.04,0-.06-.02-.08-.02l-.06-.04-.06-.06s-.02-.02-.06-.04c0,0-.02-.02-.04-.04l-.02-.02h.02s.06,.04,.06,.04c.02,.02,.04,.04,.06,.04l.06,.06,.06,.04s.04,0,.06,.02c.02,0,.04,.02,.06,.02h.06s.06,0,.08-.02h.04s-.02,0-.04,.02Zm.4-.65v-.02c.04-.06,.11-.11,.17-.17,.04-.06,.09-.1,.11-.13,.06-.04,.09-.1,.13-.13,.06-.04,.09-.09,.17-.13,.06-.04,.11-.08,.19-.08s.11-.02,.17-.08c.04-.04,.06-.1,.06-.15l.02-.02v-.08s.06-.08,.09-.08c.02,0,.04,.02,.04,.02h.15c.08,.02,.17,.04,.25,.04,.04,.02,.09,.02,.09,.02h-.36s-.06-.02-.09-.02h-.06s-.02,.04-.02,.04c-.02,.02-.04,.04-.04,.08,0,.08-.04,.15-.09,.21-.04,.06-.13,.09-.19,.09-.08,0-.13,.04-.17,.08-.06,.02-.11,.08-.15,.11-.04,.04-.09,.08-.15,.13-.04,.02-.08,.06-.13,.1-.06,.06-.13,.11-.19,.17Zm2.26-.68c-.06,.02-.15,.04-.27,.06-.06,.02-.11,.02-.17,.04-.06,.04-.09,.08-.13,.13-.04,.08-.08,.13-.09,.17-.04,.08-.09,.13-.15,.19-.06,.04-.13,.09-.19,.11-.08,.04-.15,.06-.21,.08-.08,.04-.15,.02-.21,.02h-.55s.04-.02,.09-.02c.08,0,.19-.02,.27-.02,.08-.02,.13-.02,.17-.02,.08-.02,.13,0,.21-.02,.06-.02,.13-.06,.19-.08,.06-.04,.11-.08,.17-.11,.06-.06,.09-.11,.13-.17,.04-.04,.08-.11,.13-.19,.02-.06,.1-.11,.15-.13,.08-.02,.13-.02,.19-.02,.11,0,.19-.02,.27-.04t.04-.02s-.02,.04-.04,.04Zm1.05-1.12c-.08-.02-.17-.02-.23-.04h-.09l.02,.02,.08,.23,.04,.13s.08,.17-.04,.15c-.15,0-.19-.08-.27-.11-.06-.04-.13-.06-.17-.04-.02,.04,0,.11-.04,.19-.04,.15-.19,.17-.27,.17-.04,0-.06,.02-.06,.04-.02-.02,0-.04,.06-.06,.08,0,.19-.06,.23-.17,.02-.04-.02-.13,.04-.23,.08-.06,.19-.02,.27,.02,.06,.04,.15,.09,.17,.09,0,0-.02-.08-.04-.15l-.09-.25s-.04-.1-.06-.15c.08,.02,.15,.02,.25,.04,.06,.02,.15,.02,.23,.04,.06,.02,.13,.04,.21,.04,.11,.02,.23,.06,.3,.06,.04,0,.06-.02,.06-.04,.02,.02,0,.04-.06,.06-.08,.02-.19,0-.32-.02-.08,0-.15-.02-.21-.02Zm1.25,.25s-.08,.04-.11,.02h-.11s-.09-.02-.13-.02c-.04,.02-.06,.06-.08,.08l-.1,.11s-.06,.06-.09,.08c-.02,.02-.06,.06-.09,.08-.02,.02-.06,.04-.09,.06-.08,.02-.13,.04-.17,.04,.04-.02,.09-.04,.15-.08,.04-.02,.08-.04,.09-.06,.04-.02,.08-.04,.09-.06,.04-.04,.08-.08,.08-.1l.09-.09s.06-.09,.11-.09c.04-.02,.09,0,.13,0,.02,.02,.08,.02,.11,.04,.04,0,.08,0,.09-.02,.06-.02,.06-.09,.06-.13,.02,.04,.04,.11-.04,.15Zm1.41-2.28c-.09,.02-.23,.02-.34,.02-.06,0-.15,0-.21,.02-.08,0-.08,.06-.08,.15v.27c-.02,.09-.04,.21-.09,.3-.08,.08-.13,.13-.19,.19-.02,.06,0,.15,0,.25,0,.13-.17,.19-.25,.17-.06-.02-.11-.02-.11,0v.02c-.04,.19-.23,.13-.29,.19-.08,0-.13,.02-.13,.02,0,0,.06-.02,.13-.06,.06-.02,.23-.06,.23-.13v-.04s-.02-.02-.02-.04c.06-.06,.15-.04,.21-.04,.08,0,.13-.02,.13-.1s-.04-.17,.02-.29c.06-.08,.13-.15,.17-.21,.06-.08,.08-.17,.08-.25,.02-.08,.02-.17,.02-.27,0-.08,.02-.23,.15-.23,.09-.02,.15,0,.23,0,.11,.02,.25,.02,.34,.02,.08,.02,.13,.02,.13,.02h-.13Zm2.2-2.43s-.11-.02-.13-.02c-.02,.04,.02,.09,.06,.15,.06,.06,.09,.19,.04,.29-.06,.1-.15,.13-.25,.17-.08,.06-.17,.1-.23,.17-.06,.08-.11,.15-.17,.25l-.19,.25c-.06,.08-.11,.17-.17,.25-.04,.08-.06,.15-.06,.25-.04,.06,.11,.15,0,.25-.21,0-.25,.06-.27,.17h-.02s-.02-.11,.06-.17c.06-.06,.15-.04,.19-.06,.06,0-.04-.08-.06-.19,0-.1,.02-.21,.08-.3,.04-.09,.09-.17,.15-.25l.19-.27c.06-.08,.11-.17,.19-.25,.08-.1,.17-.13,.27-.17,.08-.04,.17-.08,.21-.15,.04-.06,.02-.11-.02-.19-.02-.06-.1-.15-.04-.23,.08,0,.13,.04,.17,.04,.04,.02,.08,.04,.1,.04-.02,0-.06-.02-.1-.02Zm1.37-1.41c-.02,.06-.04,.09-.06,.13-.02,.04-.04,.1-.06,.13,0,.06-.02,.11,0,.17,0,.06,.02,.08,.02,.19-.06,.06-.11,.08-.19,.08-.06-.02-.11-.04-.17-.06-.06-.02-.09-.04-.15-.04-.04-.02-.08-.02-.11,0-.04,.04-.08,.06-.09,.08-.02,.04-.06,.06-.08,.08-.04,.02-.08,.02-.08,.02,0,0,.04,0,.08-.04,.02-.02,.04-.04,.08-.06,.02-.04,.04-.08,.08-.1,.04-.04,.09-.04,.15-.04,.06,.02,.09,.02,.15,.04,.06,.02,.11,.04,.15,.04,.06,.02,.11,0,.13-.04,0,0-.04-.09-.04-.15s0-.11,.02-.17c.02-.06,.04-.11,.08-.15,.02-.04,.04-.08,.08-.13,.04-.04,.06-.08,.06-.11,.02,.06,0,.08-.04,.13Zm.04-.17s-.02-.02-.02-.04-.02-.06-.02-.06c.02,0,.04,.04,.04,.06v.04Zm.21-1.56v-.02h.02s-.02,0-.02,.02Zm.02-.04v-.02h.02l-.02,.02Zm.44,.8s-.08,.02-.11,.02c-.04-.02-.08-.06-.09-.09-.04-.06-.04-.1-.02-.15,0-.04,.02-.1,.04-.13l.06-.13v-.11s-.06-.04-.09-.06c-.02-.04-.06-.04-.09-.08t-.02-.04s.02,0,.04,.02c.04,.02,.08,.04,.11,.06,.02,.02,.08,.04,.09,.08,.02,.06,.02,.11,0,.15l-.04,.13s-.04,.1-.06,.13c0,.04,0,.08,.02,.11,0,.04,.04,.06,.08,.08h.09c.06-.02,.08-.08,.09-.11,0,.04-.02,.09-.09,.13Zm.38-2.77c-.08,.19-.17,.38-.25,.59-.19,.4-.38,.8-.59,1.18-.32,.59-.67,1.18-1.05,1.75-.02,.02-.02,.04-.04,.06-.72,1.05-1.54,2.05-2.45,2.98-.06,.06-.13,.11-.19,.19-3.61,3.54-8.3,5.59-13.32,5.85h-.21l-.21-9.43v-.21L.15,.15l3.34,.04h1.69l14.99,.15h.1c-.04,1.48-.27,2.95-.63,4.37-.02,.1-.06,.21-.09,.3-.1,.42-.23,.8-.36,1.2-.04,.11-.08,.25-.11,.36-.06,.17-.13,.34-.19,.51-.06,.15-.13,.32-.19,.48Zm1.22-.68c-.06,.02-.13,.04-.17,.08-.02,.06,.02,.13-.02,.25-.06,.08-.13,.13-.19,.21-.06,.06-.11,.11-.06,.17,.04,.06,.11,.15,.13,.25,.02,.09,.04,.19,.02,.28-.02,.1-.06,.17-.11,.23-.06,.08-.13,.11-.19,.15-.13,.06-.27,.04-.34,.04-.04,0-.08-.02-.08-.04,0,0,.04,0,.08,.02,.08,0,.19-.02,.3-.08,.06-.04,.11-.08,.17-.13,.04-.06,.06-.13,.08-.21,.02-.08,0-.15-.02-.25-.02-.08-.06-.13-.13-.23-.08-.09,.02-.23,.09-.28,.06-.06,.13-.11,.15-.17,.04-.06,0-.17,.06-.25,.08-.08,.15-.08,.21-.1,.19-.02,.11-.11,.06-.19-.02-.04-.04-.06-.04-.08,.02,.02,.04,.04,.06,.06,.04,.04,.06,.1,.09,.13,0,.08-.08,.11-.15,.13Zm.28-1.35c-.04,.08-.11,.1-.15,.13-.04,.04-.08,.08-.09,.13-.04,.1-.04,.17-.02,.25v.04s0-.02-.02-.04c-.02-.06-.04-.15,0-.27,.02-.06,.06-.11,.09-.15,.06-.06,.11-.1,.13-.13,.04-.04,.02-.1,0-.17-.04-.06-.06-.15-.04-.23,.04-.11,.17-.11,.23-.09,.06,0,.08-.04,.08-.11,0-.04-.02-.11-.02-.19v-.17c.02-.11,.06-.19,.09-.25,.02-.02,.04-.04,.04-.06,0,.02-.02,.04-.02,.06-.02,.06-.06,.15-.06,.25-.02,.06-.02,.11,0,.17,0,.08,.02,.15,.02,.19,.04,.08-.04,.19-.13,.19-.08-.02-.13-.02-.15,.04-.02,.06,0,.11,.02,.19,.04,.06,.06,.15,0,.23Zm.34,.89s-.02,.06-.04,.09l-.06,.06s-.08,.08-.09,.11l-.04,.04s.02-.02,.02-.04c.04-.04,.06-.08,.09-.11,.02-.04,.04-.06,.04-.08,.02-.04,.04-.06,.04-.09v-.1s-.02-.08-.02-.11l-.02-.11v-.11s0-.06-.02-.1v-.1s0-.1-.02-.13v-.04s0,.02,.02,.04c0,.04,.02,.09,.02,.13s.02,.08,.02,.1c0,.04,.02,.08,.02,.1,0,.06,0,.09,.02,.11v.11s.02,.08,.02,.11v.11Zm.42-2.6s.02-.04,0-.11c-.02-.08-.09-.13-.21-.23-.04-.06-.11-.08-.13-.17-.02-.08-.02-.15-.04-.23-.02-.06-.08-.11-.13-.15q-.06-.02-.19-.02l.02-.15,.04-.25c.02-.06,.04-.15,.06-.25,.02-.06,.04-.15,.06-.23,0-.08,.02-.13,0-.19-.08-.11-.06-.27,0-.3h.02c-.04,.08-.06,.17,.04,.29,.02,.06,.02,.15,0,.21,0,.1-.02,.19-.04,.25-.02,.09-.02,.17-.04,.23l-.04,.27-.02,.04s.08,0,.13,.04c.08,.04,.15,.11,.17,.21,.02,.08,.02,.17,.04,.23,0,.08,.08,.11,.11,.15,.08,.1,.17,.17,.17,.27,.02,.08-.02,.11-.02,.11Z"/><path class="cls-4" d="M13.92,2.18c.22-.01,.45-.03,.67-.03,.22,0,.44,0,.65,.02,.21,.02,.42,.05,.61,.09,.19,.04,.37,.11,.52,.18,.08,.03,.15,.07,.22,.11,.07,.04,.14,.09,.17,.16,0,.02,.01,.04,.02,.06,0,.02,0,.04,0,.06-.01,.04-.04,.06-.06,.08-.05,.04-.1,.06-.14,.09-.08,.05-.15,.09-.2,.11-.05,.02-.07,.03-.07,.03,0,0,.02-.01,.07-.04,.04-.03,.11-.07,.19-.13,.04-.03,.08-.06,.13-.1,.04-.04,.06-.09,.03-.14-.03-.05-.09-.09-.15-.12-.07-.03-.14-.07-.22-.09-.15-.06-.33-.11-.51-.14-.19-.04-.38-.06-.59-.07-.21-.01-.42-.01-.64,0-.22,0-.44,.02-.66,.04-.22,.01-.45,.03-.67,.04-.22,.01-.44,.03-.65,.04-.21,.01-.41,.02-.61,.03-.19,0-.38,0-.55-.01-.17-.02-.32-.05-.46-.09-.13-.04-.24-.09-.33-.15-.02-.01-.04-.03-.06-.04-.02-.01-.03-.03-.05-.04-.03-.02-.06-.04-.07-.06-.04-.04-.06-.06-.06-.06,0,0,.02,.02,.06,.05,.02,.02,.05,.03,.08,.05,.02,0,.03,.02,.05,.03,.02,0,.04,.02,.06,.03,.09,.04,.2,.09,.33,.11,.13,.03,.28,.05,.45,.05,.17,0,.35,0,.54-.01,.19-.01,.39-.04,.6-.05,.21-.02,.43-.03,.64-.05,.22-.02,.44-.03,.67-.05Z"/><path class="cls-4" d="M15.54,7.92s.02,.07,.02,.1c0,.03,0,.06,0,.09,0,.06,0,.1,0,.14,.01,.04,.03,.07,.06,.1,.06,.06,.15,.11,.23,.17,.04,.03,.07,.07,.1,.11,0,.01,.01,.02,.02,.03,0,.01,0,.02,.01,.04,0,.03,0,.05,0,.08,0,.05-.03,.09-.06,.12-.03,.03-.07,.05-.1,.07-.07,.03-.15,.03-.21,.02-.06-.01-.11-.04-.15-.06-.04-.02-.07-.05-.1-.07-.05-.04-.08-.06-.08-.06,0,0,.03,.02,.08,.05,.03,.02,.06,.04,.1,.06s.09,.04,.15,.05c.06,0,.12,0,.17-.03,.06-.03,.11-.09,.11-.15,0-.07-.04-.13-.11-.18-.07-.05-.16-.09-.25-.17-.04-.04-.08-.09-.1-.15-.02-.06-.02-.12-.02-.18,0-.05,0-.1-.02-.14-.01-.04-.04-.08-.07-.12-.07-.08-.16-.15-.26-.22-.05-.04-.1-.07-.15-.11s-.1-.07-.15-.11c-.2-.15-.42-.29-.64-.43-.22-.14-.45-.28-.69-.4-.24-.13-.48-.24-.72-.35-.24-.11-.48-.21-.71-.29-.24-.09-.47-.16-.69-.24-.22-.07-.43-.14-.62-.22-.19-.07-.36-.14-.51-.21-.15-.07-.28-.14-.38-.2-.1-.06-.18-.11-.23-.15-.05-.04-.08-.06-.08-.06,0,0,.03,.02,.09,.05,.05,.03,.14,.07,.24,.12,.11,.05,.24,.11,.39,.16,.15,.06,.33,.12,.52,.18,.19,.06,.4,.12,.63,.18,.22,.06,.46,.13,.7,.21,.24,.08,.49,.18,.73,.28,.25,.11,.49,.23,.73,.35,.24,.13,.47,.27,.7,.41,.22,.15,.44,.3,.64,.45,.05,.04,.1,.08,.15,.12,.05,.04,.1,.08,.14,.12,.05,.04,.09,.08,.14,.12,.05,.04,.09,.08,.13,.13s.08,.11,.09,.17Z"/><path class="cls-4" d="M12.68,7.33c.4,.14,.73,.28,.96,.39,.06,.03,.1,.05,.15,.08,.04,.02,.08,.04,.11,.06,.06,.03,.09,.05,.09,.05,0,0-.03-.01-.09-.04-.03-.01-.07-.03-.11-.05-.04-.02-.1-.04-.15-.06-.23-.09-.57-.2-.98-.31-.21-.06-.43-.12-.66-.18-.24-.07-.48-.14-.74-.22-.25-.09-.51-.19-.77-.32-.25-.13-.5-.29-.73-.45-.23-.17-.45-.35-.66-.54-.21-.19-.4-.38-.59-.57-.19-.18-.38-.35-.57-.49-.2-.14-.39-.25-.58-.34-.38-.18-.72-.29-.95-.37-.24-.08-.37-.12-.37-.12,0,0,.14,.03,.38,.08,.24,.06,.59,.14,.99,.3,.2,.08,.41,.18,.62,.32,.21,.13,.41,.3,.61,.48,.2,.18,.4,.37,.6,.55,.21,.18,.42,.36,.65,.52,.23,.16,.46,.32,.7,.44,.24,.13,.49,.23,.74,.33,.25,.09,.49,.17,.72,.25,.23,.07,.45,.15,.65,.21Z"/><path class="cls-4" d="M2.81,6.84c.04,.06,.08,.16,.13,.28,.05,.13,.1,.28,.16,.46,.05,.18,.11,.38,.17,.6,.06,.22,.14,.46,.23,.7,.09,.25,.19,.5,.32,.75,.06,.13,.13,.25,.21,.38,.08,.12,.16,.25,.24,.37,.17,.25,.36,.49,.53,.75,.17,.26,.32,.54,.45,.81,.13,.28,.25,.55,.35,.83,.1,.27,.19,.54,.27,.79,.08,.25,.15,.49,.22,.71,.13,.44,.22,.82,.27,1.09,.02,.13,.03,.24,.04,.31,0,.07,0,.11,0,.11,0,0,0-.04-.02-.11-.02-.07-.04-.17-.07-.3-.07-.26-.19-.62-.34-1.05-.08-.22-.16-.45-.25-.7-.09-.25-.19-.51-.3-.77-.11-.27-.22-.54-.36-.8-.13-.27-.28-.53-.44-.79-.16-.25-.35-.5-.52-.75-.09-.13-.17-.25-.24-.39-.08-.13-.14-.26-.21-.4-.12-.27-.22-.53-.3-.79-.08-.25-.14-.5-.19-.72-.05-.23-.09-.43-.13-.62-.04-.18-.08-.34-.12-.47-.04-.13-.08-.23-.1-.29-.01-.03-.03-.06-.03-.08,0-.02-.01-.03-.01-.03,0,0,0,0,.01,.02,0,.02,.02,.04,.04,.07Z"/><path class="cls-4" d="M1.88,10.3s.03,.07,.04,.12c.02,.09,.04,.2,.06,.33,.01,.13,.02,.28,.01,.44,0,.16,0,.33-.01,.51,0,.18,0,.37,.02,.56,.02,.19,.06,.39,.11,.6,.04,.2,.09,.41,.13,.62,.03,.21,.05,.42,.08,.63,.02,.21,.05,.41,.08,.6,.04,.19,.08,.37,.15,.54,.06,.17,.14,.32,.23,.45,.04,.06,.09,.12,.14,.18,.03,.03,.04,.04,.05,.06,0,0,.01,.02,.02,.02,0,0,0,0,0,0h0s0-.02,0-.02c0-.02,.01-.04,.02-.06,0-.03,.01-.06,.02-.08,0-.05,.01-.1,.01-.15,0-.09,0-.16-.01-.21,0-.02,0-.04-.01-.06,0-.01,0-.02,0-.02,0,0,0,0,0,.02,0,.01,.01,.03,.02,.05,.01,.05,.03,.12,.04,.21,0,.05,0,.1,0,.16,0,.03,0,.06-.01,.09,0,.04-.02,.08-.03,.12,0,.01,0,.02,0,.03v.02s0,0,0,0h0s0,0,0,0c-.02-.01-.03-.03-.05-.04-.04-.03-.08-.07-.1-.09-.05-.05-.11-.11-.15-.18-.1-.13-.19-.28-.26-.45-.07-.17-.13-.36-.18-.56-.04-.2-.07-.4-.1-.61s-.05-.42-.08-.62c-.03-.21-.08-.41-.12-.62-.04-.2-.08-.41-.1-.61-.02-.2-.01-.4,0-.58,.01-.18,.03-.35,.04-.51,.01-.16,.02-.3,.01-.43,0-.13-.01-.24-.03-.33,0-.05-.02-.09-.02-.12,0-.04-.02-.06-.02-.09-.01-.05-.02-.07-.02-.07,0,0,.01,.02,.03,.07,0,.02,.02,.05,.03,.09Z"/><path class="cls-4" d="M8.14,10.13c.1,.23,.18,.46,.28,.69,.1,.23,.23,.45,.37,.66,.14,.21,.3,.42,.45,.62,.16,.2,.31,.4,.46,.6,.15,.19,.29,.38,.43,.56,.13,.18,.26,.34,.41,.45,.07,.06,.15,.1,.23,.12,.08,.03,.16,.03,.23,.02,.07-.01,.14-.04,.19-.08,.05-.04,.1-.08,.13-.12,.07-.09,.07-.18,.06-.24,0-.01,0-.03,0-.04,0-.01,0-.02-.01-.03,0-.01,0-.02,0-.02,0,0,0,0,.01,.02,0,0,0,.02,.01,.03,0,.01,0,.02,.01,.04,.02,.06,.02,.16-.04,.26-.03,.05-.07,.1-.13,.15-.06,.04-.12,.08-.21,.11-.04,.01-.09,.02-.13,.02-.05,0-.09,0-.14-.02-.09-.02-.18-.06-.27-.12-.17-.11-.32-.28-.46-.45-.14-.17-.29-.36-.45-.54-.15-.19-.31-.38-.47-.59-.16-.2-.32-.41-.47-.63-.15-.22-.28-.45-.38-.69-.1-.24-.18-.48-.27-.7-.09-.22-.19-.43-.31-.62-.12-.19-.24-.36-.36-.51-.24-.3-.47-.53-.63-.7-.16-.16-.25-.26-.25-.26,0,0,.1,.08,.27,.23,.17,.15,.42,.36,.68,.66,.13,.15,.27,.31,.4,.5,.13,.19,.25,.4,.34,.63Z"/><path class="cls-7" d="M15.24,1.15c-.11,0-.22,.01-.34,.02-.12,0-.25,.01-.38,.02-.13,0-.27,.01-.4,.02-.14,0-.28,0-.42,.01-.14,0-.28,0-.42,.01-.14,0-.27,0-.41,0s-.26-.02-.38-.04c-.12-.02-.23-.05-.33-.08-.2-.06-.37-.11-.49-.12-.06,0-.11-.01-.14-.01-.03,0-.05,0-.05,0,0,0,.02,0,.05,0,.03,0,.08,0,.14,0,.12,0,.3,.04,.5,.09,.1,.02,.21,.05,.33,.06,.12,.01,.24,.02,.37,.02,.13,0,.27,0,.4,0,.14,0,.28,0,.42-.01,.14,0,.28,0,.42-.01,.14,0,.27,0,.41,0,.13,0,.26,0,.38,0,.12,0,.23,0,.34,0,.21,0,.39,0,.51,0,.12,0,.19,0,.19,0,0,0-.07,0-.19,.02-.12,0-.3,.02-.51,.03Z"/><path class="cls-4" d="M.87,9.56s0,.06,0,.09c0,.03,0,.07,0,.1,0,.07,0,.15-.01,.23,0,.08,0,.16,0,.25,0,.09,0,.18,0,.27,0,.09,0,.19,0,.28s0,.19,0,.28c0,.09,0,.18,0,.27,0,.09,0,.17,0,.25,0,.08,0,.16,0,.23,0,.07,0,.13-.01,.19,0,.06,0,.11-.01,.15,0,.08-.01,.13-.01,.13,0,0,0-.05,0-.13,0-.04,0-.09,0-.15,0-.06,0-.12,0-.19,0-.07,0-.15,0-.23,0-.08,0-.17,0-.25,0-.09,0-.18,0-.27,0-.09,0-.19,0-.28,0-.09,0-.19,0-.28,0-.09,0-.18,0-.27,0-.09,0-.17,.01-.25,0-.08,.01-.16,.02-.23,0-.03,0-.07,.01-.1,0-.03,.01-.06,.01-.09,0-.06,.02-.11,.03-.15,.02-.08,.03-.13,.03-.13,0,0,0,.05-.02,.13,0,.04-.01,.09-.02,.15Z"/><g><path class="cls-2" d="M12.64,17.43s-.08,.04-.11,.02h-.11s-.09-.02-.13-.02c-.04,.02-.06,.06-.08,.08l-.1,.11s-.06,.06-.09,.08c-.02,.02-.06,.06-.09,.08-.02,.02-.06,.04-.09,.06-.08,.02-.13,.04-.17,.04,.04-.02,.09-.04,.15-.08,.04-.02,.08-.04,.09-.06,.04-.02,.08-.04,.09-.06,.04-.04,.08-.08,.08-.1l.09-.09s.06-.09,.11-.09c.04-.02,.09,0,.13,0,.02,.02,.08,.02,.11,.04,.04,0,.08,0,.09-.02,.06-.02,.06-.09,.06-.13,.02,.04,.04,.11-.04,.15Z"/><path class="cls-2" d="M9.2,18.02s-.04,.04-.04,.08c0,.08-.04,.15-.09,.21-.04,.06-.13,.09-.19,.09-.08,0-.13,.04-.17,.08-.06,.02-.11,.08-.15,.11-.04,.04-.09,.08-.15,.13-.04,.02-.08,.06-.13,.1-.06,.06-.13,.11-.19,.17v-.02c.04-.06,.11-.11,.17-.17,.04-.06,.09-.1,.11-.13,.06-.04,.09-.1,.13-.13,.06-.04,.09-.09,.17-.13,.06-.04,.11-.08,.19-.08s.11-.02,.17-.08c.04-.04,.06-.1,.06-.15l.02-.02s.06-.04,.09-.06Z"/><path class="cls-2" d="M9.73,18h-.36s-.06-.02-.09-.02c.02,0,.06-.02,.08-.04h.04c.08,.02,.17,.04,.25,.04,.04,.02,.09,.02,.09,.02Z"/><path class="cls-2" d="M9.24,17.94s-.08,.04-.13,.06c.02-.04,.06-.08,.09-.08,.02,0,.04,.02,.04,.02Z"/><path class="cls-2" d="M9.22,17.98s-.02,.04-.02,.04c-.04,.02-.08,.04-.09,.06v-.04s.08-.04,.11-.06Z"/><path class="cls-2" d="M9.35,17.94s-.06,.04-.08,.04h-.06s.04-.04,.08-.04h.06Z"/><path class="cls-2" d="M9.29,17.94s-.06,.02-.08,.04c-.04,.02-.08,.04-.11,.06v-.04c.06-.02,.09-.04,.13-.06h.06Z"/><path class="cls-2" d="M10.38,18.26s-.02,.04-.04,.04c-.06,.02-.15,.04-.27,.06-.06,.02-.11,.02-.17,.04-.06,.04-.09,.08-.13,.13-.04,.08-.08,.13-.09,.17-.04,.08-.09,.13-.15,.19-.06,.04-.13,.09-.19,.11-.08,.04-.15,.06-.21,.08-.08,.04-.15,.02-.21,.02h-.55s.04-.02,.09-.02c.08,0,.19-.02,.27-.02,.08-.02,.13-.02,.17-.02,.08-.02,.13,0,.21-.02,.06-.02,.13-.06,.19-.08,.06-.04,.11-.08,.17-.11,.06-.06,.09-.11,.13-.17,.04-.04,.08-.11,.13-.19,.02-.06,.1-.11,.15-.13,.08-.02,.13-.02,.19-.02,.11,0,.19-.02,.27-.04t.04-.02Z"/><path class="cls-2" d="M3.27,20.58s-.02,0-.04-.02c-.06-.06-.15-.11-.27-.15-.06-.02-.13-.04-.19-.06-.08,0-.15-.04-.21-.02-.08,.02-.13,.06-.21,.11-.08,.04-.15,.08-.25,.1-.1,.02-.17,.02-.27,.02-.08,.02-.15,.02-.23,.04-.08,0-.13,.04-.19,.1-.06,.02-.11,.08-.17,.11-.09,.08-.23,.11-.3,.09-.08,0-.09-.04-.09-.04,0,0,.02,.02,.09,.02s.17-.04,.27-.11c.06-.06,.13-.11,.17-.13,.04-.06,.11-.11,.21-.13,.08-.02,.17-.02,.25-.02,.08-.02,.17-.02,.25-.02,.08-.02,.15-.06,.21-.09,.08-.06,.15-.1,.25-.11,.08-.02,.17,.02,.25,.02,.08,.02,.13,.06,.19,.08,.11,.06,.21,.13,.27,.19,0,.02,.02,.04,.02,.04Z"/><path class="cls-2" d="M3.61,20.2s-.02,.04-.02,.04v-.04h.02Z"/><path class="cls-2" d="M4.56,20.16s-.02,0-.04,.02c-.04,0-.08,.02-.11,.02s-.06,.02-.09,.02h-.17l-.11-.02-.09-.02s-.04-.02-.08-.04c-.02,0-.06,0-.09-.02h-.08v-.02s.06-.02,.08,0c.04,0,.08,.02,.09,.02,.04,0,.08,.02,.09,.02l.19,.04h.27s.08,0,.11-.02h.04Z"/><path class="cls-2" d="M16.8,11.99s-.06,.06-.08,.08c-.04,.02-.08,.02-.08,.02,0,0,.04,0,.08-.04,.02-.02,.04-.04,.08-.06Z"/><path class="cls-2" d="M17.66,11.17c.02,.06,0,.08-.04,.13-.02,.06-.04,.09-.06,.13-.02,.04-.04,.1-.06,.13,0,.06-.02,.11,0,.17,0,.06,.02,.08,.02,.19-.06,.06-.11,.08-.19,.08-.06-.02-.11-.04-.17-.06-.06-.02-.09-.04-.15-.04-.04-.02-.08-.02-.11,0-.04,.04-.08,.06-.09,.08,.02-.04,.04-.08,.08-.1,.04-.04,.09-.04,.15-.04,.06,.02,.09,.02,.15,.04,.06,.02,.11,.04,.15,.04,.06,.02,.11,0,.13-.04,0,0-.04-.09-.04-.15s0-.11,.02-.17c.02-.06,.04-.11,.08-.15,.02-.04,.04-.08,.08-.13,.04-.04,.06-.08,.06-.11Z"/><path class="cls-2" d="M17.66,11.1v.04s-.02-.02-.02-.04-.02-.06-.02-.06c.02,0,.04,.04,.04,.06Z"/><polygon class="cls-2" points="17.9 9.52 17.88 9.54 17.88 9.52 17.9 9.52"/><path class="cls-2" d="M18.42,10.21s-.02,.09-.09,.13c-.04,.02-.08,.02-.11,.02-.04-.02-.08-.06-.09-.09-.04-.06-.04-.1-.02-.15,0-.04,.02-.1,.04-.13l.06-.13v-.11s-.06-.04-.09-.06c-.02-.04-.06-.04-.09-.08t-.02-.04s.02,0,.04,.02c.04,.02,.08,.04,.11,.06,.02,.02,.08,.04,.09,.08,.02,.06,.02,.11,0,.15l-.04,.13s-.04,.1-.06,.13c0,.04,0,.08,.02,.11,0,.04,.04,.06,.08,.08h.09c.06-.02,.08-.08,.09-.11Z"/><path class="cls-2" d="M17.88,9.56s-.02,0-.02,.02v-.02h.02Z"/><path class="cls-2" d="M20.07,6.75c0,.08-.08,.11-.15,.13-.06,.02-.13,.04-.17,.08-.02,.06,.02,.13-.02,.25-.06,.08-.13,.13-.19,.21-.06,.06-.11,.11-.06,.17,.04,.06,.11,.15,.13,.25,.02,.09,.04,.19,.02,.28-.02,.1-.06,.17-.11,.23-.06,.08-.13,.11-.19,.15-.13,.06-.27,.04-.34,.04-.04,0-.08-.02-.08-.04,0,0,.04,0,.08,.02,.08,0,.19-.02,.3-.08,.06-.04,.11-.08,.17-.13,.04-.06,.06-.13,.08-.21,.02-.08,0-.15-.02-.25-.02-.08-.06-.13-.13-.23-.08-.09,.02-.23,.09-.28,.06-.06,.13-.11,.15-.17,.04-.06,0-.17,.06-.25,.08-.08,.15-.08,.21-.1,.19-.02,.11-.11,.06-.19-.02-.04-.04-.06-.04-.08,.02,.02,.04,.04,.06,.06,.04,.04,.06,.1,.09,.13Z"/><path class="cls-2" d="M20.45,4.52c-.02,.06-.02,.11,0,.17,0,.08,.02,.15,.02,.19,.04,.08-.04,.19-.13,.19-.08-.02-.13-.02-.15,.04-.02,.06,0,.11,.02,.19,.04,.06,.06,.15,0,.23-.04,.08-.11,.1-.15,.13-.04,.04-.08,.08-.09,.13-.04,.1-.04,.17-.02,.25v.04s0-.02-.02-.04c-.02-.06-.04-.15,0-.27,.02-.06,.06-.11,.09-.15,.06-.06,.11-.1,.13-.13,.04-.04,.02-.1,0-.17-.04-.06-.06-.15-.04-.23,.04-.11,.17-.11,.23-.09,.06,0,.08-.04,.08-.11,0-.04-.02-.11-.02-.19v-.17c.02-.11,.06-.19,.09-.25,.02-.02,.04-.04,.04-.06,0,.02-.02,.04-.02,.06-.02,.06-.06,.15-.06,.25Z"/><path class="cls-2" d="M20.54,6.31v.11s-.02,.06-.04,.09l-.06,.06s-.08,.08-.09,.11l-.04,.04s.02-.02,.02-.04c.04-.04,.06-.08,.09-.11,.02-.04,.04-.06,.04-.08,.02-.04,.04-.06,.04-.09v-.1s-.02-.08-.02-.11l-.02-.11v-.11s0-.06-.02-.1v-.1s0-.1-.02-.13v-.04s0,.02,.02,.04c0,.04,.02,.09,.02,.13s.02,.08,.02,.1c0,.04,.02,.08,.02,.1,0,.06,0,.09,.02,.11v.11s.02,.08,.02,.11Z"/><path class="cls-2" d="M20.96,3.82s.02-.04,0-.11c-.02-.08-.09-.13-.21-.23-.04-.06-.11-.08-.13-.17-.02-.08-.02-.15-.04-.23-.02-.06-.08-.11-.13-.15q-.06-.02-.19-.02l.02-.15,.04-.25c.02-.06,.04-.15,.06-.25,.02-.06,.04-.15,.06-.23,0-.08,.02-.13,0-.19-.08-.11-.06-.27,0-.3h.02c-.04,.08-.06,.17,.04,.29,.02,.06,.02,.15,0,.21,0,.1-.02,.19-.04,.25-.02,.09-.02,.17-.04,.23l-.04,.27-.02,.04s.08,0,.13,.04c.08,.04,.15,.11,.17,.21,.02,.08,.02,.17,.04,.23,0,.08,.08,.11,.11,.15,.08,.1,.17,.17,.17,.27,.02,.08-.02,.11-.02,.11Z"/><path class="cls-2" d="M20.92,1.48v-.15s-.02-.06-.04-.09c-.02-.02-.04-.04-.08-.08s-.06-.08-.08-.1l-.09-.08s-.04-.08-.04-.13c-.02-.04,0-.08,.02-.11,0-.04,.06-.08,.06-.08,0,0-.02-.06-.02-.08-.02-.08-.02-.13,0-.15,0,.04,0,.08,.02,.13,.02,.04,.02,.06,.06,.1-.04,.04-.08,.06-.08,.08-.02,.04-.02,.08-.02,.11s.02,.08,.04,.09l.09,.1s.04,.06,.08,.1c.02,.02,.06,.06,.06,.1,.02,.04,.04,.06,.04,.09,0,.06,0,.11-.02,.15Z"/><path class="cls-2" d="M16.25,12.71s-.11-.02-.13-.02c-.02,.04,.02,.09,.06,.15,.06,.06,.09,.19,.04,.29-.06,.1-.15,.13-.25,.17-.08,.06-.17,.1-.23,.17-.06,.08-.11,.15-.17,.25l-.19,.25c-.06,.08-.11,.17-.17,.25-.04,.08-.06,.15-.06,.25-.04,.06,.11,.15,0,.25-.21,0-.25,.06-.27,.17h-.02s-.02-.11,.06-.17c.06-.06,.15-.04,.19-.06,.06,0-.04-.08-.06-.19,0-.1,.02-.21,.08-.3,.04-.09,.09-.17,.15-.25l.19-.27c.06-.08,.11-.17,.19-.25,.08-.1,.17-.13,.27-.17,.08-.04,.17-.08,.21-.15,.04-.06,.02-.11-.02-.19-.02-.06-.1-.15-.04-.23,.08,0,.13,.04,.17,.04,.04,.02,.08,.04,.1,.04-.02,0-.06-.02-.1-.02Z"/><path class="cls-2" d="M14.18,15.15h-.13c-.09,.02-.23,.02-.34,.02-.06,0-.15,0-.21,.02-.08,0-.08,.06-.08,.15v.27c-.02,.09-.04,.21-.09,.3-.08,.08-.13,.13-.19,.19-.02,.06,0,.15,0,.25,0,.13-.17,.19-.25,.17-.06-.02-.11-.02-.11,0v.02c-.04,.19-.23,.13-.29,.19-.08,0-.13,.02-.13,.02,0,0,.06-.02,.13-.06,.06-.02,.23-.06,.23-.13v-.04s-.02-.02-.02-.04c.06-.06,.15-.04,.21-.04,.08,0,.13-.02,.13-.1s-.04-.17,.02-.29c.06-.08,.13-.15,.17-.21,.06-.08,.08-.17,.08-.25,.02-.08,.02-.17,.02-.27,0-.08,.02-.23,.15-.23,.09-.02,.15,0,.23,0,.11,.02,.25,.02,.34,.02,.08,.02,.13,.02,.13,.02Z"/><path class="cls-2" d="M11.97,17.16s0,.04-.06,.06c-.08,.02-.19,0-.32-.02-.08,0-.15-.02-.21-.02-.08-.02-.17-.02-.23-.04h-.09l.02,.02,.08,.23,.04,.13s.08,.17-.04,.15c-.15,0-.19-.08-.27-.11-.06-.04-.13-.06-.17-.04-.02,.04,0,.11-.04,.19-.04,.15-.19,.17-.27,.17-.04,0-.06,.02-.06,.04-.02-.02,0-.04,.06-.06,.08,0,.19-.06,.23-.17,.02-.04-.02-.13,.04-.23,.08-.06,.19-.02,.27,.02,.06,.04,.15,.09,.17,.09,0,0-.02-.08-.04-.15l-.09-.25s-.04-.1-.06-.15c.08,.02,.15,.02,.25,.04,.06,.02,.15,.02,.23,.04,.06,.02,.13,.04,.21,.04,.11,.02,.23,.06,.3,.06,.04,0,.06-.02,.06-.04Z"/><path class="cls-2" d="M7.72,19.61s-.02,0-.04,.02c-.02,0-.04,.02-.08,.02h-.06s-.06-.02-.06-.02c-.04,0-.06-.02-.08-.02l-.06-.04-.06-.06s-.02-.02-.06-.04c0,0-.02-.02-.04-.04l-.02-.02h.02s.06,.04,.06,.04c.02,.02,.04,.04,.06,.04l.06,.06,.06,.04s.04,0,.06,.02c.02,0,.04,.02,.06,.02h.06s.06,0,.08-.02h.04Z"/><path class="cls-2" d="M7.26,20.01s-.04,.02-.08,.04c-.08,.02-.15,.06-.23,.08-.06,.02-.11,.04-.15,.06-.06,.02-.13,.04-.17,.06-.06,.02-.11,.04-.19,.04-.08,.04-.17-.08-.13-.15,0-.08,.06-.13,.09-.19,.04-.02,.08-.08,.13-.13,.04-.02,.09-.08,.13-.11,.04-.02,.09-.06,.13-.08,.09-.04,.15-.1,.17-.15,0,.06-.06,.13-.13,.17-.06,.04-.11,.08-.15,.1-.04,.04-.08,.09-.11,.13-.04,.06-.09,.09-.11,.13-.06,.04-.08,.1-.09,.15,0,.04,.02,.08,.08,.08s.11-.04,.17-.04c.04-.02,.11-.04,.17-.06,.04,0,.09-.02,.15-.04,.08-.02,.17-.04,.23-.06,.06,0,.09-.02,.09-.02Z"/><path class="cls-2" d="M6.04,19.5s0,.04-.02,.06c-.04,.04-.11,.08-.21,.1-.04,.02-.09,.04-.13,.04-.06,.02-.13,.04-.15,.06l-.06,.02c.06,.04,.09,.09,.11,.17,0,.06,0,.13-.02,.19-.02,.06-.06,.1-.02,.15,.02,.06,.04,.1,.04,.17,0,.04-.06,.1-.06,.1,.04,.06,.09,.11,.13,.15v.02c-.06-.06-.13-.11-.19-.17,0-.02-.02-.02-.02-.04,.11,0,.06-.04,.08-.06,.02-.06-.02-.11-.04-.17-.04-.06-.02-.11,0-.17,.04-.06,.04-.11,.02-.17-.02-.04-.04-.09-.08-.13-.04-.02-.1-.04-.11-.06,.06-.02,.11-.04,.19-.06,.04-.02,.09-.02,.15-.04,.04-.02,.09-.02,.15-.04,.1-.02,.15-.04,.19-.08t.04-.04Z"/></g><path class="cls-1" d="M13,8.76s.04,.04,.12,.11c.08,.07,.19,.17,.32,.28,.07,.06,.14,.12,.22,.19,.08,.07,.16,.14,.24,.21,.09,.07,.17,.15,.26,.22,.09,.07,.21,.14,.34,.15,.06,0,.13,0,.2-.03,.03-.02,.06-.04,.08-.07,.02-.03,.03-.07,.03-.1,0-.07-.02-.13-.05-.19-.03-.05-.06-.1-.1-.15-.08-.09-.17-.15-.27-.19-.05-.02-.1-.03-.15-.04-.05,0-.09-.01-.13-.02-.04,0-.08-.03-.1-.05-.02-.03-.04-.06-.04-.09,0-.07,.03-.12,.07-.15,.04-.03,.08-.03,.11-.03,.03,0,.04,0,.04,0,0,0-.01,0-.04-.01-.03,0-.07,0-.12,.02-.02,.01-.05,.03-.06,.06-.02,.03-.03,.07-.03,.1,0,.04,.01,.08,.04,.12,.03,.04,.07,.06,.12,.07,.04,.01,.09,.02,.14,.03,.04,0,.09,.02,.13,.04,.09,.04,.17,.1,.24,.18,.03,.04,.06,.08,.09,.13,.02,.05,.04,.1,.03,.15,0,.05-.03,.08-.07,.11-.04,.02-.1,.03-.15,.02-.11-.01-.21-.07-.3-.14-.09-.07-.18-.14-.27-.21-.09-.07-.17-.13-.25-.2-.08-.06-.16-.12-.23-.18-.14-.11-.26-.2-.34-.26-.08-.06-.13-.1-.13-.1Z"/><path class="cls-1" d="M8.73,13.93s0,0,.02,.03c.01,.02,.03,.04,.05,.07,.05,.07,.11,.16,.19,.29,.07,.13,.15,.29,.21,.49,.02,.05,.03,.1,.04,.15,0,.05,0,.1,0,.14-.02,.04-.05,.08-.09,.1-.04,.02-.09,.03-.15,.02-.11-.01-.23-.06-.34-.13-.03-.02-.05-.04-.08-.06-.03-.02-.06-.04-.08-.06-.06-.04-.11-.09-.17-.13-.23-.18-.47-.37-.71-.59-.23-.21-.45-.45-.64-.72-.09-.13-.18-.27-.25-.42-.07-.15-.13-.3-.19-.46-.11-.32-.2-.65-.3-.98-.1-.33-.21-.64-.32-.95-.11-.3-.22-.6-.34-.87-.11-.27-.23-.53-.34-.77-.22-.47-.42-.85-.56-1.11-.07-.13-.13-.23-.17-.3-.04-.07-.06-.11-.06-.11,0,0,.07,.16,.19,.43,.12,.28,.29,.67,.48,1.15,.09,.24,.19,.5,.29,.78,.1,.28,.2,.57,.3,.87,.1,.3,.2,.62,.29,.94,.1,.32,.18,.66,.29,.99,.06,.17,.12,.33,.2,.49,.08,.16,.17,.31,.27,.46,.2,.29,.44,.53,.69,.75,.25,.22,.5,.4,.74,.57,.06,.04,.12,.08,.18,.13,.03,.02,.06,.04,.09,.06,.03,.02,.06,.04,.1,.06,.07,.04,.13,.07,.2,.09,.07,.02,.14,.04,.21,.04,.07,0,.15,0,.22-.05,.03-.02,.06-.05,.09-.08,.01-.01,.02-.03,.03-.05,0-.02,.02-.03,.02-.05,.02-.07,.01-.14,0-.2-.01-.06-.03-.11-.05-.16-.08-.2-.18-.36-.26-.48-.09-.13-.16-.22-.22-.28-.03-.03-.05-.05-.06-.07-.01-.01-.02-.02-.02-.02Z"/><path class="cls-1" d="M8.55,3.41s.09,.04,.24,.12c.16,.08,.38,.18,.65,.31,.13,.06,.28,.13,.44,.2,.16,.07,.32,.14,.49,.22,.17,.07,.35,.15,.53,.22,.18,.07,.36,.15,.55,.22,.18,.07,.37,.15,.55,.22,.18,.07,.36,.14,.53,.2,.17,.06,.34,.13,.5,.18,.16,.06,.31,.11,.45,.16,.28,.1,.52,.17,.68,.23,.17,.05,.26,.08,.26,.08,0,0-.09-.04-.25-.11-.16-.07-.39-.16-.66-.28-.14-.06-.29-.12-.44-.18-.16-.06-.32-.13-.49-.2-.17-.07-.35-.14-.53-.22-.18-.07-.36-.15-.55-.22-.18-.07-.37-.15-.55-.22-.18-.07-.36-.14-.53-.21-.17-.07-.34-.13-.5-.2-.16-.06-.31-.12-.45-.18-.28-.11-.51-.2-.67-.26-.16-.06-.26-.1-.26-.1Z"/><path class="cls-1" d="M15.42,6.66s0,0,.01,.02c0,.01,.02,.03,.04,.05,.04,.04,.1,.1,.19,.15,.04,.03,.09,.05,.14,.08,.05,.03,.11,.05,.16,.07,.06,.02,.12,.05,.18,.07,.06,.02,.12,.05,.18,.08,.06,.03,.12,.06,.17,.09,.05,.03,.1,.07,.15,.11,.04,.04,.08,.09,.11,.13,.03,.05,.05,.09,.07,.14,.03,.09,.04,.17,.03,.23,0,.03,0,.05-.01,.07,0,.01,0,.02,0,.02,0,0,0,0,0-.02,0-.01,.01-.04,.02-.06,.01-.06,.01-.14-.02-.24-.01-.05-.04-.1-.07-.15-.03-.05-.07-.1-.11-.14-.04-.04-.1-.09-.15-.12-.06-.04-.11-.07-.17-.1-.06-.03-.12-.05-.18-.08-.06-.02-.12-.05-.18-.07-.06-.02-.11-.04-.16-.07-.05-.02-.1-.05-.14-.07-.09-.05-.15-.1-.19-.13-.02-.02-.04-.03-.05-.05-.01-.01-.02-.02-.02-.02Z"/><path class="cls-1" d="M4.97,1.29s.05,.02,.14,.05c.09,.03,.21,.08,.36,.13,.08,.03,.16,.05,.24,.08,.09,.03,.18,.06,.27,.09,.09,.03,.19,.06,.29,.1,.1,.03,.2,.06,.31,.09,.1,.03,.21,.05,.32,.06,.11,.01,.21,.02,.31,.01,.1,0,.2-.01,.29-.02,.09-.01,.18-.03,.25-.05,.16-.03,.28-.07,.37-.09,.09-.03,.14-.04,.14-.04,0,0-.05,0-.14,.03-.09,.02-.22,.04-.38,.07-.08,.01-.16,.02-.25,.03-.09,0-.19,.01-.28,.01-.1,0-.2,0-.3-.02-.1-.01-.2-.03-.31-.06-.1-.02-.2-.05-.3-.08-.1-.03-.2-.06-.29-.09-.1-.03-.19-.06-.28-.08-.09-.03-.17-.05-.25-.07-.15-.04-.28-.08-.37-.1-.09-.02-.14-.04-.14-.04Z"/><path class="cls-1" d="M4.21,2.98s0,0,0,0c0,0,.01,0,.03,0,.02,0,.06,0,.09,.03,.04,.02,.07,.06,.1,.1,.03,.05,.06,.1,.1,.17,.02,.03,.03,.07,.05,.1,.02,.03,.04,.07,.06,.1,.02,.04,.04,.07,.07,.11,.02,.04,.05,.07,.08,.11,.03,.04,.05,.07,.08,.11,.03,.04,.06,.07,.09,.11,.06,.07,.13,.14,.2,.21,.03,.03,.07,.07,.11,.1l.05,.05s.04,.03,.06,.05c.07,.06,.15,.12,.22,.17,.04,.03,.08,.05,.11,.08,.04,.02,.07,.05,.11,.07,.04,.02,.07,.04,.11,.06,.03,.02,.07,.04,.1,.05,.13,.06,.24,.11,.32,.14,.08,.03,.13,.04,.13,.04,0,0-.04-.02-.12-.06-.08-.04-.18-.09-.31-.16-.03-.02-.06-.04-.1-.06-.03-.02-.07-.04-.1-.06-.03-.02-.07-.05-.11-.07-.04-.03-.07-.05-.11-.08-.07-.05-.15-.11-.22-.17-.02-.02-.04-.03-.05-.05l-.05-.05s-.07-.06-.1-.1c-.07-.07-.13-.14-.2-.21-.03-.04-.06-.07-.09-.11-.03-.04-.06-.07-.09-.11-.03-.03-.05-.07-.08-.11-.03-.03-.05-.07-.07-.1-.02-.03-.04-.07-.07-.1-.02-.03-.04-.07-.06-.1-.07-.13-.15-.23-.23-.27-.04-.02-.08-.02-.1-.02-.01,0-.02,0-.03,0,0,0,0,0,0,0Z"/><path class="cls-1" d="M3.77,4.17s.03,.03,.07,.08c.02,.03,.05,.06,.08,.1,.03,.04,.07,.08,.1,.12,.04,.05,.08,.1,.12,.15,.04,.05,.09,.11,.13,.17,.04,.06,.09,.12,.14,.18,.05,.06,.09,.13,.14,.19,.04,.07,.09,.13,.13,.2,.04,.07,.08,.13,.12,.19,.04,.06,.08,.13,.11,.18,.03,.06,.07,.12,.09,.17,.03,.05,.05,.1,.08,.14,.02,.04,.04,.08,.06,.11,.03,.06,.05,.1,.05,.1,0,0-.01-.04-.04-.1-.01-.03-.03-.07-.05-.12-.02-.04-.04-.09-.07-.15-.03-.05-.05-.11-.09-.17-.03-.06-.07-.12-.1-.19-.04-.06-.08-.13-.12-.2-.04-.07-.09-.13-.13-.2-.05-.07-.09-.13-.14-.19-.05-.06-.09-.12-.14-.18-.05-.06-.09-.11-.14-.17-.04-.05-.09-.1-.13-.14-.04-.04-.08-.08-.11-.12-.03-.03-.06-.06-.09-.09-.05-.05-.08-.08-.08-.08Z"/><path class="cls-6" d="M2.6,4.97s0,.04,.03,.11c.02,.07,.04,.18,.08,.3,.02,.06,.04,.13,.06,.2,.02,.07,.05,.14,.08,.22,.03,.07,.06,.15,.09,.23,.04,.08,.07,.15,.11,.23,.04,.07,.09,.15,.13,.22,.05,.07,.1,.14,.15,.2,.05,.06,.11,.12,.16,.17,.05,.05,.11,.1,.16,.14,.1,.08,.2,.13,.26,.16,.03,.02,.06,.03,.08,.04,.02,0,.03,.01,.03,.01,0,0,0,0-.03-.02-.02-.01-.04-.02-.07-.04-.06-.04-.15-.1-.25-.18-.05-.04-.1-.09-.15-.14-.05-.05-.1-.11-.15-.17-.05-.06-.1-.13-.14-.2-.05-.07-.09-.14-.13-.21-.04-.07-.08-.15-.11-.22-.03-.08-.07-.15-.1-.22-.03-.07-.06-.14-.08-.21-.02-.07-.05-.13-.07-.19-.04-.12-.08-.22-.1-.29-.02-.07-.04-.11-.04-.11Z"/><path class="cls-1" d="M4.2,2.5s.02,.03,.05,.07c.02,.02,.04,.05,.06,.08,.02,.03,.05,.06,.08,.1,.03,.04,.07,.07,.1,.11,.04,.04,.08,.08,.12,.12,.04,.04,.09,.08,.14,.12,.05,.04,.1,.08,.15,.11,.05,.04,.1,.07,.16,.1,.05,.03,.11,.06,.16,.09,.05,.03,.1,.05,.15,.08,.05,.02,.1,.04,.14,.06,.04,.02,.08,.03,.12,.05,.04,.01,.07,.02,.09,.03,.05,.02,.08,.02,.08,.02,0,0-.03-.01-.08-.03-.03,0-.06-.02-.09-.04-.04-.01-.07-.03-.12-.05-.04-.02-.09-.04-.14-.07-.05-.02-.1-.05-.15-.08-.05-.03-.1-.06-.15-.09-.05-.03-.1-.07-.15-.1-.05-.04-.1-.07-.15-.11-.05-.04-.09-.08-.14-.11-.04-.04-.09-.08-.12-.11-.04-.04-.08-.07-.11-.11-.03-.03-.06-.06-.09-.09-.03-.03-.05-.05-.07-.07-.04-.04-.06-.06-.06-.06Z"/><path class="cls-1" d="M5.96,.48s.06,.02,.17,.05c.11,.03,.27,.07,.45,.12,.09,.02,.2,.05,.31,.07,.11,.03,.22,.05,.34,.07,.12,.02,.24,.05,.37,.07,.13,.02,.25,.04,.38,.06,.13,.01,.26,.03,.39,.04,.13,.01,.25,.02,.38,.02,.06,0,.12,0,.18,0,.06,0,.12,0,.17,0,.06,0,.11,0,.16,0,.05,0,.1,0,.15-.01,.05,0,.1,0,.14-.01,.04,0,.09-.01,.13-.02,.04,0,.08-.01,.11-.01,.03,0,.06-.01,.09-.02,.11-.02,.17-.03,.17-.03,0,0-.06,0-.18,.02-.03,0-.06,0-.09,0-.03,0-.07,0-.11,0-.04,0-.08,0-.12,0-.04,0-.09,0-.14,0-.05,0-.1,0-.15,0-.05,0-.11,0-.16,0-.06,0-.11,0-.17,0-.06,0-.12,0-.18,0-.12,0-.24-.02-.37-.03-.13-.01-.25-.03-.38-.04-.13-.02-.26-.03-.38-.05-.13-.02-.25-.04-.37-.06-.12-.02-.23-.04-.34-.06-.11-.02-.21-.04-.31-.06-.19-.04-.35-.06-.46-.09-.11-.02-.18-.03-.18-.03Z"/><path class="cls-4" d="M13.29,.71s.07,0,.19,0c.12,0,.3,0,.51,0,.11,0,.22,0,.34,0,.12,0,.25,.01,.38,.02,.13,0,.27,.02,.41,.03,.14,0,.28,.02,.42,.03,.14,.01,.28,.02,.42,.03,.14,.01,.27,.02,.4,.04,.13,.01,.26,.03,.37,.05,.12,.02,.23,.04,.33,.07,.2,.05,.37,.11,.48,.16,.06,.02,.1,.05,.13,.06,.03,.01,.05,.02,.05,.02,0,0-.01,0-.04-.03-.03-.02-.07-.04-.12-.07-.11-.06-.27-.14-.47-.2-.1-.03-.21-.06-.33-.09-.12-.03-.25-.05-.38-.06-.13-.02-.27-.03-.41-.05-.14-.01-.28-.02-.42-.04-.14-.01-.28-.02-.42-.03-.14,0-.28-.01-.41-.02-.13,0-.26,0-.38,0-.12,0-.24,0-.34,0-.21,.01-.39,.03-.51,.05-.12,.02-.19,.03-.19,.03Z"/><path class="cls-1" d="M1.08,11.65s0,.07,.01,.18c0,.03,0,.06,0,.1,0,.04,0,.07,0,.11,0,.04,0,.08,0,.13,0,.05,0,.09,0,.14,0,.05,0,.1,0,.16,0,.05,0,.11,0,.17,0,.06,0,.12-.01,.18,0,.06,0,.12-.01,.18-.01,.12-.02,.25-.04,.38-.01,.13-.03,.26-.05,.39-.02,.13-.03,.27-.05,.4-.02,.13-.03,.26-.04,.38-.01,.13-.02,.25-.03,.36,0,.11-.01,.22-.01,.32,0,.05,0,.1,0,.14,0,.05,0,.09,0,.13,0,.04,0,.08,0,.11,0,.04,0,.07,0,.1,0,.12,.02,.18,.02,.18,0,0,0-.07,0-.18,0-.03,0-.06,0-.1,0-.04,0-.07,0-.11,0-.04,0-.08,0-.13,0-.05,0-.09,.01-.14,0-.1,.02-.21,.03-.32,.01-.11,.03-.23,.04-.36,.02-.12,.03-.25,.05-.38,.02-.13,.03-.26,.05-.4,.01-.13,.03-.27,.04-.4,.01-.13,.02-.26,.03-.39,0-.06,0-.12,0-.19,0-.06,0-.12,0-.18,0-.06,0-.11,0-.17,0-.05,0-.11,0-.16,0-.05,0-.1,0-.14,0-.05,0-.09-.01-.13,0-.04,0-.08-.01-.11,0-.04-.01-.07-.02-.1-.02-.11-.03-.18-.03-.18Z"/></g></g></svg>