<?xml version="1.0" encoding="UTF-8"?><svg id="Layer_2" xmlns="http://www.w3.org/2000/svg" viewBox="0 0 33.1 125.23"><defs><style>.cls-1{fill:#00416b;}.cls-2{fill:#fff;}.cls-3{fill:#ffe800;}.cls-4{fill:#ffb600;}.cls-5{fill:#cfd2d3;}.cls-6{fill:#231f20;}.cls-7{fill:#06262d;}.cls-8{fill:#a2a9ad;}</style></defs><g id="Aperol_Spiritz"><g><path class="cls-4" d="M31.64,76.89c-.11-.05-.2-.12-.3-.16-14.55-8.17-26.78-1.92-29.86-.04-.11,.05-.2,.11-.27,.16l.02,.73v.43c.07-.04,.14-.09,.23-.13,3.08-1.89,15.31-8.14,29.86,.04,.1,.03,.19,.1,.29,.15v-.47s.03-.71,.03-.71Z"/><path class="cls-2" d="M1.46,77.89c-.09,.04-.16,.09-.22,.13v.3s.02,.35,.02,.35v.38c.08-.05,.17-.11,.29-.18,2.55-1.6,14.92-8.42,29.71,.04,.11,.04,.2,.11,.3,.16l.02-.38v-.33s.01,0,.01,0h0s0-.29,0-.29c-.1-.05-.19-.12-.29-.15-14.55-8.17-26.78-1.92-29.86-.04Z"/><path class="cls-2" d="M30.81,96.81c.09-.03,.17-.06,.26-.1l.03-.73s0,0,0,0l.02-.68h0s0,0,0,0c-.11,.05-.21,.09-.32,.12-14.62,6.2-26.67,1.03-28.79,.04-.14-.07-.23-.12-.28-.14v.28s.02,.41,.02,.41h0s0,0,0,0v.7c.07,.02,.15,.07,.28,.13,2.12,1,14.17,6.16,28.79-.04Z"/><path class="cls-8" d="M31.13,96.69h0s0,0,0,0c-.02,0-.04,.01-.06,.02v.23s-.03,.66-.03,.66c-.11,.04-.2,.09-.3,.12-5.25,2.19-10.18,2.94-14.44,2.94-7.14,0-12.37-2.05-14.23-2.9-.11-.04-.21-.09-.3-.12l-.02-.69v-.23s-.02,0-.02,0v.19s.02,.5,.02,.5h0s0,0,0,0l.02,.93,.02,.69c.09,.04,.2,.09,.3,.12,1.85,.85,7.09,2.9,14.23,2.9,4.26,0,9.19-.75,14.44-2.94,.11-.04,.2-.09,.3-.12l.02-.66,.04-.96h0s.02-.68,.02-.68Z"/><path class="cls-4" d="M1.78,97.64c.09,.04,.2,.09,.3,.12,1.85,.85,7.09,2.9,14.23,2.9,4.26,0,9.19-.75,14.44-2.94,.11-.04,.2-.09,.3-.12l.02-.66v-.23c-.08,.04-.17,.07-.25,.1-14.62,6.2-26.67,1.03-28.79,.04-.13-.07-.21-.11-.27-.13v.23s.02,.69,.02,.69Z"/><g><path class="cls-2" d="M21.88,15.7l-.16,.59c-.07-.02-.12-.04-.2-.04-4.47-1.18-9.26-.23-10.24-.02-.12,.04-.2,.05-.2,.05l-.14-.59s.04-.02,.09-.02c.12-.04,.36-.09,.68-.14,.02-.05,.04-.09,.05-.14,.02-.07,.04-.14,.05-.2,.04-.07,.05-.14,.09-.21,.02-.07,.05-.14,.07-.21l.11-.23,.09-.21c.04-.07,.07-.14,.11-.21,.02-.05,.05-.14,.09-.2,.02-.05,.05-.12,.09-.18,.05-.09,.11-.2,.14-.27,.04-.05,.05-.09,.05-.09,0,0,0,.05-.02,.11-.02,.09-.05,.2-.09,.28-.02,.07-.04,.14-.05,.2-.04,.07-.05,.14-.09,.2-.02,.09-.05,.16-.07,.23l-.11,.21-.09,.23c-.04,.07-.07,.14-.09,.21-.04,.05-.07,.12-.11,.2-.02,.05-.05,.12-.09,.18-.02,.04-.04,.05-.05,.09,.98-.2,2.74-.46,4.81-.46,.55,0,1.14,.02,1.74,.07v-.68c.02-.05,.02-.11,.02-.18,0-.04,.02-.11,.02-.16,0-.04,0-.09,.02-.14,0-.07,.02-.14,.02-.21,.02-.04,.02-.07,.02-.07,0,0,0,.04,.02,.09,0,.05,0,.14,.02,.21v.82c-.02,.05-.02,.11-.02,.16s-.02,.11-.02,.16c.52,.04,1.05,.09,1.6,.2,0-.02-.02-.04-.04-.05,0-.02-.02-.05-.04-.07-.02-.04-.04-.07-.05-.09-.02-.04-.04-.05-.04-.09l-.05-.09-.04-.09s-.04-.07-.05-.11c0-.02-.02-.05-.04-.09,0-.02-.02-.04-.02-.07-.02-.04-.04-.09-.05-.12,0-.02-.02-.05-.02-.05,0,0,.02,.02,.04,.05,.02,.04,.04,.07,.07,.11,.02,.02,.02,.05,.04,.07,.02,.04,.04,.05,.05,.09,.02,.04,.04,.05,.04,.09l.05,.09,.04,.09s.04,.07,.05,.11c0,.02,.02,.05,.04,.07,0,.04,.02,.05,.04,.09,0,.02,0,.05,.02,.07,.55,.07,1.12,.2,1.67,.34,.04,.02,.09,.02,.12,.04Z"/><path class="cls-2" d="M19.51,9.54c-.02,.05-.05,.11-.09,.18-.09,.12-.18,.27-.34,.41-.14,.14-.34,.28-.59,.36-.23,.07-.53,.02-.78-.16-.23-.16-.43-.41-.59-.69-.07-.11-.11-.23-.16-.37,0,.04,0,.07,.02,.11,.05,.32,.12,.59,.2,.78,.05,.16,.09,.28,.09,.28,0,0-.07-.09-.18-.25-.11-.16-.25-.41-.37-.75-.05-.16-.11-.34-.16-.53-.04-.2-.07-.39-.09-.61-.04-.23-.04-.45-.04-.68s.04-.46,.05-.69c.04-.23,.07-.45,.12-.68,.05-.21,.11-.43,.18-.62,.07-.21,.14-.41,.21-.59,.07-.18,.14-.34,.21-.5,.14-.3,.28-.55,.37-.73,.09-.16,.16-.27,.16-.27,0,0-.04,.12-.07,.3-.05,.21-.12,.5-.21,.8-.04,.16-.09,.34-.12,.52-.05,.18-.11,.37-.14,.57-.05,.21-.09,.41-.14,.62-.04,.21-.07,.43-.11,.64-.02,.21-.05,.43-.05,.64v.04l.12,.04c-.04,.16-.07,.32-.09,.48,0,.16,0,.32,.02,.48,.02,.16,.05,.32,.09,.48,.05,.14,.11,.28,.18,.43,.16,.27,.34,.5,.55,.66,.23,.18,.48,.23,.71,.16,.23-.05,.43-.16,.57-.3,.16-.12,.27-.27,.36-.39,.04-.05,.07-.11,.11-.16Z"/><path class="cls-2" d="M19.62,9.38s-.02,.04-.02,.05c-.04,.04-.05,.07-.09,.11,.02-.04,.05-.09,.07-.12l.04-.04Z"/><path class="cls-2" d="M14.88,12.68s-.04,0-.12,.02c-.07,.02-.2,.04-.34,.07-.16,.02-.34,.05-.52,.09-.21,.04-.45,.07-.69,.12-.25,.04-.52,.09-.8,.16-.28,.05-.57,.12-.87,.21-.16,.04-.3,.07-.46,.12-.14,.05-.3,.11-.45,.18-.14,.05-.28,.12-.43,.21-.05,.04-.12,.07-.18,.12l-.09,.09v-.05h-.39c.04-.21,.07-.18,.11-.25,.04-.04,.07-.07,.12-.11,.07-.07,.14-.12,.23-.16,.04-.02,.07-.05,.11-.07,.12-.07,.25-.12,.37-.18,.16-.05,.32-.11,.48-.16,.16-.05,.32-.07,.48-.12,.32-.07,.62-.12,.91-.16,.3-.04,.57-.05,.84-.09,.25-.02,.48-.04,.69-.04,.2-.02,.37-.02,.53-.02h.46Z"/><path class="cls-2" d="M22.97,10.38c-.07,.04-.16,.07-.28,.09-.11,.02-.25,.02-.37,0-.02,0-.04-.02-.05-.02-.12-.04-.25-.09-.37-.14-.14-.09-.28-.21-.39-.36-.05-.07-.11-.16-.14-.23-.05-.09-.09-.18-.12-.27-.04-.09-.05-.18-.07-.27-.04-.11-.05-.2-.05-.28l.07-.02c.02,.09,.02,.2,.05,.28,.02,.09,.04,.18,.07,.27,.04,.09,.07,.16,.11,.25,.05,.07,.09,.16,.14,.23,.11,.12,.23,.25,.36,.34,.12,.07,.25,.12,.36,.14,.02,.02,.04,.02,.05,.02,.14,.04,.27,.04,.37,.04,.11-.02,.21-.05,.28-.07Z"/><path class="cls-2" d="M16.34,6.98s-.05-.04-.11-.07c-.09-.04-.23-.11-.41-.16-.18-.07-.41-.12-.68-.16-.23-.02-.52,0-.8,.07,0,.16,0,.32-.02,.48-.02,.25-.05,.52-.09,.77-.05,.27-.11,.52-.16,.77-.07,.23-.16,.48-.25,.71-.09,.21-.2,.43-.3,.62-.11,.2-.21,.37-.34,.53-.21,.3-.45,.53-.61,.68-.12,.11-.21,.18-.25,.2,.02-.04,.07-.12,.16-.27,.12-.18,.28-.45,.45-.78,.04-.07,.07-.16,.11-.25-.14,.11-.32,.16-.48,.16-.18,0-.32-.07-.45-.14-.12-.07-.21-.18-.27-.28-.07-.09-.09-.2-.11-.28-.02-.07,0-.14,0-.2,0,.05,0,.12,.02,.2,.02,.09,.05,.18,.11,.27,.07,.11,.16,.2,.27,.27,.12,.07,.27,.12,.43,.12,.14-.02,.3-.07,.45-.16,.04-.04,.07-.07,.11-.11,.02-.05,.04-.09,.05-.12,.09-.2,.14-.41,.21-.62,.07-.21,.12-.45,.2-.68,.05-.23,.11-.48,.14-.71,.04-.25,.07-.48,.11-.73,0-.09,.02-.18,.02-.27-.16,.07-.32,.14-.5,.25-.32,.18-.64,.41-1.01,.64-.18,.11-.36,.21-.55,.32-.05,.04-.11,.05-.16,.09v1.37c0,.2,0,.37-.02,.55,0,.18-.02,.36-.05,.5-.04,.32-.12,.57-.2,.73-.07,.16-.12,.25-.12,.25,0,0,.04-.09,.07-.27,.05-.18,.09-.43,.09-.73,.02-.14,.02-.3,0-.48v-.28c-.04,.05-.07,.11-.12,.16-.04,.04-.09,.09-.16,.12-.05,.05-.11,.07-.18,.11-.11,.05-.23,.07-.36,.11-.11,.02-.21,.04-.32,.05s-.2,.04-.28,.05c-.07,0-.14,.02-.21,.04-.05,0-.11,.02-.14,.02,.04,0,.09-.02,.14-.04,.05-.02,.14-.04,.21-.04,.09-.04,.18-.05,.27-.07,.12-.02,.23-.05,.34-.07s.23-.05,.34-.11c.07-.02,.12-.05,.18-.09,.05-.04,.11-.09,.14-.14,.05-.04,.09-.09,.12-.16,.02-.02,.02-.04,.02-.07v-.14c0-.2-.02-.39-.02-.59-.02-.21-.02-.41-.02-.61v-.04c-.05,.04-.09,.05-.14,.07-.16,.09-.32,.16-.5,.23-.04,.02-.07,.04-.11,.05-.2,.09-.41,.18-.62,.27l-.18-.52c.2-.07,.39-.16,.61-.25,.11-.04,.21-.09,.34-.14,.07-.04,.16-.09,.25-.12,.11-.05,.23-.11,.34-.16v-.61c0-.18,.02-.37,.02-.55v-.5c.02-.28,.04-.55,.05-.75,0-.16,.02-.28,.02-.28,0,0,.02,.12,.04,.28,.02,.18,.04,.45,.07,.75,0,.16,.02,.32,.04,.5,0,.18,.02,.36,.02,.55,.02,.14,.02,.3,.04,.46,.16-.09,.34-.18,.5-.27,.37-.2,.71-.41,1.07-.59,.25-.11,.48-.2,.71-.25,0-.04,0-.05,.02-.07,.02-.21,.04-.45,.05-.66,0-.21,.02-.43,.04-.61,.02-.39,.05-.69,.07-.93,.04-.21,.05-.34,.05-.34,0,0,.02,.12,.05,.34,.04,.21,.09,.53,.12,.91,.02,.2,.04,.39,.05,.62,0,.2,.02,.41,.02,.62,.3-.02,.59,0,.82,.05,.27,.05,.5,.16,.68,.25,.18,.09,.3,.18,.39,.25,.04,.04,.07,.05,.09,.09Z"/><path class="cls-2" d="M17.8,11.36s-.14,.02-.36,.05c-.23,.04-.55,.09-.94,.14-.2,.04-.41,.05-.62,.09-.23,.02-.46,.05-.69,.09-.25,.02-.5,.05-.75,.07-.25,.04-.52,.07-.77,.09-.27,.04-.52,.05-.77,.09-.25,.02-.52,.05-.75,.07-.25,.04-.48,.05-.69,.07-.23,.02-.43,.04-.64,.05-.18,.02-.34,.05-.48,.09-.16,.02-.3,.05-.41,.09-.18,.05-.28,.11-.32,.12,.04-.04,.12-.12,.27-.21,.12-.09,.28-.2,.5-.27,.12-.05,.25-.11,.39-.14,.2-.05,.39-.11,.62-.16,.21-.05,.45-.11,.69-.16,.23-.04,.48-.09,.75-.12,.25-.04,.52-.07,.77-.11,.27-.02,.53-.04,.78-.05,.27-.04,.52-.04,.77-.05h.71c.21,0,.43,.02,.62,.02,.41,.02,.73,.05,.96,.09,.21,.04,.36,.05,.36,.05Z"/><path class="cls-2" d="M21.83,7.51v.43l-.45-.02c-.16-.02-.3-.04-.46-.04-.09-.02-.18-.02-.27-.04,0,.07,.02,.14,.02,.21,.02,.23,.04,.46,.07,.69,.02,.23,.04,.46,.05,.69,.04,.23,.05,.46,.07,.68,.02,.21,.05,.43,.07,.64,.02,.2,.04,.37,.05,.57,.04,.32,.05,.62,.09,.84,0,.2,.02,.32,.02,.32,0-.02-.05-.12-.11-.3-.07-.2-.16-.46-.23-.82-.05-.18-.11-.36-.14-.55-.04-.21-.09-.41-.12-.64-.04-.21-.07-.45-.11-.68-.02-.23-.05-.46-.07-.69-.02-.25-.04-.48-.05-.71,0-.11,0-.2-.02-.28-.05-.02-.12-.02-.2-.04-.27-.04-.55-.09-.8-.14-.25-.05-.5-.11-.71-.16-.21-.07-.43-.12-.61-.18-.16-.07-.32-.11-.45-.16-.12-.05-.21-.09-.28-.11-.07-.04-.11-.05-.11-.05,0,0,.04,.02,.11,.02,.07,.02,.18,.04,.3,.05,.14,.04,.3,.05,.46,.09,.2,.04,.41,.07,.61,.09,.25,.04,.48,.07,.73,.11,.27,.04,.53,.05,.8,.09h.14v-.02c-.02-.21,0-.43,0-.64,0-.2,.02-.39,.02-.57,.04-.36,.05-.66,.09-.85,.04-.2,.05-.34,.05-.34,0,0,.02,.14,.04,.34,.02,.21,.04,.52,.07,.85,.02,.18,.04,.37,.05,.57s.04,.41,.05,.62v.07c.11,.02,.21,.02,.34,.02,.14,.02,.28,.02,.43,.04h.45Z"/><path class="cls-2" d="M22.56,13.76s-.09-.04-.2-.11c-.12-.09-.3-.2-.5-.3-.11-.07-.21-.14-.32-.21-.12-.07-.25-.14-.37-.21l-.41-.23c-.12-.07-.27-.14-.41-.21-.14-.07-.28-.16-.43-.21l-.41-.2c-.14-.07-.27-.12-.39-.18-.12-.05-.25-.11-.36-.16-.2-.09-.39-.16-.53-.23-.12-.05-.21-.09-.21-.09,0,0,.09,.02,.23,.02,.14,.02,.34,.05,.57,.11,.12,.02,.25,.05,.39,.09,.12,.05,.27,.09,.41,.14,.14,.05,.28,.11,.45,.18,.14,.05,.28,.14,.43,.21,.16,.07,.3,.14,.43,.23,.07,.04,.12,.07,.18,.11,.07,.05,.16,.11,.23,.16,.12,.09,.25,.18,.36,.27,.11,.09,.21,.16,.3,.25,.18,.16,.32,.32,.43,.43,.07,.09,.14,.16,.14,.16Z"/><path class="cls-2" d="M16.54,13.9v.36c-.02,.05-.02,.11-.02,.16-.02,.04-.02,.09-.04,.14-.02,.09-.04,.16-.05,.21-.02,.04-.04,.07-.04,.07v-.09c.02-.05,.02-.14,.02-.21v-.64l-.02-.16c-.02-.05-.02-.11-.04-.18,0-.04-.02-.09-.02-.14-.02-.04-.02-.09-.04-.14-.02-.09-.02-.18-.05-.18v-.02c.07,0,.09,.11,.12,.18,.02,.04,.04,.09,.05,.12,.02,.05,.04,.11,.04,.16,.02,.05,.04,.11,.04,.18l.04,.18Z"/><path class="cls-2" d="M21.29,15.17s-.02,0-.07-.02c-.05,0-.12-.02-.21-.05-.04-.02-.07-.05-.12-.09-.04-.02-.07-.07-.11-.11-.04-.05-.07-.11-.11-.16-.02-.05-.04-.12-.05-.18,0-.05-.02-.11-.04-.16-.02-.04-.05-.09-.09-.11-.04-.04-.07-.05-.11-.07-.05-.02-.09-.02-.12-.02-.09,0-.14,.02-.2,.04v-.02s.09-.07,.2-.09c.04-.02,.09-.02,.14,0,.05,0,.11,.04,.16,.07,.05,.04,.11,.09,.12,.14,.04,.07,.04,.12,.05,.18,.02,.07,.04,.11,.05,.16,.02,.05,.04,.11,.07,.14,.02,.04,.05,.09,.09,.11,.04,.04,.07,.07,.09,.09,.07,.05,.14,.09,.18,.11,.05,.02,.07,.04,.07,.04Z"/><path class="cls-2" d="M14.49,14.39v.18s-.02-.02-.02-.04-.02-.05-.02-.07v-.07s-.02-.04-.02-.05v-.07l-.02-.05v-.14s0-.04-.02-.07v-.12s.02-.04,.02-.04v.04s.02,.05,.02,.07v.05s.02,.05,.02,.07v.05l.02,.07v.14s.02,.04,.02,.05Z"/><path class="cls-2" d="M14.03,13.69s-.04-.02-.05-.02c-.04-.02-.09-.04-.16-.05h-.09c-.05-.02-.09,0-.12,0s-.07,.02-.11,.02c-.04,.02-.07,.04-.11,.05-.04,.02-.07,.05-.11,.07-.04,.04-.05,.07-.07,.09-.04,.04-.05,.07-.07,.11-.02,.04-.04,.05-.04,.09-.04,.07-.04,.12-.05,.16v.05s0-.02-.02-.05c0-.04,0-.11,.02-.18,0-.04,.02-.07,.02-.11,.02-.04,.04-.07,.07-.11,.02-.05,.05-.09,.09-.12,.02-.02,.07-.05,.11-.09,.04-.02,.09-.04,.12-.05,.05,0,.09-.02,.14-.02h.12s.07,.02,.11,.04c.07,.02,.11,.05,.14,.09,.04,.02,.05,.04,.05,.04Z"/><path class="cls-2" d="M11.54,13.64s-.02,0-.04-.02c-.02,0-.04-.02-.07-.02,0,.04,0,.05-.02,.12-.02,.05-.04,.11-.05,.16-.02,.05-.04,.12-.05,.18-.04,.05-.05,.12-.07,.18l-.07,.2-.09,.2c-.02,.05-.05,.11-.07,.18-.02,.05-.05,.11-.09,.16-.02,.05-.04,.11-.07,.16-.04,.05-.05,.12-.09,.18,0,.02-.02,.04-.02,.04-.04,.05-.05,.09-.05,.09,0,0,0-.04,.02-.09,0-.02,.02-.04,.02-.07,.02-.05,.04-.12,.05-.18s.04-.12,.05-.16c.02-.05,.04-.12,.05-.18,.02-.07,.05-.12,.07-.2l.07-.18,.07-.2c.04-.05,.05-.12,.09-.18,.02-.05,.05-.12,.07-.18,.02-.04,.05-.09,.07-.14,.04-.04,.05-.11,.09-.14,.05,0,.09,.04,.11,.05,.02,.02,.02,.04,.02,.04Z"/></g><path class="cls-3" d="M31.26,78.91l-.14,5.25v.07l-.02,.61v.07l-.02,.68v.07l-.02,.61v.07l-.27,9.1c-14.62,6.2-26.67,1.03-28.79,.04l-.25-9.22v-.09l-.04-.61-.02-.71-.02-.69v-.07l-.14-5.2c2.55-1.6,14.92-8.42,29.71,.04Z"/><g><path class="cls-6" d="M6.24,85.92c0,.27-.11,.5-.33,.69-.22,.19-.49,.29-.81,.29h-.33v2.68h.24v.17h-1.24v-.17h.24v-6.32h-.24v-.17h1.33c.32,0,.59,.09,.81,.29,.22,.19,.33,.42,.33,.69v1.87Zm-.76,.42v-2.7c0-.11-.04-.2-.11-.27-.07-.07-.17-.11-.27-.11h-.33v3.47h.33c.1,0,.19-.04,.27-.11,.07-.07,.11-.17,.11-.27Z"/><path class="cls-6" d="M9.68,89.74h-.33c-.45,0-.67-.23-.67-.7v-2.35c0-.11-.04-.2-.11-.27-.07-.07-.17-.11-.27-.11h-.33v3.26h.24v.17h-1.24v-.17h.24v-6.32h-.24v-.17h1.33c.32,0,.59,.09,.81,.29,.22,.19,.33,.42,.33,.69v1.29c0,.42-.22,.71-.66,.88,.44,.19,.66,.48,.66,.89v2.21c0,.17,.07,.26,.22,.26h.02v.17Zm-1-3.98v-2.12c0-.11-.04-.2-.11-.27-.07-.07-.17-.11-.27-.11h-.33v2.89h.33c.1,0,.19-.04,.27-.11,.07-.07,.11-.17,.11-.27Z"/><path class="cls-6" d="M12.75,88.82c0,.27-.11,.5-.34,.69-.22,.19-.49,.29-.81,.29s-.58-.1-.8-.29c-.22-.19-.34-.42-.34-.69v-4.81c0-.27,.11-.49,.34-.69,.22-.19,.49-.29,.8-.29s.59,.1,.81,.29c.22,.19,.34,.42,.34,.69v4.81Zm-.76,.42v-5.65c0-.11-.04-.19-.11-.27s-.16-.11-.27-.11-.19,.04-.27,.11c-.07,.07-.11,.16-.11,.27v5.65c0,.1,.04,.19,.11,.27,.07,.07,.17,.11,.27,.11s.19-.04,.27-.11c.07-.07,.11-.17,.11-.27Z"/><path class="cls-6" d="M15.86,88.82c0,.27-.1,.5-.31,.69-.21,.19-.47,.28-.78,.28s-.57-.1-.78-.28c-.21-.19-.31-.42-.31-.69v-1.07h.76v1.49c0,.25,.11,.38,.33,.38s.33-.13,.33-.38v-1.16c0-.31-.08-.59-.23-.83l-.95-1.48c-.16-.26-.25-.54-.25-.86v-.91c0-.27,.1-.5,.31-.69s.47-.28,.78-.28,.57,.09,.78,.28c.21,.19,.31,.42,.31,.69v1.07h-.76v-1.49c0-.25-.11-.38-.33-.38s-.33,.13-.33,.38v1.11c0,.31,.07,.59,.23,.83l.95,1.48c.17,.26,.25,.54,.25,.86v.95Z"/><path class="cls-6" d="M19.04,89.74h-2.38v-.17h.24v-6.32h-.24v-.17h2.38v2h-.76v-1.83h-.62v2.89h.9v.17h-.9v3.26h.62v-1.83h.76v2Z"/><path class="cls-6" d="M22.24,88.82c0,.27-.11,.5-.34,.69-.22,.19-.49,.29-.81,.29s-.58-.1-.8-.29c-.22-.19-.34-.42-.34-.69v-4.81c0-.27,.11-.49,.34-.69,.22-.19,.49-.29,.8-.29s.59,.1,.81,.29c.22,.19,.34,.42,.34,.69v1.07h-.76v-1.49c0-.11-.04-.19-.11-.27s-.16-.11-.27-.11-.19,.04-.27,.11c-.07,.07-.11,.16-.11,.27v5.65c0,.1,.04,.19,.11,.27,.07,.07,.17,.11,.27,.11s.19-.04,.27-.11c.07-.07,.11-.17,.11-.27v-1.49h.76v1.07Z"/><path class="cls-6" d="M25.49,88.82c0,.27-.11,.5-.34,.69-.22,.19-.49,.29-.81,.29s-.58-.1-.8-.29c-.22-.19-.34-.42-.34-.69v-4.81c0-.27,.11-.49,.34-.69,.22-.19,.49-.29,.8-.29s.59,.1,.81,.29c.22,.19,.34,.42,.34,.69v1.07h-.76v-1.49c0-.11-.04-.19-.11-.27-.07-.07-.16-.11-.27-.11s-.19,.04-.27,.11c-.07,.07-.11,.16-.11,.27v5.65c0,.1,.04,.19,.11,.27,.07,.07,.17,.11,.27,.11s.19-.04,.27-.11c.07-.07,.11-.17,.11-.27v-1.49h.76v1.07Z"/><path class="cls-6" d="M28.74,88.82c0,.27-.11,.5-.34,.69-.22,.19-.49,.29-.81,.29s-.58-.1-.8-.29c-.22-.19-.34-.42-.34-.69v-4.81c0-.27,.11-.49,.34-.69,.22-.19,.49-.29,.8-.29s.59,.1,.81,.29c.22,.19,.34,.42,.34,.69v4.81Zm-.76,.42v-5.65c0-.11-.04-.19-.11-.27s-.16-.11-.27-.11-.19,.04-.27,.11c-.07,.07-.11,.16-.11,.27v5.65c0,.1,.04,.19,.11,.27,.07,.07,.17,.11,.27,.11s.19-.04,.27-.11c.07-.07,.11-.17,.11-.27Z"/></g><path class="cls-1" d="M16.61,114.83c-8.63,0-14.78-1.3-14.87-1.32l.28-1.3c.14,.03,13.73,2.89,28.79,0l.25,1.31c-5.14,.99-10.1,1.32-14.45,1.32Z"/><path class="cls-1" d="M16.63,119.81c-9.58,0-16.41-1.44-16.51-1.46l.19-.87c.15,.03,15.34,3.23,32.19,0l.17,.87c-5.7,1.1-11.22,1.46-16.04,1.46Z"/><path class="cls-7" d="M31.59,117.27c-.05-.37-.21-.71-.39-1.12-.16-.39-.37-.82-.52-1.32-.14-.48-.21-.96-.27-1.44-.02-.09,.16-9.2,.16-9.2v-.05l.02-.59v-.02l.02-.91v-.05l.02-.5v-.09l.12-4.26c-5.25,2.19-10.18,2.94-14.44,2.94-7.14,0-12.37-2.05-14.23-2.9l.11,4.22v.05l.02,.62,.04,.91,.02,.66v.07l.18,8.83c0,.09-.02,.18-.02,.27-.05,.48-.12,.96-.27,1.44-.16,.5-.36,.93-.53,1.32-.18,.41-.32,.75-.39,1.12-.16,.78-.2,1.58-.14,2.33,.02,.21,.04,.43,.07,.64v.04c.04,.2,.07,.39,.12,.59,.16,.73,.8,1.39,1.37,1.85,1.73,1.34,3.7,1.55,5.8,1.67,1.09,.05,2.35,.09,3.7,.14,1.35,.04,2.81,.07,4.26,.09,1.44-.02,2.88-.05,4.24-.09,1.35-.05,2.62-.09,3.7-.14,2.47-.12,6.32-.71,7.19-3.53,.04-.2,.09-.39,.11-.59,0-.02,.02-.04,.02-.04,.02-.21,.05-.43,.07-.64,.05-.75,.02-1.55-.16-2.33Z"/><path class="cls-7" d="M31.33,76.73l.28-9.92c-.04-3.1-.8-6.48-2.39-10.63-.52-1.32-1.07-2.62-1.67-3.88-.34-.71-.69-1.42-1.03-2.14-.91-1.82-1.82-3.67-2.55-5.59h-.04c-.27,.07-.52,.14-.77,.25-.25,.09-.5,.21-.71,.34-.23,.12-.46,.27-.66,.41-.41,.3-.8,.68-1.21,.98-.43,.32-.85,.57-1.28,.75-.41,.16-.82,.27-1.17,.34-.27,.05-.5,.07-.71,.09-.05,0-.11,.02-.16,.02h-.05c-1.46,.12-2.35-.07-2.35-.07v-.02c-.05,0-.11,0-.16-.02-.36-.07-.75-.18-1.18-.34-.41-.18-.85-.43-1.26-.75-.43-.3-.8-.68-1.23-.98-.2-.14-.41-.28-.64-.41s-.46-.25-.73-.34c-.23-.11-.5-.18-.77-.25h-.05c-.73,1.92-1.66,3.77-2.55,5.59-.36,.71-.69,1.42-1.03,2.14-.61,1.26-1.18,2.56-1.67,3.88-1.58,4.15-2.35,7.53-2.39,10.63l.27,9.88c3.08-1.89,15.31-8.14,29.86,.04Zm-6.36-27.18s7.63,12.11,6.07,23.09c0,0-2.86-18.29-6.88-21.01H14.82s8.19-.91,10.15-2.08ZM4.91,66.34c.43-7.72,6.95-17.11,6.95-17.11-6.71,11.23-4.86,19.18-4.86,19.18,8.61-2.67,15.38,.74,15.38,.74-12.22-1.63-17.47,3.48-17.47,3.48v-6.3Z"/><path class="cls-2" d="M31.3,116.06c-.58,.08-1.16,.16-1.74,.24-.58,.07-1.15,.14-1.71,.21-.57,.06-1.13,.12-1.68,.19-1.07,.1-2.14,.19-3.18,.29-1.01,.08-1.97,.14-2.86,.18-.85,.03-1.66,.06-2.42,.08-.69,0-1.32,0-1.87,.01-.52-.01-.92-.02-1.2-.03-.28,0-.43,0-.43,0,0,0,.15,.01,.42,.03,.28,.02,.68,.05,1.2,.09,.55,.02,1.18,.05,1.87,.08,.72,.01,1.54,.03,2.43,0,.89,0,1.85-.04,2.87-.1,1.02-.05,2.09-.13,3.2-.23,.55-.05,1.12-.11,1.69-.16,.57-.07,1.14-.13,1.72-.2,.58-.08,1.16-.16,1.75-.23l1.74-.27-.08-.46-1.72,.27Z"/><path class="cls-2" d="M30.58,115.32c-.58,.08-1.16,.16-1.74,.24-.58,.07-1.15,.14-1.71,.21-.57,.06-1.13,.12-1.68,.19-1.07,.1-2.14,.19-3.18,.29-1.01,.08-1.97,.14-2.86,.18-.85,.03-1.66,.06-2.42,.08-.69,0-1.32,0-1.87,.01-.52-.01-.92-.02-1.2-.03-.28,0-.43,0-.43,0,0,0,.15,.01,.42,.03,.28,.02,.68,.05,1.2,.09,.55,.02,1.18,.05,1.87,.08,.72,.01,1.54,.03,2.43,0,.89,0,1.85-.04,2.87-.1,1.02-.05,2.09-.13,3.2-.23,.55-.05,1.12-.11,1.69-.16,.57-.07,1.14-.13,1.72-.2,.58-.08,1.16-.16,1.75-.23l1.74-.27-.08-.46-1.72,.27Z"/><path class="cls-1" d="M32.26,115.72c-.18-.43-.34-.82-.45-1.21-.11-.37-.16-.8-.2-1.23-.04-.32-.05-.66-.09-.98l1.28-45.49c-.04-3.28-.82-6.78-2.46-11.06-.52-1.34-1.09-2.67-1.71-3.97-.34-.73-.69-1.44-1.05-2.15-1.12-2.26-2.28-4.61-3.04-7.05-1.07-3.42-1.44-7.16-1.73-11-.36-4.56-.34-13.09-.34-13.09-.02-1.14,.02-1.87,.09-2.08,.09-.2,.3-.39,.52-.62,.18-.2,.37-.39,.53-.62,.46-.64,.34-1.14,.21-1.6l-.05-.21c-.25-1.07-.41-2.26-.52-3.7-.14-2.3-.2-4.09-.11-5.82v-.23c.04-.73,.09-1.98-.96-2.71-.69-.52-1.64-.8-2.83-.89h-5.91c-1.21,.09-2.15,.37-2.85,.89-1.05,.73-1,1.98-.96,2.71,0,.07,0,.16,.02,.23,.07,1.73,.04,3.53-.12,5.82-.11,1.44-.27,2.63-.52,3.7l-.05,.21c-.12,.46-.25,.96,.21,1.6,.16,.23,.36,.43,.53,.62,.21,.23,.43,.43,.52,.62,.07,.21,.11,.94,.09,2.08,0,0,.04,8.53-.32,13.09-.3,3.85-.66,7.58-1.73,11-.77,2.44-1.92,4.79-3.04,7.05-.36,.71-.71,1.42-1.05,2.15-.62,1.3-1.19,2.64-1.71,3.97C.84,60.03,.05,63.54,0,66.82l1.28,45.49c-.02,.32-.04,.66-.07,.98-.04,.43-.09,.85-.2,1.23-.11,.39-.27,.78-.45,1.21-.16,.41-.34,.87-.39,1.37-.16,.91-.12,1.8,0,2.62,.12,.82,.36,1.58,.69,2.23,.32,.68,.8,1.19,1.3,1.53,.23,.18,.53,.34,.91,.48,0,0,2.65,1.28,11.31,1.28,.32,0,.64,0,.98-.02h3.13c8.6,0,11.23-1.26,11.23-1.26,.37-.14,.69-.3,.93-.48,.5-.34,.96-.85,1.3-1.53,.34-.64,.57-1.41,.68-2.23,.12-.82,.16-1.71,.02-2.62-.05-.5-.23-.96-.39-1.37ZM9.42,42.94c1.1-3.54,1.48-7.35,1.78-11.25,.37-4.61,.45-9.08,.21-13.25h-.02c.02-1.05-.02-1.8-.11-2.21-.02-.12-.04-.21-.07-.27-.05-.11-.11-.2-.18-.28-.07-.14-.16-.25-.28-.37l-.02-.02-.02-.02c-.07-.07-.14-.16-.21-.23-.16-.14-.32-.3-.43-.46-.14-.21-.16-.3-.12-.52,.02-.07,.04-.14,.07-.23l.05-.23c.02-.05,.02-.11,.04-.16,.09-.37,.16-.77,.23-1.18,.02-.09,.02-.16,.04-.27v-.02c.09-.53,.14-1.1,.2-1.73v-.05c.02-.16,.02-.32,.04-.48,.04-.41,.05-.78,.09-1.16,0-.21,.02-.41,.04-.59,.07-1.53,.07-2.85,.02-4.15,0-.09-.02-.2-.02-.28-.05-.89,.02-1.44,.5-1.8,.52-.37,1.32-.61,2.28-.68h5.8c.94,.07,1.74,.3,2.26,.68,.5,.36,.55,.91,.52,1.8-.02,.09-.02,.2-.02,.28-.07,1.76-.04,3.58,.12,5.89,.02,.23,.04,.46,.05,.68v.05c.09,1.19,.25,2.21,.48,3.15l.05,.23c.11,.39,.12,.46-.05,.75-.11,.16-.27,.32-.43,.46-.18,.2-.37,.39-.55,.62-.05,.09-.11,.2-.16,.3-.02,.05-.05,.16-.07,.28-.07,.41-.11,1.16-.09,2.19h-.02c-.23,4.17-.16,8.63,.2,13.25,.3,3.9,.68,7.71,1.8,11.25,.09,.28,.18,.57,.27,.84-.27,.09-.55,.18-.82,.28-.27,.12-.53,.27-.8,.41-.25,.16-.5,.34-.71,.52-.45,.37-.8,.77-1.16,1.09-.36,.3-.71,.57-1.09,.78-.34,.2-.68,.34-1,.45-.21,.07-1.42,.43-2.55,.25-.21-.05-.48-.12-.77-.23-.32-.11-.68-.27-1.05-.46-.36-.21-.73-.48-1.09-.78-.36-.32-.71-.71-1.14-1.09-.23-.18-.46-.36-.73-.52-.25-.14-.52-.28-.8-.41-.28-.11-.55-.21-.85-.28,.11-.28,.2-.55,.28-.84ZM31.74,119.61c-.02,.21-.05,.43-.07,.64,0,0-.02,.02-.02,.04-.02,.2-.07,.39-.11,.59-.87,2.81-4.72,3.4-7.19,3.53-1.09,.05-2.35,.09-3.7,.14-1.35,.04-2.8,.07-4.24,.09-1.44-.02-2.9-.05-4.26-.09-1.35-.05-2.62-.09-3.7-.14-2.1-.12-4.08-.34-5.8-1.67-.57-.46-1.21-1.12-1.37-1.85-.05-.2-.09-.39-.12-.59v-.04c-.04-.21-.05-.43-.07-.64-.05-.75-.02-1.55,.14-2.33,.07-.37,.21-.71,.39-1.12,.18-.39,.37-.82,.53-1.32,.14-.48,.21-.96,.27-1.44,0-.09,.02-.18,.02-.27h.07l-.02-.59c0-.18,.02-.34,.04-.52h-.05l-.21-7.73v-.07l-.02-.66-.04-.91-.02-.62v-.05l-.11-4.22-.07-2.3-.25-9.22v-.09l-.04-.61-.02-.71-.02-.69v-.07l-.14-5.2-.07-2.17-.27-9.88c.04-3.1,.8-6.48,2.39-10.63,.5-1.32,1.07-2.62,1.67-3.88,.34-.71,.68-1.42,1.03-2.14,.89-1.82,1.82-3.67,2.55-5.59h.05c.27,.07,.53,.14,.77,.25,.27,.09,.5,.21,.73,.34s.45,.27,.64,.41c.43,.3,.8,.68,1.23,.98,.41,.32,.85,.57,1.26,.75,.43,.16,.82,.27,1.18,.34,.05,.02,.11,.02,.16,.02v.02s.89,.2,2.35,.07h.05c.05,0,.11-.02,.16-.02,.21-.02,.45-.04,.71-.09,.36-.07,.77-.18,1.18-.34,.43-.18,.85-.43,1.28-.75,.41-.3,.8-.68,1.21-.98,.2-.14,.43-.28,.66-.41,.21-.12,.46-.25,.71-.34,.25-.11,.5-.18,.77-.25h.04c.73,1.92,1.64,3.77,2.55,5.59,.34,.71,.69,1.42,1.03,2.14,.61,1.26,1.16,2.56,1.67,3.88,1.58,4.15,2.35,7.53,2.39,10.63l-.28,9.92-.07,2.17-.14,5.25v.07l-.02,.61v.07l-.02,.68v.07l-.02,.61v.07l-.27,9.1-.05,2.3-.12,4.26v.09l-.02,.5v.05l-.02,.91v.02l-.02,.59v.05l-.21,7.83h-.05c.02,.18,.02,.34,.04,.52l-.02,.59h.07c0,.09,0,.18,.02,.27,.05,.48,.12,.96,.27,1.44,.14,.5,.36,.93,.52,1.32,.18,.41,.34,.75,.39,1.12,.18,.78,.21,1.58,.16,2.33Z"/><g><path class="cls-5" d="M23.42,42.94c-1.13-3.54-1.5-7.35-1.8-11.25-.36-4.61-.43-9.08-.2-13.25h.02c-.02-1.03,.02-1.78,.09-2.19-4.47-1.17-9.26-.23-10.24-.02,.09,.41,.13,1.16,.11,2.21h.02c.23,4.17,.16,8.64-.22,13.25-.3,3.9-.67,7.71-1.78,11.25-.09,.29-.18,.55-.28,.84,.3,.07,.57,.18,.85,.28,.29,.13,.55,.27,.8,.41,.27,.16,.5,.34,.73,.52,.43,.37,.79,.76,1.14,1.08,.36,.31,.73,.57,1.09,.79,.37,.19,.73,.35,1.05,.46,.28,.11,.55,.18,.76,.23,1.13,.18,2.34-.18,2.55-.25,.32-.1,.66-.25,1-.44,.37-.22,.73-.48,1.08-.79,.36-.32,.72-.71,1.16-1.08,.21-.18,.46-.36,.71-.52,.27-.14,.54-.28,.8-.41,.27-.1,.56-.19,.82-.28-.09-.27-.18-.55-.26-.84ZM14.7,24.64c-.02,.8-.03,1.59-.05,2.37-.04,1.56-.1,3.06-.19,4.49-.08,1.42-.2,2.77-.32,4.01-.14,1.24-.28,2.38-.46,3.37-.17,1-.38,1.87-.58,2.57-.21,.69-.39,1.24-.59,1.57-.18,.35-.27,.54-.27,.54,0,0,.08-.19,.23-.55,.19-.35,.33-.9,.51-1.6,.16-.7,.32-1.56,.44-2.56,.14-1,.24-2.14,.34-3.37,.08-1.24,.16-2.58,.21-4,.03-1.45,.06-2.95,.1-4.48,0-.78,.01-1.56,.01-2.36s0-1.61-.01-2.43c-.01-.81-.02-1.63-.03-2.46l-.05-2.44,.66-.02,.05,2.45c0,.83,.01,1.65,.01,2.47s-.01,1.63-.01,2.43Zm7.46,18.38c-.2-.33-.38-.88-.6-1.57-.19-.7-.4-1.57-.57-2.57-.18-.99-.32-2.13-.46-3.37-.12-1.24-.24-2.59-.32-4.01-.09-1.43-.15-2.93-.19-4.49-.02-.78-.04-1.57-.05-2.37-.01-.8-.01-1.61-.02-2.43,.01-.82,.01-1.64,.02-2.47l.05-2.45,.66,.02-.06,2.44c-.01,.83-.02,1.65-.03,2.46,0,.82,0,1.63-.01,2.43,.01,.8,.01,1.58,.02,2.36,.03,1.53,.07,3.03,.1,4.48,.05,1.42,.13,2.76,.21,4,.1,1.23,.19,2.37,.33,3.37,.12,1,.29,1.86,.45,2.56,.18,.7,.32,1.25,.51,1.6,.15,.36,.23,.55,.23,.55,0,0-.09-.19-.27-.54Z"/><path class="cls-5" d="M22.79,13.83l-.05-.23c-.23-.94-.39-1.96-.48-3.15-.12-.04-.25-.09-.37-.14-.14-.09-.28-.21-.39-.36-.05-.07-.11-.16-.14-.23-.05-.09-.09-.18-.12-.27-.04-.09-.05-.18-.07-.27-.04-.11-.05-.2-.05-.28l.07-.02c.02,.09,.02,.2,.05,.28,.02,.09,.04,.18,.07,.27,.04,.09,.07,.16,.11,.25,.05,.07,.09,.16,.14,.23,.11,.12,.23,.25,.36,.34,.12,.07,.25,.12,.36,.14-.02-.21-.04-.45-.05-.68-.16-2.31-.2-4.13-.12-5.89,0-.09,0-.2,.02-.28,.04-.89-.02-1.44-.52-1.8-.52-.37-1.32-.61-2.26-.68h-5.8c-.96,.07-1.76,.3-2.28,.68-.48,.36-.55,.91-.5,1.8,0,.09,.02,.2,.02,.28,.05,1.3,.05,2.62-.02,4.15,.07-.04,.16-.09,.25-.12,.11-.05,.23-.11,.34-.16v-.61c0-.18,.02-.37,.02-.55v-.5c.02-.28,.04-.55,.05-.75,0-.16,.02-.28,.02-.28,0,0,.02,.12,.04,.28,.02,.18,.04,.45,.07,.75,0,.16,.02,.32,.04,.5,0,.18,.02,.36,.02,.55,.02,.14,.02,.3,.04,.46,.16-.09,.34-.18,.5-.27,.37-.2,.71-.41,1.07-.59,.25-.11,.48-.2,.71-.25,0-.04,0-.05,.02-.07,.02-.21,.04-.45,.05-.66,0-.21,.02-.43,.04-.61,.02-.39,.05-.69,.07-.93,.04-.21,.05-.34,.05-.34,0,0,.02,.12,.05,.34,.04,.21,.09,.53,.12,.91,.02,.2,.04,.39,.05,.62,0,.2,.02,.41,.02,.62,.3-.02,.59,0,.82,.05,.27,.05,.5,.16,.68,.25,.18,.09,.3,.18,.39,.25,.04,.04,.07,.05,.09,.09-.02-.02-.05-.04-.11-.07-.09-.04-.23-.11-.41-.16-.18-.07-.41-.12-.68-.16-.23-.02-.52,0-.8,.07,0,.16,0,.32-.02,.48-.02,.25-.05,.52-.09,.77-.05,.27-.11,.52-.16,.77-.07,.23-.16,.48-.25,.71-.09,.21-.2,.43-.3,.62-.11,.2-.21,.37-.34,.53-.21,.3-.45,.53-.61,.68-.12,.11-.21,.18-.25,.2,.02-.04,.07-.12,.16-.27,.12-.18,.28-.45,.45-.78,.04-.07,.07-.16,.11-.25-.14,.11-.32,.16-.48,.16-.18,0-.32-.07-.45-.14-.12-.07-.21-.18-.27-.28-.07-.09-.09-.2-.11-.28-.02-.07,0-.14,0-.2,0,.05,0,.12,.02,.2,.02,.09,.05,.18,.11,.27,.07,.11,.16,.2,.27,.27,.12,.07,.27,.12,.43,.12,.14-.02,.3-.07,.45-.16,.04-.04,.07-.07,.11-.11,.02-.05,.04-.09,.05-.12,.09-.2,.14-.41,.21-.62,.07-.21,.12-.45,.2-.68,.05-.23,.11-.48,.14-.71,.04-.25,.07-.48,.11-.73,0-.09,.02-.18,.02-.27-.16,.07-.32,.14-.5,.25-.32,.18-.64,.41-1.01,.64-.18,.11-.36,.21-.55,.32-.05,.04-.11,.05-.16,.09v1.37c0,.2,0,.37-.02,.55,0,.18-.02,.36-.05,.5-.04,.32-.12,.57-.2,.73-.07,.16-.12,.25-.12,.25,0,0,.04-.09,.07-.27,.05-.18,.09-.43,.09-.73,.02-.14,.02-.3,0-.48v-.28c-.04,.05-.07,.11-.12,.16-.04,.04-.09,.09-.16,.12-.05,.05-.11,.07-.18,.11-.11,.05-.23,.07-.36,.11-.05,.62-.11,1.19-.2,1.73v.02c.12-.05,.25-.11,.39-.14,.2-.05,.39-.11,.62-.16,.21-.05,.45-.11,.69-.16,.23-.04,.48-.09,.75-.12,.25-.04,.52-.07,.77-.11,.27-.02,.53-.04,.78-.05,.27-.04,.52-.04,.77-.05h.71c.21,0,.43,.02,.62,.02,.41,.02,.73,.05,.96,.09,.21,.04,.36,.05,.36,.05,0,0-.14,.02-.36,.05-.23,.04-.55,.09-.94,.14-.2,.04-.41,.05-.62,.09-.23,.02-.46,.05-.69,.09-.25,.02-.5,.05-.75,.07-.25,.04-.52,.07-.77,.09-.27,.04-.52,.05-.77,.09-.25,.02-.52,.05-.75,.07-.25,.04-.48,.05-.69,.07-.23,.02-.43,.04-.64,.05-.18,.02-.34,.05-.48,.09-.07,.41-.14,.8-.23,1.18,.12-.07,.25-.12,.37-.18,.16-.05,.32-.11,.48-.16,.16-.05,.32-.07,.48-.12,.32-.07,.62-.12,.91-.16,.3-.04,.57-.05,.84-.09,.25-.02,.48-.04,.69-.04,.2-.02,.37-.02,.53-.02h.46s-.04,0-.12,.02c-.07,.02-.2,.04-.34,.07-.16,.02-.34,.05-.52,.09-.21,.04-.45,.07-.69,.12-.25,.04-.52,.09-.8,.16-.28,.05-.57,.12-.87,.21-.16,.04-.3,.07-.46,.12-.14,.05-.3,.11-.45,.18-.14,.05-.28,.12-.43,.21-.05,.04-.12,.07-.18,.12l-.07,.07c-.04,.21-.02,.3,.12,.52,.11,.16,.27,.32,.43,.46,.07,.07,.14,.16,.21,.23,.02-.05,.04-.12,.05-.18s.04-.12,.05-.16c.02-.05,.04-.12,.05-.18,.02-.07,.05-.12,.07-.2l.07-.18,.07-.2c.04-.05,.05-.12,.09-.18,.02-.05,.05-.12,.07-.18,.02-.04,.05-.09,.07-.14,.04-.04,.05-.11,.09-.14,.05,0,.09,.04,.11,.05,.02,.02,.02,.04,.02,.04t-.04-.02s-.04-.02-.07-.02c0,.04,0,.05-.02,.12-.02,.05-.04,.11-.05,.16-.02,.05-.04,.12-.05,.18-.04,.05-.05,.12-.07,.18l-.07,.2-.09,.2c-.02,.05-.05,.11-.07,.18-.02,.05-.05,.11-.09,.16-.02,.05-.04,.11-.07,.16-.04,.05-.05,.12-.09,.18,.12,.12,.21,.23,.28,.37,.12-.04,.36-.09,.68-.14,.02-.05,.04-.09,.05-.14,.02-.07,.04-.14,.05-.2,.04-.07,.05-.14,.09-.21,.02-.07,.05-.14,.07-.21l.11-.23,.09-.21c.04-.07,.07-.14,.11-.21,.02-.05,.05-.14,.09-.2,.02-.05,.05-.12,.09-.18,.05-.09,.11-.2,.14-.27,.04-.05,.05-.09,.05-.09,0,0,0,.05-.02,.11-.02,.09-.05,.2-.09,.28-.02,.07-.04,.14-.05,.2-.04,.07-.05,.14-.09,.2-.02,.09-.05,.16-.07,.23l-.11,.21-.09,.23c-.04,.07-.07,.14-.09,.21-.04,.05-.07,.12-.11,.2-.02,.05-.05,.12-.09,.18-.02,.04-.04,.05-.05,.09,.98-.2,2.74-.46,4.81-.46,.55,0,1.14,.02,1.74,.07v-.68c.02-.05,.02-.11,.02-.18,0-.04,.02-.11,.02-.16,0-.04,0-.09,.02-.14,0-.07,.02-.14,.02-.21,.02-.04,.02-.07,.02-.07,0,0,0,.04,.02,.09,0,.05,0,.14,.02,.21v.82c-.02,.05-.02,.11-.02,.16s-.02,.11-.02,.16c.52,.04,1.05,.09,1.6,.2,0-.02-.02-.04-.04-.05,0-.02-.02-.05-.04-.07-.02-.04-.04-.07-.05-.09-.02-.04-.04-.05-.04-.09l-.05-.09-.04-.09s-.04-.07-.05-.11c0-.02-.02-.05-.04-.09,0-.02-.02-.04-.02-.07-.02-.04-.04-.09-.05-.12,0-.02-.02-.05-.02-.05,0,0,.02,.02,.04,.05,.02,.04,.04,.07,.07,.11,.02,.02,.02,.05,.04,.07,.02,.04,.04,.05,.05,.09,.02,.04,.04,.05,.04,.09l.05,.09,.04,.09s.04,.07,.05,.11c0,.02,.02,.05,.04,.07,0,.04,.02,.05,.04,.09,0,.02,0,.05,.02,.07,.55,.07,1.12,.2,1.67,.34,.18-.23,.37-.43,.55-.62,.16-.14,.32-.3,.43-.46,.18-.28,.16-.36,.05-.75Zm-8.81-.16s-.09-.04-.16-.05h-.09c-.05-.02-.09,0-.12,0s-.07,.02-.11,.02c-.04,.02-.07,.04-.11,.05-.04,.02-.07,.05-.11,.07-.04,.04-.05,.07-.07,.09-.04,.04-.05,.07-.07,.11-.02,.04-.04,.05-.04,.09-.04,.07-.04,.12-.05,.16v.05s0-.02-.02-.05c0-.04,0-.11,.02-.18,0-.04,.02-.07,.02-.11,.02-.04,.04-.07,.07-.11,.02-.05,.05-.09,.09-.12,.02-.02,.07-.05,.11-.09,.04-.02,.09-.04,.12-.05,.05,0,.09-.02,.14-.02h.12s.07,.02,.11,.04c.07,.02,.11,.05,.14,.09,.04,.02,.05,.04,.05,.04,0,0-.04-.02-.05-.02Zm.52,.85v.04s-.02-.02-.02-.04-.02-.05-.02-.07v-.07s-.02-.04-.02-.05v-.07l-.02-.05v-.14s0-.04-.02-.07v-.12s.02-.04,.02-.04v.04s.02,.05,.02,.07v.05s.02,.05,.02,.07v.05l.02,.07v.14s.02,.04,.02,.05v.14Zm2.05-.27c-.02,.05-.02,.11-.02,.16-.02,.04-.02,.09-.04,.14-.02,.09-.04,.16-.05,.21-.02,.04-.04,.07-.04,.07v-.09c.02-.05,.02-.14,.02-.21v-.64l-.02-.16c-.02-.05-.02-.11-.04-.18,0-.04-.02-.09-.02-.14-.02-.04-.02-.09-.04-.14-.02-.09-.02-.18-.05-.18v-.02c.07,0,.09,.11,.12,.18,.02,.04,.04,.09,.05,.12,.02,.05,.04,.11,.04,.16,.02,.05,.04,.11,.04,.18l.04,.18v.36Zm1.18-3.93c-.23-.16-.43-.41-.59-.69-.07-.11-.11-.23-.16-.37,0,.04,0,.07,.02,.11,.05,.32,.12,.59,.2,.78,.05,.16,.09,.28,.09,.28,0,0-.07-.09-.18-.25-.11-.16-.25-.41-.37-.75-.05-.16-.11-.34-.16-.53-.04-.2-.07-.39-.09-.61-.04-.23-.04-.45-.04-.68s.04-.46,.05-.69c.04-.23,.07-.45,.12-.68,.05-.21,.11-.43,.18-.62,.07-.21,.14-.41,.21-.59,.07-.18,.14-.34,.21-.5,.14-.3,.28-.55,.37-.73,.09-.16,.16-.27,.16-.27,0,0-.04,.12-.07,.3-.05,.21-.12,.5-.21,.8-.04,.16-.09,.34-.12,.52-.05,.18-.11,.37-.14,.57-.05,.21-.09,.41-.14,.62-.04,.21-.07,.43-.11,.64-.02,.21-.05,.43-.05,.64v.04l.12,.04c-.04,.16-.07,.32-.09,.48,0,.16,0,.32,.02,.48,.02,.16,.05,.32,.09,.48,.05,.14,.11,.28,.18,.43,.16,.27,.34,.5,.55,.66,.23,.18,.48,.23,.71,.16,.23-.05,.43-.16,.57-.3,.16-.12,.27-.27,.36-.39,.04-.05,.07-.11,.11-.16,.02-.04,.05-.09,.07-.12l.04-.04s-.02,.04-.02,.05c-.04,.04-.05,.07-.09,.11-.02,.05-.05,.11-.09,.18-.09,.12-.18,.27-.34,.41-.14,.14-.34,.28-.59,.36-.23,.07-.53,.02-.78-.16Zm3.51,4.82c-.05,0-.12-.02-.21-.05-.04-.02-.07-.05-.12-.09-.04-.02-.07-.07-.11-.11-.04-.05-.07-.11-.11-.16-.02-.05-.04-.12-.05-.18,0-.05-.02-.11-.04-.16-.02-.04-.05-.09-.09-.11-.04-.04-.07-.05-.11-.07-.05-.02-.09-.02-.12-.02-.09,0-.14,.02-.2,.04v-.02s.09-.07,.2-.09c.04-.02,.09-.02,.14,0,.05,0,.11,.04,.16,.07,.05,.04,.11,.09,.12,.14,.04,.07,.04,.12,.05,.18,.02,.07,.04,.11,.05,.16,.02,.05,.04,.11,.07,.14,.02,.04,.05,.09,.09,.11,.04,.04,.07,.07,.09,.09,.07,.05,.14,.09,.18,.11,.05,.02,.07,.04,.07,.04,0,0-.02,0-.07-.02Zm1.14-1.5c-.12-.09-.3-.2-.5-.3-.11-.07-.21-.14-.32-.21-.12-.07-.25-.14-.37-.21l-.41-.23c-.12-.07-.27-.14-.41-.21-.14-.07-.28-.16-.43-.21l-.41-.2c-.14-.07-.27-.12-.39-.18-.12-.05-.25-.11-.36-.16-.2-.09-.39-.16-.53-.23-.12-.05-.21-.09-.21-.09,0,0,.09,.02,.23,.02,.14,.02,.34,.05,.57,.11,.12,.02,.25,.05,.39,.09,.12,.05,.27,.09,.41,.14,.14,.05,.28,.11,.45,.18,.14,.05,.28,.14,.43,.21,.16,.07,.3,.14,.43,.23,.07,.04,.12,.07,.18,.11,0-.02-.05-.12-.11-.3-.07-.2-.16-.46-.23-.82-.05-.18-.11-.36-.14-.55-.04-.21-.09-.41-.12-.64-.04-.21-.07-.45-.11-.68-.02-.23-.05-.46-.07-.69-.02-.25-.04-.48-.05-.71,0-.11,0-.2-.02-.28-.05-.02-.12-.02-.2-.04-.27-.04-.55-.09-.8-.14-.25-.05-.5-.11-.71-.16-.21-.07-.43-.12-.61-.18-.16-.07-.32-.11-.45-.16-.12-.05-.21-.09-.28-.11-.07-.04-.11-.05-.11-.05,0,0,.04,.02,.11,.02,.07,.02,.18,.04,.3,.05,.14,.04,.3,.05,.46,.09,.2,.04,.41,.07,.61,.09,.25,.04,.48,.07,.73,.11,.27,.04,.53,.05,.8,.09h.14v-.02c-.02-.21,0-.43,0-.64,0-.2,.02-.39,.02-.57,.04-.36,.05-.66,.09-.85,.04-.2,.05-.34,.05-.34,0,0,.02,.14,.04,.34,.02,.21,.04,.52,.07,.85,.02,.18,.04,.37,.05,.57s.04,.41,.05,.62v.07c.11,.02,.21,.02,.34,.02,.14,.02,.28,.02,.43,.04h.45v.43l-.45-.02c-.16-.02-.3-.04-.46-.04-.09-.02-.18-.02-.27-.04,0,.07,.02,.14,.02,.21,.02,.23,.04,.46,.07,.69,.02,.23,.04,.46,.05,.69,.04,.23,.05,.46,.07,.68,.02,.21,.05,.43,.07,.64,.02,.2,.04,.37,.05,.57,.04,.32,.05,.62,.09,.84,0,.2,.02,.32,.02,.32,.07,.05,.16,.11,.23,.16,.12,.09,.25,.18,.36,.27,.11,.09,.21,.16,.3,.25,.18,.16,.32,.32,.43,.43,.07,.09,.14,.16,.14,.16,0,0-.09-.04-.2-.11Z"/><path class="cls-5" d="M11.38,9.49v.14s0,.05-.02,.07c-.04,.07-.07,.12-.12,.16-.04,.05-.09,.11-.14,.14-.05,.04-.11,.07-.18,.09-.11,.05-.23,.09-.34,.11,.02-.16,.02-.32,.04-.48,.04-.41,.05-.78,.09-1.16,.18-.07,.34-.14,.5-.23,.05-.02,.09-.04,.14-.07v.04c0,.2,0,.39,.02,.61,0,.2,.02,.39,.02,.59Z"/></g></g></g></svg>