<svg xmlns="http://www.w3.org/2000/svg" width="40" height="40" viewBox="0 0 40 40">
  <path id="replay_circle_filled_FILL0_wght400_GRAD0_opsz48" d="M24,37.1A12.036,12.036,0,0,0,36.1,25a11.59,11.59,0,0,0-3.575-8.575A11.9,11.9,0,0,0,23.85,12.9l3.1-3.1L24,6.85,15.85,15,24,23.15l2.95-2.95L23.9,17.1a8.261,8.261,0,0,1,5.65,2.35A7.379,7.379,0,0,1,31.9,25,7.853,7.853,0,0,1,24,32.9a7.54,7.54,0,0,1-5.6-2.35,7.788,7.788,0,0,1-2.3-5.65H11.9a11.838,11.838,0,0,0,3.525,8.625A11.59,11.59,0,0,0,24,37.1ZM24,44a19.475,19.475,0,0,1-7.8-1.575A19.969,19.969,0,0,1,5.575,31.8,19.475,19.475,0,0,1,4,24a19.475,19.475,0,0,1,1.575-7.8A19.969,19.969,0,0,1,16.2,5.575,19.475,19.475,0,0,1,24,4a19.475,19.475,0,0,1,7.8,1.575A19.969,19.969,0,0,1,42.425,16.2,19.475,19.475,0,0,1,44,24a19.475,19.475,0,0,1-1.575,7.8A19.969,19.969,0,0,1,31.8,42.425,19.475,19.475,0,0,1,24,44Z" transform="translate(-4 -4)" fill="#027372"/>
</svg>
