<?xml version="1.0" encoding="UTF-8"?><svg id="Layer_2" xmlns="http://www.w3.org/2000/svg" viewBox="0 0 29.02 35.29"><defs><style>.cls-1{fill:#f3e2e0;}.cls-2{fill:#e7c4c3;}.cls-3{fill:#e4bbba;}.cls-4{fill:#e6bfbe;}.cls-5{fill:#edd4d2;}.cls-6{fill:#f0dcda;}.cls-7{fill:#c40d3c;}.cls-8{fill:#dca2a3;}.cls-9{fill:#da9c9d;}.cls-10{fill:#dfacac;}.cls-11,.cls-12,.cls-13,.cls-14,.cls-15{opacity:.8;}.cls-12{fill:#dba0a1;}.cls-13{fill:#ce7a7f;}.cls-14{fill:#ba3052;}.cls-15{fill:#eacbc9;}</style></defs><g id="Amaretto_Sour"><g><g class="cls-11"><g class="cls-11"><path class="cls-9" d="M16.48,26.24c.02,.39,.14,.15,.26,.01-.02,0-.04-.02-.06-.03-.07,0-.14,.01-.2,.02Z"/><path class="cls-9" d="M16.68,26.22s.04,.02,.06,.03c.02-.02,.03-.03,.04-.04h-.1Z"/><path class="cls-9" d="M16.48,26.04c0,.08,0,.15,0,.2,.07,0,.13-.01,.2-.02-.07-.04-.14-.1-.21-.18Z"/><path class="cls-9" d="M16.78,26.21s.07,0,.11-.01c-.03-.03-.07-.02-.11,.01Z"/><path class="cls-1" d="M19.54,23.12c-.85-.12-1.7-.24-2.54-.33,.23,.21,.46,.42,.66,.56,.61,.45,1.25,.05,1.88-.23Z"/><path class="cls-6" d="M15.74,22.69l-.85-.07c.27,.1,.56,.15,.85,.07Z"/><path class="cls-1" d="M19.5,23.23c-.63,.28-1.27,.68-1.88,.23-.2-.14-.43-.35-.66-.56-.68-.07-1.35-.14-2-.21-.29,.08-.57,.03-.85-.07-2.64-.22-5.29-.31-8.11-.32-.17,0-1.04,.18-1.21,.48l-.29,.23v.14c.25,.01,.5,.07,.78-.01,.17,0,.33-.15,.5-.15,.75,0,1.41,.16,2.24-.15,.25-.15,.65,.46,.91,.31,1-.15,1.82,.46,2.73,.31,.75-.15,1.25-.45,1.99-.3,.17,0,.42-.15,.58-.15,1.07,.15,2.15,.31,3.23,.62,.25,0,.49,.61,.74,.46,.33-.3,.67-.46,1-.61,.08,0,.16,.46,.33,.46,.64,.12,1.23-.3,1.81-.29-.03-.05-.07-.09-.1-.13-.59-.09-1.17-.18-1.74-.27Z"/><g><path class="cls-1" d="M23.04,23.67c-.09,.07-.18,.14-.27,.18,.54,.31,1.18,.36,1.78,.09-.52-.1-1.02-.19-1.51-.28Z"/><path class="cls-1" d="M22.12,23.62l.02,.03c-.31-.05-.61-.1-.9-.15,.03,.04,.06,.08,.1,.13,.17,0,.34,.04,.51,.15,.05,.03,.09,.06,.14,.08,.06-.03,.13-.08,.2-.13l.03,.05c.14,.21,.33,.2,.55,.09-.04-.03-.09-.05-.14-.08-.17-.11-.34-.14-.51-.15Z"/></g><path class="cls-4" d="M21.87,27.73c-.58-.46-.92,.3-1.5,0-.42-.19-.83-.17-1.24-.1,.93,.2,1.82,.38,2.73,.37-.01-.07-.01-.16,.01-.27Z"/><path class="cls-3" d="M24.26,25.8c-.17,.23-.38,.34-.68,.25-.5-.15-.91-.61-1.33-.61-1.16-.15-2.5,1.06-3.65,0-1.07-.92-2.32-.31-3.57-.31-.25,0-.58,.3-.83,.3-.83,0-1.58,0-2.33,0-.58,0-.65-.76-1.32-.61-.08,0-.24-.31-.33-.31-1.91,.14-3.9,0-5.81-.28-.03,.33-.03,.66-.02,.96,1.32-.08,2.67,.4,3.9,.54,1.66,.31,3.32,0,4.98,.31,.78,.13,1.62,.26,2.41,.2,0-.05,0-.12,0-.2,.07,.08,.14,.14,.21,.18h.1s.07-.06,.11-.03c-.04,0-.07,0-.11,.01-.01,.01-.03,.03-.04,.04,.61,.3,1.29-.47,1.65-.21,1.24,.92,2.83-.15,3.9,.31,1.1,.32,2.04,.27,2.84-.4-.03-.05-.06-.1-.09-.15Z"/><path class="cls-2" d="M24.19,24.38c-.04-.09-.07-.17-.09-.24-.75,.82-1.8,.79-2.76,.69-.08,0-.25-.31-.41-.46-.41-.15-.67,.61-1,.45-2.9-1.22-5.8-.32-8.71-.17-.17,0,.01-.76-.24-.91-.66-.15-1.24,0-1.82-.46-.08-.15-.34,.3-.59,.46-.92,.45-1.74-.31-2.65,0-.5,.22-.98,.03-1.48,.16l-.03,.32c1.91,.28,3.89,.42,5.81,.28,.08,0,.24,.31,.33,.31,.51-.12,.59,.61,1.32,.61,.76,0,1.48,0,2.33,0,.25,0,.58-.3,.83-.3,1.25,0,2.49-.6,3.57,.31,1.16,1.07,2.49-.15,3.65,0,.42,0,.83,.46,1.33,.61,.3,.08,.51-.03,.68-.25-.18-.38-.26-.9-.26-1.42,.05,0,.12,0,.19,0Z"/><path class="cls-5" d="M24.62,25.52c-.23-1.45-.59-1.93-.27-1.04-.07,0-.14,0-.19,0,0,.52,.08,1.04,.26,1.42,.08-.1,.14-.23,.2-.38Z"/><path class="cls-5" d="M24.04,24l-.28-.05c-.6,.26-1.24,.21-1.78-.09-.22,.12-.41,.12-.55-.09-.04-.05-.07-.1-.1-.15-.58,0-1.17,.41-1.81,.29-.17,0-.25-.46-.33-.46-.33,.15-.66,.3-1,.61-.25,.15-.49-.46-.74-.46-1.08-.31-2.15-.46-3.23-.62-.17,0-.42,.15-.58,.15-.74-.15-1.24,.15-1.99,.3-.91,.15-1.73-.46-2.73-.31-.25,.15-.65-.46-.91-.31-.83,.3-1.49,.15-2.24,.15-.17,0-.33,.15-.5,.15-.28,.08-.53,.03-.79,.01v.52s-.04,.24-.04,.24c.49-.13,.98,.06,1.48-.16,.92-.3,1.73,.46,2.65,0,.25-.15,.51-.61,.59-.46,.57,.46,1.16,.31,1.82,.46,.25,.15,.07,.91,.24,.91,2.91-.15,5.82-1.05,8.71,.17,.33,.15,.58-.61,1-.45,.17,.15,.33,.46,.41,.46,.95,.1,2.01,.13,2.76-.69-.04-.09-.06-.15-.06-.15Z"/><path class="cls-4" d="M13.72,26.96c.36,0,.74,.03,1.13,.06,.02,0,.08,0,.16,.01-.43-.07-.87-.16-1.29-.08Z"/><path class="cls-4" d="M15.64,27.1c.42,.04,.89,.09,1.14,.12-.27-.25-.56-.42-.89-.42,0,0-.16,.29-.25,.3Z"/><g><path class="cls-8" d="M22.49,27.95c.6-.08,1.21-.26,1.84-.6-.63-.08-1.24,.2-1.84,.6Z"/><path class="cls-10" d="M24.34,25.95c-.8,.67-1.74,.72-2.84,.4-1.08-.46-2.66,.6-3.9-.31-.36-.27-1.04,.51-1.65,.21-.12,.14-.24,.38-.26-.01-.8,.06-1.64-.07-2.41-.2-1.66-.31-3.32,0-4.98-.31-1.23-.14-2.58-.62-3.9-.54,.04,.87,.24,1.52,.68,1.52,1.7,.47,3.15,.46,4.61,.38,.55-.19,1.09-.28,1.62-.2-.27,.04-.55,.11-.83,.2,.66-.04,1.33-.07,2.01-.11-.02,0-.04-.01-.06-.02,.16,0,.33,0,.5,0,.42-.09,.86,0,1.29,.08,.15,.02,.38,.04,.63,.06,.08,0,.87-.13,1.14,.12,.09,0,.15,.01,.17,.01,.76,.08,1.48,.24,2.18,.39,.41-.07,.82-.1,1.24,.1,.58,.31,1.47,.2,1.48,.27,.21,0,.42-.02,.63-.04,.6-.4,1.21-.68,1.84-.6,.16-.09,.33-.19,.49-.3,.3-.2,.43-.53,.46-.91-.06-.05-.11-.12-.15-.19Z"/></g></g></g><g class="cls-11"><g class="cls-11"><path class="cls-14" d="M5.6,12.83c.73-.71,1.38-1.55,2.28-1.95,.13-.06,.29,0,.45,.06,.25,.15,.45,.51,.65,.62,1.65,.56,3.13,.79,4.62,.5,2.36-.28,4.48,.6,6.81,.56,1.32,.04,2.66-.27,4.02-.31,.41,.04,.79,.12,1.14,.45,.13,.21,.25,.81-.01,1.12-.27,.31-.58,.59-.85,.76-1.25,.74-2.31,1.63-3.46,2.38-.59,.39-1.06,.26-1.52,0-.45-.25-.9-.61-1.4-.72-.99-.18-1.85,.37-2.78,.51-.24-.04-.49-.36-.62-.76-.28-.7-.18-1.2-.65-1.2-.61,.07-1.09,.65-1.7,.72-1.03,.02-2.02-.22-2.94,.46-.72,.58-1.31,1.19-2.19,.79-.7-.29-1.46-1.18-2.28-1.65-.57-.31-1.04-.08-1.58,.01-.11,.02-.3-.12-.49-.18,.06-1.11,.8-1.81,1.6-1.91,.11,0,.22,.13,.33,.2,.27,.03,.4-.25,.58-.43Z"/><path class="cls-13" d="M5.58,13.3c.71-.72,1.34-1.56,2.22-1.96,.13-.06,.28,0,.44,.05,.25,.15,.45,.51,.65,.62,1.63,.56,3.09,.78,4.56,.49,2.33-.28,4.38,.47,6.7,.42,1.31,.04,2.65-.28,4-.33,.41,.04,.78,.12,1.13,.45,.13,.21,.53,.57,.26,.88-.26,.31-.58,.59-.85,.76-1.24,.74-2.31,1.63-3.46,2.38-.59,.39-1.06,.26-1.52,0-.45-.25-.9-.61-1.4-.72-.99-.18-1.85,.37-2.78,.51-.24-.04-.49-.36-.62-.77-.28-.7-.18-1.2-.64-1.2-.61,.07-1.09,.65-1.7,.72-1.03,.02-2.02-.22-2.94,.46-.72,.58-1.31,1.18-2.18,.79-.7-.29-1.45-1.19-2.28-1.65-.57-.31-1.03-.09-1.57,0-.11,.02-.3-.12-.49-.18,.07-1.1,.81-1.38,1.58-1.48,.11,0,.22,.13,.32,.2,.27,.03,.39-.25,.57-.43Z"/><path class="cls-12" d="M5.62,14.17c.66-.71,1.25-1.56,2.1-1.95,.12-.06,.28,0,.43,.05,.25,.14,.45,.49,.64,.61,1.6,.57,2.9,1.15,4.3,.87,2.23-.29,4.1,.09,6.37,.05,.65-.03,1.29-.07,1.95-.17,.65-.08,1.32-.21,1.98-.24,.4,.04,1.03-.12,1.38,.21,.13,.21,.79,.33,.53,.64-.26,.31-.57,.59-.85,.76-1.23,.73-2.29,1.64-3.43,2.39-.59,.39-1.05,.25-1.5,0-.45-.23-.89-.6-1.39-.72-.98-.17-1.83,.38-2.75,.52-.24-.03-.48-.35-.62-.76-.28-.7-.13-1.13-.58-1.13-.6,.07-1.07,.66-1.67,.73-1.01,.03-1.98-.22-2.88,.46-.7,.58-1.26,1.18-2.12,.78-.68-.29-1.43-1.18-2.24-1.65-.56-.31-1.01-.09-1.53,0-.11,.02-.28-.13-.49-.18,.06-1.11,.78-.93,1.51-1.04,.11,0,.21,.13,.32,.2,.26,.02,.36-.26,.53-.43Z"/><path class="cls-15" d="M6.13,15.56c.46-.53,.36-1.51,1.33-2.03,.11-.06,.26,0,.41,.06,.24,.14,.44,.49,.63,.59,1.55,.56,2.79,1.1,4.13,.81,2.14-.35,3.41,.28,5.59,.15,.63-.02,1.19-.06,1.76-.11,.57-.03,1.14-.08,1.79-.15,.39,0,1.51-.65,1.86-.32,.12,.2,1.58-.39,1.32-.08-.26,.31-.4,.49-.67,.66-1.23,.73-2.14,1.51-3.28,2.26-.59,.39-1.06,.25-1.53,0-.46-.24-.92-.6-1.41-.72-.98-.17-1.83,.38-2.74,.53-.24-.03-.48-.35-.62-.76-.28-.7-.19-.23-.63-.24-.58,.07-1.01-.19-1.61-.13-1.01,.03-1.98-.21-2.87,.46-.69,.58-1.26,1.19-2.12,.79-.68-.29-1.43-1.18-2.24-1.65-.56-.3-1.01-.09-1.52,0-.11,.02-.28-.13-.5-.17,.08-1.13,.82-.51,1.53-.63,.11,0,.38,.39,.48,.46-.6-.08,.93,.19,.92,.22Z"/></g></g><path class="cls-7" d="M28.88,1.94c-.09-.12-.17-.21-.26-.27-.38-.29-.75-.43-1.11-.57-.38-.14-.75-.24-1.11-.33-.74-.19-1.44-.29-2.12-.38C21.55,.07,19.27,.02,17.68,0c-1.59-.02-2.5,.02-2.5,.02,0,0,.91,.03,2.48,.15,1.59,.12,3.87,.27,6.54,.7,.5,.09,.99,.17,1.51,.29-.07,0-.14,0-.21-.02-.1,0-.22-.02-.34-.02-2.04-.24-4.23-.46-6.49-.62-5.02-.33-9.08-.17-12.02,.1,1.88-.24,3.51-.36,4.71-.45C12.95,.06,13.86,.02,13.86,.02c0,0-.91-.03-2.5-.02s-3.87,.07-6.61,.39c-.69,.09-1.39,.19-2.12,.38-.36,.09-.72,.19-1.1,.33-.38,.14-.75,.27-1.11,.57-.09,.07-.19,.15-.27,.27-.07,.12-.15,.29-.14,.48,0,.17,.09,.34,.17,.45,.09,.12,.17,.21,.27,.27l.05,.03s.02,.02,.02,.03l-.02,.02,.02,.15v.62c0,.82,0,1.66,.02,2.52,.02,1.71,.03,3.46,.05,5.26,.03,1.8,.05,3.61,.09,5.43s.07,3.63,.1,5.43c.05,1.78,.09,3.55,.14,5.26,.03,1.56,.09,3.08,.12,4.52,0,0,.65,1.68,7.01,2.48,.09,0,.17,.02,.26,.03,.67,.09,1.34,.15,2,.22,1.06,.07,2.11,.1,3.17,.12h.39c5.93,.14,9.45-.58,11.51-1.34,.31-.1,.57-.22,.8-.33,.31-.12,.62-.27,.91-.46,.26-.15,.45-.31,.58-.41t.03-.03s.07-.05,.14-.12c.1-.1,.15-.17,.15-.17,.05-1.44,.09-2.96,.14-4.52,.03-1.71,.09-3.48,.12-5.26,.03-1.8,.09-3.61,.12-5.43,.02-1.82,.05-3.63,.09-5.43,.02-1.8,.03-3.55,.05-5.26,0-.86,.02-1.7,.02-2.52v-.79s0-.02,.02-.03l.05-.03c.22-.19,.41-.41,.43-.72,.02-.19-.05-.36-.14-.48Zm-3.05-.75c.14,.03,.27,.09,.43,.12-.17-.03-.34-.09-.51-.12h.09ZM.67,2.42c-.03-.12,.07-.21,.14-.27,.17-.14,.38-.26,.6-.36,1.32-.29,7.4-1.49,17.25-.86,2.24,.15,4.44,.38,6.47,.62,.1,0,.22,.02,.34,.02,.58,.05,1.18,.1,1.59,.5,.15,.15,.24,.29,.22,.38-.05,.21-.55,.39-.72,.45-.15,.07-.33,.12-.51,.17-.24,.03-.46,.07-.68,.09-1.32,.19-2.64,.33-3.94,.45-1.22,.12-2.41,.21-3.63,.27-1.1,.05-2.19,.12-3.29,.1-1.08-.02-2.18-.05-3.27-.1-1.2-.07-2.42-.15-3.61-.26-1.32-.14-2.62-.27-3.94-.45-.45-.07-.91-.14-1.35-.19-.24-.05-.48-.09-.7-.1-.31-.05-.86-.09-.96-.45Zm23.23,31.26c-7.64,1.76-15.42,.6-18.74-.05-.17-.87-.09-3.1,0-4.49,3.05,.79,9.06,.87,9.35,.87,.27,0,6.29,.05,9.18-.89,.33,1.2,.7,3.24,.21,4.56Zm-11.03-5.65c-3.53-.26-5.84-1.11-5.84-1.88,0-.92,3.25-1.95,7.93-1.95s7.93,1.03,7.93,1.95-3.07,1.88-7.5,1.95h-.43c-.74,0-1.42-.02-2.07-.07h-.02ZM27.82,4c-.02,.82-.03,1.66-.07,2.5-.03,1.71-.09,3.48-.12,5.26-.03,1.8-.09,3.61-.12,5.43v.72c-.19,1.99-.51,3.7-1.03,5.26-.02,.07-.03,.12-.05,.19-.36-.17-.68-.36-1.04-.51-.38-.15-.75-.33-1.13-.46-.38-.12-.75-.27-1.15-.36-.38-.1-.75-.22-1.13-.29-.74-.17-1.47-.31-2.18-.39-.69-.09-1.35-.15-1.97-.19-.6-.03-1.16-.05-1.66-.05s-.92,.02-1.28,.02c-.36,.02-.63,.05-.82,.05-.19,.03-.29,.03-.29,.03h.29c.19-.02,.48-.02,.82-.02,.36,.02,.79,.02,1.28,.05,.5,.02,1.05,.05,1.66,.1,.6,.05,1.25,.14,1.94,.24,.7,.1,1.42,.24,2.16,.43,.36,.07,.74,.21,1.1,.29,.38,.1,.75,.26,1.13,.38,.38,.14,.74,.31,1.1,.46,.36,.15,.72,.36,1.06,.53-.33,.99-.75,1.95-1.47,2.72-.99,1.04-2.57,1.37-4.18,1.52,1.58-.41,2.64-.99,2.64-1.76,0-1.54-4.3-2.38-8.34-2.38s-8.34,.84-8.34,2.38c0,.7,.91,1.27,2.28,1.66h-.1c-1.52-.1-2.74-.17-3.99-1.13-.77-.62-1.44-1.49-1.97-2.6-.02-.03-.03-.07-.05-.1,.09-.12,.22-.27,.36-.39,.15-.14,.33-.29,.51-.41,.36-.24,.77-.46,1.16-.63,.21-.12,.41-.19,.62-.27,.21-.07,.41-.15,.63-.22,.21-.07,.41-.14,.63-.21,.21-.05,.41-.1,.62-.15,.43-.12,.84-.21,1.25-.29,.21-.03,.41-.09,.6-.12,.21-.03,.41-.07,.6-.09,.79-.14,1.54-.22,2.23-.31,.7-.09,1.34-.1,1.9-.15,.57-.05,1.06-.07,1.46-.09,.41-.02,.74-.03,.96-.05,.21-.02,.33-.02,.33-.02,0,0-.12,0-.33-.02-.22,0-.55,0-.96-.02-.39,0-.89-.03-1.47,0-.57,.02-1.2,0-1.9,.07-.7,.03-1.46,.09-2.26,.21-.21,.02-.39,.05-.6,.07-.21,.05-.41,.09-.63,.12-.41,.07-.84,.14-1.27,.26-.21,.05-.43,.1-.65,.15-.21,.07-.43,.14-.63,.21-.22,.05-.45,.14-.67,.22-.21,.09-.43,.15-.63,.26-.43,.19-.86,.41-1.25,.69-.31,.21-.58,.41-.82,.69-.5-1.18-.82-2.42-.99-3.61-.02-.89-.03-1.76-.05-2.65-.03-1.82-.07-3.63-.1-5.43-.05-1.78-.09-3.55-.14-5.26-.02-.84-.03-1.68-.07-2.5v-.31c1.34,.31,5.53,1.11,12.14,1.11h2.35c6.61,0,10.79-.8,12.14-1.11,0,.1-.02,.21-.02,.31Zm.45-1.46c-.19,.21-.48,.26-.75,.29,.1-.09,.15-.19,.19-.31,.05-.24-.07-.5-.34-.77-.05-.03-.12-.09-.17-.14-.07-.02-.14-.05-.21-.09,.05,.02,.1,.03,.15,.05,.02,.02,.03,.03,.05,.03,.03,.02,.07,.03,.1,.03,.34,.14,.69,.31,.93,.5,.14,.12,.19,.26,.05,.39Z"/></g></g></svg>