<?xml version="1.0" encoding="UTF-8"?><svg id="Layer_2" xmlns="http://www.w3.org/2000/svg" viewBox="0 0 39.85 117.28"><defs><style>.cls-1{fill:none;}.cls-2{font-size:11px;font-weight:700;}.cls-2,.cls-3,.cls-4{fill:#fff;}.cls-3{font-size:5px;}.cls-5{fill:#691c32;}.cls-6{fill:#f32735;}.cls-7{fill:#fd0;}.cls-8{fill:#ed1c24;}.cls-9{fill:#ff5c35;}.cls-10{fill:#6d3628;}.cls-11{fill:#c40d3c;}.cls-12{fill:#ab0a3d;}.cls-13{fill:#ab0033;}.cls-14{fill:#231f20;}.cls-15{fill:#410099;}.cls-16{letter-spacing:-.03em;}.cls-17{letter-spacing:-.07em;}</style></defs><g id="Alabama_Slammer"><g><path class="cls-12" d="M38.88,103.48c0,.48-.01,.91-.02,1.25l-.02,.83-.02,1.54v.3c0,.28-.02,.55-.02,.81-.04,.72-.05,1.38-.07,1.87-.02,.16-.04,.28-.04,.4-.02,.11-.02,.21-.04,.32v.02c-.04,.3-.07,.6-.12,.88,0,.04-.02,.05-.02,.09-.02,.08-.04,.17-.07,.26-.1,.38-.25,.8-.46,1.23-.28,.6-.71,1.22-1.29,1.75,.57-.76,.92-1.61,1.11-2.42,.06-.24,.11-.48,.15-.71-.37-.12-.78-.24-.82-.25-3.42-.96-7.01-1.37-10.55-1.65-2.17-.17-4.36-.26-6.54-.27-4.36-.02-8.73,.3-13.02,1-.18,.03-2.54,.49-4.19,.89,.47,1.87,1.33,4.08,2.43,4.62,0,0-.09,0-.27-.05h-.02c-2.23-.9-3.18-2.66-3.57-4.05-.01-.03-.02-.07-.03-.1-.03-.11-.06-.22-.08-.32-.04-.28-.09-.58-.12-.88v-.02c0-.11-.02-.21-.02-.32-.04-.55-.07-1.34-.1-2.28v-.05c-.02-.28-.02-.58-.04-.9v-.16l-.04-1.61v-.34c-.01-.66-.03-1.33-.03-1.96v-.02h.16s.02,.02,.02,.02h.22c.37,.05,.73,.1,1.13,.15,.02,0,.04,0,.06,0h.12s.09,.02,.14,.02c.26,.03,.53,.05,.81,.08,.19,.02,.39,.04,.59,.06,.02,0,.03,0,.05,0h.05c.77,.07,1.56,.13,2.4,.16,2.99,.16,6.63,.25,10.8,.25,2.9,0,5.8-.04,8.49-.09h.04c2.89-.06,5.53-.14,7.68-.21l5.16-.14Z"/><path class="cls-5" d="M37.96,111.9c-.04,.24-.09,.47-.15,.71-.19,.81-.55,1.66-1.11,2.42-.34,.32-.74,.62-1.22,.85-.78,.42-1.73,.72-2.93,.83-.21,0-1.24,.03-2.64,.06-.26,0-.54,.01-.83,.02-.36,0-.72,.02-1.11,.02h-.02c-.06,0-.12,0-.17,0-2.5,.04-5.34,.1-6.9,.12h-1.91c-1.34-.02-3.71-.05-5.97-.11-.25,0-.51-.02-.76-.02-2.46-.05-4.62-.1-4.93-.1-.62-.05-1.17-.16-1.66-.32-.23-.05-.44-.13-.64-.21,.18,.05,.27,.05,.27,.05-1.1-.54-1.96-2.75-2.43-4.62,1.65-.39,4.01-.86,4.19-.89,4.3-.7,8.66-1.02,13.02-1,2.18,.01,4.37,.1,6.54,.27,3.53,.28,7.12,.69,10.55,1.65,.04,.01,.45,.13,.82,.25Z"/><path class="cls-10" d="M13,116.84c2.26,.05,4.63,.09,5.97,.11h-.45c-1.32-.02-3.65-.05-5.88-.11-.24,0-.51-.02-.75-.02-2.42-.05-4.54-.1-4.85-.1-.61-.05-1.15-.16-1.64-.32-.23-.05-.44-.13-.62-.21h-.02c-.15-.06-.29-.13-.42-.19h0c-1.49-.74-2.32-1.91-2.79-3,0-.02-.01-.03-.02-.05-.12-.28-.21-.55-.28-.81,0-.01,0-.03,.03-.04,.02-.02,.06-.04,.11-.06,.25-.1,.79-.25,1.45-.41,.47,1.87,1.33,4.08,2.43,4.62,0,0-.09,0-.27-.05,.19,.09,.41,.16,.64,.21,.49,.16,1.04,.26,1.66,.32,.32,0,2.48,.05,4.93,.1,.25,0,.51,.02,.76,.02Z"/><path class="cls-12" d="M25.85,11.09c-.06,0-.09,0-.09,0,0,0,.03,0,.08,.01,.05,0,.14,.01,.24,.02,.1,0,.23,0,.38-.03,.05-.01,.1-.03,.15-.05,0,0,0,.6,.02,1.34v.25h-.01c-5.1-.34-11.2-.1-13.16,0v-.03h-.25c0-.06,0-.14,0-.2,.01-.74,.02-1.34,.02-1.34,.05,.02,.1,.03,.15,.05,.15,.03,.28,.03,.38,.03,.1,0,.19-.01,.24-.02,.05,0,.08-.01,.08-.01,0,0-.03,0-.09,0-.05,0-.13,0-.23-.02-.1-.01-.22-.04-.35-.09-.13-.04-.27-.12-.39-.22-.12-.1-.2-.25-.18-.4,.01-.16,.13-.31,.29-.42,.08-.06,.17-.1,.27-.14,.1-.04,.2-.08,.3-.1,.1-.03,.21-.05,.32-.07l.2-.03h.14s0-.15,0-.15v-.13h-.16s.08-.01,.08-.01c0,0-.03,0-.08,0-.05,0-.13,0-.23-.02-.1,0-.22-.02-.35-.05-.03,0-.06-.01-.09-.02,1.2-.03,5.92-.15,12.75,0-.02,0-.05,.01-.08,.02-.13,.02-.26,.04-.35,.05-.1,0-.18,.01-.23,.02-.05,0-.08,0-.08,0,0,0,.03,0,.08,.01h-.16v.27s.14,.01,.14,.01l.2,.03c.11,.01,.22,.04,.32,.07,.11,.02,.21,.06,.3,.1,.1,.04,.19,.08,.27,.14,.15,.11,.27,.27,.29,.42,.02,.15-.06,.3-.18,.4-.12,.1-.26,.18-.39,.22-.13,.05-.25,.07-.35,.09-.1,.01-.18,.02-.23,.02Z"/><path class="cls-5" d="M24.14,9.84c-2.61-.66-6.08-.78-8.68,0-.27,.08-.27,.47,0,.56,2.6,.78,6.07,.66,8.68,0,.27-.07,.27-.49,0-.56Z"/><path class="cls-12" d="M30.8,58.65c-1.08,.23-3.1,.33-5.11,.37,0,0-.17,0-.48,0-.93,.02-3.09,.06-5.27,.08h-.02c-2.27,.02-4.56,0-5.51-.09-.01,0-.03,0-.04,0h0c-2.08-.03-4.21-.13-5.31-.37,.91-.85,1.64-1.86,2.22-2.93,.76-1.45,1.29-3,1.5-4.62,.02-.2,.05-.42,.06-.62v-.58c0-.06,.01-.12,.01-.18h.01c.07,0,6.64-.3,14.14,0h.01c0,.06,0,.12,0,.18v.58c.02,.2,.04,.43,.07,.62,.21,1.62,.73,3.17,1.5,4.62,.58,1.07,1.31,2.08,2.22,2.93Z"/><path class="cls-12" d="M38.48,68.62c0,.11,0,.23-.02,.35-22.29-.16-34.41-.04-37.05,0,0-.11-.02-.23-.02-.34-.01-.35,0-.7,.03-1.05,.06-.69,.23-1.38,.47-2.05,.32-.9,.82-1.73,1.44-2.48h0c.14-.07,2.53-1.19,11.05-1.69h.01s.03,0,.05,0c.59-.03,4.98-.25,10.19-.04,8.93,.46,11.6,1.58,11.9,1.72,.62,.75,1.12,1.59,1.45,2.49,.24,.66,.4,1.35,.47,2.05,.03,.35,.04,.7,.03,1.05Z"/><path class="cls-11" d="M26.12,49.93c-1.77-.59-3.87,.15-5.71,.22-1.88,.07-3.86-.27-5.69,.18-.19,.05-.27,.32-.12,.45,1.54,1.35,3.82,1.59,5.81,1.59,1.92,0,4.61-.12,5.91-1.67,.23-.27,.14-.66-.2-.77Z"/><path class="cls-5" d="M21.86,53.24c-.61-.2-1.29-.29-1.93-.29-.31,0-.63,.01-.94,.03-.46,.02-.79,.24-1.25,.27-.04,0-.06,.07-.01,.08,.35,.06,.62,.25,.95,.34,.34,.09,.74,.08,1.09,.11,.68,.07,1.41,.03,2.08-.13,.21-.05,.19-.35,0-.41Z"/><path class="cls-11" d="M31.51,63.18c-3.79-.43-7.61-.09-11.41,.03-3.55,.1-7.04,.12-10.56,.64-.32,.05-.31,.58,0,.63,3.67,.65,7.31,.62,11.03,.56,3.71-.06,7.44-.08,11.06-.95,.54-.13,.36-.85-.12-.91Z"/><path class="cls-5" d="M36.55,63.04s0,0-.02,0c-.3-.14-2.98-1.26-11.9-1.72-5.21-.21-9.61,.01-10.19,.04-.02,0-.04,0-.05,0h-.01c-8.51,.5-10.91,1.61-11.05,1.68,.1-.13,.22-.26,.33-.38,.04-.05,.08-.09,.12-.14,.08-.09,.16-.17,.25-.25,.08-.08,.17-.17,.26-.25,.27-.25,.55-.48,.84-.71,.29-.22,.59-.41,.91-.61,.63-.39,1.34-.76,2.02-1.23,.36-.26,.7-.53,1.01-.83,1.11,.24,3.23,.34,5.31,.38h0s.03,0,.04,0c.95,.09,3.24,.11,5.51,.09h.02c2.18-.02,4.34-.06,5.27-.08,.3,0,.48,0,.48,0,2.01-.04,4.03-.14,5.11-.37,0,0,0,0,.01,0,.31,.3,.65,.57,1.01,.83,.68,.47,1.39,.85,2.02,1.23,.32,.2,.62,.39,.91,.61,.29,.23,.57,.46,.84,.71,.35,.32,.67,.66,.96,1.02Z"/><path class="cls-13" d="M38.37,69.83v.5s0,.56,0,.56c0,.37,0,.74,.01,1.12,0,.11,0,.23,0,.35-16.88,.16-35.2,.01-36.94,0,0-.12,0-.24,0-.35,0-.37,0-.74,.01-1.12v-.56s0-.28,0-.28v-.22s0-.09,0-.14l-.04-.3s0-.04,0-.07c2.71-.03,14.81-.16,36.98,0,0,.02,0,.04,0,.06l-.04,.3s0,.09,0,.14Z"/><path class="cls-14" d="M26.42,2.08c0,.33,0,.67,0,1.01s0,.68,0,1.03c0,.34,0,.7,0,1.05v.97h-.07v.03c0,.1-.01,.19-.01,.27v.11s0,.12,0,.12v.05s0,.19,0,.3c-5.79-.41-11.42-.09-12.74,0,0-.11,0-.29,0-.29v-.17s0-.11,0-.11c0-.08,0-.17,0-.27v-.03h-.07v-.97c0-.35,0-.7,0-1.05,0-.35,0-.69,0-1.03s0-.67,0-1.01c0-.13,.02-.22,.08-.31,.02-.04,.08-.09,.14-.15l.17-.17c.22-.23,.44-.46,.65-.67,.24-.26,.32-.31,.64-.33,.29-.02,.57-.05,.84-.07,.23-.02,.44-.04,.65-.06,.58-.04,1.39-.08,2.36-.1,.3,0,.62,0,.96,0s.65,0,.95,0c.97,.01,1.79,.06,2.36,.1,.21,.02,.42,.04,.65,.06,.27,.02,.55,.04,.84,.07,.32,.01,.4,.07,.64,.33,.21,.22,.43,.44,.65,.67l.17,.17c.06,.06,.12,.11,.14,.15,.06,.09,.09,.19,.08,.31Z"/><path class="cls-14" d="M26.52,8.95c-7.43-.16-12.41-.02-13.18,0v-.11s.02-.29,.02-.29c0-.21,.01-.42,.02-.62,0-.11,0-.22,0-.33,0-.11,0-.22,0-.33v-.11c.91-.06,6.92-.45,13.05,0v.11c0,.11,0,.23,0,.33,0,.11,0,.22,0,.33,0,.21,.02,.42,.02,.62v.29s.02,.11,.02,.11Z"/><g><path class="cls-4" d="M13.42,1.43V5.8s.05,0,.08,0V1.43s-.06,0-.08,0Z"/><path class="cls-4" d="M13.53,1.43V5.8s.05,0,.08,0V1.43s-.05,0-.08,0Z"/><path class="cls-4" d="M13.66,1.43V5.8s.05,0,.08,0V1.44s-.05,0-.08,0Z"/><path class="cls-4" d="M13.79,1.44V5.79s.05,0,.08,0V1.44s-.06,0-.08,0Z"/><path class="cls-4" d="M13.92,1.44V5.79s.05,0,.08,0V1.44s-.05,0-.08,0Z"/><path class="cls-4" d="M14.07,1.44V5.78s.05,0,.08,0V1.45s-.05,0-.08,0Z"/><path class="cls-4" d="M14.23,1.45V5.78s.05,0,.08,0V1.45s-.05,0-.08,0Z"/><path class="cls-4" d="M14.39,1.45V5.77s.05,0,.08,0V1.45s-.05,0-.08,0Z"/><path class="cls-4" d="M14.56,1.46V5.77s.05,0,.08,0V1.46s-.05,0-.08,0Z"/><path class="cls-4" d="M14.74,1.46V5.76s.05,0,.08,0V1.46s-.05,0-.08,0Z"/><path class="cls-4" d="M14.93,1.46V5.76s.05,0,.08,0V1.46s-.05,0-.08,0Z"/><path class="cls-4" d="M15.13,1.47V5.75s.05,0,.08,0V1.47s-.05,0-.08,0Z"/><path class="cls-4" d="M15.33,1.47V5.75s.05,0,.08,0V1.47s-.05,0-.08,0Z"/><path class="cls-4" d="M15.54,1.47V5.74s.05,0,.08,0V1.48s-.05,0-.08,0Z"/><path class="cls-4" d="M15.76,1.48V5.74s.05,0,.08,0V1.48s-.05,0-.08,0Z"/><path class="cls-4" d="M15.99,1.48V5.73s.05,0,.08,0V1.48s-.05,0-.08,0Z"/><path class="cls-4" d="M16.23,1.48V5.72s.05,0,.08,0V1.49s-.05,0-.08,0Z"/><path class="cls-4" d="M16.48,1.49V5.72s.05,0,.08,0V1.49s-.05,0-.08,0Z"/><path class="cls-4" d="M16.73,1.49V5.71s.05,0,.08,0V1.49s-.05,0-.08,0Z"/><path class="cls-4" d="M16.99,1.49V5.71s.05,0,.08,0V1.49s-.05,0-.08,0Z"/><path class="cls-4" d="M17.26,1.5V5.71s.05,0,.08,0V1.5s-.05,0-.08,0Z"/><path class="cls-4" d="M17.54,1.5V5.7s.05,0,.08,0V1.5s-.05,0-.08,0Z"/><path class="cls-4" d="M17.83,1.5V5.7s.05,0,.08,0V1.5s-.05,0-.08,0Z"/><path class="cls-4" d="M18.12,1.5V5.69s.05,0,.08,0V1.5s-.05,0-.08,0Z"/><path class="cls-4" d="M18.42,1.5V5.69s.05,0,.08,0V1.5s-.05,0-.08,0Z"/><path class="cls-4" d="M18.74,1.51V5.69s.05,0,.08,0V1.51s-.05,0-.08,0Z"/><path class="cls-4" d="M19.05,1.51V5.68s.05,0,.08,0V1.51s-.05,0-.08,0Z"/><path class="cls-4" d="M19.38,1.51V5.68s.05,0,.08,0V1.51s-.05,0-.08,0Z"/><path class="cls-4" d="M19.72,1.51V5.68s.05,0,.08,0V1.51s-.05,0-.08,0Z"/><path class="cls-4" d="M26.43,1.43V5.8s-.05,0-.08,0V1.43s.06,0,.08,0Z"/><path class="cls-4" d="M26.31,1.43V5.8s-.05,0-.08,0V1.43s.05,0,.08,0Z"/><path class="cls-4" d="M26.19,1.43V5.8s-.05,0-.08,0V1.44s.05,0,.08,0Z"/><path class="cls-4" d="M26.06,1.44V5.79s-.05,0-.08,0V1.44s.06,0,.08,0Z"/><path class="cls-4" d="M25.92,1.44V5.79s-.05,0-.08,0V1.44s.05,0,.08,0Z"/><path class="cls-4" d="M25.78,1.44V5.78s-.05,0-.08,0V1.45s.05,0,.08,0Z"/><path class="cls-4" d="M25.62,1.45V5.78s-.05,0-.08,0V1.45s.05,0,.08,0Z"/><path class="cls-4" d="M25.46,1.45V5.77s-.05,0-.08,0V1.45s.05,0,.08,0Z"/><path class="cls-4" d="M25.29,1.46V5.77s-.05,0-.08,0V1.46s.05,0,.08,0Z"/><path class="cls-4" d="M25.11,1.46V5.76s-.05,0-.08,0V1.46s.05,0,.08,0Z"/><path class="cls-4" d="M24.92,1.46V5.76s-.05,0-.08,0V1.46s.05,0,.08,0Z"/><path class="cls-4" d="M24.72,1.47V5.75s-.05,0-.08,0V1.47s.05,0,.08,0Z"/><path class="cls-4" d="M24.52,1.47V5.75s-.05,0-.08,0V1.47s.05,0,.08,0Z"/><path class="cls-4" d="M24.3,1.47V5.74s-.05,0-.08,0V1.48s.05,0,.08,0Z"/><path class="cls-4" d="M24.08,1.48V5.74s-.05,0-.08,0V1.48s.05,0,.08,0Z"/><path class="cls-4" d="M23.85,1.48V5.73s-.05,0-.08,0V1.48s.05,0,.08,0Z"/><path class="cls-4" d="M23.62,1.48V5.72s-.05,0-.08,0V1.49s.05,0,.08,0Z"/><path class="cls-4" d="M23.37,1.49V5.72s-.05,0-.08,0V1.49s.05,0,.08,0Z"/><path class="cls-4" d="M23.12,1.49V5.71s-.05,0-.08,0V1.49s.05,0,.08,0Z"/><path class="cls-4" d="M22.85,1.49V5.71s-.05,0-.08,0V1.49s.05,0,.08,0Z"/><path class="cls-4" d="M22.58,1.5V5.71s-.05,0-.08,0V1.5s.05,0,.08,0Z"/><path class="cls-4" d="M22.31,1.5V5.7s-.05,0-.08,0V1.5s.05,0,.08,0Z"/><path class="cls-4" d="M22.02,1.5V5.7s-.05,0-.08,0V1.5s.05,0,.08,0Z"/><path class="cls-4" d="M21.73,1.5V5.69s-.05,0-.08,0V1.5s.05,0,.08,0Z"/><path class="cls-4" d="M21.42,1.5V5.69s-.05,0-.08,0V1.5s.05,0,.08,0Z"/><path class="cls-4" d="M21.11,1.51V5.69s-.05,0-.08,0V1.51s.05,0,.08,0Z"/><path class="cls-4" d="M20.79,1.51V5.68s-.05,0-.08,0V1.51s.05,0,.08,0Z"/><path class="cls-4" d="M20.47,1.51V5.68s-.05,0-.08,0V1.51s.05,0,.08,0Z"/><path class="cls-4" d="M20.13,1.51V5.68s-.05,0-.08,0V1.51s.05,0,.08,0Z"/></g><g><path class="cls-5" d="M28.85,55.8c-10.5,1.2-17.86,.01-17.94,0l-.08,.49s3.35,.54,8.67,.54c2.68,0,5.86-.13,9.4-.54l-.06-.49Z"/><path class="cls-5" d="M28.9,55.1l-.03-.24c-10.51,1.2-17.9,.01-17.97,0l-.04,.24s3.35,.54,8.65,.54c2.67,0,5.85-.13,9.39-.54Z"/><path class="cls-5" d="M28.9,55.64l-.03-.24c-10.51,1.2-17.9,.01-17.97,0l-.04,.24s3.35,.54,8.65,.54c2.67,0,5.85-.13,9.39-.54Z"/><path class="cls-5" d="M13.23,54.52c.64,.14,1.3,.22,1.95,.29,.77,.08,1.54,.12,2.32,.14,.41,.01,.82,.02,1.23,.02,1.51,.01,3.04,.02,4.56-.07,1.3-.07,2.64-.17,3.89-.55,.06-.02,.74-.23,.73-.28,0,0-.71-2.64-.71-2.65,.02,.06-.24,.28-.28,.31-.28,.27-.61,.5-.95,.69-.73,.41-1.53,.68-2.35,.84-.58,.12-1.17,.19-1.76,.23-.96,.06-1.94,.02-2.9,.03-.27,0-.54,0-.81-.01-.49-.02-.98-.07-1.46-.14-.74-.11-1.48-.3-2.17-.59-.55-.23-1.08-.52-1.53-.91-.05-.04-.46-.36-.43-.45,0,0-.71,2.65-.71,2.65-.03,.1,1.27,.42,1.37,.44Z"/></g><path class="cls-5" d="M9,72.92l-6.53,.65-.58-6.87c.56-.25,.83-.53,.83-.86,0-.39-.42-.66-.72-.81l.86-1.32c2.75,1.45,6.2,.48,7.9-.18-1.75,2.62-1.78,8.17-1.76,9.39Z"/><path class="cls-5" d="M29.81,63.04s5.04,.26,4.3,12.87h2.09v-6.09s.55-6.73-6.39-6.78Z"/><path class="cls-4" d="M36.55,74.57v-7.62s.04-3.44-6.02-5.16c0,0,6.82-2.21,7.38,6.56v6.23h-1.35Z"/><path class="cls-4" d="M9.09,62.85s-3.26-.47-4.06-.35c-.8,.12-3.32,3.32-2.95,5.84l-.04,8.73,3.52-1.72v-3.85c0-.92,0-1.85,0-2.77,0-1.15,.09-2.35,.8-3.27,.34-.44,.7-.86,1.1-1.25,.25-.24,1.3-1.41,1.62-1.37Z"/><path class="cls-5" d="M25.07,9.81s2.01,1.15-3.64,.78c0,0,2.14,.47,3.64,.41v1.84h.78v-1.94c.21-.05,.39-.13,.5-.24,.9-.81-1.28-.85-1.28-.85Z"/><path class="cls-5" d="M14.74,9.81s-2.01,1.15,3.64,.78c0,0-2.14,.47-3.64,.41v1.84h-.78v-1.94c-.21-.05-.39-.13-.5-.24-.9-.81,1.28-.85,1.28-.85Z"/><path class="cls-4" d="M13.56,49.47s-.37,5.44,.25,7.36c0,0-1.9,.52-2.58,.26,0,0,2.22-5.47,1.57-7.62h.76Z"/><path class="cls-8" d="M26.56,16.16c-6.82-.86-13.28,0-13.35,0l-.07-.49c.07,0,6.59-.87,13.47,0l-.06,.49Z"/><path class="cls-4" d="M26.25,49.47s.37,5.44-.25,7.36c0,0,1.9,.52,2.58,.26,0,0-2.22-5.47-1.57-7.62h-.76Z"/><path class="cls-15" d="M27.01,49.47c0-.24,0-.48-.01-.71,0-.09,0-.17,0-.26,0-.08,0-.16,0-.25,0-.38-.01-.77-.02-1.15,0-.08,0-.17,0-.25,0-.12,0-.24,0-.36,0-.4-.01-.8-.02-1.2,0-.08,0-.17,0-.25-.02-1.01-.04-2.01-.05-3-.04-2.92-.07-5.74-.11-8.42-.02-2.67-.04-5.2-.06-7.54,0-.41,0-.8,0-1.2,.06,0,.12,0,.18,0,0-.08,0-.17,0-.25-.06,0-.12,0-.17,0,0-.1,0-.19,0-.28-.01-2.02-.02-3.87-.02-5.51,.06,0,.13,0,.2,0,0-.08,0-.17,0-.25-.06,0-.13,0-.19,0,0-1.26,0-2.4,0-3.39,0,0-.02-1.4-.04-2.58h0s-.01,0-.01,0c-5.1-.34-11.2-.1-13.16,0v-.03h-.25c-.01,1.2-.04,2.63-.04,2.63,0,.99,0,2.13,0,3.38-.05,0-.09,0-.13,0-.1,0-.18,0-.25,0,0,.08,0,.16,0,.25,.06,0,.14,0,.25,0,.04,0,.09,0,.14,0,0,1.63,0,3.45-.02,5.44,0,.12,0,.23,0,.35-.04,0-.08,0-.11,0-.1,0-.18,0-.25,0,0,.08,0,.16,0,.25,.06,0,.14,0,.25,0,.03,0,.08,0,.12,0,0,.4,0,.8,0,1.21-.02,2.33-.04,4.86-.06,7.54-.03,2.68-.07,5.5-.11,8.42-.01,.98-.03,1.99-.05,3,0,.08,0,.16,0,.25,0,.4,0,.8-.02,1.2,0,.12,0,.24,0,.35,0,.08,0,.16,0,.25,0,.38-.01,.77-.02,1.15,0,.08,0,.16,0,.25,0,.09,0,.18,0,.27,0,.24,0,.48-.01,.71,0,.08,0,.16,0,.25h.01c.07,0,6.64-.3,14.14,0h.01c0-.08,0-.16,0-.25Z"/><path class="cls-4" d="M5.27,116.24s-.09,0-.27-.05h-.02c-.16-.03-.39-.09-.65-.19h0c-.85-.34-2.08-1.13-2.79-3,0-.02-.01-.03-.02-.05-.09-.26-.18-.55-.26-.85-.24-1.02-.35-2.29-.21-3.88v-.05s.72,.12,1.1-.85c.04-.1,.07-.21,.1-.35l-.02-1.41v-2.2s-.02-.61-.02-.61v-.02l-.02-.49v-.67l1.75,.46v6.68h-.55c-.42,.02-.8,.05-.9,.14-.16,.15-.03,1.37,.33,2.79,.47,1.87,1.33,4.08,2.43,4.62Z"/><path class="cls-1" d="M2.22,69.32l-1.13,36.18c1.3,.16,14.12,1.59,37.69-.02l-1.13-36.15c-20.03-.14-31.67-.05-35.42,0Z"/><path class="cls-1" d="M1,105.49h0s0-.18,0-.18c0,.06,0,.12,0,.18Z"/><path class="cls-1" d="M1.44,69.33s0,.04,0,.07l.04,.3-.04-.36h0Z"/><path class="cls-1" d="M13.45,4.13c0,.34,0,.7,0,1.05v.97h.07v.03c0,.1,.01,.19,.01,.27v.11s0,.12,0,.12v.05s0,.18,0,.29c1.31-.08,6.95-.41,12.74,0,0-.11,0-.3,0-.3v-.17s0-.11,0-.11c0-.08,0-.17,0-.27v-.03h.07v-.97c0-.35,0-.7,0-1.05,0-.35,0-.69,0-1.03,0-.34,0-.67,0-1.01,0-.13-.02-.22-.08-.31-.02-.04-.08-.09-.14-.15l-.17-.17c-.22-.23-.44-.46-.65-.67-.24-.26-.32-.31-.64-.33-.29-.02-.57-.05-.84-.07-.23-.02-.44-.04-.65-.06-.58-.04-1.39-.08-2.36-.1-.3,0-.62,0-.95,0s-.65,0-.96,0c-.97,.01-1.78,.06-2.36,.1-.21,.02-.42,.04-.65,.06-.27,.02-.55,.04-.84,.07-.32,.01-.4,.07-.64,.33-.21,.22-.43,.44-.65,.67l-.17,.17c-.06,.06-.12,.11-.14,.15-.06,.09-.09,.19-.08,.31,0,.33,0,.67,0,1.01,0,.34,0,.68,0,1.03Z"/><path class="cls-1" d="M26.52,8.95v-.11s-.02-.29-.02-.29c0-.21-.01-.42-.02-.62,0-.11,0-.22,0-.33,0-.11,0-.22,0-.33v-.11c-6.13-.45-12.15-.06-13.05,0v.11c0,.11,0,.23,0,.33,0,.11,0,.22,0,.33,0,.21-.02,.42-.02,.62v.29s-.02,.11-.02,.11c.77-.02,5.75-.16,13.18,0Z"/><path class="cls-6" d="M1.03,107.01s0,.06,0,.09v-.09s0,0,0,0Z"/><path class="cls-6" d="M.99,105.16v.15c0-.05,0-.1,0-.16h0Z"/><path class="cls-5" d="M37.63,68.96c-20-.14-31.63-.05-35.4,0-.33,0-.62,0-.83,0l.04,.37c.2,0,.47,0,.77,0,3.75-.04,15.39-.13,35.42,0,.26,0,.51,0,.77,0l.04-.37c-.28,0-.55,0-.83,0Z"/><path class="cls-5" d="M39.12,107.31s-.07,0-.18,.02h-.09s-.02,0-.04,.02c-.21,0-.55,.04-1.01,.07-.07,0-.12,.02-.19,.02-.39,.02-.85,.05-1.4,.09-1.45,.09-3.43,.19-5.96,.25-2.14,.07-4.65,.11-7.55,.11-3.54,0-7.62-.05-12.3-.21-2.05-.07-4.19-.16-6.45-.27-.28,0-.57-.02-.85-.04-.32-.02-.64-.04-.95-.05-.37-.02-.74-.04-1.13-.05-.09,0-.18-.02-.27-.02l.11-1.77h.12c.42,.04,.83,.05,1.26,.07,.18,.02,.35,.02,.53,.04,.39,.02,.8,.04,1.18,.05,1.4,.07,2.78,.14,4.08,.19,11.4,.44,19.66,.32,24.73,.11,1.38-.05,2.53-.11,3.45-.16,.55-.04,1.03-.07,1.4-.09,.21-.02,.37-.04,.53-.05,.34-.02,.57-.05,.69-.07h.09l.19,1.75Z"/><g><path class="cls-11" d="M3.96,116.19s0-.05,0-.08c0-.03,0-.05,0-.08,0-.02,0-.05,0-.07,0-.05-.01-.09-.02-.14,0-.04-.01-.09-.02-.12,0-.04-.02-.07-.02-.11s-.02-.06-.02-.08c0-.02-.01-.04-.02-.05,0-.01,0-.02,0-.02,0,0,0,0,0,.02,0,.01-.01,.03-.02,.05,0,.02-.01,.05-.02,.08s-.02,.07-.02,.11c0,.04-.02,.08-.02,.12,0,.04-.01,.09-.02,.14,0,.02,0,.05,0,.07,0,.02,0,.05,0,.08,0,.03,0,.05,0,.08,0,.03,0,.05,0,.08h.25s0-.05,0-.08Z"/><path class="cls-11" d="M5.36,116.19s0-.05,0-.08,0-.05,0-.08,0-.05,0-.07c0-.05-.01-.09-.02-.14,0-.04-.01-.09-.02-.12,0-.04-.02-.07-.02-.11s-.02-.06-.02-.08-.01-.04-.02-.05c0-.01,0-.02,0-.02,0,0,0,0,0,.02,0,.01-.01,.03-.02,.05s-.01,.05-.02,.08c0,.03-.02,.07-.02,.11,0,.04-.02,.08-.02,.12,0,.04-.01,.09-.02,.14,0,.02,0,.05,0,.07s0,.05,0,.08,0,.05,0,.08,0,.05,0,.08h.25s0-.05,0-.08Z"/><path class="cls-11" d="M6.76,116.19s0-.05,0-.08,0-.05,0-.08,0-.05,0-.07c0-.05-.01-.09-.02-.14,0-.04-.01-.09-.02-.12,0-.04-.02-.07-.02-.11s-.02-.06-.02-.08-.01-.04-.02-.05c0-.01,0-.02,0-.02,0,0,0,0,0,.02,0,.01-.01,.03-.02,.05s-.01,.05-.02,.08c0,.03-.02,.07-.02,.11,0,.04-.02,.08-.02,.12,0,.04-.01,.09-.02,.14,0,.02,0,.05,0,.07s0,.05,0,.08,0,.05,0,.08,0,.05,0,.08h.25s0-.05,0-.08Z"/><path class="cls-11" d="M8.16,116.19s0-.05,0-.08,0-.05,0-.08,0-.05,0-.07c0-.05-.01-.09-.02-.14,0-.04-.01-.09-.02-.12,0-.04-.02-.07-.02-.11s-.02-.06-.02-.08-.01-.04-.02-.05c0-.01,0-.02,0-.02,0,0,0,0,0,.02,0,.01-.01,.03-.02,.05s-.01,.05-.02,.08c0,.03-.02,.07-.02,.11,0,.04-.02,.08-.02,.12,0,.04-.01,.09-.02,.14,0,.02,0,.05,0,.07s0,.05,0,.08,0,.05,0,.08,0,.05,0,.08h.25s0-.05,0-.08Z"/><path class="cls-11" d="M9.57,116.19s0-.05,0-.08,0-.05,0-.08,0-.05,0-.07c0-.05-.01-.09-.02-.14,0-.04-.01-.09-.02-.12,0-.04-.02-.07-.02-.11s-.02-.06-.02-.08-.01-.04-.02-.05c0-.01,0-.02,0-.02,0,0,0,0,0,.02,0,.01-.01,.03-.02,.05s-.01,.05-.02,.08c0,.03-.02,.07-.02,.11,0,.04-.02,.08-.02,.12,0,.04-.01,.09-.02,.14,0,.02,0,.05,0,.07s0,.05,0,.08,0,.05,0,.08,0,.05,0,.08h.25s0-.05,0-.08Z"/><path class="cls-11" d="M10.97,116.19s0-.05,0-.08,0-.05,0-.08,0-.05,0-.07c0-.05-.01-.09-.02-.14,0-.04-.01-.09-.02-.12,0-.04-.02-.07-.02-.11s-.02-.06-.02-.08-.01-.04-.02-.05c0-.01,0-.02,0-.02,0,0,0,0,0,.02,0,.01-.01,.03-.02,.05s-.01,.05-.02,.08c0,.03-.02,.07-.02,.11,0,.04-.02,.08-.02,.12,0,.04-.01,.09-.02,.14,0,.02,0,.05,0,.07s0,.05,0,.08,0,.05,0,.08,0,.05,0,.08h.25s0-.05,0-.08Z"/><path class="cls-11" d="M12.37,116.19s0-.05,0-.08,0-.05,0-.08,0-.05,0-.07c0-.05-.01-.09-.02-.14,0-.04-.01-.09-.02-.12,0-.04-.02-.07-.02-.11s-.02-.06-.02-.08-.01-.04-.02-.05c0-.01,0-.02,0-.02,0,0,0,0,0,.02,0,.01-.01,.03-.02,.05s-.01,.05-.02,.08c0,.03-.02,.07-.02,.11,0,.04-.02,.08-.02,.12,0,.04-.01,.09-.02,.14,0,.02,0,.05,0,.07s0,.05,0,.08,0,.05,0,.08,0,.05,0,.08h.25s0-.05,0-.08Z"/><path class="cls-11" d="M13.77,116.19s0-.05,0-.08,0-.05,0-.08,0-.05,0-.07c0-.05-.01-.09-.02-.14,0-.04-.01-.09-.02-.12,0-.04-.02-.07-.02-.11s-.02-.06-.02-.08-.01-.04-.02-.05c0-.01,0-.02,0-.02,0,0,0,0,0,.02,0,.01-.01,.03-.02,.05s-.01,.05-.02,.08c0,.03-.02,.07-.02,.11,0,.04-.02,.08-.02,.12,0,.04-.01,.09-.02,.14,0,.02,0,.05,0,.07s0,.05,0,.08,0,.05,0,.08,0,.05,0,.08h.25s0-.05,0-.08Z"/><path class="cls-11" d="M15.17,116.19s0-.05,0-.08,0-.05,0-.08,0-.05,0-.07c0-.05-.01-.09-.02-.14,0-.04-.01-.09-.02-.12,0-.04-.02-.07-.02-.11s-.02-.06-.02-.08-.01-.04-.02-.05c0-.01,0-.02,0-.02,0,0,0,0,0,.02,0,.01-.01,.03-.02,.05s-.01,.05-.02,.08c0,.03-.02,.07-.02,.11,0,.04-.02,.08-.02,.12,0,.04-.01,.09-.02,.14,0,.02,0,.05,0,.07s0,.05,0,.08,0,.05,0,.08,0,.05,0,.08h.25s0-.05,0-.08Z"/><path class="cls-11" d="M16.58,116.19s0-.05,0-.08,0-.05,0-.08,0-.05,0-.07c0-.05-.01-.09-.02-.14,0-.04-.01-.09-.02-.12,0-.04-.02-.07-.02-.11s-.02-.06-.02-.08-.01-.04-.02-.05c0-.01,0-.02,0-.02,0,0,0,0,0,.02,0,.01-.01,.03-.02,.05s-.01,.05-.02,.08c0,.03-.02,.07-.02,.11,0,.04-.02,.08-.02,.12,0,.04-.01,.09-.02,.14,0,.02,0,.05,0,.07s0,.05,0,.08,0,.05,0,.08,0,.05,0,.08h.25s0-.05,0-.08Z"/><path class="cls-11" d="M17.98,116.19s0-.05,0-.08,0-.05,0-.08,0-.05,0-.07c0-.05-.01-.09-.02-.14,0-.04-.01-.09-.02-.12,0-.04-.02-.07-.02-.11s-.02-.06-.02-.08-.01-.04-.02-.05c0-.01,0-.02,0-.02,0,0,0,0,0,.02,0,.01-.01,.03-.02,.05s-.01,.05-.02,.08c0,.03-.02,.07-.02,.11,0,.04-.02,.08-.02,.12,0,.04-.01,.09-.02,.14,0,.02,0,.05,0,.07s0,.05,0,.08,0,.05,0,.08,0,.05,0,.08h.25s0-.05,0-.08Z"/><path class="cls-11" d="M19.38,116.19s0-.05,0-.08,0-.05,0-.08,0-.05,0-.07c0-.05-.01-.09-.02-.14,0-.04-.01-.09-.02-.12,0-.04-.02-.07-.02-.11s-.02-.06-.02-.08-.01-.04-.02-.05c0-.01,0-.02,0-.02,0,0,0,0,0,.02,0,.01-.01,.03-.02,.05s-.01,.05-.02,.08c0,.03-.02,.07-.02,.11,0,.04-.02,.08-.02,.12,0,.04-.01,.09-.02,.14,0,.02,0,.05,0,.07s0,.05,0,.08,0,.05,0,.08,0,.05,0,.08h.25s0-.05,0-.08Z"/><path class="cls-11" d="M20.78,116.19s0-.05,0-.08,0-.05,0-.08,0-.05,0-.07c0-.05-.01-.09-.02-.14,0-.04-.01-.09-.02-.12,0-.04-.02-.07-.02-.11s-.02-.06-.02-.08-.01-.04-.02-.05c0-.01,0-.02,0-.02,0,0,0,0,0,.02,0,.01-.01,.03-.02,.05s-.01,.05-.02,.08c0,.03-.02,.07-.02,.11,0,.04-.02,.08-.02,.12,0,.04-.01,.09-.02,.14,0,.02,0,.05,0,.07s0,.05,0,.08,0,.05,0,.08,0,.05,0,.08h.25s0-.05,0-.08Z"/><path class="cls-11" d="M22.19,116.19s0-.05,0-.08,0-.05,0-.08,0-.05,0-.07c0-.05-.01-.09-.02-.14,0-.04-.01-.09-.02-.12,0-.04-.02-.07-.02-.11s-.02-.06-.02-.08-.01-.04-.02-.05c0-.01,0-.02,0-.02,0,0,0,0,0,.02,0,.01-.01,.03-.02,.05s-.01,.05-.02,.08c0,.03-.02,.07-.02,.11,0,.04-.02,.08-.02,.12,0,.04-.01,.09-.02,.14,0,.02,0,.05,0,.07s0,.05,0,.08,0,.05,0,.08,0,.05,0,.08h.25s0-.05,0-.08Z"/><path class="cls-11" d="M23.59,116.19s0-.05,0-.08,0-.05,0-.08,0-.05,0-.07c0-.05-.01-.09-.02-.14,0-.04-.01-.09-.02-.12,0-.04-.02-.07-.02-.11s-.02-.06-.02-.08-.01-.04-.02-.05c0-.01,0-.02,0-.02,0,0,0,0,0,.02,0,.01-.01,.03-.02,.05s-.01,.05-.02,.08c0,.03-.02,.07-.02,.11,0,.04-.02,.08-.02,.12,0,.04-.01,.09-.02,.14,0,.02,0,.05,0,.07s0,.05,0,.08,0,.05,0,.08,0,.05,0,.08h.25s0-.05,0-.08Z"/><path class="cls-11" d="M24.99,116.19s0-.05,0-.08,0-.05,0-.08,0-.05,0-.07c0-.05-.01-.09-.02-.14,0-.04-.01-.09-.02-.12,0-.04-.02-.07-.02-.11s-.02-.06-.02-.08-.01-.04-.02-.05c0-.01,0-.02,0-.02,0,0,0,0,0,.02,0,.01-.01,.03-.02,.05s-.01,.05-.02,.08c0,.03-.02,.07-.02,.11,0,.04-.02,.08-.02,.12,0,.04-.01,.09-.02,.14,0,.02,0,.05,0,.07s0,.05,0,.08,0,.05,0,.08,0,.05,0,.08h.25s0-.05,0-.08Z"/><path class="cls-11" d="M26.39,116.19s0-.05,0-.08,0-.05,0-.08,0-.05,0-.07c0-.05-.01-.09-.02-.14,0-.04-.01-.09-.02-.12,0-.04-.02-.07-.02-.11s-.02-.06-.02-.08-.01-.04-.02-.05c0-.01,0-.02,0-.02,0,0,0,0,0,.02,0,.01-.01,.03-.02,.05s-.01,.05-.02,.08c0,.03-.02,.07-.02,.11,0,.04-.02,.08-.02,.12,0,.04-.01,.09-.02,.14,0,.02,0,.05,0,.07s0,.05,0,.08,0,.05,0,.08,0,.05,0,.08h.25s0-.05,0-.08Z"/><path class="cls-11" d="M27.79,116.19s0-.05,0-.08,0-.05,0-.08,0-.05,0-.07c0-.05-.01-.09-.02-.14,0-.04-.01-.09-.02-.12,0-.04-.02-.07-.02-.11s-.02-.06-.02-.08-.01-.04-.02-.05c0-.01,0-.02,0-.02,0,0,0,0,0,.02,0,.01-.01,.03-.02,.05s-.01,.05-.02,.08c0,.03-.02,.07-.02,.11,0,.04-.02,.08-.02,.12,0,.04-.01,.09-.02,.14,0,.02,0,.05,0,.07s0,.05,0,.08,0,.05,0,.08,0,.05,0,.08h.25s0-.05,0-.08Z"/><path class="cls-11" d="M29.2,116.19s0-.05,0-.08,0-.05,0-.08,0-.05,0-.07c0-.05-.01-.09-.02-.14,0-.04-.01-.09-.02-.12,0-.04-.02-.07-.02-.11s-.02-.06-.02-.08-.01-.04-.02-.05c0-.01,0-.02,0-.02,0,0,0,0,0,.02,0,.01-.01,.03-.02,.05s-.01,.05-.02,.08c0,.03-.02,.07-.02,.11,0,.04-.02,.08-.02,.12,0,.04-.01,.09-.02,.14,0,.02,0,.05,0,.07s0,.05,0,.08,0,.05,0,.08,0,.05,0,.08h.25s0-.05,0-.08Z"/><path class="cls-11" d="M30.6,116.19s0-.05,0-.08,0-.05,0-.08,0-.05,0-.07c0-.05-.01-.09-.02-.14,0-.04-.01-.09-.02-.12,0-.04-.02-.07-.02-.11s-.02-.06-.02-.08-.01-.04-.02-.05c0-.01,0-.02,0-.02,0,0,0,0,0,.02,0,.01-.01,.03-.02,.05s-.01,.05-.02,.08c0,.03-.02,.07-.02,.11,0,.04-.02,.08-.02,.12,0,.04-.01,.09-.02,.14,0,.02,0,.05,0,.07s0,.05,0,.08,0,.05,0,.08,0,.05,0,.08h.25s0-.05,0-.08Z"/><path class="cls-11" d="M32,116.19s0-.05,0-.08,0-.05,0-.08,0-.05,0-.07c0-.05-.01-.09-.02-.14,0-.04-.01-.09-.02-.12,0-.04-.02-.07-.02-.11s-.02-.06-.02-.08-.01-.04-.02-.05c0-.01,0-.02,0-.02,0,0,0,0,0,.02,0,.01-.01,.03-.02,.05s-.01,.05-.02,.08c0,.03-.02,.07-.02,.11,0,.04-.02,.08-.02,.12,0,.04-.01,.09-.02,.14,0,.02,0,.05,0,.07s0,.05,0,.08,0,.05,0,.08,0,.05,0,.08h.25s0-.05,0-.08Z"/><path class="cls-11" d="M33.4,116.19s0-.05,0-.08,0-.05,0-.08,0-.05,0-.07c0-.05-.01-.09-.02-.14,0-.04-.01-.09-.02-.12,0-.04-.02-.07-.02-.11s-.02-.06-.02-.08-.01-.04-.02-.05c0-.01,0-.02,0-.02,0,0,0,0,0,.02,0,.01-.01,.03-.02,.05s-.01,.05-.02,.08c0,.03-.02,.07-.02,.11,0,.04-.02,.08-.02,.12,0,.04-.01,.09-.02,.14,0,.02,0,.05,0,.07s0,.05,0,.08,0,.05,0,.08,0,.05,0,.08h.25s0-.05,0-.08Z"/><path class="cls-11" d="M34.8,116.19s0-.05,0-.08,0-.05,0-.08,0-.05,0-.07c0-.05-.01-.09-.02-.14,0-.04-.01-.09-.02-.12,0-.04-.02-.07-.02-.11s-.02-.06-.02-.08-.01-.04-.02-.05c0-.01,0-.02,0-.02,0,0,0,0,0,.02,0,.01-.01,.03-.02,.05s-.01,.05-.02,.08c0,.03-.02,.07-.02,.11,0,.04-.02,.08-.02,.12,0,.04-.01,.09-.02,.14,0,.02,0,.05,0,.07s0,.05,0,.08,0,.05,0,.08,0,.05,0,.08h.25s0-.05,0-.08Z"/><path class="cls-11" d="M36.21,116.19s0-.05,0-.08c0-.03,0-.05,0-.08,0-.02,0-.05,0-.07,0-.05-.01-.09-.02-.14,0-.04-.01-.09-.02-.12,0-.04-.02-.07-.02-.11s-.02-.06-.02-.08c0-.02-.01-.04-.02-.05,0-.01,0-.02,0-.02,0,0,0,0,0,.02,0,.01-.01,.03-.02,.05,0,.02-.01,.05-.02,.08,0,.03-.02,.07-.02,.11,0,.04-.02,.08-.02,.12,0,.04-.01,.09-.02,.14,0,.02,0,.05,0,.07,0,.02,0,.05,0,.08,0,.03,0,.05,0,.08,0,.03,0,.05,0,.08h.25s0-.05,0-.08Z"/></g><path class="cls-4" d="M38.82,107.4c0,.28-.02,.55-.02,.81-.04,.72-.05,1.38-.07,1.87-.02,.16-.04,.28-.04,.4-.02,.11-.02,.21-.04,.32v.02c-.04,.3-.07,.6-.12,.88,0,.04-.02,.05-.02,.09-.02,.08-.04,.17-.07,.26-.1,.38-.25,.8-.46,1.23-.28,.6-.71,1.22-1.29,1.75,.57-.76,.92-1.61,1.11-2.42,.06-.24,.11-.48,.15-.71,.08-.49,.12-.95,.13-1.37,.02-1.22-.19-2.09-.19-2.09-.12,.05-.25,.13-.35,.18-1.1,.57-1.33,.99-1.33,.99v-8.15l1.4,.26v6.52h.02c.55-.07,.99-.58,1.19-.85Z"/><text class="cls-3" transform="translate(13.69 22.31)"><tspan x="0" y="0">S</tspan><tspan class="cls-17" x="3.23" y="0">L</tspan><tspan x="5.75" y="0">OE</tspan><tspan x="1.75" y="5.71">GIN</tspan></text><path class="cls-15" d="M39.22,96.25c-.05-1.69-.1-3.56-.14-5.57l-.16-7.53c0-.51-.01-1.02-.02-1.53,0-.16,0-.32,0-.49,0-.17,0-.34,0-.51,.05,0,.11,0,.16,0v-.25c-.06,0-.11,0-.16,0-.03-1.82-.06-3.7-.09-5.62v-.74c.08,0,.17,0,.25,0v-.25c-.09,0-.18,0-.26,0v-.87h-.4c-16.88,.16-35.2,.01-36.94,0h-.38v.86c-.16,0-.25,0-.27,0v.25s.1,0,.25,0v.74c-.04,1.92-.07,3.8-.1,5.62-.09,0-.15,0-.16,0v.25s.06,0,.15,0c0,.17,0,.34,0,.5,0,.17,0,.33,0,.49,0,.52-.01,1.03-.02,1.54l-.15,7.53c-.04,2.02-.09,3.88-.14,5.57l.02,.26,.13,6.32s.05,0,.13,0l-.03,.23s.05,0,.07,.02h.02c.41,.05,.81,.11,1.26,.16h.02c.07,0,.14,.02,.21,.02,.48,.05,.97,.09,1.5,.14h.02c.78,.07,1.59,.12,2.46,.16,3.29,.18,7.12,.25,11.01,.25,6.43,0,12.94-.18,17.07-.32,.62-.02,1.18-.05,1.7-.07,.53-.02,1.01-.04,1.4-.04,.35-.04,.65-.04,.87-.05,.19-.02,.32-.02,.41-.02h.09l-.03-.45s0,0,0,0h0s.08-.02,.12-.03l.13-6.33h.03v-.26Z"/><text class="cls-2" transform="translate(5.37 86.41)"><tspan x="0" y="0">S</tspan><tspan class="cls-16" x="7.21" y="0">L</tspan><tspan x="13.19" y="0">OE</tspan><tspan x="3.9" y="12">GIN</tspan></text><path class="cls-1" d="M26.52,8.94v-.11l-.02-.28c-.02-.21-.02-.42-.04-.62v-.34c0-.1,0-.23-.02-.34v-.1c-6.13-.46-12.14-.07-13.04,0v.44c0,.11-.02,.21-.02,.34,0,.19-.02,.4-.02,.62l-.02,.28v.11c.76-.02,5.74-.16,13.17,0Z"/><path class="cls-1" d="M13.45,6.15h.07l.02,.02v.28l.02,.1v.46c1.31-.09,6.94-.41,12.74,0v-.57c0-.09,.02-.18,.02-.28v-.02h.07v-.97c0-.35,0-.71,.02-1.06v-1.02c.02-.34,.02-.67,.02-1.01,0-.12-.02-.23-.09-.32-.02-.04-.09-.09-.14-.16l-.18-.16c-.21-.23-.44-.46-.66-.67-.23-.27-.32-.32-.63-.34-.28-.02-.57-.05-.83-.07-.23-.02-.44-.04-.65-.07-.58-.04-1.38-.07-2.37-.09h-1.91c-.97,.02-1.79,.05-2.35,.09-.21,.03-.42,.05-.65,.07-.27,.02-.55,.05-.83,.07-.34,.02-.41,.07-.65,.34-.21,.21-.42,.44-.66,.67l-.16,.16c-.07,.07-.12,.12-.14,.16-.07,.09-.11,.19-.09,.32v1.01c.02,.34,.02,.69,.02,1.02v2.03Z"/><path class="cls-1" d="M27.03,104.36h-.05c-3.61,.05-7.49,.09-11.38,.09-5.6,0-10.47-.08-14.49-.25-.05,0-.09,0-.14,0,0,.32,.01,.63,.02,.95v.34l.04,1.61v.16c.02,.32,.02,.62,.04,.9v.05c.03,.94,.07,1.73,.11,2.28,0,.11,.02,.21,.02,.32v.02c.04,.3,.09,.6,.12,.88,.02,.1,.05,.21,.08,.32,0,.03,.02,.07,.03,.1,.4,1.39,1.35,3.16,3.57,4.05h.02c.19,.09,.41,.16,.64,.21,.49,.16,1.04,.26,1.66,.32,.32,0,2.48,.05,4.93,.1,.25,0,.51,.02,.76,.02,2.26,.05,4.63,.09,5.97,.11h1.91c1.56-.02,4.39-.09,6.9-.12,.06,0,.12,0,.17,0h.02c.38,0,.75-.02,1.11-.02,.29,0,.57-.02,.83-.02,1.4-.04,2.43-.06,2.64-.06,1.2-.11,2.16-.41,2.93-.83,.48-.23,.88-.53,1.22-.85,.58-.53,1.01-1.15,1.29-1.75,.21-.43,.36-.85,.46-1.23,.03-.09,.05-.17,.07-.26,0-.03,.02-.05,.02-.09,.05-.28,.09-.58,.12-.88v-.02c.02-.11,.02-.21,.04-.32,0-.12,.02-.25,.04-.4,.02-.5,.03-1.15,.07-1.87,0-.27,.02-.53,.02-.81v-.3l.02-1.54,.02-.83c0-.18,.01-.38,.01-.6l-1.54,.03c-2.88,.07-6.42,.15-10.3,.21Z"/><path class="cls-1" d="M15.6,103.18c8.4,0,16.8-.17,22.36-.32,.33,0,.62-.02,.92-.03,0,0,0-.02,0-.03v-.51c.02-.09,.02-.14,.02-.23,.02-1.45,.03-2.81,.03-2.81-.07-2.48-.16-5.57-.25-9.1-.04-2.19-.09-4.58-.14-7.09l-.13-9.5c-14.39,.08-28.81,.04-37,0l-.14,9.47c-.05,2.51-.09,4.91-.14,7.11-.07,3.54-.16,6.63-.23,9.1,0,0,0,1.18,.02,2.79v.12s.02,.07,.02,.14v.27c0,.11,0,.23,0,.35,.08,0,.15,0,.23,0,4,.16,8.84,.25,14.41,.25Z"/><path class="cls-1" d="M38.41,72.28v-.56s-.03-2.02-.03-2.02l.04-.3v-.05l.04-.37h.02c0-.12,.02-.25,.02-.35,0-.35,0-.69-.04-1.04-.07-.69-.23-1.38-.46-2.05-.34-.9-.83-1.73-1.45-2.49-.3-.35-.62-.69-.95-1.01-.26-.25-.55-.48-.85-.71-.28-.21-.58-.42-.9-.62-.64-.39-1.34-.76-2.01-1.24-.37-.25-.71-.53-1.03-.81-.9-.85-1.63-1.86-2.21-2.94-.76-1.45-1.29-3.01-1.5-4.61-.02-.19-.04-.42-.05-.64l-.02-.56v-.42c0-.25-.02-.48-.02-.72v-.5c-.02-.39-.02-.78-.04-1.15v-.62c-.02-.41-.02-.8-.02-1.2-.02-.07-.02-.16-.02-.25-.02-1.01-.04-2-.05-2.99-.04-2.92-.07-5.75-.1-8.41-.02-2.67-.04-5.21-.05-7.53-.02-.41-.02-.81-.02-1.2v-.25c-.02-2.14-.02-4.06-.02-5.8v-3.64s-.02-1.4-.04-2.58v-.25c-.02-.74-.02-1.34-.02-1.34l-.16,.05c-.14,.02-.28,.04-.37,.04-.1-.02-.19-.02-.25-.02-.05-.02-.09-.02-.09-.02,0,0,.04-.02,.09-.02s.14,0,.23-.02c.11-.02,.23-.04,.36-.09,.12-.03,.26-.12,.39-.21,.13-.11,.19-.26,.18-.4-.02-.16-.13-.32-.28-.42-.09-.07-.18-.11-.27-.14-.11-.05-.19-.09-.3-.11-.1-.04-.21-.05-.34-.07l-.19-.04-.14-.02v-.27h.07s.04-.02,.09-.02,.14-.02,.23-.02c.11-.02,.23-.02,.35-.05,.03,0,.05,0,.09-.02-6.84-.14-11.56-.04-12.76,0,.03,0,.07,.02,.1,.02,.12,.04,.25,.04,.35,.05,.09,0,.18,.02,.23,.02s.07,.02,.07,.02h.09v.27l-.14,.02-.21,.04c-.1,.02-.21,.03-.32,.07-.11,.02-.21,.05-.3,.11-.1,.04-.19,.07-.26,.14-.16,.1-.28,.27-.28,.42-.04,.14,.05,.3,.18,.4,.11,.09,.25,.18,.39,.21,.13,.05,.23,.07,.34,.09,.11,.02,.18,.02,.23,.02,.07,0,.09,.02,.09,.02,0,0-.02,0-.07,.02-.05,0-.14,0-.25,.02-.11,0-.23-.02-.37-.04-.05-.02-.1-.04-.16-.05,0,0,0,.6-.02,1.34v.21c-.02,1.18-.05,2.62-.05,2.62,0,.99,.02,2.12,.02,3.39v.25c0,1.71-.02,3.66-.02,5.78v.25c-.02,.41-.02,.79-.02,1.22-.02,2.32-.04,4.86-.07,7.53-.04,2.67-.07,5.5-.1,8.41-.02,.99-.04,1.98-.05,2.99v.25c0,.41-.02,.8-.02,1.2,0,.12-.02,.25-.02,.35v.25c0,.39-.02,.78-.02,1.15v.51c-.02,.25-.02,.48-.02,.72-.02,.07-.02,.16-.02,.25v.74c-.02,.21-.03,.44-.07,.64-.19,1.61-.72,3.16-1.48,4.61-.58,1.08-1.31,2.09-2.23,2.94-.32,.28-.66,.57-1.01,.81-.69,.48-1.4,.85-2.03,1.24-.32,.19-.62,.4-.9,.62-.28,.23-.57,.46-.83,.71-.09,.07-.18,.16-.26,.25-.07,.07-.16,.16-.23,.25-.05,.04-.09,.09-.12,.14-.13,.12-.23,.25-.34,.37l-.02,.02c-.62,.74-1.11,1.57-1.43,2.48-.25,.67-.41,1.36-.46,2.05-.04,.35-.05,.69-.04,1.04,0,.11,.02,.23,.02,.35l.05,.35h-.02s.02,.05,.02,.07l.03,.3-.03,2.02v.57c8.18,.03,22.57,.07,36.95,0Z"/><path class="cls-7" d="M38.43,73.56l-.02-1.28c-14.38,.08-28.78,.04-36.96,0l-.02,1.28c8.19,.03,22.6,.07,37,0Z"/><path class="cls-7" d="M38.88,103.36c0-.17,0-.35,0-.53-.3,.01-.6,.02-.92,.03-5.56,.15-13.96,.32-22.36,.32-5.57,0-10.41-.08-14.41-.25-.08,0-.15,0-.23,0,0,.08,0,.17,0,.25v.02c0,.32,.01,.67,.02,1,.05,0,.09,0,.14,0,4.02,.16,8.89,.25,14.49,.25,3.89,0,7.77-.04,11.38-.09h.05c3.88-.06,7.42-.14,10.3-.21l1.54-.03c0-.2,0-.42,0-.65,0-.04,0-.08,0-.12Z"/><path class="cls-9" d="M39.83,67.45c-.07-.81-.25-1.63-.53-2.4-.55-1.55-1.55-2.95-2.74-4.06-.3-.28-.62-.55-.94-.8-.34-.26-.69-.49-1.02-.71-.69-.42-1.36-.78-1.95-1.2-2.33-1.65-3.77-4.54-4.17-7.37-.02-.18-.04-.34-.05-.51l-.02-.57c-.02-.37-.02-.76-.04-1.15-.02-.74-.05-1.5-.07-2.24-.05-1.5-.09-2.99-.14-4.44-.1-2.92-.21-5.74-.32-8.41-.1-2.65-.21-5.18-.32-7.51-.18-4.03-.35-7.48-.48-10.09l-.21-5.02s.07-.03,.09-.05c.16-.11,.32-.32,.3-.57,0-.27-.16-.48-.35-.64-.09-.07-.19-.14-.3-.18-.13-.05-.23-.1-.35-.14-.07-.02-.13-.04-.19-.04h.21c.07,0,.16,0,.23-.02,.07-.02,.25-.05,.27-.19,.02-.19,.04-.39,.04-.58,.02-.21,.02-.42,.04-.62v-.34c.02-.1,.02-.23,.02-.34v-.53h-.34v-.28c0-.07-.02-.16-.02-.16l.02-.02h.09l.16-.02c.05-.02,.09-.02,.12-.02,.04-.02,.07-.02,.09-.02h.02v-2.1c0-.34,0-.69-.02-1.02,0-.34,0-.67-.02-1.01,.02-.19-.05-.44-.19-.6-.07-.09-.14-.14-.19-.19l-.18-.18c-.23-.21-.46-.42-.69-.63l-.16-.16c-.07-.07-.16-.13-.25-.16-.18-.09-.39-.09-.51-.09-.18,0-.36-.02-.53-.02l-2.9-.05h-2.77l-2.92,.05c-.18,0-.36,.02-.53,.02-.12,0-.34,0-.49,.09-.1,.04-.18,.09-.25,.16l-.18,.16c-.21,.21-.44,.42-.69,.63l-.18,.18c-.05,.05-.12,.11-.19,.19-.12,.16-.19,.41-.19,.6,0,.34,0,.67-.02,1.01v1.02c-.02,.35-.02,.71-.02,1.06v1.04h.04s.04,0,.07,.02c.05,0,.09,0,.14,.02l.16,.02h.07l.03,.02s-.02,.09-.02,.16l-.02,.1v.18h-.32v.87c.02,.11,.02,.21,.02,.34,0,.19,.02,.4,.02,.62,.02,.19,.02,.39,.04,.58,.02,.14,.21,.18,.27,.19,.09,.02,.18,.02,.25,.02h.21c-.07,0-.14,.02-.21,.04-.1,.04-.23,.09-.34,.14-.11,.04-.21,.11-.32,.18-.18,.16-.34,.37-.35,.64-.02,.25,.14,.46,.3,.57,.04,.02,.07,.04,.1,.05l-.21,5.02c-.07,1.31-.14,2.83-.23,4.52-.09,1.68-.18,3.55-.27,5.57-.09,2.33-.19,4.86-.3,7.51-.11,2.67-.21,5.5-.32,8.41-.05,1.45-.11,2.93-.14,4.44-.03,.74-.05,1.5-.09,2.24,0,.39-.02,.78-.04,1.15v.57c-.02,.18-.04,.34-.05,.51-.41,2.83-1.84,5.73-4.17,7.37-.58,.42-1.26,.78-1.95,1.2-.35,.21-.69,.44-1.02,.71-.32,.25-.64,.51-.94,.8-1.2,1.11-2.19,2.51-2.74,4.06-.28,.78-.48,1.59-.53,2.4-.04,.41-.05,.81-.02,1.22,0,.21,.02,.41,.04,.6,.02,.11,.04,.21,.04,.3l.05,.27c0,.83,0,1.63,0,2.44,0,.43,0,.86,0,1.28,0,.21,0,.43,0,.64,.02,2.92,.04,5.74,.07,8.41,.04,2.67,.07,5.2,.09,7.53,.04,2.33,.08,4.46,.12,6.34H.44c.04,1.67,.08,3.15,.11,4.4l-.02,.02,.02,1.99v.27s.01,1.01,.01,1.01l.02,2.26v.04c-.02,.3-.04,.58-.04,.88-.02,.41-.02,.81,0,1.2s.02,.8,.05,1.16c.04,.39,.07,.78,.12,1.15,.11,.76,.25,1.47,.44,2.14,.03,.12,.07,.24,.11,.35,.18,.54,.39,1.03,.63,1.47,.07,.12,.14,.24,.21,.36,.24,.38,.51,.72,.78,.99,.37,.34,.72,.58,1.04,.72,.14,.05,.27,.12,.39,.18,.09,.02,.19,.05,.28,.09,.03,0,.34,.11,.35,.11h29.92s.32-.11,.34-.11c.11-.04,.19-.07,.3-.09,.12-.05,.25-.12,.37-.18,.34-.14,.69-.39,1.04-.72,.37-.35,.71-.81,1.01-1.34,.28-.53,.53-1.15,.72-1.82,.19-.67,.35-1.38,.46-2.14,.04-.37,.09-.76,.11-1.15,.04-.37,.05-.78,.07-1.16v-1.2c-.02-.3-.03-.58-.05-.88v-.04l.02-2.33v-1.3s.03-1.9,.03-1.9v-.02c.07-2.69,.16-6.36,.21-10.75,.04-2.33,.07-4.86,.11-7.53,.02-2.67,.05-5.5,.07-8.41,0-.21,0-.43,0-.65,0-.42,0-.85,0-1.28,0-.81,.01-1.61,.01-2.44l.04-.27c.02-.09,.04-.19,.04-.3,.04-.19,.05-.39,.05-.6,.02-.41,.02-.81-.02-1.22ZM13.44,2.09c-.02-.12,.02-.23,.09-.32,.02-.04,.07-.09,.14-.16l.16-.16c.23-.23,.44-.46,.66-.67,.25-.27,.32-.32,.65-.34,.28-.02,.57-.05,.83-.07,.23-.02,.44-.04,.65-.07,.57-.04,1.38-.07,2.35-.09h1.91c.99,.02,1.79,.05,2.37,.09,.21,.03,.42,.05,.65,.07,.27,.02,.55,.05,.83,.07,.32,.02,.4,.07,.63,.34,.21,.21,.44,.44,.66,.67l.18,.16c.05,.07,.12,.12,.14,.16,.07,.09,.09,.19,.09,.32,0,.34,0,.67-.02,1.01v1.02c-.02,.35-.02,.71-.02,1.06v.97h-.07v.02c0,.11-.02,.19-.02,.28v.57c-5.8-.41-11.43-.09-12.74,0v-.46l-.02-.1v-.28l-.02-.02h-.07v-2.03c0-.34,0-.69-.02-1.02v-1.01Zm-.09,6.86v-.11l.02-.28c0-.21,.02-.42,.02-.62,0-.13,.02-.23,.02-.34v-.44c.9-.07,6.91-.46,13.04,0v.1c.02,.11,.02,.23,.02,.34v.34c.02,.19,.02,.4,.04,.62l.02,.28v.11c-7.42-.16-12.41-.02-13.17,0Zm25.08,64.62l.13,9.5c.05,2.51,.11,4.89,.14,7.09,.09,3.54,.18,6.63,.25,9.1,0,0-.02,1.36-.03,2.81,0,.09,0,.14-.02,.23v.51s0,.02,0,.03c0,.18,0,.36,0,.53,0,.04,0,.08,0,.12,0,.23,0,.44,0,.65,0,.22,0,.43-.01,.6l-.02,.83-.02,1.54v.3c0,.28-.02,.55-.02,.81-.04,.72-.05,1.38-.07,1.87-.02,.16-.04,.28-.04,.4-.02,.11-.02,.21-.04,.32v.02c-.04,.3-.07,.6-.12,.88,0,.04-.02,.05-.02,.09-.02,.08-.04,.17-.07,.26-.1,.38-.25,.8-.46,1.23-.28,.6-.71,1.22-1.29,1.75-.34,.32-.74,.62-1.22,.85-.78,.42-1.73,.72-2.93,.83-.21,0-1.24,.03-2.64,.06-.26,0-.54,.01-.83,.02-.36,0-.72,.02-1.11,.02h-.02c-.06,0-.12,0-.17,0-2.5,.04-5.34,.1-6.9,.12h-1.91c-1.34-.02-3.71-.05-5.97-.11-.25,0-.51-.02-.76-.02-2.46-.05-4.62-.1-4.93-.1-.62-.05-1.17-.16-1.66-.32-.23-.05-.44-.13-.64-.21h-.02c-2.23-.9-3.18-2.66-3.57-4.05-.01-.03-.02-.07-.03-.1-.03-.11-.06-.22-.08-.32-.04-.28-.09-.58-.12-.88v-.02c0-.11-.02-.21-.02-.32-.04-.55-.07-1.34-.11-2.28v-.05c-.02-.28-.02-.58-.04-.9v-.16l-.04-1.61v-.34c0-.32-.01-.63-.02-.95,0-.34-.01-.68-.02-1v-.02c0-.09,0-.17,0-.25,0-.12,0-.23,0-.35v-.27c0-.07,0-.1-.02-.14v-.12c-.02-1.61-.02-2.79-.02-2.79,.07-2.48,.16-5.57,.23-9.1,.05-2.19,.09-4.6,.14-7.11l.14-9.47,.02-1.28v-.57s.04-2.02,.04-2.02l-.03-.3s0-.04-.02-.07h.02l-.05-.35c0-.12-.02-.25-.02-.35-.02-.35,0-.69,.04-1.04,.05-.69,.21-1.38,.46-2.05,.32-.9,.81-1.73,1.43-2.48l.02-.02c.11-.12,.21-.25,.34-.37,.04-.05,.07-.11,.12-.14,.07-.09,.16-.18,.23-.25,.09-.09,.18-.18,.26-.25,.27-.25,.55-.48,.83-.71,.28-.21,.58-.42,.9-.62,.64-.39,1.34-.76,2.03-1.24,.35-.25,.69-.53,1.01-.81,.92-.85,1.64-1.86,2.23-2.94,.76-1.45,1.29-3.01,1.48-4.61,.04-.19,.05-.42,.07-.64v-.74c0-.09,0-.18,.02-.25,0-.25,0-.48,.02-.72v-.51c0-.37,.02-.76,.02-1.15v-.25c0-.1,.02-.23,.02-.35,0-.41,.02-.8,.02-1.2v-.25c.02-1.01,.04-2,.05-2.99,.04-2.92,.07-5.75,.1-8.41,.04-2.67,.05-5.21,.07-7.53,0-.42,0-.81,.02-1.22v-.25c0-2.12,.02-4.06,.02-5.78v-.25c0-1.27-.02-2.4-.02-3.39,0,0,.03-1.43,.05-2.62v-.21c.02-.74,.02-1.34,.02-1.34,.05,.02,.11,.04,.16,.05,.14,.02,.27,.04,.37,.04,.11-.02,.19-.02,.25-.02,.05-.02,.07-.02,.07-.02,0,0-.02-.02-.09-.02-.05,0-.12,0-.23-.02-.11-.02-.21-.04-.34-.09-.14-.03-.28-.12-.39-.21-.12-.11-.21-.26-.18-.4,0-.16,.13-.32,.28-.42,.07-.07,.16-.11,.26-.14,.09-.05,.19-.09,.3-.11,.11-.04,.21-.05,.32-.07l.21-.04,.14-.02v-.27h-.09s-.02-.02-.07-.02-.14-.02-.23-.02c-.1-.02-.23-.02-.35-.05-.04,0-.07-.02-.1-.02,1.2-.04,5.92-.14,12.76,0-.04,.02-.05,.02-.09,.02-.13,.04-.25,.04-.35,.05-.09,0-.18,.02-.23,.02s-.09,.02-.09,.02h-.07v.27l.14,.02,.19,.04c.12,.02,.23,.03,.34,.07,.1,.02,.19,.05,.3,.11,.09,.04,.18,.07,.27,.14,.16,.1,.27,.27,.28,.42,.02,.14-.05,.3-.18,.4-.12,.09-.26,.18-.39,.21-.13,.05-.25,.07-.36,.09-.09,.02-.18,.02-.23,.02s-.09,.02-.09,.02c0,0,.04,0,.09,.02,.05,0,.14,0,.25,.02,.09,0,.23-.02,.37-.04l.16-.05s0,.6,.02,1.34v.25c.02,1.19,.04,2.58,.04,2.58v3.64c0,1.73,0,3.66,.02,5.8v.25c0,.39,0,.79,.02,1.2,.02,2.32,.04,4.86,.05,7.53,.04,2.67,.07,5.5,.1,8.41,.02,.99,.04,1.98,.05,2.99,0,.09,0,.18,.02,.25,0,.41,0,.8,.02,1.2v.62c.02,.37,.02,.76,.04,1.15v.5c0,.25,.02,.48,.02,.72v.42l.02,.56c.02,.21,.04,.44,.05,.64,.21,1.61,.74,3.16,1.5,4.61,.58,1.08,1.31,2.09,2.21,2.94,.32,.28,.66,.57,1.03,.81,.67,.48,1.38,.85,2.01,1.24,.32,.19,.62,.4,.9,.62,.3,.23,.58,.46,.85,.71,.34,.32,.66,.66,.95,1.01,.62,.76,1.11,1.59,1.45,2.49,.23,.67,.39,1.36,.46,2.05,.04,.35,.04,.69,.04,1.04,0,.11-.02,.23-.02,.35h-.02l-.04,.37v.05l-.04,.3,.03,2.02v.56s.02,1.28,.02,1.28Z"/></g></g></svg>