<?xml version="1.0" encoding="UTF-8"?><svg id="Layer_2" xmlns="http://www.w3.org/2000/svg" viewBox="0 0 27.76 96.77"><defs><style>.cls-1{fill:#0055b8;}.cls-2{fill:#e9edf3;}.cls-3{fill:#e7ebf2;}.cls-4{fill:#e3e9f0;}.cls-5{fill:#fff;}.cls-6{fill:#ff9e18;}.cls-7{fill:#ffd100;}.cls-8{fill:#b7c5d8;}.cls-9{fill:#cdd7e4;}.cls-10{fill:#a6b8d0;}.cls-11{fill:#adbdd3;}.cls-12{fill:#d8dfea;}.cls-13{fill:#c9d4e2;}.cls-14{fill:#dce3ec;}.cls-15{fill:#dae1eb;}.cls-16{fill:#c5d0e0;}.cls-17{fill:#231f20;}.cls-18{opacity:.8;}</style></defs><g id="Long_Island_Iced_Te"><g id="Triple_sec"><g><path class="cls-17" d="M6.49,58.83v-4.58h-1.44v-.91h3.93v.91h-1.44v4.58h-1.04Z"/><path class="cls-17" d="M9.04,58.83v-3.96h.89v.66c.13-.24,.27-.42,.44-.54,.16-.12,.34-.18,.54-.18,.04,0,.06,0,.08,0s.03,0,.05,.01v.97h-.05c-.21,0-.4,.05-.57,.16-.18,.11-.32,.26-.42,.46v2.42h-.95Z"/><path class="cls-17" d="M11.63,54.22v-.89h.94v.89h-.94Zm0,4.6v-3.96h.94v3.96h-.94Z"/><path class="cls-17" d="M14.48,58.45v1.81h-.91v-5.39h.68l.1,.43c.17-.18,.34-.31,.5-.39s.36-.12,.57-.12c.45,0,.82,.19,1.11,.57s.43,.88,.43,1.48-.14,1.11-.42,1.49c-.28,.38-.64,.57-1.09,.57-.2,0-.38-.04-.53-.11-.15-.07-.3-.19-.44-.34Zm0-.64c.13,.12,.25,.2,.36,.25,.11,.05,.23,.08,.34,.08,.26,0,.46-.11,.61-.34,.15-.23,.22-.55,.22-.95s-.07-.71-.22-.94c-.15-.22-.35-.33-.62-.33-.12,0-.23,.03-.34,.08-.11,.06-.23,.14-.36,.27v1.88Z"/><path class="cls-17" d="M17.69,58.83v-5.49h.94v5.49h-.94Z"/><path class="cls-17" d="M22.6,58.05c-.15,.28-.36,.49-.63,.64-.27,.14-.58,.21-.95,.21-.53,0-.94-.18-1.23-.54-.3-.36-.44-.86-.44-1.51s.15-1.15,.44-1.52,.7-.55,1.22-.55,.92,.18,1.21,.53c.29,.35,.43,.84,.43,1.48,0,.02,0,.06,0,.1,0,.05,0,.08,0,.1h-2.37c0,.38,.08,.66,.22,.85,.14,.19,.35,.28,.62,.28,.17,0,.32-.04,.45-.12,.13-.08,.25-.21,.36-.39l.69,.42Zm-2.32-1.71h1.45c0-.26-.06-.47-.19-.62-.13-.15-.3-.22-.53-.22-.21,0-.38,.07-.51,.22s-.2,.35-.22,.62Z"/><path class="cls-17" d="M9.31,63.63l.94-.42c.14,.29,.31,.51,.49,.64,.18,.13,.39,.2,.63,.2,.28,0,.49-.06,.65-.19,.16-.13,.24-.3,.24-.51,0-.17-.06-.31-.18-.43-.12-.11-.33-.23-.64-.34-.04-.02-.1-.04-.18-.07-.54-.2-.91-.36-1.13-.5-.21-.13-.37-.3-.48-.51s-.17-.44-.17-.7c0-.44,.17-.8,.5-1.08s.76-.42,1.3-.42c.47,0,.85,.1,1.17,.3s.54,.5,.68,.9l-.94,.34c-.12-.25-.25-.43-.41-.54-.16-.11-.35-.17-.58-.17s-.4,.05-.53,.16c-.13,.11-.19,.25-.19,.43,0,.28,.32,.54,.95,.79,.19,.08,.35,.14,.46,.18,.53,.23,.89,.45,1.08,.69,.19,.23,.29,.54,.29,.91,0,.51-.17,.9-.5,1.2-.33,.29-.79,.43-1.37,.43-.5,0-.93-.11-1.28-.33-.35-.22-.62-.55-.79-.98Z"/><path class="cls-17" d="M17,64.09c-.15,.28-.36,.49-.63,.64-.27,.14-.58,.21-.95,.21-.53,0-.94-.18-1.23-.54-.29-.36-.44-.86-.44-1.51s.15-1.15,.44-1.52,.7-.55,1.22-.55,.92,.18,1.21,.53c.29,.35,.43,.84,.43,1.48,0,.02,0,.06,0,.1s0,.08,0,.1h-2.37c0,.38,.08,.66,.22,.85,.14,.19,.35,.28,.62,.28,.17,0,.32-.04,.45-.12,.13-.08,.25-.21,.36-.39l.69,.42Zm-2.32-1.71h1.45c0-.26-.06-.47-.19-.62-.13-.15-.3-.22-.53-.22-.21,0-.38,.07-.51,.22-.13,.15-.2,.35-.22,.62Z"/><path class="cls-17" d="M20.02,63.55l.73,.38c-.13,.33-.33,.58-.6,.75s-.58,.25-.96,.25c-.56,0-.98-.17-1.27-.52-.29-.35-.43-.86-.43-1.53,0-.63,.15-1.13,.46-1.5,.31-.37,.72-.55,1.25-.55,.37,0,.69,.09,.95,.27s.45,.43,.57,.76l-.78,.34c-.07-.21-.16-.36-.27-.45-.11-.1-.24-.14-.4-.14-.29,0-.5,.11-.63,.32-.13,.21-.2,.55-.2,1.01,0,.41,.06,.71,.19,.91,.13,.2,.32,.3,.58,.3,.19,0,.35-.05,.48-.14,.14-.1,.25-.25,.35-.45Z"/></g><g><path class="cls-6" d="M26.55,66.52l-.09-.65c-2.31,.34-5.16,.54-8.11,.65H2.98c-1.15-.03-1.84-.06-1.87-.07l-.06,1.43c.09,0,4.56,.19,10.09,.19,5.16,0,11.24-.16,15.53-.79l-.1-.72c.07-.02,.15-.03,.22-.04h-.23Z"/><path class="cls-6" d="M27.3,50.81l-.2-1.42c-9.09,1.29-26.17,.6-26.34,.59l-.06,1.43c.09,0,4.74,.19,10.48,.19,5.36,0,11.68-.16,16.12-.79Z"/><path class="cls-6" d="M9.26,8.48s0,.04,.01,.08c.03,.07,.07,.16,.11,.29,.7-.08,2.34-.27,4.34-.3h.33c2,.03,3.64,.22,4.32,.3,.05-.12,.1-.22,.12-.29,.01-.04,.01-.07,.01-.08l.03-.1c.01-.15,.01-.36,.01-.55,0-.38,.05-.81,.07-1.2,.04-.7,0-1.33-.18-1.93-.11,0-.19-.03-.29-.03-.41-.04-.82-.08-1.22-.12-.38-.04-.75-.07-1.08-.11-.67-.1-1.24-.16-1.64-.21-.14-.01-.25-.01-.33-.03-.08,.01-.18,.01-.33,.03-.4,.04-.96,.11-1.64,.21-.34,.04-.7,.07-1.08,.11-.4,.04-.81,.08-1.23,.12-.08,0-.18,.03-.29,.03-.18,.6-.22,1.23-.18,1.93,.03,.4,.07,.82,.07,1.2,0,.19,0,.4,.03,.55l.03,.1Z"/><path class="cls-6" d="M9.08,2.67l.22,.73c.01,.07,.04,.26,0,.44,.41-.01,.83-.01,1.22-.01,.41,0,.78,.01,1.12,.04,.68,.01,1.24,.07,1.67,.11,.29,.04,.47,.08,.55,.11-.04,.03-.1,.03-.19,.03,.08,0,.15,0,.22,.03,.05-.03,.14-.03,.22-.03-.08,0-.15,0-.19-.03,.08-.03,.25-.07,.53-.11,.42-.04,.98-.1,1.68-.11,.34-.03,.71-.04,1.11-.04s.81,0,1.23,.01c-.04-.18-.03-.37,0-.44l.22-.73c.03-.11,.04-.19,.07-.29,0-.04,0-.08,.03-.11v-.18c.01-.23,.01-.42,0-.6,0-.18-.07-.29-.1-.31-.03,0-.08-.04-.18-.07-.08-.04-.18-.07-.29-.08-.4-.07-.78-.15-1.18-.21-.38-.07-.73-.11-1.08-.15-.15,0-.29-.03-.44-.03h-.79c-.26-.01-.55-.01-.81-.01h-.1c-.25,0-.53,0-.81,.01h-.78c-.16,0-.29,.03-.45,.03-.34,.04-.68,.08-1.07,.15-.4,.05-.78,.14-1.18,.21-.12,.01-.21,.04-.29,.08-.1,.03-.16,.07-.18,.07-.03,.03-.08,.14-.08,.31-.03,.18-.03,.37,0,.6v.18s.01,.07,.01,.11c.01,.1,.04,.18,.07,.29Z"/><path class="cls-6" d="M9.12,10.42v.82c-.03,.42-.05,.74-.05,1.12v9.55c1.54-.1,5.8-.32,9.6-.02V12.37c0-.38-.03-.7-.04-1.12v-.82c0-.07,0-.13-.03-.2-.04-.21-.19-.5-.25-.9-.66-.08-2.36-.29-4.49-.31-2.11,.03-3.83,.24-4.5,.31-.04,.4-.19,.69-.25,.9,0,.07,0,.13,0,.2Z"/><path class="cls-6" d="M9.05,31.94v2.36c1.66,.1,5.91,.31,9.66,0v-2.35c0-2.44,0-4.93,0-7.41-3.81-.31-8.09-.1-9.64,0,0,2.49,0,4.96,0,7.4Z"/></g><path class="cls-1" d="M18.41,93.25c-.07,0-.15,0-.28-.02-.24-.02-.57-.07-.96-.11-.22-.04-.44-.07-.66-.09-.24-.02-.48-.07-.72-.09-.26-.02-.53-.04-.79-.07-.26-.04-.53-.04-.79-.07h-.81c-.26,0-.5,.02-.77,.04-.24,.02-.48,.04-.7,.09-.24,.04-.46,.07-.66,.11-.39,.09-.7,.2-.94,.26-.22,.07-.35,.11-.35,.11,0,0,.11-.07,.33-.18,.22-.13,.53-.26,.92-.42,.2-.07,.39-.13,.64-.18,.22-.07,.48-.11,.72-.15,.26-.04,.53-.07,.81-.07,.26-.02,.55-.02,.83-.02,.26,.02,.55,.04,.81,.07s.53,.07,.79,.11,.5,.09,.72,.13c.24,.07,.46,.11,.66,.15,.39,.11,.72,.2,.94,.28,.11,.04,.2,.07,.26,.09Z"/><path class="cls-1" d="M17.93,93.56s-.11,.04-.26,.13c-.18,.07-.44,.18-.77,.28-.15,.04-.33,.11-.5,.15-.2,.04-.39,.09-.59,.13-.22,.04-.42,.09-.64,.11-.22,.02-.44,.04-.68,.07-.22,0-.44,.02-.66,.02s-.44-.02-.66-.02c-.2-.02-.39-.04-.59-.07-.2-.02-.37-.07-.53-.09-.33-.07-.61-.13-.79-.2-.09-.02-.15-.04-.2-.07,.04,0,.13,.02,.22,.02,.18,0,.46,.04,.79,.07,.15,0,.35,.02,.53,.02,.2,.02,.39,0,.59,.02,.2,0,.42,0,.64-.02,.22,0,.44,0,.64-.02,.22-.02,.44-.02,.66-.04,.22-.02,.42-.07,.64-.09,.2-.02,.39-.04,.57-.09,.2-.02,.37-.07,.53-.09,.33-.07,.59-.13,.79-.18,.17-.04,.28-.07,.28-.07Z"/><path class="cls-1" d="M14.86,93.65s-.04,0-.09,.02c-.07,.02-.18,.07-.28,.09-.07,0-.13,.02-.2,.02s-.13,.02-.22,.02h-.46c-.09,0-.18-.02-.24-.02-.09,0-.15-.02-.24-.02l-.2-.07c-.09,0-.13-.02-.2-.04-.11-.04-.2-.07-.26-.11-.07-.02-.11-.04-.11-.04,0,0,.04,.02,.11,.02,.09,0,.18,.02,.28,.04,.07,0,.13,0,.2,.02,.07,0,.13,0,.2,.02,.09,0,.15,0,.22,.02h.24c.09,0,.15,.02,.24,.02h1.01Z"/><path class="cls-1" d="M21.88,93.47c-.07,.04-.18,.09-.31,.13-.28,.11-.66,.24-1.14,.39-.24,.09-.5,.15-.79,.24-.26,.07-.57,.13-.88,.22-.31,.07-.61,.13-.94,.18-.33,.07-.66,.11-.99,.18-.33,.02-.66,.07-.99,.09-.33,.04-.66,.04-.96,.07-.33,0-.64,.02-.92,.02-.28-.02-.55-.02-.81-.04-.48,0-.9-.04-1.21-.09-.28-.02-.44-.04-.44-.04h.44c.31,0,.72,.02,1.21,0,.26,0,.53,0,.81-.02,.28,0,.59-.02,.9-.04,.31-.02,.64-.04,.96-.07,.33-.04,.66-.09,.99-.11,.33-.07,.66-.09,.96-.15,.33-.04,.64-.11,.94-.18,.31-.07,.61-.11,.88-.18,.28-.07,.55-.13,.79-.2,.48-.11,.88-.24,1.16-.31,.13-.04,.26-.09,.33-.09Z"/><path class="cls-1" d="M17.52,91.45c.46,.02,.81,.07,1.05,.09,.13,0,.22,.02,.31,.02-.07,0-.17-.02-.28-.04-.24-.04-.61-.11-1.05-.17-.46-.09-1.01-.15-1.64-.22-.55-.06-1.18-.11-1.85-.14v.3c.66,0,1.28,.02,1.83,.06,.64,.02,1.18,.07,1.64,.11Z"/><polygon class="cls-7" points="2.21 83.05 2.21 83.05 2.21 83.05 2.21 83.05"/><path class="cls-1" d="M27.68,45.05c-.04-.11-.07-.21-.12-.34-.04-.07-.07-.14-.14-.19-.03-.05-.03-.1-.08-.14-.04-.03-.04-.04-.1-.1-.89-.67-1.82-1.39-2.77-2.11-.49-.37-.96-.73-1.44-1.1l-.27-.22c-.54-.4-1.03-.95-1.47-1.47-.29-.36-.58-.7-.8-1.1-.51-.85-.73-1.8-.82-2.77-.03-.44-.03-23.97-.04-24.29v-.66s.01-.21,.01-.21c-.01-.14-.04-.23-.05-.34-.11-.47-.27-.75-.23-.95,0,0,0-.07,.05-.15,.01-.04,.04-.11,.07-.19,.01-.1,.04-.16,.04-.19,.01-.26,.01-.47,.01-.69,0-.38,.05-.75,.07-1.17,.04-.6,.04-1.33-.12-2.02h.15s.11-.27,.11-.27c.07-.1,.08-.25,.07-.38-.03-.14-.07-.25-.11-.33-.03-.04-.07-.11-.1-.14t0-.08l.18-.29,.03-.44-.03-.34v-.19s0-.07,.03-.12c0-.22,.04-.44,.01-.71,0-.16-.01-.29-.05-.47-.07-.15-.18-.32-.34-.43-.08-.07-.18-.11-.25-.14-.05-.03-.12-.04-.19-.07-.12-.04-.22-.04-.34-.07-.44-.07-.85-.08-1.26-.11-.4-.01-.78-.01-1.12,0h-.29c-.22-.01-.47-.04-.71-.07-.27,0-.54,0-.81-.01h-1.14c-.25,.01-.53,.01-.78,.01-.27,.03-.49,.05-.73,.07h-.3c-.33-.01-.7-.01-1.1,0-.41,.03-.84,.04-1.28,.11-.11,.03-.22,.03-.34,.07-.05,.03-.14,.04-.21,.07-.07,.03-.15,.07-.25,.14-.14,.11-.26,.27-.32,.43-.04,.18-.07,.3-.07,.47-.03,.27,.03,.49,.03,.71,.01,.05,.01,.1,.01,.12v.54s0,.44,0,.44l.18,.29q.03,.05,0,.08s-.07,.1-.1,.14c-.03,.08-.08,.19-.1,.33-.03,.14,0,.29,.07,.38l.1,.29h.15c-.18,.67-.18,1.4-.12,2,.03,.41,.05,.78,.05,1.17,0,.22,0,.43,.04,.69,0,.03,.03,.1,.03,.19,.03,.08,.04,.15,.07,.19,.04,.08,.04,.15,.04,.15,.04,.19-.11,.48-.21,.95-.03,.11-.05,.21-.08,.34v.21l.03,.12v.54c-.03,.33,0,23.86-.04,24.29-.08,.97-.3,1.92-.81,2.77-.22,.4-.51,.74-.81,1.1-.44,.52-.92,1.07-1.47,1.47l-.26,.22c-.49,.37-.97,.73-1.45,1.1-.93,.73-1.88,1.44-2.76,2.11-.05,.05-.05,.07-.11,.1-.04,.04-.05,.08-.08,.14-.07,.05-.1,.12-.14,.19-.04,.14-.08,.23-.11,.34-.14,.69-.08,3.7-.07,4.53,.1,1.59,.18,3.17,.25,4.73,.26,5.39,.48,10.45,.7,15.16,.21,4.69,.38,8.99,.58,12.8,.18,3.83,.32,7.15,.44,9.88,0,.16,0,.34,.03,.54,0,.23,.07,.45,.19,.73,.05,.18,.15,.36,.22,.52,.12,.29,.25,.62,.41,.88,.08,.1,.21,.21,.32,.27l.33,.12c.38,.18,.8,.33,1.19,.47,.43,.12,.81,.22,1.23,.33,.78,.16,1.56,.32,2.3,.43,.75,.12,1.45,.18,2.11,.22,.22,0,.43,0,.62,.03,.97,.07,1.89,.1,2.77,.1h.75c.75,0,1.54-.04,2.35-.1,.19-.03,.41-.03,.63-.03,.63-.04,1.34-.1,2.09-.22,.75-.11,1.55-.26,2.33-.43,.41-.11,.8-.21,1.23-.33,.38-.14,.8-.29,1.19-.47l.32-.12c.11-.07,.23-.18,.32-.27,.18-.26,.29-.59,.43-.88,.07-.16,.15-.34,.22-.52,.11-.27,.18-.49,.18-.73,.01-.19,.01-.37,.01-.54,.14-2.73,.29-6.05,.47-9.88,.16-3.81,.36-8.11,.58-12.8,.22-4.71,.44-9.77,.69-15.16,.07-1.56,.15-3.14,.25-4.73,.01-.82,.07-3.84-.05-4.53ZM8.99,1.5c0-.18,.05-.3,.08-.32,.01,0,.08-.04,.18-.07,.08-.04,.16-.07,.29-.08,.4-.07,.78-.15,1.18-.21,.38-.07,.73-.11,1.07-.15,.16,0,.29-.03,.45-.03h.77c.29-.01,.56-.01,.82-.01h.08c.26,0,.55,0,.81,.01h.8c.15,0,.29,.03,.44,.03,.36,.04,.7,.08,1.08,.15,.4,.05,.77,.14,1.18,.21,.1,.01,.19,.04,.27,.08,.1,.03,.15,.07,.18,.07,.03,.01,.1,.14,.1,.32,.01,.18,.01,.36,0,.6v.16s-.01,.08-.01,.12c-.04,.1-.05,.18-.08,.27l-.22,.73c-.01,.07-.04,.26,0,.44-.43-.01-.82-.01-1.23-.01-.38,0-.75,.01-1.1,.04-.7,.01-1.26,.07-1.69,.11-.29,.04-.45,.08-.54,.11,.04,.03,.11,.03,.19,.03-.08,0-.16,0-.22,.03-.07-.03-.14-.03-.22-.03,.1,0,.15,0,.19-.03-.08-.03-.26-.07-.55-.11-.43-.04-.97-.1-1.66-.11-.34-.03-.71-.04-1.12-.04-.38,0-.81,0-1.22,.01,.04-.18,.01-.37,0-.44l-.22-.73c-.03-.1-.04-.18-.07-.27,0-.04,0-.1-.01-.12v-.16c-.03-.25-.03-.43,0-.6Zm9.62,5.13c-.01,.41-.07,.84-.07,1.22v.54l-.04,.1s0,.05-.01,.08c-.03,.07-.07,.16-.12,.29-.67-.07-2.32-.27-4.32-.29h-.33c-2,.01-3.64,.22-4.33,.29-.04-.12-.08-.22-.11-.29-.01-.03-.01-.07-.01-.08l-.03-.1c-.03-.14-.03-.36-.03-.54,0-.38-.04-.81-.07-1.22-.04-.69,0-1.32,.18-1.92,.11,0,.21-.03,.29-.03,.43-.04,.84-.08,1.23-.12,.38-.04,.74-.07,1.08-.11,.67-.1,1.23-.15,1.63-.21,.15-.01,.25-.01,.33-.03,.08,.01,.19,.01,.33,.03,.4,.05,.97,.11,1.65,.21,.33,.04,.69,.07,1.08,.11,.38,.04,.8,.08,1.21,.12,.1,0,.18,.03,.3,.03,.16,.6,.21,1.23,.16,1.92Zm8.38,41.94l-.22,4.86c-.03,.29-.04,.58-.04,.86,0,.16,0,.34-.03,.52l-1.15,28.05-.38,9.48c-.38-.19-.81-.34-1.23-.44-.49-.15-1.03-.27-1.52-.4-.51-.07-1.03-.14-1.51-.21-.51-.08-1.02-.12-1.52-.18-.26-.03-.52-.05-.78-.07l4.06,1.1c.38,.07,.75,.16,1.12,.29,.37,.1,.73,.25,1.07,.37-.54,.51-1.98,1.5-5.45,2.24-.23,.04-.45,.07-.59,.1-.12,.01-.22,.04-.29,.05,.91-.1,4.72-.58,6.39-1.56-.04,.14-.08,.25-.12,.37-.07,.19-.14,.4-.25,.52,0,0-4.27,1.8-10.69,1.77-6.39,.03-10.66-1.77-10.66-1.77-.12-.12-.16-.33-.25-.52-.04-.12-.07-.23-.12-.37,1.78,1.06,6.01,1.51,6.53,1.59-.08-.03-.23-.05-.41-.08-.16-.03-.38-.05-.6-.1-3.46-.74-4.9-1.73-5.46-2.24,.37-.12,.7-.27,1.08-.37,.48-.18,.99-.29,1.48-.37,.49-.1,1-.19,1.48-.26,.53-.1,1-.15,1.48-.19,.96-.12,1.91-.21,2.81-.25,.91-.05,1.73-.07,2.52-.07h.29v-.3c-.11,0-.19-.03-.29-.03-.8-.03-1.65-.03-2.54-.03-.92,.01-1.88,.08-2.84,.18-.52,.05-1,.1-1.51,.18-.49,.07-1.02,.14-1.51,.21-.51,.12-1.04,.25-1.54,.4-.43,.1-.84,.25-1.22,.44l-.14-3.21L1.05,54.8c-.01-.18-.01-.36-.01-.52l-.25-5.28c-.04-.66-.08-1.29-.08-1.93,0-.41,.01-.81,.05-1.19,.03-.22,.07-.4,.12-.58,.01-.08,.04-.18,.08-.25,.03-.04,.03-.07,.07-.11,.88-.66,1.78-1.32,2.69-1.99,1.18-.85,2.52-1.58,3.48-2.7,.86-1.02,1.45-2.39,1.67-3.72,.07-.38,.12-.77,.15-1.19v-1.03s.01-2.37,.01-2.37c0-2.43,0-4.91,.01-7.39,0-.59,0-1.18,.01-1.76V12.36c0-.37,.01-.7,.04-1.12v-.81c0-.07,0-.14,.01-.21,.05-.21,.21-.49,.25-.89,.67-.08,2.4-.29,4.5-.32,2.13,.03,3.83,.23,4.49,.32,.05,.4,.21,.69,.25,.89,.03,.07,.03,.14,.03,.21v.81c.01,.43,.04,.75,.04,1.12v10.43c.01,.58,.01,1.17,.01,1.74,.01,2.48,.01,4.98,.01,7.41v3.4c.05,.43,.11,.81,.18,1.19,.21,1.33,.8,2.7,1.67,3.72,.96,1.12,2.29,1.85,3.47,2.7,.91,.67,1.8,1.33,2.7,1.99,.04,.04,.04,.07,.07,.11,.03,.07,.07,.16,.08,.25,.04,.18,.1,.36,.11,.58,.03,.38,.05,.78,.05,1.19,0,.51-.03,.99-.05,1.5Z"/><g class="cls-18"><g class="cls-18"><path class="cls-10" d="M16.85,43.98c-.16,.54,0,.22,.13,.05v-.05c-.06,0-.1,0-.13,0Z"/><path class="cls-10" d="M16.97,43.98v.05s.04-.04,.06-.05h-.06Z"/><path class="cls-10" d="M16.94,43.71c-.04,.11-.06,.2-.09,.27,.03,0,.08,0,.12,0-.02-.07-.03-.15-.03-.27Z"/><path class="cls-10" d="M17.03,43.98s.04,0,.06,0c0-.04-.03-.03-.06,0Z"/><path class="cls-2" d="M20.71,41.85c-.1-.46-.59-1.1-.82-1.41-.38-.45-.79-.76-1.1-1.01,.09,.38,.17,.77,.27,1.07,.07,.22,.17,.39,.29,.52,.04,.04,.07,.07,.09,.09l.03,.02,.09,.06h0s0,0,0,0l.03,.02s.08,.05,.13,.07c.09,.03,.36,.18,.53,.28,.15,.09,.32,.18,.46,.28Z"/><path class="cls-4" d="M18.12,38.9c-.08-.09-.1-.16-.16-.22,0,.17,.03,.28,.16,.22Z"/><path class="cls-2" d="M20.6,41.89c-.15-.1-.3-.18-.47-.27-.16-.09-.46-.24-.51-.24-.05-.02-.09-.04-.13-.07-.19-.13-.17-.13-.25-.21-.12-.13-.21-.28-.28-.51-.09-.29-.17-.67-.25-1.05-.51-.39-.71-.61-.78-.76-.11,.07-.16-.03-.15-.19-.24-.27-.54-.39-1.09-.45-.63-.02-1.24-.12-2.62-.31-.1-.02-.45-.09-.74-.19l-.16-.29c-.49-.22-.72,.08-.77,.13-.05,0-.18,.35-.13,.34h0c-.02-.21,.27-.58,.77-.35l.12,.21s.04,.02,.07,.03c.11,.06,.27,.11,.39,.16,.27,.11,.5,.21,.75,.28,.25,.07,.45,.16,.83,.14,.29-.06-.01,.34,.22,.31,.3,.04,.42,.16,.5,.33,.07,.17,.15,.36,.39,.37,.43-.03,.84-.36,.95-.07,.05,.02,.24-.15,.28-.12,.11,.17,.18,.34,.34,.58,.18,.24,.51,.57,.86,1.01,.21,.13,.03,.99,.31,.95,.35,0,.38-.12,.58-.1,.21,.04,.45,.16,.6,.24,.05,.08-.3,.53-.22,.66,.19,.57,.73,.81,.73,1.33,.03-.05,.07-.09,.1-.13,.07-.55,0-1.13-.23-1.76Z"/><g><path class="cls-2" d="M20.53,45.12c-.02-.07-.03-.13-.05-.17-.26,.45-.21,.84-.4,1.25,.18-.36,.3-.7,.44-1.08Z"/><path class="cls-2" d="M20.72,44.41l-.02,.02c.07-.25,.1-.5,.13-.78-.03,.04-.06,.08-.1,.13,0,.14-.02,.29-.1,.45-.02,.05-.04,.09-.06,.13,.02,.03,.05,.07,.08,.12l-.04,.04c-.16,.16-.15,.29-.13,.43l.07-.12c.08-.15,.14-.29,.17-.43Z"/></g><path class="cls-13" d="M17.75,45.36c.03-.29-.83,0-.83-.09,0-.05-.03-.05-.09-.03-.03,.02-.06,.04-.09,.06,.02-.02,.05-.05,.09-.08-.27,.25-.11,.09,0,.13,.16,0,.42,0,.72,.09,.05-.02,.11-.05,.2-.07Z"/><path class="cls-16" d="M19.94,46.06c-.09-.08-.23-.18-.31-.34-.16-.26-.03-.55-.12-.78-.08-.34-.47-.59-.83-.73-.35-.17-.59-.18-.38-.87,.1-.66-.25-.98-.62-1.06-.37-.08-.8,.03-1.15-.12-.14-.05-.51,.26-.66,.19-.48-.25-.87-.53-1.23-.85-.28-.27,.39-1.05-.03-1.15-.04-.03,.18-.36,.15-.39-.42-.23-.74-.59-1.04-.96-.27-.39-.57-.79-.84-1.23l-.05-.09c-.27-.18-.53,.01-.54,.18t0,0c.08-.13,.29-.14,.38-.03h0c.17,.62,.14,1.36,.31,2.05,.11,.58,.37,1.12,.75,1.55,.37,.45,.79,.83,1.17,1.36,.36,.48,.88,.95,1.48,1.05,.03-.08,.06-.17,.09-.28,0,.12,.03,.22,.05,.29h.07s.07-.05,.07,0c-.03,0-.05,0-.07,0-.01,.01-.03,.03-.05,.05,.25,.51,.93-.47,.94-.07,0,.16,0,.27,0,.35v.05s.07,.05-.05-.02l.02,.03s.07,.08,.11,.11c.07,.06,.02,0,.1,0,.06,0,.14,0,.21,0,.31,.02,.69,.2,.73,.47,.19,.49,.96,.85,1.36,1.27,0-.02-.01-.03-.02-.05Z"/><path class="cls-9" d="M20.13,45.97s.04-.05,.05-.07c-.07-.46-.34-1.05-.43-1.67-.02-.05,.2-.27,.3-.45,.06-.39-.71-.12-.69-.39,0-.31-.03-.62-.19-.94-.08-.15-.14-.28-.2-.39-.17-.18-.23-.27-.36-.38-.48-.42-.96-.58-1.31-.65-.67-.13-1.56-.13-2.26-.58-.07-.05,.71-.76,.74-.96-.12-.28-.51-.3-.37-.73,.09-.11-.42,.13-.66,.14-.4,0-.53-.19-.67-.37-.12-.19-.36-.32-.66-.48-.18-.08-.3-.19-.42-.31l-.08-.14c-.35-.2-.63,.07-.63,.25v.02c.01-.17,.28-.36,.54-.18l.05,.09c.27,.44,.57,.83,.84,1.23,.3,.38,.62,.73,1.04,.96,.03,.03-.18,.36-.15,.39,.33,.08-.32,.82,.03,1.15,.37,.32,.75,.59,1.23,.85,.15,.07,.53-.24,.66-.19,.35,.15,.77,.04,1.15,.12,.37,.07,.72,.4,.62,1.06-.2,.69,.03,.7,.38,.87,.37,.14,.75,.39,.83,.73,.09,.23-.04,.52,.12,.78,.08,.16,.21,.26,.31,.34-.02-.11,.1-.19,.21-.21,0,.03-.02,.08-.03,.13Z"/><path class="cls-14" d="M20.07,46.25c-.04-.13,.23-.42,.03-.18,0-.05,.01-.09,.02-.12-.09,.02-.17,.09-.13,.19,.04,.04,.06,.07,.08,.11Z"/><path class="cls-14" d="M20.23,45.85c.03-.07,.04-.13,.07-.19,.02-.39,.02-.8,.28-1.3-.08-.13-.11-.26,.05-.45,.04-.05,.08-.09,.11-.13,0-.51-.53-.76-.73-1.33-.07-.13,.27-.58,.22-.66-.14-.08-.38-.2-.6-.24-.2-.02-.22,.11-.58,.1-.28,.04-.1-.82-.31-.95-.35-.44-.68-.77-.86-1.01-.16-.24-.23-.41-.34-.58-.04-.02-.23,.14-.28,.12-.11-.29-.52,.04-.95,.07-.24,0-.32-.19-.39-.37-.08-.17-.2-.29-.5-.33-.23,.03,.07-.37-.22-.31-.38,.02-.58-.07-.83-.14-.26-.07-.48-.17-.75-.28-.12-.05-.28-.09-.39-.16-.03-.01-.05-.02-.07-.03l-.12-.21c-.5-.24-.79,.14-.77,.35h0s0,.03,0,.03c0-.18,.28-.45,.63-.25l.08,.14c.13,.11,.24,.23,.42,.31,.31,.16,.54,.29,.66,.48,.13,.18,.26,.37,.67,.37,.24,0,.75-.25,.66-.14-.15,.43,.25,.45,.37,.73-.04,.2-.81,.91-.74,.96,.7,.45,1.59,.45,2.26,.58,.35,.07,.83,.23,1.31,.65,.13,.11,.2,.2,.36,.38,.06,.11,.12,.24,.2,.39,.16,.33,.19,.63,.19,.94-.02,.26,.75,0,.69,.39-.1,.19-.32,.41-.3,.45,.08,.62,.35,1.21,.43,1.67,.03-.03,.04-.05,.04-.05Z"/><path class="cls-13" d="M14.47,44.18c.24,.15,.48,.32,.82,.53,.02,0,.06,.03,.13,.07-.31-.23-.58-.52-.95-.6Z"/><path class="cls-13" d="M15.9,45.05c.31,.16,.55,.26,.64,.3,0-.35-.09-.61-.31-.67,0,0-.25,.38-.33,.37Z"/><g><path class="cls-11" d="M18.09,45.54c.59,.11,1.1,.35,1.73,.59-.56-.26-.93-.54-1.73-.59Z"/><path class="cls-8" d="M19.96,46.11c-.4-.42-1.17-.78-1.36-1.27-.04-.27-.42-.46-.73-.47-.08,0-.15,0-.21,0-.07,0-.03,.06-.1,0-.04-.03-.08-.07-.11-.11l-.02-.03c.12,.07,.03,0,.05,.02v-.05c-.01-.07-.01-.19,0-.35-.01-.4-.69,.58-.94,.07-.14,.17-.34,.49-.17-.06-.61-.1-1.13-.57-1.48-1.05-.38-.53-.8-.91-1.17-1.36-.38-.44-.64-.97-.75-1.55-.16-.69-.14-1.43-.31-2.06h0c-.09-.1-.3-.09-.38,.04,0-.01,.06-.05,.13,0,.1,.03,.08,.23,.11,.11h0s-.24-.04-.24-.04c-.23,.62-.57,1.39-.53,2.02-.04,.67,.15,1.26,.41,1.8,.34,.3,.68,.56,.87,.99-.18-.14-.37-.27-.58-.38,.31,.46,.72,.84,1.17,1.21,0-.02-.01-.03-.02-.05,.11,.09,.21,.18,.32,.28,.35,.12,.59,.43,.87,.7,.1,.07,.27,.19,.46,.32,.07,.02,.8,.09,.86,.46,.06,.02,.09,.03,.11,.04,.22,.1,.36,.19,.41,.26,.01,.02,.02,.03,.03,.04,.02-.03-.04,.1,.04-.05l.21-.39,.08-.13,.02-.03h0s-.14,0-.14,0h0s0,0,0,0h0s0,0,0,0h0s.03,.03,.03,.03c.05,.05,.1,.09,.13,.13-.04,.01-.09,.01-.13,.01-.09,.03-.13,.11-.24,.2-.06,.04,.03,0,.13,0,.13-.02,.29-.03,.25,0,.13,0,.28,0,.43,.03,.7-.04,1.33,.13,1.71,.41,.12,.06,.26,.12,.42,.19,.28,.12,.37,.18,.4,.19-.02-.03-.04-.06-.05-.08Z"/></g></g></g><g class="cls-18"><g class="cls-18"><path class="cls-3" d="M20.95,81.04c-.1-.41-.08-.84-.07-1.25,0-.41,0-.8-.4-1.16-.08-.08-.17-.16-.26-.24l-.03,.12c-.25,.92,.04,1.92,.41,2.86,.3,.58,.59,1.18,.7,1.82,.01,.07,.06,.08,.09,.09,.02-.06,.06-.12,.09-.17-.03-.52-.17-1.05-.23-1.59,0-.18-.28-.38-.3-.48Z"/><polygon class="cls-15" points="21.47 83.13 21.47 83.12 21.47 83.04 21.47 83.13"/><path class="cls-12" d="M21.25,81.84c-.05-.18-.08-.35-.09-.52-.08-.11-.21-.22-.21-.29-.1-.41-.08-.84-.07-1.25,0-.41,0-.8-.4-1.16-.08-.08-.16-.16-.26-.24l-.03,.13c-.08,.32-.1,.65-.09,.98l.05,.05c.2,.19,.05,.36,.09,.54,.25,.51,.24,.93,.47,1.44,.08,.18,.27,.37,.3,.59,.02,.07,.03,.14,.03,.21,.12,.28,.2,.57,.25,.87,.01,.07,.06,.08,.09,.09,.01-.03,.03-.06,.04-.09-.02-.38-.02-.49-.03-.73-.04-.26-.08-.49-.11-.65-.01,0-.02,.02-.03,.03Z"/><path class="cls-15" d="M21.45,81.82s-.1-.07-.16-.01c.03,.16,.07,.39,.11,.65,0-.21,0-.42,.05-.64Z"/><path class="cls-2" d="M21.89,81.86c.14-.43-.01-.83,.2-1.18,.11-.18,.29-.36,.54-.52,.01-.06,.03-.12,.04-.17,.09-.72,.15-1.44,.27-2.16,.11-.72,.28-1.43,.67-2.14,.34-.71-.15-1.38-.73-2.11-.14-.43,.43-.78,.63-1.2,.33-.53-.16-1.02-.71-1.52-.55-.5-1.03-1-1.16-1.54-.09-.29-.22-.33-.25-.26-.29,.45-.54,.89-.65,1.34-.16,.44-.31,.88-.43,1.32-.24,.88-.45,1.75-.02,2.66,.59,1.4,.27,2.72-.08,4.02,.1,.08,.18,.16,.26,.24,.4,.35,.41,.75,.4,1.16,0,.41-.04,.84,.07,1.25,.01,.11,.3,.3,.3,.48,.06,.54,.2,1.06,.23,1.59,.08-.1,.19-.19,.3-.3,.04-.32,.01-.64,.12-.95Z"/><path class="cls-13" d="M21.89,81.86c-.11,.31-.08,.63-.12,.95,.05-.05,.1-.11,.15-.18,.47-.78,.6-1.66,.71-2.47-.25,.16-.43,.34-.54,.52-.21,.35-.06,.76-.2,1.18Z"/><path class="cls-12" d="M21.89,81.86c-.1,.3-.08,.6-.11,.91,.04-.1,.08-.21,.11-.31,.15-.53,.21-1.07,.52-1.6-.15,.56-.27,1.01-.45,1.71,.44-.76,.56-1.61,.67-2.4-.25,.16-.43,.34-.54,.52-.21,.35-.06,.76-.2,1.18Z"/><path class="cls-16" d="M21.93,80.99c-.19,.64-.23,1.28-.27,1.94l.09-.08s.02-.06,.03-.08c.03-.31,.01-.61,.11-.91,.14-.43-.01-.83,.2-1.18,.11-.18,.29-.36,.54-.52,.01-.06,.03-.11,.04-.16,.1-.74,.15-1.47,.28-2.2-.29-.64-.15-1.33,.32-2-.08,.31-.1,.63-.09,.95,.1-.35,.24-.7,.43-1.04,.14-.3,.14-.59,.04-.89-.4-.06-.73-.16-.82-.32-.14-.26-.06-.5-.48-.77,0-.04,.38-.03,.4-.1-.05,.2,.18,.36,.54,.51-.14-.18-.28-.37-.41-.54-.11-.34,.21-.63,.46-.94-.02-.04-.04-.07-.06-.1-.09-.17-.32-.34-.55-.51,0,.07,0,.14-.01,.21-.22-.11-.2-.26-.2-.36l.21,.15c.01-.17,.01-.32,0-.5,.02,.21,.22,.43,.44,.62-.11-.4-.34-.76-.23-1.15l.06,.03c-.63-.55-1.21-1.11-1.35-1.71-.1-.29-.21-.33-.26-.26-.2,.31-.38,.63-.52,.94-.1,.31-.2,.62-.32,.92-.2,.61-.38,1.22-.49,1.84,.28-.14,.55-.27,.8-.41,.07-.06,.15-.12,.29-.17-.09,.06-.19,.11-.29,.17-.18,.16-.16,.35-.39,.53-.13,.03-.16,.14,.19,.18-.31,.24-.02,.54-.31,.78,0,.01-.11,.04-.23,.07,.04,.16,.1,.31,.16,.47,.36,.88,.39,1.72,.25,2.55,.15-.2,.33-.39,.58-.57,.41-.24,.03-.75-.13-1.19-.09-.11,.24-.17,.26-.28,.9,.38,.24,.87,.37,1.3,.05,.58-.56,1.38-.09,2.01,.18,.26-.08,.5-.3,.71-.13-.08-.12-.22-.12-.29,.05-.64,.14-1.28,.05-1.93-.34,.67-.18,1.32-.48,1.99-.08-.4,.26-.78-.12-1.15-.06,.03-.11,.06-.16,.09-.06,.22-.12,.48-.19,.77,.09,.08,.18,.16,.26,.24,.4,.35,.41,.75,.4,1.16,0,.41-.04,.84,.07,1.25,0,.07,.13,.17,.21,.29-.02-.27,.01-.53,0-.8-.04,.11-.09,.21-.18,.3-.07-.25,.13-.46,.08-.71,.06,.14,.09,.27,.1,.4,.06-.16,.08-.33,.12-.5,.18,.33-.21,.63,.05,.96,0-.07,0-.14,.01-.21v.21s-.01,0-.01,0c.02,.22,.1,.43,.17,.62-.01-.37,.17-.7,.19-1.07,0-.05,0-.11-.02-.18,.01,.06,.02,.12,.02,.18,.02,.83-.22,1.66-.21,2.49v.08s.07-.07,.07-.07c.05-.69,.15-1.39,.4-2.06Z"/></g></g><path class="cls-5" d="M17.16,3.86c0,.89,0,1.77,0,2.65,0,.88,0,1.75,.01,2.61,0,.86,.01,1.71,.02,2.54,.01,1.67,.03,3.29,.05,4.82,.02,1.53,.04,2.98,.06,4.32,.02,1.34,.05,2.56,.07,3.65,.02,1.09,.05,2.03,.07,2.81,.02,.78,.04,1.39,.05,1.81,.01,.42,.02,.64,.02,.64,0,0,0-.22,.02-.64,.01-.42,.03-1.03,.05-1.81,.02-.78,.04-1.73,.07-2.81,.02-1.09,.05-2.31,.07-3.65,.02-1.34,.04-2.79,.06-4.32,.02-1.53,.03-3.15,.05-4.82,0-.84,.01-1.68,.02-2.54,0-.86,0-1.73,.01-2.61,0-.88,0-1.76,0-2.65,0-.88,0-1.76,0-2.64h-.71c0,.88,0,1.76,0,2.64Z"/></g></g></svg>