<?xml version="1.0" encoding="UTF-8"?><svg id="Layer_2" xmlns="http://www.w3.org/2000/svg" viewBox="0 0 43 124.95"><defs><style>.cls-1{letter-spacing:.01em;}.cls-2{letter-spacing:.01em;}.cls-3{letter-spacing:.03em;}.cls-4{letter-spacing:0em;}.cls-5{fill:#00a6ce;}.cls-6{fill:#fff;}.cls-7{fill:#9da7ab;}.cls-8{fill:#b8bfc2;}.cls-9{fill:#c2c7ca;}.cls-10{fill:#909ca1;}.cls-11{fill:#c1c7ca;}.cls-12{fill:#abb3b7;}.cls-13{fill:#b0b8bb;}.cls-14{fill:#a5aeb2;}.cls-15{fill:#bec4c7;}.cls-16{fill:#d0d4d6;}.cls-17{fill:#dddfe1;}.cls-18{fill:#dbdddf;}.cls-19{fill:#d4d7d9;}.cls-20{fill:#d7dadb;}.cls-21{fill:#e0e2e3;}.cls-22,.cls-23{fill:#06262d;}.cls-24{fill:#a1ce5e;}.cls-25{fill:#a2acb0;}.cls-26{fill:#a2a9ad;}.cls-27{fill:#95a1a5;}.cls-23{font-family:MyriadPro-Bold, 'Myriad Pro';font-size:13px;font-weight:700;}.cls-28{opacity:.9;}.cls-29{opacity:.8;}</style></defs><g id="Apple_Martini"><g><g class="cls-28"><g class="cls-28"><path class="cls-21" d="M16.48,22.78l-.05-.04c-.02,.09-.05,.18-.1,.28-.1,.11,.09,.2,.3,.3,.06-.18,.02-.36-.16-.54Z"/><path class="cls-18" d="M16.34,20.66s-.05,.06-.07,.09v.02s.04-.08,.07-.11Z"/><path class="cls-21" d="M16.05,22.07c.11,.09,.21,.04,.31,.05-.03-.1-.04-.21-.03-.34,0-.13,0-.26-.03-.38-.05,.02-.11,.04-.16,.02,0,.05,0,.05,.05,.03-.04,.02-.13,.06-.13,.06-.03,.12,.1,.23,.2,.25-.08,.03-.18,.08-.27,.11l.02,.13s.05,.04,.07,.05l-.05,.02Z"/><path class="cls-21" d="M16.89,24.64l-.03-.05c-.06,.05-.12,.08-.18,.11l.09,.18,.1-.05v.07s-.03,.06-.06,.08h0s.06,.11,.06,.11v-.09c.07,.03,.13,.11,.17,0,0-.11-.09-.22-.16-.35Z"/><path class="cls-17" d="M18.03,25.18c0-.12,.03-.23,.07-.35-.1,.05-.19-.15-.29-.1,.19-.59-.39-.96-.44-1.36-.09-.41-.37-.62-.49-.95-.05,.04-.07,.15-.15,.14,.03,.09,.08,.12,.15,.1,.01,0,.02,0,.04-.02-.01,0-.03,.01-.04,.02-.05,.01-.1,0-.16,0,.02,.01,.02,.04,0,.07-.02,.02-.03,.03-.05,.03,.12,.31,.22,.63,.14,1.04l.05,.04c.2,.18,.24,.35,.2,.53,.14,.06,.28,.13,.37,.23,.14,.19,.26,.41,.38,.64,.06-.04,.12-.07,.18-.12l.03,.05Z"/><path class="cls-10" d="M25.23,22.37c-.15-.63-.68-1.27-1.13-1.22-.52-.05-1.03-.09-1.44-.13,.08,.28,.05,.61-.17,.81-.11,.1-.32-.12-.36-.02-.26,.23-.33,.49-.66,.63,.06,.09,.06,.29,.13,.3,.18,.19,.42,.27,.69,.04,.08-.07,.25,.27,.06,.36,.24,.07,.39-.07,.57-.08,.5-.09,.2,.53,.39,.87,.03,.09,.08,.15,.13,.19,.34-.31,.64-.69,.95-1,.07-.07,.21,.09,.28,.01,.29-.14,.63-.52,.56-.75Z"/><path class="cls-7" d="M20.74,21.13c.09-.09,.18-.14,.27-.18-.13-.12-.27-.25-.4-.37l-.12,.18c.1,.06,.19,.18,.24,.37Z"/><path class="cls-7" d="M22.99,24.28c.03-.31-.12-.33-.24-.58-.24,.2-.41,.15-.56-.15,0,.08-.11,.02-.15,.05,0-.08-.08-.21,0-.28-.08,.07-.17-.07-.22,.04-.13-.1,.1-.22,.01-.35-.45,.44-.81-.23-.64-.63,.06-.19,.18-.28,.25-.54,.07-.26,.28-.11,.44-.04-.05-.17-.27-.25-.14-.42,.12-.1,.24-.24,.32-.4-.31,.04-.7,.25-.87,.13l-.19-.17c-.1,.04-.19,.09-.27,.18-.06-.19-.14-.31-.24-.37-.05,.07-.09,.15-.11,.24-.12,.29,.26,.32,.35,.57-.42,.14-.53,.66-.41,1.1,.09,.26,.19,.45,.37,.64,.1,.06,.24,.09,.36,0-.04,.03-.17,.12-.14,.17,.22,.16,.31,.51,.62,.4-.01,.08,.02,.12-.07,.19,.17-.13,.07,.29,.23,.16,.08,.21,.05,.64,.29,.6,.07-.02,.11-.02,.16,0,.16-.13,.34-.24,.55-.29,.15-.03,.29-.1,.43-.18-.07,0-.13,0-.15-.06Z"/><path class="cls-27" d="M23.31,23.93c-.19-.33,.11-.96-.39-.87-.18,.02-.33,.15-.57,.08,.19-.09,.01-.43-.06-.36-.27,.23-.51,.15-.69-.04-.07-.01-.07-.21-.13-.3,.33-.14,.4-.4,.66-.63,.04-.11,.25,.12,.36,.02,.21-.2,.25-.53,.17-.81-.19-.01-.37-.03-.54-.04-.01,0-.03,0-.05,0-.08,.16-.2,.29-.32,.4-.12,.18,.1,.25,.14,.42-.16-.07-.37-.22-.44,.04-.07,.27-.19,.36-.25,.54-.17,.4,.18,1.07,.64,.63,.09,.13-.14,.25-.01,.35,.05-.11,.14,.02,.22-.04-.08,.07,.01,.2,0,.28,.04-.03,.14,.02,.15-.05,.14,.3,.32,.36,.56,.15,.12,.25,.26,.27,.24,.58,.01,.06,.07,.07,.15,.06,.11-.06,.21-.14,.31-.22-.05-.04-.1-.1-.13-.19Z"/><path class="cls-25" d="M21.99,24.81c-.23,.04-.21-.39-.29-.6-.17,.13-.07-.29-.23-.16,.08-.07,.05-.11,.07-.19-.31,.11-.4-.24-.62-.4-.03-.05,.1-.14,.14-.17-.12,.09-.26,.06-.36,0-.18-.19-.28-.38-.37-.64-.12-.43,0-.96,.41-1.1-.09-.25-.47-.28-.35-.57,.02-.08,.07-.16,.11-.24-.25-.15-.6,.02-.89,.06-.02,.11-.02,.2,.02,.24,.3,.41,.05,.91,.29,1.37,.05,.09,.21,.17,.23,.22,.11,.31-.06,.62,.05,.93-.02,.08,.22-.03,.24,.1,.07,.22,0,.52,.18,.6,.47,.24,.61,.73,.82,1.17,.26-.19,.48-.45,.72-.65-.05-.01-.09-.01-.16,0Z"/><path class="cls-8" d="M17.9,19.27c-.08,.02-.15,.02-.22,0,.24,.33,.32,.74,.35,1.22,0,.18,.58,.1,.59,.52-.04,.15-.17,.23-.31,.25,.43,.58,.31,1.38,.68,1.91,.37,.51,.68,1.28,.67,2-.01,.31,.29,.5,.55,.75,.11-.08,.23-.15,.33-.22-.14-.19-.25-.38-.27-.58-.05-.69-.21-1.16-.67-1.56-.14-.16,.03-.72-.05-.86-.27-.64-.36-1.2-.48-1.85-.02-.16-.08-.36-.15-.57-.17-.04-.35-.06-.51-.17-.51-.03-.18-.88-.5-.84Z"/><path class="cls-13" d="M20.62,24.29c-.17-.07-.11-.38-.18-.6-.01-.12-.25-.02-.24-.1-.12-.31,.06-.63-.05-.93-.03-.05-.18-.13-.23-.22-.24-.46,0-.96-.29-1.37-.04-.04-.04-.13-.02-.24h0c.07-.21-.11-.23-.15-.24-.22-.02-.29-.15-.44-.28-.04-.01-.07-.02-.1-.03,.07,.21,.13,.41,.15,.57,.12,.66,.21,1.21,.48,1.85,.07,.14-.1,.7,.05,.86,.46,.4,.62,.87,.67,1.56,.02,.21,.13,.4,.27,.58,.09-.06,.18-.11,.27-.16,.09-.06,.21,.12,.21,.12,.16-.05,.3-.12,.43-.22-.21-.44-.35-.93-.82-1.17Z"/><path class="cls-11" d="M17.47,19.19s-.1,.04-.14,.04c-.12,.02-.06-.12-.1-.15v.05s-.02-.02-.02-.02c0,.18-.02,.37-.08,.56,.06,.03,.11,.07,.12,.17,.02,.66-.08,1.39,.46,1.87,.22,.17-.22,.83,.09,1.2,.11,.12,.35,.17,.35,.41-.02,.32-.29,.64-.05,.89,.6,.54,1.09,1.27,1.1,2.07,.29,.13,.66-.1,1.02-.34-.25-.25-.56-.44-.55-.75,.01-.71-.3-1.49-.67-2-.37-.53-.25-1.33-.68-1.91,.14-.03,.27-.11,.31-.25,0-.42-.58-.35-.59-.52-.03-.49-.11-.9-.35-1.22-.08-.01-.15-.05-.21-.09Z"/><path class="cls-16" d="M18.08,24.2c-.23-.25,.03-.57,.05-.89,0-.25-.24-.29-.35-.41-.32-.37,.13-1.03-.09-1.2-.53-.47-.44-1.21-.46-1.87,0-.1-.05-.14-.12-.17-.02,.08-.05,.15-.09,.23-.06,.14,.08,.39,.13,.59-.02,.3-.2,.48-.39,.65l-.09,.11v-.02s-.07,.07-.07,.07c.02,.08,.04,.16,.07,.24,.02,0,.03,.01,.04,.03h-.03c.03,.13,.05,.26,.05,.39,0,.13,.01,.24,.04,.34,.02,0,.05,0,.07,.02-.03,0-.04,0-.06,.02,.12,.33,.4,.55,.48,.96,.04,.4,.62,.77,.43,1.36,.1-.05,.19,.15,.29,.1-.04,.12-.06,.23-.07,.35,.07,.13,.17,.23,.17,.34-.04,.11-.1,.03-.17,0v.09s.03,.03,.03,.03c.05,0,.1-.02,.14-.05,.06-.08,.12-.16,.17-.23-.03,.1-.1,.18-.17,.23l-.09,.13c.08,.11,.17,.22,.28,.31,.02,0,.05-.02,.07-.03-.02,.01-.04,.02-.07,.04l.04,.04c.1-.05,.3-.16,.49-.26,.08,.31,.21,.47,.36,.54-.01-.79-.5-1.53-1.1-2.07Z"/></g></g><g><path class="cls-26" d="M29.01,8.62s0,.02-.02,.02c0,0-.02,0-.05,.02-.14,.05-.27,.11-.39,.14v-.32c.12,.02,.27,.05,.39,.11,.04,.02,.05,.02,.05,.04h.02Z"/><path class="cls-26" d="M14.48,8.46v.35c-.16-.05-.3-.11-.42-.16q-.05-.02-.07-.02v-.02s.02-.02,.07-.04c.12-.05,.25-.09,.37-.11,.02-.02,.04-.02,.05-.02Z"/><path class="cls-26" d="M28.99,1.97l-.04,.07c0,.34-.02,.69-.02,1.04-.02,.44-.02,.89-.04,1.35,0,.44-.02,.9-.02,1.36s-.02,.92-.02,1.38v.58c-.85-.09-1.66-.16-2.46-.21-5.45-.41-9.42-.12-11.22,.07-.25,.04-.46,.05-.64,.07-.14,.02-.27,.04-.34,.05-.09,.02-.12,.02-.12,.02v-.58c-.02-.46-.02-.94-.02-1.38-.02-.46-.02-.92-.02-1.36-.02-.46-.02-.9-.04-1.35,0-.35-.02-.71-.02-1.04l-.04-.07s.09-.05,.14-.09c.16-.09,.37-.16,.58-.23,.73-.19,1.47-.3,2.14-.39,.11-.02,.21-.04,.32-.04,0,0,.35-.05,.99-.11,1.36-.12,4.02-.27,6.97,.04,.51,.04,1.04,.11,1.58,.18,.3,.04,.6,.09,.92,.16h.02c.11,.02,.19,.05,.3,.07,.21,.07,.34,.09,.34,.09,.21,.07,.41,.14,.58,.23,.04,.04,.11,.07,.14,.09Z"/></g><path class="cls-6" d="M13.29,4.06c2.09-.36,4.17-.5,6.26-.46,1.04,.01,2.08,.09,3.12,.21,1.03,.11,2.06,.32,3.07,.55-1.02-.17-2.05-.32-3.08-.36-1.03-.06-2.06-.07-3.09-.02-2.05,.09-4.12,.35-6.09,.82l-.17-.73Z"/><g class="cls-28"><g class="cls-28"><path class="cls-21" d="M6.02,50.83l-.03,.13s.09,.02,.14,.06c.05,.16,.12-.33,.21-.87-.09-.04-.19,.13-.32,.67Z"/><polygon class="cls-18" points="4.83 52.83 4.87 53.03 4.89 53.01 4.83 52.83"/><path class="cls-21" d="M5.59,52.35c.06-.34,.04-.56,.05-.81-.06,.14-.12,.24-.19,.31-.07,.09-.14,.22-.21,.37,0,.11,.02,.27,0,.41q.03-.07,.02-.18c0,.1,.02,.31,.02,.31,.07-.04,.13-.46,.15-.74,.01,.17,.03,.41,.05,.6l.07-.16c.01-.09,.03-.17,.03-.22v.1Z"/><path class="cls-21" d="M7.13,49.03l-.04,.08c.01,.11,.01,.23,.02,.35l.12-.26c0-.07,0-.14,0-.2l.04-.02s.02,.03,.03,.09h0s.07-.16,.07-.16l-.05,.04c.03-.16,.09-.32,.05-.37-.06,.03-.15,.26-.23,.46Z"/><path class="cls-17" d="M7.82,46.43c-.06,0-.12-.01-.17-.07-.02,.2-.16,.45-.18,.65-.26-.28-.69,1.15-.92,1.43-.26,.36-.45,1.14-.66,1.62,.01,.11,.07,.09,.05,.3,.05-.12,.08-.26,.08-.42,0-.03,0-.06,0-.09,0,.04,0,.07,0,.09,0,.12-.01,.24-.03,.38,.01-.05,.03-.08,.04-.06,0,.03,.01,.06,0,.09,.19-.45,.4-.85,.61-.84l.03-.13c.15-.53,.26-.69,.35-.65,.07-.32,.16-.67,.24-.89,.16-.36,.32-.68,.5-.99,0-.12,0-.24,0-.35l.04-.07Z"/><path class="cls-10" d="M17.31,32.97c-.2-.27-1.53-.27-2.72,.39-1.24,.62-2.38,1.41-3.45,2.41,.25-.04,.24,.18-.12,.69-.18,.26-.65,.6-.69,.74-.38,.64-.4,.86-.84,1.62,.12-.1,.21-.05,.32-.2,.35-.33,.75-.77,1.13-1.39,.12-.17,.52-.36,.23,.02,.43-.41,.68-.74,1-1.05,.94-.87,.5-.08,.92-.21,.08,0,.17-.04,.28-.09,.59-.63,1.16-1.24,1.85-1.75,.16-.12,.47-.16,.63-.28,.65-.36,1.58-.81,1.46-.9Z"/><path class="cls-7" d="M7.83,40.31c.07-.24,.18-.49,.3-.74-.27,.33-.51,.67-.76,1.01l-.06,.34c.16-.27,.34-.49,.51-.61Z"/><path class="cls-7" d="M12.59,36.64c-.03-.19-.28,.04-.56,.13-.35,.49-.65,.76-.98,.92,.01,.05-.17,.21-.22,.3-.01-.05-.21,.08-.1-.09-.11,.17-.29,.31-.32,.44-.24,.22,.07-.27-.12-.14-.52,1.03-1.26,1.65-1.22,1.19,0-.18,.13-.48,.13-.7,0-.23,.41-.67,.71-.99-.14,.05-.56,.52-.41,.19,.17-.3,.34-.64,.43-.86-.59,.73-1.15,1.71-1.45,2.1-.13,.15-.24,.3-.36,.44-.13,.25-.23,.5-.3,.74-.17,.12-.35,.34-.51,.61-.02,.13-.03,.25-.02,.32,0,.33,.49-.69,.74-.87-.48,1.08-.28,1.38,.07,1.11,.23-.19,.44-.41,.74-.78,.14-.21,.33-.49,.44-.78-.04,.1-.15,.38-.09,.33,.35-.45,.62-.56,.99-1.19,.02,.04,.08,0-.01,.18,.17-.36,.21-.05,.38-.41,.2-.08,.33,.09,.64-.33,.08-.12,.16-.2,.23-.28,.19-.33,.43-.67,.75-1.03,.16-.18,.39-.43,.68-.74-.12,.11-.23,.2-.27,.19Z"/><path class="cls-27" d="M13.09,35.98c-.42,.13,.02-.66-.92,.21-.32,.31-.57,.64-1,1.05,.3-.38-.11-.19-.23-.02-.38,.61-.78,1.06-1.13,1.39-.11,.14-.2,.1-.32,.2,.45-.75,.46-.98,.84-1.62,.04-.14,.5-.48,.69-.74,.36-.51,.37-.73,.12-.69-.38,.35-.75,.73-1.1,1.14-.03,.04-.06,.08-.1,.12-.09,.22-.27,.57-.43,.86-.14,.33,.27-.14,.41-.19-.3,.32-.71,.76-.71,.99,0,.23-.12,.52-.13,.7-.04,.46,.7-.16,1.22-1.19,.19-.13-.12,.36,.12,.14,.04-.13,.22-.27,.32-.44-.1,.17,.09,.05,.1,.09,.05-.09,.23-.25,.22-.3,.33-.16,.63-.44,.98-.92,.28-.09,.53-.32,.56-.13,.04,0,.15-.08,.27-.19,.17-.19,.34-.38,.51-.56-.1,.05-.2,.09-.28,.09Z"/><path class="cls-25" d="M11.2,38.5c-.3,.43-.44,.25-.64,.33-.18,.36-.21,.05-.38,.41,.09-.18,.03-.13,.01-.18-.38,.63-.64,.74-.99,1.19-.06,.05,.05-.23,.09-.33-.11,.29-.3,.57-.44,.78-.31,.36-.52,.59-.74,.78-.35,.27-.54-.03-.07-1.11-.25,.18-.74,1.2-.74,.87-.01-.07,0-.18,.02-.32-.4,.66-.71,1.66-.95,2.46,.04,.04,.1,.03,.16-.08,.51-.85,.56-.23,1.04-.85,.1-.12,.3-.5,.35-.56,.28-.25,.26,.17,.54-.07,.02,.04,.22-.5,.29-.51,.18-.12,.27,.04,.49-.3,.64-.93,1.04-1.07,1.47-1.32,.23-.5,.42-.97,.71-1.46-.07,.07-.15,.16-.23,.28Z"/><path class="cls-8" d="M4.35,49.09c-.02,.26-.04,.49-.07,.71,.27-1.02,.55-1.47,.85-1.81,.09-.11,.34-1.73,.6-1.89,.06,.07,.04,.39-.02,.77,.57-1.38,.98-1.24,1.5-2.21,.54-.97,1.22-1.64,1.59-1.59,.15,.03,.49-.58,.85-1.03,.06-.22,.12-.43,.19-.64-.23,.23-.43,.43-.55,.46-.39,.03-.81,.31-1.42,1.37-.21,.34-.37-.03-.51,.15-.58,.71-.97,1.05-1.44,1.54-.11,.09-.27,.31-.44,.58-.13,.48-.19,.72-.41,1.57-.27,1.55-.61,1-.72,2.03Z"/><path class="cls-13" d="M9.24,41c-.22,.35-.31,.18-.49,.3-.07,.01-.27,.56-.29,.51-.28,.24-.27-.18-.54,.07-.05,.06-.25,.44-.35,.56-.48,.62-.53,0-1.04,.85-.06,.11-.11,.13-.16,.08h0c-.06-.15-.24,.34-.27,.47-.2,.62-.32,.86-.52,1.35-.03,.11-.06,.2-.09,.29,.17-.28,.33-.49,.44-.58,.47-.49,.86-.84,1.44-1.54,.14-.18,.3,.19,.51-.15,.6-1.05,1.03-1.34,1.42-1.37,.12-.02,.32-.22,.55-.46,.06-.18,.12-.35,.19-.52,.07-.18,.28-.37,.28-.37,.16-.29,.27-.56,.4-.82-.43,.25-.84,.4-1.47,1.32Z"/><path class="cls-11" d="M4.17,50.57c0,.14,0,.3,0,.43-.01,.39-.09,.33-.11,.51l.03-.07s-.01,.08-.02,.12c.1-.17,.21-.27,.3-.25,.03-.23,.06-.43,.12-.51,.39-.56,.76-.8,1.2-2.44,.18-.66,.4,.2,.72-.72,.11-.31,.24-.91,.39-.98,.17-.02,.24,.48,.48-.11,.58-1.5,1.33-2.53,1.76-2.56,.25-.55,.4-1.26,.6-1.96-.35,.45-.69,1.06-.85,1.03-.36-.05-1.05,.62-1.59,1.59-.53,.97-.94,.83-1.5,2.21,.06-.38,.08-.7,.02-.77-.26,.16-.51,1.78-.6,1.89-.3,.34-.58,.8-.85,1.81-.03,.27-.07,.52-.11,.77Z"/><path class="cls-16" d="M7.29,46.55c-.24,.59-.31,.09-.48,.11-.14,.06-.28,.67-.39,.98-.33,.92-.54,.07-.72,.72-.44,1.64-.82,1.88-1.2,2.44-.05,.08-.09,.28-.12,.51,.04,0,.08,.04,.11,.09,.07,.06,.24-.58,.36-.87,.17-.16,.23,.24,.3,.63l.05,.18v.02s.01,.15,.01,.15c.05-.12,.1-.23,.15-.36,0-.04,.01-.09,.03-.14,0,.02,0,.05,0,.07,.07-.15,.14-.28,.22-.37,.07-.06,.13-.17,.2-.31,0-.07,.01-.11,.02-.19,0,.06,0,.11,0,.14,.2-.49,.39-1.27,.65-1.63,.22-.28,.65-1.72,.91-1.44,0-.2,.16-.46,.17-.66,.05,.05,.11,.07,.17,.07,.1-.19,.2-.41,.27-.43,.05,.05-.03,.2-.07,.36l.05-.03,.03-.05c.02-.09,.03-.19,.04-.28-.02-.11-.03-.22-.05-.32,.04,.05,.05,.17,.05,.32,0,.06,.02,.11,.03,.15,.1-.19,.2-.39,.3-.62,0-.04,.01-.09,.02-.14,0,.04,0,.08-.01,.13l.04-.09c.02-.19,.06-.58,.12-.96,.21-.19,.38-.44,.52-.73-.43,.03-1.18,1.07-1.76,2.56Z"/></g></g><path class="cls-5" d="M14.27,7.72s-.04,.02-.05,.02c.07-.02,.19-.04,.34-.05-.09,0-.19,.02-.28,.04Zm14.44,0c-.32-.05-.62-.09-.92-.11-.48-.04-.94-.05-1.38-.07,.8,.05,1.61,.12,2.46,.21-.05-.02-.11-.02-.16-.04Zm-14.44,0s-.04,.02-.05,.02c.07-.02,.19-.04,.34-.05-.09,0-.19,.02-.28,.04Z"/><g class="cls-29"><g class="cls-29"><path class="cls-19" d="M33.96,117.04c-1.55,.3-3.17-.4-4.49,.36-.14,.07-.29,.15-.44,.23l.23,.07c1.71,.57,3.58,.42,5.33-.12,1.08-.44,2.19-.95,3.38-1.21,.13-.04,.15-.08,.16-.1-.12,0-.22-.02-.31-.06-.98,.04-1.95,.29-2.95,.38-.33,0-.7,.43-.9,.45Z"/><polygon class="cls-9" points="37.85 116.22 37.83 116.22 37.68 116.23 37.85 116.22"/><path class="cls-15" d="M35.45,116.58c-.33,.08-.65,.13-.97,.14-.21,.13-.4,.31-.53,.32-1.55,.3-3.17-.4-4.49,.36-.14,.07-.28,.15-.44,.23,.08,.02,.16,.05,.24,.07,.59,.18,1.2,.3,1.82,.34l.1-.06c.35-.24,.67,0,1-.02,.95-.27,1.74-.21,2.68-.56,.34-.12,.69-.42,1.09-.48,.14-.03,.27-.05,.4-.07,.52-.21,1.06-.34,1.62-.5,.13-.04,.15-.08,.16-.1-.06,0-.12,0-.17-.01-.5,.03-.91,.06-1.37,.09-.43,.07-.84,.13-1.21,.19,.02,.02,.04,.03,.06,.04Z"/><path class="cls-9" d="M35.41,116.28c-.06,0-.13,.15-.02,.25,.37-.06,.78-.12,1.21-.19-.39,.02-.78,.01-1.19-.06Z"/><path class="cls-20" d="M35.48,115.6c-.79-.22-1.55,.02-2.21-.26-.34-.15-.68-.38-.97-.72-.11,0-.22-.01-.33-.02-1.35-.02-2.69,.09-4.03,.22-1.34,.13-2.67,.19-4,.11-1.33,0-2.57,.49-3.93,.75-.81,.09-1.46-.09-2.25-.13-.99-.07-1.9,.11-2.83,.27-.92,.17-1.85,.3-2.86,.34-.54,.03-.61,.14-.48,.15,1.92,.1,3.38,.18,4.96,.27,1.64,.1,3.27,.23,4.96,.18,1.3-.03,2.57-.03,3.82,.09,1.24,.12,2.47,.4,3.68,.79,.16-.08,.31-.16,.44-.23,1.31-.76,2.94-.06,4.49-.36,.2-.02,.56-.45,.9-.45,1.01-.09,1.98-.34,2.95-.38-.2-.08-.36-.22-.56-.37-.6-.1-1.2-.08-1.78-.25Z"/><path class="cls-12" d="M35.48,115.6c.58,.17,1.18,.15,1.78,.25-.1-.07-.21-.15-.34-.22-.73-.39-1.5-.67-2.29-.81-.78-.15-1.57-.14-2.33-.18,.3,.33,.63,.57,.97,.72,.65,.28,1.41,.05,2.21,.26Z"/><path class="cls-15" d="M35.48,115.6c.55,.16,1.12,.14,1.69,.23-.25-.08-.43-.14-.58-.19-1-.27-2.01-.38-2.99-.79,1.06,.18,2.13,.4,3.2,.7-.71-.37-1.47-.63-2.23-.76-.76-.14-1.53-.13-2.26-.17,.29,.33,.63,.56,.97,.71,.65,.28,1.41,.05,2.21,.26Z"/><path class="cls-14" d="M33.86,115.56c1.2,.26,2.4,.33,3.62,.44-.06-.04-.11-.08-.16-.12-.05-.02-.1-.04-.15-.05-.57-.09-1.14-.07-1.69-.23-.79-.22-1.55,.02-2.21-.26-.34-.15-.68-.38-.97-.71-.1,0-.21-.01-.31-.02-1.37-.02-2.75,.09-4.11,.23-1.19,.48-2.48,.44-3.73,.29,.59-.02,1.17-.06,1.76-.16-.65,.02-1.3,0-1.95-.02-.56,0-1.11,.09-1.66,.21-.11,.21-.29,.39-.59,.45-.47,.1-.94,.1-1.43,.28-.07,0-.05-.14-.19-.15,.37,0,.68-.1,.94-.28-.33,.08-.66,.16-1.01,.23-.64,.07-1.17-.03-1.76-.09-.06,0-.13,.02-.19,.02-.31,.04-.63,.12-.95,.2,.13,0,.26,0,.4,0-.21,.07-.48,.07-.68,.07,.09-.02,.19-.05,.28-.07-.31,0-.61,0-.94,.02,.4,0,.81-.08,1.15-.16-.74,.06-1.41,.13-2.14,.11l.06-.02c-1.03,.19-2.05,.36-3.17,.4-.54,.03-.61,.14-.48,.15,2.71,.15,4.67,.26,6.91,.39-.26-.1-.52-.2-.78-.28-.11-.02-.22-.05-.33-.1,.11,.03,.22,.06,.33,.1,.31,.06,.65,.06,.99,.14,.06,.05,.26,.06,.34-.06,.46,.12,1,.03,1.46,.16,.03,0,.07,.05,.13,.1,.28,0,.57,0,.87-.01,1.63-.04,3.2-.03,4.75,.21-.37-.15-.73-.31-1.06-.49-.45-.29-1.4-.04-2.21,.01-.2,.04-.32-.14-.52-.15,.71-.47,1.62-.14,2.42-.2,1.07-.09,2.58,.49,3.74,.05,.48-.21,.93,.08,1.32,.36-.14,.15-.41,.13-.54,.12-1.2-.11-2.4-.23-3.61-.2,1.25,.32,2.46,.25,3.71,.7-.74,0-1.45-.39-2.14-.1,.06,.06,.12,.11,.18,.17,.48,.12,.96,.26,1.44,.41,.16-.08,.3-.16,.44-.23,1.31-.76,2.94-.06,4.49-.36,.13,0,.32-.19,.53-.32-.5,.03-.99-.03-1.49,0,.2,.06,.39,.14,.57,.27-.47,.08-.85-.21-1.32-.15,.25-.08,.5-.11,.75-.12-.3-.09-.62-.12-.94-.19,.61-.25,1.18,.33,1.8-.06-.13,0-.26,0-.39-.02h.4s0,.02,0,.02c.4-.02,.8-.15,1.16-.26-.69,.02-1.31-.25-1.99-.27-.11,0-.22,.02-.34,.03,.11-.02,.23-.03,.34-.03,1.55-.07,3.11,.32,4.65,.28h.15s-.09-.05-.13-.07c-1.28-.08-2.59-.25-3.84-.59Z"/></g></g><g class="cls-28"><g class="cls-28"><path class="cls-21" d="M30.34,79.64c.01-.06,.02-.12,.03-.18-.09,0-.19-.01-.29-.06-.14-.21-.17,.45-.22,1.18,.19,.03,.35-.2,.48-.94Z"/><path class="cls-18" d="M32.33,76.89c-.04-.09-.07-.17-.11-.25,0,0-.01,.02-.02,.03,.04,.08,.09,.15,.13,.23Z"/><path class="cls-21" d="M30.9,77.59c-.06,.45,.03,.74,.05,1.07,.09-.18,.19-.33,.31-.43,.13-.12,.25-.3,.35-.51-.03-.14-.07-.35-.06-.54q-.04,.1-.01,.23c-.03-.13-.1-.4-.1-.4-.12,.06-.19,.62-.17,.98-.05-.22-.13-.53-.19-.78-.04,.07-.08,.14-.12,.22-.01,.1-.03,.2-.03,.29l-.03-.13Z"/><path class="cls-21" d="M28.62,82.24s.03-.08,.05-.11c-.06-.14-.1-.3-.15-.46-.05,.12-.11,.25-.16,.38,.03,.08,.05,.17,.07,.27-.02,.01-.04,.02-.07,.04-.03-.01-.06-.04-.09-.11,0,0,0,0,0,.01-.03,.07-.06,.15-.09,.22,.03-.02,.06-.04,.09-.06-.02,.22-.09,.45,.03,.5,.11-.05,.2-.39,.31-.67Z"/><path class="cls-17" d="M28.3,85.9c.12-.03,.23-.02,.35,.04-.06-.27,.11-.66,.05-.92,.62,.29,.88-1.71,1.26-2.13,.39-.53,.53-1.59,.82-2.26-.06-.14-.16-.11-.17-.39-.07,.16-.09,.35-.06,.57,0,.04,.01,.08,.02,.12-.01-.04-.02-.08-.02-.12-.03-.16-.03-.31-.04-.5,0,.06-.03,.11-.07,.09-.02-.04-.03-.08-.04-.12-.27,.62-.56,1.19-.98,1.22-.01,.06-.02,.12-.03,.18-.13,.74-.29,.97-.48,.94-.03,.45-.07,.93-.15,1.25-.16,.53-.36,.99-.56,1.47,.04,.16,.09,.32,.15,.46-.02,.03-.03,.07-.05,.11Z"/><path class="cls-10" d="M31.11,109.16c.64-.17,1.35-1.73,1.36-3.38,.09-1.7,.18-3.41,.24-5.22-.28,.26-.61,.06-.8-.72-.1-.4,.14-1.12,.03-1.29-.23-.94-.49-1.18-.63-2.31-.09,.19-.29,.22-.3,.45-.19,.62-.27,1.41-.04,2.35,.06,.27-.28,.81-.36,.18-.08,.79,.05,1.32,.06,1.92,.07,1.69-.54,.57-.89,1.12-.09,.09-.16,.22-.2,.37,.27,1.17,.64,2.26,.91,3.4,.06,.27-.11,.66-.05,.92,.11,1,.43,2.33,.67,2.21Z"/><path class="cls-7" d="M32.6,93.51c.09,.31,.15,.64,.19,.99,.12-.52,.24-1.04,.36-1.55-.06-.14-.13-.28-.19-.41-.05,.4-.16,.74-.35,.97Z"/><path class="cls-7" d="M29.44,101.15c.31,.15,.33-.32,.59-.67-.19-.8-.13-1.36,.17-1.81-.08-.04-.02-.37-.05-.5,.08,.04,.21-.25,.28,.01-.06-.27,.07-.56-.04-.73,.1-.43,.22,.34,.35,.05-.43-1.51,.22-2.73,.63-2.19,.19,.21,.28,.61,.55,.85,.26,.24,.11,1,.04,1.56,.17-.16,.25-.95,.42-.51,.1,.43,.24,.9,.4,1.19-.04-1.16-.24-2.57-.13-3.19,.05-.24,.11-.48,.16-.71-.04-.35-.1-.68-.19-.99,.19-.24,.3-.58,.35-.97-.08-.16-.16-.3-.24-.37-.3-.38-.29,1.05-.55,1.4-.16-1.49-.7-1.75-1.12-1.24-.26,.35-.43,.74-.62,1.36-.06,.33-.08,.79,.02,1.19-.03-.13-.13-.53-.17-.44-.16,.75-.49,1.07-.38,2.07-.08-.04-.12,.06-.19-.21,.13,.53-.29,.22-.16,.75-.21,.25-.64,.17-.6,.9,.02,.21,.02,.36,0,.5,.13,.52,.23,1.09,.27,1.76,.03,.48,.08,.94,.16,1.39,0-.22,0-.42,.07-.45Z"/><path class="cls-27" d="M29.78,102.26c.34-.55,.96,.57,.89-1.12,0-.6-.14-1.13-.06-1.92,.08,.63,.43,.09,.36-.18-.23-.94-.15-1.73,.04-2.35,.01-.23,.21-.25,.3-.45,.14,1.13,.4,1.37,.63,2.31,.11,.17-.13,.89-.03,1.29,.19,.78,.52,.98,.8,.72,.02-.64,.04-1.3,.06-1.97,0-.06,0-.12,0-.19-.16-.29-.29-.76-.4-1.19-.17-.44-.26,.35-.42,.51,.07-.56,.23-1.31-.04-1.56-.26-.24-.36-.64-.55-.85-.4-.55-1.06,.68-.63,2.19-.13,.29-.25-.47-.35-.05,.11,.17-.02,.46,.04,.73-.06-.27-.2,.02-.28-.01,.03,.13-.02,.46,.05,.5-.3,.45-.37,1.01-.17,1.81-.26,.35-.28,.81-.59,.67-.06,.03-.07,.23-.07,.45,.06,.35,.13,.69,.2,1.03,.04-.15,.11-.28,.2-.37Z"/><path class="cls-25" d="M28.94,97.95c-.04-.73,.39-.64,.6-.9-.13-.54,.29-.22,.16-.75,.06,.27,.11,.17,.19,.21-.11-1,.23-1.31,.38-2.07,.04-.1,.14,.3,.17,.44-.1-.4-.07-.86-.02-1.19,.19-.62,.37-1.01,.62-1.36,.42-.51,.96-.26,1.12,1.24,.25-.35,.25-1.77,.55-1.4,.09,.07,.17,.21,.24,.37,.13-.96-.06-2.26-.13-3.31-.11-.03-.2,0-.24,.16-.38,1.24-.89,.52-1.34,1.5-.09,.19-.16,.75-.2,.85-.3,.45-.63-.06-.93,.39-.08-.04,.04,.73-.08,.79-.21,.25-.52,.11-.59,.67-.22,1.53-.7,2-1.14,2.64,.19,.77,.45,1.46,.64,2.24,.01-.14,.01-.3,0-.5Z"/><path class="cls-8" d="M34.09,81.61c-.04-.32-.05-.62-.06-.91-.26,1.33-.65,1.95-1.12,2.45-.17,.16,0,2.25-.41,2.53-.15-.07-.25-.47-.3-.97-.49,1.9-1.32,1.86-1.79,3.29-.47,1.43-1.2,2.63-1.92,2.76-.31,.04-.48,1.01-.71,1.81,.08,.31,.16,.63,.24,.94,.18-.45,.36-.82,.57-.92,.68-.27,1.15-.88,1.51-2.48,.15-.52,.72-.13,.85-.43,.61-1.13,1.15-1.7,1.79-2.47,.16-.15,.35-.47,.54-.86,.02-.69,0-1.37,.09-2.06-.07-1.99,.83-1.39,.72-2.68Z"/><path class="cls-13" d="M29.44,93.58c.07-.56,.38-.41,.59-.67,.12-.06,0-.83,.08-.79,.3-.45,.63,.06,.93-.39,.04-.1,.11-.66,.2-.85,.45-.97,.96-.26,1.34-1.5,.04-.16,.13-.2,.24-.16,0,0,0,0,0,0,.22,.16,.22-.5,.22-.66,0-.83,.11-1.16,.22-1.82,0-.13,.01-.26,.02-.38-.19,.39-.39,.71-.54,.86-.63,.77-1.17,1.34-1.79,2.47-.13,.29-.7-.1-.85,.43-.36,1.6-.83,2.21-1.51,2.48-.2,.1-.39,.48-.57,.92,.06,.26,.12,.52,.16,.78,.06,.27-.11,.66-.11,.66,.05,.47,.13,.88,.23,1.28,.44-.64,.92-1.11,1.14-2.64Z"/><path class="cls-11" d="M34.06,79.71c-.03-.17-.07-.38-.08-.55-.05-.5,.1-.43,.11-.66l-.04,.1c0-.05,0-.1,.01-.16-.17,.23-.36,.37-.56,.36,0,.3-.04,.55-.13,.66-.63,.77-1.36,1.13-1.71,3.33-.13,.89-.86-.17-1.16,1.11-.1,.43-.11,1.25-.35,1.37-.32,.08-.68-.56-.88,.29-.44,2.14-1.12,3.84-1.91,4.1-.09,.86,.16,1.88,.42,2.9,.23-.79,.39-1.77,.71-1.81,.72-.13,1.45-1.32,1.92-2.76,.47-1.43,1.3-1.4,1.79-3.29,.05,.5,.15,.9,.3,.97,.41-.28,.24-2.37,.41-2.53,.47-.5,.86-1.12,1.12-2.45,0-.35,0-.67,.03-.99Z"/><path class="cls-16" d="M29.27,85.57c.2-.85,.56-.21,.88-.29,.24-.12,.25-.95,.35-1.37,.3-1.28,1.04-.22,1.16-1.11,.35-2.2,1.08-2.56,1.71-3.33,.09-.11,.12-.36,.13-.66-.08,0-.16-.04-.25-.1-.15-.07-.36,.78-.53,1.17-.3,.23-.52-.27-.72-.77-.04-.07-.09-.15-.13-.23,0,0,.02-.02,.02-.03-.03-.07-.06-.13-.09-.19-.07,.17-.14,.33-.21,.48,0,.06,0,.12-.02,.18,0-.03-.01-.06-.02-.1-.11,.21-.22,.39-.35,.51-.12,.09-.23,.24-.31,.43,0,.08,0,.16,0,.25,0-.08-.02-.14-.03-.18-.3,.67-.44,1.73-.82,2.26-.38,.41-.64,2.42-1.26,2.13,.06,.27-.11,.66-.05,.92-.12-.06-.24-.06-.35-.04-.11,.28-.2,.61-.31,.67-.11-.05-.05-.28-.03-.51-.03,.02-.06,.04-.09,.06,0,.03-.02,.05-.03,.08,0,.13,.03,.27,.07,.39,.09,.14,.17,.29,.25,.41-.1-.05-.19-.21-.25-.41-.05-.07-.09-.14-.14-.19-.1,.29-.19,.6-.27,.94,.01,.07,.03,.14,.04,.2-.01-.05-.03-.11-.05-.18-.01,.05-.02,.09-.03,.14,.06,.27,.19,.8,.32,1.34-.3,.34-.45,.76-.5,1.22,.79-.26,1.47-1.96,1.91-4.1Z"/></g></g><path class="cls-24" d="M27.75,15.98v1.24c-2.47,.12-4.69,.16-6.57,.16-2.89,0-4.96-.1-5.92-.15v-1.24c1.45,.08,6.1,.3,12.48-.01Z"/><path class="cls-22" d="M14,120.52c.22-.07,.44-.12,.67-.16,.22-.04,.45-.07,.67-.09,.22-.02,.43-.04,.63-.04,.19,0,.39,0,.57-.01,.33,0,.64,0,.86,0,.2,0,.33,0,.33,0,0,0-.13-.02-.32-.06-.21-.04-.5-.09-.86-.13-.18-.02-.37-.04-.58-.05-.21-.01-.43-.01-.65,0-.23,0-.46,.03-.7,.07-.24,.04-.48,.09-.71,.16-.22,.07-.45,.15-.67,.22-.22,.08-.43,.15-.65,.18-.21,.04-.43,.06-.63,.09-.19,.02-.39,.05-.57,.07-.35,.05-.65,.09-.86,.13-.2,.04-.32,.06-.32,.06,0,0,.13,0,.33,.01,.21,0,.51,0,.87,0,.18,0,.38,0,.58-.01,.21,0,.42-.01,.65-.04,.23-.02,.47-.08,.69-.16,.23-.07,.45-.14,.68-.22Z"/><path class="cls-22" d="M34.57,120.14c-.44,0-.91-.02-1.4-.03-.5,0-1.02-.01-1.56-.02-.54,0-1.1,0-1.67-.01-.57,0-1.15,0-1.73,0-.58,0-1.16,0-1.73,0-.57,0-1.13,0-1.67,.01-.54,0-1.06,.02-1.56,.02-.49,0-.96,.02-1.4,.03-.86,.02-1.58,.04-2.1,.06-.5,.02-.79,.03-.79,.03,0,0,.3,.01,.79,.03,.51,.01,1.24,.03,2.1,.06,.44,0,.91,.02,1.4,.03,.5,0,1.02,.01,1.56,.02,.54,0,1.1,0,1.67,.01,.57,0,1.15,0,1.73,0,.58,0,1.16,0,1.73,0,.57,0,1.13,0,1.67-.01,.54,0,1.06-.02,1.56-.02,.49,0,.96-.02,1.4-.03,.85-.02,1.58-.04,2.1-.06,.5-.02,.79-.03,.79-.03,0,0-.3-.01-.79-.03-.51-.01-1.24-.03-2.1-.06Z"/><path class="cls-22" d="M28.91,119.24c-.76,0-1.55-.01-2.35-.02-.8,0-1.62,0-2.43,0-.81,0-1.63,0-2.43,0-.8,0-1.59,.01-2.35,.02-.76,.01-1.5,.02-2.2,.03-.7,.01-1.36,.03-1.97,.04-1.21,.03-2.23,.06-2.95,.08-.71,.03-1.12,.04-1.12,.04,0,0,.41,.02,1.12,.04,.72,.02,1.74,.05,2.95,.08,.61,.01,1.28,.02,1.97,.04,.7,0,1.44,.02,2.2,.03,.76,0,1.55,.01,2.35,.02,.8,0,1.62,0,2.43,0,.81,0,1.63,0,2.43,0,.8,0,1.59-.01,2.35-.02,.76-.01,1.5-.02,2.2-.03,.7-.01,1.36-.03,1.97-.04,1.21-.03,2.23-.06,2.95-.08,.71-.03,1.12-.04,1.12-.04,0,0-.41-.02-1.12-.04-.72-.02-1.74-.05-2.95-.08-.61-.01-1.28-.02-1.97-.04-.7,0-1.44-.02-2.2-.03Z"/><path class="cls-22" d="M34,115.41c-.49-.27-1.08-.44-1.71-.7-.64-.24-1.32-.53-2.08-.7-.38-.1-.76-.2-1.16-.31-.4-.11-.8-.22-1.22-.27-.42-.07-.85-.14-1.28-.21-.43-.07-.87-.14-1.32-.16-.89-.04-1.8-.15-2.71-.11-.45,.01-.91,.02-1.36,.03-.45,.03-.9,.08-1.35,.12-.89,.07-1.76,.25-2.6,.39-.83,.17-1.63,.38-2.38,.59-.74,.23-1.45,.45-2.08,.71-1.27,.48-2.28,1-2.97,1.37-.69,.38-1.06,.65-1.06,.65,0,0,.4-.2,1.13-.5,.73-.29,1.77-.7,3.05-1.07,.64-.21,1.34-.37,2.08-.56,.75-.17,1.53-.33,2.35-.47,.82-.11,1.67-.27,2.54-.31,.43-.03,.87-.09,1.31-.11,.44,0,.88-.01,1.33-.02,.89-.05,1.77,.04,2.64,.08,.44,0,.87,.06,1.29,.12,.42,.05,.84,.11,1.26,.16,.42,.04,.81,.13,1.21,.21,.39,.08,.78,.16,1.15,.24,.76,.13,1.44,.37,2.08,.55,.64,.2,1.24,.33,1.75,.54,.51,.19,.95,.36,1.32,.5,.74,.27,1.16,.43,1.16,.43,0,0-.4-.21-1.09-.58-.35-.18-.78-.4-1.27-.65Z"/><path class="cls-22" d="M28.43,121.8c-.43,.01-.9,.02-1.39,.04-.49,0-1.01,.02-1.54,.03-.54,0-1.09,0-1.65,.01-.56,.01-1.13,0-1.7,0-.57,0-1.14,0-1.7-.03-.56-.02-1.11-.03-1.65-.05-.53-.02-1.05-.04-1.54-.06-.49-.02-.95-.04-1.38-.06-.85-.04-1.57-.08-2.08-.1-.5-.02-.8-.03-.8-.03,0,0,.28,.09,.76,.24,.49,.14,1.19,.33,2.04,.5,.43,.09,.89,.18,1.38,.25,.49,.08,1.01,.15,1.55,.21,.54,.05,1.1,.11,1.67,.14,.57,.03,1.15,.05,1.73,.06,.58,0,1.16,0,1.73-.03,.57-.01,1.13-.06,1.67-.1,.54-.05,1.06-.11,1.56-.18,.49-.06,.96-.14,1.39-.22,.86-.15,1.56-.32,2.05-.46,.48-.14,.77-.22,.77-.22,0,0-.3,0-.8,0-.51,.01-1.23,.03-2.08,.06Z"/><path class="cls-22" d="M42.98,69.66c-.04-3.72-.05-7.36-.07-10.89-.05-3.54-.09-6.94-.12-10.2-.02-1.61-.05-3.19-.07-4.71,0-.37-.02-.76-.02-1.13l-.02-.57c0-.16-.02-.21-.02-.32l-.05-.28c-.11-.74-.25-1.49-.44-2.18-.39-1.42-.94-2.71-1.65-3.84-.73-1.15-1.56-2.04-2.41-2.85-1.75-1.58-3.56-2.55-5.08-3.19-.76-.3-1.43-.53-2.05-.71v-.11s.02-.07,.02-.11c0-.25-.09-.46-.19-.64-.21-.3-.51-.46-.78-.58-.07-.02-.12-.04-.19-.05-.02-.23-.12-.42-.27-.58-.09-.12-.21-.21-.34-.27-.02-.23-.09-.42-.21-.6-.12-.18-.3-.32-.46-.42V9.67c.21-.07,.46-.16,.71-.27,.05-.02,.21-.11,.34-.18,.12-.09,.23-.18,.3-.28,.05-.11,.09-.37,.09-.39v-1.38c0-.46-.04-2.3-.04-2.74-.02-.46-.02-.9-.04-1.35,0-.34-.02-.97-.02-.99,.11-.34-.11-.58-.21-.71-.16-.16-.3-.21-.44-.3-.09-.04-.18-.07-.27-.11-.18-.05-.34-.09-.5-.12-.07-.02-.14-.04-.21-.05-6.46-1.59-12.11-.39-13.79,.05-.02,0-.05,0-.07,.02-.09,.02-.16,.04-.21,.05-.05,.02-.11,.02-.14,.04-.05,.02-.07,.02-.07,.02-.09,.04-.18,.07-.28,.11-.12,.09-.27,.14-.42,.3-.12,.12-.3,.37-.21,.71l-.09,6.46s.05,.28,.12,.39c.05,.11,.18,.19,.28,.28,.12,.07,.28,.16,.34,.18,.27,.12,.53,.19,.76,.28v15.75c-.19,.11-.35,.25-.48,.42-.12,.18-.19,.37-.21,.6-.12,.07-.23,.14-.34,.27-.14,.16-.25,.35-.27,.58-.07,.02-.12,.04-.19,.05-.27,.12-.57,.28-.76,.58-.14,.21-.23,.46-.19,.74v.11c-.62,.18-1.29,.41-2.05,.71-1.52,.64-3.33,1.61-5.06,3.19-.87,.81-1.7,1.7-2.42,2.85-.69,1.13-1.26,2.42-1.65,3.84-.19,.69-.35,1.43-.44,2.18l-.04,.28c-.02,.11-.04,.16-.04,.32l-.02,.57c0,.37-.02,.76-.02,1.13-.02,1.52-.04,3.1-.07,4.71-.04,3.26-.09,6.66-.12,10.2-.02,3.52-.05,7.17-.07,10.89-.02,3.7-.02,7.47-.04,11.24,.02,3.75,.02,7.52,.04,11.24,.02,3.7,.05,7.35,.07,10.89,.04,3.52,.09,6.94,.12,10.18,.02,.81,.02,1.59,.04,2.39,0,.8,.04,1.59,.14,2.39,.12,.8,.35,1.59,.71,2.32,.35,.71,.89,1.35,1.5,1.82,1.22,.96,2.64,1.31,3.91,1.58,.6,.12,1.19,.23,1.77,.34h.05s.09,.02,.14,.02c.05,.02,.12,.02,.19,.04,.11,.02,.23,.04,.37,.05,.09,.02,.16,.02,.25,.04,.28,.05,.57,.09,.83,.12,.6,.07,1.19,.14,1.73,.19l-.02-.02c.34,.04,.71,.07,1.1,.09,.02,0,.02,.02,.04,.02,.18,0,.35,.02,.53,.04h.02c2.37,.19,5.4,.35,8.85,.34h.04c3.4-.02,7.19-.21,11.12-.73l.04-.04c.92-.12,1.89-.28,2.9-.5,1.27-.27,2.67-.62,3.91-1.58,.62-.48,1.15-1.12,1.5-1.82,.35-.73,.58-1.52,.71-2.32,.02-.12,.04-.25,.04-.37h.02s0-.04-.02-.04c.09-.67,.11-1.33,.11-1.98,.02-.8,.04-1.58,.04-2.39,.04-3.24,.09-6.66,.12-10.18,.02-3.54,.05-7.19,.07-10.89,0-3.72,.02-7.49,.02-11.24s-.02-7.54-.02-11.24ZM28.99,8.64s-.02,0-.05,.02c-.14,.05-.27,.11-.39,.14v-.32c.12,.02,.27,.05,.39,.11,.04,.02,.05,.02,.05,.04h.02s0,.02-.02,.02ZM14.11,1.88c.16-.09,.37-.16,.58-.23,.73-.19,1.47-.3,2.14-.39,.11-.02,.21-.04,.32-.04,0,0,.35-.05,.99-.11,1.36-.12,4.02-.27,6.97,.04,.51,.04,1.04,.11,1.58,.18,.3,.04,.6,.09,.92,.16h.02c.11,.02,.19,.05,.3,.07,.21,.07,.34,.09,.34,.09,.21,.07,.41,.14,.58,.23,.04,.04,.11,.07,.14,.09l-.04,.07c0,.34-.02,.69-.02,1.04-.02,.44-.02,.89-.04,1.35,0,.44-.02,.9-.02,1.36s-.02,.92-.02,1.38v.58c-.85-.09-1.66-.16-2.46-.21-5.45-.41-9.42-.12-11.22,.07-.25,.04-.46,.05-.64,.07-.14,.02-.27,.04-.34,.05-.09,.02-.12,.02-.12,.02v-.58c-.02-.46-.02-.94-.02-1.38-.02-.46-.02-.92-.02-1.36-.02-.46-.02-.9-.04-1.35,0-.35-.02-.71-.02-1.04l-.04-.07s.09-.05,.14-.09Zm-.05,6.78q-.05-.02-.07-.02v-.02s.02-.02,.07-.04c.12-.05,.25-.09,.37-.11,.02-.02,.04-.02,.05-.02v.35c-.16-.05-.3-.11-.42-.16ZM31.31,123.89s0-.02-.02-.02c-.02-.04-.05-.07-.07-.11-.07-.07-.12-.14-.18-.19s-.11-.11-.16-.16c-.05-.05-.09-.11-.14-.14-.04-.02-.07-.05-.09-.07,.07-.02,.12-.02,.19-.02,.3-.04,.64-.09,.97-.14,.02,.04,.02,.05,.04,.09l.07,.18c.04,.07,.05,.14,.09,.21,.04,.07,.09,.14,.11,.21-.28,.07-.53,.11-.81,.16Zm1.45-.27c-.07,.02-.14,.02-.21,.04l-.04-.04-.07-.11c-.05-.05-.11-.11-.16-.18l-.16-.16-.12-.14s-.02,0-.04-.02c.27-.04,.55-.07,.83-.12,.12-.02,.25-.05,.37-.07,0,.04,0,.05,.02,.11,0,.05,.02,.11,.04,.18,0,.05,.02,.12,.05,.19,.02,.07,.04,.14,.07,.21-.19,.04-.39,.07-.58,.11Zm1.68-.32c-.25,.04-.5,.09-.73,.14l-.05-.09c-.04-.05-.09-.11-.12-.18-.04-.05-.07-.11-.12-.16l-.09-.14s-.04-.05-.05-.07c.28-.07,.58-.12,.89-.19v.04c.02,.05,.05,.12,.07,.18,.04,.07,.07,.16,.11,.23,.04,.07,.07,.16,.11,.23v.02Zm1.86-.42c-.18,.04-.35,.07-.53,.12l-.04-.05s-.07-.09-.11-.16c-.04-.04-.05-.09-.09-.14l-.09-.14s-.04-.07-.05-.11c-.02-.02-.04-.05-.05-.07-.02,0-.02,.02-.02,.02v.21s0,.09,.02,.16c0,.05,.02,.12,.04,.19,.02,.05,.05,.11,.07,.16-.19,.04-.39,.09-.58,.12v-.02s-.05-.07-.09-.11c-.05-.07-.11-.14-.16-.19-.05-.07-.11-.12-.16-.18-.05-.05-.09-.09-.12-.12,.25-.07,.48-.12,.74-.19,.09-.02,.18-.05,.27-.07,.25-.07,.5-.16,.74-.23,.02,.07,.05,.14,.07,.21,.04,.09,.05,.16,.09,.25,.04,.09,.09,.18,.12,.27,0,.02,.02,.04,.02,.05-.04,0-.05,0-.09,.02Zm.55-.16h-.02s-.05-.09-.07-.12c-.07-.09-.12-.16-.18-.23-.05-.07-.12-.14-.18-.21-.04-.05-.09-.09-.12-.14,.14-.04,.28-.11,.41-.16l.02,.02c.02,.07,.05,.16,.11,.23,.04,.09,.07,.18,.12,.27,.05,.09,.11,.19,.16,.28-.09,.04-.16,.05-.25,.07Zm.76-.23c-.04-.05-.07-.09-.11-.12-.09-.09-.16-.18-.23-.25l-.21-.21c-.05-.04-.11-.09-.16-.12,.23-.09,.44-.16,.65-.25,.04-.02,.07-.04,.11-.05,0,.04,.02,.09,.05,.14,.02,.05,.04,.12,.07,.19,.02,.05,.05,.14,.09,.21,.05,.07,.09,.14,.12,.23,.02,.02,.04,.04,.05,.07-.16,.05-.3,.11-.44,.16Zm.81-.34v-.02s-.07-.07-.09-.11c-.07-.07-.12-.12-.18-.19-.05-.05-.11-.12-.16-.18-.05-.04-.11-.09-.14-.12-.05-.04-.09-.07-.11-.09,.19-.11,.39-.19,.58-.3,.02,.04,.04,.05,.04,.07,.04,.07,.07,.14,.12,.21,.05,.09,.11,.16,.18,.25,.05,.07,.12,.16,.21,.23l.02,.02c-.14,.09-.3,.16-.48,.23Zm1.42-.89c-.05-.02-.09-.05-.14-.09-.05-.04-.09-.09-.14-.12l-.12-.09s-.05-.05-.09-.07c-.04-.04-.05-.05-.07-.05h-.02s.02,.05,.04,.09c0,.04,.02,.07,.04,.11,.02,.05,.05,.11,.07,.16,.04,.05,.07,.11,.11,.16,.04,.04,.07,.07,.09,.11-.07,.07-.16,.12-.25,.19l-.05-.04-.12-.09c-.07-.04-.16-.09-.23-.16-.07-.04-.14-.09-.23-.14l-.18-.14s-.02-.02-.04-.02c.11-.05,.21-.11,.32-.16,.37-.19,.73-.41,1.08-.64,0,.02,.02,.02,.02,.04l.12,.25c.04,.05,.07,.11,.11,.14,.04,.07,.07,.11,.11,.16-.12,.14-.27,.28-.41,.41Zm.58-.64s-.05-.07-.09-.09c-.05-.04-.09-.09-.14-.12l-.12-.09s-.07-.05-.11-.07t-.04-.02s.09-.04,.12-.07c.07-.04,.12-.09,.19-.14l.02,.02,.11,.12c.05,.05,.09,.11,.12,.14,.04,.04,.05,.07,.09,.11-.05,.07-.11,.14-.16,.21Zm.3-.48s-.04-.04-.05-.04c-.05-.04-.12-.07-.18-.11-.04-.02-.09-.04-.12-.05,.25-.18,.48-.37,.71-.57-.09,.27-.21,.53-.35,.76Zm.85-77.42c-.02,.37-.02,.76-.02,1.13-.04,1.52-.05,3.1-.07,4.71-.05,3.26-.09,6.66-.12,10.2-.04,3.52-.05,7.17-.09,10.89,0,3.7-.02,7.47-.02,11.24s.02,7.52,.02,11.24c.04,3.7,.05,7.35,.07,10.89,.05,3.52,.09,6.94,.14,10.18,0,.73,.02,1.43,.02,2.14-.05-.02-.09-.04-.14-.05-.23-.09-.48-.14-.69-.19-.46-.11-.87-.16-1.26-.21-.76-.09-1.4-.16-1.84-.19-.46-.04-.71-.05-.71-.05,0,0,.23,.11,.65,.27,.42,.16,1.03,.37,1.75,.62,.37,.11,.76,.23,1.17,.37,.37,.12,.81,.34,.97,.53,.02,.02,0,.05-.02,.05-.05,.05-.21,.21-.39,.3-.37,.23-.81,.39-1.27,.51-.46,.14-.94,.23-1.42,.32-.48,.09-.97,.16-1.43,.23-.46,.07-.9,.14-1.35,.19-.42,.05-.83,.11-1.22,.14-.76,.09-1.4,.18-1.84,.25-.44,.07-.69,.12-.69,.12,0,0,.27,.04,.71,.11,.44,.05,1.08,.12,1.84,.16,.39,.04,.81,.05,1.26,.05s.92,0,1.4-.04c.5-.04,.99-.09,1.5-.16,.5-.07,1.03-.18,1.54-.32,.04,0,.07-.02,.09-.02-.19,.12-.41,.23-.6,.34-.25,.14-.48,.27-.71,.37-.21,.12-.42,.23-.62,.32-.18,.09-.34,.16-.48,.23-.12,.07-.23,.12-.3,.16-.07,.04-.11,.07-.11,.07,0,0,.04-.02,.12-.02,.07,0,.19-.02,.34-.02,.16-.02,.34-.05,.53-.07,.21-.05,.44-.11,.71-.16,.23-.05,.48-.12,.73-.21-.05,.04-.12,.09-.18,.12-.37,.27-.76,.51-1.15,.74-.39,.21-.78,.42-1.17,.6-.8,.37-1.59,.69-2.35,.94-.78,.27-1.5,.46-2.19,.65-.69,.16-1.33,.32-1.89,.44-.57,.11-1.06,.21-1.49,.3-.41,.09-.73,.14-.94,.19-.23,.05-.34,.07-.34,.07,0,0,.12,0,.34-.02,.23-.02,.57-.04,.97-.07,.34-.04,.76-.07,1.2-.12v.02c.02,.05,.04,.09,.05,.16,.02,.05,.05,.11,.07,.18,.04,.05,.07,.12,.11,.21,.04,.05,.07,.12,.11,.19-.42,.07-.89,.14-1.33,.19-.02-.04-.04-.05-.05-.09-.02-.05-.05-.11-.07-.16-.04-.04-.05-.09-.09-.12-.02-.05-.05-.09-.07-.12-.02-.04-.04-.05-.07-.07-.02-.04-.02-.05-.04-.05h-.02v.07s.02,.05,.02,.11c0,.04,.02,.07,.02,.12,.02,.05,.02,.11,.04,.16,.02,.05,.04,.11,.04,.16t.02,.04c-.42,.04-.83,.09-1.26,.12l-.04-.09-.05-.11c-.04-.07-.07-.14-.11-.21-.04-.05-.05-.11-.09-.16l-.11-.14c-.02-.05-.05-.09-.07-.12l-.05-.05s-.02-.04-.02-.04v.12s.02,.09,.02,.14l.02,.16c.02,.07,.04,.14,.04,.19,.02,.07,.04,.16,.05,.21l.04,.11c-.39,.04-.78,.07-1.17,.09h-.04c-.19,0-.37,.02-.55,.02-.02-.05-.02-.14-.04-.21,0-.07-.02-.14-.04-.19l-.04-.18c0-.05-.02-.09-.04-.12,0-.04-.02-.07-.02-.09-.02-.02-.02-.04-.02-.04v.04s-.02,.05-.04,.09c-.02,.04-.02,.07-.04,.12l-.04,.18c-.02,.05-.02,.12-.04,.19s-.02,.16-.02,.21l-.02,.02c-.48,.02-.97,.04-1.45,.05v-.19c0-.07-.02-.12-.02-.19,0-.05-.02-.11-.02-.16s-.02-.11-.02-.14c-.02-.05-.02-.09-.04-.11,0-.04,0-.05-.02-.07v-.04s0,.02-.02,.04c0,0,0,.04-.02,.05-.02,.04-.02,.07-.04,.11-.02,.05-.04,.09-.04,.14-.02,.05-.04,.11-.04,.18-.02,.05-.04,.11-.04,.18,0,.04-.02,.07-.02,.09,0,.04,0,.07-.02,.11v.02h-1.36v-.04c-.02-.07-.02-.14-.04-.21,0-.07-.02-.14-.02-.19-.02-.07-.04-.12-.04-.16-.02-.05-.04-.11-.04-.14-.02-.04-.04-.05-.04-.07s-.02-.04-.02-.04v.04s-.02,.04-.04,.07c0,.04-.02,.09-.04,.14,0,.04-.02,.09-.04,.16,0,.05-.02,.12-.04,.19,0,.07-.02,.14-.02,.21v.04c-.73,0-1.45-.02-2.14-.05l.02-.05,.04-.11c.02-.05,.04-.12,.05-.19,.02-.05,.04-.11,.07-.18l.04-.14c.02-.05,.04-.09,.04-.12,.02-.04,.02-.05,.02-.07,.02-.02,.02-.04,.02-.04,0,0-.02,0-.04,.02,0,.02-.04,.04-.05,.05-.04,.02-.07,.05-.09,.09-.04,.04-.09,.07-.12,.12-.04,.04-.07,.09-.11,.16-.04,.05-.07,.11-.11,.18l-.05,.11-.05,.11-.04,.07c-.44-.02-.9-.05-1.33-.07,.02-.04,.05-.09,.09-.12,.04-.07,.07-.12,.11-.18,.04-.07,.07-.12,.09-.18,.04-.04,.05-.09,.07-.12s.04-.07,.04-.09c.02-.02,.02-.04,.02-.04,0,0-.02,.02-.04,.02-.02,.02-.04,.04-.07,.05-.04,.02-.09,.05-.12,.07-.05,.04-.11,.07-.16,.12-.05,.04-.11,.09-.16,.12-.07,.05-.12,.11-.19,.18-.02,.02-.05,.05-.09,.09l-.05,.05c-.39-.04-.78-.05-1.15-.07l.02-.02c.02-.05,.05-.12,.09-.19,.04-.05,.05-.12,.09-.18l.05-.16c.02-.05,.02-.09,.04-.12,.02-.04,.02-.07,.02-.09h-.02s-.04,.02-.05,.05c-.04,.02-.07,.05-.11,.09l-.25,.25c-.05,.07-.11,.12-.14,.18l-.07,.09-.05,.07c-.39-.02-.78-.05-1.15-.09l.04-.04c.02-.05,.05-.11,.09-.18,.04-.04,.05-.09,.09-.14l.07-.14s.04-.07,.05-.11c.02-.02,.02-.05,.04-.07h-.02s-.04,.02-.07,.04c-.04,.02-.07,.04-.11,.07l-.11,.09c-.05,.04-.09,.07-.14,.12-.05,.04-.09,.09-.14,.14l-.07,.07-.05,.09-.02,.04c-.37-.04-.71-.07-1.03-.11l.09-.11c.04-.07,.09-.14,.14-.21,.04-.05,.07-.12,.11-.19l.11-.14s.07-.09,.11-.12c.02-.02,.04-.05,.05-.07,.02-.02,.04-.02,.04-.02h-.04s-.07,.02-.11,.02c-.04,.02-.09,.04-.14,.05-.07,.04-.12,.07-.19,.11-.05,.05-.12,.09-.18,.16-.07,.05-.14,.12-.19,.16l-.09,.11-.11,.09-.09,.07s-.04,.04-.07,.05c-.28-.02-.55-.05-.78-.07,.04-.05,.07-.11,.11-.16,.04-.07,.09-.14,.12-.21l.11-.18c.04-.05,.05-.09,.09-.14,.02-.04,.04-.07,.05-.09,0-.02,.02-.04,.02-.04,0,0-.02,0-.04,.02-.04,0-.07,.02-.11,.04-.04,.04-.09,.05-.14,.09-.05,.04-.11,.07-.18,.12-.05,.04-.12,.09-.19,.16-.07,.05-.12,.12-.19,.18l-.11,.11-.04,.05c-.27-.04-.48-.07-.6-.09-.09,0-.14-.02-.14-.02h-.07l.05-.07c.04-.05,.09-.12,.12-.19,.05-.05,.09-.11,.14-.16l.11-.14s.07-.07,.09-.11l.07-.07s.02-.04,.02-.04c0,0-.02,0-.04,.02-.02,0-.05,0-.09,.02-.05,.02-.09,.04-.14,.05-.05,.02-.11,.05-.18,.09-.05,.04-.12,.07-.19,.12-.05,.04-.12,.09-.19,.16l-.09,.09-.09,.11-.04,.04c-.11-.02-.23-.04-.34-.05-.16-.04-.32-.05-.48-.09,.02-.02,.04-.04,.05-.07,.02-.02,.04-.04,.05-.07,.04-.04,.07-.09,.11-.12,.02-.05,.05-.11,.07-.14,.04-.04,.05-.07,.07-.11,.02-.04,.04-.07,.05-.11,0-.02,.02-.04,.02-.05s.02-.02,.02-.02h-.04s-.02,.02-.05,.04c-.02,.02-.05,.04-.09,.05-.04,.04-.07,.05-.11,.09-.04,.02-.07,.05-.12,.09-.04,.04-.07,.07-.12,.12-.02,.02-.04,.04-.05,.05-.04,.02-.05,.05-.07,.07-.02,.02-.04,.04-.07,.07,0,.02-.02,.04-.04,.04-.18-.04-.35-.05-.55-.11,.05-.05,.11-.12,.14-.18,.04-.07,.09-.14,.12-.19,.02-.05,.05-.12,.09-.16,.02-.05,.04-.11,.05-.14s.04-.07,.05-.09v-.04l-.04,.02s-.04,.04-.07,.05c-.04,.02-.09,.05-.12,.07-.05,.04-.11,.07-.16,.12-.05,.04-.11,.09-.18,.14-.05,.05-.11,.11-.18,.16-.04,.04-.05,.07-.09,.09l-.05,.05c-.19-.04-.37-.07-.57-.11-.02,0-.02-.02-.02-.02-.04,0-.05-.02-.07-.02,.04-.05,.09-.11,.12-.16,.05-.05,.09-.12,.12-.18,.04-.05,.07-.11,.11-.16,.02-.05,.05-.09,.07-.12,.02-.04,.04-.07,.04-.09,.02-.02,.02-.04,.02-.04,0,0-.02,.02-.04,.02-.02,.02-.04,.04-.07,.05s-.09,.04-.14,.07c-.04,.02-.09,.05-.14,.09-.07,.05-.12,.09-.19,.14-.05,.04-.12,.09-.18,.14-.04,.02-.05,.05-.09,.07-.21-.09-.42-.18-.6-.27,.02-.02,.04-.05,.05-.09l.05-.09s.04-.05,.04-.07c.02-.02,.02-.04,.04-.05h-.02s-.04,0-.05,.02c-.02,.02-.05,.04-.07,.05l-.09,.05s-.07,.05-.11,.07c0,.02-.02,.02-.02,.02-2.07-.99-2.51-1.73-2.51-1.73,2.69,1.03,5.29,.25,5.29,.25-5.79-.11-6.34-1.42-6.37-1.82,.28,.07,.55,.14,.83,.21,.39,.07,.76,.12,1.15,.19,.37,.04,.74,.07,1.1,.09,.35,.04,.71,.04,1.03,.04,.34,.02,.64,0,.94-.02,.57-.02,1.04-.05,1.36-.09,.34-.04,.53-.07,.53-.07,0,0-.19-.04-.51-.11-.34-.05-.8-.12-1.36-.19-.28-.05-.58-.09-.9-.12-.32-.05-.66-.11-1.01-.16-.35-.05-.69-.11-1.06-.16-.35-.07-.73-.12-1.08-.21-.37-.07-.73-.16-1.06-.25-.35-.09-.65-.19-.87-.35-.21-.16-.34-.39-.32-.57,.02-.16,.19-.39,.41-.55,.41-.35,.81-.58,1.12-.71,.3-.12,.48-.19,.48-.19,0,0-.19,0-.53,.04-.32,.05-.81,.18-1.35,.48-.12,.09-.3,.19-.46,.35-.02-.44-.02-.9,0-1.36,0-.8,.02-1.58,.04-2.39,.04-3.24,.07-6.66,.11-10.18,.04-3.54,.05-7.19,.07-10.89,.02-3.72,.02-7.49,.04-11.24-.02-3.77-.02-7.54-.04-11.24-.02-3.72-.04-7.36-.07-10.89-.04-3.54-.07-6.94-.12-10.2-.02-1.61-.04-3.19-.05-4.71-.02-.37-.02-.76-.04-1.13v-.55l.04-.5c.07-.71,.18-1.4,.35-2.05,.05-.23,.11-.44,.18-.67l.5-1.45s.02-.04,.02-.05c1.77-3.89,6.41-6.62,9.51-8.05,.25-.12,.48-.23,.71-.34,1.35-.58,2.25-.9,2.25-.9,0,0-.46,.04-1.33,.23-.27,.05-.58,.12-.92,.21-.02-.07,.02-.18,.07-.27,.09-.14,.25-.27,.46-.35,.11-.05,.21-.09,.32-.12h.28c.5-.02,.99-.04,1.45-.05,.44-.02,.89-.04,1.29-.05,.39-.04,.76-.05,1.1-.09,.32-.02,.6-.04,.85-.05,.23-.04,.41-.04,.55-.05,.12-.02,.18-.02,.18-.02,0,0-.05-.02-.18-.02-.14-.02-.32-.04-.55-.05-.25-.02-.53-.05-.85-.07-.34-.02-.71-.04-1.1-.07-.41-.02-.85-.04-1.29-.05-.46-.02-.96-.04-1.45-.05h-.16c.04-.07,.07-.12,.12-.18,.12-.12,.28-.23,.48-.32,.11-.04,.19-.07,.3-.11h.28c.23,0,.44,0,.67-.02,.42,0,.87-.02,1.27-.04,.39,0,.78-.02,1.13-.04,.35-.02,.67-.04,.97-.05,.27-.02,.51-.04,.74-.04,.19-.02,.35-.04,.48-.04,.11-.02,.16-.02,.16-.02,0,0-.05,0-.16-.02-.12,0-.28-.02-.48-.04-.23-.02-.48-.02-.74-.04-.3-.02-.62-.04-.97-.05-.35-.02-.74-.04-1.13-.05-.41,0-.85-.02-1.27-.02-.23-.02-.44-.02-.67-.02h-.27s-.11,0-.14,.02c-.07,.02-.16,.04-.23,.07,.02-.05,.04-.12,.09-.16,.11-.18,.28-.3,.5-.41,.07-.04,.16-.07,.25-.11,.02-.02,.04-.02,.07-.02l.07-.04h.27c.23,0,.46-.02,.67-.02,.48,0,.92-.02,1.36-.02,.42-.02,.83-.04,1.22-.04,.37-.02,.71-.04,1.04-.04,.3-.02,.55-.04,.8-.05,.21,0,.39-.02,.5-.02,.12-.02,.19-.02,.19-.02h-.19c-.11-.02-.28-.02-.5-.04-.23-.02-.5-.02-.8-.04-.32-.02-.67-.02-1.04-.04-.39-.02-.8-.04-1.22-.04-.44-.02-.89-.02-1.36-.04h-.67V8.31c.5-.05,.97-.11,1.42-.16,.53-.05,1.03-.11,1.49-.16,.46-.04,.89-.07,1.26-.11,.37-.04,.71-.05,.99-.07,.27-.04,.48-.05,.62-.05h.48c.14,0,.35,.02,.62,.05,.28,.02,.6,.04,.97,.07,.39,.04,.81,.07,1.26,.11,.48,.05,.97,.11,1.49,.16,.46,.05,.96,.11,1.45,.16V25.16h-.67c-.46,.02-.92,.02-1.36,.04-.42,0-.83,.02-1.22,.04-.37,.02-.73,.02-1.03,.04s-.57,.02-.81,.04c-.21,.02-.39,.02-.5,.04h-.19s.07,0,.19,.02c.11,0,.28,.02,.51,.02,.23,.02,.5,.04,.8,.05,.3,0,.65,.02,1.03,.04,.39,0,.8,.02,1.22,.04,.44,0,.9,.02,1.36,.02,.21,0,.44,.02,.67,.02h.27l.07,.04s.05,0,.09,.02c.07,.04,.16,.07,.23,.11,.19,.11,.39,.23,.5,.41,.04,.04,.07,.09,.09,.14-.09-.02-.16-.04-.23-.05-.04-.02-.12-.04-.14-.02h-.27c-.23,0-.44,0-.67,.02-.42,0-.85,.02-1.27,.02-.39,.02-.78,.04-1.13,.05-.35,.02-.67,.04-.97,.05-.27,.02-.53,.02-.74,.04-.19,.02-.35,.04-.48,.04-.11,.02-.16,.02-.16,.02,0,0,.05,0,.16,.02,.12,0,.28,.02,.48,.04,.21,0,.48,.02,.74,.04,.3,.02,.62,.04,.97,.05,.35,.02,.74,.04,1.13,.04,.42,.02,.85,.04,1.27,.04,.23,.02,.44,.02,.67,.02h.28c.11,.04,.21,.07,.3,.11,.19,.09,.37,.19,.48,.32,.05,.05,.09,.11,.11,.18h-.14c-.5,.02-.99,.04-1.45,.05-.46,.02-.89,.04-1.29,.05-.39,.04-.76,.05-1.1,.07-.32,.02-.6,.05-.85,.07-.23,.02-.41,.04-.53,.05-.12,0-.19,.02-.19,.02,0,0,.07,0,.19,.02s.3,.02,.53,.05c.25,.02,.53,.04,.85,.05,.34,.04,.71,.05,1.1,.09,.41,.02,.85,.04,1.29,.05,.46,.02,.96,.04,1.45,.05h.28c.12,.04,.23,.07,.32,.12,.21,.09,.37,.21,.46,.35,.05,.09,.09,.19,.07,.27-.34-.09-.65-.16-.92-.21-.87-.19-1.33-.23-1.33-.23,0,0,.9,.32,2.25,.9,.21,.11,.46,.21,.71,.34,3.08,1.43,7.72,4.16,9.51,8.05,0,.02,.02,.04,.02,.05l.5,1.45c.07,.23,.12,.44,.18,.67,.16,.65,.28,1.35,.35,2.05l.04,.5v.55Z"/><text class="cls-23" transform="translate(2.95 68.75) scale(.86 1)"><tspan class="cls-4" x="0" y="0">V</tspan><tspan class="cls-2" x="8.32" y="0">OD</tspan><tspan class="cls-3" x="27" y="0">K</tspan><tspan class="cls-1" x="35.31" y="0">A</tspan></text></g></g></svg>