<?xml version="1.0" encoding="UTF-8"?><svg id="Layer_2" xmlns="http://www.w3.org/2000/svg" viewBox="0 0 24.56 63.8"><defs><style>.cls-1{fill:none;}.cls-2{fill:#00416b;}.cls-3{fill:#e2e5ea;}.cls-4{fill:#fff;}.cls-5{fill:#e5e7ec;}.cls-6{fill:#9eacbe;}.cls-7{fill:#c2cad5;}.cls-8{fill:#bac3d0;}.cls-9{fill:#a9b6c5;}.cls-10{fill:#aebac8;}.cls-11{fill:#c9d0da;}.cls-12{fill:#d7dbe2;}.cls-13{fill:#e0e3e8;}.cls-14{fill:#a2b0c1;}.cls-15{opacity:.9;}</style></defs><g id="Aperol_Spiritz"><g><g class="cls-15"><g class="cls-15"><path class="cls-5" d="M19.2,23.14l-.02,.11s.02,.01,.02,.04c0,.13,.06-.26,.12-.69-.02-.02-.05,.11-.13,.54Z"/><path class="cls-13" d="M18.74,24.71v.15s-.01,0,0-.02v-.13Z"/><path class="cls-5" d="M18.95,24.33c.06-.35,.08-.46,.1-.63-.03,.11-.05,.19-.07,.24-.03,.07-.05,.17-.09,.29-.02,.14-.04,.25-.05,.31q.01-.06,.02-.13c-.01,.08-.03,.23-.03,.23,.02-.03,.08-.36,.12-.57-.02,.13-.04,.31-.06,.46l.03-.12c.01-.07,.03-.13,.03-.17v.08Z"/><path class="cls-5" d="M19.58,21.64v.06c-.02,.1-.03,.19-.03,.28l.04-.22c0-.05,0-.11,.01-.16v-.02s.01,.02,0,.07h0s.02-.14,.02-.14v.04c0-.13,.03-.26,.02-.3-.01,.03-.05,.23-.08,.39Z"/><path class="cls-3" d="M19.82,19.48s-.02,.01-.03-.02c-.03,.3-.02,.25-.05,.55-.04-.18-.19,1-.25,1.24-.07,.31-.17,.93-.25,1.32,0,.08,0,.07-.02,.23,.02-.09,.04-.21,.05-.33,0-.02,0-.04,0-.07,0,.03,0,.05,0,.07-.02,.16-.03,.22-.04,.29,0-.04,.01-.06,.01-.05,0,.04,0,.06,0,.07,.08-.36,.15-.69,.19-.7l.02-.11c.07-.43,.1-.57,.12-.55,.02-.18,.05-.39,.09-.73,.04-.25,.09-.55,.14-.86,0-.08,0-.17,0-.28v-.06Z"/><path class="cls-6" d="M18.83,5.77c-.05,.11,.05,1.02,.19,1.99,.14,.99,.24,1.99,.33,3.06,.02-.16,.06-.04,.11,.42,.03,.23,.04,.66,.05,.76,.05,.55,.1,.69,.13,1.36,0-.11,.02-.13,.02-.27,0-.37-.02-.83-.07-1.38-.02-.16-.01-.48,.03-.11-.06-.65-.08-.88-.1-1.13-.11-.99,.02-.34,.02-.67,0-.05,0-.13,0-.22-.11-.69-.22-1.32-.35-1.98-.04-.29-.03-.25-.08-.54-.11-.58-.28-1.35-.29-1.28Z"/><path class="cls-9" d="M19.55,14.97c-.01-.27-.02-.45-.03-.58,0,.31-.02,.61-.02,.91l.02,.24c.01-.23,.02-.43,.03-.57Z"/><path class="cls-9" d="M19.64,10.44c-.04-.08-.01,.19-.03,.4,.06,.47,.08,.8,.06,1.07,0,.02,.01,.22,.02,.29,0-.02-.01,.15-.03,0,.02,.16,.01,.33,.03,.43,0,.25-.03-.2-.04-.03,.09,.89,.04,1.62-.01,1.29-.02-.12-.04-.36-.07-.5-.03-.14-.03-.59-.05-.92-.01,.09,0,.56-.02,.3-.02-.18-.05-.42-.08-.7,.05,.68,.1,1.51,.1,1.88v.42c0,.13,0,.32,.02,.58-.02,.14-.02,.34-.03,.57,0,.09,.01,.17,.02,.22,.03,.22,.04-.62,.05-.82,.02,.88,.06,1.03,.11,.73,.03-.21,.05-.44,.06-.8,0-.19,0-.47,0-.7,0,.08,.02,.32,.02,.26,.01-.45,.03-.63,0-1.22,0,.02,.01-.04,.02,.12-.02-.32,.03-.13,0-.45,.01-.15,.06-.1,.03-.54-.01-.18-.01-.19-.02-.3-.05-.48-.08-.84-.1-1.04-.02-.28-.05-.56-.09-.82,.01,.13,.02,.25,.02,.27Z"/><path class="cls-14" d="M19.54,9.79c0,.33-.13-.33-.02,.67,.02,.25,.04,.48,.1,1.13-.04-.37-.05-.05-.03,.11,.05,.55,.08,1.02,.07,1.38,0,.14-.02,.15-.02,.27-.03-.67-.08-.81-.13-1.36-.01-.1-.02-.52-.05-.76-.06-.46-.1-.57-.11-.42,.03,.39,.05,.78,.08,1.16,0,.03,0,.07,0,.11,.03,.28,.06,.51,.08,.7,.03,.26,.01-.21,.02-.3,.02,.33,.02,.77,.05,.92,.03,.14,.05,.38,.07,.5,.05,.32,.1-.41,.01-1.29,0-.17,.04,.28,.04,.03-.02-.1-.01-.27-.03-.43,.02,.16,.02-.02,.03,0,0-.08-.01-.27-.02-.29,.02-.27,0-.6-.06-1.07,.01-.21-.01-.48,.03-.4,0-.02,0-.13-.02-.27-.02-.17-.05-.38-.08-.6,0,.09,0,.17,0,.22Z"/><path class="cls-10" d="M19.83,12.33c.03,.43-.02,.38-.03,.54,.03,.32-.02,.13,0,.45-.01-.16-.01-.1-.02-.12,.03,.59,.01,.78,0,1.22,0,.06-.02-.18-.02-.26,.01,.24,.01,.51,0,.7-.01,.37-.03,.6-.06,.8-.05,.3-.09,.15-.11-.73-.02,.21-.03,1.05-.05,.82,0-.04-.02-.12-.02-.22-.01,.91-.02,1.31-.03,1.95,.01,.02,.02,0,.03-.1,.06-.73,.1-.3,.16-.88,.01-.22,.02-.39,.03-.5,.03-.27,.06,.04,.1-.23,0,.02,0-.43,.01-.47,.02-.15,.05-.06,.05-.4,.02-.91,.05-1.19,.08-1.57-.03-.46-.09-.86-.13-1.32,0,.11,0,.11,.02,.3Z"/><path class="cls-7" d="M18.99,21.94c-.03,.27-.05,.41-.06,.53,.12-.77,.21-1.13,.28-1.42,.03-.09,.13-1.32,.18-1.48,.01,.04,0,.28-.02,.57,.14-1.11,.22-1.08,.32-1.93,.1-.84,.18-1.55,.26-1.63,.03-.02,.06-.6,.08-1.07,0-.19-.02-.38-.03-.56-.01,.27-.03,.49-.05,.55-.07,.16-.11,.52-.18,1.47-.02,.31-.07,.08-.09,.25-.08,.67-.16,1-.25,1.44-.03,.14-.06,.32-.09,.5-.04,.4-.06,.8-.11,1.2-.11,1.17-.16,.8-.25,1.56Z"/><path class="cls-8" d="M19.87,14.92c0,.33-.03,.24-.05,.4-.01,.04,0,.49-.01,.47-.03,.27-.06-.04-.1,.23,0,.11-.01,.29-.03,.5-.06,.57-.1,.15-.16,.88,0,.1-.02,.12-.03,.1h0c-.02-.09-.03,.3-.04,.39-.03,.49-.05,.68-.08,1.07,0,.09-.01,.16-.02,.22,.03-.18,.06-.36,.09-.5,.09-.45,.17-.78,.25-1.44,.02-.17,.07,.06,.09-.25,.07-.95,.1-1.31,.18-1.47,.02-.06,.04-.28,.05-.55,0-.17-.02-.33-.02-.46,0-.16,0-.39,0-.39-.01-.18-.03-.44-.05-.76-.03,.38-.06,.66-.08,1.57Z"/><path class="cls-11" d="M18.84,23.04c-.02,.13-.03,.27-.04,.32-.04,.29-.05,.25-.07,.38v-.06s0,.06,0,.09c.04-.13,.07-.21,.09-.2,.03-.17,.05-.32,.07-.38,.13-.44,.24-.64,.43-1.92,.07-.52,.08,.11,.18-.64,.04-.25,.08-.74,.11-.81,.04-.05,.04,.34,.1-.16,.15-1.26,.25-2.27,.33-2.42,.03-.51,.02-1.12,0-1.73-.03,.47-.05,1.05-.08,1.07-.08,.08-.16,.78-.26,1.63-.09,.84-.18,.82-.32,1.93,.02-.29,.03-.53,.02-.57-.05,.16-.15,1.39-.18,1.48-.07,.29-.16,.65-.28,1.42-.03,.17-.05,.32-.09,.57Z"/><path class="cls-12" d="M19.71,19.67c-.06,.5-.07,.12-.1,.16-.03,.07-.07,.56-.11,.81-.11,.75-.12,.12-.18,.64-.19,1.28-.3,1.49-.43,1.92-.02,.06-.04,.21-.07,.38,0,0,.01,.02,.02,.06,0,.04,.1-.45,.15-.67,.05-.13,.03,.17,0,.46v.13s-.01,.02-.01,.02v.11c.01-.09,.03-.18,.06-.28,0-.01,0-.04,.02-.11,0,.02,0,.04,0,.06,.03-.12,.06-.22,.08-.29,.02-.05,.04-.14,.07-.25,0-.06,.01-.08,.02-.15,0,.02,0,.06-.01,.11,.09-.39,.17-1.01,.25-1.31,.07-.24,.21-1.42,.26-1.24,.03-.3,.02-.25,.05-.55,0,.03,.02,.04,.03,.02,.02-.16,.05-.36,.06-.39,0,.03,0,.17-.02,.3v-.04s.02-.05,.02-.05c0-.04,0-.12,.01-.23,0-.09,0-.17,0-.25,0,.03,0,.13,0,.25v.12c.03-.2,.05-.39,.07-.56,0-.04,0-.08,0-.12,0,.03,0,.07,0,.11v-.08c.01-.16,.02-.48,.02-.8,.04-.2,.06-.45,.08-.72-.08,.15-.18,1.16-.33,2.42Z"/></g></g><g class="cls-15"><g class="cls-15"><path class="cls-5" d="M21.14,22.83l-.02,.07s.02,0,.02,.03c0,.08,.06-.17,.14-.45-.02-.02-.06,.07-.14,.35Z"/><polygon class="cls-13" points="20.63 23.8 20.61 23.9 20.61 23.89 20.63 23.8"/><path class="cls-5" d="M20.85,23.59c.06-.17,.09-.28,.13-.4-.03,.07-.06,.12-.08,.15-.03,.04-.06,.11-.1,.18-.03,.1-.05,.17-.06,.2t.03-.09c-.01,.05-.04,.15-.04,.15,.02-.02,.09-.23,.14-.36-.02,.08-.05,.2-.08,.3l.04-.08s.03-.09,.04-.11v.05Z"/><path class="cls-5" d="M21.55,21.87v.04c-.02,.07-.03,.13-.04,.18l.05-.14,.02-.11h0s0,0,0,.03h0s.03-.09,.03-.09v.02c0-.09,.03-.17,.02-.2-.01,.02-.05,.15-.09,.25Z"/><path class="cls-3" d="M21.83,20.44s-.02,0-.03-.02c-.03,.21-.02,.15-.06,.36-.04-.12-.2,.66-.27,.81-.08,.2-.19,.6-.28,.85,0,.05,0,.05-.02,.15,.02-.06,.05-.13,.06-.22,0-.01,0-.03,0-.05,0,.02,0,.04,0,.05,0,.06-.03,.12-.05,.19,0-.02,.01-.04,.02-.03,0,.03,0,.04,0,.05,.09-.23,.16-.44,.21-.44l.02-.07c.08-.28,.11-.37,.13-.35,.02-.11,.05-.24,.11-.49,.04-.16,.1-.36,.15-.57,0-.06,0-.12,.01-.19v-.04Z"/><path class="cls-6" d="M21.6,11.26c-.06,.07-.09,.69-.05,1.34,.03,.72,.05,1.44,.07,2.05,.02-.1,.06-.03,.09,.28,.01,.16,0,.44,.01,.51,.03,.37,.06,.46,.07,.91,0-.08,.03-.09,.03-.18,.02-.24,.02-.56,0-.92,0-.1,.02-.32,.03-.07,0-.31-.02-.52-.03-.76-.04-.66,.04-.23,.07-.44,0-.04,.01-.09,.01-.15-.05-.4-.11-.93-.16-1.33,0-.21,0-.15-.02-.36-.03-.39-.1-.92-.12-.87Z"/><path class="cls-9" d="M21.65,17.41c0-.18,0-.3,0-.39-.02,.2-.03,.41-.05,.61v.16c.03-.15,.04-.29,.06-.38Z"/><path class="cls-9" d="M21.94,14.4c-.03-.06-.03,.13-.05,.27,.03,.32,.03,.54,0,.71,0,.01,0,.14,0,.2,0-.01-.02,.1-.03,0,0,.11,0,.22,0,.29,0,.17-.02-.13-.04-.02,.05,.59-.02,1.08-.06,.86-.02-.08-.03-.24-.05-.33-.02-.1,0-.39,0-.61-.02,.06-.02,.37-.04,.2-.01-.17-.03-.35-.05-.46,.01,.46,.03,1.01,.02,1.25l-.02,.28c0,.09,0,.21,0,.39-.02,.09-.03,.23-.05,.38,0,.06,0,.12,.02,.14,.02,.15,.05-.41,.07-.55,0,.59,.04,.69,.09,.49,.03-.14,.06-.29,.08-.53,0-.13,.02-.31,.01-.47,0,.05,0,.21,.01,.17,.02-.3,.05-.42,.04-.82,0,.01,.01-.02,.02,.08-.01-.21,.03-.09,.02-.3,.02-.1,.06-.07,.05-.36,0-.14,0-.12,0-.2-.02-.33-.04-.58-.05-.69,0-.11-.02-.3-.04-.55,0,.09,0,.17,0,.18Z"/><path class="cls-14" d="M21.89,13.97c-.03,.22-.11-.22-.07,.44,0,.23,.03,.44,.03,.76-.02-.25-.04-.03-.03,.07,.03,.37,.03,.68,0,.92,0,.09-.02,.1-.03,.18-.01-.44-.05-.54-.07-.91-.01-.07,0-.35-.01-.51-.03-.31-.06-.38-.09-.28,0,.27,.01,.53,.02,.77,0,.02,0,.05,0,.07,.02,.11,.03,.3,.05,.46,.02,.17,.02-.14,.04-.2,0,.22-.02,.52,0,.61,.03,.1,.04,.25,.05,.33,.04,.22,.11-.27,.06-.86,.01-.12,.03,.19,.04,.02-.01-.07,0-.18,0-.29,0,.11,.02,0,.03,0,0-.05,0-.18,0-.2,.03-.18,.03-.4,0-.71,.02-.14,.02-.32,.05-.27,0-.01,0-.09,0-.18-.01-.12-.02-.25-.04-.4,0,.06,0,.11-.01,.15Z"/><path class="cls-10" d="M22.03,15.66c0,.29-.04,.26-.05,.36,.01,.21-.03,.09-.02,.3,0-.11-.01-.07-.02-.08,0,.39-.02,.52-.04,.82,0,.04-.01-.12-.01-.17,0,.16,0,.34-.01,.47-.02,.24-.05,.4-.08,.53-.06,.2-.09,.1-.09-.49-.02,.14-.05,.69-.07,.55,0-.03-.01-.08-.02-.14-.04,.66-.05,.86-.07,1.29,.01,.01,.02,0,.03-.06,.08-.48,.11-.2,.18-.58,.02-.15,.03-.26,.04-.33,.04-.18,.06,.03,.1-.15,0,.01,.01-.29,.02-.31,.02-.1,.05-.04,.07-.26,.04-.6,.08-.79,.13-1.04-.02-.27-.05-.62-.07-.89,0,.08,0,.06,0,.2Z"/><path class="cls-7" d="M20.96,21.99c-.04,.19-.06,.28-.07,.34,.14-.49,.24-.72,.31-.91,.03-.06,.16-.86,.2-.97,.01,.03,0,.19-.02,.38,.16-.73,.24-.7,.35-1.26,.11-.56,.21-1.02,.29-1.07,.03-.01,.07-.4,.11-.71,0-.13,0-.26-.01-.37-.02,.18-.04,.32-.07,.36-.08,.1-.12,.34-.21,.97-.03,.2-.08,.05-.1,.16-.09,.44-.18,.66-.27,.95-.02,.06-.05,.18-.1,.33-.04,.26-.07,.53-.13,.79-.13,.76-.18,.52-.28,1.01Z"/><path class="cls-8" d="M21.97,17.4c-.01,.22-.04,.16-.07,.26-.01,.02-.02,.33-.02,.31-.04,.18-.06-.03-.1,.15,0,.07-.02,.19-.04,.33-.07,.38-.1,.09-.18,.58,0,.06-.02,.08-.03,.06h0c-.02-.06-.03,.2-.04,.26-.04,.32-.06,.45-.1,.7,0,.06-.02,.11-.02,.15,.04-.15,.07-.27,.1-.33,.09-.29,.18-.51,.27-.95,.02-.11,.07,.04,.1-.16,.08-.63,.13-.87,.21-.97,.02-.04,.05-.19,.07-.36,0-.12,0-.22,0-.31,0-.11,.02-.26,.02-.26,0-.11-.01-.29-.02-.51-.05,.25-.09,.44-.13,1.04Z"/><path class="cls-11" d="M20.78,22.7c-.02,.09-.04,.18-.05,.21-.05,.19-.05,.16-.08,.24l.02-.03s-.01,.04-.02,.06c.05-.08,.08-.13,.09-.12,.03-.11,.06-.21,.08-.24,.14-.27,.26-.39,.47-1.22,.08-.34,.07,.08,.19-.41,.04-.16,.1-.48,.12-.53,.04-.03,.04,.23,.1-.1,.17-.83,.29-1.5,.37-1.6,.04-.34,.04-.75,.03-1.16-.04,.31-.07,.7-.11,.71-.08,.05-.18,.51-.29,1.07-.11,.56-.19,.53-.35,1.26,.02-.19,.04-.35,.02-.38-.05,.1-.17,.91-.2,.97-.08,.18-.18,.41-.31,.91-.03,.1-.05,.18-.1,.37Z"/><path class="cls-12" d="M21.72,20.56c-.07,.33-.07,.07-.1,.1-.03,.04-.08,.37-.12,.53-.12,.49-.12,.07-.19,.41-.22,.84-.33,.95-.47,1.22-.02,.04-.05,.13-.08,.24,0,0,.01,.02,.01,.05,0,.03,.11-.28,.17-.42,.05-.08,.02,.12,0,.31v.09s-.02,0-.02,0v.07c.01-.06,.03-.12,.06-.18,0,0,0-.02,.02-.07v.04c.02-.08,.05-.14,.08-.18,.02-.03,.05-.09,.07-.15,.01-.05,.01-.05,.03-.1,0,.01,0,.04-.02,.07,.1-.25,.2-.65,.28-.85,.07-.15,.24-.93,.28-.81,.03-.21,.03-.15,.06-.36,0,.02,.02,.03,.03,.02,.03-.11,.06-.24,.07-.26,0,.02-.01,.11-.03,.2v-.02s.02-.03,.02-.03c0-.02,0-.08,.02-.16,0-.06,0-.11,0-.17,0,.02,0,.09,0,.17v.08c.03-.11,.06-.23,.08-.37,0-.02,0-.05,0-.08,0,.02,0,.05,0,.07v-.06c.01-.11,.02-.32,.04-.53,.05-.13,.07-.3,.09-.48-.09,.1-.2,.76-.37,1.6Z"/></g></g><g class="cls-15"><g class="cls-15"><path class="cls-5" d="M3.17,22.19l-.02-.08s-.02,0-.04-.02c-.04-.09,.05,.2,.16,.53,.02,0,0-.1-.1-.43Z"/><path class="cls-13" d="M2.97,20.91l-.04-.11s0,0,0,.01l.04,.1Z"/><path class="cls-5" d="M2.93,21.26c.06,.2,.1,.33,.15,.47-.02-.08-.03-.15-.03-.2,0-.06-.02-.14-.04-.24-.04-.11-.06-.19-.08-.24t.03,.1c-.02-.06-.06-.18-.06-.18,0,.03,.06,.28,.11,.44-.03-.1-.08-.23-.12-.34l.02,.1c.02,.06,.03,.1,.04,.13l-.02-.06Z"/><path class="cls-5" d="M3.44,23.38l-.02-.05c-.04-.07-.07-.14-.1-.2l.05,.17,.05,.11v.02s-.01-.01-.03-.05h0s.03,.11,.03,.11v-.03c.03,.1,.07,.2,.09,.22,0-.03-.05-.18-.09-.3Z"/><path class="cls-3" d="M4.14,24.96s.02-.02,.04,0c-.07-.11-.13-.28-.2-.39,.11,.1-.27-.76-.31-.96-.15-.47-.2-.65-.32-1.01-.03-.06-.03-.04-.08-.16,.02,.07,.05,.16,.08,.25,0,.02,.01,.03,.02,.05,0-.02-.02-.04-.02-.05-.05-.13-.06-.17-.08-.22,0,.03,.01,.05,0,.04-.01-.03-.02-.04-.02-.05,.07,.28,.14,.54,.11,.57l.03,.08c.12,.32,.15,.43,.12,.43,.05,.13,.11,.28,.22,.54,.07,.19,.16,.42,.25,.65,.03,.06,.07,.12,.11,.19l.02,.05Z"/><path class="cls-6" d="M12.96,30.34c-.09-.06-.8-.07-1.54-.19-.76-.12-1.51-.36-2.25-.72,.1,.07,0,.07-.33-.08-.17-.08-.44-.26-.51-.3-.38-.21-.49-.25-.91-.55,.07,.06,.06,.08,.15,.15,.22,.19,.52,.4,.9,.61,.11,.05,.32,.21,.06,.07,.32,.19,.55,.28,.8,.4,.73,.29,.22,.16,.45,.28,.04,.02,.09,.05,.16,.08,.53,.15,1.04,.24,1.57,.28,.12,.01,.3,.04,.43,.05,.47,.03,1.09-.05,1.03-.07Z"/><path class="cls-9" d="M6.56,27.57c.16,.14,.26,.23,.34,.3-.17-.17-.32-.35-.48-.52l-.14-.13c.11,.14,.22,.25,.28,.35Z"/><path class="cls-9" d="M9.28,29.84c.07,0-.12-.09-.26-.19-.35-.15-.57-.28-.74-.42-.02,0-.15-.09-.2-.12,.02,0-.09-.08,.02-.02-.11-.06-.21-.15-.29-.19-.16-.12,.14,.07,.04-.02-.61-.36-.98-.8-.77-.67,.09,.05,.23,.16,.34,.21,.1,.05,.37,.27,.58,.42-.05-.06-.34-.27-.17-.17,.17,.1,.35,.21,.47,.27-.45-.27-.97-.65-1.18-.85-.08-.07-.16-.15-.23-.23-.08-.07-.18-.16-.34-.3-.06-.09-.17-.21-.28-.35-.05-.05-.1-.09-.13-.11-.14-.11,.3,.38,.4,.5-.49-.48-.59-.55-.47-.34,.09,.14,.2,.29,.39,.5,.1,.12,.26,.26,.41,.38-.05-.04-.19-.16-.16-.13,.25,.25,.34,.37,.72,.65-.02,0,.02,.03-.09-.04,.21,.14,.06,.09,.27,.23,.09,.09,.03,.1,.32,.29,.13,.08,.12,.08,.2,.13,.22,.12,.46,.24,.74,.38,.21,.1,.4,.19,.6,.26-.1-.04-.18-.08-.19-.09Z"/><path class="cls-14" d="M9.78,30c-.23-.12,.28,.01-.45-.28-.25-.12-.48-.21-.8-.4,.26,.13,.06-.02-.06-.07-.38-.2-.69-.42-.9-.61-.08-.07-.08-.09-.15-.15,.42,.31,.53,.35,.91,.55,.07,.04,.34,.22,.51,.3,.33,.15,.43,.15,.33,.08-.26-.13-.52-.27-.79-.43-.02-.01-.05-.03-.07-.04-.12-.05-.31-.16-.47-.27-.18-.1,.12,.11,.17,.17-.21-.15-.48-.37-.58-.42-.11-.04-.25-.16-.34-.21-.22-.14,.16,.3,.77,.67,.1,.09-.2-.1-.04,.02,.07,.03,.17,.13,.29,.19-.11-.06,0,.02-.02,.02,.05,.03,.18,.12,.2,.12,.16,.14,.39,.27,.74,.42,.14,.1,.33,.19,.26,.19,.01,.01,.1,.05,.19,.09,.15,.06,.31,.11,.46,.15-.07-.03-.12-.05-.16-.08Z"/><path class="cls-10" d="M7.93,29.16c-.29-.19-.23-.2-.32-.29-.21-.14-.07-.08-.27-.23,.1,.07,.07,.04,.09,.04-.38-.28-.47-.4-.72-.65-.03-.03,.11,.09,.16,.13-.14-.12-.3-.26-.41-.38-.19-.22-.3-.36-.39-.5-.12-.21-.02-.14,.47,.34-.1-.13-.53-.61-.4-.5,.03,.02,.08,.06,.13,.11-.29-.33-.67-.78-.95-1.18-.02,0-.02,.01,.02,.08,.3,.49,.07,.25,.3,.63,.1,.14,.18,.25,.23,.32,.11,.18-.07,.02,.05,.2-.02,0,.23,.25,.24,.28,.07,.1,0,.07,.18,.26,.18,.19,.53,.57,.86,.91,.3,.21,.58,.38,.91,.56-.08-.05-.07-.04-.2-.13Z"/><path class="cls-7" d="M3.83,22.91c-.08-.21-.12-.31-.15-.39,.19,.58,.27,.86,.32,1.08,0,.08,.44,.93,.47,1.06-.03-.02-.12-.18-.23-.38,.35,.8,.28,.82,.59,1.42,.31,.59,.61,1.08,.59,1.17-.01,.03,.26,.41,.5,.7,.1,.11,.22,.21,.33,.31-.14-.16-.25-.31-.26-.36-.03-.14-.2-.38-.62-1-.14-.2,.02-.09-.05-.21-.25-.46-.35-.72-.47-1.05-.04-.11-.1-.24-.15-.37-.15-.27-.3-.55-.42-.84-.39-.83-.19-.61-.43-1.15Z"/><path class="cls-8" d="M6.36,27.81c-.18-.19-.11-.17-.18-.26-.01-.03-.26-.29-.24-.28-.12-.18,.06-.02-.05-.2-.05-.07-.13-.18-.23-.32-.23-.39,0-.15-.3-.63-.04-.06-.04-.08-.02-.08h0c.06,.05-.11-.2-.15-.27-.21-.32-.27-.45-.42-.72-.03-.06-.06-.11-.08-.15,.05,.13,.11,.26,.15,.37,.13,.33,.22,.59,.47,1.05,.07,.12-.09,0,.05,.21,.42,.62,.59,.86,.62,1,.02,.05,.12,.19,.26,.36,.09,.09,.18,.17,.28,.25,.1,.08,.22,.22,.22,.22,.18,.14,.33,.27,.48,.37-.33-.35-.68-.73-.86-.91Z"/><path class="cls-11" d="M3.53,22.1c-.04-.1-.07-.2-.09-.24-.08-.22-.05-.19-.08-.29v.04s0-.05-.01-.07c.01,.11,.02,.17,0,.17,.04,.13,.08,.24,.08,.29,.06,.35,.03,.54,.39,1.49,.16,.38-.11-.04,.1,.52,.07,.18,.24,.53,.25,.59-.01,.05-.18-.2-.02,.16,.43,.91,.84,1.6,.85,1.75,.23,.34,.55,.71,.9,1.05-.24-.29-.51-.67-.5-.7,.02-.1-.27-.58-.59-1.17-.3-.6-.24-.62-.59-1.42,.11,.2,.2,.36,.23,.38-.03-.13-.46-.99-.47-1.06-.05-.23-.13-.51-.32-1.08-.04-.12-.08-.22-.15-.43Z"/><path class="cls-12" d="M4.16,24.78c-.16-.36,0-.11,.02-.16,0-.06-.18-.41-.25-.59-.22-.55,.05-.14-.1-.52-.36-.95-.33-1.14-.39-1.49,0-.05-.04-.16-.08-.29,0,0-.02-.01-.04-.04-.02-.03,.08,.35,.12,.53,0,.11-.09-.1-.18-.31l-.05-.1h0s-.04-.09-.04-.09c.02,.07,.03,.14,.05,.22,0,0,0,.03,.02,.08,0-.01-.01-.03-.02-.04,.02,.09,.04,.18,.04,.24,0,.05,.02,.11,.04,.2,.02,.05,.02,.06,.04,.11,0-.01-.02-.04-.03-.08,.07,.31,.24,.77,.31,1.01,.03,.2,.41,1.06,.3,.96,.11,.22,.08,.17,.19,.39-.02-.02-.03-.02-.04,0,.05,.12,.12,.27,.12,.29-.02-.02-.07-.11-.12-.21v.03s.02,.03,.02,.03c.01,.02,.05,.08,.1,.16,.04,.06,.08,.11,.12,.16-.02-.02-.07-.08-.12-.16l-.06-.07c.07,.15,.14,.29,.19,.4,.02,.02,.03,.05,.05,.08-.01-.02-.03-.04-.05-.07l.03,.06c.07,.11,.21,.32,.36,.52,.06,.15,.16,.32,.29,.51,0-.15-.43-.84-.85-1.75Z"/></g></g><g class="cls-15"><g class="cls-15"><path class="cls-5" d="M12.11,29.51h-.06s0,0-.02,.02c-.07,0,.14,.04,.38,.06,.01-.02-.06-.04-.29-.08Z"/><polygon class="cls-13" points="11.29 29.16 11.21 29.16 11.22 29.16 11.29 29.16"/><path class="cls-5" d="M11.47,29.35c.14,.03,.23,.04,.33,.06-.06-.02-.1-.04-.13-.06-.04-.02-.09-.04-.15-.06-.05,0-.11-.02-.17-.03t.07,.02s-.12-.02-.12-.02c.02,.01,.19,.07,.3,.08-.07,0-.17-.02-.25-.03l.06,.03s.07,.02,.09,.02h-.04Z"/><path class="cls-5" d="M12.94,29.73h-.04c-.06,0-.11,0-.15,0l.12,.02h.09s.01,0,.01,0c0,0-.01,0-.04,0h0s.07,0,.07,0h-.02c.07,0,.15,0,.17-.01-.02,0-.13-.02-.22-.03Z"/><path class="cls-3" d="M14.13,29.69s-.01-.02,0-.04c-.09,.02-.21,.01-.3,.03,.09-.06-.56-.04-.69-.09-.17-.03-.51-.06-.72-.1-.04,0-.04,.01-.12,0,.05,.01,.11,.02,.18,.02,.01,0,.02,0,.04,0-.02,0-.03,0-.04,0-.05,0-.1,0-.16,0,.02,0,.03,0,.03,0-.02,0-.03,0-.04,0,.2,.05,.38,.08,.38,.12h.06c.24,.02,.31,.04,.3,.06,.09,0,.2,0,.41,0,.14,0,.31,.01,.48,.02,.05,0,.09-.02,.15-.03h.04Z"/><path class="cls-6" d="M20.64,26.26c-.08-.02-.51,.24-.93,.54-.44,.31-.89,.6-1.38,.89,.08-.02,.05,.04-.15,.18-.1,.07-.31,.16-.36,.2-.25,.16-.3,.22-.62,.38,.06-.02,.07,0,.14-.03,.19-.07,.41-.18,.66-.34,.07-.05,.24-.1,.07,0,.22-.12,.36-.21,.52-.31,.45-.29,.18-.05,.35-.11,.03,0,.07-.02,.11-.05,.3-.23,.56-.46,.84-.69,.06-.06,.17-.12,.24-.17,.25-.2,.56-.49,.51-.48Z"/><path class="cls-9" d="M16.36,28.68c.13-.06,.22-.1,.28-.13-.15,.05-.31,.1-.46,.14l-.11,.06c.12-.03,.22-.06,.3-.07Z"/><path class="cls-9" d="M18.66,27.88c.02-.05-.1,.02-.21,.06-.21,.15-.37,.23-.51,.27,0,.01-.1,.06-.14,.08,0-.01-.08,.02,0-.03-.07,.05-.16,.08-.2,.11-.13,.05,.09-.07,0-.04-.41,.26-.8,.35-.65,.24,.05-.04,.16-.1,.22-.16,.06-.06,.28-.14,.44-.22-.05,0-.28,.11-.16,.04,.11-.07,.24-.15,.31-.21-.32,.18-.71,.38-.89,.45l-.21,.07c-.06,.03-.15,.07-.28,.13-.08,0-.18,.04-.3,.07-.04,.02-.08,.05-.1,.06-.1,.07,.32-.08,.43-.1-.43,.18-.49,.25-.33,.24,.11-.01,.24-.04,.43-.09,.1-.03,.24-.09,.35-.15-.04,.02-.15,.08-.12,.07,.23-.08,.33-.09,.62-.23,0,.01,.02,0-.05,.05,.15-.09,.08,0,.22-.09,.08-.02,.08,.03,.28-.08,.1-.06,.08-.04,.14-.08,.23-.14,.4-.25,.48-.3,.13-.08,.26-.16,.37-.24-.06,.04-.11,.07-.13,.07Z"/><path class="cls-14" d="M18.95,27.66c-.17,.06,.1-.18-.35,.11-.16,.1-.3,.2-.52,.31,.17-.11,0-.05-.07,0-.25,.16-.48,.27-.66,.34-.07,.03-.08,.02-.14,.03,.32-.17,.37-.23,.62-.38,.04-.03,.25-.12,.36-.2,.2-.14,.24-.2,.15-.18-.19,.11-.37,.21-.54,.3-.01,0-.03,.02-.05,.03-.07,.06-.2,.14-.31,.21-.11,.08,.11-.03,.16-.04-.16,.08-.38,.16-.44,.22-.06,.06-.17,.12-.22,.16-.14,.11,.24,.02,.65-.24,.09-.03-.12,.09,0,.04,.04-.03,.13-.06,.2-.11-.07,.05,.02,.01,0,.03,.04-.02,.13-.07,.14-.08,.14-.04,.3-.12,.51-.27,.11-.03,.24-.11,.21-.06,.01,0,.07-.03,.13-.07,.08-.06,.17-.12,.27-.19-.04,.02-.08,.04-.11,.05Z"/><path class="cls-10" d="M17.8,28.43c-.21,.11-.2,.06-.28,.08-.15,.09-.08,0-.22,.09,.07-.04,.04-.03,.05-.05-.28,.15-.39,.16-.62,.23-.03,0,.08-.05,.12-.07-.11,.06-.25,.11-.35,.15-.19,.05-.31,.08-.43,.09-.17,.01-.1-.06,.33-.24-.11,.02-.53,.17-.43,.1,.02-.02,.06-.04,.1-.06-.28,.09-.67,.22-.98,.31,0,.01,0,.02,.06,.01,.38-.06,.18,.05,.49,0,.11-.03,.21-.05,.26-.06,.14-.02,0,.07,.15,.05,0,.01,.22-.08,.24-.08,.08,0,.05,.04,.22-.02,.46-.16,.62-.18,.83-.23,.22-.12,.4-.25,.62-.38-.06,.03-.04,.02-.14,.08Z"/><path class="cls-7" d="M12.75,29.18c-.16,0-.23,0-.28,0,.4,.05,.59,.08,.75,.13,.05,.02,.69-.04,.78-.02-.02,.02-.14,.04-.3,.06,.59-.01,.6,.06,1.05,.03,.46-.04,.84-.08,.91-.03,.02,.03,.33-.05,.58-.12,.1-.04,.19-.09,.28-.13-.14,.04-.26,.06-.3,.05-.1-.04-.3,0-.81,.1-.16,.03-.06-.06-.15-.05-.36,.03-.55,.01-.79-.01-.05,0-.15,0-.27-.01-.21,.03-.42,.05-.63,.06-.61,.04-.43-.06-.82-.06Z"/><path class="cls-8" d="M16.5,28.96c-.17,.06-.14,.01-.22,.02-.02,0-.25,.09-.24,.08-.15,.02,0-.06-.15-.05-.06,.01-.15,.03-.26,.06-.31,.04-.1-.07-.49,0-.05,0-.06,0-.06-.01h0s-.15,.02-.2,.03c-.25,.05-.35,.06-.56,.08-.05,0-.09,.01-.12,.01,.12,0,.22,0,.27,.01,.25,.02,.43,.04,.79,.01,.09-.01-.01,.08,.15,.05,.5-.1,.7-.13,.81-.1,.04,0,.16-.02,.3-.05,.09-.04,.17-.08,.23-.11,.08-.04,.2-.07,.2-.07,.14-.07,.26-.13,.37-.19-.21,.05-.36,.07-.83,.23Z"/><path class="cls-11" d="M12.17,29.14c-.07,0-.14-.01-.17-.01-.15-.02-.13-.03-.2-.04h.03s-.03,0-.05,0c.06,.03,.11,.05,.1,.07,.09,.01,.17,.03,.2,.04,.23,.08,.33,.19,1.02,.23,.28,0-.05,.09,.35,.1,.14,0,.4-.02,.44,0,.03,.03-.17,.09,.1,.08,.69-.04,1.24-.11,1.34-.06,.27-.06,.59-.18,.89-.32-.25,.07-.56,.14-.58,.12-.06-.06-.45-.02-.91,.03-.46,.03-.46-.04-1.05-.03,.15-.02,.28-.04,.3-.06-.09-.03-.73,.04-.78,.02-.15-.04-.35-.08-.75-.13-.08,0-.14-.01-.3-.03Z"/><path class="cls-12" d="M14.01,29.61c-.28,0-.07-.05-.1-.08-.04-.02-.3,0-.44,0-.41-.01-.07-.1-.35-.1-.69-.04-.8-.14-1.02-.23-.03-.01-.11-.03-.2-.04,0,0-.01,.01-.03,.02-.02,.01,.23,.07,.35,.1,.07,.04-.09,.04-.25,.04h-.07s0,0,0,0h-.06s.1,.03,.15,.04c0,0,.02,0,.06,0h-.03c.06,.02,.12,.04,.15,.05,.03,.02,.07,.03,.13,.04,.04,0,.04,0,.08,0,0,0-.03,0-.06,0,.21,.05,.54,.08,.72,.11,.13,.05,.78,.03,.69,.1,.09-.01,.21-.01,.3-.02-.02,.01-.02,.03,0,.04,.09,0,.2,0,.22,0-.02,.01-.09,.02-.16,.02h.02s.03,0,.03,0c.02,0,.06-.01,.13-.02,.05-.02,.09-.03,.13-.04-.01,.01-.07,.03-.13,.04l-.06,.02c.1,0,.2,0,.31-.02,.02,0,.04,0,.06-.02-.02,0-.04,0-.06,.01h.05c.08-.03,.25-.07,.42-.12,.12,0,.25-.01,.4-.04-.1-.06-.65,.02-1.34,.06Z"/></g></g><g class="cls-15"><g class="cls-15"><path class="cls-5" d="M5.81,61.31l.11-.02s0-.02,.03-.04c.06-.02,0-.01-.15,.01-.04,0-.08,.02-.12,.03-.02,.01-.05,.02-.08,.04-.01,0-.04,.03-.05,.08,0,.04,.01,.06,.03,.09,.13,.11,.22,.11,.33,.15,.01,0-.02-.02-.1-.05-.04-.02-.1-.03-.17-.08-.02,0-.05-.05-.06-.09,.01-.06,.05-.07,.07-.08,.05-.02,.1-.03,.16-.05Z"/><path class="cls-13" d="M7.46,61.36l.15-.02s0,0-.02,0l-.13,.02Z"/><path class="cls-5" d="M7.04,61.24c-.27,.01-.44,.03-.64,.05,.11,0,.2,0,.26,.01,.11,0,.21,.01,.3,.01,.14-.01,.26-.02,.32-.02q-.06,0-.14,0c.08,0,.24-.02,.24-.02-.04-.01-.37,0-.59,.02,.13-.01,.31-.03,.46-.05h-.13c-.08,0-.14,0-.17,0h.08Z"/><path class="cls-5" d="M6.87,61.96h-.07c-.1-.02-.19-.03-.28-.04l.22,.05c.05,0,.11,.01,.16,.01h.02s-.02,.01-.07,0h0s.13,.03,.13,.03h-.04c.13,0,.27,.03,.3,.02-.03-.01-.23-.05-.39-.08Z"/><path class="cls-3" d="M9.05,62.23s-.01-.02,.02-.03c-.3-.03-.25-.03-.55-.06,.18-.04-1.01-.19-1.25-.26-.31-.08-.94-.17-1.32-.29-.08-.02-.07,0-.23-.05,.09,.04,.2,.07,.33,.09,.02,0,.04,0,.07,.01-.03,0-.05,0-.07-.01-.09-.02-.18-.04-.29-.07,.04,.01,.06,.02,.05,.02-.04-.01-.06-.02-.07-.02,.36,.14,.69,.2,.7,.25l.11,.02c.44,.08,.57,.11,.55,.13,.18,.03,.39,.05,.74,.1,.25,.04,.56,.09,.87,.15,.09,0,.17,0,.28,.01h.07Z"/><path class="cls-6" d="M17.04,61.16s.3,.1,.66,.17c.65,.12,1.06,.2,1.18,.22,.14,.04,.3,.04,.39,.15-.13,.11-.32,.1-.47,.13l-.47,.05c-.19,.01-.37,.03-.55,.04,.16,.02,.04,.06-.42,.11-.24,.02-.66,.02-.76,.03-.56,.04-.7,.07-1.37,.1,.12,0,.13,.03,.27,.03,.37,.01,.84,0,1.4-.04,.16-.01,.49,0,.11,.03,.47-.02,.79-.05,1.14-.08,1.01-.1,.33,.02,.68,.02,.07,0,.17,0,.3-.02,.42-.1,.68-.14,.85-.37-.2-.27-.68-.29-1.07-.36-.17-.03-.39-.08-.55-.1-.59-.08-1.39-.14-1.32-.1Z"/><path class="cls-9" d="M13.6,62.03c.27,0,.45-.01,.59-.01-.31-.02-.62-.03-.92-.05h-.25c.23,.02,.44,.04,.58,.06Z"/><path class="cls-9" d="M18.16,62.22c.08-.04-.19-.02-.4-.03-.48,.05-.81,.06-1.08,.04-.02,0-.22,0-.3,.02,.02,0-.15-.02,0-.03-.16,.01-.33,0-.43,.02-.25,0,.2-.03,.03-.04-.9,.07-1.63,0-1.3-.05,.12-.02,.36-.03,.51-.06,.14-.03,.59-.02,.92-.02-.09-.01-.56-.01-.3-.03,.25-.02,.53-.04,.7-.06-.69,.03-1.52,.06-1.89,.05l-.42-.02c-.13,0-.32,0-.59,.01-.14-.02-.34-.04-.58-.05-.09,0-.18,.01-.22,.02-.22,.02,.62,.05,.83,.07-.89,0-1.04,.04-.74,.1,.21,.03,.44,.05,.81,.08,.2,0,.47,.01,.71,0-.08,0-.32,.01-.26,.02,.45,.02,.64,.05,1.23,.03-.02,0,.04,.01-.12,.02,.32-.02,.13,.03,.45,0,.15,.02,.1,.06,.54,.05,.19,0,.19,0,.3-.01,.48-.04,.85-.06,1.05-.08,.29-.02,.56-.05,.83-.08-.13,.01-.25,.02-.27,.02Z"/><path class="cls-14" d="M18.83,62.12c-.35,0,.32-.12-.68-.02-.35,.03-.67,.06-1.14,.08,.38-.03,.05-.04-.11-.03-.56,.05-1.03,.05-1.4,.04-.14,0-.15-.02-.27-.03,.67-.02,.82-.05,1.37-.1,.1-.01,.53,0,.76-.03,.46-.05,.58-.09,.42-.11-.4,.02-.78,.04-1.17,.06-.03,0-.07,0-.11,0-.17,.02-.45,.04-.7,.06-.26,.02,.21,.02,.3,.03-.33,0-.78,0-.92,.02-.14,.03-.38,.04-.51,.06-.33,.04,.41,.11,1.3,.05,.17,0-.28,.03-.03,.04,.1-.01,.28,0,.43-.02-.16,.01,.01,.02,0,.03,.08,0,.28,0,.3-.02,.27,.02,.6,.01,1.08-.04,.21,.01,.49-.01,.4,.03,.02,0,.14,0,.27-.02,.1-.01,.2-.03,.31-.04,.12-.02,.25-.04,.38-.06-.12,.01-.23,.02-.3,.02Z"/><path class="cls-10" d="M16.26,62.38c-.44,.02-.39-.03-.54-.05-.32,.02-.13-.03-.45,0,.16,0,.1-.01,.12-.02-.59,.02-.78-.02-1.23-.03-.06,0,.18-.01,.26-.02-.24,0-.51,0-.71,0-.37-.02-.6-.05-.81-.08-.3-.05-.15-.1,.74-.1-.21-.03-1.05-.05-.83-.07,.04,0,.12-.01,.22-.02-.92-.03-1.33-.04-1.97-.06-.02,0,0,.02,.1,.03,.73,.07,.31,.11,.88,.18,.22,.02,.4,.03,.51,.04,.27,.04-.04,.06,.23,.1-.02,0,.43,0,.47,.02,.15,.02,.06,.05,.4,.07,.91,.03,1.19,.08,1.58,.12,.4-.03,.93-.07,1.34-.1-.11,0-.11,0-.3,.01Z"/><path class="cls-7" d="M6.58,61.36c-.19-.02-.36-.06-.51-.09,.73,.17,1.11,.24,1.4,.33,.09,.03,1.33,.15,1.49,.2-.04,.01-.28,0-.58-.03,1.12,.16,1.09,.23,1.94,.34,.85,.1,1.56,.2,1.64,.28,.02,.03,.6,.07,1.08,.11,.19,0,.39,0,.56-.01-.27-.02-.49-.05-.55-.07-.16-.07-.52-.12-1.47-.2-.31-.03-.08-.08-.25-.1-.67-.1-1-.17-1.45-.27-.09-.02-.28-.06-.51-.1-.41-.04-.81-.07-1.21-.12-1.18-.13-.81-.17-1.56-.27Z"/><path class="cls-8" d="M13.64,62.35c-.33-.01-.25-.04-.4-.07-.04-.01-.49-.01-.47-.02-.27-.04,.04-.06-.23-.1-.11,0-.29-.02-.51-.04-.58-.07-.15-.1-.88-.18-.1,0-.12-.02-.1-.03h0c.1-.02-.29-.04-.39-.05-.49-.03-.68-.06-1.08-.1-.09,0-.16-.01-.23-.02,.23,.04,.42,.07,.51,.1,.45,.1,.78,.17,1.45,.27,.17,.02-.06,.07,.25,.1,.95,.08,1.32,.13,1.47,.2,.06,.02,.28,.04,.55,.07,.18,0,.34,0,.47-.01,.16,0,.39,.01,.39,.01,.18,0,.45-.02,.76-.03-.38-.04-.67-.08-1.58-.12Z"/><path class="cls-11" d="M5.86,61.68c.07-.02,.18-.04,.28-.06,.28-.04,.24-.02,.38-.03h-.06s.06,0,.09,0c-.13,0-.22-.02-.21-.04-.05,0-.13,.01-.37,.04h-.14s-.04,0-.04,0c0,0,0,0,0-.01-.02-.04-.04-.06-.04-.08-.03-.04-.06-.07-.07-.06,.02,0,.07-.01,.08-.05-.01,0,.03-.05,.05-.08h0s.01,.02,.04,.03c.04,.02,.09,.05,.16,.07,.25,.09,.62,.18,1.27,.28,.52,.08-.11,.08,.64,.19,.25,.04,.74,.09,.81,.12,.05,.04-.34,.04,.17,.1,1.27,.16,2.28,.28,2.43,.37,.51,.04,1.12,.04,1.74,.02-.48-.03-1.06-.07-1.08-.11-.08-.08-.79-.18-1.64-.28-.85-.11-.82-.18-1.94-.34,.3,.02,.53,.04,.58,.03-.16-.05-1.4-.17-1.49-.2-.28-.09-.66-.16-1.4-.33-.09-.02-.19-.05-.22-.06h0s-.11,.14-.12,.17c0,.03-.03,.06-.07,.06,0,0,0,0,.04,.04,.03,.03,.15,.28,.12,.21h.04Z"/><path class="cls-12" d="M8.86,62.11c-.5-.07-.12-.07-.17-.1-.07-.03-.56-.08-.81-.12-.75-.12-.12-.12-.64-.19-.65-.1-1.02-.19-1.27-.28-.06-.02-.11-.05-.16-.07-.03-.01-.03-.02-.04-.03h0s-.06,.06-.05,.07c0,.04-.06,.06-.08,.05,0,0,.03,.02,.07,.06,0,.02,.02,.04,.04,.08,.01,.02,0,0,0,.01,0,0,.03,0,.04,0h.14c.25-.03,.32-.04,.37-.04,0,0,.02-.02,.06-.03,.05-.02-.49,0-.63,.05,0,0-.01,0-.03-.04,0-.01,0-.01,.01,.02,0,0,0-.02,.04-.03,.07-.03,.21-.07,.36-.1l.13-.03s.02,0,.02,0l.11-.02c-.09,0-.19,0-.28,0-.01,0-.04,0-.11,.01,.02,0,.04,0,.06,0-.09,0-.19,.01-.3,.02-.04,0-.19,.01-.07,.08,.04,.02,.09,.03,.14,.05-.02,0-.05-.02-.1-.03,.37,.16,1,.25,1.31,.33,.24,.08,1.43,.23,1.25,.27,.3,.03,.25,.03,.55,.06-.04,0-.04,.02-.02,.03,.16,.03,.36,.05,.4,.07-.03,0-.17,0-.3-.02h.04s.05,.02,.05,.02c.04,0,.12,0,.23,.01,.09,0,.17,0,.25,0-.03,0-.13,0-.25,0h-.12c.21,.03,.4,.06,.56,.08,.04,0,.08,0,.12,0-.03,0-.07,0-.11,0h.08c.16,.01,.48,.02,.8,.03,.2,.04,.45,.07,.72,.09-.15-.09-1.16-.2-2.43-.37Z"/></g></g><g class="cls-15"><g class="cls-15"><path class="cls-5" d="M12.11,39.34s0-.08,0-.11c0,0-.02,0-.03-.04-.02-.13-.01,.28,0,.74,.02,.02,.03-.13,.04-.59Z"/><path class="cls-13" d="M12.28,37.61c0-.05,0-.11-.01-.16,0,0,0,.01,0,.02,0,.05,.01,.1,.02,.14Z"/><path class="cls-5" d="M12.14,38.05c0,.28,0,.46,.02,.67,0-.12,.02-.21,.03-.27,.01-.08,.02-.19,.03-.32,0-.09-.01-.22-.01-.34q0,.06,0,.15c0-.08-.01-.25-.01-.25-.01,.04-.01,.39,0,.62,0-.14-.02-.33-.03-.49,0,.04,0,.09,0,.14,0,.06,0,.13,0,.18v-.08Z"/><path class="cls-5" d="M11.96,40.98s0-.05,0-.07c0-.09-.01-.19-.02-.29,0,.08,0,.16-.01,.24,0,.05,0,.11,.01,.17,0,0,0,.01,0,.02,0,0,0-.02,0-.07,0,0,0,0,0,0,0,.05,0,.09,0,.14,0-.01,0-.03,0-.04,0,.14,0,.28,0,.32,.01-.03,.02-.24,.02-.42Z"/><path class="cls-3" d="M11.97,43.28s.02-.01,.04,.02c0-.17,0-.41,0-.58,.06,.18,.07-1.08,.1-1.34,.03-.34,.04-1,.06-1.42,0-.09-.02-.07-.02-.24,0,.1,0,.22,0,.36,0,.03,0,.05,0,.08,0-.03,0-.05,0-.08,0-.1,0-.2,0-.31,0,.04,0,.07,0,.06,0-.02,0-.05,0-.08-.02,.39-.04,.75-.09,.77,0,.04,0,.08,0,.11,0,.46-.02,.61-.04,.59,0,.28,0,.58,0,.78-.01,.33-.03,.62-.04,.92,0,.1,.01,.2,.02,.29,0,.02,0,.05,0,.07Z"/><path class="cls-6" d="M12.48,57.88c.06-.11,.12-1.09,.1-2.12,0-1.07-.02-2.14-.03-3.28-.03,.16-.06,.04-.09-.45-.01-.25,0-.7,0-.81-.03-.59-.06-.74-.09-1.45,0,.12-.03,.14-.03,.28-.01,.39-.01,.89,.02,1.47,0,.17-.02,.51-.03,.11,0,.5,.02,.83,.02,1.21,.02,1.06-.05,.36-.08,.7,0,.06-.01,.14-.02,.23,.04,.74,.09,1.42,.12,2.13,0,.17,0,.41,0,.58,.02,.63,.07,1.47,.09,1.39Z"/><path class="cls-9" d="M12.47,48.05c.01,.19,.02,.4,.03,.62,0-.33,.01-.65,.02-.97,0-.09-.02-.18-.02-.26,0,.25,0,.46-.03,.61Z"/><path class="cls-9" d="M12.23,52.86c.03,.09,.03-.2,.05-.42-.03-.5-.03-.85,0-1.14,0-.02,0-.23-.01-.31,0,.02,.02-.16,.03,0,0-.17,0-.35-.01-.46,0-.27,.03,.21,.04,.03-.06-.95,0-1.72,.04-1.38,.02,.13,.03,.38,.06,.53,.03,.15,.02,.63,.02,.98,.02-.1,.02-.6,.04-.32,.01,.27,.03,.56,.05,.74-.02-.73-.05-1.61-.04-2,0-.15,0-.3,0-.45,0-.22-.02-.43-.03-.62,.02-.15,.02-.36,.03-.61,0-.1-.02-.19-.03-.23-.03-.24-.02,.66-.04,.88-.03-.94-.09-1.1-.12-.78-.02,.22-.04,.47-.05,.86,0,.21,0,.5,.01,.75,0-.08-.02-.34-.02-.27,0,.47-.04,.67-.02,1.3,0-.02-.01,.04-.02-.13,.02,.34-.03,.14,0,.47-.02,.16-.06,.11-.05,.57,0,.13,0,.23,0,.32,.02,.33,.03,.68,.04,1.1,0,.3,.02,.59,.03,.87,0-.14,0-.26,0-.28Z"/><path class="cls-14" d="M12.27,53.55c.03-.34,.1,.36,.08-.7,0-.37-.02-.71-.02-1.21,.01,.4,.04,.05,.03-.11-.03-.59-.03-1.08-.02-1.47,0-.15,.02-.16,.03-.28,.02,.71,.05,.86,.09,1.45,.01,.11,0,.56,0,.81,.03,.49,.06,.62,.09,.45,0-.4,0-.82-.01-1.24,0-.04,0-.08,0-.12-.02-.18-.04-.48-.05-.74-.02-.27-.02,.22-.04,.32,0-.35,0-.82-.02-.98-.03-.15-.04-.4-.06-.53-.05-.34-.1,.43-.04,1.38-.01,.18-.03-.3-.04-.03,.01,.11,0,.29,.01,.46,0-.17-.02,.02-.03,0,0,.08,0,.29,.01,.31-.03,.28-.03,.63,0,1.14-.02,.22-.02,.51-.05,.42,0,.02,0,.14,0,.28,0,.22,.02,.43,.03,.64,0-.1,0-.18,.02-.23Z"/><path class="cls-10" d="M12.15,50.85c-.01-.46,.03-.41,.05-.57-.02-.34,.03-.14,0-.47,0,.17,.01,.11,.02,.13-.02-.63,0-.82,.02-1.3,0-.06,.02,.19,.02,.27-.01-.25-.02-.54-.01-.75,.01-.39,.03-.63,.05-.86,.04-.32,.09-.16,.12,.78,.02-.22,0-1.11,.04-.88,0,.04,.02,.13,.03,.23,0-.6-.03-1.42-.05-2.08-.01-.02-.02,0-.02,.1-.03,.78-.08,.33-.12,.94,0,.12,0,.47-.01,.53-.03,.28-.06-.04-.09,.25,0-.02,.01,.46,0,.5-.02,.16-.05,.07-.05,.42,0,.96-.05,1.26-.09,1.66,.03,.49,.06,.91,.09,1.41,0-.09,0-.19,0-.32Z"/><path class="cls-7" d="M12.5,40.57c0-.2-.01-.39-.01-.57-.01,.83-.05,1.23-.09,1.54-.02,.1,.02,1.41-.02,1.59-.02-.05-.03-.3-.04-.61-.03,1.19-.11,1.17-.15,2.07-.03,.9-.09,1.65-.16,1.74-.03,.02-.04,.64-.05,1.14,.01,.2,.02,.4,.03,.59,.01-.28,.03-.52,.05-.58,.07-.17,.11-.55,.13-1.56,0-.33,.07-.09,.08-.27,.05-.71,.1-1.07,.15-1.55,.01-.09,.03-.3,.05-.54,0-.43-.01-.86-.01-1.29-.03-1.25,.07-.87,.05-1.69Z"/><path class="cls-8" d="M12.16,48.1c0-.35,.03-.26,.05-.42,.01-.04,0-.52,0-.5,.03-.28,.06,.04,.09-.25,0-.06,0-.41,.01-.53,.03-.61,.09-.16,.12-.94,0-.1,.01-.12,.02-.1,0,0,0,0,0,0,.02,.1,.02-.31,.02-.42,0-.52,0-.73,0-1.14,0-.08,0-.16,0-.24-.02,.25-.03,.45-.05,.54-.06,.48-.1,.84-.15,1.55-.01,.18-.07-.06-.08,.27-.02,1.01-.06,1.39-.13,1.56-.02,.06-.03,.3-.05,.58,0,.17,.02,.33,.02,.49,0,.17,0,.41,0,.41,0,.29,.02,.55,.04,.8,.04-.4,.08-.7,.09-1.66Z"/><path class="cls-11" d="M12.48,39.38c0-.11-.01-.24-.01-.34-.01-.31,0-.27,0-.41v.06s0-.07,0-.1c-.02,.14-.03,.24-.05,.22,0,.19,0,.35,0,.42-.06,.48-.12,.71-.14,2.09,0,.56-.09-.11-.11,.7,0,.27,0,.79-.02,.86-.03,.05-.07-.35-.09,.18-.02,1.34-.07,2.41-.15,2.58,0,.54,.03,1.18,.07,1.82,.01-.5,.02-1.11,.05-1.14,.07-.08,.13-.83,.16-1.74,.03-.9,.12-.88,.15-2.07,.01,.31,.02,.56,.04,.61,.04-.18,0-1.49,.02-1.59,.04-.31,.08-.71,.09-1.54,0-.22,0-.42,0-.62Z"/><path class="cls-12" d="M12.06,43.07c.01-.53,.05-.13,.09-.18,.02-.08,.02-.6,.02-.86,.02-.8,.1-.14,.11-.7,.01-1.38,.08-1.61,.14-2.09,0-.07,0-.23,0-.42,0,0-.02-.02-.03-.06-.02-.05-.03,.49-.04,.73-.03,.14-.05-.17-.08-.48,0-.05-.01-.09-.02-.14,0,0,0-.01,0-.02,0-.04,0-.08-.01-.12,0,.11-.01,.21-.02,.3,0,.04,0,.07,0,.12,0-.02,0-.04,0-.06,0,.13-.02,.24-.03,.32-.01,.06-.02,.15-.03,.27,0,.05,0,.1,0,.16,0-.05,0-.09,0-.11-.02,.42-.03,1.08-.06,1.42-.03,.26-.04,1.52-.1,1.34,0,.17,0,.41,0,.58-.01-.04-.02-.04-.04-.02,0,.17-.01,.39-.02,.42-.01-.03,0-.18,0-.32,0,.01,0,.03,0,.04,0,.02,0,.03,0,.05,0,.08,0,.17,.01,.25,.01,.09,.02,.18,.03,.26-.01-.03-.02-.13-.03-.26,0-.04-.01-.09-.02-.12,0,.18-.01,.38-.02,.59,0,.04,0,.09,0,.13,0-.03,0-.07,0-.11,0,.03,0,.06,0,.09,0,.17,.03,.5,.05,.84-.03,.22-.04,.48-.04,.76,.08-.16,.13-1.23,.15-2.58Z"/></g></g><path class="cls-2" d="M22.01,61c-.25-.08-.59-.15-1.06-.23-.4-.07-.89-.13-1.5-.19-1.16-.12-2.53-.21-4.03-.26-.18,0-.36-.01-.55-.02-.01,0-.03,0-.04,0,.02,.06,.04,.19,0,.32,0,.02-.01,.04-.02,.06-.05,.09-.12,.16-.19,.23-.06,.06-.12,.12-.2,.15-.09,.04-.18,.07-.28,.11-.28,.1-.47,.14-.54,.15,.28-.02,.52-.06,.73-.1,.64,.15,1.02,.39,1.02,.61,0,.21-.33,.42-.9,.58-.34,0-.68,.01-1.03,.02,.65-.09,1.17-.27,1.17-.55s-.52-.47-1.16-.55c.24-.04,.46-.09,.64-.15,.07-.03,.14-.05,.2-.08,.1-.05,.17-.09,.23-.14,.05-.05,.09-.09,.11-.14,.01-.03,.03-.07,.03-.1,0-.4-1.04-.7-2.38-.7s-2.37,.31-2.37,.7c0,.08,.04,.16,.12,.23,.05,.04,.1,.08,.17,.12,.09,.05,.21,.1,.34,.14,.07,.02,.14,.04,.21,.06,.21,.05,.45,.09,.72,.12-.5,.1-.87,.27-.87,.5,0,.29,.54,.48,1.21,.56-.35,0-.69,0-1.03,0-.6-.15-.95-.38-.95-.59,0-.18,.26-.37,.7-.52,0,0,.02,0,.03,0-.05-.01-.12-.03-.21-.05-.11-.03-.24-.07-.39-.14-.05-.02-.11-.05-.17-.07-.02,0-.03-.02-.05-.02-.21-.11-.3-.26-.34-.4-.03-.13,0-.25,0-.32,.05,0,.1,0,.14,0,0-.03,.01-.04,.01-.04,.76-.15,.88-.44,.88-.44,0,0,0-.02,.01-.02,.26,.06,.95,.19,1.84,.19,.54,0,1.16-.05,1.81-.19,0,0,0,.02,0,.02,0,0,.12,.29,.88,.44,0,0,0,.01,.01,.03,.2,0,.39,.01,.58,.02-1.13-.74-1.39-2.7-1.6-3.89-.4-2.27-.53-4.58-.61-6.88-.04-1.2-.06-2.41-.06-3.61,0-.92,0-1.83,.02-2.74,.03-1.72,.13-3.45,.17-5.17,.03-1.21,.16-2.35,.96-3.33,.29-.36,.71-.8,1.16-.97,1.34-.51,2.56-1.39,3.62-2.35,1.09-.99,2.01-2.14,2.76-3.4,2.69-4.51,2.88-9.55,2.28-14.68-.48-4.12-1.34-8.24-2.51-12.22h-.08c.33-.1,.33-.2,.33-.28,0-.18,0-.41-2.96-.6-1.81-.12-4.23-.18-6.79-.18S7.3,.06,5.49,.18c-2.96,.19-2.96,.42-2.96,.6,0,.09,0,.19,.33,.28h-.08C1.62,5.04,.76,9.16,.28,13.29c-.59,5.13-.41,10.16,2.28,14.68,.75,1.26,1.67,2.41,2.76,3.4,1.05,.96,2.28,1.84,3.62,2.35,.58,.22,1.11,.85,1.44,1.35,.86,1.34,.69,3.01,.75,4.52,.05,1.4,.09,2.79,.11,4.19,0,.63,.01,1.25,.01,1.88,0,1.25-.02,2.5-.06,3.75-.07,2.33-.2,4.68-.61,6.99-.21,1.19-.47,3.18-1.6,3.92-.06,0-.13,0-.19,0-1.62,.05-3.1,.14-4.33,.27-.61,.06-1.1,.13-1.5,.19-.47,.08-.81,.15-1.06,.23-.68,.2-.68,.39-.68,.51v.24s.2,.38,1.01,.79c0,0,.01,0,.02,0,.23,.13,.54,.27,.96,.41,.05,.02,.1,.03,.16,.05,0,0,.01,0,.02,0,.73,.22,1.75,.42,3.18,.52,.52,.06,1.07,.11,1.63,.15,1.21,.09,2.49,.13,3.76,.13h.32c1.87,0,3.77-.1,5.44-.28,.59-.06,1.16-.14,1.68-.23,.13-.02,.25-.04,.36-.06,.38-.07,.74-.15,1.08-.23,.06-.02,.12-.04,.17-.05,.44-.14,.76-.29,1-.42,.14-.08,.24-.15,.33-.22,.2-.15,.25-.26,.25-.26,.05-.08,.09-.16,.1-.24,0,0,0-.01,0-.02,0-.01,0-.03,0-.04v-.24c0-.12,0-.3-.68-.51ZM12.28,.32c5.11,0,8.4,.25,9.25,.46-.85,.21-4.14,.46-9.25,.46S3.88,.99,3.02,.78c.85-.21,4.14-.46,9.25-.46ZM3.28,1.16c.44,.08,1.12,.15,2.2,.22,1.81,.12,4.23,.18,6.79,.18s4.98-.06,6.79-.18c1.08-.07,1.77-.14,2.2-.22,.6,1.79,9.52,29.1-8.99,30.06C-6.23,30.26,2.68,2.95,3.28,1.16ZM12.94,58.21c-.28,.52-.93,.52-1.21,0,0,0,.43-19.11,0-21.79-.1-.62,1.31-.61,1.21,0-.43,2.68,0,21.79,0,21.79Zm-.67,.92s.75-.05,1.3,.17c-1.11,.2-2.12,.08-2.59,0,.55-.22,1.3-.16,1.3-.16Zm-1.53,.29s.06,0,.09,.02c.32,.06,.84,.13,1.46,.13,.43,0,.91-.04,1.42-.13v-.08s-.01,0-.01,0l.02,.08,.07-.02s0,0,.01,0c.1,.07,.19,.16,.25,.26-1.65,.36-3.13,.1-3.57,0,.06-.11,.15-.2,.25-.27Zm4.75,2.41c0-.28-.36-.51-.9-.67,.14-.04,.27-.08,.38-.12,.81,.2,1.29,.5,1.29,.79,0,.15-.13,.31-.38,.45-.02,.01-.04,.02-.06,.03-.03,.02-.07,.04-.1,.05,0,0-.02,0-.03,.01-.22,0-.44,.01-.66,.02-.05,0-.11,0-.17,0,.38-.15,.61-.34,.61-.57Zm-4.45-1.61h0c.21-.06,.46-.1,.75-.12,.09,0,.19-.01,.29-.01,.06,0,.12,0,.18,0,.06,0,.12,0,.19,0,.05,0,.1,0,.15,0,.04,0,.07,0,.12,0,.01,0,.03,0,.05,0,.03,0,.07,0,.1,0,.06,0,.11,0,.17,.02,.16,.02,.32,.05,.45,.09h.02c.32,.09,.51,.21,.51,.32,0,.06-.05,.11-.1,.14-.01,0-.02,.02-.04,.03-.28,.17-.91,.28-1.61,.28-.59,0-1.14-.08-1.47-.21-.02,0-.04-.02-.06-.03-.14-.06-.22-.14-.22-.21,0-.11,.19-.23,.51-.31Zm-.38,.57s.03,.02,.05,.03c.3,.14,.8,.23,1.37,.24,.06,0,.13,0,.19,0,.16,0,.31,0,.46-.02,.56-.04,1.02-.15,1.24-.31,.01,0,.02-.02,.03-.03,.06-.05,.1-.11,.1-.18,0-.06-.03-.11-.07-.16,.17,.08,.26,.17,.26,.26,0,.03,0,.06-.03,.09,0,0,0,0-.01,.01-.09,.12-.32,.23-.65,.31h-.01s-.08,.02-.12,.03c-.35,.07-.76,.11-1.19,.11-.32,0-.64-.02-.93-.06h0s-.08-.01-.12-.02c-.37-.06-.65-.16-.81-.27,0,0-.02-.01-.03-.02-.08-.06-.11-.12-.11-.18,0-.09,.09-.18,.26-.26-.05,.05-.07,.1-.07,.16,0,.09,.07,.18,.21,.25Zm.25,.42c-.09-.02-.17-.04-.25-.06-.14-.04-.26-.08-.36-.13-.08-.04-.15-.08-.2-.11-.09-.07-.13-.13-.13-.2,0-.01,0-.02,0-.03,0-.05,.04-.1,.1-.14h0s.02-.01,.03-.02c0,0,0,0,0,0,0,0,0,0,0,0,.02-.02,.04-.03,.06-.04,.02-.01,.03-.02,.05-.03,.05-.03,.1-.05,.15-.07-.14,.09-.21,.18-.21,.28,0,.08,.04,.15,.12,.22,0,0,.02,.01,.02,.02,.15,.12,.42,.22,.78,.29,.03,0,.07,.01,.1,.02,.32,.05,.69,.08,1.06,.08h.06c.07,0,.14,0,.21,0,.39-.01,.75-.06,1.05-.13h.01s.06-.02,.09-.03c.25-.07,.52-.18,.63-.34,0,0,0-.01,0-.02,.02-.04,.03-.08,.03-.12,0-.1-.07-.2-.21-.29,.02,0,.04,.02,.06,.03,.01,0,.03,.01,.04,.02,.02,0,.04,.02,.05,.03,.02,0,.04,.02,.06,.03,.01,0,.03,.02,.04,.03,.02,.01,.04,.03,.05,.04,.02,.01,.03,.03,.04,.04,0,0,.02,.02,.02,.03,0,0,.01,.02,.02,.03,0,.01,.01,.02,.01,.04,0,0,0,.01,0,.02,0,0,0,.02,0,.03,0,.03-.01,.06-.03,.09-.03,.05-.07,.09-.13,.14-.07,.05-.16,.09-.27,.13-.07,.03-.15,.05-.23,.08-.22,.06-.49,.11-.8,.15-.25,.03-.53,.04-.83,.04-.17,0-.33,0-.48-.01-.33-.02-.62-.06-.87-.11Zm-.21,.67c0-.19,.54-.4,1.37-.47,.16-.01,.34-.02,.52-.02,.08,0,.16,0,.23,0,.99,.03,1.66,.27,1.66,.48,0,.23-.78,.49-1.89,.49s-1.89-.26-1.89-.49Zm-.96-.69c.15,.04,.33,.07,.51,.1-.35,.15-.56,.33-.56,.55,0,.24,.26,.43,.65,.58-.28,0-.55-.01-.82-.02-.39-.17-.61-.37-.61-.57,0-.23,.3-.46,.82-.65Zm-8.2,.61s0,0,0,0h0Zm.33-.28s.01-.01,.02-.02h0s0,0,.02-.01c.01,0,.03-.02,.04-.03,.01,0,.03-.02,.04-.02,0,0,.02,0,.03-.01,0,0,.02,0,.03-.01,0,0,.02,0,.03-.01,.02,0,.03-.01,.05-.02,.03-.01,.06-.02,.09-.03,.03,0,.06-.02,.09-.03,.02,0,.05-.01,.07-.02,.04-.01,.09-.02,.13-.03,.04,0,.07-.02,.11-.03,.04,0,.08-.02,.12-.03,.04,0,.08-.02,.13-.03,.09-.02,.18-.04,.28-.05,.03,0,.06-.01,.1-.02,.2-.03,.42-.07,.65-.1,.1-.01,.21-.03,.33-.04,.08,0,.16-.02,.24-.03,.07,0,.13-.01,.2-.02,.41-.04,.87-.09,1.37-.12,.09,0,.19-.01,.28-.02,.47-.03,.98-.06,1.53-.09,.23-.01,.47-.02,.71-.03,.1,.08,.47,.28,.48,.28h0c.09,.05,.2,.09,.32,.14,.04,.01,.08,.03,.12,.04-.45,.19-.73,.43-.73,.72,0,.21,.15,.4,.4,.55-4.44-.14-7.06-.56-7.3-.88Zm19.84,.73c-.29,.12-.58,.23-.87,.32h0c-.2,.06-.4,.12-.6,.17-.13,.04-.26,.07-.39,.1-.47,.11-.92,.19-1.33,.25-.1,.01-.2,.03-.3,.04-.18,.02-.35,.04-.51,.06-.09,0-.18,.02-.27,.02-.14,.01-.26,.02-.37,.03-.11,0-.21,.01-.3,.01-.2,0-.32,0-.35,0l.79,.08c-.2,.01-.4,.02-.6,.04-.52,.03-1.05,.06-1.57,.09-.25,.01-.49,.03-.74,.04,.15-.01,.32-.03,.49-.05,.56-.07,1.11-.17,1.11-.17-.71,.01-1.06-.04-1.24-.1-.69,.11-1.63,.23-2.55,.25,.11,0,.22,0,.33,0,0,0-.13,.01-.33,.03-.21-.02-.33-.03-.33-.03,.11,0,.22,0,.33,0-.92-.02-1.86-.14-2.55-.25-.18,.05-.53,.11-1.24,.1,0,0,.55,.1,1.11,.17-.07,0-.15,0-.25,.01-.52-.03-1.05-.06-1.57-.09-.5-.03-1-.05-1.5-.09-.1,0-.21-.02-.32-.03-.11,0-.21-.02-.32-.03h0s0,0,0,0c-.72-.13-1.5-.32-2.25-.61,.03,0,.06-.01,.09-.02,.03,0,.06-.02,.08-.03,0,0-.02,0-.03,0-.01,0-.03,0-.04,0-.02,0-.05,0-.08,0-.01,0-.03,0-.04,0-.02,0-.05,0-.07-.01,0,0-.01,0-.02,0-.01,0-.03,0-.04-.01-.02,0-.03,0-.05-.02-.02,0-.04-.01-.06-.02-.02,0-.04-.02-.06-.03-.02,0-.04-.02-.05-.03-.06-.03-.14-.08-.21-.13-.05-.03-.1-.07-.15-.12-.05-.04-.11-.09-.16-.15,0,0,1.64,.6,8.16,.91h-2.02s.45,.1,1.12,.21c.15-.05,.17-.09,.17-.09l.68-.1c.4,.04,.81,.06,1.22,.06,.15,0,.31,0,.47-.01h.01c.08,0,.15,0,.23,0,.09,0,.17,0,.25,0,.41,0,.83-.02,1.22-.06,.05,0,.09-.01,.14-.02h-.2c.12,0,.22-.01,.33-.02h0c6.23-.31,7.81-.89,7.81-.89-.07,.07-.14,.13-.21,.19Zm-5.63,.11s.04-.03,.06-.04c.02-.01,.04-.03,.05-.04,.02-.01,.03-.03,.05-.04,.01,0,.02-.02,.03-.03,0-.01,.02-.02,.03-.03,.02-.02,.03-.04,.05-.06,.01-.02,.02-.03,.03-.05,0,0,0,0,0,0,0-.01,.01-.03,.02-.05,0,0,0-.02,0-.03,0-.02,0-.03,.01-.05,0-.03,0-.05,0-.08,0-.38-.49-.68-1.22-.89,.21-.1,.36-.2,.46-.29,4.07,.16,6.47,.55,6.7,.86-.22,.29-2.47,.67-6.28,.84Z"/><g><path class="cls-4" d="M12.28,34.1c-1.64,0-3.37-.29-3.37-.83s1.74-.83,3.37-.83,3.37,.29,3.37,.83-1.74,.83-3.37,.83Zm0-1.5c-1.99,0-3.21,.39-3.21,.67s1.22,.67,3.21,.67,3.21-.39,3.21-.67-1.22-.67-3.21-.67Z"/><path class="cls-4" d="M12.28,33.78c-1.2,0-2.47-.21-2.47-.61s1.27-.61,2.47-.61,2.47,.21,2.47,.61-1.27,.61-2.47,.61Zm0-1.1c-1.46,0-2.35,.29-2.35,.49s.89,.49,2.35,.49,2.35-.29,2.35-.49-.89-.49-2.35-.49Z"/><path class="cls-4" d="M12.28,33.66c-.85,0-1.75-.15-1.75-.43s.9-.43,1.75-.43,1.75,.15,1.75,.43-.9,.43-1.75,.43Zm0-.78c-.98,0-1.66,.18-1.66,.35s.68,.35,1.66,.35,1.66-.18,1.66-.35-.68-.35-1.66-.35Z"/><path class="cls-4" d="M12.28,33.54c-.42,0-1.05-.07-1.05-.27s.63-.27,1.05-.27,1.05,.07,1.05,.27-.63,.27-1.05,.27Zm0-.46c-.62,0-.96,.13-.96,.19s.34,.19,.96,.19,.96-.13,.96-.19-.34-.19-.96-.19Z"/><path class="cls-4" d="M12.28,33.42c-.23,0-.57-.04-.57-.15s.34-.15,.57-.15,.57,.04,.57,.15-.34,.15-.57,.15Zm0-.25c-.33,0-.53,.06-.53,.11s.21,.11,.53,.11,.53-.06,.53-.11-.21-.11-.53-.11Z"/></g><polygon class="cls-1" points="1.55 61.79 1.55 61.79 1.54 61.79 1.55 61.79"/><path class="cls-4" d="M4.09,28.22s-.18-.13-.45-.4c-.27-.27-.63-.68-1.01-1.22-.09-.14-.18-.28-.28-.43-.1-.15-.18-.31-.27-.48-.19-.32-.35-.69-.53-1.06-.09-.19-.15-.38-.23-.58-.04-.1-.08-.2-.12-.3l-.06-.15-.05-.15c-.06-.21-.13-.41-.19-.62-.03-.1-.07-.21-.09-.31l-.08-.32c-.09-.43-.21-.85-.26-1.28-.03-.21-.07-.42-.1-.63-.01-.1-.03-.21-.04-.31,0-.1-.02-.21-.03-.31-.03-.41-.07-.8-.09-1.18,0-.37,0-.73-.01-1.06,0-.16,0-.32,0-.47,0-.15,.02-.29,.03-.42,.02-.26,.04-.49,.05-.68,.03-.38,.05-.59,.05-.59,0,0,.01,.22,.03,.6,0,.19,.02,.42,.03,.68,0,.13,0,.27,.01,.42,.01,.15,.02,.3,.04,.46,.03,.32,.05,.67,.08,1.04,.04,.37,.1,.75,.14,1.15,.01,.1,.02,.2,.04,.3,.01,.1,.04,.2,.05,.3,.04,.2,.07,.41,.11,.62,.06,.42,.17,.83,.27,1.25l.07,.31c.03,.1,.06,.21,.09,.31,.06,.2,.12,.41,.18,.61l.04,.15,.05,.15c.04,.1,.07,.2,.11,.29,.07,.19,.13,.39,.21,.57,.16,.37,.29,.73,.47,1.06,.08,.16,.15,.33,.24,.48,.08,.15,.17,.3,.24,.44,.33,.55,.63,1,.87,1.29,.24,.29,.39,.45,.39,.45Z"/><path class="cls-4" d="M20.57,28.22s.15-.15,.39-.45c.24-.29,.54-.74,.87-1.29,.08-.14,.16-.29,.24-.44,.09-.15,.16-.32,.24-.48,.17-.33,.31-.69,.47-1.06,.08-.19,.14-.38,.21-.57,.03-.1,.07-.19,.11-.29l.05-.15,.04-.15c.06-.2,.12-.41,.18-.61,.03-.1,.06-.2,.09-.31l.07-.31c.1-.42,.21-.83,.27-1.25,.04-.21,.07-.41,.11-.62,.02-.1,.04-.2,.05-.3,.01-.1,.02-.2,.04-.3,.05-.4,.1-.79,.14-1.15,.02-.37,.05-.72,.08-1.04,.01-.16,.03-.32,.04-.46,0-.15,0-.29,.01-.42,0-.26,.02-.49,.03-.68,.02-.38,.03-.6,.03-.6,0,0,.02,.22,.05,.59,.01,.19,.03,.42,.05,.68,0,.13,.02,.27,.03,.42,0,.15,0,.31,0,.47,0,.33,0,.68-.01,1.06-.02,.37-.06,.77-.09,1.18,0,.1-.02,.2-.03,.31-.01,.1-.03,.21-.04,.31-.03,.21-.07,.42-.1,.63-.06,.43-.17,.85-.26,1.28l-.08,.32c-.03,.11-.06,.21-.09,.31-.06,.21-.13,.42-.19,.62l-.05,.15-.06,.15c-.04,.1-.08,.2-.12,.3-.08,.2-.15,.39-.23,.58-.18,.37-.34,.74-.53,1.06-.09,.16-.18,.33-.27,.48-.1,.15-.19,.29-.28,.43-.38,.54-.73,.96-1.01,1.22-.27,.27-.45,.4-.45,.4Z"/><path class="cls-2" d="M15.4,60.18s.42,.36,.87,.35l-.84,.04-.42-.14s.03-.34-.29-.46h.25l.43,.21Z"/></g></g></svg>