<svg xmlns="http://www.w3.org/2000/svg" xmlns:xlink="http://www.w3.org/1999/xlink" width="42" height="42" viewBox="0 0 42 42">
  <defs>
    <filter id="Rectangle_2860" x="0" y="0" width="42" height="42" filterUnits="userSpaceOnUse">
      <feOffset dy="3" input="SourceAlpha"/>
      <feGaussianBlur stdDeviation="3" result="blur"/>
      <feFlood flood-opacity="0.161"/>
      <feComposite operator="in" in2="blur"/>
      <feComposite in="SourceGraphic"/>
    </filter>
  </defs>
  <g id="Component_90_5" data-name="Component 90 – 5" transform="translate(9 6)">
    <g transform="matrix(1, 0, 0, 1, -9, -6)" filter="url(#Rectangle_2860)">
      <rect id="Rectangle_2860-2" data-name="Rectangle 2860" width="24" height="24" rx="12" transform="translate(9 6)" fill="#6eb528"/>
    </g>
    <path id="done_FILL0_wght400_GRAD0_opsz48_1_" data-name="done_FILL0_wght400_GRAD0_opsz48 (1)" d="M13.436,22.913a.747.747,0,0,1-.265-.045.737.737,0,0,1-.241-.159l-4.363-4.1a.682.682,0,0,1,0-1,.73.73,0,0,1,1.012,0l3.856,3.628L22.185,13a.76.76,0,0,1,1.036,0,.656.656,0,0,1,0,.975l-9.28,8.73a.737.737,0,0,1-.241.159.747.747,0,0,1-.265.045Z" transform="translate(-3.35 -5.613)" fill="#fff"/>
  </g>
</svg>
