<svg id="style_black_24dp" xmlns="http://www.w3.org/2000/svg" width="35.791" height="35.791" viewBox="0 0 35.791 35.791">
  <path id="Path_158" data-name="Path 158" d="M0,0H35.791V35.791H0Z" fill="none"/>
  <path id="Path_159" data-name="Path 159" d="M3.137,27.952l2,.835V15.321L1.511,24.06a3.011,3.011,0,0,0,1.625,3.892Zm29.08-5.518L24.82,4.584a2.971,2.971,0,0,0-3.877-1.611L9.952,7.522a2.981,2.981,0,0,0-1.834,2.684A2.782,2.782,0,0,0,8.341,11.4l7.4,17.851a2.979,2.979,0,0,0,2.729,1.834,3.085,3.085,0,0,0,1.148-.224l10.976-4.548a2.974,2.974,0,0,0,1.625-3.877ZM18.5,28.1,11.1,10.266,22.061,5.733h.015l7.382,17.821L18.5,28.1Z" transform="translate(0.636 1.351)" fill="#fff"/>
  <circle id="Ellipse_14" data-name="Ellipse 14" cx="1.5" cy="1.5" r="1.5" transform="translate(15 11.791)" fill="#fff"/>
  <path id="Path_160" data-name="Path 160" d="M5.88,22.865a2.991,2.991,0,0,0,2.983,2.983h2.162L5.88,13.41Z" transform="translate(2.889 6.588)" fill="#fff"/>
</svg>
