<svg xmlns="http://www.w3.org/2000/svg" width="31.146" height="28.334" viewBox="0 0 31.146 28.334">
  <g id="Group_3095" data-name="Group 3095" transform="translate(-40.932 -754.309)">
    <path id="Path_494011" data-name="Path 494011" d="M-15237.3,4197.79l11.1-4.575,7.318,17.9-11.011,4.557Z" transform="translate(15288 -3436)" fill="#9fe25e"/>
    <path id="Path_159" data-name="Path 159" d="M3.137,27.952l2,.835V15.321L1.511,24.06a3.011,3.011,0,0,0,1.625,3.892Zm29.08-5.518L24.82,4.584a2.971,2.971,0,0,0-3.877-1.611L9.952,7.522a2.981,2.981,0,0,0-1.834,2.684A2.782,2.782,0,0,0,8.341,11.4l7.4,17.851a2.979,2.979,0,0,0,2.729,1.834,3.085,3.085,0,0,0,1.148-.224l10.976-4.548a2.974,2.974,0,0,0,1.625-3.877ZM18.5,28.1,11.1,10.266,22.061,5.733h.015l7.382,17.821L18.5,28.1Z" transform="translate(39.637 751.559)" fill="#fff"/>
    <circle id="Ellipse_14" data-name="Ellipse 14" cx="1.5" cy="1.5" r="1.5" transform="translate(54 761.999)" fill="#fff"/>
    <path id="Path_160" data-name="Path 160" d="M5.88,22.865a2.991,2.991,0,0,0,2.983,2.983h2.162L5.88,13.41Z" transform="translate(41.889 756.796)" fill="#fff"/>
  </g>
</svg>
