<svg width="82" height="82" viewBox="0 0 82 82" fill="none" xmlns="http://www.w3.org/2000/svg">
<path d="M38.3675 1.03132L0.170227 36.5924V36.6529H81.8034V36.5924L43.6061 1.03132C42.1311 -0.343774 39.8425 -0.343774 38.3675 1.03132Z" fill="#730075"/>
<path d="M0.170197 36.653H81.8033V81.6328H0.170197V36.653Z" fill="#4B164C"/>
<path d="M61.4471 21.4383V55.7748C61.4471 58.479 58.2936 60.6745 54.4097 60.6745H25.7762C21.8923 60.6745 18.7389 58.479 18.7389 55.7748V21.4383C18.7389 18.7342 21.8923 16.5386 25.7762 16.5386H54.4097C58.2936 16.5386 61.4471 18.7342 61.4471 21.4383Z" fill="white"/>
<path d="M61.4471 21.4383V55.7748C61.4471 58.479 58.2936 60.6745 54.4097 60.6745H25.7762C21.8923 60.6745 18.7389 58.479 18.7389 55.7748V21.4383C18.7389 18.7342 21.8923 16.5386 25.7762 16.5386H54.4097C58.2936 16.5386 61.4471 18.7342 61.4471 21.4383Z" stroke="#CCCCCC" stroke-width="1.21566"/>
<path d="M0.298278 36.6643L81.2432 81.2965C81.1967 81.4766 81.2024 81.4527 81.1559 81.6329H0.35176C0.25183 81.6329 0.170197 81.5512 0.170197 81.4513V36.7403C0.170197 36.6741 0.240572 36.6319 0.298278 36.6643Z" fill="#730075"/>
<path d="M81.6753 36.6643L40.9868 59.1007L81.2432 81.2965C81.1968 81.4752 81.2024 81.4541 81.156 81.6329H81.6218C81.7218 81.6329 81.8034 81.5513 81.8034 81.4513V36.7389C81.8034 36.6741 81.733 36.6319 81.6753 36.6643Z" fill="#9B139D"/>
<g opacity="0.859552">
<path d="M40.9868 47.2911C35.6957 47.2911 31.3911 42.9865 31.3911 37.6954C31.3911 32.4043 35.6957 28.0997 40.9868 28.0997C46.2779 28.0997 50.5825 32.4043 50.5825 37.6954C50.5825 42.9865 46.2779 47.2911 40.9868 47.2911ZM48.6727 30.0095C46.6197 27.9566 43.8902 26.8259 40.9868 26.8259C38.0834 26.8259 35.3539 27.9566 33.3009 30.0095C31.248 32.0625 30.1174 34.792 30.1174 37.6954C30.1174 40.5987 31.248 43.3283 33.3009 45.3812C35.3539 47.4342 38.0834 48.5648 40.9868 48.5648C43.8902 48.5648 46.6197 47.4342 48.6727 45.3812C50.7256 43.3283 51.8563 40.5987 51.8563 37.6954C51.8563 34.792 50.7256 32.0625 48.6727 30.0095Z" fill="#54B7A6"/>
<path d="M46.1797 34.2078C45.931 33.9591 45.5277 33.9591 45.2791 34.2078L39.655 39.8319L36.6945 36.8713C36.4458 36.6227 36.0426 36.6227 35.7938 36.8713C35.5451 37.12 35.5451 37.5233 35.7938 37.772L39.2046 41.1829C39.329 41.3072 39.492 41.3694 39.655 41.3694C39.8179 41.3694 39.981 41.3072 40.1053 41.1829L46.1797 35.1085C46.4284 34.8598 46.4284 34.4565 46.1797 34.2078Z" fill="#54B7A6"/>
</g>
</svg>
