<svg xmlns="http://www.w3.org/2000/svg" width="44" height="36" viewBox="0 0 44 36">
  <g id="Group_3094" data-name="Group 3094" transform="translate(-166 -749.999)">
    <path id="Path_494008" data-name="Path 494008" d="M172.349,24.005l15.663,8.628,15.646-8.628-15.646-8.455Z" transform="translate(0 737.98)" fill="#9fe25e"/>
    <path id="Path_494009" data-name="Path 494009" d="M176.414,29.723v8.611l11.372,6.378,11.694-6.378V29.723l-11.694,6.171Z" transform="translate(0 737.98)" fill="#9fe25e"/>
    <path id="school_FILL0_wght400_GRAD0_opsz48" d="M23.95,42,9.45,34.05v-12L2,18,23.95,6,46,18V33.85H43V19.75l-4.55,2.3v12Zm0-15.4L39.7,18,23.95,9.55,8.3,18Zm0,12,11.5-6.35v-8.4L23.95,30l-11.5-6.25v8.5ZM24,26.6ZM23.95,30.3ZM23.95,30.3Z" transform="translate(164 743.999)" fill="#fff"/>
  </g>
</svg>
