<svg id="perm_identity_black_24dp_1_" data-name="perm_identity_black_24dp (1)" xmlns="http://www.w3.org/2000/svg" width="39" height="39" viewBox="0 0 39 39">
  <path id="Path_155" data-name="Path 155" d="M0,0H39V39H0Z" fill="none"/>
  <path id="Path_156" data-name="Path 156" d="M17,7.25a3.25,3.25,0,1,1-3.25,3.25A3.26,3.26,0,0,1,17,7.25m0,14.625c4.387,0,9.425,2.1,9.75,3.25V26.75H7.25V25.141c.325-1.17,5.362-3.266,9.75-3.266M17,4a6.5,6.5,0,1,0,6.5,6.5A6.5,6.5,0,0,0,17,4Zm0,14.625c-4.339,0-13,2.177-13,6.5V30H30V25.125C30,20.8,21.339,18.625,17,18.625Z" transform="translate(2.5 2.5)" fill="#fff"/>
</svg>
