<?xml version="1.0" encoding="utf-8"?>
<!-- Generator: Adobe Illustrator 26.5.0, SVG Export Plug-In . SVG Version: 6.00 Build 0)  -->
<svg version="1.1" id="Layer_1" xmlns="http://www.w3.org/2000/svg" xmlns:xlink="http://www.w3.org/1999/xlink" x="0px" y="0px"
	 viewBox="0 0 770 950" style="enable-background:new 0 0 770 950;" xml:space="preserve">
<style type="text/css">
	.st0{fill:url(#SVGID_1_);}
	.st1{fill:#C67D4B;}
	.st2{fill:#CBC59E;}
	.st3{fill:#B3643A;}
	.st4{fill-rule:evenodd;clip-rule:evenodd;fill:#A8A8A8;}
	.st5{fill-rule:evenodd;clip-rule:evenodd;fill:#C7C7C7;}
	.st6{fill-rule:evenodd;clip-rule:evenodd;fill:#FFFFFF;}
	.st7{fill:none;stroke:#000000;stroke-width:0.9154;stroke-linecap:round;stroke-linejoin:round;stroke-miterlimit:10;}
	.st8{fill:url(#SVGID_00000049186159050507049380000009743787879352095645_);}
	.st9{clip-path:url(#SVGID_00000039834548723939204660000000444715026250501008_);}
	.st10{opacity:0.54;fill:#0F0F0F;enable-background:new    ;}
	.st11{opacity:0.54;fill:#8E5935;enable-background:new    ;}
	.st12{fill:none;stroke:#000000;stroke-width:3.023;stroke-linecap:round;stroke-linejoin:round;stroke-miterlimit:10;}
	.st13{fill:url(#SVGID_00000016044682449623277920000002719663534799421876_);}
	.st14{clip-path:url(#SVGID_00000178884303692559981830000012042442897073873555_);}
	.st15{fill:none;stroke:#C67D4B;stroke-width:4.9492;stroke-linecap:round;stroke-linejoin:round;stroke-miterlimit:10;}
	
		.st16{opacity:0.54;clip-path:url(#SVGID_00000065060288906863654110000005225421295451412903_);fill:#0F0F0F;enable-background:new    ;}
	.st17{opacity:0;}
	.st18{fill:url(#SVGID_00000032625251265565582650000000294588279576000392_);}
	.st19{clip-path:url(#SVGID_00000137822748427245649910000014937189019891521676_);}
	.st20{fill:url(#SVGID_00000175284715555221511190000016067444352418224799_);}
	.st21{clip-path:url(#SVGID_00000034070557952810930440000002942165299911899295_);}
	
		.st22{opacity:0.54;clip-path:url(#SVGID_00000007405550443435469270000011161062649044305839_);fill:#0F0F0F;enable-background:new    ;}
	.st23{fill:url(#SVGID_00000127007746193032605220000014675219333226579097_);}
	.st24{clip-path:url(#SVGID_00000173129919913482456260000006503537029887296644_);fill:#007473;}
	
		.st25{clip-path:url(#SVGID_00000047040808583843195850000008675327107852601496_);fill-rule:evenodd;clip-rule:evenodd;fill:#004D4C;}
	.st26{clip-path:url(#SVGID_00000002346160607038099300000007967589929996728467_);fill:#004D4C;}
	.st27{clip-path:url(#SVGID_00000006706797894280027670000009128858417451124129_);fill:#F7F3D7;}
	.st28{fill-rule:evenodd;clip-rule:evenodd;fill:#CBC59E;}
	.st29{fill-rule:evenodd;clip-rule:evenodd;fill:#004D4C;}
	.st30{fill-rule:evenodd;clip-rule:evenodd;fill:#007473;}
	.st31{fill:#BCB8A0;}
	.st32{fill:#F7F3D7;}
	.st33{fill-rule:evenodd;clip-rule:evenodd;fill:#BCB8A0;}
	.st34{fill:none;stroke:#000000;stroke-width:0.9197;stroke-linecap:round;stroke-linejoin:round;stroke-miterlimit:10;}
	.st35{fill:url(#SVGID_00000035527513227663311330000012512767517225919105_);}
	.st36{fill:url(#SVGID_00000036233707287316147120000011343767598862099585_);}
	.st37{fill:url(#SVGID_00000112592791093850260100000016436212881535725719_);}
	.st38{fill:url(#SVGID_00000062884971737297383970000001571341202228329870_);}
	.st39{fill:url(#SVGID_00000071538851768892314980000007572153337667459238_);}
	.st40{fill:url(#SVGID_00000172415813691245659440000017564626232640542848_);}
	.st41{fill:url(#SVGID_00000134929395309725156230000011521801155775033786_);}
	.st42{fill:#FFFFD9;}
	.st43{fill:url(#SVGID_00000176721700362207087900000007605820418907906178_);}
	.st44{fill:#C58851;}
	.st45{fill:#8E5935;}
	
		.st46{clip-path:url(#SVGID_00000098208323545898968090000015475925321388345017_);fill:url(#SVGID_00000120546198754803048890000008934421173681279154_);}
	.st47{fill:url(#SVGID_00000087395040740412324440000002941364681749669271_);}
	.st48{fill:url(#SVGID_00000037654964384538085590000005796259419050932147_);}
	.st49{fill:url(#SVGID_00000180327992787924640440000003933703249235348895_);}
	.st50{fill:url(#SVGID_00000024698842705352603450000001716385494869721481_);}
	.st51{fill:url(#SVGID_00000078022269094506096500000012736997970310565304_);}
	.st52{fill:url(#SVGID_00000056390747567766733720000007484255749901921209_);}
	.st53{fill:url(#SVGID_00000058554470976318623170000007574568946291390342_);}
	.st54{fill:url(#SVGID_00000105394792380479061960000016031540608221196453_);}
	.st55{fill:url(#SVGID_00000067198459789539912470000007917224290625663365_);}
	.st56{fill:url(#SVGID_00000002373488589030187450000001698761253831006610_);}
	.st57{fill:url(#SVGID_00000098930286091603648560000018010808699368915348_);}
	.st58{fill:#FFFFFF;}
	.st59{fill:url(#SVGID_00000069356709224281215090000005838427408065209223_);}
	.st60{fill:#220504;}
	.st61{fill:url(#SVGID_00000137832304752907240610000005253350007140827824_);}
	.st62{fill:url(#SVGID_00000183944887001930731610000015167890470051306386_);}
	.st63{fill:url(#SVGID_00000081642422273268504890000009159949710370575019_);}
	.st64{fill:url(#SVGID_00000074427364168452408290000013809504395192493709_);}
</style>
<g id="Tail">
	
		<linearGradient id="SVGID_1_" gradientUnits="userSpaceOnUse" x1="96.8901" y1="485.5751" x2="254.5969" y2="485.5751" gradientTransform="matrix(1 0 0 -1 0 950)">
		<stop  offset="0" style="stop-color:#5B1F0C"/>
		<stop  offset="1" style="stop-color:#220504"/>
	</linearGradient>
	<path class="st0" d="M253.92,585.33l-34.23-33.21c-0.22-0.23-0.42-0.5-0.52-0.81c-6-16.17-16.06-37.84-14.96-30.93
		c0.93,5.67,1.48,8.99-3.48,8.94c-0.08,0-0.33-0.11-0.71-0.31c-5.69-2.89-8.81-9.1-7.96-15.43c1.7-12.6-3.67-13.36-4.61-6.06
		c-0.14,1.12-0.38,2.48-0.68,4c-0.84-10.57-4.4-34.96-5.77-31.32c-1.19,3.15-4.1,18.39-5.64,26.71c-3.71-7.02-6.35-3.08-5.06-5.53
		c1.87-3.57-1.85-18.22-4.92-28.75c-0.72-2.47-3.84-2.88-5.37-0.94c-0.64,0.81-0.99,1.81-1.4,2.77c-0.31,0.74-0.68,1.66-1.39,1.93
		c-0.36-7.16,1.01-13.99-2.01-20.8c-0.14-0.32-0.39-0.69-0.73-0.63c-0.27,0.05-0.42,0.35-0.5,0.61c-0.46,1.4-0.63,2.88-1.04,4.29
		c-0.58,2-6.71-29.78,6.73-23.6c8.54,3.93-4.22-37.1,0.1-37.58c0.14-0.02,0.28,0,0.43,0.03c6.28,1.63,34.39-17.15,26.52-14.68
		c-7.85,2.49-20.27-1.96-15.07-1.22c5.21,0.76,27.35-8.83,17.06-7.8s-17.85-9.67-7.1-8.41c10.77,1.29,30.02-11.12,25.41-10.19
		c-2.1,0.44-7.33-0.04-12.38-0.69c-2-0.25-2.63-2.84-1-4c10.96-7.82,16.87-10.1,9.14-12.13c-2.36-0.61-5.42-0.79-8.89-0.42
		c4.6-2.31,7.45-3.13,7.45-3.13l-0.33-0.32c-6.47-0.78-13.45,0.51-19.88,1.19c1.62-0.32,1.86-1.28,0.62-1.34
		c-1.65-0.07-3.31-0.06-4.96,0.05c-3.19,0.2-6.35,0.73-9.43,1.57c-6.15,1.68-11.71,4.65-16.83,8.41
		c-7.81,5.75-14.31,13.07-20.52,20.51c3.36-4.98,6.09-10.38,8.11-16.04c-2.31-0.2-4.14,1.83-5.47,3.73
		c-3.12,4.47-5.74,9.3-7.78,14.35c-0.67,1.66-1.67,3.64-3.46,3.69c-0.59,0.02-1.21-0.2-1.76,0.02c-0.63,0.25-0.93,0.95-1.17,1.59
		c-2.69,7.3-4.91,14.77-6.65,22.35c-0.21,0.92-0.82,1.74-1.71,2.04c-1.81,0.62-2.98-1.3-3.28-2.96c-0.27-1.49-0.34-3.19-1.49-4.17
		c-0.18-0.15-0.38-0.28-0.61-0.29c-0.47-0.01-0.79,0.48-0.96,0.92c-0.75,1.88-0.77,3.97-0.76,6c0.05,9.91,0.6,19.81,1.62,29.66
		c-0.84-1.03-2.54-1.2-3.57-0.37c-2.84,2.3,0.96,10.38,1.52,13.13c1.14,5.61,1.8,11.31,1.88,17.03c-4.24-2.39-7.02-7.18-6.99-12.05
		c-1.06,6.36,0.07,13.07,3.16,18.73c0.59,1.09,1.26,2.15,1.59,3.35c0.38,1.38,0.28,2.85,0.2,4.28c-0.57,10.97,0.95,21.56,3.53,32.18
		c-1.86-4.82-3.99-9.53-6.39-14.1c-0.37-0.71-0.96-1.52-1.74-1.38c-1.01,0.18-1.06,1.6-0.82,2.59c2.57,10.75,8.04,20.56,13.72,30.03
		c-1.74-2.41-3.95-4.49-6.47-6.06c-0.23,1.56,0.67,3.03,1.55,4.34c6.09,9.1,12.9,17.68,19.7,26.25c-4.3-2.75-8.86-5.08-13.61-6.94
		c-0.66-0.26-1.54-0.44-1.95,0.13c-0.37,0.53,0,1.25,0.4,1.76c1.58,2.04,3.64,3.64,5.71,5.18c7.54,5.62,15.47,10.7,23.4,15.77
		c-4.92-1.69-9.83-3.38-14.75-5.06c1.36,1.77,2.17,2.72,2.97,3.39c1.13,0.95,2.32,1.17,3.52,2.03c2.5,1.78,5.14,3.35,7.9,4.69
		c4.1,1.99,8.29,3.89,12.52,5.59c2.02,1.47,4.03,2.86,6.13,4.17c19.36,12.2,46.22,15.01,69.65,11.59
		c15.53,10.98,23.8,4.52,26.69,1.09C254.82,587.47,254.76,586.15,253.92,585.33z"/>
</g>
<g id="Neck">
	<path class="st1" d="M349.91,229.08c0,0-1.4,72-5,77.19s95.54,23.6,95.54,23.6s-17.31-89.83-15.69-103.59
		C430.04,181.28,362.77,166.31,349.91,229.08z"/>
</g>
<g id="L_Shoulder">
	<circle class="st2" cx="469.5601" cy="342.04" r="58.39"/>
</g>
<g id="L_Bicep">
	<g>
		<g>
			<g>
				<polygon class="st2" points="611.87,340.44 581.37,430.09 449.96,397.05 487.58,286.49 				"/>
			</g>
		</g>
	</g>
</g>
<g id="L_Elbow">
	<circle class="st2" cx="596.84" cy="385.75" r="47.35"/>
</g>
<g id="L_Forearm">
	<g>
		<polygon class="st3" points="659.3199,281.53 685.46,300.99 628.49,403.58 572.4399,359.22 		"/>
		<polygon class="st2" points="628.53,288.29 685.08,333.62 633.78,415.37 559.89,356.14 		"/>
	</g>
</g>
<g id="L_Wrist">
	<g>
		<circle class="st3" cx="673.05" cy="290.02" r="16.66"/>
	</g>
</g>
<g id="L_Hand">
	<g>
		<path class="st3" d="M685.46,300.99c0,0,31.6899-29.3,33.13-39.11c4.98-33.88-3.25-38.56-3.25-38.56s-49.61,38.79-57.1801,59.34
			L685.46,300.99z"/>
		<g>
			<path class="st4" d="M564.86,196.28l-6.97,29.62l-34.4301-8.26c-0.58-0.14-0.9301-0.72-0.8-1.3l6.48-27.51
				c0.14-0.58,0.71-0.94,1.29-0.8L564.86,196.28z"/>
			<path class="st4" d="M733.3101,231.62l-10.5,44.58c-0.78,3.31-4.14,5.35-7.5601,4.61l-125.05-24.1l16-67.95l122.41,35.3
				C732,224.96,734.08,228.32,733.3101,231.62z"/>
			<path class="st5" d="M555.46,207.69l-2.15,9.15c-2.97,12.63,5.21,30.3,19.62,33.76l18.3199,6.84l16.1899-68.76l-19.41-2.21
				C573.61,183,558.4301,195.06,555.46,207.69z"/>
			<path class="st6" d="M556.34,225.1c0,0-2.42,8.86,15.8101,18.98c10.27,5.7,14.52,10.13,14.52,10.13l4.08-18.09
				C590.75,236.12,574.51,243.31,556.34,225.1z"/>
			<path class="st6" d="M527.03,209.65c0,0,2.53,6.43,10.76,8.32l0.76-3.23C538.55,214.75,530.9,215.71,527.03,209.65z"/>
			<path class="st6" d="M714.4399,275.64c0,0-107.54-18.25-112.0601-22.26s1.2-15.93,1.2-15.93S651.1899,258.02,714.4399,275.64z"/>
		</g>
		<path class="st1" d="M711.47,217.7c0,0-3.87-8.24-5.74-8.59s-13.08-0.91-15.64,8.1s6.09,6.78,6.09,6.78s4.4301-4.47,7.54-4.05
			C706.83,220.35,711.47,217.7,711.47,217.7z"/>
		<path class="st1" d="M692.55,207.25c0,0-5.88-3.98-10.24-0.7s-7.27,6.99-6.16,8.87c1.11,1.89,5.05,3.21,6.64,3.21
			s7.89-4.82,8.37-4.68s4.08,1.19,4.08,1.19S700.16,214.79,692.55,207.25z"/>
		<path class="st1" d="M682.02,209.28c0.16-0.14-3.8101-9.71-8.65-8.45s-6.5699,2.78-5.8101,5.2c0.76,2.42,9.83,5.07,9.83,5.07
			S678.83,212.14,682.02,209.28z"/>
		<path class="st1" d="M718.77,222.34c0,0-4.08-0.49-4.98-0.56s-3.3199,1.54-4.29,1.54s-6.92-0.28-7.27-2.65s0.28-8.71,11-9.49
			s15.39,13.09,15.39,13.09L718.77,222.34z"/>
		<path class="st7" d="M680.83,207.53c0,0-1.34-0.66-3.14,3.2"/>
		<path class="st7" d="M695.12,210.82c0,0-2.17,0.35-3.65,2.89"/>
		<path class="st7" d="M707.83,212.52c0,0-4.9,2.49-5.46,7.12"/>
		<g>
			<path class="st3" d="M680.16,273.95c-0.52-0.21-26.88-15.4-26.88-15.4c-3.76-6.85-7.0601-10.79-10.38-11.22
				c-1.5601-0.2-4.51,3.53-3.8,4.95c6.41,12.73,12.89,20.51,14.17,21.5c1.37,1.06,19.3101,12.75,19.3101,12.75s0.05-0.05,0.13-0.12
				c0.4301,0.29,0.9,0.53,1.4,0.73c3.96,1.58,8.42-0.38,9.98-4.37C685.63,278.76,684.11,275.53,680.16,273.95z"/>
			<path class="st7" d="M643.4301,248.45c6.98,1.96,10.83,14.26,12.27,15.41c2.95,2.34,15.04,3.85,23.34,14.56"/>
		</g>
	</g>
</g>
<g id="R_Leg">
	<g>
		<g>
			<g>
				
					<linearGradient id="SVGID_00000126282718589707889440000010780429261555287714_" gradientUnits="userSpaceOnUse" x1="153.3046" y1="204.4169" x2="345.3055" y2="204.4169" gradientTransform="matrix(1 0 0 -1 0 950)">
					<stop  offset="0" style="stop-color:#5B1F0C"/>
					<stop  offset="1" style="stop-color:#220504"/>
				</linearGradient>
				<path style="fill:url(#SVGID_00000126282718589707889440000010780429261555287714_);" d="M338.64,846.03
					c-3.48,2.24-8.24,5.3-13.58,9.89c-42.43,36.5-54.56,34.07-102.29,34.07c-4.34,0-8.64-0.16-12.94-0.48
					c-38.36-2.9-44.77-1.49-55.39-16.7c-6.16-8.83,8.48-63.01,152.16-48.26c-21.27-66.55-39.74-214.14-39.74-219.71
					c0-1.47,0.86-2.83,2.24-3.39c1.36-0.59,2.94-0.32,4.01,0.72l26.61,25.34c0.75,0.72,1.15,1.72,1.13,2.74
					c-1.13,59.9,16.16,113.21,30.05,156.05c6.63,20.48,12.38,38.18,14.35,51.96C345.72,841.46,343.18,843.09,338.64,846.03z"/>
			</g>
		</g>
		<g>
			<g>
				<defs>
					<path id="SVGID_00000106120527163143268480000007550819849014855310_" d="M338.64,846.03c-3.48,2.24-8.24,5.3-13.58,9.89
						c-42.43,36.5-54.56,34.07-102.29,34.07c-4.34,0-8.64-0.16-12.94-0.48c-38.36-2.9-44.77-1.49-55.39-16.7
						c-6.16-8.83,8.48-63.01,152.16-48.26c-21.27-66.55-39.74-214.14-39.74-219.71c0-1.47,0.86-2.83,2.24-3.39
						c1.36-0.59,2.94-0.32,4.01,0.72l26.61,25.34c0.75,0.72,1.15,1.72,1.13,2.74c-1.13,59.9,16.16,113.21,30.05,156.05
						c6.63,20.48,12.38,38.18,14.35,51.96C345.72,841.46,343.18,843.09,338.64,846.03z"/>
				</defs>
				<clipPath id="SVGID_00000037674308554418269200000005052436382012286352_">
					<use xlink:href="#SVGID_00000106120527163143268480000007550819849014855310_"  style="overflow:visible;"/>
				</clipPath>
				<g style="clip-path:url(#SVGID_00000037674308554418269200000005052436382012286352_);">
					<path class="st1" d="M183.64,817.61c1.38,0,89.06,21.58,81.04,82.2l-118.69,41.58l-58.32-97.08L183.64,817.61z"/>
					<path class="st10" d="M270.01,687.48c0,0,1.37,17.79,1.67,21.59c0,0,31.87,6.14,37.27,0.59l-3.4-18.75L270.01,687.48z"/>
					<path class="st11" d="M202.11,847.62c0,0,0.55-0.8-0.17-1.68c-4.74-5.77-33.49-9.3-42.82,3.57
						c-4.75,6.56,0.13,10.16,0.13,10.16s5.11-13.09,14.2-14.52C186.06,843.19,202.11,847.62,202.11,847.62z"/>
					<path class="st12" d="M201.45,847.23c-0.86,0-38.46-11.94-42.05,12.45"/>
					<path class="st11" d="M194.02,870.22c0,0,1.5-1.71,0.17-1.94c-15.3-2.57-23.63-4.61-31.17,11.97l0.34,5.3l4.78-2.88
						C168.15,882.66,170.39,865.18,194.02,870.22z"/>
					<path class="st12" d="M193.36,870.65c0,0-23.28-6.17-26.03,12.14"/>
				</g>
			</g>
		</g>
	</g>
</g>
<g id="L_Leg">
	<g>
		
			<linearGradient id="SVGID_00000075140704750595057660000010115911536454112927_" gradientUnits="userSpaceOnUse" x1="315.221" y1="191.002" x2="572.5134" y2="191.002" gradientTransform="matrix(1 0 0 -1 0 950)">
			<stop  offset="0" style="stop-color:#5B1F0C"/>
			<stop  offset="1" style="stop-color:#220504"/>
		</linearGradient>
		<path style="fill:url(#SVGID_00000075140704750595057660000010115911536454112927_);" d="M522.24,830.21
			c-32.59-6.44-65.9-9.82-87.18-5.45c-11.93-44.32-83.32-201.25-86.48-207.11c-1.06-1.96-3.51-2.7-5.48-1.64
			c-1.63,0.88-2.39,2.72-2.01,4.44l-17.82,3.99c-0.08-0.21-0.18-0.43-0.26-0.63c-0.84-2.07-3.19-3.06-5.27-2.22
			c-2.07,0.84-3.06,3.2-2.22,5.27c31.46,77.21,81.34,203.56,81.28,213.82c-0.67,10.72,23.65,23.07,96.39,48.98
			c5.5601,1.98,18.7,12.81,46.58,12.81c4.79,0,8.4399-0.6,10.47-1.97c0.46-0.31,0.84-0.71,1.14-1.17l2.6801-4.2l10.61,0.66
			c1.86,0.1,3.51-1.02,4.09-2.75C587.5601,836.76,530.02,831.75,522.24,830.21z"/>
	</g>
	<g>
		<g>
			<defs>
				<path id="SVGID_00000157993069773639223470000008828311675565144477_" d="M522.24,830.21c-32.59-6.44-65.9-9.82-87.18-5.45
					c-11.93-44.32-83.32-201.25-86.48-207.11c-1.06-1.96-3.51-2.7-5.48-1.64c-1.63,0.88-2.39,2.72-2.01,4.44l-17.82,3.99
					c-0.08-0.21-0.18-0.43-0.26-0.63c-0.84-2.07-3.19-3.06-5.27-2.22c-2.07,0.84-3.06,3.2-2.22,5.27
					c31.46,77.21,81.34,203.56,81.28,213.82c-0.67,10.72,23.65,23.07,96.39,48.98c5.5601,1.98,18.7,12.81,46.58,12.81
					c4.79,0,8.4399-0.6,10.47-1.97c0.46-0.31,0.84-0.71,1.14-1.17l2.6801-4.2l10.61,0.66c1.86,0.1,3.51-1.02,4.09-2.75
					C587.5601,836.76,530.02,831.75,522.24,830.21z"/>
			</defs>
			<clipPath id="SVGID_00000140734260774288782570000002948304008662994332_">
				<use xlink:href="#SVGID_00000157993069773639223470000008828311675565144477_"  style="overflow:visible;"/>
			</clipPath>
			<g style="clip-path:url(#SVGID_00000140734260774288782570000002948304008662994332_);">
				<path class="st15" d="M532.45,857.83"/>
				<path class="st1" d="M527.53,804.89c-6.59-2.03-68.04,31.18-70.87,84.82c-2.83,53.63,74.8199,62.59,74.8199,62.59
					S699.63,857.83,527.53,804.89z"/>
				<path class="st11" d="M522.73,856.31c0,0-2.6801-2.98,0.63-3.39s43.58,0.57,31.84,45.75l-4.47-0.41
					C550.73,898.26,557.34,860.21,522.73,856.31z"/>
				<path class="st12" d="M550.0601,900.33c2.84-5.42,3.83-43.27-27.41-44.94"/>
				<path class="st11" d="M527.0601,844.11c0,0,37.45-5.3,43.39,21.65C570.46,865.76,580.22,836.05,527.0601,844.11z"/>
				<path class="st12" d="M527.08,845.68c1.38-0.17,44.16-6.29,42.84,22.38"/>
			</g>
		</g>
		<g>
			<defs>
				<path id="SVGID_00000024721969158556864460000000431741486549408945_" d="M522.24,830.21c-32.59-6.44-65.9-9.82-87.18-5.45
					c-11.93-44.32-83.32-201.25-86.48-207.11c-1.06-1.96-3.51-2.7-5.48-1.64c-1.63,0.88-2.39,2.72-2.01,4.44l-17.82,3.99
					c-0.08-0.21-0.18-0.43-0.26-0.63c-0.84-2.07-3.19-3.06-5.27-2.22c-2.07,0.84-3.06,3.2-2.22,5.27
					c31.46,77.21,81.34,203.56,81.28,213.82c-0.67,10.72,23.65,23.07,96.39,48.98c5.5601,1.98,18.7,12.81,46.58,12.81
					c4.79,0,8.4399-0.6,10.47-1.97c0.46-0.31,0.84-0.71,1.14-1.17l2.6801-4.2l10.61,0.66c1.86,0.1,3.51-1.02,4.09-2.75
					C587.5601,836.76,530.02,831.75,522.24,830.21z"/>
			</defs>
			<clipPath id="SVGID_00000088096089635349661690000012371008553661457285_">
				<use xlink:href="#SVGID_00000024721969158556864460000000431741486549408945_"  style="overflow:visible;"/>
			</clipPath>
			
				<path style="opacity:0.54;clip-path:url(#SVGID_00000088096089635349661690000012371008553661457285_);fill:#0F0F0F;enable-background:new    ;" d="
				M344.51,697.94l39.84-11.71l10.97,22.69l0,0c-10.76,9.32-42.8,10.53-42.8,10.53L344.51,697.94z"/>
		</g>
	</g>
</g>
<g id="Body">
	<g>
		<g class="st17">
			<g>
				<g>
					
						<linearGradient id="SVGID_00000169545306845546261720000005042640886437813410_" gradientUnits="userSpaceOnUse" x1="153.3046" y1="204.4169" x2="345.3055" y2="204.4169" gradientTransform="matrix(1 0 0 -1 0 950)">
						<stop  offset="0" style="stop-color:#5B1F0C"/>
						<stop  offset="1" style="stop-color:#220504"/>
					</linearGradient>
					<path style="fill:url(#SVGID_00000169545306845546261720000005042640886437813410_);" d="M338.64,846.03
						c-3.48,2.24-8.24,5.3-13.58,9.89c-42.43,36.5-54.56,34.07-102.29,34.07c-4.34,0-8.64-0.16-12.94-0.48
						c-38.36-2.9-44.77-1.49-55.39-16.7c-6.16-8.83,8.48-63.01,152.16-48.26c-21.27-66.55-39.74-214.14-39.74-219.71
						c0-1.47,0.86-2.83,2.24-3.39c1.36-0.59,2.94-0.32,4.01,0.72l26.61,25.34c0.75,0.72,1.15,1.72,1.13,2.74
						c-1.13,59.9,16.16,113.21,30.05,156.05c6.63,20.48,12.38,38.18,14.35,51.96C345.72,841.46,343.18,843.09,338.64,846.03z"/>
				</g>
			</g>
			<g>
				<g>
					<defs>
						<path id="SVGID_00000147924214342432005370000010067760617600946326_" d="M338.64,846.03c-3.48,2.24-8.24,5.3-13.58,9.89
							c-42.43,36.5-54.56,34.07-102.29,34.07c-4.34,0-8.64-0.16-12.94-0.48c-38.36-2.9-44.77-1.49-55.39-16.7
							c-6.16-8.83,8.48-63.01,152.16-48.26c-21.27-66.55-39.74-214.14-39.74-219.71c0-1.47,0.86-2.83,2.24-3.39
							c1.36-0.59,2.94-0.32,4.01,0.72l26.61,25.34c0.75,0.72,1.15,1.72,1.13,2.74c-1.13,59.9,16.16,113.21,30.05,156.05
							c6.63,20.48,12.38,38.18,14.35,51.96C345.72,841.46,343.18,843.09,338.64,846.03z"/>
					</defs>
					<clipPath id="SVGID_00000090252665993003323680000015526706554530519967_">
						<use xlink:href="#SVGID_00000147924214342432005370000010067760617600946326_"  style="overflow:visible;"/>
					</clipPath>
					<g style="clip-path:url(#SVGID_00000090252665993003323680000015526706554530519967_);">
						<path class="st1" d="M183.64,817.61c1.38,0,89.06,21.58,81.04,82.2l-118.69,41.58l-58.32-97.08L183.64,817.61z"/>
						<path class="st10" d="M270.01,687.48c0,0,1.37,17.79,1.67,21.59c0,0,31.87,6.14,37.27,0.59l-3.4-18.75L270.01,687.48z"/>
						<path class="st11" d="M202.11,847.62c0,0,0.55-0.8-0.17-1.68c-4.74-5.77-33.49-9.3-42.82,3.57
							c-4.75,6.56,0.13,10.16,0.13,10.16s5.11-13.09,14.2-14.52C186.06,843.19,202.11,847.62,202.11,847.62z"/>
						<path class="st12" d="M201.45,847.23c-0.86,0-38.46-11.94-42.05,12.45"/>
						<path class="st11" d="M194.02,870.22c0,0,1.5-1.71,0.17-1.94c-15.3-2.57-23.63-4.61-31.17,11.97l0.34,5.3l4.78-2.88
							C168.15,882.66,170.39,865.18,194.02,870.22z"/>
						<path class="st12" d="M193.36,870.65c0,0-23.28-6.17-26.03,12.14"/>
					</g>
				</g>
			</g>
		</g>
		<g class="st17">
			
				<linearGradient id="SVGID_00000117670837804824634300000017553612792175786171_" gradientUnits="userSpaceOnUse" x1="315.221" y1="191.002" x2="572.5134" y2="191.002" gradientTransform="matrix(1 0 0 -1 0 950)">
				<stop  offset="0" style="stop-color:#5B1F0C"/>
				<stop  offset="1" style="stop-color:#220504"/>
			</linearGradient>
			<path style="fill:url(#SVGID_00000117670837804824634300000017553612792175786171_);" d="M522.24,830.21
				c-32.59-6.44-65.9-9.82-87.18-5.45c-11.93-44.32-83.32-201.25-86.48-207.11c-1.06-1.96-3.51-2.7-5.48-1.64
				c-1.63,0.88-2.39,2.72-2.01,4.44l-17.82,3.99c-0.08-0.21-0.18-0.43-0.26-0.63c-0.84-2.07-3.19-3.06-5.27-2.22
				c-2.07,0.84-3.06,3.2-2.22,5.27c31.46,77.21,81.34,203.56,81.28,213.82c-0.67,10.72,23.65,23.07,96.39,48.98
				c5.5601,1.98,18.7,12.81,46.58,12.81c4.79,0,8.4399-0.6,10.47-1.97c0.46-0.31,0.84-0.71,1.14-1.17l2.6801-4.2l10.61,0.66
				c1.86,0.1,3.51-1.02,4.09-2.75C587.5601,836.76,530.02,831.75,522.24,830.21z"/>
		</g>
		<g class="st17">
			<g>
				<defs>
					<path id="SVGID_00000016777167956412199050000012759328021719588537_" d="M522.24,830.21c-32.59-6.44-65.9-9.82-87.18-5.45
						c-11.93-44.32-83.32-201.25-86.48-207.11c-1.06-1.96-3.51-2.7-5.48-1.64c-1.63,0.88-2.39,2.72-2.01,4.44l-17.82,3.99
						c-0.08-0.21-0.18-0.43-0.26-0.63c-0.84-2.07-3.19-3.06-5.27-2.22c-2.07,0.84-3.06,3.2-2.22,5.27
						c31.46,77.21,81.34,203.56,81.28,213.82c-0.67,10.72,23.65,23.07,96.39,48.98c5.5601,1.98,18.7,12.81,46.58,12.81
						c4.79,0,8.4399-0.6,10.47-1.97c0.46-0.31,0.84-0.71,1.14-1.17l2.6801-4.2l10.61,0.66c1.86,0.1,3.51-1.02,4.09-2.75
						C587.5601,836.76,530.02,831.75,522.24,830.21z"/>
				</defs>
				<clipPath id="SVGID_00000090983231424571754120000005126055746685643420_">
					<use xlink:href="#SVGID_00000016777167956412199050000012759328021719588537_"  style="overflow:visible;"/>
				</clipPath>
				<g style="clip-path:url(#SVGID_00000090983231424571754120000005126055746685643420_);">
					<path class="st15" d="M532.45,857.83"/>
					<path class="st1" d="M527.53,804.89c-6.59-2.03-68.04,31.18-70.87,84.82c-2.83,53.63,74.8199,62.59,74.8199,62.59
						S699.63,857.83,527.53,804.89z"/>
					<path class="st11" d="M522.73,856.31c0,0-2.6801-2.98,0.63-3.39s43.58,0.57,31.84,45.75l-4.47-0.41
						C550.73,898.26,557.34,860.21,522.73,856.31z"/>
					<path class="st12" d="M550.0601,900.33c2.84-5.42,3.83-43.27-27.41-44.94"/>
					<path class="st11" d="M527.0601,844.11c0,0,37.45-5.3,43.39,21.65C570.46,865.76,580.22,836.05,527.0601,844.11z"/>
					<path class="st12" d="M527.08,845.68c1.38-0.17,44.16-6.29,42.84,22.38"/>
				</g>
			</g>
			<g>
				<defs>
					<path id="SVGID_00000163751962625525030530000011662984687861836724_" d="M522.24,830.21c-32.59-6.44-65.9-9.82-87.18-5.45
						c-11.93-44.32-83.32-201.25-86.48-207.11c-1.06-1.96-3.51-2.7-5.48-1.64c-1.63,0.88-2.39,2.72-2.01,4.44l-17.82,3.99
						c-0.08-0.21-0.18-0.43-0.26-0.63c-0.84-2.07-3.19-3.06-5.27-2.22c-2.07,0.84-3.06,3.2-2.22,5.27
						c31.46,77.21,81.34,203.56,81.28,213.82c-0.67,10.72,23.65,23.07,96.39,48.98c5.5601,1.98,18.7,12.81,46.58,12.81
						c4.79,0,8.4399-0.6,10.47-1.97c0.46-0.31,0.84-0.71,1.14-1.17l2.6801-4.2l10.61,0.66c1.86,0.1,3.51-1.02,4.09-2.75
						C587.5601,836.76,530.02,831.75,522.24,830.21z"/>
				</defs>
				<clipPath id="SVGID_00000035495704531267310560000003819263912945683598_">
					<use xlink:href="#SVGID_00000163751962625525030530000011662984687861836724_"  style="overflow:visible;"/>
				</clipPath>
				
					<path style="opacity:0.54;clip-path:url(#SVGID_00000035495704531267310560000003819263912945683598_);fill:#0F0F0F;enable-background:new    ;" d="
					M344.51,697.94l39.84-11.71l10.97,22.69l0,0c-10.76,9.32-42.8,10.53-42.8,10.53L344.51,697.94z"/>
			</g>
		</g>
		
			<linearGradient id="SVGID_00000164495672543841502820000003126106755097613971_" gradientUnits="userSpaceOnUse" x1="194.2119" y1="451.0198" x2="481.1797" y2="451.0198" gradientTransform="matrix(1 0 0 -1 0 950)">
			<stop  offset="0" style="stop-color:#5B1F0C"/>
			<stop  offset="1" style="stop-color:#220504"/>
		</linearGradient>
		<path style="fill:url(#SVGID_00000164495672543841502820000003126106755097613971_);" d="M475.6899,330.01
			c0,0,34.66,326.46-70.2,361.93s-227.86-10.47-209.43-95.02c13.52-62.02,100.38-108.18,115.62-136.55s32.82-134.13,42.68-150.09
			C364.22,294.31,463.84,276.12,475.6899,330.01z"/>
		<path class="st10" d="M270.84,500.62l-8.89,7.68c0,0,164.54,73.73,207.2,79.44c0,0,1.87-8.34,1.87-9.63
			C471.02,576.83,270.84,500.62,270.84,500.62z"/>
		<path class="st10" d="M277.8,491.52l-6.24,6.29c0,0,191.89,69.63,202.1,70.25l1.87-12.26L277.8,491.52z"/>
		<path class="st2" d="M476.1801,552.07l-4.5699,29.05c-20.59,0.35-203.65-80.16-203.65-80.16l14.78-12.95
			C282.74,488.01,474.78,551.81,476.1801,552.07z"/>
		<g>
			<g>
				<defs>
					<path id="SVGID_00000136383188061804970500000016245201847377046456_" d="M475.6899,336.86c0,0,39.28,305.17-65.58,338.33
						s-241.83-12.57-214.05-88.83s100.38-101.13,115.62-127.65c15.24-26.53,20.52-142.22,30.37-157.14
						C351.91,286.65,475.55,258.14,475.6899,336.86z"/>
				</defs>
				<clipPath id="SVGID_00000108282874660626632750000013761517835860198570_">
					<use xlink:href="#SVGID_00000136383188061804970500000016245201847377046456_"  style="overflow:visible;"/>
				</clipPath>
				<path style="clip-path:url(#SVGID_00000108282874660626632750000013761517835860198570_);fill:#007473;" d="M325.16,350.07
					c0.16,0.6-49.34,127.44-64.81,138.26c0,0,215.78,87.14,242.46,73.73c26.6801-13.41,6.34-284.51,6.34-284.51l-176.23,28.71
					L325.16,350.07z"/>
			</g>
			<g>
				<defs>
					<path id="SVGID_00000140727576626779661760000003540451896136094595_" d="M475.6899,336.86c0,0,39.28,305.17-65.58,338.33
						s-241.83-12.57-214.05-88.83s100.38-101.13,115.62-127.65c15.24-26.53,20.52-142.22,30.37-157.14
						C351.91,286.65,475.55,258.14,475.6899,336.86z"/>
				</defs>
				<clipPath id="SVGID_00000163058891989503908840000005310348300894318505_">
					<use xlink:href="#SVGID_00000140727576626779661760000003540451896136094595_"  style="overflow:visible;"/>
				</clipPath>
				
					<path style="clip-path:url(#SVGID_00000163058891989503908840000005310348300894318505_);fill-rule:evenodd;clip-rule:evenodd;fill:#004D4C;" d="
					M267.7,493.1l58.31,20.41c-4.33-9.73-11.3-36.13-13.55-43.27c-3.14-10.01,18.12,9.52,23.94,7.17
					c5.81-2.34-19.19-18.78-16.23-24.91c2.96-6.13,3.87-0.9,14.43,4.32c17.39,8.59,35.28,8.48,40.9,10.14
					c5.62,1.66,6.68,30.46,6.68,30.46s3.31-15.68,8.56-26.39c1.43-2.91,7.06-6.17,12.4-7.65c14.05-3.89,31.11-1.95,32.06-1.94
					c-0.71-0.16-16.3-3.51-34.78-6.8c-9.05-1.61-18.81-3.2-27.84-4.39c-27.86-3.67-17.4-59.07-10.9-85.14
					c6.51-26.07,27.16-62.73,30.71-67.8c2.46-3.52-31.25-0.05-33.71-7.69c-15.71-4.62-42.74,6.96-48.9,35.55
					C306.33,341.29,267.7,493.1,267.7,493.1z"/>
			</g>
			<g>
				<defs>
					<path id="SVGID_00000078004800348683821890000015809087177915745189_" d="M475.6899,336.86c0,0,39.28,305.17-65.58,338.33
						s-241.83-12.57-214.05-88.83s100.38-101.13,115.62-127.65c15.24-26.53,20.52-142.22,30.37-157.14
						C351.91,286.65,475.55,258.14,475.6899,336.86z"/>
				</defs>
				<clipPath id="SVGID_00000150097015912344756330000007233796425528573831_">
					<use xlink:href="#SVGID_00000078004800348683821890000015809087177915745189_"  style="overflow:visible;"/>
				</clipPath>
				<path style="clip-path:url(#SVGID_00000150097015912344756330000007233796425528573831_);fill:#004D4C;" d="M432.05,281.5
					c0,0.85,37.04,194.8,29.66,224.36c-0.5,2,7.46-57.06,28.77-42.71c8.4399,5.68,4.28-210.6-60.08-181.65"/>
			</g>
			<g>
				<defs>
					<path id="SVGID_00000093142458865271998440000012661000469617272243_" d="M475.6899,336.86c0,0,39.28,305.17-65.58,338.33
						s-241.83-12.57-214.05-88.83s100.38-101.13,115.62-127.65c15.24-26.53,20.52-142.22,30.37-157.14
						C351.91,286.65,475.55,258.14,475.6899,336.86z"/>
				</defs>
				<clipPath id="SVGID_00000031927537893581515400000011014008114640886659_">
					<use xlink:href="#SVGID_00000093142458865271998440000012661000469617272243_"  style="overflow:visible;"/>
				</clipPath>
				<path style="clip-path:url(#SVGID_00000031927537893581515400000011014008114640886659_);fill:#F7F3D7;" d="M409.94,293.08
					c0,0,37.69,58.26,53.33,196.27c0,0,34.77-101.27-22.36-201.04C433.91,276.09,409.94,293.08,409.94,293.08z"/>
			</g>
		</g>
		<g>
			<path class="st28" d="M343.9,277.56c0,0,30.3,17.39,59.56,13.93v31.25c0,0-61.48,15.31-63.48-17.54L343.9,277.56z"/>
			<path class="st28" d="M437.5,272.66c0,0-10.21,11-22.81,17.65l3.08,34.27c0,0,16.01-17.44,19.35-33.43L437.5,272.66z"/>
			<path class="st29" d="M440.17,276.12c0,0-16.63,25.35-30.63,26.62c-14.01,1.27-29.56-18.31-33.26-22.07s-15.47,19.77-10.7,39.88
				c4.77,20.11,32.78-5.82,44.03-4.37s28.74,4.12,37.21,5.52C455.28,323.1,450.4,284.13,440.17,276.12z"/>
			<path class="st30" d="M419.42,293.21c0,0,11.86,17.16,5.77,26.04c-6.08,8.88-26.28,9.23-28.91,3.34
				c-2.63-5.9-1.34-22.79,3.13-28.33C403.89,288.72,413.12,291.01,419.42,293.21z"/>
		</g>
		
			<ellipse transform="matrix(0.1457 -0.9893 0.9893 0.1457 -101.8447 887.2957)" class="st2" cx="462.8497" cy="502.6191" rx="5.6699" ry="3.8899"/>
		
			<ellipse transform="matrix(0.2651 -0.9642 0.9642 0.2651 -164.5192 825.5653)" class="st2" cx="459.3324" cy="520.7115" rx="5.6699" ry="3.8899"/>
		
			<ellipse transform="matrix(0.3871 -0.922 0.922 0.3871 -218.9417 748.9911)" class="st2" cx="453.9258" cy="539.1852" rx="5.6698" ry="3.8899"/>
		<path class="st31" d="M447.62,554.55c0.38,0.06,3.09-4.13,4-5.8l1.58,7.36L447.62,554.55z"/>
		<path class="st2" d="M437.89,557.03c0.38,0.06,10.58-5.48,13.73-8.27l-1.05,16L437.89,557.03z"/>
	</g>
</g>
<g id="R_Shoulder_00000001643972508487076430000014476688455629761421_">
	
		<ellipse transform="matrix(0.1602 -0.9871 0.9871 0.1602 -22.9587 692.6553)" class="st32" cx="395.58" cy="359.82" rx="61.63" ry="61.63"/>
</g>
<g id="R_Bicep_00000122686030810647327810000013503903734099796125_">
	<g>
		<polygon class="st32" points="543.74,335.07 526.48,433.51 384.06,420.37 405.36,298.96 		"/>
	</g>
	<g>
		<polygon class="st32" points="543.74,335.07 526.48,433.51 384.06,420.37 405.36,298.96 		"/>
	</g>
	<path class="st33" d="M563.55,421.39c0-6.32-5.13-11.45-11.45-11.45c-3.23,0-6.14,1.34-8.22,3.49l-0.01-0.01
		c-0.22,0.23-0.62,0.2-1.24-0.16c-5.67-3.34-2.83-10.71-8.78-16.99c-0.76-0.79-1.4-1.12-1.95-1.1c-3.91,0.14-4.33,16.86-14.16,11.14
		c-11.26-6.55-64.36-1.21-69.01-9.86c-4.68-8.65,29.5601-5.47,26-12.32c-3.59-6.86-97.03,10.9-109.22-9.31
		c-37.23-61.72,15.53-71.16,20.52-76.19c-12.92,1.09-23.32,8.19-27.72,10.87c-37.82,23.09-45.44,118.53,60.15,114.44
		c16.74-0.65,23.07,5.12,36.08,6.62c14.92,1.72,91.63,5.82,100.0699,3.31c0.64-0.18,1-0.34,1.24-0.51l0,0
		c0.12,0.05,2.4399-2.09,3.6899-3.26C561.98,428.01,563.55,424.88,563.55,421.39z"/>
</g>
<g id="R_Elbow_00000137848489122408192600000006552748058571698052_">
	<circle class="st32" cx="535.14" cy="384.69" r="49.98"/>
</g>
<g id="R_Forearm_00000056411631850560631620000005120061928035000978_">
	<g>
		<polygon class="st1" points="531.3,251.01 559.47,252.76 572.7,378.39 502.61,374.03 		"/>
		<polygon class="st32" points="579.59,286.06 503.24,281.33 485.26,381.44 585.02,387.63 		"/>
		<path class="st31" d="M579.59,286.07l-8.12-0.5c-1.28,2.12-6.8,119.85-15.09,120.54c-8.35,0.68-12.47-13.65-16.8101-13.94
			c-0.15-0.01-0.27,0-0.38,0.06c-2.75,1.14,6.4399,19.37,4.6899,21.21l0.01,0.01c-1.99,2.06-3.23,4.86-3.23,7.96
			c0,6.32,5.13,11.45,11.45,11.45c3.22,0,6.13-1.33,8.21-3.48l0,0c10.52-5.51,20.24-15.17,24.38-30.87
			C593.45,365.3,579.73,289.52,579.59,286.07z"/>
	</g>
</g>
<g id="R_Wrist_00000038411862696384334910000012032975827548452015_">
	<circle class="st1" cx="545.42" cy="252.34" r="14.13"/>
</g>
<g id="R_Hand_00000000186461657269188430000013422188338046332811_">
	<g>
		<g>
			<path class="st1" d="M531.3,251.01c0,0-2.5601-40.64,1.97-50.59c4.53-9.95,12.72-23.63,33.38-25.15
				c9.5601-0.71,31.8,1.97,33.3,7.96c1.49,5.98-22.83,3.79-22.83,3.79l-17.0699,18.73c-2.04,3.52-2.55,7.69-1.49,11.61
				c1.23,4.57,10.6899,18.18,8.14,25.63c-2.36,6.9-7.22,9.77-7.22,9.77L531.3,251.01z"/>
		</g>
		<path class="st34" d="M579.24,178.05c0,0-28.4-3.06-32.1801,15.8"/>
	</g>
	<path class="st34" d="M593.34,184.18c0-0.31-30.1801-6.97-35.64,16.19"/>
	<path class="st1" d="M600.02,200.3c-0.7,0-43.59,3.35-48.34,10.76s-4.61,14.81-4.61,14.81s13.27,6.71,18.4399,0.7
		s15.9301-15.37,29.62-17.18C608.8199,207.57,600.02,200.3,600.02,200.3z"/>
	<path class="st34" d="M599.08,201.66c0,0-31.24,1.16-37.11,7.07"/>
</g>
<g id="Head">
	<g>
		<g>
			
				<linearGradient id="SVGID_00000180358918837597423650000015216337625367973018_" gradientUnits="userSpaceOnUse" x1="4471.2954" y1="2108.7278" x2="4476.7305" y2="2138.4771" gradientTransform="matrix(-0.9518 0.3066 -0.3066 -0.9518 5289.7261 727.365)">
				<stop  offset="0" style="stop-color:#160303"/>
				<stop  offset="1" style="stop-color:#471400"/>
			</linearGradient>
			<path style="fill:url(#SVGID_00000180358918837597423650000015216337625367973018_);" d="M329.79,83.74
				c0,0,36.71-30.35,54.81-35.2c0.28-0.08,0.43,0.32,0.17,0.46c-3.66,1.89-11.86,6.41-13.36,9.53c0,0,33.31-7.31,41.37-3.34
				c0,0-30.57,6.77-36.2,10.89c0,0,39.95-9.29,53.04,3.8c0,0-25.52-0.08-35.58,5.2c-0.05,0.03-0.11,0.06-0.16,0.08
				C383.94,80.53,348.04,79.31,329.79,83.74z"/>
			<g>
				
					<linearGradient id="SVGID_00000003811701304180199930000017630771117120898452_" gradientUnits="userSpaceOnUse" x1="4517.8564" y1="1958.4104" x2="4519.8232" y2="1950.2148" gradientTransform="matrix(-0.9518 0.3066 -0.3066 -0.9518 5289.7261 727.365)">
					<stop  offset="0" style="stop-color:#C58851"/>
					<stop  offset="1" style="stop-color:#FBC67C"/>
				</linearGradient>
				<path style="fill:url(#SVGID_00000003811701304180199930000017630771117120898452_);" d="M409.17,232.2
					c1.82,5.65,4.14,12.41,7.69,18.13l-0.25,0.14c0,0-9.64,9.14-36.7,0.14c-5.91-6.3-12.36-12.08-19.42-17.19L409.17,232.2z"/>
				<path class="st3" d="M414.51,245.98l0.64,1.6c0,0-15.54,6.69-38.94-1.02l-3.97-3.5c0,0,33.99-1.13,34.38-1.13
					C407.01,241.94,414.51,245.98,414.51,245.98z"/>
			</g>
			<g>
				
					<linearGradient id="SVGID_00000158716872968380762820000009123420069788914304_" gradientUnits="userSpaceOnUse" x1="1859.9911" y1="-4254.1748" x2="1794.2737" y2="-4184.9048" gradientTransform="matrix(-0.4766 0.8791 0.8791 0.4766 5028.73 569.987)">
					<stop  offset="0" style="stop-color:#220504"/>
					<stop  offset="1" style="stop-color:#5B1F0C"/>
				</linearGradient>
				<path style="fill:url(#SVGID_00000158716872968380762820000009123420069788914304_);" d="M385.91,97.81
					c41.35,11.31,31.25,52.3,27.79,84.77c-3.6,33.77,2.94,88.47,48.24,88.27c32.5601-0.15,51.9301-26.78,58.9399-55.96
					c13.1899-54.94-2.47-109.9-67.1801-135.89c-19.93-8.01-41.77-10.53-62.47-9.62L385.91,97.81z"/>
				
					<linearGradient id="SVGID_00000130642616300786305000000017790566899458636458_" gradientUnits="userSpaceOnUse" x1="1790.9847" y1="-4156.0088" x2="1814.0747" y2="-4183.5391" gradientTransform="matrix(-0.4766 0.8791 0.8791 0.4766 5028.73 569.987)">
					<stop  offset="0" style="stop-color:#922F0F"/>
					<stop  offset="1" style="stop-color:#5B1F0C"/>
				</linearGradient>
				<path style="fill:url(#SVGID_00000130642616300786305000000017790566899458636458_);" d="M502.63,239.85
					c-5.61,9.94-15.95,22.5-26.79,29.19c24.24-6.47,39.09-29.39,45.03-54.14c12.91-53.78-1.84-107.58-63.16-134.21l-0.11,0.43
					C512.92,109.49,532.9,186.23,502.63,239.85z"/>
				
					<linearGradient id="SVGID_00000147210726598111323850000003490271198511533217_" gradientUnits="userSpaceOnUse" x1="1860.4327" y1="-4254.3633" x2="1794.1831" y2="-4184.5327" gradientTransform="matrix(-0.4766 0.8791 0.8791 0.4766 5028.73 569.987)">
					<stop  offset="0" style="stop-color:#160303"/>
					<stop  offset="1" style="stop-color:#471400"/>
				</linearGradient>
				<path style="fill:url(#SVGID_00000147210726598111323850000003490271198511533217_);" d="M385.89,97.92
					c6.24,1.74,12.24,4.37,17.27,8.5c4.1,3.36,7.29,7.68,9.49,12.48c4.61,10.03,4.79,21.62,4.14,32.44
					c-0.7,11.49-2.7,22.84-3.7,34.3c-1.08,12.45-0.71,25.12,1.49,37.44c2.14,12,6.28,24.1,14.18,33.57
					c8.09,9.69,19.82,14.55,32.3199,14.74c13.33,0.21,26.0699-4.54,36.14-13.23c9.92-8.57,16.6899-20.33,21.0699-32.55
					c4.25-11.84,6.4-24.63,7.1899-37.15c0.75-11.77-0.0699-23.65-2.73-35.15c-5.5-23.73-19.58-44.23-39.2-58.56
					c-11.95-8.73-25.64-15.33-39.78-19.64c-16.62-5.06-34.2-6.68-51.5-5.9c-0.34,0.02-0.68,0.04-1.03,0.05
					c-0.16,0.01-0.15,0.26,0.01,0.25c32.91-1.39,66.35,6.93,92.9,26.9c10,7.52,18.67,16.75,25.3,27.37
					c6.22,9.97,10.47,21.07,12.86,32.57c2.4399,11.74,2.84,23.86,1.8,35.78c-1.12,12.92-3.75,26.03-8.76,38.02
					c-5.1,12.22-12.98,23.58-23.99,31.16c-11.4,7.85-26.11,10.81-39.67,8.02c-26.89-5.54-36.02-35.22-38.01-59.17
					c-1.01-12.15-0.13-24.16,1.36-36.23c1.4-11.33,2.96-22.73,2.51-34.17c-0.35-9.02-2.17-18.22-7.2-25.86
					c-5.61-8.52-14.78-13.53-24.41-16.18C385.81,97.67,385.76,97.88,385.89,97.92L385.89,97.92z"/>
			</g>
			<g>
				
					<linearGradient id="SVGID_00000006704669267095265950000008211719081908480160_" gradientUnits="userSpaceOnUse" x1="4466.5781" y1="1948.3148" x2="4479.0996" y2="2022.1931" gradientTransform="matrix(-0.9518 0.3066 -0.3066 -0.9518 5289.7261 727.365)">
					<stop  offset="0" style="stop-color:#FBC67C"/>
					<stop  offset="1" style="stop-color:#FFE5AB"/>
				</linearGradient>
				<path style="fill:url(#SVGID_00000006704669267095265950000008211719081908480160_);" d="M309.33,162.85c0,0,11.63-4,19.42-5.48
					s73.12-18.39,73.12-18.39l29.24-0.64l23.13,4.43c0,0,34.09,27.25,36.88,27.9s23.62,17.19,23.62,17.19
					c-18.17,21.85-40.27,47.65-69.43,53.88c-8.86,1.89-21.65,4.07-30.68,4.2c-23.85,0.34-43.37-0.67-65.53-9.37
					c-11.14-4.37-17.85-16.15-21.08-29.35l0.06,0.99c-5.6-7.75-15.13-18.89-21.03-27.58C304.53,176.79,298.44,163.51,309.33,162.85z
					"/>
				
					<linearGradient id="SVGID_00000178909711025673948060000007295005689121474969_" gradientUnits="userSpaceOnUse" x1="4499.5801" y1="2017.1613" x2="4498.2622" y2="2034.9486" gradientTransform="matrix(-0.9518 0.3066 -0.3066 -0.9518 5289.7261 727.365)">
					<stop  offset="0" style="stop-color:#FFE5AB"/>
					<stop  offset="1" style="stop-color:#FFF5C7"/>
				</linearGradient>
				<path style="fill:url(#SVGID_00000178909711025673948060000007295005689121474969_);" d="M309.33,162.85c0,0,11.63-4,19.42-5.48
					s73.12-18.39,73.12-18.39l29.24-0.64l23.13,4.43c0,0,2.5601,2.05,6.34,5.03l-0.67,18.97c0,0-23.59-4.28-57.11,3.93
					c-19.16,4.7-42.81,13.71-62.42,6.68c-14.9-5.34-32.78-12.2-36.76-4.56C302.38,168.14,302.83,163.24,309.33,162.85z"/>
				<path class="st42" d="M451.49,152.7c0,0-11.7,2.43-26.05,0.13c-15.53-2.49-27.07,0.7-39.65,6.83
					c-15.63,7.62-31.1,15.7-31.1,15.7l5.39-10.52c0,0,12.22-8.58,14.09-9.19c1.87-0.6,32.96-14.75,34.37-15.2
					c1.4-0.45,17.59-1.53,17.59-1.53l18.16,3.45l11.04,0.58L451.49,152.7z"/>
				
					<linearGradient id="SVGID_00000083085856947227605820000006260212510420275130_" gradientUnits="userSpaceOnUse" x1="4477.9365" y1="2047.9565" x2="4477.9365" y2="1966.8206" gradientTransform="matrix(-0.9518 0.3066 -0.3066 -0.9518 5289.7261 727.365)">
					<stop  offset="0" style="stop-color:#EFB871"/>
					<stop  offset="0.9769" style="stop-color:#DAA15E"/>
				</linearGradient>
				<path style="fill:url(#SVGID_00000083085856947227605820000006260212510420275130_);" d="M353.68,175.42
					c5.96-4.76,35.14-22.43,35.14-22.43l-14.96-6.82c-18.76,4.8-40.79,10.37-45.11,11.18c-6.72,1.27-16.29,4.43-18.79,5.27
					c0.21,0.02,0.41,0.05,0.62,0.07C328.75,164.6,353.68,175.42,353.68,175.42z M307.05,180.63c5.9,8.69,15.43,19.83,21.03,27.58
					l-0.06-0.99c3.23,13.2,9.94,24.98,21.08,29.35c22.16,8.7,41.68,9.71,65.53,9.37c9.02-0.13,21.82-2.31,30.68-4.2
					c29.17-6.23,51.2599-32.03,69.43-53.88c0,0-20.83-16.54-23.62-17.19c-0.37-0.09-1.29-0.64-2.6-1.53l-33.1,5.63
					c0,0,6.13,9.39,13.76,12.79c4.64,2.06,9.64,10.76,15.9301,16.27c-3.01,3.94-15.9399,19.07-42.39,26.69
					c-30.57,8.81-77.56,11.55-101.13-4.96c0,0-15.4-10.2-15.68-46.41c3.57,1.02,7.41,2,10.89,2.66c0,0-8.5-5.01-24.09-6.88
					c0,0,5.79,2.08,12.71,4.08c-0.95,2.3-3.07,7.97-3.75,14.51c-1.73-1.55-15.41-13.98-18.41-22.32
					C303.88,174.9,305.86,178.82,307.05,180.63z"/>
				<path class="st44" d="M451.37,236c27.23-10.61,42.34-31.78,45.33-36.3c-5.28-1.07-9.99-4.21-14.08-7.59
					c-4.8101-3.97-4.71-7.37-12.78-8.12c-4.04-0.38-7.8101-2.87-10.63-5.97l11.04-4.63l-0.37-1.08l18.63-3.17
					c1.3101,0.89,2.23,1.45,2.6,1.53c2.79,0.65,23.62,17.19,23.62,17.19c-18.17,21.85-40.27,47.65-69.43,53.88
					c-8.86,1.89-21.65,4.07-30.68,4.2c-23.85,0.34-43.37-0.67-65.53-9.37c-1.05-0.41-2.05-0.89-3.02-1.42
					C367.68,243.34,420.79,247.92,451.37,236z"/>
				<path class="st3" d="M307.42,163.03c0.62-0.16,1.27-0.21,1.91-0.24c0.07,0,0.07,0.1,0,0.1c-2.03,0.2-4.08,0.81-5.24,2.61
					c-0.91,1.41-0.93,3.22-0.74,4.82c0.39,3.31,1.83,6.57,3.52,9.42c1.28,2.15,2.88,4.15,4.38,6.15c1.95,2.6,3.95,5.15,5.96,7.7
					c3.55,4.49,7.26,8.9,10.46,13.65c-0.29-1.23-0.56-2.47-0.79-3.69c-1.62-8.43-2.14-17.37-0.89-25.88
					c-4.57-1.23-9.27-2.04-13.85-2.75c-0.09-0.01-0.08-0.16,0.01-0.16c9.66,0.56,19.05,3.06,27.22,8.35c0.02,0.01,0,0.04-0.01,0.03
					c-4.02-2.43-8.43-4.11-12.98-5.36c-0.96,11-0.29,22.12,2.88,32.74c2.94,9.83,8.41,19.87,17.89,24.69
					c2.88,1.47,6.06,2.46,9.12,3.47c3.17,1.05,6.39,1.95,9.63,2.75c6.26,1.53,12.64,2.54,19.06,3.18
					c6.65,0.66,13.34,0.89,20.02,0.94c6.61,0.05,13.18-0.03,19.76-0.78c6.63-0.76,13.23-1.92,19.76-3.29
					c6.9-1.45,13.48-3.93,19.7-7.25c12.67-6.77,23.4399-16.62,33.24-27c5.9301-6.28,11.74-12.75,17.29-19.36
					c0.01-0.02,0.04,0.01,0.02,0.02c-4.42,5.37-8.6801,10.84-13.3101,16.03c-4.77,5.35-9.75,10.51-15.0601,15.32
					c-10.26,9.29-21.95,17.3-35.25,21.45c-6.17,1.93-12.67,2.96-19.05,3.96c-6.49,1.02-12.99,1.7-19.56,1.78
					c-13.1,0.15-26.26-0.19-39.19-2.5c-6.52-1.16-12.93-2.86-19.2-5.01c-5.13-1.77-9.85-3.74-13.86-7.49
					c-6.45-6.02-10.15-14.52-12.31-23.06c-0.02-0.01-0.03-0.02-0.05-0.04c-3.96-4.97-7.89-9.97-11.8-14.97
					c-2.07-2.65-4.13-5.3-6.12-8.01c-1.38-1.88-2.82-3.76-3.96-5.8C303.45,174.92,299.85,164.95,307.42,163.03z"/>
			</g>
			<g>
				<path class="st1" d="M453.67,142.61c0,0-8.13,4.69-18.18,3.44c-10.04-1.24-18.72-4.65-29.13-0.61
					c-10.41,4.04-38.54,18.27-52.74,27.67c0,0-22.19-10.07-43.33-10.49c0,0-2.67-32.89,11.88-67.89c0,0,3.61-8.05,11.43-12.64
					s33.66-17.39,50.86-16.38c17.2,1,31.84,9.03,39.48,22.07c0,0,8.54,6.2,10.44,13.17l-0.27,1.29c0,0,1.93,9.19,3,16.25
					C438.19,125.56,444.36,140.45,453.67,142.61z"/>
				<path class="st45" d="M402.01,94.5c0,0,14.9-11.89,5.95-22.18c6.69,3.76,12.2,8.99,15.99,15.45c0,0,8.54,6.2,10.44,13.17
					l-0.27,1.29c0,0,1.93,9.19,3,16.25s7.24,21.95,16.55,24.12c0,0-8.13,4.69-18.18,3.44c-5.64-0.7-10.84-2.08-16.17-2.44
					C414.48,139.77,406.22,128.34,402.01,94.5z"/>
				<g>
					<g>
						<defs>
							<path id="SVGID_00000018231185598448877820000014386204634630454702_" d="M453.67,142.61c0,0-8.13,4.69-18.18,3.44
								c-10.04-1.24-18.72-4.65-29.13-0.61c-10.41,4.04-38.54,18.27-52.74,27.67c0,0-22.19-10.07-43.33-10.49
								c0,0-2.67-32.89,11.88-67.89c0,0,3.61-8.05,11.43-12.64s33.66-17.39,50.86-16.38c17.2,1,31.84,9.03,39.48,22.07
								c0,0,8.54,6.2,10.44,13.17l-0.27,1.29c0,0,1.93,9.19,3,16.25C438.19,125.56,444.36,140.45,453.67,142.61z"/>
						</defs>
						<clipPath id="SVGID_00000181809995868225344580000009460955384235852981_">
							<use xlink:href="#SVGID_00000018231185598448877820000014386204634630454702_"  style="overflow:visible;"/>
						</clipPath>
						
							<linearGradient id="SVGID_00000000933124240663690200000007166309739279602341_" gradientUnits="userSpaceOnUse" x1="4435.3325" y1="2096.8491" x2="4595.3091" y2="2096.8491" gradientTransform="matrix(-0.9518 0.3066 -0.3066 -0.9518 5289.7261 727.365)">
							<stop  offset="0" style="stop-color:#220504"/>
							<stop  offset="1" style="stop-color:#5B1F0C"/>
						</linearGradient>
						
							<path style="clip-path:url(#SVGID_00000181809995868225344580000009460955384235852981_);fill:url(#SVGID_00000000933124240663690200000007166309739279602341_);" d="
							M365.22,62.66c0,0,50.53-2.26,52.6,5.64c2.07,7.89-9.8,16.33-13.17,28.55s14.66,46.77,14.66,46.77s-17.21,2.99-22.19,5.66
							c-3.65,1.95-3.98-48.27-20.5-56.87c-8.1-4.22-21.15-13.19-31.86-14.54c-30.71-3.89-64.84,9.15-84.83,19.6
							C249.77,102.79,365.22,62.66,365.22,62.66z"/>
					</g>
				</g>
			</g>
			<g>
				<path d="M434.2,102.22c0,0-2.41-7.49-5.6-7.75c-3.18-0.27-18.14,2.23-22.64,1.87c0,0,8.92-5.97,19.46-9.37
					C435.94,83.57,440.28,85.02,434.2,102.22z"/>
				
					<linearGradient id="SVGID_00000068655450372102894190000011522868010190519739_" gradientUnits="userSpaceOnUse" x1="4434.79" y1="2104.093" x2="4436.6172" y2="2099.5254" gradientTransform="matrix(-0.9518 0.3066 -0.3066 -0.9518 5289.7261 727.365)">
					<stop  offset="0" style="stop-color:#E74914"/>
					<stop  offset="1" style="stop-color:#000000"/>
				</linearGradient>
				<path style="fill:url(#SVGID_00000068655450372102894190000011522868010190519739_);" d="M434.11,98.96
					c1.97-6.26,2.28-10.15,0.9-11.57c-1.56-1.6-6.03-0.41-9.26,0.64c-6.32,2.04-12.11,5.05-15.63,7.08c2.57-0.2,5.73-0.57,8.67-0.91
					c4.47-0.52,8.33-0.97,9.91-0.84C431.13,93.56,432.99,96.53,434.11,98.96L434.11,98.96z"/>
			</g>
			<g>
				<path d="M380.78,94.37c0,0-10.06-4.77-20.12-9.53c-10.06-4.77-19.3-6.18-27.04-1.36c-7.75,4.82-11.78,11.54-11.78,11.54
					s-2.63-16.98,10.27-23.46c12.89-6.48,23.32,1.01,29.26,5.04C367.31,80.62,380.78,94.37,380.78,94.37z"/>
				
					<linearGradient id="SVGID_00000031195311792312572170000010670550055428465034_" gradientUnits="userSpaceOnUse" x1="4499.0815" y1="2142.3586" x2="4502.5234" y2="2133.7537" gradientTransform="matrix(-0.9518 0.3066 -0.3066 -0.9518 5289.7261 727.365)">
					<stop  offset="0" style="stop-color:#E74914"/>
					<stop  offset="1" style="stop-color:#000000"/>
				</linearGradient>
				<path style="fill:url(#SVGID_00000031195311792312572170000010670550055428465034_);" d="M375.41,90.59
					c-4.44-4.36-11.04-10.61-14.66-13.06l-0.49-0.33c-5.51-3.74-13.84-9.39-24.23-6.05c-1.14,0.37-2.29,0.84-3.42,1.41
					c-8.8,4.42-9.91,14.25-9.86,19.25c1.94-2.47,5.38-6.23,10.28-9.28c1.45-0.9,2.99-1.62,4.59-2.13c6.52-2.1,14.22-0.98,23.52,3.43
					L375.41,90.59L375.41,90.59z"/>
			</g>
			<g>
				
					<linearGradient id="SVGID_00000074431718634698936160000007705358763544279476_" gradientUnits="userSpaceOnUse" x1="4368.1069" y1="1904.7222" x2="4397.584" y2="2047.1947" gradientTransform="matrix(-0.9518 0.3066 -0.3066 -0.9518 5289.7261 727.365)">
					<stop  offset="0" style="stop-color:#707173"/>
					<stop  offset="1" style="stop-color:#000000"/>
				</linearGradient>
				<path style="fill:url(#SVGID_00000074431718634698936160000007705358763544279476_);" d="M520.8199,188.06
					c12.65-11.63,13.42-28.29,9.85-44.22c-3.14-14.61-11.53-31.28-28.83-30.88c-10.47,0.41-20.47,4.04-29.37,9.4
					c-15.6801,9.47-27.17,25.26-20.99,44.46c1.91,5.93,6.21,11.81,12.1,14.09c3.9399,1.53,7.6899,0.35,11.4399,1.25
					c8.92,2.6,12.6801,12.61,22.59,14.1C506.0601,197.55,514.77,193.62,520.8199,188.06z"/>
				<path d="M520.8199,188.06c-6.05,5.56-14.76,9.49-23.21,8.22c-9.91-1.49-13.67-11.5-22.59-14.1c-3.75-0.9-7.5,0.28-11.4399-1.25
					c-5.9-2.29-10.1899-8.16-12.1-14.09c-1.3101-4.08-1.8199-8-1.67-11.74c0.03,0.15,0.0699,0.29,0.1,0.44
					c3.26,15.48,27.88,1.01,39.36,3.51s11.63,24.31,28.1,19.88c11.71-3.15,14.25-23.48,14.64-27.47
					C533.7,164.92,531.46,178.27,520.8199,188.06z"/>
				
					<linearGradient id="SVGID_00000057831387421606221040000009260922894753737638_" gradientUnits="userSpaceOnUse" x1="4396.0083" y1="2067.9038" x2="4391.9131" y2="2038.3263" gradientTransform="matrix(-0.9518 0.3066 -0.3066 -0.9518 5289.7261 727.365)">
					<stop  offset="0" style="stop-color:#FBFBFC"/>
					<stop  offset="1" style="stop-color:#262427"/>
				</linearGradient>
				<path style="fill:url(#SVGID_00000057831387421606221040000009260922894753737638_);" d="M472.47,122.37
					c8.9-5.37,18.89-9,29.37-9.4c10.74-0.25,18.05,6.09,22.79,14.42c-3.77-4.7-11.89-11.16-26.8-7.9
					c-22.4399,4.9-42.47,24.53-47.6801,32.41c-0.02,0.02-0.03,0.04-0.05,0.07C451.88,139.5,461.0601,129.26,472.47,122.37z"/>
				
					<linearGradient id="SVGID_00000115490550372902657200000010445138583005246629_" gradientUnits="userSpaceOnUse" x1="4413.4702" y1="1985.0616" x2="4404.6191" y2="1996.3716" gradientTransform="matrix(-0.9518 0.3066 -0.3066 -0.9518 5289.7261 727.365)">
					<stop  offset="0" style="stop-color:#707173"/>
					<stop  offset="1" style="stop-color:#000000"/>
				</linearGradient>
				<path style="fill:url(#SVGID_00000115490550372902657200000010445138583005246629_);" d="M520.8199,188.06
					c-6.05,5.56-14.76,9.49-23.21,8.22c-9.91-1.49-13.67-11.5-22.59-14.1c-3.75-0.9-7.5,0.28-11.4399-1.25
					c-5.9-2.29-10.1899-8.16-12.1-14.09c-1.2-3.72-1.73-7.32-1.6899-10.76c0.04,0.16,0.08,0.33,0.11,0.5
					c3.5601,17.45,12.33,11.01,28.04,10.08c15.72-0.93,19.83,23.06,35.5699,19.02c12.87-3.3,17.66-19.86,18.99-25.82
					C532.39,170.35,529.24,180.32,520.8199,188.06z"/>
				
					<linearGradient id="SVGID_00000112632605005599740140000012729887101162198167_" gradientUnits="userSpaceOnUse" x1="3731.4539" y1="2132.0488" x2="3732.1809" y2="2140.408" gradientTransform="matrix(-1.1233 0.4277 -0.3711 -0.9745 5471.5205 613.7079)">
					<stop  offset="0" style="stop-color:#898A8B"/>
					<stop  offset="1" style="stop-color:#FFFFFF"/>
				</linearGradient>
				<path style="fill:url(#SVGID_00000112632605005599740140000012729887101162198167_);" d="M470.99,132.9
					c1.21,3.18,9.05,3.14,17.52-0.09c8.47-3.22,14.35-8.41,13.14-11.59s-9.05-3.14-17.52,0.09S469.78,129.73,470.99,132.9z"/>
				
					<linearGradient id="SVGID_00000101071796113088226580000000089902411388873897_" gradientUnits="userSpaceOnUse" x1="4413.0977" y1="1986.4752" x2="4406.9507" y2="1993.6056" gradientTransform="matrix(-0.9518 0.3066 -0.3066 -0.9518 5289.7261 727.365)">
					<stop  offset="0" style="stop-color:#FBFBFC"/>
					<stop  offset="1" style="stop-color:#262427"/>
				</linearGradient>
				<path style="fill:url(#SVGID_00000101071796113088226580000000089902411388873897_);" d="M497.61,196.28
					c-9.91-1.49-13.67-11.5-22.59-14.1c-3.75-0.9-7.5,0.28-11.4399-1.25c-3.2-1.24-5.92-3.54-8.05-6.33
					c0.08,0.07,0.16,0.14,0.25,0.23c2.62,2.67,5.98,4.25,9.72,4.41c4.36,0.19,8.85,0,13.0699,1.29c4.9,1.5,8.08,5.11,11.74,8.48
					c6.24,5.75,14.13,6.34,18.84,6.06C505.4399,196.35,501.5,196.87,497.61,196.28z"/>
				
					<linearGradient id="SVGID_00000162312071681840738780000008231741964804418954_" gradientUnits="userSpaceOnUse" x1="4382.1577" y1="2051.0771" x2="4404.1221" y2="1974.6952" gradientTransform="matrix(-0.9518 0.3066 -0.3066 -0.9518 5289.7261 727.365)">
					<stop  offset="0" style="stop-color:#707173"/>
					<stop  offset="0.0595" style="stop-color:#505152"/>
					<stop  offset="0.128" style="stop-color:#333435"/>
					<stop  offset="0.2005" style="stop-color:#1D1D1D"/>
					<stop  offset="0.278" style="stop-color:#0D0D0D"/>
					<stop  offset="0.3637" style="stop-color:#030303"/>
					<stop  offset="0.474" style="stop-color:#000000"/>
					<stop  offset="0.7329" style="stop-color:#39393B"/>
					<stop  offset="1" style="stop-color:#707173"/>
				</linearGradient>
				<path style="fill:url(#SVGID_00000162312071681840738780000008231741964804418954_);" d="M520.38,187.84
					c8.88-8.32,12.15-19.74,11.62-31.66c-0.47-10.65-3.29-22.06-9.11-31.09c-3.1899-4.95-7.6801-9.04-13.35-10.88
					c-6.9301-2.25-14.95-0.5-21.7,1.57c-11.84,3.63-23.38,10.9-30.8,20.93c-4.89,6.62-7.37,14.64-6.67,22.86
					c0.4,4.71,1.87,9.36,4.34,13.38c1.63,2.65,3.84,4.92,6.46,6.61c3.27,2.11,6.83,1.9,10.52,1.99c7.49,0.17,12.24,6.43,17.61,10.73
					C498.92,199.99,512.12,195.26,520.38,187.84c0.22-0.19,0.97,0.36,0.88,0.45c-8.11,7.29-20.45,11.7-30.42,5.52
					c-4.41-2.73-7.61-7-12.01-9.76c-5.37-3.38-11.9301-0.76-17.41-3.97c-9.48-5.55-13.07-17.53-11.8199-27.95
					c1.25-10.39,8.02-19.14,15.97-25.5c10.3-8.25,24.54-14.44,37.9301-13.88c9.03,0.38,16.25,6.22,20.86,13.62
					c5.5,8.83,7.9399,19.9,8.52,30.17c0.63,11.34-2.46,22.5-10.55,30.72c-0.35,0.35-0.71,0.69-1.0699,1.02
					C521.05,188.48,520.28,187.93,520.38,187.84z"/>
			</g>
			<g>
				
					<linearGradient id="SVGID_00000141415488088292931070000003229881966103123621_" gradientUnits="userSpaceOnUse" x1="1153.7571" y1="2267.8572" x2="1170.9728" y2="2362.0886" gradientTransform="matrix(-0.233 0.9725 -0.9725 -0.233 2818.0474 -392.6486)">
					<stop  offset="0" style="stop-color:#5B1F0C"/>
					<stop  offset="1" style="stop-color:#220504"/>
				</linearGradient>
				<path style="fill:url(#SVGID_00000141415488088292931070000003229881966103123621_);" d="M329.81,89.61
					c-43.4-0.44-87.92,28.67-103.96,67.94c-16.58,40.59-9.83,95.93,17.56,130.78c21.57,27.45,66.1,25.98,85.79-0.17
					c24.94-34.09,18.69-66.33-3.5-109.85c-9.56-18.75-13.98-38.3-2.35-54.6c7-9.81,9.55-22.11,6.55-33.78L329.81,89.61z"/>
				
					<linearGradient id="SVGID_00000157271681405648596510000012589369091701160353_" gradientUnits="userSpaceOnUse" x1="4685.2754" y1="1973.6295" x2="4576.4438" y2="2088.3438" gradientTransform="matrix(-0.9518 0.3066 -0.3066 -0.9518 5289.7261 727.365)">
					<stop  offset="0" style="stop-color:#5B1F0C"/>
					<stop  offset="1" style="stop-color:#220504"/>
				</linearGradient>
				<path style="fill:url(#SVGID_00000157271681405648596510000012589369091701160353_);" d="M206.3,218.63
					c1.45-8.42,9.6-28.31,12.3-34.77c0.06-0.35,0.12-0.71,0.18-1.06l-9.82,14.2c-0.63-8.63,14.04-31.7,14.04-31.7v0.03
					c0.86-2.65,1.8-5.25,2.84-7.79c11.69-28.61,42.28-51.9,70.42-62.18l0.41,0.28c0,0-50.7,22.57-67.06,79.21
					c-16.37,56.64,17.42,117.84,44.81,131.86c0.44,0.23,0.86,0.45,1.27,0.68c-12.35-2.25-24.02-8.52-32.3-19.06
					c-7.34-9.34-13.2-20.16-17.52-31.77l0.03,0.84c0,0,6.65,23.97,1.09,17.85c-5.55-6.12-7.7-37.26-7.7-37.26s-1.54,14.11-3.09,8.21
					c-1.54-5.9,0.39-39.94,0.39-39.94s-8.73,20.72-10.39,15.58C206,221.19,206.05,220.08,206.3,218.63z"/>
			</g>
		</g>
	</g>
</g>
<g id="R_Eye">
	<g>
		<g>
			<path d="M411.64,110.52c-1.02-11.73,10.46-19.49,17.34-8.17c5.86,9.65,6.15,19.15,6.57,23.49c1.53-1.13,3.01-2.29,3.01-2.29
				c-1.39,3.72-4.48,7.47-4.48,7.47l-8.34,4.58l-5.43,3.99C416.2,131.09,412.5,120.42,411.64,110.52z"/>
			
				<linearGradient id="SVGID_00000060729489508355389800000018259539227548698275_" gradientUnits="userSpaceOnUse" x1="4437.4146" y1="2091.0195" x2="4438.3979" y2="2088.397" gradientTransform="matrix(-0.9518 0.3066 -0.3066 -0.9518 5289.7261 727.365)">
				<stop  offset="0" style="stop-color:#E74914"/>
				<stop  offset="1" style="stop-color:#000000"/>
			</linearGradient>
			<path style="fill:url(#SVGID_00000060729489508355389800000018259539227548698275_);" d="M420.74,137.88l4.34-3.19
				c0.04-0.03,0.08-0.05,0.12-0.08l8.15-4.48c0.34-0.43,1.28-1.65,2.24-3.19c-0.16,0.01-0.33-0.03-0.49-0.1
				c-0.37-0.16-0.62-0.51-0.66-0.91c-0.04-0.41-0.08-0.86-0.12-1.36c-0.39-4.59-1.12-13.13-6.29-21.66
				c-2.44-4.02-5.7-5.73-8.93-4.69c-3.5,1.13-6.91,5.78-6.36,12.18C413.7,121.3,417.94,131.88,420.74,137.88L420.74,137.88z"/>
		</g>
		<g>
			<path class="st58" d="M420.6,139.82c-1.61-3.33-3.61-7.83-4.62-11.61c-1.83-6.35-3.45-13.5-2.32-20.16
				c0.78-4.61,4.9-10.43,10.05-6.22c3.04,2.48,5.18,6.63,6.53,10.25c2.27,6.07,2.89,12.53,3.62,18.76c0,0-1.94,4.4-5.38,6.54
				C425.03,139.52,420.6,139.82,420.6,139.82z"/>
			<g>
				
					<linearGradient id="SVGID_00000082326056586486884410000002495454902265179009_" gradientUnits="userSpaceOnUse" x1="4580.4575" y1="1474.699" x2="4579.0381" y2="1491.5576" gradientTransform="matrix(-1.0224 0.1595 -0.1595 -1.0224 5341.1465 916.6438)">
					<stop  offset="0" style="stop-color:#3F0E00"/>
					<stop  offset="1" style="stop-color:#5B1F0C"/>
				</linearGradient>
				<path style="fill:url(#SVGID_00000082326056586486884410000002495454902265179009_);" d="M415.98,128.21
					c-1.42-4.92-2.7-10.32-2.69-15.6c0.85-3.25,2.5-5.38,4.73-5.61c4.4-0.46,9.41,6.66,11.19,15.91c1.16,6.03,0.65,11.48-1.06,14.67
					c-2.45,1.42-5.3,1.96-6.69,2.15c-0.47-0.28-0.94-0.63-1.4-1.04C418.57,135.51,416.89,131.58,415.98,128.21z"/>
				<path class="st60" d="M415.98,128.21c-0.68-2.38-1.34-4.86-1.83-7.39c-0.38-6.01,1.35-10.65,4.41-10.97
					c3.65-0.38,7.81,5.53,9.29,13.2c1.47,7.68-0.29,14.21-3.95,14.59c-2.27,0.24-4.74-1.96-6.64-5.5
					C416.76,130.79,416.32,129.46,415.98,128.21z"/>
				
					<linearGradient id="SVGID_00000159449832316540356450000008301443825349567104_" gradientUnits="userSpaceOnUse" x1="4913.4434" y1="1871.5287" x2="4912.6562" y2="1882.5447" gradientTransform="matrix(-0.8939 0.1991 -0.1991 -0.8939 5188.4453 834.9974)">
					<stop  offset="0" style="stop-color:#E74914"/>
					<stop  offset="1" style="stop-color:#220504"/>
				</linearGradient>
				<path style="fill:url(#SVGID_00000159449832316540356450000008301443825349567104_);" d="M415.17,124.38
					c1.35,7.03,5.16,12.44,8.5,12.09c3.35-0.35,4.97-6.33,3.62-13.36s-5.16-12.44-8.5-12.09
					C415.44,111.36,413.83,117.35,415.17,124.38z"/>
				<path class="st58" d="M421,115.78c0.73,2.18,2.13,3.59,3.12,3.14s1.2-2.59,0.46-4.77c-0.74-2.18-2.13-3.59-3.12-3.14
					C420.47,111.46,420.26,113.59,421,115.78z"/>
			</g>
			<path d="M433.84,130.84c-0.95-7.23-1.69-14.52-4.75-21.23c-1.36-2.97-3.19-5.88-5.79-7.91c-2.65-2.06-5.55-1.02-7.41,1.45
				c-1.78,2.35-2.25,5.32-2.4,8.19c-0.18,3.48,0.31,6.98,1.02,10.39c1.31,6.32,3.5,12.22,6.24,18.05c0.07,0.15-0.19,0.27-0.26,0.12
				c-2.97-6.02-5.13-12.31-6.46-18.9c-1.12-5.56-1.92-12.48,1.24-17.54c1.08-1.73,2.77-3.17,4.87-3.25
				c2.57-0.09,4.67,2.23,6.12,4.07c4.33,5.5,5.89,12.89,6.83,19.65c0.32,2.29,0.55,4.6,0.79,6.9
				C433.87,130.86,433.84,130.86,433.84,130.84L433.84,130.84z"/>
		</g>
	</g>
</g>
<g id="L_Eye">
	<g>
		<g>
			<path d="M331.41,144.78c-1.36-4.39-7.33-25.93,2.72-35.65c0,0,10.83-9.69,21.7-0.79c10.87,8.9,12.37,30.37,11.79,33.4
				c0,0-0.11,8.42-0.63,8.47c-0.01,0-23.35,2.1-25.21,1.92c-0.36-0.03-0.84-0.18-1.38-0.4c-0.01,0.05-0.01,0.07-0.01,0.07
				s-8.22-2.26-15.23-8.78C325.16,143.02,328.86,144.31,331.41,144.78z"/>
			
				<linearGradient id="SVGID_00000102502243485921923300000010409071448029320620_" gradientUnits="userSpaceOnUse" x1="4513.583" y1="2108.9927" x2="4514.8945" y2="2104.4033" gradientTransform="matrix(-0.9518 0.3066 -0.3066 -0.9518 5289.7261 727.365)">
				<stop  offset="0" style="stop-color:#E74914"/>
				<stop  offset="1" style="stop-color:#000000"/>
			</linearGradient>
			<path style="fill:url(#SVGID_00000102502243485921923300000010409071448029320620_);" d="M366.16,149.17
				c0.18-1.33,0.31-4.62,0.35-7.44c0-0.06,0.01-0.13,0.02-0.19c0.46-2.4-0.88-23.72-11.4-32.33c-4.2-3.43-8.87-4.36-13.88-2.74
				c-3.77,1.22-6.35,3.48-6.37,3.5c-9.57,9.25-3.68,30.35-2.4,34.48c0.12,0.37,0.03,0.78-0.23,1.07c-0.13,0.15-0.3,0.26-0.49,0.32
				c-0.17,0.06-0.36,0.07-0.55,0.04c-0.28-0.05-0.58-0.12-0.88-0.18c4.54,3.07,8.78,4.54,10.01,4.93c0.16-0.01,0.33,0.01,0.49,0.08
				c0.64,0.25,0.95,0.31,1.07,0.32C343.27,151.15,359.64,149.75,366.16,149.17L366.16,149.17z"/>
		</g>
		<g>
			<path class="st58" d="M338.46,150.62c-5.26-11-10.65-34.9,3.57-41.14c6.72-2.95,13.4,1.57,17.29,7.27
				c6.85,10.04,8.86,21.9,7.68,33.46c0,0-6.58,4.44-14.28,5.38C345.01,156.52,338.46,150.62,338.46,150.62z"/>
			<g>
				
					<linearGradient id="SVGID_00000031893455439871401350000008258428909975749284_" gradientUnits="userSpaceOnUse" x1="4522.0947" y1="1792.0637" x2="4520.4253" y2="1811.887" gradientTransform="matrix(-1.0033 0.2533 -0.2533 -1.0033 5341.6982 807.4825)">
					<stop  offset="0" style="stop-color:#3F0E00"/>
					<stop  offset="1" style="stop-color:#5B1F0C"/>
				</linearGradient>
				<path style="fill:url(#SVGID_00000031893455439871401350000008258428909975749284_);" d="M338.46,150.62
					c-2.78-5.81-5.59-15.22-5.53-23.72c1.48-4.95,4.68-8.68,9.04-9.78c7.74-1.95,16.2,5.12,18.89,15.8
					c2.63,10.41-1.2,20.41-8.56,22.71C344.77,156.3,338.46,150.62,338.46,150.62z"/>
				<path class="st60" d="M335.21,139.39c2.24,8.86,9.26,14.73,15.68,13.11s9.82-10.12,7.58-18.98s-9.26-14.73-15.68-13.11
					C336.37,122.03,332.98,130.53,335.21,139.39z"/>
				
					<linearGradient id="SVGID_00000032646895534645115460000011838029423253021060_" gradientUnits="userSpaceOnUse" x1="4824.8027" y1="2225.0823" x2="4823.8813" y2="2237.9746" gradientTransform="matrix(-0.8717 0.2808 -0.2808 -0.8717 5182.0874 740.2915)">
					<stop  offset="0" style="stop-color:#E74914"/>
					<stop  offset="1" style="stop-color:#220504"/>
				</linearGradient>
				<path style="fill:url(#SVGID_00000032646895534645115460000011838029423253021060_);" d="M336.19,139.15
					c2.05,8.12,8.48,13.49,14.36,12.01c5.88-1.49,8.99-9.27,6.94-17.39s-8.48-13.49-14.36-12.01S334.15,131.03,336.19,139.15z"/>
				<path class="st58" d="M346.79,126.85c1.19,2.42,3.58,3.69,5.33,2.83c1.76-0.86,2.21-3.53,1.03-5.95
					c-1.19-2.42-3.58-3.69-5.33-2.83C346.06,121.77,345.6,124.43,346.79,126.85z"/>
			</g>
			<path d="M366.98,150.21c0.69-7.61,0.07-15.31-2.36-22.58c-2.12-6.36-5.79-13.26-11.65-16.89c-4.88-3.03-10.73-2.29-14.83,1.68
				c-3.08,2.99-4.34,7.29-4.8,11.45c-0.99,9.06,1.55,18.51,5.26,26.71c0.07,0.15-0.19,0.27-0.26,0.12
				c-1.81-3.62-3.06-7.56-4.02-11.48c-1.08-4.41-1.73-8.99-1.61-13.53c0.11-4.05,0.99-8.2,3.3-11.59c2.41-3.54,6.58-5.96,10.92-5.75
				c7.73,0.37,12.9,8.01,15.88,14.27c4.08,8.57,5.21,18.22,4.21,27.6C367.02,150.24,366.97,150.23,366.98,150.21L366.98,150.21z"/>
		</g>
	</g>
</g>
</svg>
